<svg width="435" height="229" viewBox="0 0 435 229" fill="none" xmlns="http://www.w3.org/2000/svg">
<g filter="url(#filter0_b_4002_3191)">
<path d="M0 12.0791C0 5.45169 5.37258 0.0791016 12 0.0791016H422.5C429.127 0.0791016 434.5 5.45169 434.5 12.0791V154.631C434.5 161.258 429.127 166.631 422.5 166.631H385.529C378.902 166.631 373.529 172.003 373.529 178.631V200.636C373.529 203.848 372.242 206.926 369.955 209.181L354.778 224.146C352.532 226.36 349.506 227.602 346.352 227.602H12C5.37259 227.602 0 222.229 0 215.602L0 12.0791Z" fill="white" fill-opacity="0.1"/>
<path d="M12 0.579102H422.5C428.851 0.579102 434 5.72783 434 12.0791V154.631C434 160.982 428.851 166.131 422.5 166.131H385.529C378.626 166.131 373.029 171.727 373.029 178.631V200.636C373.029 203.714 371.795 206.664 369.604 208.825L354.427 223.79C352.275 225.912 349.374 227.102 346.352 227.102H12C5.64873 227.102 0.5 221.953 0.5 215.602V12.0791C0.5 5.72783 5.64873 0.579102 12 0.579102Z" stroke="#12FFF1"/>
</g>
<g filter="url(#filter1_b_4002_3191)">
<rect width="49.69" height="49.69" rx="6.0003" transform="matrix(1 0 0 -1 385 228.079)" fill="white" fill-opacity="0.1"/>
<rect x="0.602523" y="-0.602523" width="48.485" height="48.485" rx="5.39778" transform="matrix(1 0 0 -1 385 226.874)" stroke="url(#paint0_linear_4002_3191)" stroke-opacity="0.8" stroke-width="1.20505"/>
<path d="M400.066 207.417L405.662 213.013C403.67 213.953 401.487 214.116 399.614 213.465C398.963 211.592 399.126 209.409 400.066 207.417ZM412.48 210.187L411.973 213.891L410.185 215.679L397.4 202.894L399.188 201.106L402.892 200.599L408.279 195.211C411.512 191.978 416.263 191.229 420.076 193.003C421.85 196.816 421.101 201.567 417.868 204.8L412.48 210.187ZM411.217 201.862C412.1 202.745 413.646 202.629 414.672 201.604C415.697 200.579 415.812 199.032 414.93 198.149C414.047 197.267 412.5 197.382 411.475 198.408C410.45 199.433 410.335 200.979 411.217 201.862Z" fill="#F0F0F0"/>
</g>
<defs>
<filter id="filter0_b_4002_3191" x="-46.9547" y="-46.8756" width="528.409" height="321.432" filterUnits="userSpaceOnUse" color-interpolation-filters="sRGB">
<feFlood flood-opacity="0" result="BackgroundImageFix"/>
<feGaussianBlur in="BackgroundImageFix" stdDeviation="23.4773"/>
<feComposite in2="SourceAlpha" operator="in" result="effect1_backgroundBlur_4002_3191"/>
<feBlend mode="normal" in="SourceGraphic" in2="effect1_backgroundBlur_4002_3191" result="shape"/>
</filter>
<filter id="filter1_b_4002_3191" x="360.899" y="154.288" width="97.8918" height="97.8919" filterUnits="userSpaceOnUse" color-interpolation-filters="sRGB">
<feFlood flood-opacity="0" result="BackgroundImageFix"/>
<feGaussianBlur in="BackgroundImageFix" stdDeviation="12.0505"/>
<feComposite in2="SourceAlpha" operator="in" result="effect1_backgroundBlur_4002_3191"/>
<feBlend mode="normal" in="SourceGraphic" in2="effect1_backgroundBlur_4002_3191" result="shape"/>
</filter>
<linearGradient id="paint0_linear_4002_3191" x1="1.24225" y1="-5.5691" x2="8.89343" y2="67.3366" gradientUnits="userSpaceOnUse">
<stop stop-color="white" stop-opacity="0.6"/>
<stop offset="1" stop-color="white" stop-opacity="0.1"/>
</linearGradient>
</defs>
</svg>
