<svg width="435" height="228" viewBox="0 0 435 228" fill="none" xmlns="http://www.w3.org/2000/svg">
<g filter="url(#filter0_b_4002_3202)">
<path d="M0 12C0 5.37259 5.37258 0 12 0H422.5C429.127 0 434.5 5.37258 434.5 12V154.552C434.5 161.179 429.127 166.552 422.5 166.552H385.529C378.902 166.552 373.529 171.924 373.529 178.552V200.557C373.529 203.769 372.242 206.847 369.955 209.102L354.778 224.067C352.532 226.281 349.506 227.522 346.352 227.522H12C5.37259 227.522 0 222.15 0 215.522L0 12Z" fill="white" fill-opacity="0.1"/>
<path d="M12 0.5H422.5C428.851 0.5 434 5.64873 434 12V154.552C434 160.903 428.851 166.052 422.5 166.052H385.529C378.626 166.052 373.029 171.648 373.029 178.552V200.557C373.029 203.635 371.795 206.585 369.604 208.746L354.427 223.711C352.275 225.833 349.374 227.022 346.352 227.022H12C5.64873 227.022 0.5 221.874 0.5 215.522V12C0.5 5.64873 5.64873 0.5 12 0.5Z" stroke="#12FFF1"/>
</g>
<g filter="url(#filter1_b_4002_3202)">
<rect width="49.69" height="49.69" rx="6.0003" transform="matrix(1 0 0 -1 385 228)" fill="white" fill-opacity="0.1"/>
<rect x="0.602523" y="-0.602523" width="48.485" height="48.485" rx="5.39778" transform="matrix(1 0 0 -1 385 226.795)" stroke="url(#paint0_linear_4002_3202)" stroke-opacity="0.8" stroke-width="1.20505"/>
<path fill-rule="evenodd" clip-rule="evenodd" d="M409.535 217.523C409.303 217.478 409.136 217.391 408.803 217.218C405.717 215.62 396.844 210.398 396.844 203.191V197.081C396.844 195.789 396.844 195.143 397.057 194.588C397.245 194.098 397.55 193.66 397.946 193.313C398.394 192.92 399.002 192.694 400.219 192.24L408.932 188.992C409.27 188.866 409.439 188.803 409.613 188.778C409.767 188.756 409.923 188.756 410.078 188.778C410.251 188.803 410.42 188.866 410.758 188.992L419.471 192.24C420.688 192.694 421.296 192.92 421.745 193.313C422.14 193.66 422.446 194.098 422.633 194.588C422.846 195.143 422.846 195.789 422.846 197.081V203.191C422.846 210.398 413.973 215.62 410.888 217.218C410.554 217.391 410.387 217.478 410.155 217.523C409.975 217.557 409.715 217.557 409.535 217.523ZM409.926 198.35C410.174 197.856 409.976 197.255 409.482 197.007C408.989 196.759 408.388 196.958 408.139 197.451L405.702 202.297C405.546 202.608 405.562 202.976 405.744 203.272C405.926 203.567 406.248 203.747 406.595 203.747H411.473L409.765 207.144C409.516 207.637 409.715 208.239 410.209 208.487C410.702 208.735 411.303 208.536 411.551 208.043L413.989 203.196C414.145 202.886 414.129 202.518 413.947 202.222C413.765 201.927 413.443 201.747 413.096 201.747H408.218L409.926 198.35Z" fill="#F0F0F0"/>
</g>
<defs>
<filter id="filter0_b_4002_3202" x="-46.9547" y="-46.9547" width="528.409" height="321.432" filterUnits="userSpaceOnUse" color-interpolation-filters="sRGB">
<feFlood flood-opacity="0" result="BackgroundImageFix"/>
<feGaussianBlur in="BackgroundImageFix" stdDeviation="23.4773"/>
<feComposite in2="SourceAlpha" operator="in" result="effect1_backgroundBlur_4002_3202"/>
<feBlend mode="normal" in="SourceGraphic" in2="effect1_backgroundBlur_4002_3202" result="shape"/>
</filter>
<filter id="filter1_b_4002_3202" x="360.899" y="154.209" width="97.8918" height="97.8919" filterUnits="userSpaceOnUse" color-interpolation-filters="sRGB">
<feFlood flood-opacity="0" result="BackgroundImageFix"/>
<feGaussianBlur in="BackgroundImageFix" stdDeviation="12.0505"/>
<feComposite in2="SourceAlpha" operator="in" result="effect1_backgroundBlur_4002_3202"/>
<feBlend mode="normal" in="SourceGraphic" in2="effect1_backgroundBlur_4002_3202" result="shape"/>
</filter>
<linearGradient id="paint0_linear_4002_3202" x1="1.24225" y1="-5.5691" x2="8.89343" y2="67.3366" gradientUnits="userSpaceOnUse">
<stop stop-color="white" stop-opacity="0.6"/>
<stop offset="1" stop-color="white" stop-opacity="0.1"/>
</linearGradient>
</defs>
</svg>
