<svg width="310" height="163" viewBox="0 0 310 163" fill="none" xmlns="http://www.w3.org/2000/svg">
<g filter="url(#filter0_b_1951_8752)">
<path d="M0.331543 9.07477C0.331543 4.36194 4.15205 0.541443 8.86488 0.541443H300.776C305.489 0.541443 309.309 4.36195 309.309 9.07478V110.445C309.309 115.158 305.489 118.978 300.776 118.978H274.486C269.773 118.978 265.952 122.799 265.952 127.512V143.16C265.952 145.444 265.037 147.632 263.41 149.236L252.618 159.878C251.021 161.453 248.869 162.335 246.626 162.335H8.86488C4.15205 162.335 0.331543 158.515 0.331543 153.802L0.331543 9.07477Z" fill="white" fill-opacity="0.1"/>
<path d="M0.687099 9.07477C0.687099 4.55831 4.34841 0.896998 8.86488 0.896998H300.776C305.292 0.896998 308.954 4.55831 308.954 9.07478V110.445C308.954 114.961 305.292 118.623 300.776 118.623H274.486C269.577 118.623 265.597 122.602 265.597 127.512V143.16C265.597 145.349 264.719 147.446 263.161 148.983L252.368 159.625C250.838 161.134 248.775 161.98 246.626 161.98H8.86488C4.34842 161.98 0.687099 158.318 0.687099 153.802V9.07477Z" stroke="url(#paint0_linear_1951_8752)" stroke-opacity="0.8" stroke-width="0.711111"/>
</g>
<g filter="url(#filter1_b_1951_8752)">
<rect width="35.33" height="35.33" rx="4.26626" transform="matrix(1 0 0 -1 274 162.542)" fill="white" fill-opacity="0.1"/>
<rect x="0.428399" y="-0.428399" width="34.4732" height="34.4732" rx="3.83786" transform="matrix(1 0 0 -1 274 161.685)" stroke="url(#paint1_linear_1951_8752)" stroke-opacity="0.8" stroke-width="0.856798"/>
<path fill-rule="evenodd" clip-rule="evenodd" d="M294.626 152.723L294.773 152.576L298.571 148.778C298.571 148.778 298.571 148.778 298.571 148.778L299.252 148.097L301.221 150.066L296.517 154.77C295.699 155.588 295.348 155.935 294.955 156.21C294.596 156.461 294.208 156.668 293.801 156.829C293.423 156.978 293.018 157.072 292.212 157.237C292.333 156.419 292.412 155.989 292.552 155.587C292.71 155.133 292.926 154.701 293.195 154.302C293.472 153.89 293.828 153.522 294.626 152.723ZM293.71 151.627C293.269 152.068 292.925 152.413 292.642 152.723H285.532C284.943 152.723 284.648 152.723 284.423 152.608C284.225 152.508 284.065 152.347 283.964 152.149C283.849 151.924 283.849 151.629 283.849 151.04V149.236C283.849 148.568 283.849 148.233 283.9 147.955C284.134 146.66 285.147 145.647 286.442 145.412C286.523 145.398 286.608 145.387 286.705 145.38C286.942 145.362 287.06 145.353 287.218 145.365C287.382 145.377 287.474 145.393 287.633 145.438C287.785 145.481 288.06 145.605 288.61 145.854C289.403 146.213 290.283 146.413 291.21 146.413C292.138 146.413 293.018 146.213 293.811 145.854C294.361 145.605 294.636 145.481 294.788 145.438C294.947 145.393 295.038 145.377 295.203 145.365C295.361 145.353 295.479 145.362 295.716 145.38C295.811 145.387 295.895 145.397 295.975 145.411C296.969 145.59 297.798 146.228 298.237 147.101L293.767 151.571L293.71 151.627ZM295.417 139.049C295.417 141.373 293.534 143.256 291.21 143.256C288.887 143.256 287.004 141.373 287.004 139.049C287.004 136.726 288.887 134.843 291.21 134.843C293.534 134.843 295.417 136.726 295.417 139.049ZM302.226 149.061L300.257 147.092L301.764 145.585C302.308 145.041 303.189 145.041 303.733 145.585C304.277 146.129 304.277 147.01 303.733 147.554L302.226 149.061Z" fill="#F0F0F0"/>
</g>
<defs>
<filter id="filter0_b_1951_8752" x="-33.0585" y="-32.8486" width="375.758" height="228.574" filterUnits="userSpaceOnUse" color-interpolation-filters="sRGB">
<feFlood flood-opacity="0" result="BackgroundImageFix"/>
<feGaussianBlur in="BackgroundImageFix" stdDeviation="16.695"/>
<feComposite in2="SourceAlpha" operator="in" result="effect1_backgroundBlur_1951_8752"/>
<feBlend mode="normal" in="SourceGraphic" in2="effect1_backgroundBlur_1951_8752" result="shape"/>
</filter>
<filter id="filter1_b_1951_8752" x="256.864" y="110.076" width="69.602" height="69.6019" filterUnits="userSpaceOnUse" color-interpolation-filters="sRGB">
<feFlood flood-opacity="0" result="BackgroundImageFix"/>
<feGaussianBlur in="BackgroundImageFix" stdDeviation="8.56798"/>
<feComposite in2="SourceAlpha" operator="in" result="effect1_backgroundBlur_1951_8752"/>
<feBlend mode="normal" in="SourceGraphic" in2="effect1_backgroundBlur_1951_8752" result="shape"/>
</filter>
<linearGradient id="paint0_linear_1951_8752" x1="8.05599" y1="-17.5919" x2="21.2053" y2="221.685" gradientUnits="userSpaceOnUse">
<stop stop-color="white" stop-opacity="0.6"/>
<stop offset="1" stop-color="white" stop-opacity="0.1"/>
</linearGradient>
<linearGradient id="paint1_linear_1951_8752" x1="0.88325" y1="-3.95968" x2="6.3233" y2="47.8769" gradientUnits="userSpaceOnUse">
<stop stop-color="white" stop-opacity="0.6"/>
<stop offset="1" stop-color="white" stop-opacity="0.1"/>
</linearGradient>
</defs>
</svg>
