<svg width="435" height="229" viewBox="0 0 435 229" fill="none" xmlns="http://www.w3.org/2000/svg">
<g filter="url(#filter0_b_4002_3176)">
<path d="M0 12.0791C0 5.45169 5.37258 0.0791016 12 0.0791016H422.5C429.127 0.0791016 434.5 5.45169 434.5 12.0791V154.631C434.5 161.258 429.127 166.631 422.5 166.631H385.529C378.902 166.631 373.529 172.003 373.529 178.631V200.636C373.529 203.848 372.242 206.926 369.955 209.181L354.778 224.146C352.532 226.36 349.506 227.602 346.352 227.602H12C5.37259 227.602 0 222.229 0 215.602L0 12.0791Z" fill="white" fill-opacity="0.1"/>
<path d="M12 0.579102H422.5C428.851 0.579102 434 5.72783 434 12.0791V154.631C434 160.982 428.851 166.131 422.5 166.131H385.529C378.626 166.131 373.029 171.727 373.029 178.631V200.636C373.029 203.714 371.795 206.664 369.604 208.825L354.427 223.79C352.275 225.912 349.374 227.102 346.352 227.102H12C5.64873 227.102 0.5 221.953 0.5 215.602V12.0791C0.5 5.72783 5.64873 0.579102 12 0.579102Z" stroke="#12FFF1"/>
</g>
<g filter="url(#filter1_b_4002_3176)">
<rect width="49.69" height="49.69" rx="6.0003" transform="matrix(1 0 0 -1 385 228.079)" fill="white" fill-opacity="0.1"/>
<rect x="0.602523" y="-0.602523" width="48.485" height="48.485" rx="5.39778" transform="matrix(1 0 0 -1 385 226.874)" stroke="url(#paint0_linear_4002_3176)" stroke-opacity="0.8" stroke-width="1.20505"/>
<path fill-rule="evenodd" clip-rule="evenodd" d="M414.01 214.27L414.216 214.063L419.558 208.721C419.558 208.721 419.558 208.721 419.558 208.721L420.516 207.764L423.285 210.533L416.669 217.149C415.519 218.299 415.025 218.788 414.473 219.173C413.967 219.526 413.423 219.819 412.849 220.044C412.317 220.254 411.748 220.387 410.615 220.618C410.785 219.467 410.896 218.864 411.093 218.298C411.315 217.659 411.619 217.051 411.997 216.49C412.387 215.91 412.888 215.393 414.01 214.27ZM412.722 212.729C412.102 213.349 411.618 213.833 411.22 214.27H401.219C400.391 214.27 399.977 214.27 399.66 214.109C399.382 213.967 399.156 213.741 399.014 213.462C398.853 213.146 398.853 212.732 398.853 211.903V209.365C398.853 208.425 398.853 207.955 398.924 207.563C399.253 205.742 400.678 204.317 402.499 203.987C402.613 203.967 402.733 203.952 402.869 203.942C403.202 203.916 403.369 203.904 403.591 203.92C403.822 203.937 403.951 203.96 404.174 204.023C404.389 204.084 404.775 204.259 405.548 204.609C406.663 205.114 407.902 205.395 409.206 205.395C410.51 205.395 411.749 205.114 412.864 204.609C413.637 204.259 414.023 204.084 414.238 204.023C414.461 203.96 414.59 203.938 414.821 203.92C415.043 203.904 415.209 203.916 415.543 203.942C415.677 203.952 415.795 203.966 415.907 203.986C417.306 204.238 418.472 205.135 419.088 206.363L412.802 212.649L412.722 212.729ZM415.122 195.038C415.122 198.306 412.474 200.955 409.206 200.955C405.939 200.955 403.29 198.306 403.29 195.038C403.29 191.771 405.939 189.122 409.206 189.122C412.474 189.122 415.122 191.771 415.122 195.038ZM424.699 209.119L421.93 206.35L424.05 204.23C424.814 203.466 426.054 203.466 426.819 204.23C427.583 204.995 427.583 206.235 426.819 206.999L424.699 209.119Z" fill="#F0F0F0"/>
</g>
<defs>
<filter id="filter0_b_4002_3176" x="-46.9547" y="-46.8756" width="528.409" height="321.432" filterUnits="userSpaceOnUse" color-interpolation-filters="sRGB">
<feFlood flood-opacity="0" result="BackgroundImageFix"/>
<feGaussianBlur in="BackgroundImageFix" stdDeviation="23.4773"/>
<feComposite in2="SourceAlpha" operator="in" result="effect1_backgroundBlur_4002_3176"/>
<feBlend mode="normal" in="SourceGraphic" in2="effect1_backgroundBlur_4002_3176" result="shape"/>
</filter>
<filter id="filter1_b_4002_3176" x="360.899" y="154.288" width="97.8918" height="97.8919" filterUnits="userSpaceOnUse" color-interpolation-filters="sRGB">
<feFlood flood-opacity="0" result="BackgroundImageFix"/>
<feGaussianBlur in="BackgroundImageFix" stdDeviation="12.0505"/>
<feComposite in2="SourceAlpha" operator="in" result="effect1_backgroundBlur_4002_3176"/>
<feBlend mode="normal" in="SourceGraphic" in2="effect1_backgroundBlur_4002_3176" result="shape"/>
</filter>
<linearGradient id="paint0_linear_4002_3176" x1="1.24225" y1="-5.5691" x2="8.89343" y2="67.3366" gradientUnits="userSpaceOnUse">
<stop stop-color="white" stop-opacity="0.6"/>
<stop offset="1" stop-color="white" stop-opacity="0.1"/>
</linearGradient>
</defs>
</svg>
