<svg width="393" height="852" viewBox="0 0 393 852" fill="none" xmlns="http://www.w3.org/2000/svg">
<path d="M-153.092 -33.6085L-149.926 -36C-83.8832 43.727 104.264 260.277 212.465 260.277C296.044 260.277 344.173 133.472 350.722 115.151L354.537 116.484C354.537 116.484 294.507 284.644 350.925 328.949C406.406 372.513 639.878 298.966 659.861 292.63L661 296.44C661 296.44 392.706 378.172 375.659 456.072C363.47 511.749 433.344 590.369 451.997 610.538L449.188 613.247C449.188 613.247 367.993 522.062 307.563 547.552C217.701 585.473 166.321 850.66 160.102 888L156.138 887.253C156.138 887.253 212.513 588.423 71.3087 521.401C-8.01373 483.727 -203.801 531.8 -234.861 539.582L-236 535.68C-236 535.68 37.8432 466.922 37.8432 315.771C37.8432 193.432 -153.092 -33.6085 -153.092 -33.6085Z" fill="#F0F0F0" fill-opacity="0.06"/>
</svg>
