<svg width="1920" height="1080" viewBox="0 0 1920 1080" fill="none" xmlns="http://www.w3.org/2000/svg">
<path d="M-115.988 -809.975L-106.672 -817C87.7015 -582.824 641.445 53.2335 959.898 53.2335C1205.88 53.2335 1347.53 -319.223 1366.81 -373.036L1378.04 -369.121C1378.04 -369.121 1201.36 124.804 1367.4 254.939C1530.69 382.896 2217.83 166.872 2276.65 148.262L2280 159.453C2280 159.453 1490.37 399.518 1440.2 628.327C1404.33 791.864 1609.97 1022.79 1664.87 1082.03L1656.61 1089.99C1656.61 1089.99 1417.64 822.156 1239.78 897.026C975.307 1008.41 824.089 1787.32 805.784 1897L794.118 1894.81C794.118 1894.81 960.039 1017.07 544.454 820.214C310.996 709.559 -265.233 850.759 -356.649 873.616L-360 862.156C-360 862.156 445.96 660.198 445.96 216.234C445.96 -143.105 -115.988 -809.975 -115.988 -809.975Z" fill="#F0F0F0" fill-opacity="0.06"/>
</svg>
