<svg width="230" height="84" viewBox="0 0 230 84" fill="none" xmlns="http://www.w3.org/2000/svg">
<g clip-path="url(#clip0_5155_39103)">
<path d="M7.59341 0.216472L7.88335 0C13.9321 7.21653 31.164 26.8177 41.074 26.8177C48.7288 26.8177 53.1368 15.3398 53.7367 13.6815L54.0861 13.8021C54.0861 13.8021 48.588 29.0233 53.7552 33.0336C58.8366 36.9768 80.2198 30.3197 82.0501 29.7461L82.1544 30.091C82.1544 30.091 57.5819 37.489 56.0206 44.5401C54.9042 49.5798 61.3038 56.6961 63.0122 58.5218L62.7549 58.767C62.7549 58.767 55.3184 50.5133 49.7838 52.8205C41.5535 56.253 36.8478 80.2565 36.2781 83.6364L35.9151 83.5688C35.9151 83.5688 41.0784 56.52 28.1458 50.4535C20.8808 47.0434 2.94907 51.3947 0.10428 52.0991L0 51.746C0 51.746 25.0807 45.5223 25.0807 31.8408C25.0807 20.7672 7.59341 0.216472 7.59341 0.216472ZM152.186 36.4412C150.166 35.0874 147.403 34.401 143.975 34.401C139.571 34.401 135.911 35.9387 133.35 38.8564V35.4318V35.1253H133.044H125.896H125.589V35.4318V62.9023V63.2088H125.896H133.044H133.35V62.9023V48.1307C133.35 42.1127 138.53 40.506 141.591 40.506C147.493 40.506 148.175 43.9403 148.175 46.5239V62.9028V63.2092H148.481H155.629H155.935V62.9028V44.2434C155.933 40.7332 154.672 38.1092 152.186 36.4412ZM179.057 57.6272L174.082 57.7269C172.004 57.7269 171.798 56.4057 171.798 53.1611V40.9234H178.953H179.259V40.6169V35.4342V35.1278H178.953H171.798V26.9339V26.4032L171.339 26.6708L164.19 30.8178L164.037 30.9058V31.0814V35.1287H158.645H158.339V35.4352V40.6179V40.9243H158.645H164.037V55.2348C164.037 60.4296 164.711 63.8334 173.718 63.8334C175.988 63.8334 177.443 63.6602 179.251 63.415L179.516 63.378V63.1105V57.9283V57.6116L179.2 57.6218L179.057 57.6272ZM183.965 35.1263H183.659V35.4328V62.9033V63.2097H183.965H191.113H191.42V62.9033V35.4328V35.1263H191.113H183.965ZM183.965 24.9672H183.659V25.2737V31.079V31.3855H183.965H191.113H191.42V31.079V25.2737V24.9672H191.113H183.965ZM229.555 62.7033L217.351 48.7523L228.727 35.6346L229.167 35.1263H228.496H219.276H219.129L219.037 35.2406L212.078 43.8576L205.27 35.2426L205.179 35.1263H205.029H195.809H195.142L195.577 35.6327L206.854 48.7523L194.699 62.7033L194.256 63.2097H194.93H204.15H204.295L204.387 63.0974L212.072 53.649L219.554 63.0935L219.645 63.2097H219.794H229.325H230L229.555 62.7033ZM117.484 24.9672H111.982H108.565H108.425L108.333 25.0752L76.3093 62.7048L75.879 63.2092H76.5422H85.4601H85.6009L85.693 63.1012L93.3639 54.0858H111.676V62.9008V63.2073H111.982H119.13H119.437V62.9008V25.2732V24.9667H119.13L117.484 24.9672ZM98.8698 47.6189L111.676 32.5714V47.6189H98.8698Z" fill="white"/>
</g>
<defs>
<clipPath id="clip0_5155_39103">
<rect width="230" height="83.6364" fill="white"/>
</clipPath>
</defs>
</svg>
