<svg width="140" height="51" viewBox="0 0 140 51" fill="none" xmlns="http://www.w3.org/2000/svg">
<g clip-path="url(#clip0_5155_39110)">
<path d="M4.62208 0.132001L4.79856 0C8.48038 4.40052 18.9694 16.353 25.0016 16.353C29.661 16.353 32.3442 9.35395 32.7093 8.34274L32.9219 8.4163C32.9219 8.4163 29.5753 17.6979 32.7206 20.1433C35.8136 22.5478 48.8294 18.4884 49.9435 18.1387L50.007 18.349C50.007 18.349 35.0498 22.8601 34.0995 27.1598C33.42 30.2329 37.3153 34.5723 38.3553 35.6856L38.1986 35.8351C38.1986 35.8351 33.6721 30.8021 30.3032 32.209C25.2934 34.3021 22.4291 48.939 22.0823 51L21.8614 50.9588C21.8614 50.9588 25.0042 34.4649 17.1322 30.7656C12.71 28.6863 1.79508 31.3396 0.0634746 31.7691L0 31.5538C0 31.5538 15.2665 27.7587 15.2665 19.416C15.2665 12.6635 4.62208 0.132001 4.62208 0.132001ZM92.6352 22.2212C91.4055 21.3957 89.7234 20.9771 87.6367 20.9771C84.956 20.9771 82.7287 21.9148 81.1697 23.694V21.6057V21.4188H80.9835H76.6322H76.4456V21.6057V38.3567V38.5436H76.6322H80.9835H81.1697V38.3567V29.3492C81.1697 25.6796 84.3224 24.6998 86.1857 24.6998C89.7783 24.6998 90.1932 26.7941 90.1932 28.3695V38.357V38.5439H90.3795H94.7308H94.917V38.357V26.9789C94.9159 24.8384 94.1482 23.2383 92.6352 22.2212ZM108.991 35.14L105.963 35.2009C104.698 35.2009 104.573 34.3952 104.573 32.4167V24.9543H108.928H109.114V24.7675V21.6072V21.4203H108.928H104.573V16.4238V16.1002L104.293 16.2634L99.9419 18.7921L99.8488 18.8458V18.9529V21.4209H96.5668H96.3805V21.6078V24.7681V24.9549H96.5668H99.8488V33.6812C99.8488 36.8489 100.259 38.9245 105.742 38.9245C107.123 38.9245 108.009 38.8189 109.109 38.6694L109.271 38.6468V38.4837V35.3237V35.1306L109.078 35.1368L108.991 35.14ZM111.979 21.4194H111.792V21.6063V38.3573V38.5442H111.979H116.33H116.516V38.3573V21.6063V21.4194H116.33H111.979ZM111.979 15.2246H111.792V15.4114V18.9514V19.1383H111.979H116.33H116.516V18.9514V15.4114V15.2246H116.33H111.979ZM139.729 38.2354L132.301 29.7283L139.225 21.7294L139.493 21.4194H139.084H133.472H133.383L133.327 21.4891L129.091 26.7436L124.947 21.4903L124.891 21.4194H124.801H119.188H118.782L119.047 21.7282L125.911 29.7283L118.513 38.2354L118.243 38.5442H118.653H124.265H124.353L124.409 38.4757L129.087 32.7142L133.641 38.4733L133.697 38.5442H133.788H139.589H140L139.729 38.2354ZM71.5118 15.2246H68.1628H66.0833H65.9975L65.9418 15.2904L46.4492 38.2363L46.1872 38.5439H46.5909H52.0192H52.1049L52.161 38.478L56.8302 32.9806H67.9765V38.3558V38.5427H68.1628H72.5141H72.7006V38.3558V15.4111V15.2243H72.5141L71.5118 15.2246ZM60.1816 29.0372L67.9765 19.8615V29.0372H60.1816Z" fill="white"/>
</g>
<defs>
<clipPath id="clip0_5155_39110">
<rect width="140" height="51" fill="white"/>
</clipPath>
</defs>
</svg>
