<svg width="41" height="54" viewBox="0 0 41 54" fill="none" xmlns="http://www.w3.org/2000/svg">
<path d="M3.28906 2.87891H38.0016V50.2145L20.6453 44.5548L3.28906 50.2145V2.87891Z" fill="#1B6C97"/>
<path fill-rule="evenodd" clip-rule="evenodd" d="M0.90625 0.496094H40.3829V53.4961L20.6446 47.0596L0.90625 53.4961V0.496094ZM20.6446 44.5541L38.0008 50.2138V2.87818H3.28834V50.2138L20.6446 44.5541Z" fill="url(#paint0_linear_1578_1084)"/>
<path d="M27.2222 13.2485L21.1554 11.7031C21.1554 11.7031 18.036 12.3729 15.8601 12.5649C21.635 14.224 27.9086 13.6357 27.2222 13.2485Z" fill="white"/>
<path d="M33.6134 13.6626C32.6152 13.4302 31.6137 13.2115 30.6092 13.0066C21.9373 17.0883 12.8142 12.1387 12.8142 12.1387L9.53699 12.5335L21.7495 18.0346L33.6134 13.6626ZM16.5616 27.1043C15.9304 24.3652 14.4977 22.5571 13.0288 21.3743C12.2815 20.7787 11.4612 20.281 10.5878 19.8934L11.1164 24.2301L11.533 27.6481L13.8335 29.8356L16.743 32.6054C16.7667 32.4149 16.7872 32.229 16.8061 32.0462C16.9986 30.1321 16.885 28.4976 16.5616 27.1043Z" fill="white"/>
<path d="M21.2891 19.6828L8.33179 13.6455L9.01026 17.7579C11.0646 18.1957 19.9337 20.8948 18.3606 34.6299L21.0587 37.1616L21.2891 19.6828Z" fill="white"/>
<path d="M23.865 29.3694L23.9045 29.1958C25.6717 20.5531 30.0755 18.9801 31.4482 18.6989L31.5586 18.6483L32.417 14.9307L21.0738 19.5869L20.9413 37.1686L23.2497 34.4557C23.3245 33.0827 23.4719 31.7146 23.6915 30.3571C23.7388 30.0238 23.794 29.6935 23.865 29.3694Z" fill="white"/>
<path d="M24.5233 33.1615L28.0624 28.8602L28.5989 28.2042L28.7725 27.387C29.2458 25.1702 29.8501 22.6493 30.3235 20.4326C28.3354 21.6984 25.4479 25.1795 24.5233 33.1615Z" fill="white"/>
<defs>
<linearGradient id="paint0_linear_1578_1084" x1="20.6446" y1="2.87818" x2="20.6446" y2="50.2138" gradientUnits="userSpaceOnUse">
<stop stop-color="#E7D8AC"/>
<stop offset="1" stop-color="#908067"/>
</linearGradient>
</defs>
</svg>
