<svg width="40" height="54" viewBox="0 0 40 54" fill="none" xmlns="http://www.w3.org/2000/svg">
<path d="M2.76062 2.875H37.4784V50.2178L20.1195 44.5573L2.76062 50.2178V2.875Z" fill="#56C2B4"/>
<path fill-rule="evenodd" clip-rule="evenodd" d="M0.382935 0.496094H39.8588V53.4961L20.1209 47.0598L0.382935 53.4961V0.496094ZM20.1209 44.5574L37.4798 50.218V2.87513H2.76197V50.218L20.1209 44.5574Z" fill="url(#paint0_linear_1578_1093)"/>
<path d="M26.7017 13.2478L20.634 11.7021C20.634 11.7021 17.5141 12.372 15.3379 12.5641C21.1137 14.2234 27.3882 13.635 26.7017 13.2478Z" fill="white"/>
<path d="M33.093 13.6609C32.0947 13.4284 31.093 13.2097 30.0883 13.0048C21.4152 17.0871 12.2906 12.1367 12.2906 12.1367L9.01294 12.5316L21.2274 18.0335L33.093 13.6609ZM16.0386 27.1046C15.4074 24.3652 13.9745 22.5568 12.5053 21.3737C11.7579 20.7781 10.9375 20.2803 10.0639 19.8926L10.5926 24.23L11.0092 27.6485L13.3101 29.8364L16.2201 32.6066C16.2438 32.416 16.2643 32.2301 16.2832 32.0473C16.4757 30.1329 16.3621 28.4981 16.0386 27.1046Z" fill="white"/>
<path d="M20.7673 19.6837L7.80798 13.6455L8.48656 17.7585C10.5412 18.1964 19.4117 20.8959 17.8383 34.6331L20.5369 37.1652L20.7673 19.6837Z" fill="white"/>
<path d="M23.3425 29.3706L23.3819 29.197C25.1494 20.553 29.5538 18.9797 30.9268 18.6985L31.0372 18.6478L31.8957 14.9297L20.5508 19.5866L20.4183 37.171L22.727 34.4577C22.8018 33.0845 22.9493 31.7161 23.1689 30.3585C23.2162 30.0251 23.2715 29.6948 23.3425 29.3706Z" fill="white"/>
<path d="M24.0012 33.1625L27.5409 28.8605L28.0774 28.2044L28.251 27.3871C28.7244 25.17 29.3289 22.6487 29.8023 20.4316C27.8139 21.6977 24.926 25.1792 24.0012 33.1625Z" fill="white"/>
<defs>
<linearGradient id="paint0_linear_1578_1093" x1="20.1209" y1="2.87513" x2="20.1209" y2="50.218" gradientUnits="userSpaceOnUse">
<stop stop-color="#E7D8AC"/>
<stop offset="1" stop-color="#908067"/>
</linearGradient>
</defs>
</svg>
