<svg width="120" height="120" viewBox="0 0 120 120" fill="none" xmlns="http://www.w3.org/2000/svg">
<path d="M76.4142 88.5858C75.6332 87.8047 74.3668 87.8047 73.5858 88.5858C72.8047 89.3668 72.8047 90.6332 73.5858 91.4142L76.4142 88.5858ZM85 100L83.5858 101.414C84.3668 102.195 85.6332 102.195 86.4142 101.414L85 100ZM106.414 81.4142C107.195 80.6332 107.195 79.3668 106.414 78.5858C105.633 77.8047 104.367 77.8047 103.586 78.5858L106.414 81.4142ZM55 97C56.1046 97 57 96.1046 57 95C57 93.8954 56.1046 93 55 93V97ZM103 60C103 61.1046 103.895 62 105 62C106.105 62 107 61.1046 107 60H103ZM16.0899 89.5399L17.8719 88.6319H17.8719L16.0899 89.5399ZM20.4601 93.9101L21.3681 92.1281H21.3681L20.4601 93.9101ZM99.5399 26.0899L100.448 24.3079V24.3079L99.5399 26.0899ZM103.91 30.4601L102.128 31.3681V31.3681L103.91 30.4601ZM20.4601 26.0899L19.5521 24.3079V24.3079L20.4601 26.0899ZM16.0899 30.4601L14.3079 29.5521H14.3079L16.0899 30.4601ZM77.7496 58.1675L76.6402 56.5034L77.7496 58.1675ZM104.143 42.9755C105.062 42.3628 105.31 41.1211 104.698 40.202C104.085 39.283 102.843 39.0346 101.924 39.6473L104.143 42.9755ZM16.8467 38.8291C15.9276 38.2164 14.6859 38.4647 14.0732 39.3838C13.4605 40.3028 13.7088 41.5446 14.6279 42.1573L16.8467 38.8291ZM42.2488 58.1675L43.3582 56.5034H43.3582L42.2488 58.1675ZM64.66 65.4134L65.126 67.3584H65.126L64.66 65.4134ZM55.3384 65.4134L54.8723 67.3584H54.8723L55.3384 65.4134ZM73.5858 91.4142L83.5858 101.414L86.4142 98.5858L76.4142 88.5858L73.5858 91.4142ZM86.4142 101.414L106.414 81.4142L103.586 78.5858L83.5858 98.5858L86.4142 101.414ZM31 27H89V23H31V27ZM17 79V41H13V79H17ZM55 93H31V97H55V93ZM103 41V60H107V41H103ZM13 79C13 81.7673 12.9984 83.963 13.1429 85.7308C13.2892 87.522 13.5954 89.0494 14.3079 90.4479L17.8719 88.6319C17.4946 87.8913 17.2557 86.949 17.1296 85.4051C17.0016 83.8379 17 81.8333 17 79H13ZM31 93C28.1667 93 26.1621 92.9984 24.5949 92.8704C23.051 92.7443 22.1087 92.5054 21.3681 92.1281L19.5521 95.6921C20.9506 96.4046 22.478 96.7108 24.2692 96.8571C26.037 97.0016 28.2327 97 31 97V93ZM14.3079 90.4479C15.4584 92.7058 17.2942 94.5416 19.5521 95.6921L21.3681 92.1281C19.8628 91.3611 18.6389 90.1372 17.8719 88.6319L14.3079 90.4479ZM89 27C91.8333 27 93.8379 27.0016 95.4051 27.1296C96.949 27.2557 97.8913 27.4946 98.6319 27.8719L100.448 24.3079C99.0494 23.5954 97.522 23.2892 95.7308 23.1429C93.963 22.9984 91.7673 23 89 23V27ZM107 41C107 38.2327 107.002 36.037 106.857 34.2692C106.711 32.478 106.405 30.9506 105.692 29.5521L102.128 31.3681C102.505 32.1087 102.744 33.051 102.87 34.5949C102.998 36.1621 103 38.1667 103 41H107ZM98.6319 27.8719C100.137 28.6389 101.361 29.8628 102.128 31.3681L105.692 29.5521C104.542 27.2942 102.706 25.4584 100.448 24.3079L98.6319 27.8719ZM31 23C28.2327 23 26.037 22.9984 24.2692 23.1429C22.478 23.2892 20.9506 23.5954 19.5521 24.3079L21.3681 27.8719C22.1087 27.4946 23.051 27.2557 24.5949 27.1296C26.1621 27.0016 28.1667 27 31 27V23ZM17 41C17 38.1667 17.0016 36.1621 17.1296 34.5949C17.2557 33.051 17.4946 32.1087 17.8719 31.3681L14.3079 29.5521C13.5954 30.9506 13.2892 32.478 13.1429 34.2692C12.9984 36.037 13 38.2327 13 41H17ZM19.5521 24.3079C17.2942 25.4584 15.4584 27.2942 14.3079 29.5521L17.8719 31.3681C18.6389 29.8628 19.8628 28.6389 21.3681 27.8719L19.5521 24.3079ZM78.859 59.8316L104.143 42.9755L101.924 39.6473L76.6402 56.5034L78.859 59.8316ZM14.6279 42.1573L41.1394 59.8316L43.3582 56.5034L16.8467 38.8291L14.6279 42.1573ZM76.6402 56.5034C70.0943 60.8673 67.2308 62.7407 64.1939 63.4685L65.126 67.3584C69.023 66.4245 72.5746 64.0212 78.859 59.8316L76.6402 56.5034ZM41.1394 59.8316C47.4238 64.0212 50.9754 66.4245 54.8723 67.3584L55.8045 63.4685C52.7676 62.7407 49.904 60.8673 43.3582 56.5034L41.1394 59.8316ZM64.1939 63.4685C61.4365 64.1293 58.5619 64.1293 55.8045 63.4685L54.8723 67.3584C58.2425 68.166 61.7558 68.166 65.126 67.3584L64.1939 63.4685Z" fill="#12FFF1"/>
</svg>
