<svg width="198" height="40" viewBox="0 0 198 40" fill="none" xmlns="http://www.w3.org/2000/svg">
<path fill-rule="evenodd" clip-rule="evenodd" d="M24.6235 2.09518C24.4047 2.09518 24.1015 2.08699 23.7384 2.07719C20.795 1.9977 13.9236 1.81213 16.3447 5.02565C17.0205 4.78239 17.0091 4.74096 16.9693 4.59661C16.93 4.4537 16.8629 4.2099 17.4073 3.56949L22.2194 3.43307C22.2295 3.70048 22.2472 4.05743 22.2683 4.4815L22.2683 4.48159C22.4331 7.80613 22.8025 15.2551 21.3319 16.0225C21.1631 16.1107 21.0833 16.1329 20.988 16.1594C20.9198 16.1783 20.8438 16.1995 20.7215 16.2486C20.3463 16.3993 20.1639 16.445 20.0732 16.4678C20.0202 16.481 19.9985 16.4865 19.9878 16.5004C19.9804 16.5101 19.9783 16.524 19.9749 16.5475C19.9673 16.5986 19.9531 16.6955 19.8618 16.895C20.7093 17.0789 21.529 17.0116 22.3787 16.9418L22.3787 16.9418C22.8302 16.9047 23.2901 16.867 23.7671 16.8658L27.524 16.7063C27.0176 16.2753 26.908 16.2606 26.6868 16.2308C26.5625 16.2141 26.4028 16.1926 26.1173 16.0896C24.8768 15.6418 24.8959 14.3191 24.9219 12.5145C24.9268 12.173 24.932 11.8144 24.9289 11.4411C24.9248 10.943 24.9189 10.4366 24.913 9.92532V9.92529V9.92525C24.8881 7.77351 24.8621 5.53429 24.9601 3.45452C25.1776 3.4438 25.4178 3.43005 25.6746 3.41534L25.6747 3.41534C27.5671 3.30695 30.3638 3.14677 31.6707 3.76919C32.0527 6.24801 32.123 12.817 31.6299 15.2507C31.435 16.2136 31.1728 16.2698 30.8664 16.3355C30.6241 16.3875 30.3541 16.4454 30.068 16.9626L35.0178 16.9632C34.6511 16.4019 34.3622 16.3331 34.1425 16.2808C33.7468 16.1866 33.5749 16.1457 33.5749 13.3808C33.5749 13.0504 33.5661 12.7232 33.5575 12.404C33.4983 10.2127 33.4495 8.40298 36.3394 8.58161C38.6816 8.72661 38.6119 10.7768 38.5362 13.0036C38.5226 13.4041 38.5088 13.8102 38.5088 14.2121C38.5088 15.7315 38.4196 15.8343 38.035 16.2773L38.035 16.2773C37.8996 16.4333 37.7275 16.6316 37.5097 16.9489L42.035 16.9912C41.6332 16.3605 41.306 16.3357 41.0532 16.3166C40.6559 16.2865 40.4421 16.2703 40.4102 13.9397C40.4059 13.6243 40.4095 13.2933 40.4131 12.9546C40.4398 10.4691 40.4709 7.56796 37.4434 7.32734C36.0822 7.21918 35.1634 7.762 34.3446 8.24575C34.1056 8.38696 33.8751 8.52314 33.6446 8.63662L33.9053 1.2623C33.402 1.27832 32.9234 1.43307 32.3894 1.60578C31.6763 1.83635 30.8643 2.09895 29.762 2.10618C28.736 2.11279 27.7069 2.1075 26.6781 2.10222L26.6781 2.10222C25.9924 2.0987 25.3068 2.09518 24.6223 2.09518H24.6235ZM72.283 15.5956L72.2815 15.5959L72.2818 15.595L72.283 15.5956ZM72.2815 15.5959C71.6729 15.7105 71.1579 15.8835 70.6853 16.0422C69.3077 16.505 68.2898 16.847 66.3601 15.2699C65.1802 14.3056 63.8025 11.8333 64.0541 9.59492L73.1812 9.59657C74.6576 9.66678 74.6428 10.1158 74.5569 12.7161V12.7163C74.5318 13.4777 74.5005 14.4236 74.4989 15.5983L74.4734 20.3216C74.5051 21.6281 74.6607 21.689 74.7642 21.7295C74.7901 21.7396 74.8126 21.7485 74.8293 21.7751C76.1744 21.9121 75.9992 16.7428 75.8857 13.3924V13.3923C75.8593 12.614 75.8362 11.9338 75.8363 11.4411L75.5337 7.72178L63.9912 7.57819C63.7917 5.05206 65.7463 1.9318 67.7157 1.64244C70.6383 1.21279 72.0517 4.04755 72.491 6.49391C73.2277 6.15027 74.0828 5.09049 74.8518 4.1374C75.2658 3.62424 75.6549 3.14201 75.9871 2.81913C76.189 2.62304 76.3412 2.50271 76.4569 2.41129C76.7904 2.14778 76.8197 2.12462 76.8559 1.21995C76.1504 1.40609 74.4383 3.18738 73.7695 3.8833L73.7258 3.92872C73.5028 3.7717 73.2411 3.50423 72.9305 3.18683L72.9304 3.18679C71.6403 1.86844 69.5071 -0.31134 65.8047 0.982845C63.2391 1.87954 61.3531 4.43538 60.8895 7.55344C59.3509 17.8993 70.6593 19.3351 72.2815 15.5959ZM182.795 15.2176C182.792 15.2168 182.79 15.2162 182.788 15.2159C182.775 15.2141 182.759 15.2302 182.641 15.3514C182.596 15.3972 182.536 15.4579 182.457 15.5384C182.18 17.2278 180.36 16.6353 179.525 15.7117C179.078 12.8545 179.284 8.3406 179.455 4.59397C179.511 3.36016 179.564 2.20956 179.588 1.22875C178.798 1.34812 177.336 1.82177 176.555 2.29652L177.545 3.16626C177.55 3.17671 178.418 15.5983 176.631 16.2755C175.6 16.6667 174.718 16.3113 173.991 15.8641C173.487 12.7076 173.743 7.41191 173.936 3.40817C173.975 2.60135 174.012 1.847 174.039 1.17319C173.779 1.2618 173.495 1.34773 173.204 1.43577C172.361 1.69043 171.461 1.9628 170.924 2.36914L171.937 3.09089C172.253 5.61978 172.239 13.8946 171.627 16.1578C171.293 16.3011 171.087 16.3588 170.939 16.4004C170.643 16.4835 170.577 16.5019 170.183 17.0094C171.402 17.0147 172.595 16.9914 173.782 16.9682C175.81 16.9285 177.824 16.8892 179.937 16.9929C180.481 17.0197 181.044 17.0672 181.609 17.115L181.61 17.115C184.192 17.3331 186.844 17.5572 188.182 15.8442C189.896 13.6497 187.492 12.2604 185.891 11.3358C185.498 11.1088 185.154 10.9097 184.931 10.7337C182.711 8.98154 184.875 6.19575 187.178 9.12512L187.923 9.79351C187.939 9.75383 187.961 9.7156 187.986 9.67403C188.102 9.47759 188.263 9.20676 187.999 8.35771C187.345 6.25736 183.217 7.49073 182.545 8.87537C182.211 11.2773 183.722 12.1717 185.158 13.0224C185.747 13.3708 186.323 13.7118 186.755 14.146C187.007 15.4795 186.761 16.5776 185.34 16.6249C184.229 16.6622 183.893 16.1673 183.512 15.6079C183.394 15.4337 183.271 15.2533 183.12 15.0807L183.118 15.0818C182.854 15.2379 182.814 15.2242 182.795 15.2176ZM128.72 10.1582C127.362 9.98127 126.665 11.0505 125.436 12.9363L125.435 12.9383C125.304 13.1388 125.168 13.3484 125.024 13.5668C124.816 13.8821 124.527 14.2525 124.214 14.6551C123.311 15.8132 122.202 17.2376 122.206 18.3814C123.257 18.1792 123.415 17.9315 123.799 17.3282C123.86 17.2322 123.927 17.1273 124.004 17.0121C124.216 16.6959 124.394 16.4649 124.551 16.2612L124.551 16.2611C124.855 15.8664 125.08 15.5748 125.313 14.9663C125.948 15.2411 126.423 15.5694 126.908 15.904C127.586 16.3715 128.281 16.8513 129.452 17.2146C131.503 17.8516 133.007 17.4517 134.647 16.5539C138.618 14.3815 138.302 10.4597 134.982 8.7857C134.343 8.46356 133.48 8.18625 132.573 7.89481C129.902 7.03659 126.85 6.0559 128.011 3.44737C128.595 2.13369 130.329 0.943787 132.086 1.90209C133.041 2.42305 134.048 4.519 134.397 5.98231C135.149 5.61694 135.303 5.3589 135.647 4.78603C135.805 4.52137 136.004 4.18951 136.321 3.74883C136.457 3.55942 136.612 3.37614 136.764 3.19616C137.297 2.56539 137.796 1.97521 137.333 1.30411C137.183 1.36737 137.073 1.41148 136.992 1.44417C136.828 1.5096 136.779 1.52929 136.75 1.5652C136.738 1.58066 136.729 1.59913 136.717 1.62556C136.682 1.69855 136.618 1.83225 136.368 2.13094L135.279 3.15911C134.714 2.06272 133.337 0.7694 131.406 0.570808C126.932 0.11146 121.518 5.81617 130.587 9.46509L130.732 9.52326C132.168 10.1 134.171 10.9039 134.599 11.928C135.893 15.0257 131.371 18.9442 128.276 14.7402C127.019 13.0319 127.543 12.1868 128.152 11.2055C128.352 10.883 128.562 10.5457 128.72 10.1582H128.72ZM93.809 15.6297C87.9768 17.2366 87.4242 10.7892 89.5681 8.8077C90.9192 7.55894 93.4281 8.21468 94.0532 9.71485C94.6534 11.1551 94.2357 14.3991 93.809 15.6292V15.6297ZM93.7115 16.2348L93.7117 16.2347L94.1175 16.9188C94.1321 16.9489 94.1544 17.0009 94.1739 17.0464L94.174 17.0465C94.1813 17.0637 94.1883 17.0799 94.1943 17.0937C94.1983 17.1028 94.2019 17.1109 94.2048 17.1174C94.2112 17.1312 94.219 17.1503 94.2279 17.172C94.2467 17.2178 94.2703 17.2751 94.2949 17.3188V17.3182L94.1749 15.9005L94.1751 15.9004L94.2952 17.3191C95.4428 17.2289 97.2966 16.9775 97.9483 16.4978C97.4689 16.0509 97.2761 16.0886 97.0696 16.129C96.9084 16.1606 96.7387 16.1938 96.4176 15.9988C95.703 15.5651 96.0548 5.71338 96.1761 2.31765L96.1761 2.3165C96.1957 1.76763 96.2093 1.38762 96.2113 1.2436L92.7815 2.01156C93.0508 2.49828 93.325 2.65028 93.5644 2.78294C94.1146 3.08797 94.4806 3.29083 94.1796 7.22502C93.9851 7.26195 93.687 7.28434 93.3189 7.31199C91.1263 7.47667 86.4506 7.82785 86.4069 12.549C86.3695 16.5831 90.3332 18.2494 93.7109 16.2348H93.7115ZM162.282 8.35661C166.451 6.25021 168.094 14.93 164.652 16.3173C160.86 17.8456 158.389 10.3244 162.282 8.35661ZM162.343 7.51713C155.073 9.28301 158.4 18.6531 164.868 17.0413C171.162 15.4729 169.099 5.87613 162.343 7.51713ZM0.92157 36.5052C2.27681 37.0373 12.3702 37.2377 14.4456 36.9464L14.449 36.9478C15.9538 36.6572 27.4354 36.8502 33.9196 36.9592H33.9199C35.648 36.9882 37.021 37.0113 37.7557 37.0177C37.9105 37.019 38.4097 37.0304 39.1608 37.0475L39.1616 37.0475H39.1617C44.019 37.1582 59.4064 37.5089 60.3811 36.9363C60.3475 36.6396 60.3753 36.4243 60.3954 36.2695C60.4124 36.1383 60.4237 36.0505 60.3872 35.9934C60.3134 35.8781 60.0442 35.8879 59.2314 35.9174C58.8592 35.931 58.3731 35.9487 57.7396 35.9604L34.9005 36.214C34.2004 36.2217 32.925 36.2433 31.3025 36.2708C24.3188 36.3889 10.902 36.616 9.22277 36.3179L9.20315 36.3126C7.54434 36.0159 5.3838 36.1866 3.37463 36.3453H3.37459C2.51176 36.4135 1.67684 36.4794 0.92157 36.5052ZM44.8228 11.517C45.0812 8.89297 47.0761 6.74367 49.161 8.64762L49.2376 9.91674C48.2242 10.4305 46.3336 11.2898 44.8228 11.517ZM51.2013 14.5471C48.1647 16.9104 45.2926 15.3222 44.9299 12.5375C45.4659 12.3108 46.3309 12.0555 47.2571 11.7821C48.7808 11.3324 50.4703 10.8337 51.1333 10.3332C51.2823 5.65884 43.3731 6.6628 42.9826 12.0116C42.5065 18.5261 51.0001 18.2681 51.2018 14.5476L51.2013 14.5471ZM100.779 11.5136C101.029 8.87587 103.021 6.75964 105.112 8.65202L105.189 9.91289C104.179 10.425 102.281 11.288 100.779 11.5136ZM107.154 14.5471C107.078 14.605 107.004 14.6638 106.929 14.7228C106.072 15.3969 105.201 16.0825 103.256 15.479C101.811 15.0306 101.097 14.1862 100.881 12.5331C101.403 12.3159 102.248 12.0664 103.157 11.7977C104.697 11.3428 106.421 10.8332 107.085 10.3332C107.231 5.64343 99.3215 6.6672 98.9328 12.0105C98.4573 18.5415 106.964 18.256 107.154 14.5471ZM173.774 37.0276L173.775 37.027C175.951 37.4655 195.653 37.042 197.096 36.4815L189.604 36.3523L189.599 36.3545C187.19 36.6806 147.909 36.1225 141.101 35.9565C140.966 35.9532 140.837 35.95 140.716 35.9469C139.192 35.9086 138.77 35.898 138.675 36.0689C138.639 36.1346 138.651 36.227 138.667 36.3549C138.686 36.4993 138.711 36.6889 138.678 36.9363C139.342 37.2851 139.57 37.2726 140.21 37.2375C140.378 37.2283 140.575 37.2175 140.815 37.2113C147.216 37.0485 171.259 36.6585 173.774 37.0276ZM79.9882 2.20741L79.9883 2.20772L79.9876 2.20796L79.9882 2.20741ZM79.9883 2.20772C80.2767 2.77134 80.3821 2.84906 80.5872 3.00023C80.6993 3.08283 80.8411 3.18735 81.0587 3.40501C81.1897 6.02522 81.1743 8.5442 81.1086 11.1644C81.1013 11.4589 81.0968 11.7683 81.0923 12.0843L81.0923 12.0858V12.0859C81.0789 13.0147 81.0647 14.0001 80.9743 14.8309C80.8258 16.1979 80.6242 16.2492 80.2207 16.352C79.9867 16.4116 79.6848 16.4885 79.286 16.8493L84.7113 16.9989C84.3449 16.4815 84.01 16.3182 83.7317 16.1825C83.2683 15.9565 82.9618 15.807 82.9278 14.2264C82.9056 13.1912 82.91 12.1483 82.9145 11.1079V11.1066C82.9164 10.6634 82.9183 10.2207 82.9182 9.77921C82.9182 7.01126 83.0041 4.39285 83.0936 1.66546L83.1086 1.20839L79.9883 2.20772ZM147.998 14.9107C147.615 15.0214 147.267 15.1561 146.934 15.285C145.788 15.7281 144.823 16.1018 143.249 15.1885C140.492 13.5888 141.186 8.7725 143.818 8.26804C144.693 8.10012 145.198 8.47234 145.701 8.84273C146.243 9.24284 146.784 9.6408 147.784 9.35342C148.767 5.74356 139.544 7.09794 139.572 12.5496C139.602 18.1641 146.763 18.3814 147.998 14.9113V14.9107ZM109.817 8.43803C110.095 8.71662 110.298 8.85641 110.449 8.96047C110.82 9.216 110.878 9.25612 110.956 10.6071L110.78 15.82C110.556 16.3606 110.393 16.3797 110.19 16.4035C109.988 16.4271 109.747 16.4553 109.367 16.9995L114.527 17.0061C114.161 16.5443 113.847 16.4349 113.589 16.3452C113.134 16.1868 112.856 16.0899 112.783 14.222C112.771 13.9034 112.748 13.5735 112.726 13.238C112.643 12.0027 112.555 10.6908 112.924 9.58502C114.122 8.78649 114.486 8.92977 115.163 9.19692C115.46 9.31387 115.816 9.45456 116.33 9.55036C116.377 9.46733 116.422 9.39404 116.464 9.3262C116.678 8.97468 116.803 8.76971 116.811 8.11676C115.582 7.194 114.479 7.93784 113.571 8.54988C113.31 8.72561 113.065 8.89047 112.839 9.0019L112.356 7.28608C111.61 7.53694 110.334 7.99133 109.818 8.43858L109.817 8.43803ZM150.995 9.12343C151.118 9.24476 151.209 9.33395 151.275 9.43862C151.459 9.72916 151.455 10.1389 151.439 11.6863C151.433 12.2614 151.426 12.9937 151.426 13.9353C151.426 16.0452 151.228 16.1208 150.802 16.2828C150.564 16.3736 150.254 16.4915 149.869 17.0094L155.026 16.994C154.605 16.5475 154.279 16.4212 154.028 16.3241C153.563 16.1436 153.356 16.0636 153.282 14.2192C153.271 13.929 153.255 13.6344 153.238 13.3375L153.238 13.3366V13.3363C153.173 12.1429 153.105 10.9123 153.322 9.77866C154.568 8.77776 154.853 8.89452 155.482 9.15171C155.79 9.27789 156.182 9.43786 156.809 9.51626C156.87 9.40566 156.926 9.31208 156.977 9.22597C157.178 8.89065 157.31 8.66874 157.409 7.99683C155.884 7.31448 155.032 7.90036 154.042 8.58026C153.829 8.7264 153.61 8.87688 153.377 9.02005L152.834 7.29433C152.619 7.38065 152.378 7.46777 152.129 7.55783L152.129 7.55796C151.477 7.79387 150.769 8.04999 150.314 8.36486L150.315 8.36431C150.611 8.74669 150.832 8.96312 150.995 9.12343ZM80.6824 34.7193L80.0834 39.2418C80.0722 39.2166 80.0517 39.2611 80.0299 39.3083L80.0298 39.3084C80.0141 39.3425 79.9977 39.378 79.9837 39.3898L82.0448 39.4267C81.8987 39.159 81.859 39.0558 81.8434 39.0151C81.8367 38.9977 81.8344 38.9916 81.83 38.989C81.8277 38.9876 81.8248 38.9872 81.8203 38.9865C81.7909 38.9822 81.6941 38.9678 81.252 38.5993L81.2169 35.3024L83.2775 37.3549C83.4647 37.5814 83.6199 37.7967 83.766 37.9993L83.7661 37.9994C84.1952 38.5946 84.5451 39.0799 85.3936 39.414L85.4203 34.7375C85.4532 34.623 85.4764 34.5403 85.4931 34.481C85.5257 34.365 85.5332 34.3383 85.5391 34.3386C85.5408 34.3387 85.5424 34.3413 85.5445 34.3446C85.5566 34.3636 85.5848 34.4082 85.7518 34.1527L83.9791 33.8138C84.0306 33.8754 84.1015 33.9557 84.1366 33.9953C84.22 34.0898 84.294 34.1713 84.3595 34.2434C84.5663 34.4713 84.6888 34.6062 84.758 34.7644C84.8585 34.9941 84.8467 35.273 84.8178 35.9567C84.8006 36.3653 84.7772 36.9184 84.768 37.6921C83.9601 37.0044 83.3574 36.2901 82.7467 35.5663C82.2558 34.9847 81.7599 34.397 81.1483 33.8122L79.8306 33.9513L80.683 34.7193H80.6824ZM72.5216 38.0838C69.9452 40.4042 68.0155 37.707 68.9047 35.3376C69.612 33.4524 73.4283 33.3715 72.5216 38.0838ZM67.7678 37.2135C68.3323 40.638 74.47 40.0961 73.6391 35.9037C72.9477 32.4176 67.1127 33.2389 67.7678 37.2135ZM114.688 33.9882C114.694 33.9917 114.788 34.0512 114.884 34.1109C114.981 34.1721 115.079 34.2335 115.081 34.2346C115.158 34.2987 115.21 34.3403 115.246 34.3688C115.3 34.4126 115.316 34.4252 115.328 34.4405C115.333 34.4467 115.337 34.4532 115.343 34.4625C115.364 34.4929 115.403 34.5522 115.544 34.7193L115.493 38.5987C115.46 38.6301 115.124 38.9855 115.057 39.0674C115.028 39.1019 115.003 39.1325 114.98 39.1595C115.191 38.7598 115.053 38.9233 114.93 39.105C114.808 39.2867 114.702 39.4865 114.98 39.1595C114.948 39.2193 114.909 39.2918 114.86 39.3788L116.908 39.4371C116.834 39.3048 116.785 39.2118 116.749 39.1453C116.687 39.0285 116.668 38.9933 116.639 38.9707C116.627 38.9609 116.613 38.9535 116.593 38.9428C116.531 38.9104 116.412 38.8481 116.115 38.5993L116.055 35.3118C116.575 35.6196 117.253 36.4242 117.947 37.2469L117.947 37.247C118.763 38.2148 119.601 39.2079 120.226 39.4476C120.228 38.7211 120.203 38.0834 120.181 37.518V37.5178C120.113 35.741 120.072 34.6773 120.945 33.8089L119.155 34.1428C119.873 34.9423 119.773 35.9969 119.647 37.3288C119.636 37.4449 119.625 37.563 119.614 37.6833C119.399 37.4721 119.196 37.2867 118.998 37.1069C118.565 36.7125 118.16 36.3445 117.735 35.7876L117.698 35.7387C117.331 35.2572 117.286 35.1981 116.839 34.7193C116.747 34.6209 116.632 34.4916 116.548 34.397C116.499 34.3423 116.461 34.2992 116.443 34.2803C116.209 34.0311 116.185 33.9979 116.178 33.9875C116.177 33.9864 116.176 33.9856 116.176 33.9848C116.173 33.9821 116.171 33.9798 116.16 33.9696C116.14 33.9516 116.093 33.9094 115.975 33.7984L114.688 33.9871V33.9882ZM128.064 34.3656C128.376 34.8821 128.848 38.6356 127.537 39.3936L131.86 39.277L132.218 38.0541C131.745 38.2254 131.541 38.4213 131.373 38.5831C131.112 38.8344 130.937 39.0032 129.968 38.8694C129.621 38.8212 129.546 38.7705 129.45 38.7057C129.401 38.672 129.345 38.6345 129.243 38.5916L129.24 36.7844C130.256 36.6742 130.384 36.791 130.769 37.1418C130.854 37.2199 130.953 37.3096 131.076 37.411L131.108 35.5731C130.762 35.781 130.605 35.9346 130.495 36.0426C130.272 36.261 130.239 36.2929 129.221 36.2101L129.285 34.3342C130.818 34.1909 130.853 34.2198 131.274 34.5714C131.431 34.7018 131.64 34.8765 131.999 35.1033L131.866 33.8776L127.66 33.8199L128.064 34.3661L128.064 34.3656ZM93.183 33.8619C93.3358 34.0255 93.4569 34.1409 93.5529 34.2324C93.9139 34.5763 93.9207 34.5828 93.9243 35.5496C93.9266 36.1567 93.9427 36.6296 93.9556 37.0092L93.9556 37.0095C94.0018 38.3695 94.0073 38.5317 93.196 39.3828L97.3178 39.2811L97.6585 38.0675C97.1476 38.2364 97.1207 38.2728 97.0145 38.4168C96.9463 38.5093 96.8454 38.646 96.563 38.8905L94.9104 38.7772C94.519 34.7492 94.9468 34.4095 95.2044 34.205C95.2751 34.1489 95.3329 34.1029 95.3575 33.9939C95.376 33.9119 95.4209 33.8804 95.4648 33.8496C95.4842 33.8359 95.5035 33.8224 95.5202 33.8047L93.1824 33.8613L93.183 33.8619ZM104.914 33.9037C104.983 33.9697 105.045 34.028 105.102 34.0807C105.577 34.526 105.629 34.5742 105.632 35.5496C105.633 36.161 105.65 36.6362 105.663 37.0177C105.71 38.3326 105.717 38.5334 104.934 39.3542L107.215 39.4324C107.174 39.3607 107.14 39.3009 107.111 39.2511C107.014 39.0804 106.984 39.0289 106.983 39.0295C106.983 39.0298 106.987 39.0398 106.994 39.0541C107.029 39.1267 107.117 39.3102 106.837 38.8982C106.403 38.2579 105.934 35.3257 107.228 33.8019L104.914 33.9037ZM190.502 7.96577C190.501 7.93907 190.497 8.02789 190.488 8.39205C190.488 8.40727 190.489 8.40149 190.49 8.38557C190.497 8.10637 190.5 7.99099 190.502 7.96577ZM191.63 8.82389L191.563 7.34737C188.329 6.96724 189.181 10.3736 191.63 8.82389ZM182.637 15.3529C182.758 15.2294 182.774 15.213 182.787 15.2148C182.79 15.2151 182.792 15.2158 182.794 15.2166C182.813 15.2232 182.853 15.237 183.117 15.0809C182.95 14.9399 183.004 14.8509 183.026 14.8135C183.032 14.8045 183.035 14.7985 183.034 14.7955C183.03 14.7894 183.005 14.7954 182.93 14.8134C182.867 14.8285 182.768 14.852 182.618 14.884L182.456 15.5375C182.534 15.4585 182.593 15.3984 182.637 15.3529Z" fill="#FEFEFE"/>
</svg>
