<svg width="93" height="31" viewBox="0 0 93 31" fill="none" xmlns="http://www.w3.org/2000/svg">
<g clip-path="url(#clip0_1578_536)">
<path fill-rule="evenodd" clip-rule="evenodd" d="M0.375 28.1243C0.375 28.9583 0.460793 29.0533 0.529993 29.6458C0.604136 30.281 0.432196 30.7341 1.11501 30.7341H14.6227C15.4874 29.0882 16.8774 28.7535 17.5831 25.7017H7.22118C7.29956 24.7525 7.78501 23.9117 8.07805 23.0236L10.4347 16.4509C10.6342 15.847 10.756 15.6454 10.9477 15.1037C11.2514 14.2448 11.5758 13.398 11.8706 12.4919L14.8077 4.45351H9.99693C8.75416 6.81963 8.88409 4.54313 7.0623 9.6986L1.51115 24.9826C1.3272 25.5032 0.375 27.774 0.375 28.1251V28.1243ZM49.0393 23.8377H53.4801C53.8024 22.4436 55.7517 17.7615 56.0705 16.3819C56.5397 17.0623 57.7359 23.0613 57.7359 23.8377H62.1767L66.4324 11.9086C66.758 11.1063 67.7102 8.59431 67.7278 7.80798H63.472C63.2118 8.9336 61.0412 14.1463 60.6966 15.6365C60.3969 15.161 59.1689 8.40333 59.0313 7.80798C54.0178 7.80798 54.9538 7.49678 54.2462 9.51153C53.6799 11.1237 53.0416 12.6195 52.4824 14.2584L49.0393 23.8377ZM72.1686 19.9231H69.9482C70.2271 19.3377 70.4916 18.5752 70.7119 17.8966L72.9086 11.7219H75.129L72.1686 19.9231ZM63.842 23.8374H74.759L76.0222 22.3141C77.7067 20.1838 77.4066 19.4334 78.6444 16.3816L80.7875 10.2381C80.8009 9.68757 80.5442 8.29948 80.3098 7.80762H69.5779L63.8417 23.8374H63.842ZM25.5397 23.8377H31.0908C31.7712 23.8377 31.8308 22.743 31.8308 22.1601H32.0158C32.0158 22.9322 31.8238 23.1872 31.8277 24.2072L31.6458 30.7341H32.9412L34.2606 27.0304C34.8573 25.2219 38.0966 16.6056 38.1224 15.4498H33.6816C33.5082 16.1998 33.2576 16.6316 33.0097 17.3824C32.7887 18.0513 32.437 18.7498 32.3866 19.364H31.4615C31.5579 18.1986 33.7631 13.3515 33.8669 12.0946H39.2331C39.512 11.5092 39.7761 10.7467 39.9968 10.0681C40.2291 9.35291 40.6446 8.63841 40.7135 7.80762H31.4615C30.796 8.80841 29.5691 9.53927 29.0261 10.9459C28.7776 11.5892 28.5619 12.2721 28.2911 13.0015C28.0422 13.6726 27.8024 14.4102 27.5006 15.1873L26.0202 19.2879C25.8535 19.7172 25.8221 19.7428 25.6544 20.2243C24.7841 22.7238 25.5404 21.2515 25.5404 23.837L25.5397 23.8377Z" fill="#FEFEFE"/>
<path fill-rule="evenodd" clip-rule="evenodd" d="M19.0635 11.536H19.6185V11.7224C18.6402 11.7224 19.3428 11.7209 19.0635 11.536ZM19.0635 11.536C18.136 11.536 17.9245 11.3496 16.8431 11.3496C16.7842 12.062 16.0685 13.5902 15.8012 14.4007L12.4023 23.8382H23.1343C24.3598 18.5398 26.8086 19.5512 19.2485 19.5512C19.3421 19.1469 19.6362 18.4114 19.8035 18.06H24.2443L25.7247 13.5867H21.4689C21.5431 12.6883 21.7648 12.9938 21.8389 12.0954H27.3901L28.3391 9.32315C28.9718 7.40372 29.6613 7.80845 24.6147 7.80845H14.4377C14.2234 8.25834 14.1221 8.65738 13.8827 9.11332C14.6863 9.54152 15.5075 9.89717 16.4159 10.2891C17.3243 10.6814 18.536 11.0744 19.0635 11.5363V11.536ZM36.827 23.8378H47.5589C47.7122 23.1753 47.9801 22.3815 48.2418 21.7299C48.5231 21.0293 48.8345 20.4286 48.854 19.5509H43.6728C43.8123 18.948 43.9874 18.7332 44.0428 18.0596H48.6686L50.149 13.5863H45.8932C45.9486 12.9131 46.1238 12.6982 46.2632 12.0951H51.8144C51.9789 11.3834 52.2282 10.7144 52.4816 9.9715C52.7705 9.12612 53.0871 8.81636 53.1094 7.80809H42.5624C42.3891 8.5578 42.1384 8.98991 41.8906 9.74068C41.6159 10.5722 41.4139 10.9926 41.1506 11.791L36.8266 23.8378H36.827ZM80.4952 15.4499C81.2888 15.6633 83.881 17.8697 84.9359 18.432C84.7414 18.8406 84.6132 19.1653 84.5659 19.7369H78.8298L77.3494 23.8375H86.046C87.509 21.6364 87.6972 23.1301 89.3531 18.0355C89.614 17.2331 90.0475 16.4738 90.1167 15.6363L86.9717 13.7716C86.5964 13.5123 86.398 13.3391 85.861 13.2129C85.8737 12.6449 85.9446 12.5332 86.046 12.0944H91.0417L91.8068 10.0693C92.0381 9.41206 92.4582 8.57665 92.5218 7.80738H84.3802C81.8664 11.589 83.6946 7.14979 81.2345 13.2129C80.9675 13.8712 80.6653 14.7094 80.4944 15.4495L80.4952 15.4499ZM20.7289 4.63927L21.5233 2.0843C21.8064 1.50958 21.6539 1.67353 22.3943 1.65717C22.3328 2.40012 22.0592 2.81871 21.8647 3.36037C21.7997 3.54068 21.6574 4.09584 21.6002 4.21214C21.3171 4.78687 21.4696 4.62291 20.7293 4.63927H20.7289ZM18.6935 6.31686H22.3943C22.5224 6.1241 22.6312 5.94343 22.7636 5.75708C23.7839 4.3231 24.6147 1.87732 24.6147 0.165939H20.3589C20.134 0.637884 19.9716 1.22506 19.7467 1.78591L18.5777 5.0849C18.339 5.75245 17.8476 6.31686 18.6939 6.31686H18.6935ZM80.1251 27.379V27.5654L79.9094 27.41L80.1251 27.379ZM80.1251 27.379C80.1251 25.3134 80.8888 25.5151 78.4598 25.5151C78.4598 27.1631 78.0403 29.0932 77.9048 30.7342H79.3851C79.5179 30.2342 79.6951 30.0731 79.9762 29.6523L80.6802 28.6839V30.7342H81.9755C82.7064 29.3433 84.8742 26.5838 85.1213 25.5151H83.6409L82.3455 27.5654C82.4087 26.8015 82.5305 26.5507 82.5305 25.5151H81.2352L80.1248 27.379H80.1251ZM57.3659 28.8703L57.421 28.9257C57.4174 28.9222 57.3472 28.8887 57.3659 28.8703ZM53.2951 30.7342H54.7755C54.9315 30.4063 55.3305 29.4852 55.3305 29.0566H55.5155C55.5155 30.0001 55.3898 30.0151 55.3305 30.7342H56.4409C56.5835 30.1172 56.9373 29.5595 57.3659 29.243C57.2155 29.8935 57.0831 30.216 56.8109 30.7342H58.4762C58.5532 29.801 58.9988 29.0488 59.289 28.1981C59.5188 27.5245 60.0954 26.0745 60.1413 25.5154H58.4759L57.1805 27.3794C57.1805 25.1096 57.9675 25.5154 55.1451 25.5154L53.2947 30.7346L53.2951 30.7342ZM66.0624 27.7517C66.2347 27.006 66.1108 27.0259 66.9874 27.0063C66.8201 27.7304 66.9373 27.7517 66.0624 27.7517ZM67.7278 30.7338H66.6196C65.6917 30.709 65.8774 30.5119 65.8774 29.2426H65.5074C65.357 29.8931 65.2246 30.2157 64.9524 30.7338H63.287L64.7102 26.7623C64.9153 26.2545 65.01 26.0649 65.1374 25.5151C65.8788 25.5151 66.6206 25.5211 67.3617 25.5112C68.4774 25.4962 69.4786 25.1242 68.3453 27.8147C67.4641 29.9059 67.4877 27.8289 67.7278 30.7342V30.7338ZM70.8736 27.7517C71.0459 27.006 70.9219 27.0259 71.7986 27.0063C71.6312 27.7304 71.7485 27.7517 70.8736 27.7517ZM68.0982 30.7338H69.7636C70.0817 30.0659 69.951 29.6505 70.5036 29.2426L70.6886 30.7338H72.539C72.2103 30.0435 72.4976 29.7466 72.1689 29.0563C73.1956 28.3638 73.6493 26.358 73.6493 26.2605C73.6493 25.8334 73.5865 26.0439 73.4643 25.5151H69.9486L68.9999 28.101C68.7185 28.9666 68.3217 29.7679 68.0982 30.7342V30.7338ZM23.8747 6.31686H27.2054L27.7873 4.46181L25.91 4.45292C26.1021 3.62212 26.5893 2.76857 26.6501 2.02989H28.6854C28.8584 1.28125 29.1653 1.07497 29.2405 0.165939H25.9097C24.8064 1.82539 24.7065 2.46485 23.9848 4.57063C23.5686 5.7841 23.8475 5.10339 23.8743 6.31686H23.8747ZM74.7593 29.243C74.8056 28.6821 74.9705 28.2514 75.1442 27.7667C75.3867 27.0902 75.3197 27.0269 76.2397 27.0063C75.2773 29.0271 76.1289 29.2124 74.7593 29.243ZM76.0547 30.7342H73.3884C73.0738 30.6627 72.909 30.503 72.909 30.1751C72.909 29.5759 73.4912 28.3268 73.7171 27.634C74.2757 25.9226 74.3505 26.4081 74.9444 25.5151C76.8604 25.5151 77.9051 25.2263 77.9051 26.0742C77.9051 27.4733 76.8435 29.5478 76.0547 30.7338V30.7342ZM61.0666 29.243C61.1129 28.6821 61.2778 28.2514 61.4515 27.7667C61.6937 27.0902 61.6269 27.0269 62.547 27.0063C62.4227 27.5444 62.2639 27.7677 62.0683 28.3876C61.7721 29.3255 61.9807 29.2223 61.067 29.243H61.0666ZM62.362 30.7342H59.6957C59.3811 30.6627 59.2163 30.503 59.2163 30.1751C59.2163 29.7725 59.8387 28.1981 60.0244 27.634C60.1854 27.1443 60.2934 26.7968 60.5095 26.4451C60.7651 26.0286 60.9692 25.9408 61.2516 25.5154C63.1673 25.5154 64.212 25.2266 64.212 26.0745C64.212 27.5071 63.1525 29.5446 62.3617 30.7342H62.362ZM38.4924 29.243H37.5674C37.8495 28.7059 38.2456 27.7546 38.3074 27.0063H39.2324C39.0527 27.3833 38.5305 28.7785 38.4924 29.243ZM35.902 30.7342H39.0477C39.7945 29.6107 39.4605 30.4828 40.133 28.659C41.505 24.9386 41.2734 25.5154 37.9374 25.5154C37.0141 26.9046 37.5042 25.3984 36.6681 27.7784C36.2865 28.8646 35.902 29.2661 35.902 30.7346V30.7342ZM51.0747 29.243C51.1319 28.5491 51.2827 28.4979 51.5072 27.815C51.7561 27.0582 51.6283 27.0273 52.5547 27.0063C51.981 29.4859 51.7123 29.2287 51.0744 29.243H51.0747ZM49.4093 30.7342H52.3701C53.2944 29.344 52.5184 31.0728 53.4805 28.6839C55.0209 24.8596 54.2911 25.5151 51.2601 25.5151C50.1119 27.2421 51.0832 25.1751 49.9647 27.9381C49.5714 28.9097 49.1636 29.6698 49.4097 30.7338L49.4093 30.7342ZM39.9728 30.7342H41.6381C41.8309 30.3295 42.1497 29.5848 42.1931 29.0566H43.6735C43.813 28.4538 43.9881 28.239 44.0435 27.5654H42.7482C43.1376 26.8239 42.3976 27.0063 44.7835 27.0063C45.0017 26.5482 45.1384 26.1993 45.1535 25.5151H41.8228L39.9724 30.7342H39.9728ZM46.4489 27.1927H47.3739L46.0786 30.7342H47.7439C48.0709 29.3212 48.7819 28.0679 48.8543 27.1927H49.9647C50.0445 26.2289 50.3107 26.6066 50.3347 25.5151H47.0039C46.8804 26.0489 46.6601 26.7492 46.4489 27.1927ZM29.7955 3.70748C29.7955 4.59766 30.4101 3.8412 30.7205 5.01235H29.2401C28.9326 6.34212 28.3811 6.31722 30.5355 6.31722C31.7666 6.31722 32.2009 4.69938 32.2009 4.08055C32.2009 3.72419 31.6007 3.59758 31.2758 3.52147L32.5712 3.14876C32.8681 1.86451 33.4013 1.84388 31.4608 1.84388C30.8504 1.84388 30.5902 2.02384 30.3441 2.39621C30.2431 2.54913 29.7955 3.46991 29.7955 3.70783V3.70748ZM29.2405 1.09774C29.2295 1.23146 29.1914 1.49144 29.1854 1.57253C29.1257 2.38625 29.2546 2.01104 28.8704 2.58897C29.9063 2.56585 30.4511 1.93813 30.5358 0.911377C29.9498 0.911377 29.6557 0.935561 29.2405 1.09774Z" fill="#FEFEFE"/>
</g>
<defs>
<clipPath id="clip0_1578_536">
<rect width="92.1478" height="30.5683" fill="white" transform="translate(0.376282 0.165863)"/>
</clipPath>
</defs>
</svg>
