<svg width="89" height="31" viewBox="0 0 89 31" fill="none" xmlns="http://www.w3.org/2000/svg">
<g clip-path="url(#clip0_1578_542)">
<path fill-rule="evenodd" clip-rule="evenodd" d="M71.2979 11.474V12.0041H71.165V12.269H71.0322V12.6665H70.8993V13.3291H71.0322V14.5217H70.8993V15.1843H71.0322V15.3168H71.165V15.7143H71.4309V15.8469H72.627V15.7143H72.8929V15.5818H73.0257V14.7868H73.1586V13.9917H73.0257V13.0641H73.1586V12.4016H73.0257V9.75139H72.8929V9.61882H72.7599V9.48634H72.627V9.22129H72.3612V8.95634H72.2283V8.82386H71.6967V8.69129H71.2979V8.82386H70.5006V8.95634H70.3676V9.22129H69.9689V8.82386H69.0386V8.95634H68.7728V9.08881H68.6399V8.82386H68.9056V8.55881H69.1715V8.42624H69.3044V2.86087H69.4373V2.59582H69.7031V2.72839H70.2347V2.59582H70.5006V2.72839H71.0322V3.12592H71.165V3.25839H71.2979V3.39087H71.5638V3.52335H71.9625V3.65592H72.7599V3.52335H72.8929V3.39087H73.1586V2.86087H73.0257V2.06581H72.7599V1.93334H72.627V1.80076H72.4941V1.66829H72.3612V1.53581H72.2283V1.40324H72.0954V1.13819H71.9625V1.00571H71.6967V0.873234H71.5638V0.740662H71.4309V0.608185H69.5702V0.740662H68.7728V0.608185H67.5766V0.740662H67.4437V0.873234H67.1779V3.52335H67.3108V4.31849H67.1779V6.70365H67.3108V8.82386H67.1779V11.474H67.3108V11.739H67.1779V13.0641H67.7095V13.1966H68.374V13.3291H68.6399V13.1966H69.3044V10.6789H69.4373V10.5464H69.7031V10.414H69.836V10.2814H69.9689V10.1489H70.7663V10.0164H71.165V10.1489H71.2979V10.2814H71.4309V10.414H71.5638V11.3415H71.4309V11.474H71.2979ZM0.725036 6.04108H0.990877V6.4386H0.725036V6.70365H0.592163V8.29376H0.725036V8.42624H4.44643V8.82386H4.31356V10.8114H4.44643V10.6789H4.5794V10.944H4.44643V12.0041H4.31356V13.1966H4.44643V13.3291H4.97802V13.4616H4.84515V13.7267H4.71227V13.8591H4.5794V13.9917H4.44643V14.2567H4.31356V15.7143H4.5794V15.4492H5.24386V15.5818H5.64257V15.4492H6.04129V15.5818H6.17426V15.7143H6.44V14.1242H6.17426V13.8591H6.30713V13.7267H6.44V13.4616H6.30713V13.1966H6.57288V12.1365H6.44V11.6065H6.30713V11.474H5.77554V11.6065H5.37673V11.3415H5.5097V11.209H5.64257V11.0764H5.77554V10.944H5.90842V10.8114H6.17426V10.6789H6.57288V10.2814H6.44V7.23366H4.44643V7.36623H2.98445V7.23366H2.7187V6.17365H2.58573V5.9086H2.7187V4.05345H2.58573V3.39087H2.7187V2.86087H4.31356V5.64355H4.5794V5.77612H5.64257V5.64355H5.77554V5.77612H6.30713V5.64355H6.57288V2.99334H6.44V2.59582H6.30713V2.06581H6.17426V1.66829H6.04129V1.53581H5.90842V1.40324H5.77554V1.13819H5.37673V1.00571H5.11099V0.873234H4.97802V0.740662H4.71227V0.608185H3.649V0.740662H2.31999V0.873234H2.18702V1.00571H1.92127V1.13819H1.65543V1.27076H1.38959V1.40324H1.25672V1.53581H1.12385V1.66829H0.990877V1.93334H0.858004V2.33077H0.725036V3.12592H0.858004V3.52335H0.725036V3.7884H0.592163V5.77612H0.725036V6.04108ZM23.4519 6.4386V4.05345H23.5848V2.86087H25.1797V7.23366H22.7874V7.36613H22.5216V7.49861H22.2558V7.10108H22.3887V6.96861H22.5215V6.83613H22.9202V6.96861H23.0531V6.83613H23.3189V6.4386H23.4517H23.4519ZM21.4584 8.02871H21.5912V8.16119H21.7241V8.29366H21.857V8.42614H23.1861V8.29366H24.2494V8.42614H25.1797V10.6788H25.3125V10.8113H25.4454V10.9438H25.5783V11.2088H25.4454V11.3413H25.3125V11.6064H25.1797V12.6665H25.3125V13.1965H26.11V13.3289H26.2428V13.1965H26.5086V13.3289H27.306V11.7388H27.1731V11.6064H27.0403V11.4739H26.7745V11.2089H26.9074V11.0764H27.0403V10.944H27.3061V8.82386H27.1732V7.89623H27.3061V3.39096H27.1732V2.72839H27.3061V2.33086H27.1732V1.93334H27.0404V1.66838H26.9075V1.5359H26.7746V1.40343H26.5088V1.27095H26.3759V1.006H26.243V0.873518H25.9772V0.741041H24.3823V0.608564H23.1862V0.741041H22.9203V0.873518H22.6546V1.006H22.3888V1.13847H22.1229V1.27095H21.99V1.40343H21.8572V2.33096H21.7243V2.46343H21.5914V2.72848H21.4586V7.23375H21.3257V7.89633H21.4586V8.0288L21.4584 8.02871ZM12.9524 15.7143H13.3511V16.2444H13.484V16.5093H13.3511V16.3769H13.0854V16.5093H12.9524V16.7744H12.8195V17.7019H12.9524V17.8345H14.8131V17.7019H14.946V16.6418H14.8131V16.5093H14.6802V16.3769H14.5473V16.5093H14.1485V16.2444H14.2815V16.1118H14.4144V15.7143H14.946V11.209H14.8131V11.0764H14.4144V10.8114H14.5473V10.6789H14.8131V10.5464H14.946V6.30613H14.8131V6.17365H14.946V3.39087H14.8131V2.86087H14.946V2.72839H16.0092V2.59582H17.0725V2.46334H17.2054V2.19829H17.3383V1.27076H17.2054V1.00571H17.0725V0.873234H16.9395V0.740662H13.617V0.873234H13.3511V0.740662H10.5601V1.13819H10.4272V2.19829H10.5601V2.46334H10.693V2.59582H10.9588V2.72839H11.3575V2.59582H12.0221V2.72839H12.6866V2.86087H12.8195V6.04108H12.9524V6.57108H12.8195V10.8114H12.9524V11.474H12.8195V13.1966H12.9524V13.5942H12.8195V15.5818H12.9524V15.7143ZM33.154 4.31849V4.71602H33.0212V5.64355H33.154V5.77612H33.5528V5.9086H33.4199V6.17365H33.287V6.30613H33.154V6.57108H33.287V6.70365H33.154V8.69129H33.0212V10.0164H33.154V10.944H33.287V11.8715H33.154V14.6543H33.0212V15.4492H33.154V15.5818H33.287V15.7143H33.8186V15.8469H33.5528V15.9793H34.2173V15.8469H34.3502V15.7143H34.4832V15.5818H35.1476V15.4492H35.2806V14.9192H35.1476V13.9917H35.2806V13.1966H35.1476V13.0641H35.2806V11.8715H35.1476V10.1489H35.2806V8.42624H35.1476V8.16128H35.2806V6.70365H35.1476V6.57108H35.0147V6.4386H34.616V6.17365H34.8819V6.04108H35.1476V5.64355H35.2806V4.05345H35.1476V3.65592H35.2806V2.99334H35.1476V1.93334H35.2806V1.53581H35.0147V1.40324H34.0844V1.53581H33.4199V1.66829H33.154V1.80076H33.0212V2.33077H33.154V2.59582H33.0212V3.25839H33.5528V3.12592H33.6856V3.39087H33.5528V4.05345H33.4199V4.18592H33.287V4.31849H33.154ZM47.1091 5.51107H47.2421V5.64355H47.375V6.04108H47.2421V6.17365H46.9763V6.30613H46.8433V6.83613H46.7104V7.23366H46.1788V6.17365H46.046V6.04108H45.913V5.9086H45.6471V5.64355H45.7801V5.51107H46.1788V5.3785H46.3117V5.11355H46.1788V4.05345H45.5143V3.7884H46.046V3.65592H45.3814V3.92097H44.8498V3.7884H44.9827V3.65592H44.451V3.7884H44.7168V3.92097H44.584V4.05345H44.3181V4.18592H44.1853V4.45097H44.0523V5.51107H44.1853V6.30613H44.0523V8.16128H44.1853V8.42624H44.3181V8.29376H44.584V8.16128H44.8498V8.42624H45.2484V8.29376H45.7801V8.16128H46.1788V8.29376H45.913V8.69129H46.1788V8.42624H49.3685V8.29376H49.5014V8.16128H49.7673V7.89623H49.6344V7.76376H49.5014V7.49871H49.3685V7.36623H48.837V6.83613H48.9698V6.30613H49.1027V5.3785H49.2357V4.98098H49.3685V4.18592H49.5014V3.52335H49.6344V3.25839H49.7673V2.33077H49.9001V1.53581H50.0331V0.873234H49.9001V0.740662H48.5711V0.873234H48.3053V1.00571H48.0394V1.13819H47.9066V1.40324H47.7737V1.66829H47.6408V2.59582H47.5078V3.12592H47.6408V3.25839H47.9066V3.39087H48.3053V3.52335H48.4382V3.65592H48.5711V3.7884H47.375V4.05345H47.2421V4.8485H47.1091V5.51107ZM59.3365 8.02871V7.76366H59.6023V8.02871H59.3365ZM56.4126 8.29366H56.6785V8.69119H57.6088V8.55871H57.7416V8.42624H58.0075V8.29376H58.8049V8.16128H58.9378V8.0288H59.3365V8.29376H59.4694V8.42624H59.7352V8.29376H61.5959V7.23366H58.4062V7.36613H58.2733V7.23366H57.7417V4.98098H57.6089V4.3184H57.7417V2.59582H57.8746V2.33077H58.2733V2.19829H58.5392V2.46325H58.8049V2.33077H59.3365V2.46325H59.4694V2.72829H59.6022V2.59582H59.7351V2.46334H60.0009V2.33086H60.3996V2.46334H60.6653V1.93334H60.7982V1.80086H60.9311V1.66838H61.0639V0.740757H60.9311V0.60828H59.8678V0.740757H59.4691V0.60828H58.6717V0.740757H58.0072V0.60828H57.4755V0.740757H57.3426V0.873234H57.2098V1.00571H56.9439V1.13819H56.5452V1.27067H56.4123V1.40314H56.2795V1.53562H56.1466V1.93315H56.0137V2.33067H55.8808V2.46315H55.748V2.7282H55.6151V7.63109H55.748V7.76357H55.8808V7.89604H56.1467V8.02852H56.2796V8.161H56.4124V8.29348L56.4126 8.29366ZM82.7279 3.92097H82.8607V4.05345H82.9937V4.18592H83.1266V4.31849H83.5253V4.18592H84.0569V4.31849H84.3227V4.18592H84.5885V2.72839H86.1834V2.86087H86.3163V2.99334H86.1834V3.92097H86.3163V4.18592H86.5821V4.31849H86.9808V4.45097H86.8479V4.58354H86.5821V4.71602H86.3163V4.8485H86.1834V6.30613H86.3163V6.4386H86.4492V6.57108H86.8479V6.70365H87.1137V6.83613H87.6454V6.70365H88.3099V2.59582H88.0441V2.46334H87.5124V2.19829H87.9112V2.06581H88.177V1.80076H88.0441V1.66829H87.9112V1.40324H87.7783V1.27076H87.5124V1.13819H87.3795V1.00571H87.2467V0.873234H87.1137V0.740662H86.8479V0.608185H84.1898V0.740662H83.924V0.873234H83.5253V1.00571H83.2594V1.13819H83.1266V1.40324H82.8607V1.53581H82.7279V1.66829H82.595V1.93334H82.462V3.65592H82.595V3.7884H82.7279V3.92097ZM85.386 18.232V17.8345H85.5188V17.437H85.6517V17.0394H85.7847V16.5093H85.6517V16.3769H85.386V16.2444H85.2531V16.1118H84.8544V16.2444H83.7911V16.3769H83.6582V16.6418H83.5253V17.3044H83.3924V17.5694H83.2594V17.967H83.3924V18.0994H83.2594V18.3645H83.1266V18.762H82.9937V19.292H82.8607V19.9546H83.5253V20.0872H83.924V20.2196H84.1898V20.3521H83.7911V20.2196H83.3924V20.3521H83.2594V20.4847H82.7279V20.7497H82.595V20.8821H82.462V21.2797H82.595V21.8098H82.8607V21.9422H83.2594V21.8098H84.0569V21.9422H86.715V21.8098H87.1137V21.9422H87.9112V21.8098H88.177V21.4122H88.3099V19.8221H84.9873V19.292H85.1201V19.0271H85.2531V18.232H85.386ZM84.1898 15.7143H84.3227V15.8469H84.9873V15.7143H85.2531V15.5818H86.0505V15.4492H86.1834V15.0517H86.3163V14.7868H86.4492V13.4616H86.5821V13.3291H86.715V13.0641H86.8479V12.6665H86.9808V12.1365H87.1137V11.739H87.2467V11.3415H87.3795V10.6789H87.5124V10.414H87.6454V9.88386H87.7783V9.22129H87.9112V8.69129H88.0441V7.76376H87.7783V7.89623H87.5124V7.76376H87.2467V7.63118H86.1834V7.76376H86.0505V7.89623H85.9176V8.29376H85.7847V8.82386H85.6517V9.35386H85.5188V9.61882H85.386V10.1489H85.2531V10.944H85.1201V11.6065H84.9873V12.0041H84.8544V12.269H84.7214V12.6665H84.5885V13.3291H84.7214V13.5942H84.5885V13.7267H84.4556V13.8591H84.3227V14.5217H84.1898V14.7868H84.0569V15.0517H83.924V15.3168H84.0569V15.5818H84.1898V15.7143ZM56.1468 15.9793V15.7143H56.2797V15.8469H56.4125V15.9793H56.8112V15.8469H56.9441V15.7143H57.21V15.8469H57.0771V15.9793H57.3429V15.8469H57.4758V15.5818H57.7416V15.3168H57.8745V14.9192H57.7416V9.35386H57.0771V9.48634H56.9441V9.61882H56.8112V9.75139H56.5454V9.35386H56.0138V9.48634H55.6151V15.4492H55.748V15.5818H55.8809V15.8469H56.0138V15.9793H56.1468ZM22.7874 15.9793H23.3191V15.8469H23.4519V15.7143H23.5848V13.8591H23.4519V13.7267H22.9203V13.5942H22.5216V13.4616H22.9203V13.1966H23.3191V13.0641H23.4519V12.9316H23.5848V12.269H23.4519V11.739H23.5848V11.209H23.4519V10.944H23.0532V11.0764H22.2558V10.944H21.5912V11.3415H21.4584V11.474H21.3255V12.269H21.4584V12.9316H21.5912V13.8591H21.4584V15.8469H21.5912V15.9793H21.7242V16.6418H21.5912V16.7744H21.3255V17.7019H21.5912V17.8345H23.4519V17.7019H23.5848V16.6418H23.4519V16.5093H23.1862V16.6418H22.1229V16.5093H22.2558V16.3769H22.3887V16.1118H22.2558V15.9793H22.1229V15.7143H22.6545V15.8469H22.7874V15.9793ZM47.9066 13.1966H48.0394V13.0641H48.3053V13.4616H49.2357V13.7267H48.4382V13.8591H48.3053V13.9917H48.1724V14.1242H47.9066V15.7143H48.0394V15.8469H48.704V15.7143H48.9698V15.5818H49.3685V15.4492H49.6344V16.2444H49.7673V16.1118H49.9001V15.9793H50.0331V11.6065H49.9001V11.739H49.7673V11.3415H49.6344V11.0764H49.9001V10.6789H50.0331V9.88386H49.9001V9.61882H50.0331V9.22129H49.9001V9.08881H49.6344V9.48634H49.5014V9.61882H48.9698V9.75139H48.704V9.35386H48.837V9.08881H47.9066V9.35386H48.0394V10.0164H47.9066V13.1966ZM0.858004 13.5942H1.12385V13.8591H0.858004V13.5942ZM0.990877 12.6665H0.592163V13.1966H0.725036V14.3891H0.592163V15.7143H0.725036V16.3769H0.592163V17.702H0.725036V17.8345H2.05415V17.702H2.58573V17.5695H2.71861V13.7267H2.45277V13.5943H2.58564V13.4618H2.71851V12.6667H2.58564V12.5343H0.990782V12.6667L0.990877 12.6665ZM46.046 13.3291V13.1966H46.1788V9.08881H45.2484V9.35386H44.8498V9.22129H44.1853V9.35386H44.0523V9.88386H44.1853V10.414H44.0523V11.6065H44.1853V12.0041H44.0523V12.9316H44.1853V13.3291H44.3181V13.8591H44.451V13.4616H44.7168V13.5942H45.2484V13.4616H45.913V13.3291H46.046ZM33.8186 20.3521H33.287V20.4847H33.154V20.6172H33.287V20.7497H33.154V21.4122H33.0212V21.6773H33.154V21.8098H33.287V21.9422H33.6856V21.8098H34.0844V21.9422H34.616V21.8098H35.6793V21.9422H36.3438V21.8098H37.1412V21.6773H37.2742V21.8098H38.0716V21.9422H38.6032V21.8098H38.7361V21.6773H38.869V20.6172H37.407V20.7497H37.0083V20.6172H37.1412V20.4847H36.7425V20.6172H35.4135V20.4847H36.3438V20.2196H35.2806V20.4847H35.0147V20.6172H34.3502V20.4847H34.2173V20.6172H33.9515V20.7497H33.6856V20.6172H33.4199V20.4847H33.8186V20.3521ZM55.8809 20.6172V21.0147H56.0138V21.1472H56.1468V21.4122H56.2797V21.6773H56.4125V21.8098H57.3429V21.5447H57.4758V21.4122H57.6087V21.5447H57.8745V21.8098H61.0642V21.6773H61.5959V21.5447H61.7288V21.0147H61.8617V20.7497H61.7288V20.6172H61.4629V20.4847H60.7985V20.3521H58.8048V20.4847H57.21V20.6172H55.8809ZM5.24386 21.6773V21.5447H5.37673V21.4122H5.64257V21.0147H5.77554V20.7497H5.64257V20.4847H4.5794V20.2196H3.91484V20.3521H2.31999V20.4847H1.52256V20.6172H0.858004V20.7497H0.725036V20.8821H0.858004V21.0147H0.990877V21.1472H1.12385V21.4122H1.25672V21.5447H1.52256V21.6773H1.78831V21.8098H1.92127V21.9422H4.18059V21.8098H5.11099V21.6773H5.24386ZM46.4446 26.9776H46.7104V27.2426H46.4446V27.9052H46.046V28.0377H45.7801V27.9052H45.3814V26.7126H45.5143V26.5801H45.3814V26.4476H44.9827V26.5801H44.8498V30.1579H45.5143V29.8929H45.3814V29.3628H45.5143V28.8328H45.3814V28.7003H45.5143V28.5677H46.4446V30.1579H47.1091V29.7603H46.9763V29.2303H47.1091V28.4352H46.9763V28.3027H47.1091V26.5801H46.9763V26.4476H46.4446V26.9776ZM67.5766 28.1702H67.4437V27.6402H67.7095V28.0377H67.5766V28.1702ZM67.8424 27.3751H68.1082V27.1102H68.2411V26.9777H68.7727V27.1102H69.0384V27.5077H69.1713V28.4353H69.3042V28.5678H69.437V28.7003H69.1712V29.2303H69.0383V29.4953H68.7726V29.6278H68.6397V29.7603H68.3739V29.6278H68.241V29.4953H68.1081V29.2303H67.9752V28.9653H67.8424V28.8328H67.7095V28.7004H67.8424V27.7728H67.9752V27.6404H67.8424V27.3753V27.3751ZM68.1082 26.5801H67.8424V26.845H67.5766V26.9775H67.4437V27.375H67.3109V27.5075H67.178V28.7001H67.3109V29.4951H67.4437V29.6276H67.5766V29.8926H67.7095V30.025H67.8424V30.1575H69.1715V30.025H69.3043V29.8926H69.4372V29.7601H69.5701V29.6276H69.703V29.2301H69.8358V27.64H69.703V27.11H69.5701V26.9775H69.4372V26.7125H69.3043V26.5801H69.0385V26.4476H68.9056V26.5801H68.7728V26.4476H68.1082V26.5801ZM63.9882 27.7726H63.8552V28.3027H63.7223V28.7003H63.5895V28.8328H63.4565V29.0978H63.3236V28.9653H63.1908V28.4352H63.0578V28.1702H62.9249V27.9052H62.792V27.5077H62.6591V27.3751H62.5262V26.8451H62.3932V26.7126H62.1275V26.4476H61.7288V26.5801H61.4629V30.1579H61.9946V29.3628H61.8617V29.0978H61.9946V27.5077H62.1275V27.7726H62.2604V28.0377H62.3932V28.5677H62.5262V28.7003H62.6591V28.9653H62.792V29.3628H62.9249V29.6278H63.0578V29.8929H63.1908V30.0253H63.3236V30.1579H63.9882V27.7726ZM3.25029 28.4352H3.51613V28.7003H3.25029V28.8328H3.11742V29.4953H3.25029V29.8929H3.11742V30.0253H3.38316V29.8929H3.51613V30.1579H3.78188V30.0253H3.91484V28.7003H3.78188V28.5677H4.71227V29.4953H4.97802V29.0978H5.11099V28.9653H5.24386V29.0978H5.37673V27.7726H5.5097V26.5801H5.37673V26.4476H4.84515V27.9052H3.91484V26.7126H3.78188V26.5801H3.649V26.4476H3.25029V26.7126H3.11742V26.9776H3.25029V28.4352Z" fill="#FEFEFE"/>
<path fill-rule="evenodd" clip-rule="evenodd" d="M44.1847 1.53527V1.66775H44.0517V3.39033H44.1847V3.52281H44.4504V3.39033H44.9821V3.52281H45.5137V3.39033H46.0453V3.25785H46.1782V1.13765H45.115V1.27022H44.8492V1.13765H44.5834V1.27022H44.3175V1.53527H44.1847ZM51.2286 26.5795H50.9628V26.8446H50.697V27.1096H50.9628V27.3746H51.2286V27.1096H51.4944V26.9771H51.8932V27.1096H52.1589V27.5072H52.2918V28.4347H52.4248V28.5672H52.5577V28.6997H52.2918V29.3622H52.1589V29.4948H51.8932V29.6273H51.7602V29.7597H51.4944V29.6273H51.3615V29.4948H51.2286V29.2297H51.0957V28.9648H50.9628V28.8322H50.8299V28.6997H50.9628V27.7721H50.8299V28.0372H50.697V28.1696H50.5641V27.9047H50.4312V29.4948H50.5641V29.6273H50.697V29.7597H50.8299V30.0248H51.0957V30.1574H52.2918V30.0248H52.4248V29.8923H52.5577V29.7597H52.6905V29.6273H52.8235V29.2297H52.9564V27.2421H52.8235V27.1096H52.6905V26.9771H52.5577V26.7121H52.4248V26.5795H52.1589V26.4471H52.0261V26.5795H51.8932V26.4471H51.2286V26.5795ZM25.8436 13.7261V13.8586H25.4449V13.9912H25.1791V15.3162H25.312V15.4487H25.4449V15.7137H26.9069V15.4487H27.1727V15.0512H27.3056V13.8586H26.9069V13.7261H26.774V13.5936H26.5082V13.4611H26.2423V13.5936H25.9766V13.7261H25.8436ZM44.7162 16.1113V15.9788H44.9821V15.8463H45.115V15.5813H45.6465V15.7137H46.1782V14.6537H46.3111V14.1236H46.1782V13.9912H45.5137V13.8586H44.5834V13.9912H44.4504V14.1236H44.1847V14.2561H44.0517V14.6537H44.1847V15.3162H44.0517V15.7137H44.1847V15.8463H44.3175V15.9788H44.4504V16.1113H44.7162ZM57.4752 28.0372H57.3423V28.1696H56.8107V26.8445H56.9436V26.977H57.0765V27.1094H57.4752V27.3744H57.6081V27.9045H57.4752V28.037V28.0372ZM57.2094 28.9648H57.4752V28.8323H57.3423V28.5673H57.4752V28.3023H57.741V28.1698H58.1397V26.8447H58.0069V26.7122H57.874V26.5797H57.6082V26.4472H57.3424V26.5797H57.0766V26.4472H56.2791V27.2423H56.412V27.3748H56.2791V30.1575H56.8108V28.6998H57.2095V28.9649L57.2094 28.9648ZM82.8601 4.71548V4.84796H82.5944V4.98044H82.4614V6.30559H84.455V6.17311H84.5879V4.71548H84.3221V4.58301H84.1892V4.45043H83.9234V4.31796H83.6576V4.45043H83.3918V4.58301H83.126V4.71548H82.8601ZM8.83177 29.3622H8.96465V29.2297H9.09752V29.4948H8.83177V30.1574H10.4266V29.6273H9.36336V28.5672H10.1608V28.4347H10.2937V27.9047H9.36336V27.5072H9.09752V27.2421H9.36336V26.9771H10.4266V26.5795H10.2937V26.4471H8.83177V29.3622ZM72.4935 5.77558H73.158V4.31796H73.0251V4.18538H72.4935V4.05291H72.2277V4.18538H71.829V4.05291H71.0316V4.58301H71.1644V4.71548H71.0316V5.51054H71.1644V5.77558H71.5632V5.90806H72.0948V5.77558H72.3606V5.64301H72.4935V5.77558ZM78.0755 26.7121H78.2084V27.2421H78.3414V27.5072H78.4743V27.6396H78.6071V27.7721H78.7401V28.5672H78.873V29.7597H79.0059V30.1574H79.5375V28.5672H79.6704V28.3022H79.8033V27.7721H79.9362V27.5072H80.0691V27.2421H80.2021V26.8446H80.335V26.4471H79.9362V26.5795H79.6704V26.7121H79.5375V27.3746H79.4047V27.5072H79.2717V27.9047H79.1388V27.5072H79.0059V27.2421H78.873V26.8446H78.7401V26.5795H78.6071V26.4471H78.0755V26.7121ZM23.9829 26.9771H24.6475V30.1574H25.312V28.5672H25.1791V28.4347H25.312V27.1096H25.4449V26.9771H26.1095V26.5795H25.9766V26.4471H23.9829V26.9771ZM56.279 16.3763H56.1462V16.5088H55.7474V16.6413H55.6145V16.9063H55.4816V17.1714H55.6145V17.9664H55.8803V18.0989H56.279V17.9664H57.0765V17.834H57.2094V17.7014H57.4752V17.834H57.6081V17.5689H57.741V16.7738H57.6081V16.6413H57.4752V16.5088H57.0765V16.3763H56.8106V16.2438H56.279V16.3763ZM73.158 29.3622H73.4239V29.6273H73.5568V29.7597H73.291V29.6273H73.158V29.8923H73.291V30.0248H73.5568V29.8923H73.8226V29.7597H73.6897V28.4347H74.0884V28.1696H74.2213V28.0372H73.6897V26.9771H74.0884V27.1096H74.3542V27.2421H74.4871V27.5072H74.62V27.3746H75.0187V26.8446H74.8858V26.7121H74.753V26.5795H74.4871V26.4471H73.291V26.5795H73.158V26.7121H73.0251V28.0372H73.158V28.3022H73.0251V28.8322H73.158V29.3622ZM71.0316 17.1714V17.834H71.2973V17.9664H72.6264V17.834H73.0251V17.7014H73.158V16.6413H73.0251V16.5088H72.6264V16.3763H72.4935V16.2438H71.6961V16.3763H71.5632V16.5088H71.4303V16.6413H71.2973V16.9063H71.4303V17.0389H71.2973V17.1714H71.0316ZM67.3102 14.3887V14.5212H67.1773V14.9187H67.8419V15.0512H68.1076V15.1837H68.3734V15.4487H68.5063V15.5813H68.6393V15.7137H68.3734V15.5813H67.9747V15.4487H68.1076V15.3162H67.8419V15.7137H67.9747V15.8463H68.5063V15.9788H68.7722V15.8463H69.1709V15.7137H69.3038V14.1236H69.1709V13.9912H68.1076V14.1236H67.8419V14.2561H67.576V13.9912H67.4431V14.3887H67.3102ZM30.7611 24.7245H30.2296V24.857H33.4193V24.7245H33.5522V24.857H36.2103V24.7245H36.4761V24.857H39.2671V24.7245H39.5329V24.857H41.5265V24.5919H40.4633V24.7245H40.1974V24.5919H37.4064V24.7245H37.2735V24.5919H30.7611V24.7245ZM21.4578 9.35332V9.4858H21.3249V10.0159H21.4578V10.1484H21.7236V10.2809H21.8565V10.4134H22.2552V10.5459H23.4513V10.2809H23.5842V9.22075H23.4513V9.08827H22.521V9.22075H22.3881V9.35332H22.1223V9.22075H21.9893V9.08827H21.7236V9.22075H21.5906V9.35332H21.4578ZM48.0388 20.7491H47.906V21.8092H48.0388V21.9417H50.0325V21.4117H49.8995V21.1466H50.0325V20.6166H48.0388V20.7491ZM44.5834 20.6166H44.4504V20.7491H44.3175V20.8816H44.1847V21.0142H44.0517V21.8092H44.1847V21.9417H46.0453V21.8092H46.1782V20.7491H46.0453V20.6166H45.2478V20.4842H44.5834V20.6166ZM5.77493 16.6413H4.44582V16.7738H4.31295V17.834H5.37612V17.9664H6.04068V17.834H6.30652V17.7014H6.43939V17.5689H6.57227V16.7738H6.43939V16.6413H6.17365V16.5088H5.77493V16.6413ZM22.2552 20.4842H21.9893V20.6166H21.4578V21.6767H21.7236V21.8092H21.8565V21.9417H22.3881V21.8092H23.1856V21.6767H23.5842V20.7491H23.4513V20.6166H23.3185V20.4842H22.7868V20.3516H22.2552V20.4842ZM44.1847 16.6413H44.0517V16.9063H44.1847V17.1714H44.0517V17.5689H44.1847V17.7014H44.5834V17.834H44.7162V17.9664H44.9821V17.834H46.0453V17.7014H46.1782V17.1714H46.3111V16.7738H46.0453V16.5088H45.2478V16.6413H45.115V16.5088H44.1847V16.6413ZM13.3505 20.6166H12.9518V20.7491H12.8189V21.5442H12.9518V21.8092H13.7492V21.9417H14.2809V21.8092H14.4138V21.6767H14.8125V21.5442H14.9454V20.6166H14.6796V20.4842H13.3505V20.6166ZM33.4193 16.5088V16.7738H33.2864V16.9063H33.1534V17.834H34.4825V17.7014H34.8813V17.834H35.147V17.7014H35.28V17.3039H35.147V16.9063H35.28V16.6413H35.147V16.3763H34.8813V16.5088H33.4193ZM64.9179 20.4842H63.4559V20.6166H63.0572V21.8092H65.0508V21.6767H65.1837V21.4117H65.0508V20.6166H64.9179V20.4842ZM15.0782 28.6997H15.3441V28.9648H15.0782V28.6997ZM14.8125 27.6396V28.0372H14.9454V28.5672H14.5466V28.6996H14.2809V28.8321H13.7492V28.9646H13.8821V29.6272H13.7492V29.4947H13.6163V29.3622H13.4835V29.6273H13.6163V29.7597H13.7492V29.8922H13.8821V29.7597H14.015V29.3622H14.1478V29.2297H14.4136V28.9648H14.5465V29.2297H15.078V29.3622H15.2109V29.8922H15.3438V30.1573H15.8754V30.0248H16.0082V29.6273H15.8754V29.2297H15.7425V28.5672H15.6096V28.4347H15.4768V27.5071H15.3439V26.9771H15.211V27.2421H14.9452V27.5071H15.078V27.6395H14.8123L14.8125 27.6396ZM20.1287 29.0973H20.5275V29.3622H20.6603V29.0973H20.7932V28.9648H20.6603V28.6997H20.5275V28.4347H20.6603V28.3022H20.5275V28.0372H19.5971V27.9047H19.4642V27.6396H19.1983V27.7721H19.0655V26.7121H18.9326V28.1696H19.1983V28.4347H18.9326V29.7597H19.0655V30.1574H19.5971V28.6997H19.8629V28.8322H19.9958V28.9648H20.1287V29.0973ZM9.09752 20.4842V20.6166H8.6988V20.4842H8.30009V20.6166H8.16722V21.5442H8.30009V21.6767H8.43296V21.8092H9.36336V21.9417H9.89495V21.8092H10.2937V20.6166H9.76207V20.7491H9.23039V20.4842H9.09752ZM67.9747 20.6166H67.4431V21.0142H67.3102V21.1466H67.1773V21.6767H67.3102V21.8092H67.576V21.9417H67.9747V21.8092H68.905V21.9417H69.3038V20.7491H69.1709V20.6166H68.2406V20.4842H67.9747V20.6166ZM71.2973 6.70311V7.10064H71.4303V7.36569H71.1644V7.49817H71.0316V7.76322H71.1644V7.89569H71.9619V8.02817H72.2277V7.89569H72.3606V8.02817H72.6264V7.89569H72.7593V7.76322H72.8923V7.23312H73.0251V7.10064H73.158V6.57054H73.0251V6.43807H72.3606V6.30559H71.9619V6.43807H71.829V6.57054H71.6961V6.83559H71.5632V6.96816H71.4303V6.70311H71.2973ZM25.1791 20.7491V21.6767H25.312V21.8092H25.7107V21.9417H27.0398V21.8092H27.1727V21.6767H27.3056V21.2792H27.1727V20.6166H26.641V20.7491H25.8436V20.8816H25.5779V20.7491H25.1791ZM2.71809 18.7615H2.45225V18.8941H1.25611V18.7615H0.591553V19.8216H0.724426V19.9541H1.12323V20.0866H1.52195V19.9541H2.58512V19.5565H2.71809V18.7615ZM71.2973 20.8816H71.0316V21.6767H71.1644V21.8092H72.0948V21.9417H73.0251V21.8092H73.158V20.8816H72.6264V20.6166H72.4935V20.7491H71.6961V20.6166H71.2973V20.8816ZM84.0563 27.2421H83.3918V30.1574H84.9867V29.6273H84.0563V29.3622H83.9234V29.2297H83.7905V29.0973H83.9234V28.8322H84.0563V27.7721H83.9234V27.5072H84.0563V27.2421ZM74.4871 20.8816V21.0142H74.3542V21.1466H74.2213V21.9417H76.2149V21.8092H76.3478V20.8816H76.2149V20.7491H76.082V20.8816H75.1517V20.7491H74.62V20.8816H74.4871ZM29.0334 21.1466V21.6767H29.1663V21.8092H30.0966V21.9417H30.4954V21.8092H31.027V21.6767H31.1599V20.8816H30.894V20.7491H30.4954V20.6166H30.2296V20.7491H29.1663V21.1466H29.0334ZM40.9948 20.3516H40.5962V20.6166H40.4633V21.9417H41.3936V21.8092H41.7924V20.2191H40.9948V20.3516ZM4.84454 18.364H4.57879V18.629H4.44582V19.689H4.97741V19.8216H6.43939V19.689H6.57227V18.7615H5.90781V18.8941H4.84454V18.7615H4.71166V18.629H4.84454V18.364ZM51.7602 21.1466H51.6273V21.2792H51.7602V21.6767H51.8932V21.8092H53.3551V21.6767H53.7538V20.7491H53.2222V20.8816H52.5577V20.7491H52.2918V20.6166H52.1589V20.4842H51.7602V21.1466ZM14.9454 19.4241H14.8125V18.7615H14.1479V18.629H13.7492V18.7615H13.0848V18.629H12.8189V19.8216H13.7492V19.689H14.9454V19.4241ZM40.0645 26.9771H39.9317V27.1096H39.7987V27.6396H39.6658V29.0973H39.7987V29.6273H39.9317V29.7597H40.0645V29.8923H40.1974V30.0248H40.3304V30.1574H40.862V30.0248H40.7291V29.8923H40.862V29.7597H40.7291V29.4948H40.5962V29.3622H40.4633V29.2297H40.3304V28.1696H40.1974V27.6396H40.3304V27.5072H40.4633V26.9771H40.3304V27.3746H40.0645V26.9771ZM25.312 17.0389V17.4364H25.1791V17.7014H25.312V17.834H25.8436V17.7014H26.2423V17.834H27.0398V17.7014H27.1727V17.1714H27.3056V16.6413H26.774V16.7738H26.1095V16.9063H25.4449V17.0389H25.312ZM67.7089 18.8941H67.4431V19.0265H67.1773V19.4241H67.3102V19.5565H67.4431V19.689H67.8419V19.8216H69.1709V19.689H69.3038V18.8941H69.038V18.7615H68.3734V18.8941H67.8419V18.7615H67.7089V18.8941ZM48.0388 17.1714H48.3047V17.3039H48.5705V17.4364H48.7034V17.5689H48.8364V17.7014H49.6338V17.834H49.8995V17.7014H50.0325V16.6413H49.2351V16.7738H48.9692V16.6413H47.906V17.0389H48.0388V17.1714ZM17.6035 21.0142V21.1466H17.4706V21.6767H17.6035V21.8092H17.8693V21.9417H18.268V21.8092H19.3312V21.9417H19.5971V21.0142H18.5338V20.8816H17.7364V21.0142H17.6035ZM47.906 19.689H48.7034V19.8216H49.8995V19.5565H50.0325V18.8941H49.7667V19.0265H48.7034V18.8941H48.5705V18.7615H47.906V19.689ZM73.158 19.0265H73.0251V18.8941H72.8923V18.7615H72.2277V18.629H71.9619V18.7615H71.6961V18.629H71.1644V18.7615H71.0316V19.689H71.6961V19.5565H72.6264V19.4241H73.0251V19.159H73.158V19.0265ZM68.3734 16.6413V17.0389H68.2406V17.1714H68.1076V17.3039H67.9747V17.4364H67.8419V17.5689H67.4431V17.834H67.576V17.9664H67.8419V17.834H68.905V17.9664H69.3038V16.5088H68.5063V16.6413H68.3734ZM27.1727 19.689V19.159H26.3753V19.0265H26.2423V18.8941H25.7107V18.7615H25.312V18.8941H25.1791V19.8216H26.9069V19.689H27.1727Z" fill="#FEFEFE"/>
<path fill-rule="evenodd" clip-rule="evenodd" d="M74.4862 27.5071V27.7721H74.3532V27.9047H74.2203V28.1696H74.0875V28.4347H73.6888V28.5672H74.3532V28.6997H74.4862V29.4948H74.619V29.8923H74.4862V30.1574H74.619V30.0248H74.8849V29.8923H75.0178V29.6273H75.1507V29.3622H75.0178V29.0973H75.1507V28.5672H75.0178V28.4347H74.752V28.3022H74.619V28.1696H74.752V28.0372H74.8849V27.9047H75.0178V27.3746H74.619V27.5071H74.4862ZM68.2396 13.5936H68.5054V13.8586H68.2396V13.5936ZM67.3092 14.3887H67.4421V13.9912H67.8408V14.1236H68.1067V13.9912H69.1699V14.1236H69.3028V13.3286H69.1699V13.1961H68.6383V13.3286H68.3725V13.1961H67.7079V13.0636H67.5751V13.3287H67.3092V14.3888V14.3887ZM33.2854 27.2421H33.1525V29.6273H33.5512V28.6997H34.0829V28.5672H34.2157V28.3022H33.5512V27.5071H34.2157V27.1096H33.2854V27.2421ZM19.5961 27.9047V26.9771H20.2606V27.3746H20.9251V26.8446H20.7922V26.7121H20.5265V26.5795H20.3935V26.447H19.1974V26.5795H19.0645V27.7721H19.1974V27.6396H19.4632V27.9047H19.5961ZM56.0122 19.9541H56.411V19.8216H56.6768V19.689H56.9426V19.5565H57.2084V19.689H57.6071V19.5565H57.7401V19.0265H57.6071V18.894H57.4742V18.7615H57.0755V18.894H56.8097V18.7615H56.411V18.894H56.2781V19.2915H56.0122V19.5565H55.8794V19.8216H56.0122V19.9541ZM86.3147 7.23312V7.36569H86.1819V7.49816H86.3147V7.63064H87.1122V7.49816H87.378V7.23312H87.6438V7.36569H87.7767V7.49816H87.5109V7.63064H87.6438V7.89569H87.7767V7.76321H88.0426V7.10064H88.1754V6.70311H87.6438V6.83559H87.1122V6.70311H86.8463V6.57054H86.4477V6.83559H86.7134V6.96816H86.8463V7.10064H86.5806V6.96816H86.4477V7.23312H86.3147ZM7.50168 2.59528V2.72785H7.36881V2.86033H7.23584V3.25785H8.29911V3.12537H8.96367V3.25785H9.22941V3.12537H9.62813V2.9928H10.0269V2.86033H9.49525V2.72785H9.36238V2.59528H8.56495V2.4628H8.16624V2.59528H7.50168ZM31.2918 28.9648H31.1589V28.5672H31.026V28.6997H30.8931V29.2297H31.026V29.4948H31.1589V29.6273H32.2222V29.4948H32.355V29.2297H32.4879V28.9648H32.6209V27.9047H32.4879V27.7721H32.355V27.5071H32.2222V27.7721H32.0892V28.6997H32.2222V28.8322H32.0892V29.0973H31.9563V29.2297H31.8235V29.3622H31.5576V29.2297H31.4247V29.0973H31.2918V28.9648ZM12.8179 24.8569H17.7354V24.7245H17.8684V24.5919H12.8179V24.8569ZM33.1525 18.894V19.689H33.4183V19.5565H33.5512V19.424H33.6841V19.5565H34.4816V19.689H35.0132V19.5565H35.279V19.0265H35.146V18.894H34.8803V19.0265H34.7473V19.159H34.2157V19.0265H33.5512V18.894H33.4183V18.7615H33.2854V18.894H33.1525ZM29.0324 21.1466H29.1653V20.7491H30.2286V20.6166H30.4944V20.7491H30.8931V20.8816H31.026V20.7491H31.1589V20.3516H31.026V20.2191H30.4944V20.0866H30.2286V19.9541H29.8299V20.0866H29.564V20.2191H29.4311V20.3516H29.2982V20.4842H29.1653V20.6166H29.0324V21.1466ZM45.7785 19.8216V19.689H45.9114V19.2915H45.5127V19.159H44.8482V19.0265H44.1837V19.689H44.3166V19.8216H44.7153V19.9541H44.8482V19.8216H45.114V19.9541H45.5127V19.8216H45.7785ZM55.8794 8.55827V9.35332H55.7464V9.4858H56.0122V9.35332H56.5438V9.75085H56.8097V9.61827H56.9426V9.22075H57.0755V8.95579H56.8097V9.08827H56.6768V9.22075H56.5438V9.08827H56.2781V8.82332H56.1452V8.69074H56.2781V8.55827H56.411V8.69074H56.5438V8.82332H57.2084V8.95579H57.3414V9.22075H57.6071V8.69074H56.6768V8.29322H56.2781V8.42569H56.1452V8.55827H55.8794Z" fill="#FEFEFE"/>
<path fill-rule="evenodd" clip-rule="evenodd" d="M44.1853 19.0271H44.8498V19.1595H45.5143V19.292H45.913V19.6896H45.7801V19.8221H46.046V19.6896H46.1788V19.4246H46.3117V19.1595H46.1788V19.0271H46.046V18.8946H45.7801V18.762H45.6472V18.6295H45.1156V18.497H44.7169V18.6295H44.3181V18.8946H44.1853V19.0271ZM23.4519 8.42624H23.3191V8.29376H23.1862V8.42624H21.8571V8.29376H21.7242V8.16128H21.5912V8.02871H21.4584V9.08881H21.3255V9.35386H21.5912V9.22129H21.7242V8.95634H22.2558V8.82386H22.3887V8.69129H22.6545V8.82386H23.1862V8.69129H23.3191V8.82386H23.4519V8.42624ZM35.1476 1.27076V1.00571H35.2806V0.740662H34.8819V0.608185H33.4199V0.740662H33.287V0.873234H33.0212V1.13819H33.154V1.27076H33.5528V1.13819H33.9515V1.00571H34.2173V1.13819H35.0147V1.27076H35.1476ZM23.3191 19.1595V19.292H22.6545V19.4246H21.99V19.5571H21.7242V19.6896H21.5912V19.9546H22.9204V20.0872H23.0532V19.9546H23.4519V19.1595H23.3191ZM0.592163 18.762H1.25672V18.8946H2.45286V18.762H2.7187V18.6295H2.58573V18.497H2.45286V18.3645H2.31999V18.232H1.65543V18.3645H1.12385V18.232H0.858004V18.3645H0.725036V18.6295H0.592163V18.762ZM27.5721 13.0641H28.7682V13.1967H29.034V13.0641H29.2998V12.9316H29.5656V13.0641H29.8315V13.1967H29.9643V13.0641H30.0972V12.7991H28.2365V12.6666H28.3695V12.5341H28.6353V12.4016H27.5721V13.0641ZM7.50327 24.8575H9.36397V24.725H9.89556V24.8575H11.4904V24.725H11.6234V24.5924H7.50327V24.8575ZM26.5088 16.1118H26.3759V16.2443H25.9772V15.9793H26.1101V15.8469H26.6417V15.9793H26.5088V16.1118ZM25.5785 15.7143V15.8468H25.7114V16.3768H25.5785V16.5092H25.3126V16.6417H25.1798V16.9068H25.3126V17.0392H25.4455V16.9068H26.1101V16.7743H26.2429V16.6418H25.8442V16.7743H25.7114V16.5093H25.8442V16.3769H25.9771V16.5093H26.3758V16.3769H26.5087V16.2444H26.6416V16.1119H26.9073V15.9794H27.0402V15.4493H26.9073V15.7144H25.5783L25.5785 15.7143ZM48.4383 8.42624V8.55881H48.1724V8.95634H48.3053V9.08881H48.837V9.35386H48.704V9.75139H48.9698V9.61882H49.2357V9.48634H48.9698V8.95634H48.837V8.69129H48.704V8.55881H49.1027V8.82386H49.2357V9.22129H49.3686V9.08881H49.5014V8.95634H49.6344V8.69129H49.7673V8.42624H49.6344V8.16128H49.5014V8.29376H49.3686V8.42624H48.4383ZM45.6472 8.29376H45.2484V8.42624H44.8498V8.16128H44.584V8.29376H44.3181V8.55881H44.1853V9.08881H44.584V8.95634H44.451V8.69129H44.8498V8.95634H44.7169V9.08881H45.1156V8.95634H45.6472V8.82386H45.7801V8.55881H45.6472V8.29376ZM21.7242 10.944H22.2558V11.0764H23.0532V10.944H23.3191V10.8114H23.1862V10.6789H23.3191V10.5464H22.2558V10.414H21.8571V10.2814H21.7242V10.1489H21.5912V10.414H21.4584V10.8114H21.7242V10.944ZM49.9001 6.83613H49.6344V7.10118H49.7673V7.23366H50.0331V7.10118H50.2989V7.23366H50.8305V7.10118H51.0963V6.9687H52.1596V7.10118H52.6911V6.9687H52.8241V6.83613H51.8938V6.70365H50.8305V6.9687H50.5647V6.83613H50.166V6.70365H49.9001V6.83613ZM84.1899 15.7143V15.8469H84.0569V16.1118H84.1899V16.2444H84.8544V16.1118H85.2531V16.2444H85.386V16.3769H85.6517V16.5093H85.7847V16.2444H85.9176V15.8469H85.6517V15.7143H85.7847V15.5818H85.2531V15.7143H84.9873V15.8469H84.3227V15.7143H84.1899ZM42.3246 24.725H42.0587V24.8575H45.5143V24.725H45.6472V24.5924H42.3246V24.725ZM76.3484 20.8821V20.7497H76.4813V20.4847H76.3484V20.2197H75.9497V20.0872H75.5509V20.2197H75.6839V20.3521H75.2852V20.0872H75.0193V20.2197H74.7536V20.3521H74.4877V20.4847H74.3548V20.6172H74.2219V20.8821H74.6206V20.6172H74.7536V20.4847H75.1523V20.6172H75.8168V20.4847H75.9497V20.7497H76.2155V20.8821H76.3484ZM52.0267 20.4847H52.1596V20.6172H52.2924V20.7497H52.5583V20.8821H53.2228V20.7497H53.7544V21.5447H53.8873V20.6172H53.7544V20.4847H53.8873V20.3521H52.5583V20.2197H52.2924V20.3521H52.0267V20.4847Z" fill="#FEFEFE"/>
<path fill-rule="evenodd" clip-rule="evenodd" d="M22.121 18.8941H21.988V19.0265H21.5893V19.159H21.4564V19.4241H21.3236V19.689H21.4564V19.8216H21.5893V19.689H21.7223V19.5565H21.988V19.4241H22.6526V19.2915H23.3171V19.159H23.1843V19.0265H23.3171V18.7615H22.9184V19.0265H22.7854V18.8941H22.5197V19.159H22.121V18.8941ZM65.0495 24.7245H64.385V24.857H67.9734V24.5919H65.0495V24.7245ZM41.1265 6.96818H41.5252V7.10066H42.0568V6.96818H42.1897V7.10066H42.4555V7.23313H42.7213V7.36571H42.8542V7.23313H43.1201V7.36571H43.2529V7.49818H43.5188V7.23313H43.6516V6.83561H41.1265V6.96818ZM1.52063 8.95581H2.05222V9.35334H2.18509V9.48582H2.05222V9.75086H2.18509V10.1484H2.31806V9.75086H2.45093V9.08829H2.71677V9.35334H2.84965V8.95581H2.98252V8.82333H3.11549V8.69076H1.52063V8.95581ZM44.3162 13.4611H44.1833V13.9912H44.3162V14.1237H44.4491V13.9912H44.582V13.8586H45.5123V13.9912H46.1769V13.4611H46.044V13.3286H45.911V13.4611H45.2465V13.5937H44.7149V13.4611H44.4491V13.8586H44.3162V13.4611ZM4.84322 29.4948V29.6273H4.97609V29.7598H4.71034V30.1574H5.50777V28.1697H5.3748V29.0973H5.24193V28.9648H5.10906V29.0973H4.97609V29.4948H4.84322ZM23.5829 24.857H23.9816V24.7245H24.2474V24.857H26.6397V24.5919H23.5829V24.857ZM50.4299 28.6998V27.9047H50.5627V28.1697H50.6957V28.0372H50.8286V27.7721H50.9615V28.5672H51.0943V27.3746H50.9615V27.1096H50.6957V26.9771H50.5627V27.2421H50.4299V27.6396H50.2969V28.6998H50.4299ZM67.3088 19.0265H67.4418V18.8941H67.7076V18.7615H67.8405V18.8941H68.3721V18.7615H69.0367V18.8941H69.1695V18.4964H68.7708V18.364H67.7076V18.4964H67.5747V18.629H67.3088V19.0265ZM51.7589 24.7245H52.4234V24.857H52.8222V24.7245H52.955V24.857H55.2144V24.7245H55.0816V24.5919H54.5499V24.7245H54.1512V24.5919H51.7589V24.7245ZM6.43807 18.7615V18.629H6.3052V18.4964H6.03936V18.364H4.84322V18.629H4.71034V18.7615H4.84322V18.8941H5.90648V18.7615H6.43807ZM70.6315 8.82333H71.296V8.69076H71.6948V8.82333H71.9605V8.69076H72.0935V8.42571H72.2264V8.29324H72.3592V8.16076H72.0935V8.29324H71.8277V8.16076H71.1631V8.29324H71.0302V8.42571H70.8974V8.69076H70.6315V8.82333ZM14.4124 28.0372V27.5072H14.5453V27.1096H14.6783V27.5072H14.8112V26.9771H14.6783V26.7121H14.4124V26.9771H14.2796V26.5795H14.1466V27.1096H14.0137V27.5072H13.8808V28.0372H14.0137V27.9047H14.2796V28.0372H14.4124ZM38.7342 20.6166V20.3516H37.8038V20.4842H37.4051V20.3516H36.3418V20.4842H35.4115V20.6166H36.7405V20.4842H37.1392V20.6166H37.0064V20.7491H37.4051V20.6166H38.7342ZM63.5875 28.6998H63.7204V28.3022H63.8533V27.7721H63.9862V27.2421H64.1191V26.9771H63.9862V27.1096H63.7204V26.9771H63.4546V28.4347H63.5875V28.6998ZM20.7919 29.0973H20.659V29.3622H20.5261V29.0973H20.1274V29.3622H20.2603V29.4948H20.3932V30.0248H20.5261V30.1574H21.1906V29.7598H21.0577V29.6273H20.9247V29.2298H20.7919V29.0973ZM45.6452 8.29324V8.55829H45.7782V8.82333H45.6452V8.95581H45.1136V9.08829H44.7149V8.95581H44.8479V8.69076H44.4491V8.95581H44.582V9.08829H44.3162V9.22077H44.8479V9.35334H45.2465V9.08829H46.1769V8.95581H45.911V8.82333H46.1769V8.69076H45.911V8.29324H46.1769V8.16076H45.7782V8.29324H45.6452ZM47.6389 24.857H50.164V24.7245H49.8982V24.5919H47.6389V24.857ZM33.2851 1.27024V1.66776H33.4179V1.53529H34.0825V1.40271H35.0128V1.53529H35.1457V1.27024H35.0128V1.13767H34.2154V1.00519H33.9495V1.13767H33.5508V1.27024H33.2851ZM47.9046 13.1961V13.7261H48.0375V13.9912H47.9046V14.1237H48.1705V13.9912H48.3033V13.8586H48.4363V13.7261H49.2337V13.4611H48.3033V13.0636H48.0375V13.1961H47.9046ZM73.6884 29.6273V29.7598H73.8212V29.8923H73.5555V30.0248H73.2896V29.8923H73.1567V30.1574H74.4858V29.8923H74.6187V29.4948H74.4858V29.3622H74.3528V29.4948H74.2199V29.6273H73.6884ZM21.7223 9.08829H21.988V9.22077H22.121V9.35334H22.3867V9.22077H22.5197V9.08829H23.45V8.95581H23.5829V8.42571H23.45V8.82333H23.3171V8.69076H23.1843V8.82333H22.6526V8.69076H22.3867V8.82333H22.2539V8.95581H21.7223V9.08829ZM40.7278 29.6273V29.7598H40.8606V29.8923H40.7278V30.0248H40.8606V30.1574H40.4619V30.2899H41.3922V30.1574H41.5252V30.0248H41.6581V29.4948H41.3922V29.6273H40.7278ZM70.4986 10.1484V10.2809H70.7644V10.4134H71.0302V10.5459H71.1631V10.9434H71.296V11.4734H71.4289V11.341H71.5618V10.4134H71.4289V10.2809H71.296V10.1484H71.1631V10.0159H70.7644V10.1484H70.4986ZM36.3418 7.10066H36.4748V7.23313H36.6077V7.49818H36.8735V7.23313H37.0064V7.10066H37.1392V6.96818H37.4051V7.10066H37.9367V6.96818H38.4684V6.83561H36.3418V7.10066ZM49.2337 9.61829H49.4995V9.48582H49.6324V9.08829H49.8982V8.55829H49.7653V8.69076H49.6324V8.95581H49.4995V9.08829H49.3666V9.22077H49.2337V8.82333H49.1008V8.55829H48.702V8.69076H48.835V8.95581H48.9679V9.48582H49.2337V9.61829ZM47.9046 15.7138V15.9788H49.3666V16.1113H49.4995V16.3763H49.7653V16.2439H49.6324V15.4487H49.3666V15.5813H48.9679V15.7138H48.702V15.8463H48.0375V15.7138H47.9046ZM44.3162 3.52282V4.05292H44.582V3.92044H44.7149V3.78787H44.4491V3.6554H44.9808V3.78787H44.8479V3.92044H45.3795V3.6554H46.044V3.52282H45.911V3.39035H45.5123V3.52282H44.9808V3.39035H44.4491V3.52282H44.3162ZM48.835 7.23313V7.36571H49.3666V7.49818H49.4995V7.76323H49.6324V7.49818H50.4299V7.23313H50.2969V7.10066H50.0312V7.23313H49.7653V7.10066H49.6324V6.96818H49.1008V7.23313H48.835ZM82.8588 4.7155H83.1246V4.58302H83.3905V4.45045H83.6563V4.31797H83.922V4.45045H84.1879V4.58302H84.3208V4.7155H84.5866V4.31797H84.4536V4.1854H84.3208V4.31797H84.0549V4.1854H83.5233V4.31797H83.1246V4.1854H82.9917V4.05292H82.8588V3.92044H82.7259V4.31797H82.8588V4.7155ZM23.5829 7.23313V7.10066H23.45V6.43808H23.3171V6.83561H23.0513V6.96818H22.9184V6.83561H22.5197V6.96818H22.3867V7.10066H22.2539V7.49818H22.5197V7.36571H22.7854V7.23313H23.5829ZM65.0495 2.59529H65.9798V2.72787H66.2457V2.86034H66.3785V2.99282H66.7772V2.59529H66.3785V2.46282H66.2457V2.33024H65.0495V2.59529ZM57.4739 29.6273H58.0054V29.8923H57.7397V30.1574H58.4042V29.8923H58.2713V29.6273H58.1383V29.3622H58.0054V29.0973H57.4739V29.6273ZM6.3052 10.6784H6.17233V10.8109H5.90648V10.9434H5.77361V11.0759H5.64064V11.2085H5.50777V11.341H5.3748V11.606H5.77361V11.4734H6.43807V11.0759H6.3052V10.6784ZM4.84322 16.2439H5.50777V16.1113H6.17233V15.8463H6.03936V15.9788H5.90648V15.7138H5.64064V15.8463H5.3748V15.7138H5.10906V15.5813H5.24193V15.4487H4.84322V15.7138H4.97609V16.1113H4.84322V16.2439ZM56.0119 19.9541V19.8216H55.879V19.5565H56.0119V19.2915H56.2777V18.8941H56.4106V18.7615H56.8093V18.8941H57.0751V18.7615H57.341V18.629H56.2777V18.7615H56.0119V18.8941H55.879V19.4241H55.6132V19.8216H55.746V19.9541H56.0119ZM17.6022 21.0142H17.735V20.8816H18.5325V21.0142H19.0641V20.7491H18.7983V20.8816H18.6654V20.7491H18.3996V20.3516H18.6654V20.2191H18.2667V20.6166H18.1337V20.4842H18.0009V20.3516H17.735V20.4842H17.6022V21.0142Z" fill="#FEFEFE"/>
<path fill-rule="evenodd" clip-rule="evenodd" d="M14.2806 26.5805V26.978H14.4135V26.713H14.6794V26.978H14.8122V27.6406H15.078V27.5081H14.9451V27.243H15.2109V26.5805H15.078V26.448H14.4135V26.5805H14.2806ZM28.1028 3.39129H28.3686V3.25881H28.6345V3.12633H28.7673V2.99376H29.0332V2.86128H29.166V2.72881H27.8369V2.86128H27.9699V3.25881H28.1028V3.39129ZM49.8993 4.58396H50.0323V4.84891H50.431V4.71644H51.76V4.58396H51.893V4.45139H49.8993V4.58396ZM35.2797 20.3525H34.6152V20.2201H33.8177V20.4851H33.419V20.6176H33.6848V20.7501H33.9506V20.6176H34.2165V20.4851H34.3493V20.6176H35.0139V20.4851H35.2797V20.3525Z" fill="#FEFEFE"/>
<path fill-rule="evenodd" clip-rule="evenodd" d="M50.1649 4.84835H50.032V4.5834H49.8991V4.45082H50.8294V4.31835H49.7662V4.45082H49.6333V4.5834H49.5003V4.18578H49.3675V4.71587H49.5003V5.1134H49.8991V4.98083H50.1649V4.84835ZM19.065 21.0146H19.5966V20.617H19.4637V20.4846H18.9322V20.352H18.4005V20.7495H18.6663V20.882H18.7992V20.7495H19.065V21.0146ZM40.3299 26.7125H40.5958V26.9775H41.1273V27.11H41.5261V26.845H41.3931V26.5799H41.2602V26.4475H40.4628V26.5799H40.3299V26.7125ZM73.1575 19.0269V18.6294H73.0246V18.4968H71.8285V18.3644H71.2968V18.6294H71.6956V18.7619H71.9614V18.6294H72.2272V18.7619H72.8918V18.8945H73.0246V19.0269H73.1575ZM40.4628 21.8096V20.617H40.5958V20.4846H40.197V20.7495H40.0641V21.8096H40.4628ZM49.8991 18.8945V18.7619H49.7662V18.6294H48.3042V18.7619H48.57V18.8945H48.7029V19.0269H49.7662V18.8945H49.8991ZM16.4069 2.9932V3.5232H16.5398V3.78825H16.8056V3.39072H16.9385V3.12577H17.603V2.9932H17.2043V2.86072H16.5398V2.9932H16.4069ZM82.8596 15.9792H83.2583V16.2442H83.6571V16.1117H83.79V15.5817H82.8596V15.9792ZM14.2805 28.7001H14.1475V28.4351H14.2805V28.3026H14.4133V28.0376H14.2805V27.9051H14.0146V28.0376H13.8817V27.7725H13.7488V28.8326H14.2805V28.7001ZM57.076 21.8096H56.4114V21.6771H56.2786V21.4121H56.1457V21.147H56.0127V21.0146H55.8799V20.617H55.7469V21.5446H55.8799V21.6771H56.0127V21.8096H56.1457V21.9421H57.076V21.8096ZM71.8285 5.90845V6.04093H71.6956V6.1735H71.8285V6.30598H71.4298V6.43846H71.2968V6.57094H71.1639V6.70351H71.4298V6.96856H71.5627V6.83598H71.6956V6.57094H71.8285V6.43846H71.9614V6.30598H72.3601V6.1735H71.9614V6.04093H72.2272V5.90845H72.493V5.6434H72.3601V5.77598H72.0943V5.90845H71.8285ZM55.3482 24.7249H55.4811V24.8574H57.2089V24.5923H55.3482V24.7249ZM25.1786 20.7495H25.5774V20.882H25.8432V20.7495H26.6406V20.617H27.0393V20.4846H26.5077V20.352H25.9761V20.4846H25.7103V20.617H25.1786V20.7495Z" fill="#FEFEFE"/>
<path fill-rule="evenodd" clip-rule="evenodd" d="M72.8912 6.43915V6.30667H73.0241V5.77667H72.4924V5.90915H72.2267V6.04162H71.9608V6.1742H72.3595V6.43915H72.8912ZM33.1524 18.8951H33.2853V18.7626H33.4182V18.8951H33.5511V19.0276H33.8169V18.7626H34.2157V18.8951H34.3485V18.4975H34.0828V18.365H33.5511V18.4975H33.4182V18.6301H33.1524V18.8951ZM5.6409 20.6177V20.7502H5.77387V21.0152H5.6409V21.4128H5.37506V21.5452H5.24219V21.6778H5.6409V21.5452H5.77387V21.4128H5.90674V21.2803H6.03962V21.1477H6.17258V20.6177H6.03962V20.4852H5.77387V20.6177H5.6409ZM18.3999 24.858H20.1277V24.593H18.3999V24.858ZM71.6951 3.52389V3.78894H71.9608V3.92152H71.8279V4.18647H72.2267V4.05399H72.3595V3.92152H72.0938V3.78894H72.8912V4.05399H73.0241V3.52389H73.157V3.39142H72.8912V3.52389H72.7583V3.65647H71.9608V3.52389H71.6951ZM56.9425 9.48688H57.0754V9.35441H57.607V9.22183H57.3413V8.95688H57.2083V8.8244H56.5437V8.69183H56.4109V8.55935H56.278V8.69183H56.1451V8.8244H56.278V9.08936H56.5437V9.22183H56.6767V9.08936H56.8096V8.95688H57.0754V9.22183H56.9425V9.48688ZM27.1717 19.6901H27.3045V19.0276H27.0387V18.8951H26.9058V18.7626H25.7097V18.8951H26.2413V19.0276H26.3742V19.1601H27.1717V19.6901ZM12.9507 18.6301H13.0837V18.7626H13.7482V18.6301H13.4823V18.4975H14.4127V18.365H14.2798V18.2326H13.3494V18.365H13.0837V18.4975H12.9507V18.6301ZM44.1836 1.53636H44.3165V1.27131H44.5823V1.13874H44.8482V1.27131H45.1139V1.13874H45.6455V1.00626H46.0443V0.873783H45.1139V1.00626H44.4493V0.741211H44.3165V1.13874H44.1836V1.53636ZM57.2083 28.9659V29.0983H57.3413V29.3633H57.4741V29.0983H57.8729V28.7008H57.74V28.4358H57.8729V28.3033H58.1386V28.1707H57.74V28.3033H57.4741V28.5682H57.3413V28.8333H57.4741V28.9659H57.2083ZM22.7857 16.6424V16.3774H22.6528V15.9799H22.7857V15.8474H22.6528V15.7148H22.1213V15.9799H22.2541V16.1124H22.387V16.3774H22.2541V16.5099H22.1213V16.6424H22.7857ZM61.3284 24.858H63.322V24.593H63.0561V24.7255H62.5246V24.593H61.86V24.7255H61.5943V24.593H61.3284V24.858ZM53.7527 18.1H53.8856V18.365H54.1515V18.1H54.5502V17.9675H55.0819V18.1H55.3476V17.835H53.7527V18.1ZM9.09646 20.4852H9.22933V20.7502H9.76101V20.6177H10.1597V20.3527H10.0269V20.2202H9.3623V20.3527H9.09646V20.4852ZM67.1763 14.9198V15.0522H67.4421V15.1848H67.7078V15.3173H68.1066V15.4498H67.9737V15.5823H68.3724V15.7148H68.6382V15.5823H68.5053V15.4498H68.3724V15.1848H68.1066V15.0522H67.8408V14.9198H67.1763ZM27.3045 13.8597V13.3297H26.5071V13.1972H26.2413V13.4621H26.5071V13.5947H26.7729V13.7272H26.9058V13.8597H27.3045ZM44.7152 16.1124H45.3797V15.9799H45.7785V15.8474H46.1772V15.7148H45.6455V15.5823H45.1139V15.8474H44.981V15.9799H44.7152V16.1124ZM48.8353 17.7025V17.57H48.7023V17.4375H48.5695V17.3049H48.3036V17.1725H47.9049V17.57H48.1707V17.835H48.7023V17.7025H48.8353ZM82.8591 20.4852H83.2578V20.3527H83.3908V20.2202H83.7895V20.3527H84.1882V20.2202H83.9224V20.0877H83.5236V19.9551H82.992V20.0877H82.8591V20.2202H82.7262V20.3527H82.8591V20.4852ZM33.1524 3.25894V3.39142H33.2853V3.52389H33.1524V4.31904H33.2853V4.18647H33.4182V4.05399H33.5511V3.39142H33.684V3.12646H33.5511V3.25894H33.1524ZM31.0259 27.9058H31.2917V27.7732H31.4246V27.6407H31.5575V27.5082H31.6905V27.3757H31.8234V27.1107H31.4246V27.2432H31.1588V27.3757H31.0259V27.9058Z" fill="#FEFEFE"/>
<path fill-rule="evenodd" clip-rule="evenodd" d="M14.9439 19.4252V18.6301H14.811V18.4975H14.5452V18.3651H14.4123V18.4975H13.4819V18.6301H14.1465V18.7626H14.811V19.4252H14.9439ZM64.119 17.57V17.8351H65.581V17.57H64.119ZM47.5058 3.78895H48.5691V3.65647H48.4362V3.5239H48.3032V3.39142H47.9045V3.25894H47.7716V3.39142H47.6388V3.5239H47.5058V3.78895ZM67.5746 17.57H67.8404V17.4375H67.9733V17.305H68.1062V17.1725H68.2391V17.04H68.372V16.6424H68.2391V16.7749H67.9733V16.9074H67.8404V17.04H67.7074V17.1725H67.5746V17.57ZM63.1887 20.6177H63.4545V20.4853H64.119V20.0877H63.4545V20.2202H63.1887V20.6177ZM66.3784 0.873783H65.581V1.00626H65.7139V1.13874H65.9797V1.27131H66.1126V1.40379H66.5113V1.27131H66.6442V1.00626H66.3784V0.873783ZM74.6186 20.7502H75.1502V20.8827H76.0805V20.7502H75.9477V20.4853H75.8147V20.6177H75.1502V20.4853H74.7515V20.6177H74.6186V20.7502ZM35.6772 4.45152V4.5841H35.8101V4.98153H36.076V4.84905H36.2088V4.71657H36.7404V4.5841H36.8734V4.45152H35.6772ZM25.8422 13.7272H25.9751V13.5947H26.2409V13.3297H26.108V13.1972H25.3106V13.3297H25.4435V13.7272H25.5764V13.5947H25.8422V13.7272ZM66.6442 7.49926H66.7771V6.96926H66.5113V6.83668H65.8467V7.10173H66.2456V7.23421H66.3784V7.36678H66.6442V7.49926ZM20.9246 27.6407H20.2602V28.0383H20.526V28.3033H20.7918V28.1707H20.9246V27.6407ZM28.1016 3.39142V3.25894H27.9687V2.86142H27.8357V2.72894H27.4371V3.25894H27.57V3.39142H28.1016ZM71.163 8.16184H71.8276V8.29431H72.0934V8.16184H72.3591V8.29431H72.492V8.02926H72.3591V7.89679H72.2263V8.02926H71.9604V7.89679H71.2959V8.02926H71.163V8.16184ZM33.8166 19.0276H34.2153V19.1601H34.4811V19.0276H34.614V18.7626H34.4811V18.6301H35.0127V18.4975H34.3481V18.8952H34.2153V18.7626H33.8166V19.0276ZM71.2959 4.054H71.8276V3.92152H71.9604V3.78895H71.6947V3.5239H71.5617V3.39142H71.2959V3.5239H71.163V3.65647H71.2959V4.054ZM14.6782 16.3774V15.9799H14.811V15.7148H14.4123V16.1124H14.2795V16.2449H14.1465V16.5099H14.5452V16.3774H14.6782ZM85.5168 17.8351H85.3839V18.2326H85.5168V18.6301H85.6497V18.4975H85.7826V18.1H86.1814V17.8351H85.6497V18.1H85.5168V17.8351ZM73.0237 2.06636V1.80131H72.8908V1.66884H72.7579V1.53636H72.625V1.40379H72.492V1.27131H72.2263V1.13874H72.0934V1.40379H72.2263V1.53636H72.3591V1.66884H72.492V1.80131H72.625V1.93389H72.7579V2.06636H73.0237ZM63.4545 4.31905V4.5841H63.5874V4.71657H63.9861V4.5841H64.2519V4.45152H64.6506V4.31905H63.4545ZM71.163 6.57164H71.2959V6.43916H71.4288V6.30668H71.8276V6.1742H71.6947V6.04163H71.8276V5.90915H71.5617V5.77668H71.4288V5.90915H71.163V6.57164ZM30.8926 28.3033H30.7597V28.9659H30.8926V28.7008H31.0256V28.5683H31.1584V28.9659H31.2913V27.9058H31.0256V28.1707H31.1584V28.4358H30.8926V28.3033ZM20.9246 4.45152V3.78895H19.9943V3.92152H20.1273V4.054H20.6589V4.31905H20.7918V4.45152H20.9246ZM40.4618 27.3757H40.5948V27.1107H40.7277V26.9782H40.5948V26.7132H40.0631V27.3757H40.3289V26.9782H40.4618V27.3757ZM46.0439 0.873783V0.741211H44.449V1.00626H45.1135V0.873783H46.0439ZM63.4545 26.9782H63.7203V27.1107H63.9861V26.4482H63.5874V26.5806H63.4545V26.9782ZM7.23538 5.1141H6.83667V5.37905H7.23538V5.24658H8.29865V5.1141H7.6341V4.98153H7.23538V5.1141ZM35.6772 16.1124H35.8101V16.2449H35.943V16.1124H36.076V15.9799H36.6075V15.7148H35.8101V15.8474H35.6772V16.1124ZM50.4298 1.27131H50.9614V1.13874H51.3601V0.873783H50.9614V1.00626H50.8285V0.873783H50.4298V1.27131ZM46.0439 24.7256H45.9109V24.8581H47.1071V24.7256H46.9742V24.593H46.0439V24.7256Z" fill="#FEFEFE"/>
<path fill-rule="evenodd" clip-rule="evenodd" d="M66.247 1.40369V1.53626H66.9115V0.873688H66.3799V1.00616H66.6456V1.27121H66.5128V1.40369H66.247ZM14.0151 29.7607H13.8821V29.8933H13.7492V29.7607H13.6163V29.6283H13.4834V29.4958H13.3505V30.1584H13.8821V30.0258H14.0151V29.7607ZM83.5247 27.2431H84.0563V26.9781H83.7905V26.7131H83.5247V26.5805H83.3918V27.1106H83.5247V27.2431ZM36.609 15.7147V15.8473H36.7419V15.9798H37.0077V16.1123H37.2736V15.9798H37.4064V15.8473H37.2736V15.7147H37.4064V15.5823H36.8748V15.7147H36.609ZM7.23682 3.12637V2.86132H7.36979V2.72884H7.50266V2.59627H7.10395V2.72884H6.70524V3.12637H7.23682ZM84.1892 11.872H84.3221V12.0045H84.455V12.2695H84.588V12.137H84.7208V11.872H84.8538V11.607H84.1892V11.872ZM23.4513 13.7271V13.5946H23.3185V13.1971H22.9197V13.4621H22.521V13.5946H22.9197V13.7271H23.4513ZM65.8482 4.45143H65.9812V4.584H66.3799V4.84895H66.6456V4.31895H65.8482V4.45143ZM87.379 11.872H87.2461V12.5345H87.379V12.2695H87.5118V12.137H87.7777V11.7395H87.379V11.872ZM64.5192 17.8349H64.1205V17.5699H63.8546V17.9674H63.9876V18.3649H64.2533V17.9674H64.5192V17.8349ZM35.6787 16.1123V15.8473H35.8116V15.7147H35.5457V15.5823H35.28V15.8473H35.147V15.9798H35.0141V16.1123H35.6787ZM4.44582 15.7147V15.8473H4.57879V16.1123H4.71166V16.2448H4.84454V16.1123H4.97741V15.7147H4.84454V15.4497H4.57879V15.7147H4.44582ZM57.2094 15.9798H57.0765V15.8473H57.2094V15.7147H56.9435V15.8473H56.8106V15.9798H56.4119V15.8473H56.2791V15.7147H56.1462V16.1123H57.2094V15.9798ZM66.6456 7.49916V7.63164H67.0444V6.96916H66.9115V6.83658H66.5128V6.96916H66.7786V7.49916H66.6456ZM22.9197 18.7625H22.6539V18.63H22.521V18.7625H22.1223V19.16H22.521V18.895H22.7868V19.0275H22.9197V18.7625ZM72.3606 4.0539H72.4935V4.18638H72.8923V3.78885H72.0949V3.92142H72.3606V4.0539ZM64.2533 20.4851H64.9179V20.2201H64.785V20.0876H64.3863V20.2201H64.2533V20.4851ZM34.4826 19.16H34.7483V19.0275H34.8813V18.895H35.147V18.63H34.4826V18.7625H34.6154V19.0275H34.4826V19.16ZM27.1727 11.607V11.4744H27.3056V11.0769H27.1727V10.9444H27.0398V11.0769H26.9069V11.2095H26.774V11.4744H27.0398V11.607H27.1727ZM55.8803 8.55926H56.1462V8.42669H56.2791V8.29421H56.4119V8.16174H56.2791V8.02916H56.1462V7.89669H56.0132V8.02916H55.8803V8.55926ZM27.0398 24.8579H27.7043V24.7255H27.9702V24.5929H27.0398V24.8579ZM57.4752 24.8579H58.2726V24.5929H57.4752V24.8579ZM20.9261 3.78885V4.584H21.1919V3.78885H20.9261ZM82.5944 18.0999H82.8601V18.4974H82.9931V18.2325H83.126V17.8349H82.5944V18.0999ZM4.44582 13.3296V13.8596H4.71166V13.7271H4.84454V13.4621H4.97741V13.3296H4.44582ZM46.9757 6.1741H47.2415V6.04153H47.3744V5.644H47.2415V5.51153H47.1085V5.644H46.9757V6.1741ZM87.1131 7.63164H87.2461V7.76421H87.5118V7.89669H87.6448V7.63164H87.5118V7.49916H87.7777V7.36668H87.6448V7.23411H87.379V7.49916H87.1131V7.63164ZM13.4834 29.3632H13.6163V29.4958H13.7492V29.6283H13.8821V28.9658H13.7492V28.8332H13.6163V29.0983H13.4834V29.3632ZM0.591553 6.70411H0.724426V6.43906H0.990267V6.04153H0.591553V6.70411ZM71.5632 24.7255H71.4303V24.8579H72.2277V24.5929H71.5632V24.7255ZM35.147 6.57154V6.04153H34.8813V6.1741H34.6154V6.43906H35.0141V6.57154H35.147ZM20.3945 27.3756V27.6406H20.9261V27.5081H21.059V27.1106H20.9261V27.3756H20.3945ZM14.8125 11.0769V10.9444H14.9454V10.5469H14.8125V10.6794H14.5466V10.8118H14.4138V11.0769H14.8125ZM56.4119 19.9551H57.0765V19.8226H57.2094V19.5575H56.9435V19.69H56.6778V19.8226H56.4119V19.9551ZM46.0454 6.04153V5.90905H46.1782V5.644H46.0454V5.51153H45.7795V5.644H45.6466V5.90905H45.9124V6.04153H46.0454ZM26.1095 15.9798H25.9766V16.2448H26.3753V16.1123H26.5082V15.9798H26.641V15.8473H26.1095V15.9798ZM63.4559 4.584V4.31895H62.7915V4.584H63.4559ZM11.8885 24.8579H12.5531V24.5929H11.8885V24.8579ZM31.6916 27.5081H31.8244V27.6406H31.9573V27.5081H32.356V27.3756H32.2231V27.2431H31.9573V27.1106H31.8244V27.3756H31.6916V27.5081ZM81.9298 4.18638H82.5944V3.92142H81.9298V4.18638ZM46.1782 4.0539V3.92142H46.0454V3.78885H45.5137V4.0539H46.1782ZM34.3496 15.8473H35.0141V15.5823H34.4826V15.7147H34.3496V15.8473ZM86.4487 4.18638V4.71647H86.5815V4.584H86.8473V4.45143H86.9803V4.31895H86.5815V4.18638H86.4487ZM50.0325 11.607V11.3419H49.8995V11.0769H49.6338V11.3419H49.7667V11.7395H49.8995V11.607H50.0325ZM41.5265 27.1106H41.6594V26.8456H41.7924V26.7131H41.6594V26.5805H41.5265V26.448H41.2607V26.5805H41.3936V26.8456H41.5265V27.1106Z" fill="#FEFEFE"/>
<path fill-rule="evenodd" clip-rule="evenodd" d="M84.0556 26.9783V26.8458H83.9227V26.4483H83.524V26.7133H83.7898V26.9783H84.0556ZM16.4066 3.39155V2.86155H16.0079V3.1266H16.1408V3.25908H16.2738V3.39155H16.4066ZM25.4442 13.4623H25.3113V13.9924H25.4442V13.8598H25.8429V13.5949H25.5772V13.7273H25.4442V13.4623ZM73.1573 29.761V29.6285H73.2903V29.761H73.5561V29.6285H73.4232V29.3634H73.0245V29.761H73.1573ZM88.0428 2.46402V2.0665H87.91V2.19897H87.5111V2.46402H88.0428ZM25.3113 11.3422H25.4442V11.2097H25.5772V10.9447H25.4442V10.8121H25.3113V10.9447H25.1784V11.2097H25.3113V11.3422ZM73.4232 6.17433H73.689V6.30681H74.0877V6.04176H73.4232V6.17433ZM22.6532 24.8582H23.1849V24.5931H22.6532V24.8582ZM5.24255 20.4854V20.3528H4.97671V20.2203H4.57809V20.4854H5.24255ZM57.3416 21.8104H57.7403V21.678H57.8732V21.5454H57.6074V21.4129H57.4745V21.5454H57.3416V21.8104ZM35.8109 4.84918V4.58423H35.678V4.45166H35.4122V4.84918H35.8109ZM86.448 6.70434H86.315V7.23434H86.448V6.96939H86.5808V7.10186H86.8466V6.96939H86.7137V6.83681H86.448V6.70434ZM60.6642 2.19897H60.9301V2.0665H61.0629V1.66897H60.9301V1.80145H60.7972V1.93402H60.6642V2.19897ZM33.1527 5.77681V6.30681H33.2857V6.17433H33.4186V5.90928H33.5515V5.77681H33.1527ZM64.2526 1.00639H64.3856V1.27144H64.5185V1.13887H64.6514V1.00639H64.9172V0.873917H64.2526V1.00639ZM27.8365 14.3899H27.7036V14.5224H28.3682V14.3899H28.1023V14.2573H27.8365V14.3899ZM3.24898 9.22197H3.38185V8.95702H3.51482V8.82454H3.64769V8.69197H3.24898V9.22197ZM57.7403 30.026V29.8935H58.0061V29.6285H57.6074V30.026H57.7403ZM69.1702 8.82454V8.69197H69.0373V8.55949H68.9043V8.82454H68.6386V9.0895H68.7715V8.95702H69.0373V8.82454H69.1702ZM13.0841 16.1125H13.3498V15.715H12.9511V15.8475H13.0841V16.1125ZM75.2839 20.0879V20.3528H75.6826V20.2203H75.5496V20.0879H75.6826V19.9553H75.4167V20.0879H75.2839ZM67.4425 28.1709H67.5753V28.0384H67.7082V27.6409H67.4425V28.1709ZM66.9108 17.7026H66.5121V17.8352H67.1766V17.5701H66.9108V17.7026ZM37.4057 4.58423H37.8044V4.84918H37.9373V4.45166H37.4057V4.58423ZM33.1527 16.9076H33.2857V16.7751H33.4186V16.51H33.1527V16.6425H33.0199V16.7751H33.1527V16.9076ZM6.30582 24.8582H6.70453V24.5931H6.30582V24.8582ZM13.3498 16.1125H13.0841V16.3775H13.3498V16.51H13.4827V16.2451H13.3498V16.1125ZM26.2416 16.6425V16.51H25.9759V16.3775H25.8429V16.51H25.71V16.7751H25.8429V16.6425H26.2416ZM21.7229 24.7257H21.5899V24.8582H21.9886V24.5931H21.7229V24.7257ZM71.0309 17.1726H71.2966V17.0401H71.4296V16.9076H71.2966V16.7751H71.1637V17.0401H71.0309V17.1726ZM71.2966 6.96939H71.1637V7.36691H71.4296V7.10186H71.2966V6.96939ZM15.0775 28.966H15.3434V28.701H15.0775V28.966ZM59.3352 8.02939H59.6009V7.76444H59.3352V8.02939ZM28.2352 24.8582H28.501V24.5931H28.2352V24.8582ZM0.856689 13.8598H1.12253V13.5949H0.856689V13.8598ZM50.6964 24.8582H50.9621V24.5931H50.6964V24.8582ZM85.7834 4.18661H86.0492V3.92165H85.7834V4.18661ZM30.8933 28.4359H31.1592V28.1709H30.8933V28.4359ZM3.24898 28.4359V28.701H3.51482V28.4359H3.24898ZM46.4433 26.9783V27.2433H46.7091V26.9783H46.4433ZM67.5753 13.9924V14.2573H67.8412V13.9924H67.5753ZM68.2399 13.8598H68.5056V13.5949H68.2399V13.8598ZM20.5268 24.7257H20.3938V24.8582H20.6596V24.5931H20.5268V24.7257Z" fill="#FEFEFE"/>
</g>
<defs>
<clipPath id="clip0_1578_542">
<rect width="87.7177" height="29.6822" fill="white" transform="translate(0.591187 0.608841)"/>
</clipPath>
</defs>
</svg>
