<svg width="93" height="37" viewBox="0 0 93 37" fill="none" xmlns="http://www.w3.org/2000/svg">
<g clip-path="url(#clip0_1578_561)">
<path fill-rule="evenodd" clip-rule="evenodd" d="M33.8282 22.7193H32.9867V5.25471H34.1087C34.283 5.5161 34.4827 5.57926 34.4827 6.00589V22.062C34.4827 22.5003 34.2647 22.7193 33.8282 22.7193ZM27.4701 26.9446H34.2957C38.2143 26.9446 39.9993 26.5117 39.9993 22.5315V5.44251C39.9993 4.78456 39.9117 3.88135 39.7569 3.33854C39.5639 2.66212 39.2578 2.26086 38.8093 1.84882C38.1172 1.21297 36.1224 1.02945 34.7632 1.02945H27.4701V26.9446V26.9446Z" fill="#FEFEFE"/>
<path fill-rule="evenodd" clip-rule="evenodd" d="M19.1482 21.8747V5.81857C19.1482 4.92525 20.6443 4.81178 20.6443 6.10025V22.0625C20.6443 22.867 19.8715 22.8843 19.3352 22.6259C19.2267 22.3988 19.1482 22.2151 19.1482 21.8747ZM21.5792 0.934067H18.1197C14.4153 0.963849 13.6316 1.96086 13.6316 5.63079C13.6316 8.92495 13.481 21.8401 13.7275 24.0319C13.8796 25.3837 14.4757 26.3233 15.633 26.7193C17.2649 27.2777 22.421 27.277 24.0702 26.7235C26.6456 25.8591 26.1608 22.4726 26.1608 19.6212V5.63076C26.1683 1.77431 24.9455 0.961134 21.5792 0.934067H21.5792Z" fill="#FEFEFE"/>
<path fill-rule="evenodd" clip-rule="evenodd" d="M0.446541 2.43828V25.3487C0.95333 27.435 5.74336 27.4196 7.37006 26.6656C8.41908 26.1794 8.75064 25.4567 9.05081 25.2549C9.19998 25.538 9.35982 25.7956 9.53732 26.0808C9.67236 26.2978 9.92474 26.7152 9.98583 26.945H12.4169V13.6118H5.96525V17.8371H6.99378C6.99378 18.5128 7.06211 21.7532 6.90658 22.2565C6.68657 22.9684 5.4922 23.1359 5.40306 21.7819C5.30433 20.2824 5.40426 12.7956 5.40426 11.0767L5.40389 6.47543C5.40002 5.75824 5.43792 5.62971 5.68475 5.16127C6.64533 5.16127 7.00348 4.99228 6.99473 6.8504C6.99004 7.85195 6.99377 8.85437 6.99377 9.85601H12.4169C12.4169 7.92532 12.6184 4.93647 12.2307 3.37637C11.7119 1.28819 10.3771 0.952981 8.0223 0.934036H4.37573C2.47794 0.949289 1.12542 1.18218 0.446533 2.4383L0.446541 2.43828Z" fill="#FEFEFE"/>
<path fill-rule="evenodd" clip-rule="evenodd" d="M85.3466 8.25909H85.4401C85.4401 9.03911 85.5412 9.82518 85.6206 10.5191L85.714 11.646C85.7374 11.8543 85.7038 12.0816 85.7272 12.29L86.1881 17.5548H84.5986C84.6063 17.207 84.6421 17.2633 84.6724 17.0655L85.3466 8.2591L85.3466 8.25909ZM88.7127 1.12088H82.0741L80.8498 10.7855C80.6276 12.7146 80.1663 15.3146 80.017 17.1792C79.9755 17.6982 79.8918 18.2273 79.82 18.7653L78.8015 26.9443C79.6742 26.9443 80.5469 26.9443 81.4196 26.9443C81.8891 26.9443 83.7205 27.157 83.9119 26.8181C83.9154 26.8119 84.3181 22.1631 84.3181 21.8739H86.4686C86.4686 22.0745 86.4535 22.3396 86.4678 22.532C86.4955 22.9047 86.5368 22.7224 86.5628 23.0939L86.8426 26.9443C88.2451 26.9443 89.6478 26.9411 91.0502 26.9443C92.3068 26.9472 92.068 27.0457 91.9123 25.9846C91.8103 25.2889 91.789 24.7412 91.6828 24.0556L90.6849 16.4192C90.6047 15.7306 90.5672 15.1768 90.4511 14.4945L89.9489 10.6796C89.845 9.97759 89.8244 9.45139 89.7205 8.74936L88.7127 1.12088H88.7127Z" fill="#FEFEFE"/>
<path fill-rule="evenodd" clip-rule="evenodd" d="M50.7518 1.12094H41.0277V5.5362H44.9548C44.2624 8.52041 42.9913 12.6466 42.2246 15.752C41.7389 17.7189 40.943 20.2554 40.519 22.1143C40.4057 22.6108 40.4667 26.2688 40.4667 26.9443H50.7519C50.7519 26.3826 50.8346 22.5689 50.681 22.4146C50.5274 22.2603 46.7297 22.3435 46.1703 22.3435L50.2831 7.13114C50.6579 5.6696 50.752 5.89408 50.7519 4.40944C50.7518 3.31329 50.7519 2.21713 50.7519 1.12095L50.7518 1.12094Z" fill="#FEFEFE"/>
<path fill-rule="evenodd" clip-rule="evenodd" d="M64.4973 1.12091H59.0742V26.9443H67.7699V22.719C63.9216 22.719 64.4972 23.1229 64.4973 21.4045V1.21697C64.6474 1.09114 64.5682 1.23999 64.4973 1.12092V1.12091Z" fill="#FEFEFE"/>
<path fill-rule="evenodd" clip-rule="evenodd" d="M74.4071 1.12091H68.984V26.9443H77.6797V22.719C73.8314 22.719 74.4069 23.1229 74.4071 21.4045V1.12091Z" fill="#FEFEFE"/>
<path fill-rule="evenodd" clip-rule="evenodd" d="M57.5774 1.1209H52.0608V26.9443H57.5774V1.1209Z" fill="#FEFEFE"/>
<path fill-rule="evenodd" clip-rule="evenodd" d="M41.6824 35.8664H44.0199V28.3528H41.1214L40.5041 29.7048C40.3063 30.1988 40.0172 30.6899 39.9058 31.1697H39.7188C39.6889 30.8086 39.3086 30.1032 39.1704 29.7486L38.5968 28.3528H35.6048C35.6048 30.6043 35.623 32.8632 35.6044 35.1137C35.5966 36.0574 35.5062 35.9666 36.4459 35.9587C38.4844 35.9418 38.0358 36.6231 38.0358 32.4842L38.5033 33.3293C38.7381 33.8012 39.5762 35.6219 39.9059 35.8645C40.0054 35.4353 40.537 34.5065 40.7473 34.0804L41.6387 32.4404C41.6468 32.4295 41.6679 32.4071 41.6824 32.3904V35.8664L41.6824 35.8664Z" fill="#FEFEFE"/>
<path fill-rule="evenodd" clip-rule="evenodd" d="M52.5288 35.867H54.7728C55.014 35.6596 54.8663 33.1569 54.8663 32.8604L55.7378 34.3326C55.8406 34.5299 55.8518 34.5186 55.951 34.6818L56.6428 35.867H58.8869C59.1037 35.5192 58.9804 28.7053 58.9804 28.3534H56.5493V31.5458L54.7728 28.3534C54.3234 28.3534 52.6528 28.1541 52.4674 28.4796L52.4321 35.3048C52.4319 35.3457 52.428 35.5626 52.4309 35.5876C52.472 35.9454 52.4453 35.7545 52.5288 35.8669L52.5288 35.867Z" fill="#FEFEFE"/>
<path fill-rule="evenodd" clip-rule="evenodd" d="M83.3832 31.7336C82.7311 31.8862 82.762 31.8275 81.9807 31.8275V30.3252H83.2897C83.515 30.7527 83.5507 31.3572 83.3832 31.7336ZM79.5497 35.8669H81.8872L81.9865 35.4012C81.9892 35.2175 81.9809 35.0186 81.9807 34.8322C81.9802 34.4253 81.9807 34.0184 81.9807 33.6115C82.8906 33.6115 82.7413 34.1987 83.2281 35.5512L83.3832 35.8669H85.9078C86.0283 35.7633 86.0285 35.8724 85.9078 35.7711C85.8596 35.1901 85.3738 33.6676 84.8793 33.2359C85.5881 33.0701 85.8202 32.6263 85.8152 31.7346C85.811 30.9879 85.8866 29.9684 85.7253 29.3817C85.67 29.1808 85.6688 29.1557 85.5583 28.986C85.2878 28.5702 84.8541 28.3885 84.3194 28.3522C83.5579 28.3005 82.5794 28.3533 81.7937 28.3533C81.3443 28.3533 79.6737 28.1541 79.4883 28.4795L79.4518 35.5876C79.4929 35.9453 79.4663 35.7545 79.5497 35.8669L79.5497 35.8669Z" fill="#FEFEFE"/>
<path fill-rule="evenodd" clip-rule="evenodd" d="M47.4796 30.4188C48.5435 30.4188 49.0691 30.2674 49.0691 30.7005V33.7991C48.4028 33.8548 48.3523 34.0032 47.4796 33.7991V30.4188ZM46.3576 35.8667H50.0976C51.0722 35.8589 51.5038 35.2593 51.5024 34.2708C51.501 33.2685 51.5002 32.2663 51.5002 31.2639C51.5002 28.2471 51.4193 28.3531 48.3211 28.3531C47.4056 28.3531 46.1467 28.1979 45.5881 28.6133C44.8951 29.1287 45.0485 29.939 45.0485 31.0761C45.0485 31.8655 44.8965 34.7842 45.2688 35.3619C45.5265 35.7619 45.7393 35.8617 46.3576 35.8667L46.3576 35.8667Z" fill="#FEFEFE"/>
<path fill-rule="evenodd" clip-rule="evenodd" d="M10.9207 35.6771H13.2582V32.6725L13.4771 33.016C13.7491 33.5293 14.8459 35.3188 14.9412 35.6771C15.82 35.6771 17.2788 35.8626 17.2788 35.3954V28.635C17.2788 28.1451 16.2888 28.3533 14.9412 28.3533V31.4519C14.7122 31.2834 13.3993 28.7987 13.1647 28.3533H10.9207V35.6771H10.9207Z" fill="#FEFEFE"/>
<path fill-rule="evenodd" clip-rule="evenodd" d="M59.6338 35.8667H64.2153C65.9566 35.8527 65.8034 35.0494 65.8049 33.3296C65.8069 30.896 65.2086 31.3257 62.7121 31.2712C62.3039 31.2623 62.1569 31.2203 62.2425 30.7012C62.3177 30.2455 62.9755 30.4189 64.0283 30.4189C66.5042 30.4189 65.8984 30.9076 65.8984 28.3532C64.7452 28.3532 63.592 28.3532 62.4388 28.3532C61.849 28.3532 61.2307 28.3187 60.7702 28.4615C59.3283 28.9085 59.969 32.3178 60.1594 32.614C60.4214 33.0217 60.8658 33.0518 61.5034 33.0483C62.0954 33.0451 62.6882 33.0479 63.2803 33.0479C63.2803 34.2152 63.4444 33.893 59.5403 33.893L59.546 35.6714C59.5817 35.8552 59.5732 35.7697 59.6338 35.8667H59.6338Z" fill="#FEFEFE"/>
<path fill-rule="evenodd" clip-rule="evenodd" d="M0.447998 35.6766H2.97257V33.0475C3.51297 33.0596 3.36494 33.0526 3.75569 34.2329L4.28157 35.6766H6.89962C6.89023 35.253 5.97353 33.0222 5.74029 32.4277C5.35757 31.4522 5.5481 31.8392 6.20785 30.1933C6.39214 29.7335 6.86452 28.7762 6.89962 28.3528H4.37508L3.35297 30.9883C3.13054 31.4059 3.36537 31.1547 3.06606 31.2635C2.85954 30.8944 2.97257 28.9038 2.97257 28.3528H0.448006V35.6766L0.447998 35.6766Z" fill="#FEFEFE"/>
<path fill-rule="evenodd" clip-rule="evenodd" d="M86.7497 35.8671H90.9573C91.4926 35.8628 91.6523 35.8859 91.9879 35.6796C92.3031 35.4858 92.4409 35.3238 92.4547 34.8324V32.2033C92.3409 30.9287 90.4379 31.2643 89.0873 31.2643V30.4193H92.4533C92.4388 29.7655 92.0948 29.0543 92.0793 28.3536C90.9573 28.3536 89.8352 28.3557 88.7132 28.3535C87.2578 28.3507 86.9123 28.4708 86.6912 29.7033C86.5241 30.6347 86.5502 32.2113 87.0021 32.7011C87.4906 33.2304 88.9115 33.0483 90.0223 33.0483C90.0223 34.0567 90.2784 33.8934 88.4327 33.8934C87.6224 33.8934 86.8121 33.8934 86.0017 33.8934C86.1373 34.478 86.5497 35.2779 86.5627 35.8652L86.7497 35.8671H86.7497Z" fill="#FEFEFE"/>
<path fill-rule="evenodd" clip-rule="evenodd" d="M22.0475 35.961H22.2345C22.7041 35.9566 23.9746 35.642 24.2915 35.4893C24.2915 30.4532 24.9665 31.2668 22.136 31.259C21.4265 31.257 21.58 31.2137 21.58 32.8602H22.0475V33.7991C21.4216 33.7991 21.0611 33.8245 20.5515 33.7052V30.4189C21.4474 30.2093 22.7707 30.325 23.824 30.325L23.3565 28.3532C22.338 28.3532 20.2452 28.2344 19.3534 28.3707C17.9242 28.5891 18.2139 29.7416 18.2139 31.3579C18.2139 36.0612 17.687 35.677 22.0475 35.677V35.961L22.0475 35.961Z" fill="#FEFEFE"/>
<path fill-rule="evenodd" clip-rule="evenodd" d="M73.2854 35.8665H78.6149C78.7723 35.6143 78.7095 35.2865 78.7085 34.9256C78.7075 34.5814 78.7085 34.237 78.7085 33.8928H75.6229V33.0477H78.241V31.2637H75.6229V30.4186H78.7085C78.1299 27.9249 78.679 28.3528 77.0254 28.3529C76.481 28.353 73.4812 28.2047 73.2627 28.4241C73.1132 28.5742 73.1692 34.247 73.1861 35.4008L73.2854 35.8665H73.2854Z" fill="#FEFEFE"/>
<path fill-rule="evenodd" clip-rule="evenodd" d="M68.4241 35.8664H70.8552C70.9165 35.7681 70.9126 35.8604 70.943 35.6711L70.9487 30.4185H72.5382V28.3528H66.6476V30.4185H68.3306L68.3293 35.2085C68.3227 35.8865 68.3214 35.7017 68.4241 35.8664H68.4241Z" fill="#FEFEFE"/>
<path fill-rule="evenodd" clip-rule="evenodd" d="M7.55505 35.6766H9.89258V28.3528H7.55505V35.6766Z" fill="#FEFEFE"/>
<path fill-rule="evenodd" clip-rule="evenodd" d="M28.1242 30.606V29.3854C29.0166 29.3854 28.8722 29.2265 28.8722 30.606C28.8722 31.0125 28.1242 31.0125 28.1242 30.606ZM27.0022 29.3854C27.0022 30.9734 26.8337 31.0131 27.3762 31.8267C28.6845 31.8267 29.2261 31.9986 29.9007 31.545V28.7281C29.3554 28.2535 29.2506 28.4464 27.5631 28.4464H27.3762C27.1589 28.7722 27.0022 28.8036 27.0022 29.3854Z" fill="#FEFEFE"/>
<path fill-rule="evenodd" clip-rule="evenodd" d="M28.4977 35.8643H29.6197V34.6437H30.2742V35.8643H31.3962V32.4841H30.2742V33.7047H29.6197V32.4841H28.4977V35.8643Z" fill="#FEFEFE"/>
<path fill-rule="evenodd" clip-rule="evenodd" d="M31.8658 35.8643H34.1099C34.1407 35.492 34.266 35.2977 34.2969 34.9254H32.8944V34.6437C34.2867 34.6437 34.1099 34.8064 34.1099 33.7986H32.8944V33.423H34.2969C34.2722 33.125 34.1734 32.7581 34.1099 32.4841H31.8658V35.8643Z" fill="#FEFEFE"/>
<path fill-rule="evenodd" clip-rule="evenodd" d="M30.3689 31.827H31.3974C31.3974 30.3809 31.1729 30.6064 32.6129 30.6064C32.6129 29.5986 32.7897 29.7613 31.3974 29.7613V29.3857H32.7999C32.7936 29.1016 32.7678 29.0283 32.7209 28.8079C32.6012 28.2465 32.5011 28.4468 30.3689 28.4468V31.827V31.827Z" fill="#FEFEFE"/>
<path fill-rule="evenodd" clip-rule="evenodd" d="M25.4128 33.423H26.2544V35.8643C27.8043 35.8643 27.4699 36.2972 27.4699 33.423H28.2179C28.1932 33.125 28.0945 32.758 28.0309 32.484H25.5999C25.5915 32.8629 25.4871 33.103 25.4128 33.423H25.4128Z" fill="#FEFEFE"/>
<path fill-rule="evenodd" clip-rule="evenodd" d="M0.446422 25.3486V2.43816C0.235763 2.61901 0.355059 7.81758 0.355059 8.07189L0.353757 24.6927C0.352991 24.7739 0.343394 25.0058 0.350762 25.0714L0.446414 25.3486H0.446422Z" fill="#FEFEFE"/>
<path fill-rule="evenodd" clip-rule="evenodd" d="M50.7522 1.12132C50.5669 0.903628 48.7152 1.0296 48.4147 1.0296L41.5859 1.02647C41.5429 1.02628 41.3319 1.02215 41.3042 1.0253L41.0281 1.12133H50.7522V1.12132Z" fill="#FEFEFE"/>
<path fill-rule="evenodd" clip-rule="evenodd" d="M88.7131 1.12092C88.6035 0.992173 88.7669 1.05771 88.437 1.02489C88.3324 1.01448 88.0847 1.02771 87.9655 1.02872C87.285 1.03455 82.3515 0.915309 82.0745 1.12092H88.7131Z" fill="#FEFEFE"/>
<path fill-rule="evenodd" clip-rule="evenodd" d="M57.5774 1.12113C57.4495 0.970858 57.3017 1.02513 57.0196 1.02627C56.2511 1.02938 52.5299 0.936868 52.1178 1.08533C52.1038 1.09038 52.0788 1.10776 52.0608 1.12112H57.5774V1.12113Z" fill="#FEFEFE"/>
<path fill-rule="evenodd" clip-rule="evenodd" d="M64.4973 1.12152C64.3694 0.971248 64.2216 1.02552 63.9395 1.02666C63.1999 1.02964 59.5245 0.944019 59.1312 1.08572C59.1172 1.09077 59.0922 1.10815 59.0742 1.12151H64.4973L64.4973 1.12152Z" fill="#FEFEFE"/>
<path fill-rule="evenodd" clip-rule="evenodd" d="M78.6163 35.8663H73.2867C73.4147 36.0169 73.562 35.9625 73.8446 35.9614L78.3402 35.9625C78.6685 35.9252 78.4843 35.9645 78.6163 35.8663H78.6163Z" fill="#FEFEFE"/>
<path fill-rule="evenodd" clip-rule="evenodd" d="M64.2158 35.8662H59.6343C59.8081 36.0709 63.1556 35.9593 63.6581 35.9613C63.7008 35.9615 63.9124 35.9656 63.9397 35.9625C64.2681 35.9252 64.0838 35.9645 64.2158 35.8662H64.2158Z" fill="#FEFEFE"/>
<path fill-rule="evenodd" clip-rule="evenodd" d="M90.9573 35.8662H86.7498C86.8817 36.0216 86.8121 35.9502 87.1167 35.9652C87.589 35.9884 90.7291 36.0361 90.9573 35.8662Z" fill="#FEFEFE"/>
<path fill-rule="evenodd" clip-rule="evenodd" d="M8.02231 0.93362C7.8212 0.696845 5.69077 0.842673 5.31072 0.841635C5.03444 0.840889 4.59482 0.770648 4.37573 0.93362H8.02231Z" fill="#FEFEFE"/>
<path fill-rule="evenodd" clip-rule="evenodd" d="M21.5801 0.933253C21.3856 0.704246 19.3463 0.843267 18.962 0.841159C18.6465 0.83946 18.3241 0.781856 18.1206 0.933253H21.5801Z" fill="#FEFEFE"/>
<path fill-rule="evenodd" clip-rule="evenodd" d="M50.0971 35.8662H46.3571C46.489 36.0216 46.4193 35.9502 46.7239 35.9652L49.1621 35.9582C49.3165 35.9586 49.4837 35.966 49.6354 35.9638L50.0971 35.8662Z" fill="#FEFEFE"/>
<path fill-rule="evenodd" clip-rule="evenodd" d="M74.4071 1.1217C74.2792 0.971425 74.1314 1.0257 73.8493 1.02684L68.984 1.1217H74.4071Z" fill="#FEFEFE"/>
<path fill-rule="evenodd" clip-rule="evenodd" d="M92.4546 34.8319C92.6107 34.6989 92.6302 32.4396 92.4546 32.2029V34.8319Z" fill="#FEFEFE"/>
<path fill-rule="evenodd" clip-rule="evenodd" d="M85.9085 35.8662H83.3839C83.5118 36.0169 83.6592 35.9625 83.9417 35.9613C84.3205 35.9598 85.6524 36.0567 85.9085 35.8662Z" fill="#FEFEFE"/>
<path fill-rule="evenodd" clip-rule="evenodd" d="M70.8546 35.8662H68.4236C68.5887 36.0607 69.9716 35.96 70.2968 35.9613C70.7785 35.9633 70.6908 35.9881 70.8546 35.8662Z" fill="#FEFEFE"/>
<path fill-rule="evenodd" clip-rule="evenodd" d="M54.7728 35.8663H52.5288C52.6977 36.0651 53.8888 35.96 54.215 35.9614C54.6968 35.9633 54.6091 35.9881 54.7728 35.8663Z" fill="#FEFEFE"/>
<path fill-rule="evenodd" clip-rule="evenodd" d="M58.8861 35.8662H56.6421C56.811 36.0651 58.0021 35.96 58.3283 35.9613C58.3711 35.9615 58.5827 35.9656 58.61 35.9625C58.9383 35.9252 58.7541 35.9645 58.8861 35.8662Z" fill="#FEFEFE"/>
<path fill-rule="evenodd" clip-rule="evenodd" d="M81.8877 35.8663H79.5502C79.6785 36.0173 79.7218 35.9597 80.0119 35.9639L81.3299 35.9614C81.3727 35.9615 81.5842 35.9656 81.6116 35.9625C81.9399 35.9252 81.7556 35.9645 81.8877 35.8663H81.8877Z" fill="#FEFEFE"/>
<path fill-rule="evenodd" clip-rule="evenodd" d="M44.0195 35.8662H41.682C41.8103 36.0173 41.8536 35.9596 42.1437 35.9639L43.4617 35.9613C43.5045 35.9615 43.7161 35.9656 43.7434 35.9625C44.0717 35.9252 43.8875 35.9645 44.0195 35.8662Z" fill="#FEFEFE"/>
<path fill-rule="evenodd" clip-rule="evenodd" d="M22.2339 35.961H22.0469C22.0469 36.2661 22.218 35.9816 22.2339 35.961Z" fill="#FEFEFE"/>
</g>
<defs>
<clipPath id="clip0_1578_561">
<rect width="92.2586" height="35.303" fill="white" transform="translate(0.320679 0.798401)"/>
</clipPath>
</defs>
</svg>
