<svg width="82" height="56" viewBox="0 0 82 56" fill="none" xmlns="http://www.w3.org/2000/svg">
<path d="M73.6809 1.08896C75.2225 1.44962 76.4449 2.28111 77.3479 3.58343C77.7108 4.1448 77.9801 4.74843 78.1559 5.39431L78.2123 5.64896L78.3531 7.81635V9.97808L78.3407 11.0906C78.34 11.1359 78.3622 11.1585 78.4072 11.1585L80.4808 11.1653H81.6832C81.6981 11.1653 81.7125 11.1714 81.723 11.1822C81.7336 11.1931 81.7395 11.2077 81.7395 11.2231L81.7429 12.5246L81.7395 14.7497V16.2313C81.7396 16.2386 81.7381 16.2459 81.7352 16.2527C81.7323 16.2595 81.728 16.2657 81.7227 16.2709C81.7173 16.276 81.711 16.2801 81.704 16.2828C81.697 16.2855 81.6896 16.2869 81.6821 16.2867L80.6678 16.2641L78.4275 16.2946C78.3817 16.2946 78.3535 16.3169 78.343 16.3614C78.3069 16.5048 78.3133 16.65 78.3622 16.7971L78.3576 19.3256C78.3126 20.0167 78.3137 20.7079 78.361 21.399L78.334 23.1918L78.3622 25.9647L78.3565 28.3788C78.3114 29.0828 78.3133 29.7822 78.3622 30.4772L78.334 32.2462L78.3576 34.9478L78.3599 36.6602C78.3599 36.7032 78.3817 36.7247 78.4253 36.7247L80.6397 36.7405L81.6471 36.7552C81.6967 36.7552 81.7223 36.7801 81.7238 36.8299L81.7407 37.2272L81.7429 39.6311L81.7103 41.8053L80.6397 41.8427L78.4061 41.8766C78.3625 41.8774 78.3407 41.8996 78.3407 41.9434L78.3622 44.0316L78.3058 46.62C77.9302 49.4012 76.4103 51.1736 73.7463 51.9371C73.0363 52.0466 72.329 52.096 71.6243 52.0854H67.0884L64.8762 52.0888L62.6652 52.0854H58.1575L57.8115 52.0752C57.7657 52.0737 57.7428 52.0499 57.7428 52.0039L57.7372 51.0374L57.7304 48.6006L57.736 47.0602C57.7368 47.0142 57.7597 46.9867 57.8048 46.9776C57.9002 46.9588 57.999 46.9606 58.1012 46.9833C62.6652 46.9697 67.2293 46.9644 71.7933 46.9674C72.4165 46.9674 72.9867 47.0319 73.1862 46.397C73.371 45.8107 73.2594 44.7638 73.2538 44.13V37.2827L73.2572 34.9761L73.2538 32.7555V28.2283L73.2572 25.9228L73.2538 23.7294V19.2022L73.2572 16.8707L73.2538 14.675V7.85596C73.3552 6.25674 73.0724 6.00434 71.5679 6.04962L69.4403 6.04622L67.0884 6.04962L64.9326 6.04622L62.5807 6.04962H58.073L55.9172 6.04622L53.5653 6.04962H49.0576L46.9018 6.04622L44.5499 6.04962L42.3941 6.04622L40.0422 6.04962H35.5345L33.3787 6.04622L31.0268 6.04962H26.5191L24.3633 6.04622L22.0114 6.04962L19.8556 6.04622L17.5037 6.04962H10.7703C9.12836 6.01679 8.66632 5.95568 8.74633 7.82767L8.74295 10.0822L8.74633 12.3549L8.74182 14.5822L8.74633 16.9669L8.74295 19.106V21.5111L8.74633 23.7011V26.0213L8.74295 28.1875L8.74633 30.5202V37.1695L8.74408 39.6187L8.74633 41.8098V44.0451C8.73281 44.7069 8.73732 45.369 8.75986 46.0314C8.77563 46.4932 8.9627 46.9267 9.44615 46.9595C10.0554 47.001 11.2387 47.0089 12.996 46.9833L24.0962 46.9923L24.1199 47.0218C24.1371 47.0414 24.1458 47.0644 24.1458 47.0908L24.157 48.6006V50.9389L24.148 52.073L22.0114 52.0854L19.7981 52.0888L17.5318 52.0854H13.0241L10.6948 52.0786C9.99534 52.1043 9.29176 52.073 8.58406 51.9847C7.82301 51.8323 7.07961 51.544 6.35387 51.12L5.69913 50.605C4.44899 49.4672 3.77133 48.0445 3.66615 46.337L3.64249 44.078L3.62671 41.8868C3.62673 41.8776 3.62324 41.8687 3.61696 41.862C3.61067 41.8552 3.60207 41.8512 3.5929 41.8506C2.97009 41.8196 2.34802 41.8264 1.72671 41.871L0.26171 41.8336L0.265091 36.9397C0.265842 36.8114 0.330077 36.7469 0.457795 36.7462L1.69854 36.7405L3.53656 36.7417C3.56883 36.7417 3.59979 36.7288 3.62262 36.7059C3.64544 36.6829 3.65826 36.6518 3.65826 36.6194L3.6515 35.0383L3.66728 32.7758L3.64249 30.5247L3.66615 27.7756L3.64699 25.993L3.66841 23.7124L3.63798 21.4941L3.66615 19.1909L3.66953 16.3716C3.66953 16.3293 3.6485 16.3082 3.60642 16.3082L0.364261 16.2799C0.336855 16.2796 0.310653 16.2686 0.291273 16.2491C0.271893 16.2296 0.260876 16.2033 0.260583 16.1758L0.257202 14.675V12.6095L0.260583 11.2423C0.260583 11.2219 0.268657 11.2023 0.283028 11.1879C0.297399 11.1734 0.31689 11.1653 0.337214 11.1653L1.72671 11.1619L3.52867 11.1631C3.63084 11.1631 3.67968 11.1121 3.67517 11.0103L3.63911 10.2056L3.64249 7.88879C3.64624 7.13124 3.6932 6.3767 3.78335 5.62519C4.31751 3.29256 6.20511 1.42623 8.57279 1.03237C8.86466 0.999545 9.15315 0.958799 9.44728 0.958799L15.4752 0.947482H29.0265L31.0471 0.949744L33.2525 0.947482H51.5368L53.5304 0.948613L56.0445 0.947482H65.0881L67.1087 0.949744L69.3141 0.947482H71.3425C72.1276 0.914283 72.9071 0.961441 73.6809 1.08896Z" fill="#E5E5E5"/>
<path d="M15.2847 11.065H17.3681L19.8221 11.0662L21.8448 11.0935C22.9027 11.3197 23.6066 11.9476 23.9564 12.9771C24.0503 13.2535 24.0743 13.7846 24.0285 14.5704C23.9947 15.3167 24.0004 16.0858 24.0454 16.8777L24.0375 19.2852C23.9925 19.9928 23.9951 20.6898 24.0454 21.3762L24.0364 22.9706L24.0184 26.009C24.1941 28.3881 23.578 29.9483 20.972 29.946C19.7519 29.9452 18.5319 29.9452 17.3118 29.946C17.2972 29.946 17.2832 29.952 17.2728 29.9627C17.2625 29.9734 17.2567 29.9878 17.2567 30.0029V35.1437L17.26 37.1777L17.251 40.6797L17.2229 41.8663C17.2214 41.9051 17.2015 41.9248 17.1632 41.9256L15.2802 41.9609L13.0402 41.9301C12.9275 41.9313 12.1381 42.0372 12.1831 41.847L12.155 39.6547L12.1527 37.3314L12.155 35.0993V30.5439L12.1572 28.2195L12.155 25.9885V21.4331L12.1572 19.111L12.155 16.8777C12.197 16.0934 12.1974 15.319 12.1561 14.5545C12.1482 13.6411 12.1347 13.0774 12.5052 12.3303L13.1517 11.59C13.8116 11.1656 14.5226 10.9906 15.2847 11.065ZM17.26 22.2872L17.2578 24.6709C17.2576 24.6863 17.2605 24.7015 17.2662 24.7158C17.2719 24.7301 17.2803 24.7431 17.291 24.7541C17.3016 24.7651 17.3143 24.7739 17.3283 24.7799C17.3424 24.786 17.3574 24.7891 17.3727 24.7893L18.8547 24.8018C18.8885 24.8026 18.9054 24.7859 18.9054 24.7517L18.9403 21.2338L18.946 16.3071C18.946 16.2848 18.9372 16.2634 18.9215 16.2476C18.9059 16.2317 18.8847 16.2229 18.8626 16.2229H17.3659C17.3369 16.2229 17.3091 16.2344 17.2887 16.2549C17.2682 16.2754 17.2567 16.3032 17.2567 16.3322L17.26 22.2872ZM26.3879 11.0696L28.8836 11.065C29.5413 11.1106 30.1483 11.0365 30.833 11.1254L30.8127 12.2859L30.8015 14.6661L30.8026 16.3368V25.4476L30.8004 28.3516V30.5883L30.8026 32.8501V35.0993L30.7992 36.7506C30.7992 36.7654 30.805 36.7796 30.8154 36.7901C30.8257 36.8006 30.8398 36.8064 30.8544 36.8064L33.2476 36.803C33.5479 36.8311 33.8452 36.819 34.1395 36.7666C34.1808 36.7597 34.2015 36.7351 34.2015 36.6926L34.2004 35.1278V14.6911L34.2015 12.3121L34.2037 11.1459C34.2037 11.1253 34.2118 11.1056 34.2262 11.0911C34.2405 11.0766 34.26 11.0684 34.2803 11.0684L35.4718 11.065H37.8369L39.2266 11.0684C39.2365 11.0684 39.2462 11.0704 39.2553 11.0745C39.2643 11.0786 39.2724 11.0846 39.279 11.0921C39.2856 11.0997 39.2906 11.1086 39.2936 11.1182C39.2966 11.1279 39.2975 11.1381 39.2964 11.1482C39.2559 11.5141 39.2589 11.8865 39.3054 12.2654V14.7993C39.2596 15.4636 39.2596 16.128 39.3054 16.7923V37.4909L39.2773 39.5123C39.1301 40.68 38.5663 41.4343 37.5857 41.7752C37.2869 41.8793 36.8481 41.932 36.2692 41.9335C34.5108 41.9366 32.7528 41.9472 30.9952 41.9654H28.7709C27.1267 42.0406 26.1187 41.2886 25.7471 39.7094L25.7257 37.377L25.7279 35.1175L25.7257 32.7931V30.5439L25.7279 28.2571L25.7257 25.96V19.1554L25.7279 16.8925L25.7257 14.6L25.7291 12.2893L25.7606 11.18C25.7621 11.1345 25.785 11.1102 25.8293 11.1072L26.3879 11.0696ZM46.762 11.065L48.9119 11.0707L51.3231 11.065C52.0698 11.0924 52.6059 11.0479 53.3616 11.4477C53.7482 11.7225 54.0651 12.0805 54.3121 12.5216C54.6071 13.2471 54.552 13.9235 54.5655 14.6854V21.547L54.5621 22.9774C54.5621 22.9944 54.5555 23.0107 54.5437 23.0229C54.5319 23.035 54.5159 23.042 54.499 23.0423L52.9539 23.0617C52.9163 23.0624 52.8976 23.0814 52.8976 23.1186L52.8762 26.4725L52.8795 28.1318C52.8795 28.1781 52.9024 28.2017 52.9482 28.2024L53.4584 28.2115L54.5598 28.2753L54.5655 30.6578V35.1847L54.561 37.4522L54.5373 39.6547C54.2865 41.0054 53.5027 41.7585 52.1858 41.9142C51.9831 41.9381 51.6891 41.9142 51.4358 41.9654H46.7902C46.0747 41.9776 45.3614 41.9461 44.6504 41.8709L44.3733 41.79C42.8372 41.1534 42.6863 40.0567 42.6829 38.4134C42.6762 35.0435 42.603 31.6452 42.6525 28.2776C42.6533 28.2328 42.6315 28.2104 42.5872 28.2104L40.9902 28.2047L40.9869 26.0568L40.9857 23.7108L40.9891 23.1289C40.9891 23.1127 40.9954 23.0973 41.0065 23.0858C41.0177 23.0743 41.0329 23.0677 41.0488 23.0674L42.4543 23.0514C42.5121 23.0666 42.571 23.0658 42.6311 23.0491C42.6694 23.0385 42.6882 23.0131 42.6874 22.9728C42.6649 19.2731 42.6713 16.1215 42.7066 13.5181C42.7103 13.2478 42.7749 12.9631 42.9003 12.664C43.2149 11.9389 43.7434 11.4454 44.486 11.1835C45.239 11.0643 45.9977 11.0248 46.762 11.065ZM47.7778 19.2625L47.7767 21.4149V23.0218C47.7766 23.0304 47.7782 23.039 47.7814 23.047C47.7846 23.055 47.7894 23.0623 47.7955 23.0684C47.8015 23.0746 47.8088 23.0795 47.8168 23.0828C47.8248 23.0861 47.8334 23.0879 47.842 23.0879L49.332 23.0765C49.3618 23.0762 49.3903 23.0641 49.4113 23.0428C49.4324 23.0215 49.4443 22.9927 49.4446 22.9626L49.448 16.3424C49.448 16.3107 49.4356 16.2803 49.4134 16.2579C49.3912 16.2355 49.3611 16.2229 49.3298 16.2229H47.8364C47.7981 16.2229 47.779 16.2422 47.779 16.281L47.7778 19.2625ZM47.7801 30.5154V35.1847L47.761 36.6903C47.7602 36.7723 47.8004 36.8129 47.8815 36.8121L49.3624 36.7962C49.4172 36.7954 49.4446 36.7673 49.4446 36.7119L49.4626 28.3175C49.4626 28.2742 49.4409 28.2503 49.3973 28.2457L49.0989 28.2138L47.8319 28.2104C47.8173 28.2104 47.8032 28.2163 47.7929 28.2267C47.7825 28.2372 47.7767 28.2514 47.7767 28.2662L47.7801 30.5154ZM60.4454 11.065H67.0055C67.8359 11.0255 68.5566 11.3057 69.1678 11.9055L69.4482 12.2722C69.8469 13.0478 69.8266 13.6605 69.8255 14.6285L69.8221 16.8538L69.8255 19.1839C69.863 19.3312 69.8514 19.4561 69.7906 19.5586C69.7688 19.5965 69.7362 19.6155 69.6926 19.6155L68.4977 19.6349L67.037 19.6258L64.7857 19.6394L64.7204 19.1554L64.7227 16.9529V16.3151C64.7227 16.2986 64.7194 16.2823 64.7131 16.2671C64.7068 16.2519 64.6976 16.2381 64.6859 16.2265C64.6743 16.215 64.6605 16.2059 64.6453 16.1998C64.6302 16.1937 64.614 16.1907 64.5977 16.191L62.5288 16.2274L61.4105 16.2195C61.3685 16.2195 61.343 16.24 61.3339 16.281C61.2964 16.4586 61.3013 16.6222 61.3486 16.7718L61.3508 19.2123V23.7677L61.352 25.9566L61.3508 28.2662V35.0993L61.3542 36.7028C61.3542 36.7499 61.3779 36.7742 61.4252 36.7757L62.5852 36.803L64.6112 36.7973C64.6438 36.797 64.6751 36.7837 64.6981 36.7602C64.721 36.7368 64.7339 36.7051 64.7339 36.6721L64.7238 35.1187L64.7204 32.8216L64.7159 30.6225L64.7497 28.2958C64.7505 28.2571 64.7317 28.2377 64.6934 28.2377H63.0931C63.0766 28.2377 63.0609 28.2311 63.0493 28.2194C63.0377 28.2076 63.0311 28.1917 63.0311 28.1751L63.0739 23.1642C63.0739 23.1072 63.1021 23.0791 63.1584 23.0799L67.0179 23.0833C68.7387 23.0332 69.8582 24.2165 69.821 25.9418L69.8255 28.2947V37.3485L69.794 39.6729C69.5327 41.1716 68.634 41.9271 67.0978 41.9392L64.8849 41.954L63.4016 41.9563C62.3783 41.9123 61.3553 41.9153 60.3327 41.9654C59.5422 41.9768 58.5365 42.0349 57.8348 41.7285C56.7815 41.2685 56.2544 40.3661 56.2536 39.0215C56.2499 30.9083 56.2484 22.7948 56.2491 14.6809C56.2499 13.7614 56.3092 13.126 56.4271 12.7744C57.0634 10.8794 58.7853 11.0912 60.4454 11.065Z" fill="#E5E5E5"/>
<path d="M37.7442 43.8249C38.7931 43.8032 38.7218 44.2894 38.7591 45.2378C38.7893 46.0287 38.7765 47.7684 38.7207 50.4569C38.7014 51.3859 38.7693 52.5368 38.7286 53.5813C38.7784 54.2666 38.5396 54.8775 37.8256 55.0217C36.9386 54.918 36.0405 54.9317 35.1316 55.0629C34.7672 54.8958 34.4753 54.6575 34.2558 54.3478C34.2324 54.315 34.2215 54.2788 34.223 54.2392C34.2377 53.8982 34.1856 53.5436 34.1845 53.237C34.18 50.6316 34.1604 48.0262 34.1257 45.4208C34.1177 44.8465 34.0951 43.778 34.9222 43.7837C35.8629 43.7913 36.8035 43.8051 37.7442 43.8249ZM35.8817 48.5773C35.8742 48.7008 35.8946 49.0032 35.9428 49.4845C35.964 49.7003 35.953 50.0588 35.91 50.5599C35.8376 51.3996 35.9406 52.2519 35.884 53.1111C35.8832 53.1225 35.8848 53.1339 35.8885 53.1446C35.8922 53.1553 35.8981 53.1651 35.9057 53.1735C35.9133 53.1818 35.9226 53.1885 35.9329 53.1932C35.9431 53.1978 35.9542 53.2002 35.9655 53.2004L36.8661 53.2129C36.8768 53.2132 36.8874 53.2111 36.8972 53.2069C36.907 53.2027 36.9158 53.1964 36.923 53.1886C36.9303 53.1807 36.9358 53.1713 36.9393 53.1611C36.9427 53.151 36.944 53.1402 36.9431 53.1294C36.9057 52.6672 36.8311 52.2062 36.8503 51.7486C36.8956 50.6594 36.9397 49.5783 36.9476 48.4915L36.9736 45.4586C36.9736 45.4483 36.9716 45.4381 36.9676 45.4286C36.9636 45.4191 36.9578 45.4106 36.9505 45.4035C36.9432 45.3964 36.9345 45.391 36.9251 45.3875C36.9156 45.384 36.9056 45.3825 36.8956 45.3831L35.9349 45.4346C35.8972 45.4369 35.8784 45.4571 35.8784 45.4952L35.8817 48.5773ZM48.5895 53.2049C48.5827 53.241 48.5854 53.2782 48.5971 53.3129C48.6089 53.3476 48.6293 53.3787 48.6566 53.4031C48.6838 53.4275 48.7168 53.4444 48.7524 53.4522C48.7881 53.4599 48.8251 53.4583 48.8599 53.4475C49.1767 53.3483 49.5022 53.3335 49.8364 53.4029C49.8703 53.4097 49.8979 53.4273 49.919 53.4555C50.1136 53.7163 49.9903 54.5252 49.9484 54.8501C49.9424 54.8974 49.9156 54.9214 49.8681 54.9222L47.0722 54.9679C47.0376 54.9682 47.0043 54.9549 46.9794 54.9307C46.9545 54.9066 46.9398 54.8735 46.9387 54.8386C46.8561 52.0231 46.9364 49.2168 46.9025 46.4036C46.8991 46.0924 47.0054 45.7309 46.9579 45.3362C46.8998 44.8519 46.8983 44.3653 46.9534 43.8764C46.9594 43.8253 46.9877 43.799 47.0382 43.7974L48.5623 43.762C48.5958 43.7611 48.6282 43.7735 48.6526 43.7967C48.6769 43.8198 48.6913 43.8518 48.6925 43.8855C48.7355 45.3377 48.7551 46.7872 48.7513 48.2341C48.7513 48.3942 48.6936 48.5567 48.6936 48.7043C48.6906 49.9002 48.6902 51.0961 48.6925 52.292C48.6936 52.6112 48.6438 52.9098 48.5895 53.2049ZM28.6923 43.7963C28.9344 43.7803 29.1607 43.8238 29.3712 43.9267C29.8464 45.7275 30.2718 47.5305 30.6475 49.3358C30.6701 49.4426 30.6995 49.4448 30.7357 49.3426C30.7742 49.2343 30.813 49.0772 30.8523 48.8713C31.1653 47.2345 31.4908 45.578 31.8287 43.9016C31.8363 43.8652 31.8567 43.8329 31.886 43.8106C31.9153 43.7883 31.9517 43.7776 31.9883 43.7803L33.4072 43.8935C33.4402 43.8961 33.4711 43.9109 33.494 43.9351C33.517 43.9594 33.5304 43.9914 33.5316 44.0251C33.5893 45.4769 33.5316 47.2422 33.5373 48.3862C33.5486 50.5233 33.655 52.7187 33.4977 54.8501C33.4955 54.8815 33.4818 54.911 33.4593 54.9329C33.4367 54.9549 33.4069 54.9677 33.3755 54.9691L32.1003 55.0263C32.0469 55.0288 31.9948 55.0098 31.9551 54.9736C31.9155 54.9374 31.8916 54.8868 31.8887 54.8329C31.8118 53.4566 31.9249 52.0243 31.9023 50.6755C31.9015 50.6524 31.8924 50.6303 31.8767 50.6135C31.861 50.5967 31.8398 50.5863 31.817 50.5842C31.7942 50.5821 31.7715 50.5885 31.753 50.6021C31.7346 50.6157 31.7217 50.6357 31.7167 50.6583C31.4625 51.98 31.1344 53.2835 30.7323 54.5686C30.7282 54.5829 30.7195 54.5954 30.7076 54.6042C30.6957 54.6129 30.6812 54.6175 30.6665 54.6171C30.6518 54.6167 30.6376 54.6114 30.6262 54.602C30.6148 54.5926 30.6068 54.5797 30.6033 54.5652L29.4911 50.2693C29.4849 50.2458 29.4704 50.2254 29.4504 50.2118C29.4304 50.1982 29.4062 50.1924 29.3823 50.1955C29.3585 50.1986 29.3365 50.2103 29.3205 50.2285C29.3045 50.2467 29.2956 50.2701 29.2953 50.2945L29.2637 54.7711C29.2629 54.8062 29.2501 54.8363 29.2252 54.8615C29.1384 54.9485 29.0268 54.9908 28.8903 54.9885L27.8912 54.9508C27.8311 54.9481 27.7744 54.9226 27.7325 54.8794C27.6906 54.8363 27.6668 54.7787 27.666 54.7185L27.6411 53.0963V50.894C27.7097 50.0931 27.7192 49.2923 27.6694 48.4915L27.6162 46.1256L27.6377 43.929C27.9832 43.836 28.3347 43.7917 28.6923 43.7963ZM39.9223 43.7963H42.2701C42.8992 43.802 43.7184 43.7231 43.706 44.5239C43.6773 46.3788 43.6675 47.5942 43.6766 48.17C43.6788 48.3332 43.5925 48.5369 43.4175 48.7809C43.3994 48.8076 43.3767 48.829 43.3496 48.845L43.2839 48.885C43.2327 48.9155 43.2259 48.954 43.2636 49.0006L43.7377 49.5817C43.7671 49.6176 43.7818 49.6588 43.7818 49.7053C43.7856 50.3223 43.7773 51.7097 43.7569 53.8673C43.749 54.7471 43.2217 54.9061 42.4399 54.9107C41.6508 54.9168 40.872 54.9321 40.1033 54.9565L39.6564 54.9439C39.6149 54.9424 39.5938 54.9206 39.593 54.8787L39.5625 53.3365C39.5632 52.3152 39.553 51.2818 39.5319 50.2361C39.5251 49.9112 39.3113 49.7717 39.3 49.4856C39.2853 49.115 39.2321 48.4846 39.5116 48.2009C39.5395 48.1727 39.5534 48.1383 39.5534 48.0979L39.5206 43.8798C39.5199 43.8341 39.5421 43.8104 39.5874 43.8089L39.9223 43.7963ZM42.0484 45.3625C42.0484 45.3428 42.0407 45.3239 42.0272 45.3099C42.0136 45.296 41.9952 45.2881 41.9759 45.2881H41.3174C41.2691 45.2881 41.2427 45.3122 41.2382 45.3602C41.1477 46.2945 41.1405 47.2284 41.2167 48.162C41.2189 48.1875 41.2297 48.2115 41.2472 48.2299C41.2647 48.2482 41.2879 48.2598 41.3129 48.2627L41.9612 48.3347C42.0163 48.3408 42.0438 48.3157 42.0438 48.2592L42.0484 45.3625ZM42.0393 50.0333C42.0393 50.0169 42.036 50.0007 42.0298 49.9856C42.0235 49.9705 42.0144 49.9567 42.0029 49.9452C41.9914 49.9336 41.9778 49.9245 41.9628 49.9183C41.9478 49.9121 41.9317 49.9089 41.9155 49.9089L41.2842 49.9112C41.268 49.9113 41.2519 49.9146 41.237 49.9209C41.222 49.9272 41.2085 49.9365 41.1971 49.9481C41.1857 49.9597 41.1766 49.9735 41.1705 49.9886C41.1643 50.0038 41.1612 50.02 41.1613 50.0364L41.1726 53.3244C41.1726 53.3408 41.1759 53.357 41.1821 53.3721C41.1884 53.3872 41.1975 53.4009 41.209 53.4124C41.2205 53.424 41.2342 53.4331 41.2491 53.4393C41.2641 53.4455 41.2802 53.4487 41.2964 53.4486L41.9277 53.4463C41.9439 53.4463 41.96 53.443 41.9749 53.4367C41.9898 53.4303 42.0034 53.4211 42.0148 53.4095C42.0262 53.3979 42.0353 53.3841 42.0414 53.3689C42.0476 53.3538 42.0507 53.3375 42.0506 53.3212L42.0393 50.0333ZM51.2938 43.7963L53.5036 43.8615C53.8121 43.831 54.1048 43.8756 54.3816 43.9954L54.3703 45.3213C54.3703 45.3663 54.348 45.3903 54.3035 45.3934L53.6133 45.4357L52.3178 45.4323C52.2748 45.4323 52.2476 45.4533 52.2363 45.4952C52.2084 45.6028 52.2039 45.7149 52.2227 45.8316L52.122 48.2146C52.1205 48.2619 52.1431 48.2859 52.1899 48.2867L53.6156 48.2936L54.101 48.3119C54.141 48.3134 54.17 48.3324 54.1881 48.3691C54.2175 48.4278 54.2228 48.4991 54.204 48.583L54.1757 49.8403C54.1742 49.8853 54.1511 49.9086 54.1066 49.9101L53.0193 49.9547C52.7357 49.9021 52.4724 49.9311 52.2295 50.0416C52.1763 51.077 52.3325 51.871 52.2227 53.0802L52.2306 53.301C52.2321 53.3415 52.2529 53.3636 52.2929 53.3674C52.7153 53.4071 53.12 53.3968 53.507 53.3365C53.7416 53.4395 53.9433 53.4833 54.1123 53.4681C54.1348 53.466 54.1576 53.4687 54.179 53.4762C54.2004 53.4836 54.2201 53.4955 54.2367 53.5111C54.2534 53.5267 54.2666 53.5458 54.2756 53.5669C54.2845 53.5881 54.2891 53.6109 54.2888 53.634L54.2718 54.9061C54.2718 54.9603 54.2451 54.987 54.1915 54.9862L50.6782 54.9782C50.5492 54.9774 50.4844 54.9118 50.4836 54.7814C50.4783 53.5832 50.4874 52.3446 50.5108 51.0656C50.5289 50.1515 49.9711 49.3495 50.3139 48.3771C50.478 47.9114 50.5142 47.1392 50.4836 46.6461C50.4278 45.7553 50.4229 44.8484 50.4689 43.9256C50.7307 43.8196 51.0056 43.7765 51.2938 43.7963ZM46.0369 44.0583C46.0448 44.6578 46.1149 45.3019 46.1206 45.851C46.1462 48.0727 46.1545 50.2945 46.1455 52.5162C46.1421 53.1889 46.0866 54.063 46.0968 54.8421C46.0971 54.854 46.0927 54.8656 46.0844 54.8744C46.0762 54.8831 46.0648 54.8884 46.0527 54.889L44.6146 54.9599C44.5143 54.9645 44.4426 54.9214 44.3996 54.8306C44.3453 54.7155 44.3193 54.5759 44.3215 54.4119C44.3577 51.6387 44.3702 48.2352 44.3589 44.2013C44.3581 44.0518 44.3962 43.9366 44.4731 43.8558C44.9536 43.8436 45.4074 43.8318 45.8343 43.8203C45.9814 43.8158 46.0489 43.8951 46.0369 44.0583Z" fill="#E5E5E5"/>
</svg>
