<svg width="88" height="38" viewBox="0 0 88 38" fill="none" xmlns="http://www.w3.org/2000/svg">
<path fill-rule="evenodd" clip-rule="evenodd" d="M33.6042 0.452828L33.9379 0.468842L33.9491 19.0048L33.9604 37.5407L33.9603 18.9918L33.9602 0.442864L33.6153 0.439839L33.2704 0.436859L33.6042 0.452828ZM80.288 4.96031V6.69763L80.0398 6.42945C79.4012 5.73972 78.2795 5.57335 77.3256 6.02689C76.8748 6.2412 76.441 6.68905 76.2069 7.18186C75.9322 7.76017 75.8621 8.109 75.8627 8.89441C75.8633 9.69615 75.9414 10.0881 76.2055 10.6158C76.9642 12.1318 79.1021 12.4103 80.1179 11.1256L80.288 10.9103V11.3592V11.808H81.111H81.9339V7.51548V3.22298H81.111H80.288V4.96031ZM40.2099 7.78237V11.808H41.1218H42.0337V10.1671V8.52624L42.1905 8.49679C42.3996 8.45756 44.8991 8.47281 44.9652 8.51369C45.0037 8.53745 45.0139 8.96999 45.0044 10.1769L44.9917 11.808H45.9147L46.8377 11.808V7.78148V3.75494L45.9163 3.76699L44.9949 3.779L44.9904 3.89021C44.9879 3.95137 44.9822 4.68696 44.9777 5.52491L44.9695 7.04842H43.5016H42.0337V5.40259V3.75676H41.1218H40.2099V7.78237ZM1.17533 4.74648C1.16368 4.77709 1.15928 6.3734 1.16564 8.29391L1.17711 11.7857L13.6209 11.7969L26.0647 11.8082V8.24952V4.69088H13.6306C3.72436 4.69088 1.19224 4.70218 1.17533 4.74648ZM2.53319 6.08094C2.5323 6.55582 2.5121 6.6036 2.3122 6.6036C2.00052 6.6036 1.82561 6.86297 1.93869 7.15762C1.97854 7.26148 2.19241 7.35979 2.37848 7.35979H2.53892L2.53069 8.17158C2.52616 8.61809 2.51286 9.00842 2.50111 9.03898C2.48857 9.07167 2.40005 9.09458 2.28613 9.09458C2.04108 9.09458 1.91106 9.21815 1.91106 9.45106C1.91106 9.67022 2.04971 9.79606 2.3114 9.81443L2.51157 9.82853L2.52442 10.2289C2.5315 10.4491 2.54591 10.6542 2.55641 10.6848C2.57108 10.7276 2.87223 10.7404 3.85999 10.7404C5.08675 10.7404 5.14805 10.7444 5.22474 10.8291C5.40137 11.0243 5.76372 11.0218 5.98329 10.8239C6.06673 10.7487 6.18252 10.7408 7.36222 10.73L8.65006 10.7182L8.66274 10.2622L8.67541 9.80629H8.89302C9.07517 9.80629 9.1257 9.78716 9.20284 9.68908C9.32031 9.53975 9.32031 9.36112 9.20284 9.21179C9.12553 9.11349 9.07531 9.09458 8.89146 9.09458H8.6723V8.23297V7.37136L8.87523 7.34849C9.13709 7.31896 9.29505 7.17728 9.29505 6.97191C9.29505 6.74719 9.13113 6.6036 8.87447 6.6036H8.6723V6.18102V5.75844L7.48241 5.75889C6.32762 5.75929 6.2859 5.7624 6.06829 5.86373C5.94499 5.92116 5.78881 6.03383 5.72124 6.11412L5.59843 6.26006L5.4511 6.09922C5.16148 5.78304 5.03578 5.75844 3.70888 5.75844H2.53381L2.53319 6.08094ZM10.3502 5.78571C10.3325 5.80333 10.3181 5.99455 10.3181 6.21069V6.6036H10.1645C9.84653 6.6036 9.65477 6.80439 9.72096 7.06803C9.75855 7.21785 9.97824 7.35939 10.1736 7.35961L10.3181 7.35979V8.22719V9.09458H10.1279C9.78666 9.09458 9.63369 9.3056 9.75841 9.60417C9.82322 9.75927 9.88327 9.79081 10.1624 9.81634L10.2959 9.82853L10.3088 10.2496C10.317 10.5176 10.3413 10.6831 10.3755 10.7049C10.4051 10.7236 11.037 10.7393 11.7796 10.7397L13.1299 10.7404L13.262 10.8516C13.3632 10.9368 13.4447 10.9628 13.6098 10.9628C13.7749 10.9628 13.8563 10.9368 13.9575 10.8516L14.0897 10.7404H15.2493H16.409L16.4217 10.2845L16.4344 9.82853L16.6518 9.80358C16.9027 9.77475 17.0349 9.65047 17.0349 9.4435C17.0349 9.27073 16.8581 9.09458 16.6847 9.09458C16.4043 9.09458 16.4121 9.12025 16.4121 8.20019V7.35979H16.5866C16.9699 7.35979 17.1772 6.96426 16.9257 6.7128C16.8418 6.62886 16.7697 6.6036 16.6143 6.6036H16.4121V6.17822V5.75279L15.3112 5.76676C14.0837 5.78229 14.0448 5.79083 13.7526 6.10941L13.6064 6.26887L13.4927 6.12364C13.4302 6.04375 13.2958 5.93392 13.1941 5.87952C13.017 5.78482 12.9544 5.78011 11.6957 5.76716C10.9733 5.75978 10.3678 5.7681 10.3502 5.78571ZM18.093 6.1699L18.0802 6.58136L17.8717 6.60533C17.6022 6.63634 17.4793 6.74652 17.4811 6.95523C17.4834 7.21349 17.6511 7.35979 17.9448 7.35979H18.1044L18.0923 8.21606L18.0802 9.07234L17.88 9.08644C17.618 9.10486 17.4797 9.23061 17.4797 9.45044C17.4797 9.67027 17.618 9.79602 17.88 9.81443L18.0802 9.82853L18.1024 10.2733L18.1247 10.7182L19.5459 10.7299C20.8995 10.7411 20.9717 10.7459 21.0623 10.8311C21.2622 11.0189 21.6146 11.0101 21.8335 10.812C21.9002 10.7517 22.1066 10.7401 23.2873 10.73L24.6635 10.7182L24.6858 10.2733L24.708 9.82853L24.9254 9.80358C25.2806 9.76279 25.4226 9.47397 25.2163 9.21179C25.139 9.11349 25.0888 9.09458 24.9049 9.09458H24.6858V8.23297V7.37136L24.8887 7.34849C25.1505 7.31896 25.3085 7.17728 25.3085 6.97191C25.3085 6.74719 25.1446 6.6036 24.8879 6.6036H24.6858V6.18102V5.75844H23.4377C22.6662 5.75844 22.1144 5.77739 21.9924 5.80813C21.8751 5.83767 21.7123 5.93077 21.5905 6.03797L21.3858 6.21816L21.2777 6.08009C21.2116 5.99567 21.0743 5.9063 20.9244 5.85021C20.6973 5.76529 20.5833 5.75844 19.3924 5.75844H18.1058L18.093 6.1699ZM50.2399 5.81969C50.0437 5.85181 49.8035 5.90399 49.7061 5.93561C48.932 6.18667 48.421 6.72085 48.2671 7.43981C48.1826 7.83477 48.1231 7.80461 48.9859 7.80461H49.755L49.8061 7.61387C49.9209 7.1844 50.227 6.98579 50.7743 6.98556C51.154 6.98543 51.3149 7.04094 51.4955 7.23435C51.6163 7.36375 51.7407 7.82765 51.7222 8.08017L51.7085 8.26691L51.019 8.28092C49.9522 8.30254 49.2533 8.45088 48.7777 8.75652C48.2559 9.09187 48.0398 9.45804 48.0052 10.0654C47.9691 10.6975 48.1303 11.1176 48.5507 11.4877C49.2886 12.1372 50.8853 12.0599 51.5465 11.3426L51.7307 11.1427V11.4753V11.808H52.5314H53.3321L53.3314 9.70621C53.3307 7.38688 53.3192 7.26495 53.0562 6.77138C52.817 6.32265 52.3671 6.01048 51.7551 5.86854C51.3476 5.77406 50.6547 5.75168 50.2399 5.81969ZM67.4995 5.8116C66.8778 5.88184 66.2722 6.16038 65.927 6.53492C65.6573 6.82748 65.4311 7.34943 65.4311 7.67926V7.80461H66.2095C66.9646 7.80461 66.988 7.80185 66.988 7.71342C66.988 7.452 67.2792 7.11554 67.5836 7.02511C67.8648 6.94162 68.0699 6.9421 68.3555 7.02689C68.7376 7.1404 68.8999 7.41993 68.9004 7.96545L68.9007 8.23746L68.2446 8.26869C67.1567 8.32051 66.6635 8.41187 66.1506 8.6567C65.615 8.91229 65.2933 9.34297 65.2126 9.9122C65.0601 10.9892 65.6807 11.7663 66.8066 11.9084C67.5892 12.0072 68.2807 11.8095 68.7324 11.3577L68.9452 11.145V11.4765V11.808H69.7458H70.5465L70.5458 9.75069C70.5449 7.51983 70.5266 7.30365 70.2995 6.83935C69.9032 6.02947 68.8836 5.6552 67.4995 5.8116ZM57.6023 5.91106C57.1437 6.03868 56.769 6.3279 56.4932 6.76707L56.3585 6.98169L56.3577 6.45903C56.3572 6.17155 56.3418 5.93597 56.3235 5.93553C56.2427 5.93348 54.8589 5.93232 54.7888 5.93424C54.7155 5.93624 54.711 6.10665 54.711 8.87217V11.808H55.5311H56.3511L56.3651 10.1065C56.3788 8.43976 56.3811 8.40058 56.4814 8.1827C56.6033 7.91777 56.8068 7.69509 57.0338 7.57811C57.2412 7.47117 57.6999 7.3613 57.9425 7.36046L58.127 7.35979L58.1426 6.98169C58.1513 6.77374 58.1513 6.43346 58.1426 6.2255L58.127 5.84741L57.9647 5.85137C57.8755 5.85359 57.7124 5.88041 57.6023 5.91106ZM74.7945 5.90977C74.3298 6.05714 74.004 6.30486 73.7413 6.71058L73.5713 6.97324V6.45481V5.93637H72.7484H71.9255V8.87217V11.808H72.7484H73.5713V10.1702C73.5713 8.85967 73.5843 8.48852 73.6366 8.31255C73.8017 7.75643 74.2758 7.4415 75.0503 7.37331L75.3506 7.34689V6.59715V5.84741L75.1615 5.85039C75.0575 5.85203 74.8924 5.87877 74.7945 5.90977ZM59.5706 5.92627C59.1242 5.9329 58.7588 5.94611 58.7588 5.95559C58.7588 5.96502 59.0907 6.88032 59.4963 7.98961C59.9019 9.0989 60.3795 10.4068 60.5577 10.8961L60.8816 11.7857L61.8136 11.7977L62.7455 11.8097L63.7994 8.90638C64.379 7.30957 64.8532 5.98761 64.8531 5.96871C64.8529 5.9498 64.4992 5.9398 64.0669 5.94647L63.2811 5.95861L62.5925 8.02426L61.9041 10.0899L61.2225 8.06874C60.8477 6.9571 60.5404 6.02489 60.5396 5.99718C60.5373 5.91996 60.445 5.9132 59.5706 5.92627ZM11.4517 7.82685L11.4524 9.73957L12.1975 9.74121L12.9426 9.7429L12.2091 9.72903L11.4756 9.71519L11.4633 7.81466L11.4509 5.91413L11.4517 7.82685ZM11.2629 7.8958C11.2563 9.07136 11.2354 9.80878 11.2079 9.84205C11.1834 9.87159 11.1936 9.86968 11.2307 9.83774C11.2888 9.78756 11.2961 9.52921 11.2856 7.89148L11.2735 6.00309L11.2629 7.8958ZM8.10471 6.13956C8.17539 6.22359 8.18313 6.40992 8.19412 8.29693L8.20613 10.3623L8.21681 8.28968L8.22748 6.21705L8.1274 6.13231C8.02749 6.04775 8.02745 6.04775 8.10471 6.13956ZM8.02545 8.16046C8.02545 9.20023 8.03127 9.62561 8.03839 9.1057C8.04551 8.58584 8.04551 7.73513 8.03839 7.21522C8.03127 6.69536 8.02545 7.1207 8.02545 8.16046ZM15.7653 8.16046C15.7653 9.20023 15.7711 9.62561 15.7782 9.1057C15.7853 8.58584 15.7853 7.73513 15.7782 7.21522C15.7711 6.69536 15.7653 7.1207 15.7653 8.16046ZM78.459 7.10985C78.0488 7.25641 77.78 7.54746 77.6343 8.00277C77.539 8.30071 77.5052 9.11558 77.5737 9.46382C77.6721 9.96353 77.9198 10.3262 78.3026 10.5307C78.4552 10.6122 78.5585 10.629 78.9091 10.6291C79.2945 10.6292 79.3526 10.6176 79.5701 10.4972C80.0777 10.216 80.2845 9.80918 80.3214 9.01847C80.3708 7.96439 80.0763 7.33715 79.4302 7.11994C79.1767 7.03472 78.6836 7.0296 78.459 7.10985ZM14.3402 7.96029C14.3401 8.44959 14.3466 8.65581 14.3546 8.41859C14.3626 8.18137 14.3626 7.78103 14.3547 7.52895C14.3468 7.27688 14.3402 7.47099 14.3402 7.96029ZM20.2561 7.91581C20.2562 8.38065 20.2628 8.56476 20.2708 8.32496C20.2788 8.08515 20.2787 7.70483 20.2707 7.4798C20.2626 7.25477 20.2561 7.45098 20.2561 7.91581ZM2.43292 7.16878L2.66561 7.18644L2.67882 8.20726L2.69203 9.22807L2.69074 8.19387L2.68949 7.15962L2.44484 7.1554L2.20019 7.15112L2.43292 7.16878ZM50.7283 9.27215C50.0991 9.32735 49.7655 9.49581 49.6429 9.8203C49.5256 10.1307 49.6474 10.5144 49.9138 10.6737C50.138 10.8077 50.7805 10.8003 51.0852 10.6602C51.52 10.4602 51.6826 10.2042 51.7199 9.66097C51.7386 9.38705 51.7301 9.29942 51.6818 9.26882C51.6116 9.22442 51.2585 9.22567 50.7283 9.27215ZM67.8776 9.281C67.1543 9.33888 66.81 9.59416 66.8101 10.0725C66.8103 10.4913 67.05 10.7303 67.5119 10.7722C68.0738 10.8231 68.6056 10.589 68.797 10.2066C68.9212 9.95837 68.9745 9.35222 68.8791 9.27304C68.8167 9.22126 68.6031 9.22296 67.8776 9.281ZM2.68696 10.1065L2.68949 10.5402H3.86826H5.04703L5.05295 10.4395C5.05789 10.3556 5.05548 10.3538 5.03876 10.4284C5.01919 10.5154 4.9852 10.518 3.8668 10.518H2.71494L2.69968 10.0953L2.68438 9.67262L2.68696 10.1065ZM3.97039 9.75042C4.16109 9.75878 4.46134 9.75874 4.63762 9.75033C4.81386 9.74188 4.65782 9.73507 4.29084 9.73512C3.92387 9.73516 3.77966 9.74206 3.97039 9.75042ZM6.54829 9.75038C6.73787 9.75874 7.04818 9.75874 7.23776 9.75038C7.42734 9.74206 7.27223 9.73521 6.89303 9.73521C6.51382 9.73521 6.35871 9.74206 6.54829 9.75038ZM14.5345 9.75029C14.6884 9.75901 14.9286 9.75896 15.0683 9.75015C15.208 9.74135 15.0821 9.73423 14.7886 9.73432C14.495 9.73441 14.3807 9.74161 14.5345 9.75029ZM19.5792 9.75042C19.792 9.75856 20.1523 9.75861 20.3799 9.75051C20.6074 9.74241 20.4333 9.73574 19.9929 9.7357C19.5526 9.73565 19.3664 9.74228 19.5792 9.75042ZM22.426 9.75042C22.6389 9.75856 22.9992 9.75861 23.2267 9.75051C23.4543 9.74241 23.2801 9.73574 22.8398 9.7357C22.3994 9.73565 22.2132 9.74228 22.426 9.75042ZM3.54141 9.92862C3.52998 9.94699 3.73397 9.95673 3.99473 9.95028C4.83788 9.92951 4.92924 9.91189 4.23786 9.90348C3.86622 9.89895 3.5528 9.91024 3.54141 9.92862ZM6.59278 9.9283C6.78236 9.93667 7.09266 9.93667 7.28224 9.9283C7.47183 9.91999 7.31672 9.91314 6.93751 9.91314C6.5583 9.91314 6.40319 9.91999 6.59278 9.9283ZM11.7504 9.92835C11.9632 9.93649 12.3235 9.93653 12.5511 9.92844C12.7786 9.92034 12.6045 9.91367 12.1641 9.91362C11.7238 9.91358 11.5376 9.92021 11.7504 9.92835ZM14.5328 9.92817C14.6857 9.93689 14.9359 9.93689 15.0888 9.92817C15.2417 9.9195 15.1166 9.91238 14.8108 9.91238C14.505 9.91238 14.3799 9.9195 14.5328 9.92817ZM19.5347 9.92835C19.7476 9.93649 20.1079 9.93653 20.3354 9.92844C20.563 9.92034 20.3888 9.91367 19.9484 9.91362C19.5081 9.91358 19.3219 9.92021 19.5347 9.92835ZM22.4705 9.92835C22.6834 9.93649 23.0437 9.93653 23.2712 9.92844C23.4988 9.92034 23.3246 9.91367 22.8842 9.91362C22.4439 9.91358 22.2577 9.92021 22.4705 9.92835ZM20.8638 10.4172L20.8603 10.5167L19.5592 10.5292L18.2581 10.5416L19.5606 10.5521C20.671 10.5609 20.8668 10.5529 20.8882 10.4972C20.9019 10.4613 20.9029 10.4063 20.8903 10.3749C20.8777 10.3435 20.8657 10.3626 20.8638 10.4172ZM6.72889 10.5513C7.06673 10.5588 7.60718 10.5588 7.9299 10.5512C8.25257 10.5436 7.97616 10.5374 7.3156 10.5375C6.65505 10.5375 6.39101 10.5437 6.72889 10.5513ZM11.1299 10.5513C11.4908 10.5587 12.0813 10.5587 12.4421 10.5513C12.803 10.5438 12.5077 10.5377 11.786 10.5377C11.0643 10.5377 10.769 10.5438 11.1299 10.5513ZM14.6688 10.5512C14.9699 10.559 15.4503 10.5589 15.7363 10.5512C16.0224 10.5434 15.776 10.5372 15.1889 10.5372C14.6017 10.5372 14.3677 10.5435 14.6688 10.5512ZM22.6089 10.5513C22.9713 10.5587 23.5518 10.5587 23.8989 10.5512C24.2461 10.5438 23.9496 10.5376 23.2401 10.5376C22.5306 10.5377 22.2466 10.5438 22.6089 10.5513ZM42.4229 16.2893C42.6737 16.2973 43.084 16.2973 43.3348 16.2893C43.5855 16.2814 43.3804 16.2749 42.8788 16.2749C42.3773 16.2749 42.1721 16.2814 42.4229 16.2893ZM53.5653 20.1139L53.5545 23.0599L52.7427 23.073L51.9309 23.0863L52.744 23.0963C53.3612 23.104 53.5624 23.093 53.5785 23.0508C53.5902 23.0202 53.5944 21.6841 53.5879 20.0816L53.576 17.168L53.5653 20.1139ZM60.6933 20.1261L60.6938 23.0841L61.4945 23.0856L62.2951 23.0871L61.5059 23.0735L60.7167 23.0599L60.7047 20.1139L60.6928 17.168L60.6933 20.1261ZM63.7181 20.1261L63.7186 23.0841H64.5415H65.3644L65.3651 21.2826L65.3659 19.4811L65.3535 21.2715L65.3412 23.0619H64.5413H63.7414L63.7295 20.115L63.7176 17.168L63.7181 20.1261ZM65.3421 17.6351C65.3421 17.8879 65.3549 18.082 65.3705 18.0663C65.4014 18.0354 65.393 17.2264 65.3615 17.1948C65.3509 17.1841 65.3421 17.3823 65.3421 17.6351ZM72.9405 20.5152C73.5355 20.5223 74.4963 20.5223 75.0756 20.5152C75.655 20.5082 75.1682 20.5025 73.9939 20.5025C72.8195 20.5025 72.3455 20.5083 72.9405 20.5152ZM74.9613 21.2268C75.1754 21.2349 75.5257 21.2349 75.7398 21.2268C75.9539 21.2186 75.7787 21.2119 75.3506 21.2119C74.9224 21.2119 74.7473 21.2186 74.9613 21.2268ZM41.2441 23.0952C41.8252 23.1022 42.776 23.1022 43.357 23.0952C43.9381 23.0882 43.4626 23.0824 42.3006 23.0824C41.1385 23.0824 40.6631 23.0882 41.2441 23.0952ZM68.0245 23.0951C68.2643 23.1031 68.6446 23.103 68.8696 23.095C69.0947 23.0869 68.8985 23.0804 68.4336 23.0804C67.9688 23.0805 67.7847 23.0871 68.0245 23.0951ZM45.4254 28.5663C45.6639 28.5743 46.0543 28.5743 46.2928 28.5663C46.5313 28.5583 46.3362 28.5518 45.8591 28.5518C45.382 28.5518 45.1869 28.5583 45.4254 28.5663ZM52.0712 30.5904C52.0825 30.6088 52.4297 30.6238 52.8428 30.6238C53.2558 30.6238 53.603 30.6088 53.6143 30.5904C53.6256 30.5721 53.2785 30.5571 52.8428 30.5571C52.4071 30.5571 52.0599 30.5721 52.0712 30.5904ZM55.0358 34.349C55.2756 34.357 55.6559 34.3569 55.881 34.3489C56.106 34.3408 55.9098 34.3343 55.4449 34.3343C54.9801 34.3344 54.796 34.341 55.0358 34.349ZM58.9256 34.3489C59.152 34.357 59.5222 34.357 59.7486 34.3489C59.9749 34.3409 59.7897 34.3342 59.3371 34.3342C58.8845 34.3342 58.6993 34.3409 58.9256 34.3489ZM75.6508 34.3489C75.8771 34.357 76.2474 34.357 76.4737 34.3489C76.7001 34.3409 76.5149 34.3342 76.0623 34.3342C75.6097 34.3342 75.4245 34.3409 75.6508 34.3489Z" fill="#F0F0F0"/>
<path fill-rule="evenodd" clip-rule="evenodd" d="M33.2266 19.0131V37.5621H33.5825H33.9383V19.0131V0.464203H33.5825H33.2266V19.0131ZM0.221336 8.015C0.221603 12.3174 0.256788 13.8782 0.379959 15.0543C1.11609 22.0819 4.38528 28.1274 9.98728 32.8205C10.9423 33.6206 12.584 34.8143 13.4415 35.3323C13.64 35.4523 13.5751 35.4806 14.4775 34.88C17.3821 32.9466 19.9452 30.5372 21.8927 27.9095C24.6592 24.1768 26.3538 19.7893 26.8406 15.0987C26.9679 13.8722 26.9987 12.523 26.9989 8.14844L26.9991 3.75586H13.6101H0.221069L0.221336 8.015ZM1.17565 4.74558C1.164 4.77619 1.15959 6.37251 1.16595 8.29301L1.17743 11.7848L13.6212 11.796L26.065 11.8073V8.24862V4.68998H13.631C3.72468 4.68998 1.19255 4.70128 1.17565 4.74558ZM2.5335 6.08004C2.53261 6.55493 2.51242 6.6027 2.31252 6.6027C2.00083 6.6027 1.82593 6.86207 1.939 7.15672C1.97886 7.26059 2.19273 7.35889 2.3788 7.35889H2.53924L2.53101 8.17068C2.52648 8.61719 2.51318 9.00752 2.50143 9.03808C2.48889 9.07078 2.40037 9.09368 2.28645 9.09368C2.0414 9.09368 1.91138 9.21725 1.91138 9.45016C1.91138 9.66932 2.05003 9.79516 2.31172 9.81353L2.51189 9.82763L2.52474 10.228C2.53181 10.4482 2.54623 10.6534 2.55672 10.6839C2.5714 10.7267 2.87254 10.7395 3.86031 10.7395C5.08707 10.7395 5.14837 10.7435 5.22506 10.8282C5.40169 11.0234 5.76404 11.0209 5.98361 10.823C6.06705 10.7478 6.18284 10.7399 7.36254 10.7291L8.65038 10.7173L8.66306 10.2613L8.67574 9.80539H8.89334C9.07549 9.80539 9.12603 9.78627 9.20316 9.68818C9.32063 9.53886 9.32063 9.36022 9.20316 9.21089C9.12585 9.11259 9.07563 9.09368 8.89178 9.09368H8.67262V8.23207V7.37046L8.87555 7.34759C9.13741 7.31806 9.29537 7.17638 9.29537 6.97101C9.29537 6.74629 9.13145 6.6027 8.87479 6.6027H8.67262V6.18012V5.75754L7.48273 5.75799C6.32794 5.75839 6.28622 5.7615 6.06861 5.86283C5.94531 5.92026 5.78913 6.03293 5.72156 6.11322L5.59875 6.25917L5.45142 6.09832C5.1618 5.78214 5.0361 5.75754 3.7092 5.75754H2.53413L2.5335 6.08004ZM10.3505 5.78481C10.3329 5.80243 10.3185 5.99365 10.3185 6.20979V6.6027H10.1649C9.84685 6.6027 9.65509 6.80349 9.72128 7.06713C9.75887 7.21695 9.97857 7.35849 10.1739 7.35871L10.3185 7.35889V8.22629V9.09368H10.1282C9.78698 9.09368 9.63401 9.3047 9.75874 9.60327C9.82355 9.75838 9.8836 9.78991 10.1628 9.81545L10.2962 9.82763L10.3091 10.2487C10.3173 10.5167 10.3416 10.6822 10.3758 10.704C10.4055 10.7227 11.0373 10.7384 11.7799 10.7388L13.1302 10.7395L13.2624 10.8507C13.3635 10.9359 13.445 10.9619 13.6101 10.9619C13.7752 10.9619 13.8567 10.9359 13.9579 10.8507L14.09 10.7395H15.2497H16.4094L16.422 10.2836L16.4347 9.82763L16.6521 9.80268C16.903 9.77386 17.0352 9.64957 17.0352 9.4426C17.0352 9.26983 16.8584 9.09368 16.685 9.09368C16.4046 9.09368 16.4125 9.11935 16.4125 8.19929V7.35889H16.587C16.9702 7.35889 17.1775 6.96336 16.926 6.7119C16.8421 6.62796 16.77 6.6027 16.6146 6.6027H16.4125V6.17732V5.75189L15.3115 5.76586C14.084 5.78139 14.0451 5.78993 13.7529 6.10851L13.6067 6.26797L13.493 6.12274C13.4305 6.04285 13.2962 5.93302 13.1945 5.87862C13.0173 5.78392 12.9548 5.77921 11.6961 5.76626C10.9736 5.75888 10.3681 5.7672 10.3505 5.78481ZM18.0933 6.169L18.0805 6.58046L17.872 6.60443C17.6026 6.63544 17.4796 6.74562 17.4815 6.95433C17.4837 7.21259 17.6514 7.35889 17.9451 7.35889H18.1047L18.0926 8.21517L18.0805 9.07144L17.8804 9.08554C17.6183 9.10396 17.48 9.22971 17.48 9.44954C17.48 9.66937 17.6183 9.79512 17.8804 9.81353L18.0805 9.82763L18.1028 10.2725L18.125 10.7173L19.5463 10.729C20.8998 10.7402 20.972 10.745 21.0626 10.8302C21.2625 11.018 21.6149 11.0092 21.8339 10.8111C21.9005 10.7508 22.1069 10.7392 23.2877 10.7291L24.6639 10.7173L24.6861 10.2725L24.7083 9.82763L24.9258 9.80268C25.2809 9.76189 25.4229 9.47307 25.2166 9.21089C25.1393 9.11259 25.0891 9.09368 24.9053 9.09368H24.6861V8.23207V7.37046L24.889 7.34759C25.1509 7.31806 25.3088 7.17638 25.3088 6.97101C25.3088 6.74629 25.1449 6.6027 24.8883 6.6027H24.6861V6.18012V5.75754H23.4381C22.6666 5.75754 22.1147 5.77649 21.9928 5.80723C21.8754 5.83677 21.7126 5.92987 21.5908 6.03707L21.3861 6.21726L21.278 6.07919C21.212 5.99477 21.0746 5.9054 20.9247 5.84931C20.6976 5.76439 20.5836 5.75754 19.3927 5.75754H18.1061L18.0933 6.169ZM2.66757 6.35805V6.78063H2.42608C2.08121 6.78063 1.95591 6.91412 2.13379 7.092C2.19904 7.15725 2.28205 7.18096 2.44516 7.18096H2.66757V8.22629V9.27161H2.40224C2.18245 9.27161 2.12876 9.28687 2.08931 9.36057C2.0555 9.42378 2.0555 9.47529 2.08931 9.5385C2.12872 9.61212 2.18245 9.62747 2.40068 9.62747H2.66446L2.67713 10.0834L2.68981 10.5393H3.86858H5.04735L5.06158 10.4393L5.07577 10.3392H4.02738H2.97894V8.28402V6.22883L3.12111 6.08217L3.26327 5.93547H2.96542H2.66757V6.35805ZM3.64617 7.84819V9.76091H4.35931C4.8926 9.76091 5.11274 9.77773 5.23213 9.82763C5.53345 9.95352 5.51441 10.0601 5.51441 8.2471C5.51441 6.86536 5.50338 6.57343 5.446 6.43607C5.27448 6.02555 5.06563 5.93774 4.2578 5.93645L3.64617 5.93547V7.84819ZM6.24836 5.96741C6.11247 6.00042 5.87258 6.19649 5.7777 6.35209C5.6979 6.48291 5.69265 6.59634 5.69252 8.19293C5.69243 9.1399 5.70964 9.89436 5.73139 9.89436C5.75288 9.89436 5.84229 9.86433 5.93014 9.82763C6.05024 9.77746 6.27216 9.76091 6.8252 9.76091H7.56058V7.84819V5.93547L6.94895 5.94063C6.61258 5.94348 6.29729 5.95553 6.24836 5.96741ZM8.06682 6.08818L8.18332 6.24093V8.29003V10.3392H7.16024H6.13716V10.4504V10.5616H7.31593H8.49469V10.0967V9.63169L8.76808 9.61848C9.07225 9.60371 9.18287 9.51906 9.09035 9.3717C9.05423 9.31414 8.97021 9.29038 8.76808 9.2806L8.49469 9.26739V8.22415V7.18096H8.73619C8.9904 7.18096 9.11744 7.10877 9.11744 6.96429C9.11744 6.83049 9.01838 6.78063 8.75269 6.78063H8.49469V6.35805V5.93547H8.22251H7.95037L8.06682 6.08818ZM10.4964 6.35805V6.78063H10.2286C9.98613 6.78063 9.95588 6.79117 9.91011 6.89165C9.82839 7.071 9.96086 7.18096 10.2586 7.18096H10.4964V8.22415V9.26739L10.223 9.2806C10.0209 9.29038 9.93684 9.31414 9.90072 9.3717C9.8082 9.51906 9.91883 9.60371 10.223 9.61848L10.4964 9.63169V10.0967V10.5616H11.7864H13.0763V10.4504V10.3392H11.942H10.8078V8.27851V6.21789L10.919 6.1134C10.9801 6.05593 11.0302 5.99241 11.0302 5.97221C11.0302 5.95202 10.9101 5.93547 10.7633 5.93547H10.4964V6.35805ZM11.4411 7.83707L11.4527 9.73867L12.3424 9.76091C12.9348 9.77572 13.2645 9.80175 13.3292 9.83875C13.3826 9.86936 13.4483 9.89436 13.4752 9.89436C13.5102 9.89436 13.5205 9.4007 13.5115 8.16717L13.4989 6.43998L13.3706 6.27184C13.1507 5.98364 12.9834 5.93756 12.1528 5.93645L11.4296 5.93547L11.4411 7.83707ZM14.161 6.02057C14.0603 6.06629 13.9201 6.17937 13.8496 6.27184L13.7213 6.43998L13.7087 8.16717C13.7017 9.11712 13.7118 9.89404 13.7309 9.89369C13.7501 9.89333 13.8459 9.86415 13.9437 9.82892C14.0635 9.78578 14.3143 9.76416 14.711 9.76287L15.3004 9.76091V7.84819V5.93547L14.8222 5.93645C14.4517 5.93721 14.3028 5.95616 14.161 6.02057ZM15.8255 6.08217L15.9676 6.22883V8.28402V10.3392H15.0558H14.1439V10.4504V10.5616H15.1892H16.2345V10.0967V9.63169L16.5079 9.61848C16.8121 9.60371 16.9227 9.51906 16.8302 9.3717C16.7941 9.31414 16.71 9.29038 16.5079 9.2806L16.2345 9.26739V8.22415V7.18096H16.4599C16.7346 7.18096 16.8573 7.12145 16.8573 6.98813C16.8573 6.82996 16.7706 6.78063 16.4925 6.78063H16.2345V6.35805V5.93547H15.9589H15.6833L15.8255 6.08217ZM18.2807 6.35805V6.78063H18.0227C17.7447 6.78063 17.658 6.82996 17.658 6.98813C17.658 7.12154 17.7807 7.18096 18.0562 7.18096H18.2823L18.2704 8.21517L18.2585 9.24937L17.9808 9.26263C17.7277 9.27468 17.7006 9.28553 17.6755 9.38553C17.6335 9.55314 17.7238 9.62164 18.0064 9.6365L18.2585 9.64971L18.2711 10.1063L18.2838 10.5629L19.5834 10.5511L20.8829 10.5393L20.8971 10.4393L20.9113 10.3392H19.7295H18.5476V8.28402V6.22883L18.6898 6.08217L18.8319 5.93547H18.5563H18.2807V6.35805ZM19.2148 7.84819V9.76091H20.0614C20.7133 9.76091 20.9447 9.77626 21.0677 9.82763C21.1555 9.86433 21.3125 9.89436 21.4167 9.89436C21.5208 9.89436 21.6778 9.86433 21.7657 9.82763C21.8886 9.77626 22.1201 9.76091 22.7719 9.76091H23.6185V7.84819V5.93547L22.8957 5.93574C22.4982 5.93587 22.0998 5.95629 22.0104 5.98107C21.8411 6.02813 21.56 6.29809 21.5072 6.46432C21.4667 6.59189 21.3219 6.58517 21.289 6.45422C21.247 6.28701 21.0816 6.10846 20.8864 6.01981C20.7333 5.95028 20.5888 5.9373 19.9599 5.93645L19.2148 5.93547V7.84819ZM24.1436 6.08217L24.2858 6.22883V8.28402V10.3392H23.1292H21.9727V10.4504V10.5616H23.2404H24.5082V10.0967V9.63169L24.7815 9.61848C24.9837 9.6087 25.0677 9.58494 25.1038 9.52738C25.1963 9.38001 25.0857 9.29536 24.7815 9.2806L24.5082 9.26739V8.22415V7.18096H24.7335C25.0082 7.18096 25.1309 7.12145 25.1309 6.98813C25.1309 6.82996 25.0442 6.78063 24.7662 6.78063H24.5082V6.35805V5.93547H24.2548H24.0014L24.1436 6.08217ZM23.7965 7.87897V9.7783L23.916 9.90303C23.9817 9.97167 24.0518 10.0278 24.0717 10.0278C24.0915 10.0278 24.1078 9.19452 24.1078 8.17607V6.32433L23.9521 6.15201L23.7965 5.97969V7.87897ZM3.27591 6.1497L3.15589 6.27496L3.1675 8.15787L3.17911 10.0408L3.32368 9.91913L3.46825 9.79747V7.91096C3.46825 6.87337 3.45196 6.02444 3.43208 6.02444C3.4122 6.02444 3.34192 6.08079 3.27591 6.1497ZM7.73757 6.07132C7.73704 6.10668 7.73748 6.95566 7.7385 7.95793L7.74037 9.78026L7.85896 9.90401C7.92421 9.97211 7.99383 10.0278 8.01371 10.0278C8.0336 10.0278 8.04988 9.19101 8.04988 8.16828V6.30876L7.89419 6.15788C7.79713 6.0638 7.73815 6.0312 7.73757 6.07132ZM11.1052 6.14921L10.9857 6.27393V8.15316V10.0323L11.1414 9.91357L11.2971 9.79485V7.90962C11.2971 6.87279 11.2808 6.02444 11.2609 6.02444C11.241 6.02444 11.1709 6.08057 11.1052 6.14921ZM15.4783 7.89263V9.7783L15.5979 9.90303C15.6636 9.97167 15.7337 10.0278 15.7536 10.0278C15.7734 10.0278 15.7897 9.19101 15.7897 8.16828V6.30876L15.634 6.15788L15.4783 6.007V7.89263ZM18.8701 6.16865L18.7255 6.31779V8.17282C18.7255 9.19306 18.7418 10.0278 18.7617 10.0278C18.7816 10.0278 18.8519 9.97144 18.9179 9.90254L19.0379 9.77728L19.0263 7.89837L19.0147 6.01945L18.8701 6.16865ZM21.3166 6.87279C21.2445 6.90046 21.2165 6.94743 21.2165 7.04089C21.2165 7.21837 20.7833 8.63672 20.6744 8.81567L20.5865 8.96024H20.7923H20.9981L20.9695 8.80744C20.9537 8.72342 20.9643 8.5833 20.9931 8.49607C21.0453 8.3382 21.0466 8.33749 21.3072 8.33749H21.5689L21.6191 8.5236C21.6466 8.626 21.6579 8.76612 21.6441 8.83498C21.6191 8.96015 21.6193 8.96024 21.8626 8.96024C22.1029 8.96024 22.1688 8.90886 22.065 8.80233C22.0423 8.77906 21.9042 8.34265 21.7579 7.83253C21.6117 7.32237 21.4751 6.88907 21.4544 6.86968C21.4336 6.85029 21.3717 6.85166 21.3166 6.87279ZM22.5711 6.88552C22.2965 7.00944 22.1843 7.38758 22.3479 7.63739C22.3897 7.70113 22.5337 7.83805 22.6679 7.9416C23.001 8.19858 23.0847 8.31547 23.0847 8.52343C23.0847 8.64882 23.0543 8.72787 22.9755 8.80655C22.8532 8.92897 22.8278 8.93422 22.6627 8.8715C22.5831 8.8412 22.5104 8.74895 22.4331 8.58005C22.3709 8.44416 22.2969 8.34056 22.2686 8.3499C22.2386 8.35982 22.2119 8.48975 22.2042 8.66368L22.191 8.96051L22.3376 8.95432C22.4183 8.9509 22.5764 8.96317 22.689 8.98159C23.0815 9.04569 23.4109 8.76078 23.4109 8.35711C23.4109 8.11993 23.3163 7.97167 23.0487 7.78956C22.7086 7.55808 22.551 7.38353 22.551 7.2383C22.551 7.10179 22.6908 6.91407 22.7924 6.91407C22.8988 6.91407 23.0379 7.06495 23.1 7.24769C23.2097 7.57076 23.358 7.39919 23.2886 7.02937C23.2676 6.9171 23.2403 6.89085 23.1404 6.88649C23.0731 6.88356 22.948 6.86835 22.8623 6.85273C22.7666 6.8353 22.6544 6.84793 22.5711 6.88552ZM3.8241 6.89944C3.8241 6.91585 3.85217 6.96091 3.88646 6.99952C3.92076 7.03818 4.03063 7.43006 4.13058 7.87043C4.39075 9.01646 4.38955 9.01282 4.50396 8.99636C4.58816 8.98426 4.63598 8.86691 4.8813 8.07109C5.03583 7.56987 5.19143 7.11517 5.2271 7.06073C5.32781 6.90704 5.30615 6.86959 5.1167 6.86959C4.94255 6.86959 4.84887 6.92684 4.93543 6.98035C4.9603 6.9957 4.98058 7.05214 4.98049 7.10574C4.98036 7.21237 4.69732 8.16174 4.62967 8.28269C4.59257 8.34897 4.58212 8.34479 4.54066 8.24755C4.45846 8.05468 4.27181 7.06838 4.29828 6.96705C4.3223 6.87528 4.30913 6.86959 4.07395 6.86959C3.93651 6.86959 3.8241 6.88302 3.8241 6.89944ZM6.07235 6.911C6.05825 6.93378 6.0671 6.96496 6.09196 6.98035C6.15272 7.01789 6.15339 8.81149 6.09267 8.84903C5.95794 8.9323 6.10362 8.96024 6.67299 8.96024H7.29773L7.28461 8.67071C7.27736 8.51146 7.25312 8.37632 7.23065 8.37045C7.20823 8.36454 7.16144 8.44505 7.1267 8.54927C7.05153 8.77488 6.95442 8.8364 6.70261 8.81816L6.51525 8.80455V8.38197C6.51525 7.9815 6.52032 7.95868 6.61231 7.94556C6.67441 7.93675 6.72708 7.96478 6.75848 8.02341C6.85527 8.20431 6.93783 8.1339 6.93783 7.87043C6.93783 7.60657 6.90749 7.57623 6.78214 7.71475C6.59768 7.91856 6.49475 7.79686 6.49363 7.37366C6.49274 7.03706 6.51547 7.00304 6.7414 7.00304C6.95175 7.00304 7.03146 7.07754 7.08987 7.32869C7.14 7.54443 7.22598 7.43887 7.24022 7.14409L7.25343 6.86959H6.6757C6.35792 6.86959 6.0864 6.88823 6.07235 6.911ZM11.8817 6.9058C11.8395 6.93489 11.8362 6.9566 11.8706 6.97786C11.935 7.01772 11.9396 8.80931 11.8753 8.84903C11.8509 8.86416 11.8308 8.90335 11.8308 8.93617C11.8308 8.97941 11.9042 8.99582 12.0979 8.99582C12.381 8.99582 12.4499 8.96055 12.3419 8.87087C12.2534 8.79743 12.2445 7.98164 12.3321 7.98164C12.3632 7.98164 12.5032 8.21183 12.6433 8.49318C12.8902 8.98924 12.9023 9.00472 13.0427 9.00405C13.2874 9.0029 13.3205 8.95174 13.1955 8.76754C13.1353 8.67885 13.0088 8.45363 12.9144 8.26708C12.7491 7.94062 12.7459 7.92603 12.8291 7.87697C13.214 7.64962 13.2652 7.23394 12.9383 6.99209C12.8484 6.92559 12.7239 6.90166 12.3822 6.88529C12.1401 6.87368 11.9149 6.88289 11.8817 6.9058ZM19.4149 6.91412C19.3895 6.95531 19.3946 7.26761 19.4224 7.37068C19.452 7.48006 19.5026 7.43571 19.6164 7.20054C19.693 7.04227 19.7351 7.00112 19.8094 7.01175C19.9021 7.02497 19.9046 7.04543 19.9164 7.88947C19.924 8.43517 19.9118 8.77039 19.883 8.79912C19.7732 8.90895 19.8382 8.96024 20.0874 8.96024C20.3276 8.96024 20.3359 8.95637 20.3011 8.86015C20.2583 8.74179 20.2225 7.24853 20.2589 7.1033C20.3043 6.92243 20.4473 6.98026 20.5743 7.23087C20.7144 7.50728 20.7825 7.47152 20.7631 7.13172L20.7494 6.89183L20.0922 6.88685C19.7307 6.88409 19.4259 6.89637 19.4149 6.91412ZM14.3059 6.99192C14.3635 7.10948 14.3796 8.7868 14.3237 8.84272C14.2137 8.95272 14.2773 9.00472 14.522 9.00472C14.7484 9.00472 14.8294 8.95975 14.7222 8.89351C14.6948 8.87666 14.6777 8.51582 14.6777 7.9594C14.6777 7.40297 14.6948 7.04214 14.7222 7.02528C14.8299 6.95864 14.7478 6.91407 14.5172 6.91407C14.2948 6.91407 14.272 6.92252 14.3059 6.99192ZM12.2964 7.1045C12.2824 7.16028 12.277 7.33545 12.2844 7.49372C12.2977 7.77742 12.2998 7.78165 12.4313 7.79455C12.6075 7.81181 12.7176 7.72507 12.7598 7.53562C12.8278 7.23123 12.6933 7.00304 12.4459 7.00304C12.3539 7.00304 12.3152 7.02919 12.2964 7.1045ZM21.2841 7.49091C21.2267 7.58384 21.0857 8.12794 21.1093 8.16593C21.1393 8.21459 21.4708 8.21601 21.5007 8.16762C21.5231 8.13136 21.3759 7.5035 21.3356 7.46311C21.3239 7.45146 21.3008 7.464 21.2841 7.49091ZM3.44881 10.0236L3.31816 10.1612H4.20922C5.02422 10.1612 5.10673 10.1541 5.17581 10.0778C5.24699 9.99916 5.24676 9.99231 5.17159 9.95961C5.12773 9.94053 4.75155 9.91615 4.33564 9.90543L3.57945 9.88595L3.44881 10.0236ZM6.14601 9.93822C5.95852 9.98265 5.93343 10.0098 6.00282 10.0935C6.04988 10.1502 6.20868 10.1612 6.97497 10.1612H7.89081L7.73681 10.0296L7.58282 9.89796L6.93783 9.90072C6.58309 9.90223 6.22679 9.91909 6.14601 9.93822ZM11.2776 10.0242L11.147 10.1612H12.1454C13.0802 10.1612 13.1473 10.1558 13.197 10.0762C13.2807 9.94217 13.1795 9.9238 12.2534 9.90463L11.4083 9.88715L11.2776 10.0242ZM14.2551 9.9162C14.2306 9.92438 14.1556 9.9432 14.0884 9.95801C13.9794 9.98203 13.9721 9.99444 14.0213 10.0731C14.0728 10.1556 14.1262 10.1612 14.8552 10.16L15.634 10.1588L15.4783 10.0278C15.3253 9.89898 15.314 9.8968 14.8111 9.89907C14.5298 9.90032 14.2796 9.90806 14.2551 9.9162ZM19.0369 10.0227L18.8812 10.1576L19.9085 10.1594C20.8581 10.1611 20.9416 10.1549 21.0114 10.0778C21.0825 9.99916 21.0823 9.99226 21.0071 9.95899C20.9633 9.93955 20.537 9.91558 20.06 9.9057L19.1926 9.88773L19.0369 10.0227ZM21.9816 9.93822C21.7941 9.98265 21.769 10.0098 21.8384 10.0935C21.8859 10.1507 22.0549 10.161 22.9234 10.16L23.9521 10.1586L23.8069 10.0265L23.6616 9.89436L22.895 9.89889C22.4733 9.90143 22.0623 9.91909 21.9816 9.93822ZM5.36473 10.1645C5.2743 10.2356 5.24752 10.2959 5.24752 10.4281C5.24752 10.7478 5.62321 10.9016 5.85003 10.6748C5.99188 10.533 5.99192 10.343 5.85016 10.19C5.71649 10.0458 5.52824 10.0359 5.36473 10.1645ZM13.3635 10.1815C13.2946 10.2503 13.2543 10.3415 13.2543 10.4281C13.2543 10.5148 13.2946 10.606 13.3635 10.6748C13.4323 10.7436 13.5235 10.784 13.6101 10.784C13.6968 10.784 13.7879 10.7436 13.8568 10.6748C13.9256 10.606 13.966 10.5148 13.966 10.4281C13.966 10.3415 13.9256 10.2503 13.8568 10.1815C13.7879 10.1126 13.6968 10.0723 13.6101 10.0723C13.5235 10.0723 13.4323 10.1126 13.3635 10.1815ZM21.2003 10.1645C21.1109 10.2348 21.0831 10.2963 21.0831 10.4236C21.0831 10.7528 21.4532 10.9071 21.6856 10.6748C22.0072 10.3532 21.5592 9.88212 21.2003 10.1645ZM1.15563 12.8858C1.15661 13.2232 1.24993 14.5918 1.31261 15.1877C1.72278 19.0894 3.04424 22.7947 5.22176 26.1486C5.40588 26.432 5.5842 26.664 5.61814 26.664C5.73148 26.664 6.09552 26.2996 6.21255 26.069C6.40787 25.6842 6.40516 25.2789 6.20401 24.7851C6.17563 24.7155 6.19374 24.7172 6.38408 24.8014C6.69496 24.9389 7.28167 24.9079 7.57041 24.7387C7.84784 24.5761 8.11869 24.2567 8.20854 23.9861C8.30098 23.7079 8.27918 23.153 8.16744 22.9387C8.07977 22.7705 8.07652 22.7723 8.30022 22.8672C8.40502 22.9117 8.597 22.9408 8.79045 22.9414C9.31476 22.943 9.71141 22.6955 9.97292 22.2035C10.1163 21.9337 10.1163 21.3414 9.97292 21.0717C9.71092 20.5788 9.32401 20.3377 8.79481 20.3377C8.59771 20.3377 8.40391 20.3657 8.29951 20.4094C8.20516 20.4488 8.1214 20.481 8.11335 20.481C8.1053 20.481 8.13733 20.3959 8.18452 20.292C8.29435 20.05 8.30067 19.5572 8.19773 19.2546C8.09636 18.9565 7.70621 18.5663 7.40809 18.4649C7.10548 18.362 6.61267 18.3683 6.37069 18.4782C6.26669 18.5253 6.18164 18.56 6.18168 18.555C6.18168 18.5501 6.22172 18.4408 6.27065 18.3121C6.51819 17.6607 6.20935 16.8943 5.57406 16.5835C5.24725 16.4236 4.75573 16.4104 4.44022 16.5531L4.23342 16.6466L4.32692 16.4398C4.46913 16.1254 4.45641 15.6327 4.29774 15.3084C4.00123 14.7024 3.2945 14.3891 2.66437 14.5844C2.53159 14.6255 2.39623 14.6702 2.36363 14.6838C2.32088 14.7014 2.32608 14.6665 2.38226 14.5588C2.47972 14.3718 2.51949 13.7894 2.44934 13.5768C2.36572 13.3234 2.15051 13.0208 1.95132 12.8765C1.78652 12.7571 1.72878 12.7412 1.45989 12.7412H1.15519L1.15563 12.8858ZM8.43051 12.899C8.33087 13.4302 8.67498 14.0727 9.19644 14.3287C9.52997 14.4925 10.0544 14.506 10.3518 14.3585C10.4558 14.3069 10.5409 14.27 10.5409 14.2765C10.5409 14.283 10.5013 14.3756 10.4529 14.4823C10.3904 14.6199 10.3646 14.7741 10.3639 15.0138C10.3631 15.3022 10.3827 15.3909 10.4985 15.6226C10.6446 15.9151 10.8344 16.1078 11.1315 16.2654C11.3941 16.4046 12.033 16.4099 12.3027 16.2751L12.4853 16.1837L12.3987 16.3795C12.2603 16.6925 12.2831 17.1389 12.4554 17.489C12.9452 18.4839 14.3994 18.4211 14.8388 17.3861C14.9454 17.135 14.9385 16.6429 14.8247 16.3863L14.7349 16.1837L14.9176 16.2751C15.0618 16.3473 15.1845 16.3663 15.5006 16.3656C15.8477 16.3649 15.9313 16.3489 16.1288 16.2454C16.4122 16.097 16.6951 15.7814 16.7872 15.5109C16.8866 15.2191 16.8771 14.7241 16.7673 14.4823C16.7189 14.3756 16.6794 14.2824 16.6794 14.275C16.6794 14.2677 16.7645 14.3038 16.8684 14.3553C17.1668 14.5031 17.6921 14.4916 18.021 14.3301C18.5561 14.0673 18.8966 13.4372 18.7952 12.8972L18.766 12.7412H13.613H8.46013L8.43051 12.899ZM25.28 12.8734C25.0736 13.0252 24.8821 13.2838 24.7948 13.5284C24.7059 13.7778 24.7157 14.2135 24.8162 14.4781C24.8698 14.6189 24.8823 14.6953 24.8496 14.6814C24.5796 14.5669 24.2855 14.5122 24.0529 14.5333C23.3304 14.5988 22.8028 15.1841 22.8032 15.9196C22.8034 16.1393 22.8308 16.2949 22.8951 16.4398L22.9868 16.6466L22.78 16.5532C22.4646 16.4108 21.9835 16.4228 21.6542 16.5815C20.9425 16.9243 20.6853 17.7101 21.0223 18.5117C21.0366 18.5455 20.9658 18.5311 20.8366 18.474C20.547 18.3459 19.9929 18.3667 19.7041 18.5165C19.4117 18.6682 19.1936 18.8994 19.0582 19.2011C18.9551 19.4308 18.9411 19.5132 18.9549 19.8072C18.9657 20.037 19.001 20.208 19.0639 20.3341L19.1569 20.5209L19.0404 20.4606C18.8595 20.3671 18.4573 20.3087 18.2362 20.3439C17.8245 20.4096 17.4837 20.6505 17.2784 21.0212C17.1609 21.2333 17.1465 21.3011 17.1469 21.6376C17.1474 21.9432 17.1666 22.0516 17.2473 22.2035C17.5085 22.6949 17.9049 22.9425 18.4298 22.9422C18.6519 22.942 18.8088 22.9149 18.9503 22.8521L19.1529 22.7623L19.0618 22.945C19.0011 23.0669 18.9655 23.2409 18.9549 23.468C18.941 23.7641 18.9549 23.8437 19.0617 24.0818C19.2092 24.4106 19.5221 24.7112 19.8235 24.8139C20.1166 24.9138 20.6118 24.9049 20.853 24.7954C20.9753 24.7399 21.0372 24.7281 21.0225 24.763C20.824 25.2359 20.8214 25.669 21.0148 26.0644C21.1322 26.3042 21.4847 26.664 21.6023 26.664C21.7365 26.664 22.8114 24.8965 23.4416 23.6397C25.0355 20.4614 25.8579 17.2144 26.0471 13.3528L26.077 12.7412H25.7684C25.4961 12.7412 25.4386 12.7568 25.28 12.8734ZM61.1835 14.6631C60.7899 14.8007 60.5584 15.1578 60.5929 15.5739C60.6562 16.3371 61.6132 16.6601 62.1679 16.1054C62.5445 15.7288 62.5248 15.1953 62.121 14.8409C61.8769 14.6265 61.4952 14.5541 61.1835 14.6631ZM8.37468 14.7879C8.25365 14.8366 8.16459 15.0059 8.10045 15.3091C7.98186 15.8693 7.74277 16.1358 7.29524 16.2066C7.16669 16.2269 7.04285 16.2712 7.01994 16.305C6.99708 16.3388 6.98587 16.4713 6.99508 16.5993C7.01225 16.8387 7.11478 17.0115 7.23973 17.0115C7.31081 17.0115 7.61818 16.7153 7.7704 16.5C7.82226 16.4267 7.87689 16.3788 7.89179 16.3937C7.93996 16.4419 7.84077 16.6333 7.60906 16.9394C7.48456 17.104 7.38265 17.2855 7.38265 17.3428C7.38265 17.4644 7.65363 17.7232 7.78089 17.7232C7.90251 17.7232 8.03626 17.477 8.12091 17.0973C8.22892 16.6128 8.22478 16.6235 8.27398 16.7013C8.33976 16.8053 8.3238 17.0586 8.2278 17.434C8.17887 17.6253 8.13884 17.8163 8.13884 17.8583C8.13884 17.9653 8.3721 18.0516 8.57312 18.019C8.82199 17.9786 8.85611 17.902 8.76274 17.5935C8.65683 17.2437 8.61502 16.8758 8.66613 16.7428C8.71613 16.6127 8.73281 16.6468 8.80865 17.0337C8.87875 17.3913 9.0484 17.7232 9.16112 17.7232C9.26637 17.7232 9.54722 17.4847 9.58606 17.3624C9.60643 17.2982 9.55719 17.2049 9.40577 17.021C9.17531 16.7411 9.00566 16.4404 9.05281 16.3955C9.06958 16.3795 9.12603 16.4265 9.1782 16.4999C9.34986 16.7412 9.63797 17.0115 9.72364 17.0115C9.8856 17.0115 10.0377 16.6085 9.95646 16.3948C9.90183 16.2511 9.84258 16.2123 9.6764 16.2114C9.60461 16.2111 9.4592 16.1688 9.35328 16.1175C9.11402 16.0017 8.97844 15.7811 8.85006 15.2989C8.78596 15.058 8.71964 14.9107 8.64478 14.843C8.52299 14.7327 8.51547 14.7312 8.37468 14.7879ZM18.5773 14.8414C18.5003 14.911 18.435 15.0553 18.3702 15.2989C18.2418 15.7811 18.1062 16.0017 17.8669 16.1175C17.761 16.1688 17.6121 16.2108 17.5359 16.2108C17.3406 16.2108 17.2576 16.3125 17.2576 16.5518C17.2576 16.787 17.3738 17.0115 17.4955 17.0115C17.583 17.0115 17.8779 16.7373 18.0457 16.5C18.0976 16.4267 18.153 16.3797 18.169 16.3956C18.2139 16.4406 18.0414 16.747 17.814 17.0262C17.668 17.2055 17.6157 17.3043 17.635 17.365C17.6731 17.4852 17.9549 17.7232 18.0591 17.7232C18.1751 17.7232 18.3451 17.3834 18.416 17.01C18.4461 16.8518 18.4866 16.7047 18.506 16.6832C18.5864 16.5942 18.598 16.9776 18.525 17.3097C18.3892 17.9281 18.3892 17.9383 18.5235 17.9893C18.6795 18.0487 18.8285 18.0465 18.9681 17.9829C19.1 17.9228 19.1113 17.8192 19.0156 17.5479C18.9243 17.2892 18.8813 16.8206 18.9394 16.7172C18.9951 16.6178 19.0026 16.6345 19.0816 17.0368C19.1513 17.392 19.3059 17.697 19.425 17.7146C19.5548 17.7337 19.8376 17.4764 19.8376 17.3392C19.8376 17.2798 19.7561 17.1281 19.6564 17.0021C19.4477 16.738 19.2844 16.4378 19.3266 16.3956C19.3425 16.3797 19.398 16.4267 19.4498 16.5C19.602 16.7153 19.9094 17.0115 19.9805 17.0115C20.1047 17.0115 20.208 16.8382 20.228 16.5962C20.2511 16.3179 20.1765 16.2108 19.9596 16.2108C19.8835 16.2108 19.7345 16.1688 19.6286 16.1175C19.3877 16.001 19.2369 15.7555 19.1181 15.2868C19.0702 15.0978 18.9973 14.9101 18.9561 14.8699C18.8233 14.7401 18.6996 14.7308 18.5773 14.8414ZM40.2103 19.0343V23.0659L42.6012 23.0502C45.2512 23.0328 45.2073 23.0372 45.8437 22.7266C46.552 22.3808 46.9284 21.7102 46.9264 20.7975C46.9242 19.8401 46.4957 19.2486 45.6016 18.969L45.3659 18.8953L45.6987 18.7308C46.3001 18.4336 46.5622 18.005 46.6045 17.2493C46.6677 16.1211 46.1464 15.4325 45.004 15.1357C44.6572 15.0455 44.5097 15.039 42.4232 15.0213L40.2103 15.0026V19.0343ZM7.53424 15.249C7.50315 15.3301 7.65417 15.7716 7.71626 15.7813C7.77885 15.791 7.96603 15.4064 7.95108 15.2989C7.94125 15.2284 7.89931 15.2071 7.74922 15.1962C7.6128 15.1864 7.55261 15.2012 7.53424 15.249ZM9.00041 15.2535C8.96776 15.3386 9.09582 15.6927 9.18652 15.7679C9.23972 15.812 9.26339 15.7915 9.32312 15.6491C9.36289 15.5544 9.3979 15.4168 9.40097 15.3434C9.40626 15.2171 9.39639 15.2092 9.21712 15.1962C9.0759 15.186 9.02074 15.2006 9.00041 15.2535ZM17.8096 15.249C17.7785 15.3301 17.9295 15.7716 17.9916 15.7813C18.0542 15.791 18.2413 15.4064 18.2264 15.2989C18.2166 15.2284 18.1746 15.2071 18.0245 15.1962C17.8881 15.1864 17.8279 15.2012 17.8096 15.249ZM19.2747 15.2561C19.2212 15.3957 19.474 15.8864 19.5424 15.7757C19.6076 15.6702 19.7076 15.3054 19.6865 15.2503C19.6522 15.161 19.3094 15.1659 19.2747 15.2561ZM41.9895 17.2996V18.354L43.0682 18.3388C44.1455 18.3237 44.1472 18.3235 44.4004 18.1992C44.743 18.0309 44.8458 17.8601 44.8712 17.4162C44.8819 17.2303 44.8682 16.9953 44.8409 16.8939C44.781 16.6727 44.5191 16.4184 44.2724 16.342C44.1724 16.3111 43.6674 16.2804 43.046 16.2673L41.9895 16.2452V17.2996ZM56.3349 17.1247C55.6559 17.2719 55.0764 17.6793 54.8508 18.168C54.7627 18.3587 54.7337 18.5045 54.719 18.8291C54.6942 19.3804 54.7855 19.6937 55.0597 19.9988C55.3817 20.3569 55.8254 20.5386 56.7844 20.7049C57.7516 20.8727 58.0475 21.0404 58.0475 21.4208C58.0475 21.8485 57.7627 22.051 57.1578 22.0533C56.544 22.0557 56.2619 21.8771 56.1325 21.404L56.0869 21.2372H55.3273H54.5678L54.5991 21.4485C54.725 22.2994 55.2294 22.8372 56.1379 23.0893C56.5457 23.2024 57.7281 23.2048 58.1364 23.0932C58.7879 22.9152 59.2357 22.5773 59.4621 22.0929C59.5714 21.859 59.5814 21.7913 59.5818 21.2817C59.5821 20.792 59.5696 20.698 59.477 20.4932C59.2192 19.9231 58.6986 19.657 57.4025 19.433C56.7155 19.3143 56.4323 19.2218 56.3078 19.0752C56.074 18.7997 56.2594 18.3538 56.6641 18.2185C56.8923 18.1422 57.288 18.1583 57.495 18.2523C57.6982 18.3446 57.8402 18.5031 57.9216 18.7283L57.9764 18.8797H58.7176H59.4588L59.4174 18.6462C59.2907 17.9325 58.8454 17.4398 58.1161 17.2064C57.6565 17.0593 56.8146 17.0207 56.3349 17.1247ZM66.6607 17.1265C66.166 17.2462 65.7122 17.5628 65.4225 17.9901C65.3493 18.0981 65.3471 18.0883 65.3448 17.6453L65.3425 17.1894H64.5418H63.7412V20.1252V23.061H64.5396H65.3381L65.3514 21.1816C65.3646 19.3276 65.3661 19.2992 65.4672 19.0799C65.591 18.8111 65.7497 18.6369 65.9875 18.5088C66.1342 18.4297 66.24 18.4129 66.5912 18.4128C66.9815 18.4126 67.0326 18.4229 67.202 18.535C67.3037 18.6023 67.4324 18.7424 67.4879 18.8464C67.588 19.0337 67.5889 19.0528 67.6017 21.0482L67.6145 23.061H68.4357H69.2569L69.2554 21.0482C69.2537 18.8691 69.2291 18.5623 69.019 18.1035C68.857 17.7495 68.6916 17.552 68.3985 17.3624C67.9577 17.0772 67.2572 16.9821 66.6607 17.1265ZM72.6537 17.1017C72.057 17.2088 71.4997 17.4998 71.0845 17.9208C70.5351 18.4779 70.2843 19.0927 70.2469 19.9739C70.22 20.606 70.275 20.9832 70.4638 21.4607C70.7787 22.2576 71.4138 22.8111 72.3124 23.0715C72.6078 23.1571 72.7629 23.172 73.3492 23.1711C73.9284 23.1702 74.0944 23.1541 74.3867 23.0703C75.0275 22.8866 75.4565 22.6021 75.7453 22.1696C75.8981 21.9408 76.1071 21.4252 76.1071 21.277C76.1071 21.2552 75.7593 21.2372 75.3343 21.2372H74.5614L74.5352 21.3682C74.5208 21.4402 74.4232 21.5885 74.3183 21.6977C74.0667 21.9596 73.7513 22.0565 73.2421 22.0285C72.5375 21.9896 72.0801 21.5924 71.9313 20.8903C71.8342 20.4324 71.5861 20.481 74.0197 20.481H76.158L76.1268 19.9584C76.0363 18.4398 75.4383 17.573 74.2166 17.1892C73.8631 17.0781 73.0411 17.0321 72.6537 17.1017ZM78.7578 17.1261C78.0694 17.2804 77.5196 17.6649 77.275 18.1631C77.1628 18.3915 77.1524 18.456 77.1524 18.9242C77.1524 19.3667 77.1666 19.4671 77.2576 19.6682C77.5062 20.2182 78.043 20.5047 79.1986 20.7046C79.8783 20.8222 80.1257 20.9029 80.3147 21.0688C80.4487 21.1865 80.4663 21.2274 80.4663 21.4213C80.4663 21.857 80.1894 22.0536 79.5724 22.0557C79.2499 22.0568 79.1561 22.0395 78.9733 21.9454C78.7464 21.8287 78.6067 21.6459 78.5565 21.4L78.5278 21.2595L77.7594 21.2473L76.991 21.2351L77.0219 21.4475C77.1016 21.9949 77.3775 22.4575 77.791 22.7372C78.2155 23.0244 78.678 23.1541 79.3765 23.1821C81.0943 23.2509 82.037 22.5702 82.0392 21.2595C82.04 20.7759 81.9313 20.4479 81.6761 20.164C81.3373 19.7872 80.8557 19.6008 79.7324 19.4115C79.0689 19.2997 78.8548 19.2264 78.7307 19.0687C78.6088 18.9138 78.6129 18.618 78.7392 18.4575C78.9386 18.204 79.4648 18.0905 79.8481 18.2184C80.0581 18.2885 80.2812 18.5116 80.3411 18.7116L80.3915 18.8797H81.1414H81.8914L81.8639 18.7574C81.7869 18.4153 81.7391 18.264 81.6568 18.1015C81.4278 17.6494 81.0971 17.3875 80.5217 17.2025C80.0733 17.0583 79.2241 17.0215 78.7578 17.1261ZM84.6065 17.1013C83.7965 17.2726 83.2736 17.6278 83.0184 18.1803C82.9019 18.4326 82.8907 18.5004 82.8914 18.9464C82.8921 19.3462 82.9091 19.4723 82.9845 19.6359C83.2622 20.2386 83.7357 20.4879 85.0576 20.7274C85.8384 20.8689 86.109 20.9941 86.1937 21.2532C86.2725 21.494 86.2014 21.7349 86.0082 21.8823C85.7024 22.1155 84.9854 22.127 84.6254 21.9045C84.4702 21.8086 84.2918 21.5036 84.2918 21.3344C84.2918 21.2382 84.284 21.2372 83.5134 21.2372C83.0852 21.2372 82.7353 21.2522 82.7357 21.2706C82.7361 21.289 82.7646 21.4367 82.799 21.5989C82.9625 22.3704 83.4619 22.8559 84.3363 23.0936C84.5563 23.1534 84.7954 23.1722 85.3371 23.1722C85.9601 23.1722 86.0903 23.1592 86.3819 23.0676C86.9541 22.888 87.2404 22.6978 87.4906 22.3313C87.6998 22.0247 87.7823 21.7114 87.7787 21.2372C87.7705 20.152 87.2091 19.6867 85.604 19.4349C84.6439 19.2843 84.3807 19.1426 84.3807 18.7763C84.3807 18.5232 84.5242 18.339 84.8044 18.2319C85.0693 18.1308 85.5556 18.1616 85.7683 18.293C85.9206 18.3871 86.1155 18.6762 86.1155 18.8079C86.1155 18.8712 86.2057 18.8797 86.8737 18.8797H87.632L87.6011 18.7129C87.4461 17.8766 86.9953 17.3974 86.138 17.1578C85.8638 17.0812 84.8741 17.0447 84.6065 17.1013ZM48.0835 19.274C48.0835 20.4205 48.1022 21.457 48.125 21.5774C48.3143 22.5752 48.9262 23.1235 49.9169 23.1832C50.3724 23.2107 50.7621 23.145 51.1056 22.9829C51.3401 22.8722 51.7269 22.5317 51.8758 22.3048C51.9462 22.1976 51.9489 22.2093 51.9512 22.6273L51.9535 23.061H52.7541H53.5548V20.1252V17.1894H52.7541H51.9535V19.0273C51.9535 21.0001 51.9406 21.1342 51.7192 21.4626C51.4779 21.8207 50.9343 22.0148 50.4547 21.9142C50.1438 21.849 49.9453 21.6987 49.8118 21.4275C49.7073 21.2153 49.7071 21.2125 49.6935 19.2022L49.6799 17.1894H48.8817H48.0835V19.274ZM60.7164 20.1252V23.061H61.5171H62.3177V20.1252V17.1894H61.5171H60.7164V20.1252ZM72.8246 18.2493C72.695 18.2957 72.5159 18.3927 72.4266 18.4651C72.2304 18.6239 71.986 19.054 71.9446 19.3134L71.9144 19.5024H73.2323C74.0358 19.5024 74.5503 19.4859 74.5503 19.4601C74.5503 19.3373 74.4401 18.9263 74.3707 18.7907C74.2642 18.5824 74.0328 18.3665 73.8215 18.2783C73.5455 18.1633 73.1013 18.1503 72.8246 18.2493ZM41.9895 20.6584V21.822L43.1572 21.8071C44.1624 21.7943 44.3496 21.7812 44.5028 21.7126C44.9224 21.5246 45.1103 21.2 45.1103 20.6627C45.1103 20.1083 44.9453 19.8247 44.5086 19.6289C44.2931 19.5322 44.2163 19.5256 43.1349 19.5106L41.9895 19.4947V20.6584ZM13.3695 19.7805C13.3338 19.8355 13.2738 20.0149 13.236 20.1791C13.0739 20.8839 12.7784 21.1915 12.2623 21.1925C12.0111 21.193 11.9538 21.6361 12.1659 21.9378C12.2046 21.9928 12.2648 22.0379 12.2996 22.0379C12.3714 22.0379 12.6871 21.7381 12.8618 21.5041C12.9258 21.4185 12.9915 21.3615 13.008 21.3775C13.0539 21.4218 12.877 21.7393 12.6537 22.0134C12.5436 22.1485 12.4536 22.3014 12.4536 22.3531C12.4536 22.5033 12.7377 22.7586 12.8859 22.7416C13.0365 22.7243 13.1806 22.4684 13.2539 22.0883C13.345 21.6159 13.3456 21.6141 13.3901 21.6844C13.4526 21.7832 13.4397 22.169 13.3649 22.4397C13.2451 22.8727 13.2392 22.9487 13.3204 23.016C13.4267 23.1042 13.8157 23.0968 13.9077 23.0049C13.9757 22.9368 13.9741 22.9035 13.8845 22.5382C13.7839 22.1282 13.7618 21.7924 13.8283 21.6873C13.8734 21.6162 13.8818 21.6394 13.9657 22.0632C14.043 22.4536 14.189 22.724 14.3317 22.741C14.484 22.7591 14.7666 22.5156 14.7666 22.3663C14.7666 22.3048 14.6785 22.1509 14.5599 22.0053C14.3545 21.753 14.1723 21.4163 14.2171 21.3717C14.23 21.3589 14.3031 21.4285 14.3795 21.5264C14.6049 21.8149 14.859 22.0437 14.9378 22.0292C14.9782 22.0218 15.0594 21.9186 15.1182 21.8001C15.206 21.6228 15.2179 21.5564 15.1849 21.4263C15.1381 21.2421 15.0854 21.2068 14.8032 21.1705C14.3879 21.1172 14.1611 20.8485 14.0017 20.2212C13.8835 19.7557 13.8289 19.6804 13.6101 19.6804C13.4766 19.6804 13.4187 19.7045 13.3695 19.7805ZM12.6208 20.1785C12.5901 20.2689 12.7664 20.7479 12.8303 20.7479C12.8985 20.7479 13.0877 20.3285 13.0674 20.222C13.0493 20.1266 12.6516 20.0879 12.6208 20.1785ZM14.1655 20.1706C14.0964 20.2825 14.3576 20.8159 14.4408 20.7328C14.4951 20.6784 14.6353 20.2091 14.6096 20.1675C14.5745 20.1106 14.201 20.1133 14.1655 20.1706ZM8.28145 25.009C8.23755 25.0529 8.15565 25.2628 8.09947 25.4755C7.94183 26.0724 7.73152 26.3105 7.30601 26.3738C7.02466 26.4157 6.98227 26.4588 6.98249 26.7028C6.98267 26.9261 7.11447 27.1978 7.2226 27.1978C7.25761 27.1978 7.42806 27.0439 7.60137 26.8559C7.77462 26.6678 7.91643 26.5384 7.91643 26.5685C7.91643 26.6637 7.75082 26.9456 7.5636 27.1693C7.46409 27.2881 7.38265 27.4288 7.38265 27.4819C7.38265 27.6149 7.49488 27.7628 7.66084 27.8486C7.79669 27.9189 7.80274 27.9177 7.90122 27.8033C8.00668 27.6807 8.18332 27.1749 8.18332 26.9956C8.18332 26.8468 8.26437 26.8171 8.29857 26.9534C8.33229 27.0878 8.30191 27.3251 8.19782 27.7398C8.13626 27.985 8.13332 28.0494 8.18092 28.1068C8.25988 28.2019 8.66048 28.2012 8.7659 28.1058C8.83707 28.0414 8.83841 28.0169 8.78098 27.8278C8.67832 27.4896 8.6208 27.11 8.65123 26.9715C8.69193 26.7862 8.74522 26.8116 8.77613 27.031C8.82003 27.343 8.93622 27.6783 9.0436 27.8032C9.14204 27.9176 9.1484 27.9188 9.28327 27.8491C9.42027 27.7782 9.60674 27.5607 9.60674 27.4716C9.60674 27.4463 9.52974 27.3367 9.43566 27.228C9.23799 26.9995 9.09751 26.7783 9.04938 26.6195C9.02572 26.5415 9.11531 26.6129 9.34973 26.8588C9.54082 27.0593 9.7099 27.2005 9.7449 27.1888C9.84636 27.155 9.97385 26.8919 9.9787 26.7065C9.98448 26.4869 9.90428 26.4049 9.64967 26.3698C9.37619 26.3321 9.22647 26.2462 9.07847 26.0418C8.96073 25.8793 8.93044 25.7965 8.80473 25.2938C8.72164 24.9615 8.46738 24.8231 8.28145 25.009ZM18.55 25.0158C18.5023 25.0635 18.4422 25.1886 18.4164 25.2938C18.2201 26.0944 18.0634 26.2943 17.569 26.3747C17.299 26.4185 17.2576 26.4622 17.2578 26.7028C17.258 26.9261 17.3898 27.1978 17.4979 27.1978C17.5329 27.1978 17.7056 27.0427 17.8817 26.8531C18.1061 26.6114 18.1921 26.5416 18.1695 26.6195C18.1238 26.7765 17.9839 26.9976 17.7846 27.228C17.6905 27.3367 17.6135 27.4463 17.6135 27.4716C17.6135 27.5595 17.7991 27.7778 17.9324 27.8467C18.0553 27.9102 18.0734 27.9097 18.1504 27.84C18.2576 27.7429 18.4014 27.3598 18.4401 27.0681C18.4743 26.8103 18.5317 26.7739 18.5688 26.9865C18.5955 27.1399 18.5531 27.4384 18.4546 27.7891C18.3718 28.0839 18.4209 28.1504 18.7342 28.1673C19.0819 28.186 19.1221 28.1265 19.0243 27.7387C18.9188 27.3207 18.8882 27.0866 18.9216 26.9534C18.9628 26.7896 19.0214 26.8506 19.0581 27.0954C19.1007 27.3792 19.2425 27.7471 19.3452 27.84C19.4223 27.9098 19.4401 27.9103 19.5639 27.8463C19.8558 27.6954 19.9111 27.4629 19.7098 27.2327C19.5353 27.0331 19.3038 26.6611 19.3038 26.5803C19.3038 26.5437 19.4456 26.6678 19.6189 26.8559C19.7922 27.0439 19.9626 27.1978 19.9976 27.1978C20.1057 27.1978 20.2376 26.9261 20.2377 26.7028C20.2379 26.4588 20.1956 26.4157 19.9142 26.3738C19.4887 26.3105 19.2784 26.0724 19.1207 25.4755C19.0646 25.2628 18.9827 25.0529 18.9388 25.009C18.8341 24.9044 18.6583 24.9075 18.55 25.0158ZM13.1966 25.0797C12.8063 25.2251 12.4979 25.5331 12.3717 25.9033C12.2989 26.117 12.3074 26.6364 12.3869 26.8266C12.4745 27.0362 12.476 27.0339 12.309 26.9465C12.2215 26.9007 12.022 26.863 11.8036 26.8511C11.483 26.8336 11.413 26.8448 11.1753 26.9515C10.8721 27.0875 10.641 27.3053 10.4891 27.5981C10.3389 27.8876 10.3184 28.441 10.447 28.7318C10.5307 28.921 10.5322 28.9386 10.4625 28.9096C10.42 28.8919 10.2969 28.8498 10.1891 28.816C9.43059 28.5787 8.59905 29.0819 8.4499 29.8684L8.40444 30.1081L8.7498 30.4578C9.85842 31.5803 11.4968 32.9239 13.0431 33.9785L13.6104 34.3655L14.2441 33.9332C15.7357 32.9157 17.368 31.5748 18.4524 30.4764L18.8241 30.0998L18.7731 29.862C18.681 29.4325 18.4177 29.0972 18.0014 28.8793C17.735 28.7398 17.1399 28.7357 16.8684 28.8714C16.7645 28.9234 16.6794 28.961 16.6794 28.9549C16.6794 28.9489 16.7215 28.8485 16.7731 28.732C16.91 28.4227 16.8968 27.9247 16.7436 27.6113C16.5987 27.3151 16.2534 27.0035 15.963 26.9071C15.6657 26.8084 15.168 26.8317 14.9176 26.9561L14.7349 27.0469L14.8247 26.8443C14.8874 26.7028 14.9146 26.5459 14.9147 26.3238C14.915 25.7977 14.6621 25.3941 14.176 25.1449C13.9381 25.0229 13.4381 24.9896 13.1966 25.0797ZM7.53856 25.4182C7.49528 25.4882 7.65857 25.9523 7.72658 25.9523C7.797 25.9523 7.95851 25.6214 7.95993 25.4741C7.96082 25.3852 7.93885 25.374 7.76337 25.374C7.6547 25.374 7.55355 25.3939 7.53856 25.4182ZM9.0029 25.4334C8.96763 25.5253 9.1335 25.9277 9.21294 25.943C9.26312 25.9526 9.30489 25.8919 9.35626 25.7348C9.46734 25.3953 9.45973 25.374 9.22727 25.374C9.10018 25.374 9.01727 25.396 9.0029 25.4334ZM17.7914 25.4435C17.7914 25.4817 17.8241 25.6128 17.864 25.7348C17.9153 25.8919 17.9571 25.9526 18.0073 25.943C18.0867 25.9277 18.2526 25.5253 18.2173 25.4334C18.1828 25.3433 17.7914 25.3526 17.7914 25.4435ZM19.2603 25.4741C19.2617 25.6214 19.4232 25.9523 19.4936 25.9523C19.5616 25.9523 19.7249 25.4882 19.6817 25.4182C19.6667 25.3939 19.5655 25.374 19.4569 25.374C19.2814 25.374 19.2594 25.3852 19.2603 25.4741ZM54.6224 30.0446V34.3149H55.4435H56.2646L56.2775 32.4133C56.2899 30.5882 56.2942 30.5036 56.384 30.3115C56.575 29.9027 56.9118 29.6864 57.4075 29.654C57.9111 29.6212 58.2127 29.7696 58.4164 30.1503C58.5128 30.3304 58.5148 30.3699 58.5282 32.3243L58.5418 34.3149H59.3659H60.19L60.1708 32.1686C60.1499 29.843 60.1443 29.7854 59.8867 29.2662C59.5134 28.5137 58.5781 28.1494 57.607 28.3783C57.0837 28.5017 56.7114 28.7459 56.3963 29.1728L56.2682 29.3463V27.5603V25.7744H55.4453H54.6224V30.0446ZM75.2175 30.0446V34.3149H76.0404H76.8633V30.0446V25.7744H76.0404H75.2175V30.0446ZM42.5257 26.2427C42.0832 26.3228 41.6008 26.5031 41.2888 26.7053C40.9826 26.9036 40.6104 27.3002 40.4838 27.5632C40.258 28.032 40.1979 28.6194 40.322 29.1453C40.4072 29.5069 40.5154 29.7142 40.7522 29.9699C41.1873 30.4395 41.896 30.7071 43.3493 30.9505C44.5656 31.1542 44.9202 31.2864 45.076 31.5943C45.2425 31.9236 45.193 32.4065 44.9641 32.6841C44.7951 32.8892 44.5822 33.0005 44.2239 33.0709C43.8738 33.1398 43.0719 33.1044 42.7588 33.0063C42.3108 32.8658 41.9966 32.5245 41.875 32.0463L41.8241 31.8462L40.9452 31.8341L40.0664 31.822L40.0978 32.0312C40.2677 33.1643 40.9363 33.9096 42.0801 34.2409C43.0659 34.5265 44.3739 34.51 45.2381 34.2013C46.3258 33.8127 46.9284 32.9886 46.9264 31.8924C46.9236 30.4165 46.127 29.7941 43.8226 29.4676C42.7715 29.3186 42.3165 29.1614 42.1044 28.8737C41.9708 28.6926 41.9711 28.1489 42.1048 27.9684C42.349 27.6388 42.6694 27.5318 43.413 27.5316C43.8595 27.5315 44.0162 27.5489 44.2088 27.6203C44.5405 27.7433 44.8053 27.9885 44.9293 28.2876L45.0307 28.5323H45.8733H46.716L46.6868 28.3432C46.4685 26.9278 45.3028 26.1678 43.3685 26.1796C43.0871 26.1813 42.7079 26.2097 42.5257 26.2427ZM50.1547 28.3802C49.485 28.5304 49.0424 28.7764 48.6019 29.2433C48.2684 29.5968 48.0372 30.0314 47.9056 30.5522C47.7845 31.0313 47.7843 31.7976 47.9052 32.3016C48.154 33.3397 48.8559 34.0561 49.9087 34.3467C50.3114 34.4578 51.3697 34.4584 51.7705 34.3476C52.5046 34.1448 53.0776 33.7087 53.3542 33.142C53.5094 32.824 53.6438 32.3834 53.6438 32.1927V32.0908H52.9171H52.1905L52.1158 32.3594C52.0263 32.6812 51.7814 32.9711 51.4726 33.1206C51.1814 33.2615 50.6475 33.2596 50.3198 33.1164C50.0458 32.9967 49.7607 32.7049 49.638 32.4188C49.4475 31.9743 49.4153 31.11 49.5704 30.5987C49.7146 30.1232 50.073 29.7557 50.5071 29.6383C50.7684 29.5676 51.2728 29.6119 51.4932 29.7249C51.7295 29.846 51.9403 30.101 52.0152 30.356L52.0739 30.5562L52.8366 30.5684L53.5993 30.5805V30.4776C53.5993 30.3171 53.4726 29.8685 53.3539 29.6085C53.2139 29.3019 52.7728 28.8452 52.4513 28.6738C51.8612 28.3593 50.8337 28.228 50.1547 28.3802ZM63.6967 28.3357C62.3618 28.5734 61.475 29.3552 61.1765 30.5574C61.0714 30.9805 61.0726 31.8723 61.1787 32.2687C61.3163 32.7827 61.5494 33.1918 61.9166 33.564C62.502 34.1573 63.2489 34.4483 64.186 34.4483C64.7486 34.4483 65.1997 34.3462 65.6984 34.1059C66.0421 33.9403 66.184 33.8391 66.4587 33.5637C67.0419 32.9792 67.2982 32.3122 67.2982 31.3791C67.2982 30.4443 67.041 29.7759 66.4587 29.1975C65.8801 28.6227 65.2363 28.3624 64.3194 28.3326C64.0381 28.3234 63.7578 28.3248 63.6967 28.3357ZM70.4589 28.3794C69.3018 28.6302 68.5151 29.3285 68.1819 30.4005C68.0914 30.6915 68.0785 30.8222 68.0806 31.4236C68.0828 32.049 68.0941 32.1464 68.2024 32.4724C68.6135 33.7095 69.7213 34.4491 71.1614 34.448C72.4204 34.4471 73.4441 33.848 73.935 32.8248C74.1812 32.3116 74.2516 31.9261 74.2274 31.2234C74.2048 30.5695 74.0884 30.1354 73.8156 29.6892C73.6421 29.4052 73.1912 28.9515 72.9099 28.7777C72.266 28.38 71.2316 28.2119 70.4589 28.3794ZM63.7856 29.5969C63.3729 29.7229 63.0542 30.0222 62.8863 30.4415C62.7983 30.661 62.7868 30.7691 62.7868 31.3791C62.7868 31.9913 62.7981 32.0967 62.8874 32.3198C63.0097 32.6252 63.2876 32.951 63.5353 33.0792C63.7977 33.2151 64.4206 33.2443 64.7088 33.1342C64.998 33.0238 65.3071 32.7209 65.4454 32.4126C65.6552 31.9448 65.6904 31.1046 65.5239 30.5413C65.4042 30.1365 65.0491 29.7487 64.6844 29.6245C64.4741 29.5528 63.9798 29.5377 63.7856 29.5969ZM70.6678 29.6167C69.9412 29.8871 69.5847 30.7373 69.7431 31.8214C69.8393 32.4786 70.0643 32.8434 70.5111 33.0667C70.9928 33.3074 71.665 33.2408 72.0461 32.9147C72.4378 32.5794 72.6234 31.9783 72.5813 31.182C72.5423 30.4444 72.2985 29.9667 71.8315 29.7123C71.63 29.6025 71.5325 29.5797 71.2141 29.568C70.9665 29.5589 70.778 29.5757 70.6678 29.6167Z" fill="#F0F0F0"/>
</svg>
