<svg width="170" height="24" viewBox="0 0 170 24" fill="none" xmlns="http://www.w3.org/2000/svg">
<path fill-rule="evenodd" clip-rule="evenodd" d="M1.18898 1.135C0.996757 2.12942 0.759583 3.51541 0.759583 3.64349C0.759583 3.71868 2.20132 3.78302 4.73003 3.82056L8.70048 3.87958L7.96802 8.07023C7.00205 13.5963 6.075 18.848 5.7193 20.809C5.56138 21.6798 5.43209 22.4899 5.43209 22.6092C5.43209 22.812 5.57735 22.8261 7.67963 22.8261C8.91577 22.8261 9.92716 22.784 9.92716 22.7326C9.92716 22.6812 10.1109 21.6055 10.3355 20.3421C10.8615 17.3829 12.3246 9.06678 12.7749 6.4766C12.9668 5.37287 13.154 4.32367 13.1909 4.14518L13.2581 3.82056L17.1819 3.81878C19.34 3.81772 21.1631 3.77794 21.2331 3.73025C21.331 3.66355 21.8746 1.00857 21.8746 0.596822C21.8746 0.551965 17.2473 0.515251 11.5916 0.515251H1.30869L1.18898 1.135ZM138.894 0.593397C138.809 0.627866 138.746 0.86337 138.746 1.1527C138.746 1.66998 138.582 2.7206 138.378 3.50266C138.266 3.93128 138.24 3.95041 137.823 3.91582L137.386 3.87958L137.09 2.46302L136.795 1.04646L135.622 1.01246C134.977 0.993695 134.41 1.02026 134.362 1.07149C134.313 1.1226 134.401 1.72228 134.557 2.404C134.713 3.08572 134.841 3.70995 134.842 3.79104C134.842 3.89575 134.592 3.9386 133.978 3.9386H133.114L132.933 4.88298C132.834 5.40226 132.78 5.85379 132.812 5.88637C132.845 5.91883 133.957 5.94539 135.285 5.94539H137.698L137.621 6.211C137.498 6.63656 137.141 7.06589 136.899 7.07888C136.777 7.08549 135.736 7.09883 134.587 7.10839L132.499 7.12586L132.356 7.92268C132.277 8.36086 132.206 8.77261 132.197 8.83754C132.187 8.90966 132.894 8.97848 134.015 9.01461L135.848 9.07363L135.079 9.65076C134.251 10.2723 133.682 10.5604 132.478 10.9678C131.747 11.2151 131.706 11.2495 131.615 11.6852C131.562 11.9368 131.448 12.4487 131.36 12.8227C131.273 13.1965 131.24 13.5259 131.286 13.5546C131.403 13.6266 132.691 13.2821 133.106 13.068C133.292 12.9716 133.473 12.9208 133.508 12.9551C133.558 13.0049 133.163 15.3446 132.884 16.6581L132.827 16.9237H137.133C140.794 16.9237 141.46 16.9499 141.584 17.0988C141.701 17.2393 141.665 17.5964 141.405 18.899C141.227 19.7928 141.056 20.5906 141.025 20.6717C140.982 20.7831 140.377 20.8193 138.556 20.8193C135.797 20.8193 135.996 20.7096 136.392 22.0109L136.64 22.8261H140C141.848 22.8261 143.36 22.8014 143.36 22.7713C143.36 22.7412 143.601 21.3999 143.896 19.7906C144.618 15.854 144.641 15.6079 144.315 15.3048C144.056 15.0637 143.37 14.9169 142.502 14.9169H142.032L142.113 14.4743C142.315 13.3591 142.56 12.438 142.653 12.438C142.709 12.438 142.937 12.5454 143.16 12.6768C143.718 13.0049 145.494 13.6417 145.667 13.5753C145.745 13.5456 145.945 13.158 146.111 12.714C146.278 12.27 146.449 11.8197 146.492 11.7134C146.554 11.5572 146.395 11.4616 145.665 11.2166C144.512 10.8299 143.445 10.2278 142.768 9.58158L142.236 9.07363L144.184 9.01461L146.131 8.95558L146.333 8.07023C146.443 7.58329 146.519 7.16977 146.5 7.15136C146.482 7.13294 145.025 7.11783 143.262 7.11783C141.499 7.11783 140.035 7.07982 140.008 7.03331C139.981 6.9868 140.057 6.72403 140.175 6.44934L140.391 5.94988L143.087 5.91813L145.784 5.88637L145.921 5.46731C145.997 5.23676 146.096 4.79846 146.142 4.49342L146.226 3.9386H145.384C144.921 3.9386 144.543 3.91452 144.543 3.88513C144.543 3.85573 144.782 3.24803 145.075 2.53479C145.368 1.82144 145.607 1.18139 145.607 1.11257C145.607 1.03229 145.161 0.987438 144.362 0.987438H143.117L143.001 1.31207C142.937 1.49055 142.685 2.15456 142.442 2.78765L142 3.9386H141.497C141.22 3.9386 140.994 3.92066 140.994 3.89882C140.994 3.87686 141.073 3.33243 141.171 2.68884C141.268 2.04525 141.348 1.29282 141.348 1.01695L141.349 0.515251L140.196 0.524578C139.561 0.529654 138.976 0.560698 138.894 0.593397ZM150.694 0.615473C150.694 0.719118 151.395 4.11201 151.656 5.26663L151.782 5.82735H153.249C154.571 5.82735 154.715 5.80693 154.707 5.62077C154.701 5.50721 154.422 4.32521 154.086 2.99423L153.474 0.574274L152.084 0.540984C151.3 0.522214 150.694 0.554797 150.694 0.615473ZM126.154 2.55155C124.831 11.3317 123.477 17.8676 121.996 22.6236C121.935 22.8181 122.028 22.8317 123.211 22.8007L124.492 22.767L125.244 19.3437C125.657 17.4608 126.045 15.7188 126.107 15.4726L126.219 15.0248L127.071 15.0594L127.923 15.094L127.885 15.5662C127.864 15.8259 127.558 17.4842 127.205 19.2513C126.851 21.0183 126.562 22.5456 126.562 22.6451C126.562 22.7961 126.766 22.8261 127.792 22.8261H129.021L129.277 21.439C129.418 20.6762 129.637 19.4942 129.765 18.8125C129.893 18.1308 130.291 15.8997 130.649 13.8545C131.569 8.61042 132.091 5.66279 132.425 3.83083C132.78 1.88235 132.78 1.86948 132.423 1.51333L132.133 1.22353H129.243H126.354L126.154 2.55155ZM156.02 1.48524C156.021 1.63351 156.118 2.12659 156.234 2.58107L156.446 3.40739L161.17 3.46984C163.768 3.50419 165.908 3.54397 165.924 3.55837C166.039 3.66025 165.884 4.81474 165.457 7.03012L164.961 9.60484H163.024C161.236 9.60484 161.092 9.58902 161.147 9.39826C161.268 8.98191 161.741 5.83384 161.689 5.78875C161.66 5.76301 161.077 5.41442 160.394 5.01389C159.299 4.37136 159.143 4.31045 159.069 4.49578C158.994 4.68241 158.145 9.29981 158.146 9.51264C158.146 9.55939 157.494 9.61251 156.698 9.63069L155.25 9.66386L155.106 10.4312C155.028 10.8532 154.961 11.3446 154.958 11.5231L154.952 11.8477H156.313C157.061 11.8477 157.673 11.8875 157.673 11.9363C157.671 12.2144 156.01 21.2342 155.717 22.5605C155.658 22.8253 155.662 22.8261 157.198 22.8261C158.045 22.8261 158.738 22.7898 158.738 22.7454C158.738 22.701 159.028 21.1473 159.382 19.2926C159.737 17.4378 160.164 15.1235 160.331 14.1496C160.499 13.1757 160.662 12.2595 160.694 12.1133C160.752 11.8514 160.779 11.8477 162.644 11.8477C163.683 11.8477 164.534 11.8761 164.534 11.9105C164.534 12.0687 163.541 17.495 163.059 19.9691C162.764 21.4817 162.523 22.7434 162.523 22.7727C162.523 22.8021 163.737 22.8261 165.22 22.8261H167.918L168.291 21.9112C168.495 21.408 168.698 20.9033 168.741 20.7898C168.811 20.6001 168.7 20.5832 167.373 20.5832C165.934 20.5832 165.928 20.5821 165.993 20.3176C166.106 19.8579 167.219 14.1747 167.894 10.6082C169.503 2.11266 169.516 2.01196 169.055 1.5517L168.786 1.28255L162.402 1.24915L156.017 1.21574L156.02 1.48524ZM128.401 3.37788C128.28 3.76071 127.774 6.95871 127.823 7.03697C127.893 7.15112 129.182 7.14994 129.354 7.03555C129.426 6.98786 129.635 6.18467 129.819 5.25069C130.143 3.6024 130.146 3.54799 129.932 3.39146C129.649 3.18535 128.465 3.17484 128.401 3.37788ZM111.301 3.42711C111.296 3.68067 110.594 7.38249 110.532 7.48342C110.49 7.55165 109.456 7.59805 107.978 7.59805H105.495L106.289 8.749C107.53 10.5472 107.358 10.4312 108.78 10.4312C109.689 10.4312 110.002 10.4695 110.002 10.5811C110.002 10.7007 108.943 16.837 108.056 21.8617C107.941 22.51 107.937 22.7404 108.04 22.7794C108.115 22.8082 109.131 22.8172 110.297 22.7994L112.418 22.767L112.691 21.2324C112.84 20.3884 113.311 17.7058 113.736 15.2711C114.162 12.8364 114.537 10.7524 114.57 10.6399C114.624 10.4547 114.891 10.4325 117.409 10.4038L120.189 10.3721L115.844 6.88977C113.455 4.97446 111.455 3.38968 111.401 3.36808C111.347 3.34636 111.302 3.37292 111.301 3.42711ZM148.517 7.15537C148.417 7.52025 148.21 8.75856 148.21 8.99218C148.21 9.24008 148.256 9.2507 149.334 9.2507C150.369 9.2507 150.457 9.26876 150.457 9.48101C150.457 9.97539 149.354 16.2526 148.689 19.538C148.304 21.4418 148.011 23.0213 148.038 23.0479C148.064 23.0744 148.58 22.7865 149.183 22.4081C151.412 21.01 154.244 18.9063 154.457 18.4912C154.599 18.213 155.004 15.6375 154.919 15.5523C154.882 15.5158 154.515 15.7697 154.104 16.1165C153.241 16.8438 152.178 17.632 152.06 17.632C152.016 17.632 152.008 17.539 152.043 17.4254C152.21 16.891 153.548 9.09877 153.716 7.68658L153.797 7.00781H151.177C149.182 7.00781 148.548 7.04299 148.517 7.15537ZM22.9818 7.41815C19.0975 8.1217 16.1629 10.7652 15.1818 14.4447C14.8745 15.597 14.892 17.4691 15.2199 18.5223C15.8693 20.6083 17.5213 22.1036 19.9228 22.7788C20.8475 23.0389 24.2787 23.143 25.5358 22.9492C27.5785 22.6342 29.8772 21.8158 29.9754 21.3688C30.1739 20.4637 30.5151 18.3061 30.4672 18.2582C30.4353 18.2265 30.0993 18.3814 29.7203 18.6023C28.8296 19.1216 27.4737 19.6743 26.4288 19.944C25.1696 20.2689 22.9019 20.2512 21.8083 19.9078C20.3088 19.4371 19.4455 18.5688 19.2916 17.3769C19.2469 17.0302 19.2278 16.6271 19.2495 16.4811L19.2886 16.2154H25.2885H31.2884L31.4975 15.4326C31.79 14.3371 31.8702 12.8977 31.6962 11.8681C31.3021 9.5359 29.7061 7.94085 27.2464 7.42086C26.2518 7.21062 24.1353 7.20932 22.9818 7.41815ZM35.1941 7.68611C35.1565 7.92988 35.0431 8.79327 34.9422 9.60484C34.7718 10.9752 34.2647 13.9998 32.9892 21.2527C32.8617 21.9781 32.7574 22.6288 32.7574 22.6988C32.7574 22.7853 33.4744 22.8261 34.9956 22.8261H37.2337L37.302 22.5014C37.3398 22.3228 37.7178 20.1896 38.1424 17.7607C38.5759 15.2801 39.0133 13.1209 39.1405 12.8341C39.6723 11.6343 41.2998 10.5231 42.7525 10.3679C44.2307 10.2098 45.566 10.9198 45.8741 12.0275C46.1421 12.9909 46.0814 13.487 44.885 20.111C44.6563 21.377 44.4689 22.5059 44.4687 22.6195C44.4682 22.8089 44.6532 22.8261 46.7007 22.8261H48.9333L49.1219 21.7931C49.7456 18.3807 50.5289 13.7894 50.6145 13.0444C50.8257 11.2096 50.2977 9.47947 49.2444 8.55411C48.1221 7.56842 46.8205 7.18701 44.8845 7.27661C44.1677 7.30978 43.2617 7.42393 42.8713 7.53029C41.8165 7.81749 40.5858 8.4448 39.8809 9.05439L39.2562 9.59445L38.698 9.26404C37.5051 8.55812 35.415 7.32654 35.3408 7.28581C35.2977 7.26221 35.2317 7.44234 35.1941 7.68611ZM61.443 7.43089C56.8957 8.13186 53.5316 10.7508 52.6227 14.2979C52.3082 15.5244 52.3109 17.3395 52.6286 18.3659C53.8227 22.224 58.352 23.9179 64.2229 22.702C65.8977 22.3552 66.4605 22.1453 66.527 21.8426C66.5578 21.7018 66.6927 20.9491 66.8265 20.17C66.9603 19.3909 67.1016 18.5949 67.1404 18.4011L67.2112 18.0488L66.7261 18.4862C65.3776 19.7018 62.992 20.3228 60.9066 20.0007C59.7755 19.826 58.9383 19.4406 58.2065 18.7575C55.9525 16.6534 57.078 12.6336 60.375 11.0121C62.0216 10.2023 63.5848 10.0117 65.1999 10.4238C66.3194 10.7096 66.9396 11.0221 67.6084 11.6372C67.896 11.9019 68.159 12.0907 68.1929 12.0569C68.2675 11.9824 68.8335 8.70757 68.8351 8.34056C68.836 8.12147 68.7094 8.04061 68.0432 7.83532C66.1227 7.24332 63.6448 7.09151 61.443 7.43089ZM77.2349 7.47823C75.09 7.94251 73.4805 8.76612 72.1405 10.0848C70.3148 11.8816 69.379 14.1136 69.3979 16.626C69.4316 21.0852 73.0187 23.5228 78.8575 23.0544C81.2384 22.8634 84.2571 21.9444 84.3942 21.3688C84.5294 20.8014 84.9239 18.5152 84.9239 18.2992C84.9239 18.0866 84.9068 18.0828 84.7169 18.2532C84.356 18.5765 82.4125 19.4909 81.5526 19.7419C80.2715 20.1157 79.0547 20.2656 77.9368 20.1875C75.2239 19.9978 73.6906 18.8096 73.6874 16.8942L73.6862 16.2154H79.7046H85.7232L85.9292 15.4186C86.0426 14.9804 86.1608 14.1172 86.1922 13.5004C86.3558 10.2743 84.7093 8.06539 81.6605 7.42086C80.5338 7.18264 78.4769 7.20932 77.2349 7.47823ZM89.6066 7.74537C89.5715 8.02148 89.458 8.91131 89.3542 9.72289C89.1834 11.0578 88.4808 15.2548 87.5259 20.6422C87.3303 21.7459 87.1705 22.6888 87.1708 22.7375C87.1712 22.7863 88.1817 22.8261 89.4167 22.8261C91.6493 22.8261 91.6623 22.8245 91.7194 22.5605C91.7831 22.2653 92.1344 20.2678 92.8562 16.0974C93.1567 14.3613 93.4315 13.1245 93.5906 12.7921C94.3285 11.2499 96.3867 10.1453 98.0916 10.3762C99.6255 10.5839 100.421 11.4984 100.42 13.0539C100.419 13.8607 100.373 14.16 99.4828 19.2008C99.1524 21.07 98.8822 22.6504 98.8822 22.7127C98.8822 22.7812 99.7691 22.8261 101.12 22.8261H103.359L103.424 22.5014C103.46 22.3228 103.844 20.1848 104.278 17.7501C105.142 12.9029 105.242 11.7163 104.886 10.5492C104.452 9.12651 103.425 8.07377 101.99 7.57904C101.302 7.342 100.963 7.30328 99.592 7.30553C98.2584 7.30765 97.8494 7.35322 97.112 7.58223C95.8975 7.95927 95.0197 8.42249 94.3063 9.06253L93.7024 9.60425L91.9212 8.54927C90.9415 7.96907 90.0343 7.43786 89.905 7.3688C89.691 7.25453 89.6644 7.28805 89.6066 7.74537ZM127.435 9.15567C127.307 9.36214 126.586 13.012 126.658 13.0846C126.755 13.1812 128.316 13.1567 128.377 13.0577C128.464 12.9173 129.047 9.66422 129.047 9.32282C129.047 9.02251 129.027 9.01461 128.285 9.01461C127.822 9.01461 127.488 9.06997 127.435 9.15567ZM137.891 9.9035L136.977 10.7853H138.877C139.922 10.7853 140.759 10.7455 140.738 10.6968C140.716 10.648 140.485 10.2507 140.225 9.81367C139.766 9.04341 139.737 9.01921 139.279 9.02051C138.851 9.02169 138.717 9.10692 137.891 9.9035ZM23.2941 10.0031C22.3632 10.2588 21.8347 10.576 21.0919 11.3247C20.3981 12.0237 19.6591 13.2657 19.8008 13.4945C19.8369 13.5527 21.5593 13.6061 23.6323 13.6135C26.9019 13.625 27.4184 13.6026 27.5507 13.4436C27.7713 13.1783 27.6414 11.894 27.3328 11.2904C26.72 10.0917 24.9848 9.53861 23.2941 10.0031ZM77.7081 10.0099C76.8523 10.2475 76.1723 10.6499 75.5104 11.3105C74.893 11.9265 74.0894 13.292 74.2202 13.5031C74.2617 13.5701 75.8289 13.6035 78.1575 13.5869L82.0257 13.5594L82.0611 12.8851C82.1119 11.916 81.916 11.3317 81.34 10.7347C80.5515 9.91719 79.0912 9.62585 77.7081 10.0099ZM134.606 12.7365C134.606 12.7707 134.931 12.9394 135.328 13.1112L136.049 13.4234L135.973 13.9046C135.931 14.1692 135.868 14.498 135.834 14.6352C135.776 14.8662 135.832 14.89 136.579 14.9561C137.422 15.0307 139.317 14.9768 139.419 14.8753C139.473 14.8211 139.919 12.9631 139.926 12.7626C139.928 12.7138 138.732 12.6741 137.268 12.6741C135.804 12.6741 134.606 12.7021 134.606 12.7365ZM130.918 17.9289C130.827 18.019 131.125 19.6349 131.256 19.7656C131.324 19.8337 133.016 19.8657 135.553 19.8469L139.737 19.8159L139.949 18.9895C140.065 18.5351 140.162 18.0969 140.163 18.0157C140.165 17.9001 139.17 17.8681 135.572 17.8681C133.046 17.8681 130.951 17.8955 130.918 17.9289Z" fill="#F6FAFB"/>
</svg>
