<svg width="95" height="43" viewBox="0 0 95 43" fill="none" xmlns="http://www.w3.org/2000/svg">
<path fill-rule="evenodd" clip-rule="evenodd" d="M3.52206 19.4571L3.52951 26.6203C3.40671 28.3476 2.6965 28.1376 2.60878 28.1681C2.62898 28.2229 2.68321 28.2441 2.69331 28.3233C2.70288 28.3972 2.76507 28.4401 2.77624 28.466C3.11114 29.251 2.85066 28.8725 2.60878 29.2324L3.26903 29.5086C3.55396 28.617 3.092 28.9485 4.1015 28.8704C3.64805 29.4579 3.45349 29.2526 2.99153 29.7232C2.08304 30.7275 2.16012 29.914 1.46745 30.8341C2.01659 31.0906 1.76461 31.0559 2.60931 31.0559V31.2783C1.2277 31.2783 2.55456 31.7836 0.326111 31.2783C0.628057 32.505 0.30591 31.6791 0.782752 31.7613C1.86189 32.0758 3.27806 31.8963 3.87345 31.1423C3.63848 30.848 3.8676 30.3991 3.29348 31.0554C3.82082 30.6882 4.10469 30.7348 4.75165 30.2528C5.15885 28.6475 4.58685 25.6454 5.34969 24.3597L5.64313 25.331C6.0211 27.1276 5.9286 29.7346 6.34059 30.5346L6.71961 31.2095C8.79709 31.8689 11.6789 30.877 12.6575 31.4138C13.5623 31.0823 13.4289 30.9235 14.3358 30.9137C14.5123 30.5714 14.4214 30.6536 14.5027 30.3236C13.7404 30.2171 14.0524 30.4105 13.5772 29.9456C11.0633 31.5493 10.789 31.0565 6.71961 31.0565C6.71961 30.1964 6.68984 22.5259 6.9482 21.7957L6.68931 21.9069C6.03704 21.9343 5.67184 21.8122 5.22104 21.3535L7.8062 21.2842L11.5869 21.0406C12.2631 20.826 11.9378 21.0241 12.4534 20.5726C12.8627 20.2132 12.9946 20.2132 13.4321 20.0528L13.9546 18.9684L14.4325 17.6558C14.1588 17.7163 13.5703 17.8689 13.3167 17.8601C12.6225 17.8363 12.9818 17.7623 12.7357 17.5994L12.8537 17.1598H12.6565C12.6565 20.0322 12.1796 20.6455 8.07571 20.629C6.2045 20.6217 6.97 20.5607 6.88972 19.3407C6.86421 18.9518 6.77862 19.1039 6.72015 18.3964C6.61755 17.1521 6.6117 15.3927 6.94767 14.497L6.51814 14.6516C6.21247 16.1948 7.18742 19.7834 6.26244 20.8193C5.3885 19.9406 6.47189 19.5533 5.35022 17.7282L4.82979 18.1399C4.38538 18.4641 4.73251 18.0969 4.3386 18.5329L3.5226 19.4581L3.52206 19.4571ZM21.8456 20.2313L21.4709 20.0249C21.784 19.74 21.6346 20.057 21.6952 19.5181C21.7143 19.349 21.6516 19.0795 21.6314 18.8949C21.0552 18.6741 21.2646 18.6131 21.1126 18.6177L20.346 18.9254V18.13L20.4194 17.557L20.1908 17.4288V31.2788C19.7559 31.4816 18.9718 31.6739 18.3642 31.7231L18.5104 32.3897C18.8054 32.1208 18.3616 32.2211 19.2031 31.9501C19.2727 31.9279 19.8638 31.8575 19.9409 31.8482C20.8314 31.7407 20.4789 31.903 21.3454 31.3699L21.5378 31.0047L22.1779 30.9923C22.1013 30.9375 22.0243 30.7012 21.9966 30.7777L21.7016 30.6122C21.936 29.2816 21.8935 28.3424 22.0189 27.0645C22.2433 27.3282 22.1577 27.0552 22.2996 27.5165C22.3219 27.5894 22.3719 28 22.3831 28.104C22.9694 28.0993 22.7313 28.1195 23.1188 27.8578C23.1534 29.2598 23.08 28.0006 23.3878 28.5498C23.3878 27.9411 23.417 27.5051 23.4553 26.93C23.4771 26.6001 23.5021 26.1031 23.559 25.6878C23.72 24.5144 23.6159 23.2592 23.6159 22.0682C23.2528 22.3537 23.4107 21.8898 23.2405 22.6479C23.2368 22.665 23.2326 23.2153 23.232 23.2691C23.2278 23.809 23.2374 24.2796 23.2576 24.8335L23.2007 25.5756L21.9886 25.059L21.8153 23.7924C22.4867 23.8431 22.1726 24.3923 21.8557 22.1701C22.4075 21.4424 21.7803 21.836 22.6877 21.5971L25.4424 21.5392C26.6002 21.5469 27.7639 21.5417 28.9212 21.5283C29.4655 20.827 29.5176 19.966 29.0966 19.0614C29.0929 20.1423 29.0169 20.1439 28.6389 20.8384L23.6153 21.0608V15.0778C23.3543 15.4108 23.5 14.8161 23.3192 15.7216L23.1911 20.9051L21.8621 21.279L21.8446 20.2318L21.8456 20.2313ZM69.4033 3.98933C70.2007 4.84368 69.9545 5.4229 69.9726 7.28778L70.0157 9.97804C69.929 11.2989 70.0061 10.475 69.7403 10.7145C69.003 10.0437 69.3793 5.1426 69.4033 3.98985V3.98933ZM70.5132 1.48938C69.4665 2.21599 68.7802 2.2253 67.4922 1.53644C68.1019 1.02238 69.7174 1.39008 70.5132 1.48938ZM64.4887 1.5685L66.7745 1.34302C66.3067 1.7702 66.9037 1.84725 65.1765 1.75934C64.5881 1.72934 64.0676 1.72158 63.4765 1.7252C63.4217 3.49337 63.1161 9.75256 63.7625 10.9741C63.0124 10.9467 63.0943 10.8293 62.4495 10.4611C62.0912 11.7085 61.9333 10.8427 61.9301 10.8417C60.7733 10.8691 61.3188 10.6436 60.835 11.2859C61.7015 11.6904 63.4781 11.5078 64.7167 11.5078V10.8412C64.0097 10.7827 64.2851 10.8438 63.8034 10.6188V2.17772H66.0866C66.6108 3.24048 65.8363 3.20842 66.9999 3.51044C66.9999 1.52816 66.8054 2.14359 68.3698 2.17772C68.3698 4.09845 67.9781 9.36159 68.5979 10.6188C67.6198 11.0755 67.7404 10.4724 67.456 11.5073C68.6946 11.5073 70.4712 11.6898 71.3377 11.2854C70.8237 10.6028 71.485 10.927 70.4245 10.8412V2.17772C71.468 1.69055 71.9193 1.85708 72.4796 1.5111C71.7774 1.35181 71.3202 1.35854 70.5106 1.20546C69.7717 1.06531 69.4282 0.800003 68.6569 0.885334L65.6231 1.27889C64.4312 1.32389 64.7752 1.30217 64.4876 1.56747L64.4887 1.5685ZM41.9511 17.9159C42.2823 18.1119 42.0548 17.9123 42.1973 18.386C42.2664 18.5117 44.2306 22.6609 44.5783 23.0601L44.8244 24.6126C44.9631 24.8935 44.8207 24.7419 45.1726 24.8448C46.104 24.713 46.1832 24.474 46.7068 25.0579C46.4335 25.2679 46.7041 25.3941 45.5373 25.3046L45.6744 25.5032C46.0838 27.126 47.1246 28.5793 47.316 29.9446C46.9221 30.3733 45.7371 30.4017 46.248 31.2969L45.5362 31.1495C44.977 31.5907 44.8813 31.5597 44.1663 31.722L44.2758 32.3887C45.2401 31.4971 45.9689 32.4533 47.1363 30.6127C48.6056 30.8201 47.4994 30.4912 48.4972 31.0652C49.8719 31.856 50.7373 31.8668 51.4651 32.3887C52.0312 32.3887 51.4486 32.4616 51.7017 32.1663C49.7959 30.2114 50.7384 33.605 48.1405 27.4115C47.9316 26.9135 47.9661 26.9388 47.7397 26.4687C47.115 25.1717 47.7258 25.7302 46.9168 24.3815C46.7472 24.0986 46.5845 23.7991 46.4484 23.5038L45.8031 21.8117C45.7914 21.7874 45.76 21.7336 45.7467 21.7078L43.9377 18.0271C43.8755 17.9847 43.6841 17.8963 43.6342 17.8808L42.9659 17.7479C42.378 17.5038 42.6635 17.3455 41.9261 17.3698L41.9506 17.9149L41.9511 17.9159ZM41.8831 34.1661H42.1111L41.9208 34.4252L41.8825 34.1661H41.8831ZM27.4981 34.705L29.1439 35.5128L28.868 35.9798C28.4188 36.1479 25.5152 36.6873 24.7758 36.6051C23.4776 36.4603 22.6808 35.7212 20.876 35.7212C21.4055 36.4241 20.8882 36.2384 21.7893 35.9447C23.5026 36.2431 23.2214 36.5249 23.2602 37.3177L26.2744 37.1517L27.295 37.2215L28.8802 36.5337L30.5728 36.0874L32.8497 36.2105L34.5242 36.03L34.4503 35.9814C35.6012 36.0946 36.2391 35.6876 37.2656 35.4596C41.1447 35.1353 42.1404 34.5338 45.9673 35.9669L48.1937 36.6857L49.3148 37.6146C49.3844 37.6296 49.1112 37.3451 49.857 37.7216L49.3765 38.3882C49.1649 38.6918 49.3488 38.6106 48.503 38.6106V38.8325H49.7034C49.3679 38.699 49.6965 38.8278 49.5099 38.3882L50.4838 38.0671C50.5236 38.0485 50.7549 37.7852 50.7878 37.7206C50.3679 37.2732 49.3345 36.7447 48.6795 36.3889C49.024 35.864 48.4536 36.2648 49.1883 36.092C48.1958 35.6349 46.576 35.1627 45.4905 34.8772C43.9951 34.4842 42.4965 33.7912 41.6534 33.7229L41.882 34.1672C41.0331 33.9748 40.8571 33.7452 39.8269 33.7229L40.5121 34.3896C36.6299 34.3896 33.848 36.2824 29.0078 34.9171C28.3869 34.7417 28.1238 34.5416 27.497 34.7066L27.4981 34.705ZM81.1505 18.1109C80.5779 18.7036 80.7465 18.2981 80.4504 18.8385L82.1095 20.3755C82.1382 20.3238 82.2365 20.4226 82.2977 20.4516C83.3141 21.2599 84.6218 21.2139 85.6297 21.9136C86.0821 22.0956 86.4271 22.2839 86.8433 22.4256C87.1267 22.5223 87.401 22.5704 87.5333 22.6293C88.4551 23.0405 87.5737 22.6076 88.0065 22.9665C88.8506 23.3673 90.2397 24.6695 90.2859 25.7747L90.2854 26.6606L89.4811 27.1043C89.3657 27.2745 89.9962 27.2579 88.9208 27.3107C89.3099 28.0362 88.9277 28.8606 88.6927 29.6167C89.4497 29.8458 89.0739 29.7341 89.606 30.0216C90.851 28.3817 90.5501 26.793 91.2933 25.1334C91.5777 25.2994 91.6256 24.8112 92.1173 26.0322C91.7377 20.8813 83.5357 20.2007 82.1366 18.5645L81.5848 17.8673C81.5502 17.8301 81.4848 17.7711 81.4306 17.7282L81.1505 18.1114V18.1109ZM68.5984 29.3586C69.0051 29.0576 68.9631 29.7584 68.9301 28.9552C69.3012 29.1942 69.5755 29.2423 70.005 29.3953L70.1284 27.9002C71.0895 27.6468 70.6424 27.7037 71.477 27.8444C71.6035 25.903 72.1139 22.7172 71.6376 20.8994C71.1846 21.4456 71.5902 21.85 71.4164 23.2835C71.1193 25.7328 71.8491 24.5671 70.8322 25.9469C71.2378 26.5913 70.3468 25.8771 71.225 26.1688C70.9002 26.8033 70.2974 27.2383 70.2974 27.2377C70.266 27.1876 70.181 27.3495 70.1188 27.4012L70.2081 16.7746L70.0141 15.6099C69.2635 15.7501 69.4479 15.7682 68.8238 15.9031C68.8834 15.1543 68.8956 15.7325 68.599 15.5023V29.3581L68.5984 29.3586Z" fill="#FEFEFE"/>
<path fill-rule="evenodd" clip-rule="evenodd" d="M73.393 8.58545C72.2357 7.68353 73.1299 6.4863 72.6323 5.23115L73.3765 5.4406C73.4302 6.20083 73.6444 7.9297 73.393 8.58545ZM75.2818 1.93839C73.5429 2.70276 74.688 1.85875 73.9815 2.72448C73.6253 3.16044 74.0059 2.8217 73.5764 3.17234L72.8821 2.62363C71.9322 3.03374 72.8221 2.51451 72.5424 3.22354C72.3729 3.65226 72.1071 3.75259 71.7945 3.95635C71.7945 4.8557 71.7509 4.06806 72.0231 4.31216L72.9013 4.36853C72.9146 5.01136 73.0767 4.94154 72.5924 5.35113C72.3994 5.51404 71.9104 5.68057 71.5664 5.86778C71.8577 6.25254 71.8508 7.06294 71.9699 7.56148C72.4377 9.51686 73.5137 10.6412 75.4705 11.2649C79.1353 12.4321 82.0639 8.64958 80.2431 8.1769C80.1974 10.1809 78.5761 10.7208 76.8064 10.6375C75.3955 10.5714 76.3146 10.4648 75.2313 10.1762C75.3557 11.0001 75.3466 10.3903 74.9516 10.6246C74.3823 10.2724 74.7741 10.6489 74.2818 9.95438C74.5933 9.62081 74.1415 9.82509 74.7635 9.81681C73.67 7.83712 73.4871 6.73816 74.2069 4.30389C74.9708 1.72119 76.6655 2.06665 78.6441 2.17939L78.2773 1.95908C78.2162 1.92805 78.1603 1.8965 78.0912 1.86444L76.8175 1.50553C75.6135 1.5107 76.2774 1.82307 75.2823 1.93891L75.2818 1.93839ZM57.2947 24.9277C58.0528 25.3601 58.1102 25.1734 58.7412 25.4935C59.4881 25.8721 59.1112 25.886 59.7411 26.337C60.3944 26.8045 60.2902 26.4409 60.8325 27.0481C61.1663 27.422 61.2094 27.5973 61.6224 27.9474C61.7186 29.0562 61.9201 29.1379 62.3177 30.1629L62.5703 30.7737L62.3374 33.8203L62.5995 33.9708C64.1491 34.2257 63.4734 34.6783 64.2772 34.8975C64.8662 34.8107 64.7147 34.6907 64.7147 35.2761L64.7158 31.943C64.1199 31.943 64.2602 32.0925 64.2602 31.5282L63.4075 30.9537L62.9466 30.6005C63.0838 29.6091 63.2029 29.6442 62.4645 29.5005L62.9445 28.1791L63.802 28.1688C63.2406 28.1657 63.8296 28.2438 63.5734 27.9454L64.2586 27.723C64.0141 27.3677 63.3995 26.5263 63.0343 26.2485C61.8441 25.3425 61.6687 25.357 61.0621 25.5007L59.9218 24.7917C59.2308 25.7505 59.1117 24.8905 57.7285 24.6329L56.7254 24.8191L57.2947 24.9272V24.9277ZM89.4493 31.7227L89.2866 31.2505C89.2845 31.2495 87.8067 30.7184 88.4621 31.1833C86.879 31.2702 88.0225 31.3033 87.5877 30.8342C86.6292 31.8137 85.3943 31.7227 83.4412 31.7227C83.3301 32.2797 82.2887 31.6358 81.9097 31.4315C80.7689 30.8177 81.3085 30.7701 79.8088 30.5384C80.3946 29.8878 78.987 30.0781 80.7003 29.9871C80.5477 29.6535 80.7152 29.8407 80.4255 29.5465C80.0082 29.1224 80.1427 29.2879 79.787 29.141L78.761 29.3887L78.8349 27.8838C79.4548 28.0995 79.0747 27.7824 79.5584 28.2769C79.0938 26.8138 79.8981 26.0675 78.4166 25.9476C78.3767 27.6899 77.5033 30.5089 77.5033 32.3893C78.2778 32.214 78.272 32.3257 78.5123 31.6922L78.6266 31.2257C78.8153 30.6946 78.6356 31.4791 78.8737 30.6123C79.5946 30.7996 84.5852 35.0651 89.4498 31.7232L89.4493 31.7227ZM11.6471 37.4451C12.3658 36.977 13.1643 36.9776 13.7974 37.5423L11.6471 37.4451ZM6.26206 34.656C8.53304 35.0915 9.53775 36.2737 11.5993 36.6254C11.2793 37.021 12.0772 36.9889 11.0571 36.932L10.3718 37.276C10.9103 37.398 10.9816 37.5014 11.6466 37.4451C12.0309 37.6773 11.6902 37.6007 12.2095 37.6974C12.4158 37.7357 12.6715 37.7202 12.8836 37.7202L11.7417 38.1644C14.219 38.1644 14.304 38.6806 16.0716 38.8414C17.2198 38.9459 19.4882 39.1227 20.1904 38.15L19.1968 38.12L19.1394 38.5466L18.4845 38.588L15.8988 38.7292L15.4502 38.7369L15.5171 38.1505L13.892 38.212C14.5651 37.6354 15.1902 37.276 15.9631 37.9798L16.0998 38.0434C17.8886 37.6897 19.8592 37.895 21.8782 37.7238L23.1572 37.2765C22.5709 36.9801 22.7219 37.1249 22.4736 36.8312C20.3435 37.7667 12.6678 36.6657 10.6281 35.9163C7.88343 34.9084 4.48919 32.5734 1.54893 34.4688C0.991291 34.8282 0.943979 34.9079 0.781311 35.4995C1.51066 35.0242 1.87959 34.4657 3.0576 34.3819C4.48866 34.28 5.16538 34.4761 6.26153 34.6565L6.26206 34.656ZM40.247 10.7953C40.8811 10.9825 40.7525 10.8149 41.4659 10.6236L42.0422 11.2478L40.5128 11.3135C39.9737 10.953 40.3846 11.4547 40.247 10.7953ZM44.4875 1.34263C45.1961 1.58362 44.8208 1.25419 45.1605 1.73412C45.0621 1.78945 45.3588 2.39298 44.5582 1.87685C44.344 1.73877 44.4715 1.67516 44.4875 1.34263ZM40.2842 2.39918L40.247 10.7953C39.39 10.9484 39.5841 10.7306 39.3709 11.5079H43.024C42.8045 10.7068 43.0033 10.9137 42.1107 10.8413V2.23473C41.6142 2.4721 41.7976 2.98978 41.8146 3.72725C41.83 4.39646 41.8396 5.06308 41.8471 5.73228C41.8598 6.96312 41.8348 8.19965 41.8237 9.42377L41.7158 10.2698C41.0475 9.98075 41.3367 10.8356 41.2022 9.45739L41.1937 2.83825C41.417 1.30229 42.3733 2.17681 42.3765 2.17836H44.6225L44.8857 3.50384L45.5363 3.51108V1.28988L44.488 1.34263C43.1569 1.83962 38.5023 1.64206 37.3173 1.28988C37.5927 2.02114 37.2333 1.51794 37.7729 1.95391L40.3841 1.89185C41.1262 2.87859 40.5659 2.06044 40.2847 2.39918H40.2842ZM13.8974 2.17836C13.8458 2.14526 13.7634 2.04958 13.7363 2.08992C13.6002 2.29265 13.5561 2.09147 12.9001 1.41451C15.1971 1.39072 17.7631 1.22161 20.1069 1.73412C18.9465 2.3123 16.1588 1.7367 14.8394 2.30713L14.8378 6.95226L14.8415 10.3981L16.0812 11.0632C15.6697 9.75217 15.8526 7.62095 15.8526 5.95518H18.1374C18.2995 5.53886 18.358 5.46388 18.3394 5.0667H15.8382L15.8526 2.17887C16.4512 2.45814 18.8752 2.17887 20.1909 2.17887C20.571 2.87756 20.5147 3.31352 21.1042 3.73397C21.4189 3.09528 21.1042 2.17474 21.1042 1.06853C19.5147 1.81066 16.726 0.960962 15.8653 0.817708C14.5363 0.595846 14.3397 1.18231 12.1904 1.28264C11.0129 1.33745 11.5568 1.07267 11.0576 1.73515C11.5296 1.73515 12.1622 1.68705 12.6098 1.77601C13.1361 1.88047 13.1191 2.03355 13.8984 2.17939L13.8974 2.17836ZM31.1976 6.3989L31.2641 6.10464C31.3188 5.62833 31.2561 6.07619 31.6941 5.96656L31.5857 5.51094C31.6298 5.04239 31.7717 4.93637 30.9398 4.79053C30.8712 4.77864 30.7729 4.80708 30.7128 4.80346C30.6469 4.79932 30.5485 4.83087 30.4667 4.84483L30.4656 4.84277C30.5065 4.76933 30.5772 4.58057 30.5847 4.61987C30.5911 4.65504 30.6681 4.46576 30.6719 4.41249L30.4401 3.56952C29.9361 2.725 30.0685 2.79791 29.2658 2.19904C28.5168 1.63999 29.228 1.95391 28.3504 1.76308C28.008 1.68861 27.6561 1.6674 27.2691 1.63017C27.6242 1.97666 27.2404 1.71446 27.6992 1.97356C27.7029 1.97563 28.1319 2.15508 28.1824 2.17887C27.5626 3.43609 27.9538 8.69923 27.9538 10.62H29.0957V3.73397C29.6331 4.33543 30.4964 5.96035 31.1976 6.39942V6.3989ZM13.9144 22.3052C14.8287 22.9791 14.8665 22.8332 15.3183 23.85C15.7803 24.212 16.1093 25.1335 16.2683 25.946L14.6863 25.8974L14.7176 27.5016L15.9334 27.86C15.5288 28.2308 16.2178 27.9779 15.178 28.2924C14.9707 28.3549 14.5321 28.3689 14.2541 28.4444C14.0962 29.0267 14.0616 29.2393 13.5688 29.5098L14.4045 29.8397L14.5023 30.3227C15.1482 29.9742 14.8356 30.0916 15.2848 29.4379C15.6729 28.8737 15.1849 29.5827 15.4799 29.1783C15.9126 28.5851 16.0556 28.3125 16.2093 27.7716L16.3826 26.6126C17.0604 26.1451 16.6521 27.3796 16.9237 26.4202C16.9243 26.4182 17.5234 25.6068 17.6791 24.8357C17.0184 22.0854 13.8958 21.4353 13.3403 20.9983L12.9984 21.1664L12.4461 21.2812C12.6885 21.7001 12.3313 21.3397 12.7236 21.6515L13.9144 22.3042V22.3052ZM68.8431 14.6336C69.9148 14.9977 69.5007 14.9719 70.1965 15.3199C70.4522 14.8214 70.2773 14.9424 70.8509 14.7391C71.1821 14.6218 71.1321 14.7035 71.508 14.6905C71.7249 16.1215 71.5893 18.804 71.5473 20.4595L71.6371 20.899C72.1134 22.7169 71.6031 25.9026 71.4766 27.844C70.642 27.7033 71.0896 27.6464 70.1279 27.8998L70.0046 29.395C69.5751 29.2419 69.3008 29.1938 68.9297 28.9548C68.9632 29.758 69.0047 29.0572 68.598 29.3582V31.1528C69.0828 31.3498 69.1142 31.416 69.633 31.2676L70.1965 31.0002C71.205 32.2212 72.6929 31.4915 73.3909 32.3883C73.6285 32.0857 73.6211 32.863 73.6211 31.7217C73.0134 31.6725 72.2293 31.4801 71.7945 31.2774V15.5056L72.1608 15.0613C72.1693 14.6942 72.1358 14.8788 72.2309 14.5659C72.2474 14.5116 72.3755 14.3451 72.3894 14.237C72.4016 14.1429 72.4616 14.1284 72.4946 14.072L72.258 14.2442C70.9939 14.54 69.8728 14.0384 68.4114 14.2323L68.8425 14.6321L68.8431 14.6336Z" fill="#FEFEFE"/>
<path fill-rule="evenodd" clip-rule="evenodd" d="M62.6471 13.2851C62.6737 13.3394 62.7194 13.3601 62.7332 13.4449L63.6433 14.8728L63.1559 16.3974L62.8906 17.2838C63.6146 16.7273 63.2914 16.4227 64.0309 15.0626H68.4617L68.4729 14.4585L68.8423 14.6339L68.4112 14.2341C69.8726 14.0402 70.9932 14.5418 72.2578 14.246C72.3429 13.4351 76.2432 13.3772 77.0555 13.4196C78.0437 13.4708 77.7667 13.7118 78.7773 13.6704C79.9426 13.7211 80.4609 14.1725 81.4156 13.7299C79.3078 13.6864 77.595 12.2575 73.7117 13.1512C69.9815 14.0096 68.8668 13.7066 64.9415 13.733C63.4807 13.7428 63.6215 13.7697 62.6471 13.2856V13.2851ZM21.1051 7.06521L21.3337 7.51049C21.1423 7.51256 20.4002 7.46498 19.9622 7.26018C20.4438 7.95214 19.8399 7.64805 20.8754 7.73183C20.8015 8.59394 20.2019 9.64274 19.9622 10.5979C20.8095 10.8405 20.7085 10.5783 20.9722 9.72807C21.0174 9.58275 21.0647 9.31383 21.1375 9.14627C21.6457 7.98059 21.1604 8.98543 21.5607 8.47292L22.0162 7.9537L21.8897 7.28656L22.104 7.28604L22.2459 6.6851L22.9641 4.85435L23.4181 5.92333C23.5616 6.3536 23.628 6.63339 23.8736 7.0647L24.115 7.44791L24.1639 7.95318C24.1974 8.73616 24.6535 9.9277 24.9863 10.6414L25.798 10.752L25.924 10.0275C25.2988 9.52535 24.4589 6.20983 23.6589 4.33151C22.7036 2.0891 24.1336 3.98966 23.6163 1.30508C22.9689 1.7364 23.173 1.6733 22.8344 2.52765C22.6127 3.0867 22.4442 3.48491 22.2751 3.98294C21.902 5.0819 21.668 5.97401 21.1056 7.0647L21.1051 7.06521ZM18.3637 13.8819C19.4497 14.3127 20.7346 14.065 21.2513 15.2007C21.4799 15.2643 21.4139 15.1608 21.6999 15.346L22.0045 15.3237C22.9184 14.3644 22.5399 14.503 24.1182 14.3654L27.623 14.4016L30.518 14.5242C31.5881 14.1963 31.1544 14.7828 32.52 14.1979L33.0851 14.5175C33.8756 13.5395 32.9512 14.3199 34.0505 13.9528L33.7905 17.0614C34.2801 16.7847 34.1472 17.0749 34.1329 15.0491C34.1233 13.7283 34.2594 13.8379 32.9958 13.7107C28.7771 13.2861 31.0752 13.7433 28.4129 13.7319C25.0639 13.7174 21.7122 13.7293 18.3631 13.7293C17.9974 14.0267 18.168 13.689 18.3631 13.8819H18.3637ZM38.6009 26.0207L43.9371 25.941C44.0025 26.709 44.5623 27.6953 44.8504 28.3903C45.1832 29.1929 45.5473 29.9309 45.7637 30.8339L45.5351 31.1499L46.2469 31.2973C45.7365 30.4021 46.9209 30.3736 47.3149 29.9449C47.1235 28.5796 46.0826 27.1264 45.6733 25.5035L45.3176 25.5889C44.0179 25.1244 39.8093 26.0946 38.3942 25.2806L38.5999 26.0207H38.6009ZM42.2153 14.3815C42.337 14.547 41.7278 14.7812 42.0042 14.3613L42.1812 14.3515C42.1839 14.3525 42.2142 14.3804 42.2153 14.382V14.3815ZM39.1426 20.1887C39.6461 20.1887 39.544 20.0532 39.544 20.5L39.6365 20.9468L40.0798 20.8703C39.9342 20.7653 39.7736 20.334 39.7625 20.3185L40.2276 20.4017C40.3515 20.2466 39.5823 20.0397 40.7411 20.3738C41.0994 19.8448 41.092 20.4079 40.781 19.5872C40.7587 19.6379 40.7337 19.6767 40.7151 19.7403C40.6247 20.0439 40.2032 19.8592 40.1357 19.8427C40.5301 18.6025 40.7481 18.4034 41.9511 17.9168L41.9266 17.3717C42.6645 17.3474 42.3785 17.5051 42.9664 17.7497L43.6346 17.8827C43.6846 17.8982 43.876 17.9871 43.9382 18.029C43.7298 17.0128 43.3725 16.1869 42.8218 15.5073C42.5778 16.0969 42.69 15.7913 42.4444 15.9645C42.0994 16.2076 42.4077 16.0142 41.9957 16.2484L41.6645 14.8159L42.5677 14.6199C42.6001 13.7666 42.7729 14.0846 42.7963 13.0638C40.9984 13.5308 40.6019 16.1755 39.8608 18.2048C39.6067 18.8999 39.249 19.4315 39.1432 20.1897L39.1426 20.1887ZM58.5219 35.7205C58.5607 35.7386 58.6309 35.7159 58.6447 35.7614L60.1082 36.141C59.6787 37.106 59.8291 36.6654 59.8913 37.5187L59.8945 37.7711C60.1651 37.9123 60.2603 38.0054 60.7568 38.1186C61.9257 38.385 61.1214 38.2107 61.4053 38.0633C60.9226 37.0005 60.9646 37.5958 60.3878 36.9302C60.6547 36.5532 60.5744 36.4301 61.291 36.0732L61.4255 36.3789L62.0645 36.7378C62.0996 36.7647 62.1618 36.8304 62.191 36.8542C62.2203 36.8779 62.2718 36.9379 62.3154 36.9762L62.7199 37.5808C62.7625 37.5306 62.8231 37.3636 62.8497 37.4318C62.8677 37.4794 62.964 37.3987 62.9868 37.4044C63.0155 37.4111 63.0852 37.4639 63.1314 37.4985L63.3042 37.2193C63.3759 37.0946 63.5258 36.8273 63.5397 36.7983L63.714 36.1912C64.0628 35.1129 63.8097 36.2144 64.715 35.2773C64.715 34.6919 64.8665 34.8119 64.2775 34.8988C63.9447 35.3451 64.8144 35.3865 63.6417 35.2499C63.4881 35.2318 63.2999 35.0363 63.2223 34.9686C62.8619 34.6511 62.696 34.3278 62.5413 34.0713C62.065 34.2673 62.2521 34.2146 61.9725 34.3878C61.9188 34.4209 61.8471 34.4742 61.8029 34.5026C61.7588 34.5311 61.6695 34.6645 61.6382 34.619C61.6068 34.574 61.5318 34.7002 61.4734 34.7328C60.2268 34.453 60.9327 34.59 60.5946 34.2151C59.1008 34.364 60.2369 34.2503 59.7914 33.9446C59.2768 35.041 59.1769 34.875 58.5225 35.7216L58.5219 35.7205ZM88.6916 29.616C88.2966 30.2123 88.1706 30.3654 87.5874 30.8334C88.0228 31.3024 86.8788 31.2693 88.4619 31.1825C87.8059 30.717 89.2843 31.2487 89.2864 31.2497L89.4491 31.7219C90.6048 31.4131 91.2278 30.6157 91.745 29.5834C92.1714 28.7327 92.5291 27.296 92.3287 26.4153C92.1996 25.848 92.3723 26.2648 92.1166 26.0315C91.6244 24.8105 91.5771 25.2987 91.2926 25.1327C90.549 26.7923 90.8498 28.381 89.6054 30.0209C89.0727 29.7334 89.4491 29.8451 88.6921 29.616H88.6916ZM53.2033 23.7214C53.2591 23.7643 53.333 23.815 53.3772 23.8429C55.6343 25.277 53.2246 24.6109 54.6695 25.5108L54.7715 25.2356C54.8789 24.9724 54.7264 25.1839 54.9353 24.8969C55.932 24.7495 55.881 24.6807 56.7257 24.8193L57.7288 24.6331C59.1125 24.8907 59.2316 25.7507 59.9222 24.7919L61.0624 25.5009C61.4314 24.959 60.4888 25.0577 61.7477 25.0577C60.9535 23.9039 59.322 23.9065 57.8176 23.5497C57.0244 23.362 56.3254 23.2632 55.6072 23.0346C54.8513 22.7936 54.1443 22.5759 53.2522 22.3923C53.1869 23.0181 53.1969 23.015 53.5834 23.5466L53.2039 23.7209L53.2033 23.7214ZM55.7603 12.8409C55.5243 13.7842 55.8703 13.886 55.04 13.8374L54.5477 13.8105C54.4127 13.6269 54.2431 13.1698 54.2235 13.132C53.9306 13.3187 53.9842 13.3953 53.9842 13.0627C52.8998 13.0627 53.551 13.0674 53.299 12.8403H52.6138C52.4793 13.1362 52.255 12.6536 52.8424 13.507L52.6138 14.1736C50.9398 14.1736 51.5804 14.519 51.9286 14.8402C50.5305 14.8707 50.8946 15.0207 50.6177 15.4458C50.5932 15.483 50.4933 15.5963 50.4646 15.6351L49.7963 16.5246C49.05 17.2936 49.4487 17.1876 48.9601 17.8527L49.6214 18.7939C50.0292 19.0297 49.2844 18.4107 50.7389 18.9361C50.8037 18.9594 50.884 19.0163 50.9542 19.0607C50.5512 19.3472 50.9898 19.3985 50.1477 19.2252L51.0153 19.6446C51.2402 18.4246 51.5405 18.4846 52.0157 17.5356C50.8154 18.3641 51.5479 18.5674 50.5459 18.2886C50.5358 18.2695 49.8585 18.4298 50.5267 17.5005L52.2544 15.9562L52.4665 15.6718C50.6926 15.0445 52.6755 16.4082 51.061 15.5518C51.5288 15.0719 50.9196 15.5363 51.4709 15.2736L52.7302 14.5625C52.9466 14.7011 53.046 14.8071 53.2995 14.9038L53.1401 14.2532C53.1156 14.1674 53.0385 14.17 52.9907 14.126C53.9901 14.4187 53.3644 14.3872 54.2968 14.8061L55.4839 14.9928L55.167 14.4513C56.2882 13.8385 56.1085 13.8426 56.3015 12.6185L55.8884 12.7224C55.8645 12.7374 55.8028 12.8016 55.7592 12.8409H55.7603ZM71.6364 20.8987L71.5466 20.4591C71.2159 19.9048 71.268 19.3297 71.1872 18.6139C71.1075 17.9101 71.0197 17.5693 70.9342 16.839C70.9964 16.8814 71.1899 16.7873 70.9629 16.9331C70.9602 16.9347 70.9326 16.9637 70.9278 16.9642L70.2069 16.7749L70.1176 27.4015C70.1798 27.3498 70.2654 27.1884 70.2962 27.2381C70.2962 27.2386 70.8991 26.8037 71.2239 26.1691C70.3457 25.8774 71.2366 26.5916 70.831 25.9472C71.848 24.5675 71.1181 25.7331 71.4153 23.2839C71.5891 21.8503 71.1835 21.4459 71.6364 20.8998V20.8987ZM3.87237 31.1416C3.27698 31.8961 1.86082 32.0751 0.781677 31.7606C0.785398 31.7684 0.907134 32.2685 1.01026 32.3885L11.7453 32.3911C12.5416 32.3952 14.1412 32.3921 14.4835 31.7219C14.3661 31.3335 14.1997 31.2181 14.3352 30.9125C13.4283 30.9223 13.5618 31.0811 12.657 31.4126C11.985 31.9329 9.75288 31.786 8.54456 31.8113C6.35811 31.8574 6.22627 31.4602 4.8925 30.685L4.36091 30.9466C4.2817 30.9834 4.15305 31.2885 4.03451 31.0837C4.00899 31.0392 3.92819 31.1261 3.8729 31.1416H3.87237ZM23.3872 31.1525C22.9099 31.4845 23.2272 31.1018 23.2937 31.6024C23.5196 32.2292 27.1504 31.8651 27.9536 31.8641C28.7377 31.8625 29.684 31.9024 30.4489 31.8491C31.5796 31.7705 31.7115 31.3686 32.1426 32.6114C32.2356 32.886 31.9289 32.7324 32.5206 33.0556C32.5206 31.3692 32.6519 29.3041 32.9772 27.9466C31.5031 28.3293 32.3143 29.0337 30.9221 31.0563L26.3966 31.1395C26.3626 31.1385 25.6715 31.063 25.4562 31.0537C24.7375 31.0232 24.0756 31.0392 23.3867 31.1525H23.3872ZM29.0966 19.0607C29.517 19.9658 29.4655 20.8263 28.9211 21.5276C27.7638 21.5416 26.6002 21.5467 25.4424 21.5385L22.6876 21.5964C21.7802 21.8348 22.4075 21.4412 21.8557 22.1694L22.6733 22.1808C23.0752 22.7419 22.4171 23.6361 22.7132 24.3937C22.9997 25.126 22.5128 24.6657 23.257 24.8328C23.2368 24.2789 23.2272 23.8083 23.2315 23.2684C23.232 23.2146 23.2363 22.6638 23.24 22.6473C23.4101 21.8891 23.2522 22.353 23.6153 22.0675C24.9071 22.293 27.177 21.9501 28.1514 22.1999C29.7802 22.6173 27.993 24.3792 30.0082 24.8359V18.3941C29.2762 18.7711 29.6749 18.4262 29.096 19.0607H29.0966ZM81.3832 21.7262L81.4496 20.8615C81.9578 20.1457 81.2976 20.6629 82.297 20.4514C82.2359 20.4224 82.1375 20.3237 82.1088 20.3754L80.4497 18.8384C80.7458 18.2979 80.5773 18.7039 81.1498 18.1107L80.2796 18.3926C80.412 17.5636 80.2105 16.581 80.4726 15.7292C80.8287 15.5249 79.9032 15.3837 81.1551 15.6247L80.8489 15.316C80.3498 15.104 80.4253 15.6097 80.404 15.0755L80.3822 14.8392C80.0127 15.0264 79.9298 14.9209 79.4126 15.8104L78.7513 17.7963C78.7651 18.5007 79.3164 18.3646 78.6449 19.7258H79.3302V21.0585C80.4141 20.8351 79.5215 20.4571 80.7001 22.1694L81.3837 21.7252L81.3832 21.7262ZM3.29346 17.9975C3.29346 18.9051 3.17492 18.8637 3.52205 19.4569L4.33805 18.5317C4.73196 18.0957 4.38483 18.4629 4.82924 18.1386L5.34967 17.727C6.47134 19.552 5.38742 19.9394 6.26189 20.8181C7.18687 19.7817 6.21192 16.1936 6.51759 14.6504L6.16142 14.1198L4.12913 14.1989C4.54537 15.0584 4.61979 14.9441 4.55866 15.8037C4.45925 17.2005 4.61714 16.915 4.6788 17.4203C4.26044 17.7575 3.98294 17.9902 3.7214 18.3284C3.59435 17.8904 3.63422 18.241 3.29293 17.9969L3.29346 17.9975Z" fill="#FEFEFE"/>
<path fill-rule="evenodd" clip-rule="evenodd" d="M22.0054 15.3233L22.3297 18.9273C22.2904 19.5397 22.3116 19.3607 22.4477 19.973C22.386 20.0165 22.2058 20.0765 22.1729 20.0904L21.8454 20.2311L21.863 21.2784L23.1919 20.9045L23.3201 15.721C23.5008 14.8154 23.3546 15.4101 23.6162 15.0771C25.8925 15.0207 26.4629 14.908 28.6227 15.301C29.368 15.4365 29.2771 15.5627 30.0097 15.7287C30.3717 15.3072 29.8215 15.6527 30.6933 15.5063L29.7673 14.7725L30.5189 14.5232L27.6239 14.4006C28.2549 14.5708 28.3766 14.4332 28.9869 14.8397C28.055 15.1531 27.5303 14.9281 26.3619 14.7678C24.4991 14.5124 23.9941 14.9902 24.119 14.3644C22.5413 14.502 22.9192 14.3639 22.0054 15.3227V15.3233ZM47.2722 4.66406L47.1355 5.51014L47.5454 5.28776C47.5805 5.26242 47.7734 5.12485 47.8197 5.06538C47.9005 6.01334 48.1955 6.11677 48.2763 7.06472L46.9064 6.65875C46.8697 6.70168 46.6704 6.90233 46.6066 6.99129L46.2228 7.6486C47.6703 7.4919 47.2068 7.3352 48.2615 7.18419C48.2737 7.18264 49.0636 7.15936 49.0737 7.15885C48.8101 7.85805 49.3762 7.26435 48.6059 7.9532C49.045 8.80549 49.4586 9.77619 49.6473 10.6983L50.7222 10.6352L49.7818 8.2242C49.5421 6.63341 49.6043 7.89166 50.0673 7.29279C50.0981 7.38485 50.2884 7.98992 50.2916 7.99561C50.5282 8.41296 50.6047 8.37314 50.7892 8.5469L49.2917 3.64215C48.935 3.01587 49.323 3.48908 48.7351 3.06552C49.1875 4.19914 49.4081 4.74733 49.2731 5.8313C48.1668 4.95988 48.8669 5.00384 48.0068 3.87901L47.2737 4.66303L47.2722 4.66406ZM80.928 39.4969C81.4484 39.379 81.4532 39.3247 82.0698 39.2745C82.0698 41.0494 82.1958 40.6827 81.8413 42.1623H82.9831C82.5446 41.4026 82.7545 40.1573 82.7545 39.2745C84.3488 39.4441 82.5738 39.5584 83.8411 39.4927C84.1797 39.4752 83.7715 39.3443 84.1245 39.4964C84.1245 40.5503 84.2584 41.428 83.8959 42.1618H85.0377C84.747 41.5723 84.8294 41.9239 84.8092 41.051H86.1791C86.1589 41.9239 86.2418 41.5723 85.9505 42.1618L86.9882 41.8169C86.5831 40.9361 87.1078 39.7203 87.3209 38.8298H85.951C86.1073 39.4834 86.1796 39.5077 86.1796 40.3848H84.8097C85.1398 39.8129 85.0383 39.7886 85.0383 38.8298H80.928V39.4964V39.4969ZM57.4107 6.47516C57.6574 6.63858 57.5782 6.64013 58.0497 6.80718C58.0646 6.81235 58.5361 6.84183 58.5526 6.84183C58.3075 7.0942 58.2342 6.39086 58.4048 7.45828L58.8981 8.39693L59.2368 7.68325C59.5786 8.0856 59.6185 8.09904 59.5828 8.81014C59.5318 9.83101 59.4228 9.57243 58.955 9.75396L58.9609 8.84324H58.0949C58.0949 9.59415 58.2305 9.72965 57.5808 10.3415C56.9116 10.9719 55.9313 10.9155 55.0515 10.7355C53.7108 10.4619 53.5285 9.30506 53.5285 7.53948C53.0841 8.41813 52.8757 8.38452 53.4381 9.26989C53.2223 9.50107 53.3552 9.46383 52.9953 9.51037L53.1022 10.2101C53.5875 10.614 53.4392 10.2768 53.3573 10.8219C54.4333 11.1467 54.2584 11.3835 55.7033 11.5842L57.1965 11.5475C57.9572 11.262 57.4208 11.7192 57.8674 11.0639C56.9977 11.1782 57.5676 11.1668 57.2917 11.037C57.7483 10.7329 57.2635 11.1105 57.7499 10.7004C57.8009 10.6574 57.9205 10.5214 57.9726 10.4785L58.7812 9.99754C58.9896 10.3539 59.4345 9.59674 58.7908 10.5349C59.3218 10.4139 59.1352 10.6657 59.4659 10.3968C60.4196 8.8903 60.082 6.04488 57.5282 5.50962L58.2363 6.32001C57.8775 6.61221 58.0529 6.34897 57.4123 6.47464L57.4107 6.47516ZM3.87271 31.1416C3.928 31.1266 4.00827 31.0392 4.03432 31.0837C4.15286 31.2885 4.28151 30.9834 4.36072 30.9467L4.89231 30.685C6.22608 31.4602 6.35792 31.8574 8.54437 31.8114C9.75322 31.786 11.9854 31.9329 12.6568 31.4126C11.6781 30.8758 8.79635 31.8677 6.71887 31.2084L6.33985 30.5335C5.92786 29.7339 6.01982 27.1264 5.64239 25.3298L5.34895 24.3586C4.58611 25.6442 5.15811 28.6463 4.75091 30.2516C4.10396 30.7336 3.82008 30.6871 3.29274 31.0542C3.8674 30.398 3.63775 30.8463 3.87271 31.1411V31.1416ZM55.5167 25.9468C56.3231 26.2695 56.6947 26.3134 57.4596 26.7861C58.2134 27.2526 58.3623 27.4889 59.0076 27.989C59.8524 27.642 59.4138 27.9549 60.4084 29.0989L60.7901 28.8201C61.7124 28.0604 60.0187 28.9049 61.0633 28.5724C61.0633 26.9361 60.8496 28.6696 61.622 27.9471C61.209 27.597 61.1659 27.4217 60.8321 27.0478C60.2899 26.4401 60.3946 26.8042 59.7407 26.3367C59.1108 25.8857 59.4877 25.8723 58.7408 25.4932C58.1098 25.1731 58.0524 25.3603 57.2943 24.9274L56.1503 25.1659C55.6517 25.6365 55.7277 25.3675 55.5161 25.9468H55.5167ZM53.3988 37.7184C53.5556 38.0535 53.865 37.7737 53.4769 38.3012C52.9629 39.0009 53.5413 38.4672 52.6152 38.6317C53.0602 38.8659 53.8496 39.1675 54.4163 39.305C53.1096 39.2078 53.6959 39.7146 51.9582 39.1923C52.3255 39.7906 51.6132 39.6034 52.3101 39.7193C53.504 40.328 56.4794 40.1635 57.8658 40.1635V40.3859C56.1817 40.3859 57.5702 41.1192 59.1549 40.54C60.2186 40.1511 59.4776 40.5152 59.8922 40.0104L59.4792 40.0146C60.1203 39.8056 59.8417 40.0777 59.9969 39.3774L59.2447 39.4633L59.0411 39.4912C58.1183 40.0037 56.1083 39.9096 54.8134 39.7193C54.8394 38.913 54.5635 39.4721 55.5363 38.7641C56.2327 38.2573 56.5341 38.114 57.5463 38.2495L58.8312 38.0018L58.9003 37.858C56.1253 37.1092 56.9195 38.9384 54.5306 37.7199C53.7491 37.6351 54.058 37.5187 53.0405 37.4975L53.3977 37.7179L53.3988 37.7184ZM3.2938 17.9975C3.63509 18.2416 3.59469 17.891 3.72227 18.329C3.98382 17.9908 4.26131 17.758 4.67967 17.4209C4.61801 16.9161 4.46012 17.2011 4.55953 15.8042C4.62067 14.9452 4.54624 15.059 4.13 14.1995L6.16229 14.1203L6.51846 14.6509L6.94799 14.4963L10.0722 14.6179C9.94034 14.4249 9.8723 14.2352 9.72026 14.0588C8.69641 14.1043 8.43486 14.1353 7.75548 13.733C6.28615 13.9305 4.6701 13.8038 3.06628 13.8762C2.49694 13.4816 2.6107 14.3965 2.6107 13.1119L2.153 13.3668L1.24078 13.2675C1.52359 14.3303 1.53848 13.9166 2.68141 14.3251C3.04874 14.4565 3.02322 14.4777 3.29434 14.6173V17.997L3.2938 17.9975Z" fill="#FEFEFE"/>
<path fill-rule="evenodd" clip-rule="evenodd" d="M55.8356 36.1649C56.0376 36.0268 55.9132 36.0356 56.4161 36.2151C57.6335 36.6495 56.5708 36.2239 57.1178 36.6092C56.3529 37.0332 56.0541 37.2877 55.0754 36.8869L53.528 35.9431C53.604 36.8336 53.629 36.6262 54.2132 37.1258C55.1398 37.087 54.3605 36.8605 55.2078 37.4982C55.1403 37.5623 55.6501 37.7852 54.6698 37.674L54.5322 37.7205C56.9211 38.939 56.1269 37.1098 58.9019 37.8586C59.4659 37.7857 59.081 37.5669 59.3357 38.0903C59.544 37.5126 59.2602 37.6611 59.8917 37.5194C59.8295 36.6666 59.6791 37.1067 60.1086 36.1417L58.6451 35.7621C58.6313 35.7165 58.5616 35.7393 58.5223 35.7212C56.6458 36.1737 56.9355 35.8572 55.3545 35.4988C55.5183 36.1629 55.3248 35.8251 55.8356 36.1654V36.1649ZM14.2282 16.5283C14.1809 17.3403 14.5248 16.9576 13.8481 17.3594C13.8311 17.3698 12.9348 17.5637 12.7349 17.5994C12.9811 17.7623 12.6212 17.8362 13.316 17.86C13.5695 17.8688 14.158 17.7163 14.4318 17.6558L13.9539 18.9683L14.8842 19.728C14.4929 20.0466 14.5679 20.0549 14.3685 20.3946C15.9676 20.3946 16.8766 16.5728 15.1223 15.0912C14.7167 14.7483 14.8507 14.8491 14.4828 14.8403L13.5355 14.6407C14.6051 15.6823 13.4515 15.9714 14.7768 16.0246L14.2282 16.5294V16.5283ZM13.8975 2.17817C13.637 3.66138 14.0251 5.04013 14.0251 6.74004C14.4988 7.1005 14.0203 6.86364 14.8374 6.95208L14.839 2.30694C16.1584 1.73599 18.9466 2.31159 20.1066 1.73393C17.7628 1.22142 15.1967 1.39105 12.8997 1.41432C13.5557 2.09077 13.5998 2.29194 13.7359 2.08973C13.7636 2.04888 13.8454 2.14507 13.897 2.17817H13.8975ZM61.9761 10.1569C63.2184 10.6529 62.9058 9.69872 62.8033 6.84296C62.7586 5.5997 62.6762 3.41315 62.8894 2.24953C61.5216 1.34347 61.6858 1.92269 60.3032 1.51155C59.1283 1.60826 59.5791 1.15677 59.4643 2.17817H61.9761V10.1569ZM86.8649 36.1665C86.3418 36.1665 86.6124 36.063 86.5401 36.6097C86.5188 37.7986 86.7235 36.7783 86.9106 37.6362C87.1471 38.7187 86.9706 36.648 86.8478 37.9584C86.8383 38.0588 86.4539 38.0557 86.9441 38.293C87.4023 38.5149 89.626 38.3872 90.2894 38.3872C90.7296 37.2034 90.5621 38.4487 90.821 37.6575L90.746 37.0544C90.2075 37.6068 90.1703 37.4987 89.1475 37.4987C89.4569 36.8714 89.3139 36.86 89.1475 36.166C90.6036 36.3211 89.3299 36.7023 90.0475 36.4649C90.4542 36.3304 90.2788 35.9575 90.2894 35.4993C89.0162 35.7879 89.4606 36.0501 88.9195 35.0551C90.0667 35.0551 90.1039 35.0799 90.9746 35.2775C90.7078 34.3057 90.9443 34.6109 88.0062 34.6109C88.7212 35.6493 88.4628 35.3008 88.4628 37.4987C87.1073 37.4692 87.2083 37.1729 86.8643 36.167L86.8649 36.1665ZM55.2328 15.7273C54.3854 15.811 54.9431 15.7516 54.2616 16.1446V16.3944C56.2168 16.3944 54.4545 16.5537 57.5931 17.3268C58.778 17.6185 59.9119 18.7278 60.3781 19.0604C60.6859 18.4134 60.3691 18.2619 59.9566 17.6832C59.0443 16.4047 60.039 17.3087 59.4648 16.0298L58.323 16.3934C57.5527 15.9108 57.2077 16.021 57.0843 15.2044L56.2242 15.0317C56.3045 15.1723 56.2986 15.3497 56.4751 15.4666L55.2333 15.7267L55.2328 15.7273Z" fill="#FEFEFE"/>
<path fill-rule="evenodd" clip-rule="evenodd" d="M2.15222 13.3674L2.60993 13.1124C4.04417 13.2763 4.0564 13.5334 5.57729 13.2913C6.93977 13.0746 6.952 13.3431 8.19008 13.6053L7.7547 13.7335C8.43408 14.1353 8.69563 14.1043 9.71948 14.0593C10.7386 14.2429 11.2223 14.2372 12.1648 14.6499C12.7331 14.8987 12.5726 14.802 13.043 15.1242C13.7176 15.586 13.5937 15.4717 13.7458 16.0033L14.1705 16.5908L14.2279 16.5288L14.7765 16.024C13.4513 15.9707 14.6048 15.6817 13.5353 14.6401L14.4826 14.8397C13.8787 13.4372 9.74872 13.4165 8.58984 13.2427C7.45489 13.0726 7.11254 12.634 5.4412 12.9309C4.08404 13.1719 3.16704 12.9986 2.82841 13.0524C2.20644 13.1512 2.4749 13.0426 2.15222 13.3684V13.3674ZM58.0947 8.84323H58.9606L58.8979 8.39692L58.4046 7.45828C58.2339 6.39086 58.3073 7.09471 58.5524 6.84182C58.5359 6.8413 58.0644 6.81234 58.0495 6.80717C57.5779 6.64013 57.6572 6.63858 57.4105 6.47515C56.7768 5.71648 55.1985 5.52203 55.0789 5.20501C55.0428 5.10882 54.9582 5.11295 54.8987 5.06589C55.2788 4.85437 54.2698 4.35893 56.1081 4.95987C56.4387 5.06796 56.8146 5.27638 57.1808 5.43256C56.5355 4.5901 56.2803 4.92212 55.1092 4.43133L54.416 4.07036C54.365 4.04191 54.2895 3.99278 54.2252 3.95503L54.4399 4.6201C54.3692 4.61544 54.273 4.61803 54.2289 4.60148C54.1896 4.58648 54.0886 4.58493 54.0455 4.56114L53.7074 4.2012C53.5851 3.91728 53.684 3.64784 53.7441 3.24083L53.2997 3.065C52.7718 2.98277 53.2747 2.76142 53.0259 3.2791C52.4193 4.54149 54.0099 5.64046 54.9742 6.10176C56.2447 6.70891 57.8751 7.35071 58.0947 8.84272V8.84323ZM25.9241 10.028C25.8369 9.13646 25.7248 9.15094 25.6721 8.17661C25.7072 8.26246 25.7965 8.26557 25.8428 8.39796C26.351 9.8517 25.1921 7.70134 26.3563 8.84065L25.072 4.98211C24.6376 3.55268 24.0726 2.78935 24.0726 1.0672C23.1492 1.0672 23.9753 1.02169 23.6159 1.3051C24.1332 3.9902 22.7032 2.08911 23.6584 4.33152C24.4585 6.20985 25.2984 9.52589 25.9236 10.0275L25.9241 10.028ZM34.6486 8.62034C34.6811 8.68498 34.7284 8.70205 34.7459 8.81376L34.6316 9.60501C34.6688 9.65724 34.7263 9.67069 34.7422 9.76275C34.7582 9.85532 34.8251 9.88738 34.8453 9.92513C34.8788 9.98668 35.0909 10.4257 35.0931 10.4304C34.9851 9.72189 35.328 9.88118 35.9457 9.83411C36.7633 10.0663 36.1929 9.97478 36.4024 9.73068C35.3195 9.20835 36.8617 10.2266 36.1073 9.58174C35.7671 9.29058 36.0085 9.51865 35.8463 9.28644C35.521 8.47295 35.4593 8.59034 35.546 8.51432C35.7086 7.33881 35.6411 6.25071 35.6491 5.06589C35.6539 4.29842 35.4062 2.33787 35.9457 2.07567C36.9951 1.75916 36.3354 2.20651 36.859 1.51144L33.8906 1.95569C34.5976 2.01413 34.3222 1.9531 34.8039 2.17807C34.8039 4.04605 35.109 6.92612 34.6481 8.61982L34.6486 8.62034ZM61.9764 10.1568L61.9296 10.8415C61.9328 10.8426 62.0907 11.7083 62.449 10.4609C63.0938 10.8291 63.0124 10.9465 63.762 10.9739C63.1156 9.7524 63.4212 3.49321 63.476 1.72503C64.0671 1.72141 64.587 1.72917 65.176 1.75916C66.9027 1.84708 66.3062 1.77003 66.774 1.34285L64.4882 1.56833L60.304 1.51196C61.6866 1.9231 61.5224 1.34388 62.8902 2.24995C62.677 3.41356 62.7594 5.60012 62.8041 6.84337C62.9067 9.69914 63.2187 10.6528 61.9769 10.1573L61.9764 10.1568ZM81.3839 21.7262C81.7188 22.3406 82.5263 22.4296 83.3555 22.6969C84.2353 22.9803 84.8743 23.2374 85.7233 23.5978C86.3835 23.2482 85.9056 23.8068 86.2565 22.9478C85.3495 22.4958 86.3708 22.5464 85.0891 22.4932L85.6286 21.9129C84.6207 21.2132 83.3135 21.2592 82.2966 20.4509C81.2977 20.6624 81.9574 20.1453 81.4492 20.861L81.3828 21.7257L81.3839 21.7262ZM37.0881 25.9101L37.7245 25.8661C37.381 27.8101 36.2216 29.433 35.9526 31.3232L35.2616 31.241C34.4844 31.4773 34.0623 31.6211 33.435 31.9443C33.435 32.8421 33.3813 32.0389 33.7162 32.3885C34.1575 32.0105 35.5699 31.679 36.1249 31.7354C36.7405 31.7979 38.0035 32.0426 38.4288 32.3885C38.7249 32.0508 38.6861 32.9166 38.6861 31.7219C38.0785 31.6728 37.2944 31.4804 36.8596 31.2777C36.9372 30.3701 38.2141 27.1637 38.6016 26.0202L37.9095 25.8889C37.3965 25.9825 37.0892 26.255 37.0892 25.5558L37.0881 25.5589V25.909V25.9101ZM69.5117 39.9412L69.2837 42.1624H70.4255C70.2863 41.5821 69.9216 40.3042 70.7323 40.5168C70.7674 40.5261 70.8359 40.5659 70.8721 40.5804L71.3388 40.8296V39.7188C71.2772 39.7348 71.1868 39.7131 71.1597 39.787C71.1336 39.8584 71.0231 39.8434 70.9885 39.8574C69.9195 40.2887 70.3123 39.9174 70.197 39.4969C70.971 39.1354 70.5749 39.1949 71.56 39.4721L71.7731 39.5305C71.7917 39.5326 71.8523 39.5186 71.8699 39.5186L72.2516 39.4969C72.2516 40.5509 72.3855 41.4285 72.023 42.1624H73.1649C72.746 41.4373 72.9448 40.2333 73.0431 39.5585C73.0825 39.2875 73.0649 39.2906 73.1649 38.8303H69.2831C69.4022 39.3283 69.5112 39.3412 69.5112 39.9412H69.5117ZM50.3312 23.3206C50.0793 23.7623 50.083 23.452 50.2435 23.9474L51.2328 23.7835L50.706 24.6141C52.1147 25.2114 53.9355 25.531 55.5175 25.9468C55.7291 25.3676 55.653 25.6365 56.1517 25.1659L57.2957 24.9275L56.7263 24.8194C55.8816 24.6808 55.9327 24.7495 54.9359 24.8969C54.727 25.1845 54.8796 24.9724 54.7722 25.2357L54.6701 25.5108C53.2252 24.611 55.6355 25.2771 53.3778 23.843C53.3337 23.815 53.2598 23.7644 53.204 23.7214C52.3125 23.5301 52.3742 23.7452 51.8171 22.9705C51.3306 23.4913 51.8431 23.2244 51.0308 23.378C50.984 23.3868 50.4301 23.3243 50.3318 23.3206H50.3312ZM75.4486 37.9423C76.0615 37.783 75.9403 37.9522 76.1934 37.3341C76.3199 37.0244 76.3619 36.7177 76.3619 36.1654L76.8573 37.9361C77.7897 37.6899 77.4102 37.5017 77.7573 36.4126C77.9551 35.7925 78.2639 35.2479 78.4165 34.6103H77.5032C77.9301 35.5086 77.2746 35.5112 77.2746 36.6096H77.046C77.046 35.5624 77.0051 35.6156 76.8175 34.8326H76.3608C76.2109 35.4579 75.9042 35.9611 75.9042 36.6096H75.6756C75.6756 35.5944 75.3306 35.31 75.6756 34.6103H74.3057C74.8128 35.3472 75.4236 36.8982 75.4475 37.9423H75.4486ZM87.3414 24.6141C87.8975 25.4948 88.8102 25.9463 88.9203 27.3105C89.9957 27.2578 89.3652 27.2743 89.4806 27.1042C89.1643 26.3626 89.2701 26.7918 89.6044 25.9013L90.2854 25.7746C90.2392 24.6694 88.8501 23.3672 88.0059 22.9664C87.4164 23.4261 87.6891 23.0367 87.4472 23.8559C87.3367 24.2308 87.3866 24.2267 87.3414 24.6141Z" fill="#FEFEFE"/>
<path fill-rule="evenodd" clip-rule="evenodd" d="M50.6172 21.7686C51.303 22.5024 50.8012 22.3545 51.8165 22.9704C52.3736 23.7451 52.3125 23.53 53.2034 23.7214L53.583 23.5471C53.1965 23.0154 53.1864 23.0185 53.2518 22.3928L52.6203 21.9459C52.2051 21.7272 52.1429 21.7815 51.7495 21.4567C51.194 20.998 51.0159 20.6008 51.0159 19.6446L50.1484 19.2252L49.7746 19.2841C49.8352 20.4064 49.8751 21.2167 50.6167 21.7691L50.6172 21.7686ZM16.081 11.0623L14.8414 10.3972L14.8376 6.9514C14.0206 6.86297 14.499 7.09983 14.0254 6.73937C14.0254 8.44651 13.7968 9.35154 13.7968 10.841C12.9042 10.9134 13.103 10.7065 12.8835 11.5076H16.7652V10.841L16.08 11.0618L16.081 11.0623ZM44.2753 32.3884H51.4646C50.7363 31.8666 49.8709 31.8558 48.4967 31.065C47.4989 30.491 48.6051 30.8199 47.1358 30.6125C45.9684 32.4531 45.2396 31.4969 44.2753 32.3884ZM25.9241 10.028L25.7981 10.7525L24.9863 10.6419L24.6971 10.7882C24.4016 10.843 24.383 10.8415 24.0725 10.8415V11.5081L28.4289 11.5257C29.5846 11.4879 29.0871 11.6829 29.5527 11.0639C28.6177 10.8518 28.4805 10.8415 27.2695 10.8415C27.1409 10.3047 26.7188 9.11365 26.3563 8.84111C25.1926 7.7018 26.3509 9.85215 25.8427 8.39842C25.7965 8.26602 25.7072 8.2624 25.6721 8.17707C25.7242 9.1514 25.8369 9.13692 25.9241 10.0285V10.028ZM78.8737 35.7205C78.8737 37.6366 79.0114 37.0786 78.417 37.9417H79.787C79.6615 37.4189 79.5743 37.2854 79.5589 36.609H80.9288C80.9134 37.2859 80.8257 37.4189 80.7002 37.9417H81.8421C81.5008 36.5164 81.5008 36.0349 81.8421 34.6096H80.7002C80.8571 35.2633 80.9288 35.2876 80.9288 36.1647H79.5589C79.5158 34.2885 79.3925 35.6709 79.787 34.6096H78.6451C78.7647 35.1077 78.8737 35.1206 78.8737 35.7205ZM60.1498 33.1202L61.2656 33.1176C61.5351 33.0959 61.3023 32.9573 61.76 33.0494C62.3363 33.1647 61.9275 32.8125 62.2241 33.3442L62.3384 33.8205L62.5712 30.7739C61.1184 30.6104 61.1678 30.673 60.1503 30.219V33.1202H60.1498ZM46.6781 5.0648C46.3028 5.39113 46.5394 5.15427 46.3118 5.79658C46.0731 6.47096 46.1024 6.412 45.7654 7.06518C45.8727 7.19912 46.2268 7.73025 46.2278 7.7318L45.5357 7.95883C45.2906 8.96988 44.8255 9.75131 44.6224 10.6429L45.5293 10.8632C45.5968 9.75648 45.6744 9.39964 46.2209 8.50185C46.4984 8.28826 46.4495 9.18295 46.4495 7.95366H48.6051C49.3754 7.2648 48.8093 7.8585 49.0729 7.1593C49.0628 7.15982 48.2729 7.18257 48.2607 7.18464C47.206 7.33565 47.6695 7.49235 46.222 7.64905L46.6058 6.99174C46.6696 6.90279 46.8695 6.70213 46.9056 6.65921L47.1353 5.51059L47.2719 4.66452L46.6776 5.06532L46.6781 5.0648ZM68.4629 15.062C68.5097 15.2901 68.4028 15.1939 68.5985 15.5026C68.8951 15.7328 68.8829 15.1546 68.8233 15.9034C69.4479 15.7685 69.2635 15.7504 70.0136 15.6102L70.2076 16.7749L70.9284 16.9641C70.9327 16.9636 70.9609 16.9347 70.9635 16.9331C71.1905 16.7873 70.997 16.8819 70.9348 16.839C71.0204 17.5692 71.1081 17.91 71.1879 18.6139C71.2687 19.3296 71.2166 19.9047 71.5472 20.4591C71.5892 18.8042 71.7248 16.1212 71.5079 14.6902C71.132 14.7026 71.1825 14.6214 70.8508 14.7388C70.2772 14.9415 70.4527 14.821 70.1964 15.3196C69.5006 14.971 69.9147 14.9974 68.843 14.6333L68.4735 14.458L68.4624 15.062H68.4629ZM40.7811 19.5867C41.805 20.576 41.8555 21.7205 42.7012 23.3754L42.9357 23.7813C42.9511 23.8057 42.9931 23.861 43.0244 23.8987L43.1972 23.9417C43.7341 23.0072 43.3928 22.0959 43.0308 21.0218C42.824 20.4089 42.8033 20.1866 42.5954 19.7366C42.1914 18.8626 42.3972 18.9195 41.6194 18.9019C41.5509 18.9531 41.15 19.204 41.1415 19.2107C40.8369 19.4517 40.9948 19.3141 40.7816 19.5861L40.7811 19.5867ZM81.6135 13.7505C83.17 13.6135 82.2918 13.5524 82.5672 14.1596C82.6278 14.1296 82.716 14.0158 82.7485 14.0675C82.7846 14.1249 82.9882 13.9481 83.1036 13.9C84.0068 13.524 84.1083 13.4899 84.7457 13.7293C84.3656 14.1358 84.4639 14.1404 83.4406 13.9062C83.0765 14.2516 83.2737 13.8757 83.4406 14.1772C86.3984 14.1575 86.3947 14.2325 87.8837 15.7281L88.6146 15.2642C87.3457 13.6698 87.4855 15.3532 86.4101 13.508L87.3223 13.8824C86.6461 12.5512 83.1743 12.8884 81.8926 13.5628L81.6141 13.7505H81.6135ZM87.779 39.9064L88.1649 42.0371C88.3207 42.0252 88.9001 42.0299 88.9368 42.0231L89.5779 41.8308C89.6369 41.8085 89.7092 41.7568 89.7735 41.718H88.6923C88.5179 41.445 88.2808 40.3294 88.999 40.5166C89.0506 40.5301 89.2371 40.6356 89.2882 40.6599C89.328 40.6785 89.4094 40.7287 89.4429 40.7458C89.4774 40.7633 89.5476 40.8094 89.6055 40.8295V39.7187C89.05 39.9142 89.1383 40.2441 88.4637 39.9405C88.7321 39.4472 88.6114 39.1001 89.5316 39.3355C90.0244 39.4616 89.5173 39.9271 90.2945 39.5087L90.5188 39.6235C90.7357 39.9043 90.6969 39.6494 90.8558 40.1634C90.9308 40.4065 90.9398 40.5932 90.9627 40.829C91.01 41.311 90.9856 41.6989 91.0451 42.1617H91.4321C91.077 41.4418 91.0876 41.7015 91.4252 40.829C91.2886 40.1433 91.0159 39.9473 90.7479 39.2755C91.7021 39.5914 90.8968 38.9336 91.6601 39.7942C91.5969 39.261 91.549 39.3205 91.4316 38.8302H87.5499C87.67 39.3313 87.7247 39.3236 87.7784 39.9064H87.779ZM55.4851 14.9927L56.224 15.032L57.0841 15.2048C57.208 16.0214 57.5524 15.9112 58.3227 16.3937L59.4646 16.0301C59.0159 14.911 57.4248 14.489 56.5987 13.1837L56.3749 12.7576C56.3601 12.7296 56.3298 12.6629 56.3026 12.6184C56.1097 13.8426 56.2894 13.8384 55.1682 14.4513L55.4851 14.9927ZM49.705 38.8307C50.7608 39.0071 51.2333 39.4291 52.3109 39.7192C51.614 39.6033 52.3268 39.7906 51.959 39.1922C53.6968 39.714 53.1099 39.2077 54.4171 39.3049C53.8504 39.1679 53.061 38.8659 52.616 38.6316L52.5156 38.4708C51.2185 38.0379 51.4465 38.4315 51.2881 37.2518L51.7017 37.2741L49.1899 36.0898C48.4552 36.2625 49.0256 35.8617 48.6812 36.3866C49.3361 36.7429 50.3695 37.271 50.7895 37.7183C50.757 37.7829 50.5258 38.0462 50.4854 38.0648L49.5115 38.3859C49.6981 38.8255 49.3696 38.6968 49.705 38.8302V38.8307ZM21.3454 31.3691L22.2449 31.2791C22.2646 31.7529 22.3315 31.9033 22.3321 31.9044L22.5532 32.2343C22.5713 32.1976 22.6558 32.3341 22.7021 32.389H27.2701C28.1084 32.389 28.9462 32.39 29.7845 32.3864C31.0152 32.3807 31.1932 32.5436 32.1437 32.6108C31.7126 31.3676 31.5813 31.7694 30.4501 31.8485C29.6856 31.9018 28.7389 31.862 27.9548 31.8635C27.151 31.8651 23.5202 32.2286 23.2948 31.6018C22.5086 31.6365 22.474 31.7694 22.1784 30.9916L21.5384 31.004L21.346 31.3691H21.3454ZM75.22 41.1967C75.6857 41.5422 75.5438 41.2981 75.7585 41.9404C76.0211 42.2057 75.1084 42.1628 76.3614 42.1628C76.1041 41.6208 76.3614 39.9933 76.3614 38.8307H75.4481C75.666 39.7404 75.6761 39.8738 75.6761 41.0519C75.1498 40.4629 74.6071 39.6773 74.5343 38.8307H73.3924C73.6173 39.7699 73.8522 41.2298 73.3924 42.1628H74.3057C74.0494 41.6435 74.0861 41.8799 74.1175 41.1119L74.0776 39.9416C74.1132 39.9814 74.1701 39.9891 74.1845 40.06L75.219 41.1972L75.22 41.1967ZM78.8737 41.4879C78.2597 41.7873 78.644 41.6989 77.7318 41.7185V39.4973C79.241 39.4973 78.6222 39.4032 79.1017 40.3925C79.4505 40.6925 79.4127 40.4851 79.3314 40.8311L78.8737 41.4879ZM77.5234 38.9315L77.8482 38.7454L78.6058 38.9124C78.6504 38.8509 78.7206 39.0081 78.7806 39.0531C78.2076 39.4151 78.2214 39.2843 77.8147 39.2527L77.5234 38.9321V38.9315ZM79.3314 40.8311C79.9411 40.8787 80.1075 41.312 79.6429 39.879C79.3388 38.9403 79.292 40.0543 79.5589 38.8307C78.1666 38.718 78.2001 38.1574 77.5234 38.9315L76.8217 38.81C77.1497 40.2115 77.1497 40.7814 76.8191 42.1628C77.5574 42.1628 78.804 42.3226 79.2043 41.8178C79.8646 40.9852 79.4776 41.6203 79.3319 40.8311H79.3314ZM63.4085 30.9538C63.8577 30.8623 63.9135 30.688 64.3898 30.9766C65.604 31.7115 64.3064 31.5025 64.2612 31.5284C64.2612 32.0931 64.1208 31.9432 64.7167 31.9432C65.1867 31.8165 64.7066 31.5641 65.402 31.9442C65.2568 30.2453 64.5121 29.5348 63.8035 28.1689L62.946 28.1793L62.466 29.5006C63.2043 29.6444 63.0853 29.6092 62.9481 30.6006L63.409 30.9538H63.4085Z" fill="#FEFEFE"/>
<path fill-rule="evenodd" clip-rule="evenodd" d="M22.1777 30.992C22.4732 31.7698 22.5078 31.6375 23.294 31.6023C23.2276 31.1022 22.9102 31.4844 23.3876 31.1524V28.5495C23.0798 28.0003 23.1531 29.2596 23.1186 27.8575C22.7316 28.1192 22.9692 28.0985 22.3829 28.1037C22.3717 27.9998 22.3217 27.5891 22.2994 27.5162C22.1575 27.0544 22.2431 27.3274 22.0187 27.0642C21.8938 28.3421 21.9363 29.2813 21.7014 30.6119L21.9964 30.7774C22.0235 30.7009 22.1011 30.9367 22.1777 30.992ZM37.2665 35.4587C37.5823 35.9738 37.1533 35.6858 37.7795 35.8301C38.1356 35.9118 38.1037 35.859 38.4456 35.8378C38.9384 35.8068 39.5018 35.6951 40.0563 35.6635C41.0243 35.7587 41.7553 35.6698 42.6686 35.8461C43.601 36.0261 44.3298 36.2593 45.0799 36.3157C45.8316 36.4279 45.6397 36.4419 45.9687 35.9661C42.1417 34.5336 41.1455 35.135 37.267 35.4587H37.2665Z" fill="#FEFEFE"/>
<path fill-rule="evenodd" clip-rule="evenodd" d="M34.45 35.98L35.1815 36.6032C33.9945 36.8794 34.5192 36.0493 34.5239 36.0292L32.8494 36.2097C32.9217 36.7485 33.1487 36.4988 32.7718 36.898C32.0573 37.6546 32.3864 37.0568 32.1583 36.8313C31.8293 37.1773 31.993 36.9156 31.7416 37.1793C31.4109 37.5269 31.5624 37.2259 31.3785 37.7198C32.5443 37.6944 33.6319 37.0749 34.3469 36.6089C34.1667 37.2662 34.2539 36.9688 33.8903 37.4974C35.602 37.3588 35.2581 36.3793 38.2781 35.9904C38.6523 35.9423 38.8389 35.9821 39.1504 35.9547C40.1232 35.8694 39.7814 35.917 40.0557 35.6625C39.5013 35.6941 38.9378 35.8063 38.445 35.8368C38.1032 35.858 38.1345 35.9107 37.7789 35.829C37.1527 35.6853 37.5817 35.9733 37.2659 35.4577C36.2394 35.6858 35.6015 36.0928 34.4506 35.9795L34.45 35.98ZM68.141 37.0733L68.444 37.62C68.5918 37.8666 68.4993 37.7601 68.6566 37.9421H69.5109L69.7395 36.8313C70.7819 37.5103 70.0292 37.6613 71.1094 37.9421V35.4986C70.4492 35.9692 70.6528 35.6796 70.6528 36.8313L70.0218 36.0938C68.9432 34.9483 69.2828 35.9966 69.2828 37.4974H68.8262C68.654 36.7791 68.4381 36.5231 68.3696 35.7204C67.3718 35.9795 67.4749 36.9782 66.9996 37.9416C68.0107 37.8341 67.4063 38.0352 68.1415 37.0728L68.141 37.0733ZM14.5014 30.3228C14.4201 30.6528 14.5104 30.5705 14.3345 30.9129C14.1989 31.2185 14.3653 31.3339 14.4828 31.7223C15.6305 31.7223 14.9245 31.7817 15.1664 31.4999C15.9436 31.2982 15.6433 31.4011 16.1493 30.8333C16.4832 30.5762 16.2052 30.7945 16.4034 30.4407C16.0845 30.0115 16.7803 30.3461 15.6964 29.8941C15.7533 29.8517 15.8336 29.8077 15.875 29.7788C17.4294 28.685 15.7794 29.3159 17.1961 28.835C16.7676 29.6159 16.9781 29.0191 16.7665 29.9448C16.8 29.9313 17.2917 29.8517 17.4502 29.7224L17.2689 29.2782L17.5012 28.4564C16.5879 28.1683 16.4348 28.3106 16.321 27.8917C16.3019 27.8218 16.2498 27.8079 16.2089 27.7712C16.0552 28.3121 15.9122 28.5847 15.4795 29.1778C15.1845 29.5823 15.672 28.8732 15.2844 29.4375C14.8352 30.0911 15.1478 29.9732 14.5019 30.3223L14.5014 30.3228ZM31.1972 6.3985C31.328 7.16337 32.0074 7.7819 32.6543 8.71175C32.9972 9.20461 33.8217 10.4566 34.3475 10.6201C35.2761 10.7556 34.1566 10.7369 34.6765 10.6537C34.7063 10.649 34.8036 10.6397 34.8365 10.6335C34.87 10.6268 34.9646 10.5937 34.9949 10.5865C35.0258 10.5787 35.0981 10.5425 35.1496 10.5203C35.8216 10.6661 35.7126 10.8538 35.7126 10.2751L35.0933 10.4303C35.0912 10.4256 34.879 9.98655 34.8456 9.92501C34.8248 9.88726 34.7584 9.85468 34.7424 9.76262C34.7265 9.67057 34.6691 9.65712 34.6319 9.60489C34.1837 9.35768 32.9233 7.70588 32.7484 7.22388C32.1599 6.86653 32.5905 7.32783 32.0829 6.59398C31.9691 6.42952 31.9074 6.25162 31.6948 5.96667C31.2568 6.07579 31.319 5.62793 31.2647 6.10475L31.1983 6.39901L31.1972 6.3985ZM74.9911 1.51289C75.604 1.51289 75.4999 1.37636 75.2819 1.93799C76.2771 1.82163 75.6131 1.50978 76.8172 1.50461L78.0909 1.86352C78.16 1.89558 78.2158 1.92713 78.2769 1.95816L78.6437 2.17847C78.6634 2.95318 79.1253 2.72614 79.4544 3.38966C79.8839 4.25745 79.4039 4.46742 80.2433 5.06577C80.2576 5.03578 80.2704 4.9489 80.272 4.97062C80.272 4.97217 80.6999 3.44551 80.6999 1.73371C80.1747 1.91886 80.5027 1.7182 80.1619 2.09883L79.7866 2.62219C79.2077 1.06606 76.1388 1.00866 74.9916 1.51289H74.9911ZM89.2767 14.8396L88.6983 14.6172C88.8812 15.288 88.862 14.9378 88.6133 15.2636C89.4819 16.8265 89.2368 17.5733 89.4479 19.282L89.5935 19.3394C89.6116 19.3208 89.7089 19.2484 89.7291 19.2003L90.114 16.6677C90.2766 15.7767 90.72 14.6167 90.7455 13.5058L89.8322 13.7344C90.2022 14.16 89.9741 13.1578 90.1857 14.3266C89.7748 14.7144 89.8689 14.808 89.635 15.499L89.2767 14.8391V14.8396ZM41.2018 9.45698L41.8233 9.42336C41.8344 8.19925 41.8594 6.96272 41.8467 5.73188C41.8398 5.06267 41.8302 4.39605 41.8142 3.72685C41.7972 2.98989 41.6138 2.4717 42.1103 2.23432L42.3761 2.17744C42.3729 2.17589 41.4166 1.30137 41.1933 2.83733L41.2018 9.45646V9.45698ZM62.5837 37.9432L62.337 38.5819C62.6347 38.4288 61.8713 38.2695 62.8872 38.5276C63.8367 38.7691 63.0818 38.6026 63.447 38.8477L61.2627 39.1487C60.4318 39.2397 61.0718 39.0065 60.3377 39.7295C60.1022 39.9342 60.2239 39.8763 59.8922 40.0092C62.6236 40.3294 60.7949 39.4962 63.574 39.4962L66.5425 38.6077L62.8931 38.3398L63.1312 37.4974C63.085 37.4633 63.0153 37.41 62.9866 37.4033C62.9638 37.3981 62.8681 37.4788 62.8495 37.4307C62.8234 37.3624 62.7623 37.5295 62.7198 37.5796L62.5837 37.9427V37.9432ZM14.0251 23.878C14.6524 25.3772 14.6284 26.6944 14.2537 28.4445C14.5317 28.369 14.9703 28.355 15.1776 28.2925C16.2174 27.978 15.529 28.2304 15.933 27.8601L14.7172 27.5017L14.6859 25.8975L16.2679 25.9461C16.1089 25.1336 15.7804 24.2121 15.3179 23.8501L14.0251 23.879V23.878ZM66.854 31.7223L66.7604 32.3878L73.39 32.3884C72.692 31.4916 71.2035 32.2208 70.1956 31.0003L69.6321 31.2677C69.1133 31.4161 69.0819 31.3499 68.5971 31.1529L68.369 31.2082L69.0319 31.7285C68.4536 31.8097 67.4589 32.3708 66.854 31.7223Z" fill="#FEFEFE"/>
<path fill-rule="evenodd" clip-rule="evenodd" d="M16.2095 27.7717C16.2504 27.8084 16.3031 27.8224 16.3217 27.8922C16.4354 28.3116 16.5885 28.1689 17.5018 28.4569L17.2695 29.2787C17.8473 29.017 17.8798 28.5774 18.0892 27.2318C18.2689 26.0775 18.1551 25.5024 17.6794 24.8358C17.5231 25.6068 16.9245 26.4188 16.924 26.4203C16.6523 27.3797 17.0606 26.1452 16.3828 26.6127L16.2095 27.7717ZM86.1803 35.9428V35.0543H86.8655C87.026 35.6423 86.8474 35.2369 87.0941 35.7209C86.638 35.9407 86.8421 35.8756 86.1808 35.9428H86.1803ZM86.5407 36.6094C86.613 36.0628 86.3424 36.1662 86.8655 36.1662C88.102 36.4993 87.8038 35.255 87.6331 34.9985C87.244 34.4136 86.1734 34.6101 85.267 34.6101C85.5976 35.9914 85.5976 36.5608 85.267 37.9422H86.4089C86.3472 37.6856 86.2116 37.2274 86.2116 37.2243C86.277 36.2547 85.9815 36.8975 86.5407 36.6094ZM47.8198 1.85213L48.3057 2.40652L48.0255 3.51066C47.5933 3.68391 48.2403 3.51428 47.5854 3.54065C46.9586 3.566 47.5604 3.4667 47.1351 3.5841C46.7853 4.29002 46.8066 4.27554 46.6784 5.06473L47.2728 4.66393L48.0058 3.87991C48.8665 5.00525 48.1659 4.96078 49.2721 5.83219C49.4071 4.74822 49.187 4.20003 48.7341 3.06642C48.992 2.31809 48.7331 2.19294 48.7331 1.06708C47.8432 1.29825 48.1717 1.16327 47.8198 1.85213ZM16.1005 38.0425C15.8353 38.3735 16.0686 37.9871 15.899 38.7287L18.4847 38.5876L18.5544 38.2126L19.1971 38.1195L20.1906 38.1495C21.5292 38.1821 23.5753 38.3869 24.529 37.9416C24.4827 37.9184 24.4211 37.8842 24.3886 37.8739L21.8795 37.7224C19.861 37.8935 17.8899 37.6887 16.1011 38.042L16.1005 38.0425ZM59.0423 39.491L58.0589 39.1089C57.615 38.9501 57.1488 38.8953 56.6639 38.8487C56.7176 38.8125 56.8053 38.707 56.8325 38.7536C56.8644 38.8079 57.026 38.6507 57.153 38.5638C57.6761 38.2054 57.1355 38.6879 57.548 38.2499C56.5358 38.1144 56.2344 38.2576 55.538 38.7644C54.5652 39.4724 54.8411 38.9134 54.8151 39.7196C56.11 39.9105 58.1195 40.0046 59.0428 39.4916L59.0423 39.491ZM72.2583 14.2454L72.4949 14.0731L74.5357 14.5386L75.2023 14.4967C75.1624 14.4336 74.9934 14.2024 74.9774 14.099C74.9567 13.9697 74.9184 13.9201 74.8637 13.8104L77.2989 13.7644C77.1984 14.3638 77.3478 14.0219 77.0879 14.5163L77.9591 14.5375L78.6795 14.384L78.7778 13.6692C77.7678 13.7106 78.0442 13.4696 77.056 13.4184C76.2437 13.376 72.3434 13.4339 72.2583 14.2448V14.2454ZM69.4031 3.98903C69.3792 5.14178 69.0023 10.0429 69.7401 10.7137C70.0059 10.4742 69.9289 11.2981 70.0155 9.97723L69.9724 7.28696C69.9544 5.4226 70.2005 4.84338 69.4031 3.98852V3.98903ZM35.4894 24.843L37.8529 25.2914C37.4165 25.7506 38.0044 25.3757 37.089 25.5567C37.089 26.2559 37.3968 25.9828 37.9092 25.8897C37.9092 25.3203 37.7258 25.3933 38.1522 25.3933L38.3957 25.281C38.6157 24.8595 37.913 24.9082 39.1415 24.995L38.7167 24.661C38.6822 24.6284 38.5185 24.4375 38.4584 24.392C38.5732 23.1674 38.4334 24.1138 38.8406 23.7337C38.705 22.733 38.6535 23.4094 39.3073 23.2093C39.3073 22.704 39.4211 22.7919 38.9363 22.991L38.7226 22.7956C38.7034 22.7754 38.6439 22.7035 38.6274 22.6849L38.4578 22.4413C37.9613 23.0376 37.9736 23.7446 37.5446 24.6149C35.0184 24.6149 35.3028 24.5379 35.4894 24.844V24.843ZM91.6605 39.7946C90.8971 38.9346 91.7025 39.5919 90.7483 39.2759C91.0162 39.9482 91.2889 40.1442 91.4255 40.8295C91.534 41.4661 91.7216 41.4619 91.8891 42.1622H92.5743C92.7258 41.5468 92.5982 41.9155 92.9342 41.2737C93.0841 39.9136 93.2255 40.4199 93.3797 40.2068L93.9442 39.2557L94.2036 38.8399C93.2633 38.9035 93.4972 38.8037 93.0942 39.5583C92.7869 40.1339 92.6376 40.3107 92.5738 41.0513C91.9656 40.6179 92.1145 40.5461 91.6605 39.7941V39.7946ZM33.0861 14.5169C32.193 14.6467 32.8059 14.2976 32.3004 14.8396C33.5624 15.0221 32.1489 14.6968 32.8421 15.2838C33.3439 16.4252 33.2062 17.0551 33.2062 18.6159C33.9669 18.1199 33.9951 18.2301 33.7915 17.0608L34.0515 13.9521C32.9521 14.3193 33.8766 13.5389 33.0861 14.5169ZM55.2935 1.95608C56.4449 1.95608 56.8994 2.04503 57.4103 2.62218C57.7856 3.04625 57.7154 3.04522 57.876 3.72425C58.0886 4.62462 57.8941 4.39035 58.5516 4.62204C58.7622 4.19538 59.0083 2.18725 59.0083 1.51235C58.3363 1.68715 58.5123 1.49839 58.3231 2.16346C58.5841 2.53426 58.5437 2.07451 58.5123 3.04884C58.5017 3.3762 58.4315 3.66994 58.3438 4.00093L58.2545 2.74216C55.6427 1.80403 57.3811 1.56821 57.4098 1.53459C56.6193 1.36703 55.6289 1.04743 54.6699 1.4353C55.5657 1.80662 55.016 1.57183 55.2935 1.95608ZM49.6453 22.1703L50.0892 21.6469C50.1423 21.6578 50.6075 21.7659 50.617 21.7685C49.8755 21.2162 49.8356 20.4058 49.775 19.2835C48.9197 19.5519 49.4645 19.5985 48.833 19.269C48.2594 18.9696 48.6034 19.0891 48.5055 18.6159C48.5039 19.1232 48.4577 19.901 48.5151 20.3809C48.5816 20.9374 48.8197 21.3584 48.9611 21.9479C49.1334 22.0881 49.5166 22.1279 49.6448 22.1698L49.6453 22.1703ZM49.6463 10.6987L49.683 10.8414L49.3269 11.3218L51.2454 11.4801L51.2635 10.8099C51.2635 10.7706 51.2587 10.7023 51.2587 10.6625C51.2539 9.88 51.1704 9.97309 50.7925 9.06444C51.5032 8.35852 51.012 8.56538 50.7877 8.5478C50.6032 8.37352 50.5267 8.41386 50.2901 7.99651C50.2869 7.99082 50.0966 7.38626 50.0658 7.29369C49.6028 7.89256 49.5406 6.63431 49.7803 8.22509L50.7207 10.6361L49.6458 10.6992L49.6463 10.6987Z" fill="#FEFEFE"/>
<path fill-rule="evenodd" clip-rule="evenodd" d="M35.2611 31.2412L35.9522 31.3234C36.2212 29.4326 37.3806 27.8103 37.724 25.8663L37.0877 25.9103L35.2611 31.2417V31.2412ZM22.4746 36.8306C22.7234 37.1244 22.5719 36.9796 23.1583 37.2759L21.8792 37.7232L24.3884 37.8748C24.4213 37.8846 24.4825 37.9187 24.5287 37.9425C25.4654 37.9425 25.6626 38.0687 26.2952 37.7206L26.2745 37.1518L23.2603 37.3178C23.2215 36.525 23.5027 36.2431 21.7894 35.9447C21.8293 36.0094 21.8808 36.0269 21.9085 36.1387C21.9361 36.2498 21.9962 36.2809 22.0334 36.3279C22.0621 36.3636 22.4061 36.7587 22.4741 36.8306H22.4746ZM7.80579 21.2838L7.82014 21.5749C7.80844 21.5765 7.20827 21.6473 7.18382 21.6535C6.73462 21.7688 6.94779 21.7254 6.6889 21.9069L6.94779 21.7957C8.4554 22.1877 10.3681 21.9488 11.9751 21.9488L11.3016 21.6132C11.9198 20.2587 11.0629 21.7316 11.587 21.0402L7.80632 21.2838H7.80579ZM85.7239 23.598C86.0986 23.9533 86.8493 24.3102 87.3415 24.6143C87.3867 24.2269 87.3367 24.231 87.4473 23.8561C87.6892 23.0369 87.4165 23.4263 88.006 22.9666C87.5733 22.6077 88.4542 23.0405 87.5329 22.6294C87.4005 22.5704 87.1262 22.5223 86.8429 22.4256C86.4267 22.2839 86.0822 22.0957 85.6293 21.9137L85.0897 22.4939C86.3708 22.5472 85.3496 22.4965 86.2571 22.9485C85.9057 23.8075 86.3841 23.249 85.7239 23.5986V23.598ZM39.1418 24.9949C40.0008 25.3993 41.1942 25.1081 42.2744 25.269L42.9182 24.952L42.9708 24.3919C42.0262 24.4146 42.3467 24.517 41.6387 24.5967C41.1177 24.6551 40.3724 24.6143 39.8275 24.6143L39.5989 24.17L39.281 23.9482L38.8409 23.7341C38.4337 24.1147 38.5735 23.1683 38.4587 24.3924C38.5187 24.4379 38.6819 24.6287 38.717 24.6613L39.1418 24.9954V24.9949ZM21.8346 17.0865L21.7033 18.1156L20.3461 18.1291V18.9245L21.1127 18.6168C21.2647 18.6121 21.0558 18.6731 21.6315 18.894C21.6517 19.0786 21.7145 19.348 21.6953 19.5171C21.6347 20.056 21.7841 19.739 21.471 20.0239L21.8458 20.2303L22.1732 20.0896C22.2062 20.0757 22.3864 20.0152 22.4481 19.9722C22.312 19.3599 22.2907 19.5389 22.33 18.9265L22.0058 15.3224L21.7012 15.3447L21.8346 17.0854V17.0865ZM59.9218 29.4725C61.2093 29.6504 60.4433 28.8327 61.3609 29.8365C61.3539 29.7631 61.3146 29.3473 61.322 29.2853C61.4401 28.269 61.3497 28.9925 61.4693 28.6357C61.3173 29.7347 61.2046 28.8364 61.5379 29.8971C60.3747 29.806 61.1567 29.8831 60.8574 30.0646L61.2333 30.2234C61.2864 30.2415 61.532 30.3651 61.6027 30.3739C62.4916 30.4892 61.8946 30.5683 62.3183 30.1634C61.9206 29.1384 61.7191 29.0567 61.6229 27.9479C60.8505 28.6698 61.0642 26.9368 61.0642 28.5731C60.0191 28.9062 61.7128 28.0611 60.791 28.8208L60.4093 29.0996C59.4147 27.9556 59.8532 27.6428 59.0085 27.9898C59.4625 28.5659 59.555 28.8503 59.9218 29.4725Z" fill="#FEFEFE"/>
<path fill-rule="evenodd" clip-rule="evenodd" d="M42.2746 25.2698C41.1939 25.1084 40.001 25.4001 39.1419 24.9957C37.9129 24.9088 38.6162 24.8602 38.3961 25.2817C39.8107 26.0957 44.0199 25.1255 45.3196 25.5899L45.1734 24.8457C44.8215 24.7428 44.964 24.8943 44.8252 24.6135C44.6461 24.7826 44.8327 24.7055 44.3367 24.781C44.2665 24.7919 43.6047 24.8628 43.5351 24.8855C43.1566 25.0107 43.0104 25.3422 42.2752 25.2692L42.2746 25.2698ZM10.0711 14.6183C10.9323 15.2793 11.4708 14.5371 12.4271 16.0891C12.7302 16.2267 12.5505 16.2164 13.0842 16.1558C13.098 16.1543 13.7136 16.009 13.7455 16.0033C13.5935 15.4716 13.7173 15.5859 13.0427 15.1241C12.5723 14.8019 12.7323 14.8986 12.1645 14.6499C11.222 14.2372 10.7383 14.2434 9.71919 14.0593C9.87123 14.2356 9.93874 14.4254 10.0711 14.6183ZM66.315 41.7191C66.315 39.7182 66.2273 40.7846 66.543 40.164C67.8944 40.5151 67.4266 41.311 67.2315 41.5003C66.8657 41.8546 67.1028 41.7191 66.315 41.7191ZM65.6298 40.3864C65.6298 43.6584 67.8593 41.5965 68.1415 41.4972C68.0331 40.2322 67.661 40.1779 66.7716 39.7203C66.2624 39.9825 66.0843 40.0911 65.6298 40.3869V40.3864ZM26.2954 37.7204C26.4352 37.9148 26.9131 37.6909 25.8765 38.3456L23.7485 39.4038C22.9421 39.6613 23.1468 39.3732 22.4748 39.9416C23.6672 39.9416 24.7687 39.744 25.7457 39.126C26.3103 38.7692 25.7931 39.1147 26.12 38.8307C27.3437 38.2334 26.7829 38.1848 27.2959 37.2208L26.2752 37.151L26.2959 37.7199L26.2954 37.7204ZM20.1906 17.4281L20.4191 17.5563C20.7764 16.5706 20.6376 16.794 20.5536 15.7287C21.2442 15.5989 21.023 15.6904 21.5318 15.077C21.2479 15.2151 21.3074 15.15 21.2516 15.2006C20.7349 14.065 19.4501 14.3127 18.364 13.8819C18.6027 14.8852 18.7765 14.5713 19.9625 14.8402C20.2033 15.8455 20.1911 16.1564 20.1911 17.4281H20.1906ZM29.8401 2.38076C29.7316 2.18476 29.6503 2.47747 29.7673 2.10511C29.8369 1.88429 29.9746 1.74258 30.0091 1.68777C30.0825 1.94893 30.3106 1.94117 29.8401 2.38128V2.38076ZM27.2688 1.63036C27.6552 1.6676 28.0071 1.6888 28.35 1.76327C29.2277 1.9541 28.5159 1.64019 29.2654 2.19924C30.0681 2.79863 29.9358 2.72571 30.4397 3.56971C30.2303 3.28734 30.2787 3.55368 30.6944 3.36543C30.7459 3.41974 30.9655 3.58057 31.0059 3.61212L31.3796 3.90276L30.2377 1.29007C28.855 1.29007 28.3022 1.42867 27.2693 1.51245C26.9083 1.80568 27.0508 1.47883 27.2693 1.63036H27.2688ZM19.9625 10.5979L19.0492 10.842V11.5086C21.41 11.5086 21.4584 11.807 22.0177 11.0644L21.1134 10.8151C21.1985 9.74512 21.5371 9.79374 21.561 8.47343C21.1607 8.98593 21.6461 7.98109 21.1379 9.14677C21.065 9.31433 21.0177 9.58325 20.9725 9.72857C20.7089 10.5788 20.8099 10.8405 19.9625 10.5984V10.5979ZM76.4472 15.2849C76.949 16.1041 76.6928 16.4522 77.1808 17.2843L77.823 14.669C77.8554 14.64 77.9187 14.5873 77.958 14.5387L77.0867 14.5175L75.2017 14.4973L74.535 14.5392L75.459 14.8386C76.2548 15.0264 75.8789 14.8231 76.4467 15.2849H76.4472ZM78.6788 14.3851L80.4746 14.1994C80.8616 14.4823 80.6612 14.1094 80.4714 14.4115C80.2587 14.729 80.381 14.4932 80.3821 14.8407L80.4039 15.077C80.4251 15.6118 80.3496 15.106 80.8488 15.3175C81.1316 14.8521 81.9269 14.261 82.5664 14.1601C82.291 13.5535 83.1698 13.614 81.6127 13.751L81.415 13.7298C80.4602 14.1725 79.9419 13.7211 78.7767 13.6704L78.6783 14.3851H78.6788ZM82.5265 34.6117C82.7642 34.8046 83.0996 34.6216 82.9646 35.9222C82.9353 36.2036 82.8349 36.5387 82.8726 36.8381C83.0002 37.8523 83.0443 37.3615 83.2118 37.5663C83.4595 36.8681 83.2367 37.2508 83.2118 36.1658L84.3536 36.6101C84.5344 36.1839 84.4584 36.5221 84.4663 36.0681C84.4865 34.9308 84.1319 35.6466 83.2118 35.7211V35.0544C84.2882 35.0544 84.2335 35.0943 85.0383 35.2768V34.6102C84.4977 34.6102 83.9507 34.6024 83.4111 34.6092C82.4712 34.6211 81.987 34.935 82.5265 34.6112V34.6117ZM7.75495 13.7335L8.19032 13.6052C6.95224 13.343 6.94001 13.0746 5.57753 13.2913C4.05664 13.5333 4.04388 13.2768 2.61017 13.1124C2.61017 14.397 2.4964 13.4821 3.06574 13.8767C4.6701 13.8043 6.28562 13.931 7.75495 13.7335ZM58.8322 38.0022L57.5474 38.25C57.1349 38.688 57.6755 38.2055 57.1524 38.5639C57.0254 38.6508 56.8637 38.808 56.8319 38.7537C56.8047 38.7077 56.717 38.8132 56.6633 38.8488C57.1482 38.8954 57.6138 38.9507 58.0582 39.109L59.0417 39.4912L59.2453 39.4632C59.82 38.8328 59.2453 39.2031 60.056 38.9285L59.9401 38.0457L59.8944 37.7711L59.602 38.3549C59.5845 38.312 59.5095 38.4708 59.4643 38.5298C59.1826 38.3203 58.8987 38.0643 58.8317 38.0017L58.8322 38.0022ZM41.6192 18.9025C42.3969 18.9201 42.1917 18.8632 42.5952 19.7372C42.803 20.1871 42.8243 20.4095 43.0306 21.0223C43.3931 22.0965 43.7339 23.0077 43.197 23.9422L43.9662 23.5693C44.03 23.5181 44.0698 23.468 44.1326 23.4157C44.2075 23.3537 44.2777 23.2999 44.3425 23.2456C44.4143 23.1856 44.4914 23.1111 44.5775 23.061C44.2293 22.6622 42.2656 18.5125 42.1965 18.3869L41.6181 18.903L41.6192 18.9025ZM53.2994 3.066L53.7438 3.24183C53.6837 3.64832 53.5849 3.91828 53.7071 4.2022L54.0452 4.56214C54.0878 4.58593 54.1893 4.58748 54.2286 4.60248C54.2728 4.61955 54.369 4.61696 54.4397 4.6211L54.2249 3.95603C54.4652 3.31889 54.5359 2.73502 54.6688 2.17907L55.2924 1.95669C55.0149 1.57192 55.5645 1.80723 54.6688 1.43591C54.192 1.63864 54.083 1.6857 53.7906 1.98203C53.3047 2.47437 53.4461 2.26802 53.2989 3.06652L53.2994 3.066ZM31.5858 5.51165L31.6943 5.96727C31.9064 6.25222 31.9681 6.43013 32.0824 6.59458C32.59 7.32843 32.1594 6.86713 32.7479 7.22448L32.6315 6.90385C32.809 7.32585 32.5358 7.17173 33.4528 7.91489C33.9243 8.29708 33.5166 7.99298 33.8908 8.23605L34.0392 7.73182L32.749 5.51061C32.5767 5.37046 32.1935 5.33064 32.0653 5.28824C32.0786 5.39063 32.1982 5.51061 32.2062 5.56595C32.2386 5.79298 32.051 5.79402 31.8559 5.9533C31.6629 5.49769 31.7459 5.55613 31.5858 5.51113V5.51165ZM18.339 5.06637C18.3571 5.46355 18.2986 5.53854 18.137 5.95486C18.903 7.00573 18.229 7.01555 19.2773 7.28758V3.95551H18.5921C18.5713 4.86727 18.6776 4.45819 18.339 5.06637ZM53.3005 14.9043L53.2994 15.0864C52.6174 15.12 52.8316 14.9705 52.8991 15.7282C53.6593 16.0136 53.3483 16.1398 54.2616 16.1455C54.9436 15.7525 54.3855 15.8119 55.2328 15.7282C54.9521 14.4839 55.404 15.5606 54.7299 14.9757C54.681 14.9333 54.3605 14.8485 54.2972 14.8071C53.3653 14.3882 53.991 14.4203 52.9911 14.127C53.0395 14.171 53.116 14.1684 53.1405 14.2542L53.2999 14.9048L53.3005 14.9043ZM61.4057 38.0633C61.1218 38.2112 61.9261 38.3849 60.7572 38.1186C60.2606 38.0054 60.1655 37.9123 59.8949 37.7711L59.9406 38.0457C60.3143 38.2551 60.8465 38.4584 61.5099 38.6084C61.4732 38.6559 61.4626 38.6958 61.452 38.7764C61.4381 38.8778 61.3015 39.0847 61.2643 39.1493L63.4486 38.8483C63.0834 38.6032 63.8383 38.7692 62.8889 38.5282C61.873 38.2701 62.6363 38.4294 62.3387 38.5825L62.5853 37.9438C62.3966 37.8435 62.4397 37.8869 62.1919 37.7178C62.1685 37.7018 62.0925 37.6764 62.075 37.6123C61.7667 36.4709 61.9049 37.2648 62.3163 36.9767C62.2722 36.9384 62.2212 36.879 62.1919 36.8547C62.1632 36.8309 62.101 36.7652 62.0654 36.7383L61.4264 36.3794C61.4509 37.0202 61.6077 37.1867 61.6322 37.4541C61.7066 38.2582 62.1627 37.5466 61.4057 38.0638V38.0633ZM44.6227 10.6434L43.7094 10.842V11.5086C46.0702 11.5086 46.1186 11.807 46.6778 11.0644L45.7736 10.8151C45.8576 9.75598 46.1973 9.79115 46.2212 8.5029C45.6747 9.40121 45.5971 9.75754 45.5296 10.8643L44.6227 10.6439V10.6434ZM52.0167 17.5356L52.6142 16.9662L52.6769 16.8395L52.2548 15.9562L50.5271 17.5005C49.8589 18.4298 50.5362 18.269 50.5463 18.2886C51.5489 18.5674 50.8163 18.3641 52.0161 17.5356H52.0167ZM23.2573 24.8333C22.5131 24.6662 22.9995 25.1265 22.7135 24.3942C22.4174 23.6371 23.075 22.7424 22.6736 22.1813L21.8561 22.1699C22.1724 24.3927 22.4865 23.8434 21.8157 23.7922L21.989 25.0588L23.201 25.5754L23.2579 24.8333H23.2573ZM18.5102 32.389H22.7013C22.6556 32.3342 22.571 32.1976 22.5524 32.2344L22.3313 31.9044C22.3308 31.9034 22.2638 31.7534 22.2441 31.2792L21.3447 31.3691C20.4782 31.9023 20.8306 31.7394 19.9402 31.8475C19.8631 31.8568 19.272 31.9266 19.2023 31.9494C18.3603 32.2204 18.8042 32.1201 18.5097 32.389H18.5102ZM81.1502 18.1112L81.4304 17.728C81.5356 17.0666 81.7398 17.7327 81.247 16.8395C81.2581 16.7516 81.3267 16.2396 81.3246 16.1838C81.3012 15.5285 81.4219 16.1667 81.155 15.6258C79.9031 15.3842 80.8286 15.5259 80.4724 15.7302C80.2104 16.582 80.4113 17.5646 80.2795 18.3936L81.1497 18.1117L81.1502 18.1112Z" fill="#FEFEFE"/>
<path fill-rule="evenodd" clip-rule="evenodd" d="M72.1613 15.0626C73.1437 15.0626 73.9278 15.1619 74.31 15.1588C74.6693 15.1562 74.7847 15.1003 75.1706 15.1345C75.5704 15.1696 75.7033 15.2705 76.4481 15.2844C75.8803 14.8226 76.2562 15.0259 75.4604 14.8381L74.5364 14.5387L72.4957 14.0732C72.4632 14.1296 72.4026 14.1441 72.3904 14.2382C72.3766 14.3458 72.2485 14.5123 72.232 14.5671C72.1368 14.88 72.1703 14.6954 72.1618 15.0626H72.1613ZM78.6792 14.3851L77.9589 14.5387C77.9195 14.5873 77.8563 14.6395 77.8238 14.669L77.1817 17.2843L77.952 17.5465C77.6038 16.0183 77.8456 16.6239 77.9605 15.2855C79.3506 15.2555 79.1417 14.6711 80.4722 14.412C80.662 14.11 80.8624 14.4828 80.4754 14.1999L78.6797 14.3856L78.6792 14.3851ZM62.8913 17.2838L63.1566 16.3974C63.0061 16.1579 62.9721 16.3188 62.9647 15.8238C62.9636 15.7338 63.054 15.1976 63.0699 15.0626C63.4665 14.6157 62.9344 14.9235 63.6441 14.8733L62.734 13.4454C62.7201 13.3606 62.6744 13.3399 62.6478 13.2856C62.6202 13.3311 62.5724 13.344 62.5654 13.4227L62.4331 15.2844C62.4373 16.0245 62.4336 16.7661 62.4336 17.5062C62.8998 17.3862 62.6425 17.5775 62.8913 17.2838ZM83.2121 37.5663C83.0446 37.3615 83.0005 37.8528 82.8729 36.8381C82.8352 36.5392 82.9357 36.2041 82.9649 35.9222C83.1005 34.6216 82.7645 34.8046 82.5269 34.6117C82.5269 36.0588 82.5795 36.7704 82.2983 37.9428H85.0381C84.9919 37.4039 85.1886 37.5084 84.8558 37.2275C84.3949 36.8392 84.7006 37.1484 84.5815 37.4985L83.2116 37.5663H83.2121ZM82.5673 14.1601C81.9272 14.261 81.132 14.8516 80.8497 15.3175L81.1559 15.6263C81.4227 16.1667 81.3015 15.529 81.3255 16.1843C81.3276 16.2401 81.2585 16.7521 81.2478 16.8401C81.2952 16.7951 81.3648 16.6616 81.3791 16.6952C81.6003 17.2062 81.0171 15.5813 83.0079 14.4197C83.0489 14.396 83.1169 14.3613 83.1541 14.3406C83.1908 14.3199 83.2684 14.2765 83.2982 14.2599C83.328 14.2434 83.3955 14.2087 83.4412 14.1782C83.2743 13.8767 83.0771 14.2527 83.4412 13.9072C84.4645 14.1415 84.3667 14.1369 84.7463 13.7304C84.1084 13.4909 84.0074 13.5251 83.1042 13.901C82.9893 13.9491 82.7852 14.126 82.7491 14.0686C82.7166 14.0169 82.6289 14.1306 82.5678 14.1606L82.5673 14.1601ZM45.0797 36.3153C45.4316 36.6266 45.0228 36.3835 45.6697 36.7047C45.9435 36.8407 46.0211 36.8459 46.3002 36.9757C46.8541 37.2332 47.0242 37.3398 47.5915 37.6527C48.5903 37.6268 47.8105 37.7721 48.1209 37.1014C47.9184 37.5999 48.0912 37.0067 48.1954 36.6845L45.969 35.9657C45.64 36.4415 45.8319 36.428 45.0802 36.3153H45.0797ZM87.8832 15.7292C88.536 16.4749 88.8932 17.8609 88.9204 19.0613L89.4493 19.2831C89.2383 17.5744 89.4833 16.8276 88.6147 15.2648L87.8837 15.7287L87.8832 15.7292ZM43.1978 23.9422L43.0251 23.8993L42.9714 24.3921L42.9187 24.9522L42.275 25.2692C43.0102 25.3422 43.1564 25.0107 43.5349 24.8855C43.6045 24.8622 44.2663 24.7914 44.3365 24.781C44.8325 24.7055 44.6459 24.7826 44.825 24.6135L44.5789 23.061C44.4923 23.1111 44.4157 23.1856 44.3439 23.2456C44.2791 23.2999 44.2084 23.3537 44.134 23.4157C44.0712 23.468 44.0314 23.5181 43.9676 23.5693L43.1984 23.9422H43.1978ZM49.6455 22.1709C49.3122 22.7693 49.7923 22.9089 50.3318 23.3211C50.4302 23.3247 50.9841 23.3873 51.0309 23.3785C51.8432 23.2244 51.3307 23.4918 51.8171 22.971C50.8012 22.355 51.3036 22.503 50.6178 21.7691C50.6077 21.7665 50.1431 21.6584 50.09 21.6476L49.6461 22.1709H49.6455ZM27.2957 37.2213C26.7827 38.1853 27.3435 38.2339 26.1198 38.8313C26.8002 38.6797 27.2718 38.4279 27.8629 38.0762L29.1701 37.3336C29.6692 36.8981 29.0701 37.5808 29.5528 36.8335L29.0212 36.954L28.8804 36.534L27.2951 37.2219L27.2957 37.2213ZM38.4581 22.4409L38.6277 22.6845C38.6447 22.7031 38.7042 22.775 38.7228 22.7952L38.9366 22.9906L39.1417 22.4668L39.8663 22.4362C39.8637 21.8963 40.3564 21.9496 39.8264 21.9496C39.4857 21.6078 39.5139 21.6843 39.6367 20.9473L39.5442 20.5005C39.5442 20.0537 39.6462 20.1892 39.1428 20.1892C38.8042 20.9504 38.5214 21.6279 38.4576 22.4409H38.4581ZM20.4195 17.5568C20.8469 17.5501 20.7427 17.6515 21.2466 17.471C21.732 17.2977 21.5523 17.3195 21.8346 17.0873L21.7012 15.3465C21.4146 15.1613 21.4811 15.2648 21.2525 15.2012C21.3083 15.1505 21.2488 15.2157 21.5326 15.0776C21.0239 15.6909 21.2451 15.5994 20.5545 15.7292C20.6385 16.7945 20.7772 16.5711 20.42 17.5568H20.4195ZM11.5865 21.0404C11.0623 21.7314 11.9193 20.2585 11.301 21.6134L11.9746 21.9491L13.5683 22.8376C13.5683 22.7817 13.5677 22.9467 13.6953 22.7295C13.7198 22.6881 13.7703 22.5945 13.7953 22.5495C13.8288 22.49 13.8739 22.3861 13.9149 22.3054L12.7241 21.6527C12.3318 21.3409 12.689 21.7014 12.4466 21.2825L12.9989 21.1677L12.8427 20.6412L12.4525 20.5724C11.9373 21.0239 12.2622 20.8258 11.586 21.0404H11.5865ZM57.4111 6.47564C58.0517 6.34945 57.8762 6.61321 58.2351 6.32101L57.527 5.51062C57.4988 5.281 57.8943 5.15223 57.1814 5.43305C56.8152 5.27635 56.4393 5.06845 56.1087 4.96036C54.2699 4.35942 55.2789 4.85486 54.8993 5.06638C54.9588 5.11344 55.0428 5.1093 55.0795 5.2055C55.1991 5.52251 56.7774 5.71645 57.4111 6.47564ZM89.773 41.7191C89.7087 41.7579 89.6364 41.8096 89.5774 41.8318L88.9363 42.0242C88.8996 42.0304 88.3202 42.0258 88.1644 42.0382L87.7785 39.9075C87.7785 40.9221 87.9045 41.445 87.5499 42.1633H91.0446C90.9851 41.701 91.0095 41.3126 90.9622 40.8306C90.9394 40.5948 90.9303 40.4081 90.8554 40.165C90.6964 39.651 90.7358 39.9054 90.5183 39.6251V41.9409H90.2897V41.2743L89.7725 41.7186L89.773 41.7191ZM92.9339 41.2748L93.2247 41.0173C93.239 41.9259 93.3214 41.5738 93.0307 42.1633H94.1725C94.1725 40.8068 93.9439 40.3802 93.9439 39.2569L93.3794 40.2079C93.2252 40.421 93.0838 39.9147 92.9339 41.2748ZM40.2847 2.3999C40.5659 2.06064 41.1262 2.87879 40.3841 1.89257L37.7729 1.95463C37.2333 1.51866 37.5927 2.02186 37.3173 1.29059C37.3625 1.0165 37.9265 1.06821 37.0877 1.06821V3.5118C38.2513 3.20926 37.4768 3.24184 38.0009 2.17907C39.0344 2.17907 39.3666 2.05547 40.2841 2.3999H40.2847ZM49.6828 10.842C48.7557 10.9124 48.9646 10.6652 48.7328 11.5086H52.6145V11.0644C52.1977 10.8632 52.3285 10.8943 51.7012 10.842C51.6539 10.2856 51.7523 10.584 51.5726 10.0787C51.2377 9.13695 51.5184 9.89252 51.2446 9.5093C51.2446 8.61668 51.3312 9.41518 50.7927 9.06506C51.1702 9.97371 51.2542 9.88063 51.2589 10.6631C51.2589 10.7024 51.2637 10.7712 51.2637 10.8105L51.2456 11.4807L49.3271 11.3225L49.6833 10.842H49.6828ZM30.4401 3.56972L30.6718 4.41269C30.6686 4.46596 30.5916 4.65524 30.5847 4.62007C30.5772 4.58077 30.5065 4.76901 30.4656 4.84297L30.4666 4.84503C30.549 4.83159 30.6469 4.79952 30.7128 4.80366C30.7728 4.80728 30.8717 4.77884 30.9398 4.79073C31.7712 4.93657 31.6298 5.04259 31.5856 5.51114C31.7457 5.55561 31.6627 5.49769 31.8557 5.95331C32.0503 5.79402 32.2379 5.79299 32.206 5.56596C32.198 5.5101 32.079 5.39064 32.0651 5.28824C32.3969 4.69247 32.3363 5.06535 32.0641 4.844L31.8079 3.96431C31.532 3.70883 31.6851 3.91725 31.3789 3.90277L31.0051 3.61212C30.9647 3.58058 30.7452 3.41974 30.6936 3.36544C30.2779 3.55369 30.2295 3.28735 30.439 3.56972H30.4401ZM30.5193 14.5237L30.6947 15.5787L30.9536 15.9278C31.6957 15.6785 30.9568 15.9676 31.3719 15.7287C31.7786 15.4944 31.1364 15.7845 31.7286 15.5063L30.9307 14.8397C31.3156 14.6204 30.3268 14.6256 31.3927 14.6716C32.2778 14.7094 31.4336 14.7549 32.4038 15.285C32.3214 16.5479 32.4532 15.7157 32.0651 16.0131C32.6855 16.2401 32.6201 16.1367 32.8429 15.2839C32.1497 14.6969 33.5632 15.0222 32.3012 14.8397C32.8067 14.2977 32.1938 14.6463 33.0869 14.517L32.5218 14.1974C31.1561 14.7818 31.5899 14.1953 30.5198 14.5237H30.5193ZM33.7158 32.389H38.4289C38.0036 32.0425 36.7405 31.7984 36.1249 31.7358C35.57 31.6795 34.157 32.011 33.7163 32.389H33.7158ZM73.3935 8.58566C73.645 7.9299 73.4307 6.20103 73.377 5.4408L72.6328 5.23135C73.1304 6.48598 72.2362 7.68321 73.3935 8.58566ZM52.5156 38.4718C52.5847 38.4361 52.6921 38.3193 52.7261 38.3705C52.7591 38.4201 52.9882 38.235 53.0807 38.1496C53.3683 37.8854 53.1652 38.0498 53.3997 37.7188L53.0424 37.4985C52.9138 37.4086 53.3104 37.3129 52.488 37.1701C51.7257 37.0378 52.3556 37.0031 51.7023 37.2756L51.2887 37.2534C51.4471 38.433 51.2191 38.0395 52.5162 38.4724L52.5156 38.4718ZM73.1251 36.1653C72.7359 37.3486 73.2952 37.227 72.2517 37.498V35.7991C72.0023 36.0401 71.744 35.3208 71.7812 36.8195C71.7929 37.2829 72.0034 37.5451 72.198 37.9428C73.6476 37.7701 73.6668 37.0853 73.3935 35.9434C73.2213 35.8033 72.838 35.7635 72.7099 35.7216L73.1256 36.1658L73.1251 36.1653Z" fill="#FEFEFE"/>
<path fill-rule="evenodd" clip-rule="evenodd" d="M40.0797 20.8706L39.6363 20.9471C39.5141 21.6846 39.4854 21.6076 39.8261 21.9494C40.3556 21.9494 39.8633 21.8961 39.866 22.436C39.9032 22.464 39.9675 22.4547 39.9803 22.5157C39.9936 22.5793 40.0738 22.5886 40.0908 22.6108C40.2875 22.8632 40.219 22.7593 40.3784 23.0587L40.7133 23.3126C40.6166 22.7624 40.3577 22.2887 40.581 21.5636C40.8361 20.7346 40.9302 21.743 40.7405 20.3731C39.5816 20.039 40.3508 20.2464 40.2269 20.401C40.6033 20.8199 40.2743 20.2428 40.5353 20.8804L40.0792 20.8696L40.0797 20.8706ZM27.6233 14.4014L24.1185 14.3652C23.9936 14.991 24.4986 14.5131 26.3613 14.7686C27.5298 14.9289 28.0539 15.1534 28.9863 14.8405C28.3761 14.434 28.2549 14.5716 27.6233 14.4014ZM11.0572 36.932C12.0773 36.9889 11.2794 37.021 11.5994 36.6254C9.5379 36.2732 8.53319 35.0915 6.26221 34.656C7.50083 35.5243 9.46241 36.2349 11.0572 36.9326V36.932ZM35.8466 9.28672L35.9455 2.07595C35.4059 2.33764 35.6541 4.29871 35.6488 5.06618C35.6409 6.25047 35.7089 7.3391 35.5457 8.5146C35.4591 8.59114 35.5207 8.47323 35.8461 9.28672H35.8466ZM83.4409 31.7227C83.3011 31.4889 83.5217 31.6493 82.8726 31.4026C82.4994 31.2604 82.3288 31.1988 82.0704 31.0561C81.5388 30.7623 81.171 30.5363 80.6995 29.9876C78.9861 30.0786 80.3933 29.8883 79.808 30.5389C81.3081 30.7701 80.7686 30.8182 81.9088 31.432C82.2879 31.6363 83.3298 32.2802 83.4404 31.7232L83.4409 31.7227ZM54.2127 12.3969H54.4413L54.251 12.656L54.2127 12.3969ZM53.2994 12.8412C54.3839 12.8412 53.7327 12.8365 53.9846 13.0635L54.2239 13.1328L54.8969 13.258L54.7135 13.0134C54.7353 13.047 55.0771 13.1706 55.2626 12.9472C55.7644 12.3431 55.1239 13.739 55.5576 12.1756C55.3492 11.9863 55.0345 11.9992 54.8979 11.9537C54.8293 11.9858 54.5306 12.1446 54.4875 12.1751C54.4514 12.2004 54.3706 12.2609 54.3355 12.2863C54.3047 12.3085 54.2536 12.3602 54.2127 12.3969C53.3154 12.3773 53.6774 12.4579 53.0708 12.1751C53.2308 12.7631 53.0528 12.3576 53.2989 12.8417L53.2994 12.8412ZM48.5055 18.6163C48.6028 19.0895 48.2588 18.97 48.8329 19.2695C49.4645 19.5989 48.9196 19.5524 49.7749 19.2839L50.1486 19.225C50.9907 19.3982 50.5521 19.347 50.9551 19.0605C50.8849 19.0161 50.8046 18.9592 50.7398 18.9359C49.2853 18.4105 50.0301 19.0295 49.6224 18.7937L48.9611 17.8524L48.5055 18.6163ZM59.9215 33.7375C60.0975 33.1506 60.0549 33.647 60.5047 33.3057L60.914 34.2552L60.595 34.2149C60.9331 34.5903 60.2272 34.4528 61.4738 34.7326C61.4849 34.5738 61.57 34.0608 61.5721 33.9956C61.5774 33.8348 61.638 33.8849 61.5285 33.4997C62.0633 33.0363 61.3169 33.2742 62.2238 33.3445C61.9277 32.8123 62.3365 33.1651 61.7598 33.0497C61.3021 32.9582 61.5349 33.0968 61.2654 33.118L60.1496 33.1206C59.8774 33.329 59.921 32.5641 59.921 33.7375H59.9215ZM35.0933 10.4307L35.7126 10.2755C35.7126 10.8537 35.8216 10.6665 35.1497 10.5207C35.5053 10.9453 35.2422 10.665 35.7413 10.9846C36.5137 11.4784 35.5962 10.801 36.0353 11.1366C36.4563 11.4583 35.9667 10.9406 36.3527 11.5084L37.0879 10.8418L35.946 9.83439C35.3277 9.88146 34.9849 9.72217 35.0933 10.4307ZM13.5679 22.8374C13.5786 23.2537 13.4504 22.873 13.6976 23.3721C13.9884 23.9591 13.7646 23.4879 14.0256 23.8789L15.3185 23.85C14.8666 22.8332 14.8289 22.9785 13.9145 22.3052C13.8736 22.3864 13.8284 22.4898 13.7949 22.5493C13.7694 22.5943 13.7189 22.6874 13.695 22.7293C13.5679 22.9465 13.5679 22.7815 13.5679 22.8374ZM40.7809 19.587C40.994 19.315 40.8361 19.4525 41.1408 19.2115C41.1493 19.2048 41.5501 18.9535 41.6187 18.9028L42.197 18.3867C42.054 17.913 42.2816 18.1126 41.9509 17.9166C40.7479 18.4037 40.5299 18.6023 40.1355 19.8425C40.203 19.859 40.6246 20.0437 40.7149 19.7401C40.7341 19.6765 40.7585 19.6382 40.7809 19.587ZM59.9215 29.4725C59.9215 30.3165 59.938 29.9483 60.1501 30.2188C61.1681 30.6723 61.1181 30.6103 62.571 30.7737L62.3185 30.1629C61.8943 30.5684 62.4912 30.4887 61.6029 30.3734C61.5322 30.3641 61.2866 30.2405 61.2335 30.2229L60.8576 30.0642C61.1564 29.8826 60.375 29.8056 61.5381 29.8966C61.2048 28.8359 61.3175 29.7347 61.4695 28.6352C61.3499 28.9921 61.4403 28.2691 61.3223 29.2848C61.3148 29.3474 61.3542 29.7627 61.3611 29.8361C60.4435 28.8323 61.209 29.6499 59.922 29.472L59.9215 29.4725ZM75.2028 14.4966L77.0878 14.5168C77.3477 14.0218 77.1984 14.3642 77.2988 13.7648L74.8636 13.8108C74.9189 13.9205 74.9566 13.9701 74.9774 14.0994C74.9938 14.2028 75.1629 14.434 75.2022 14.4971L75.2028 14.4966ZM52.6147 10.1276L53.1011 10.2109L52.9943 9.51117C53.3542 9.46411 53.2213 9.50186 53.4371 9.27069C52.8747 8.38479 53.0831 8.41893 53.5275 7.54027C53.8055 7.41615 53.7561 8.29377 53.7561 7.06552C52.9991 7.26204 53.0682 7.291 52.7976 8.13242C52.6355 8.63717 52.6147 9.32447 52.6147 10.1281V10.1276ZM47.5911 37.6525C48.2737 37.8945 48.6288 38.1277 49.3778 38.3863L49.8584 37.7197C49.1126 37.3427 49.3858 37.6276 49.3162 37.6126L48.195 36.6838C48.0908 37.0065 47.9186 37.5992 48.1206 37.1006C47.8102 37.7714 48.59 37.6261 47.5911 37.6519V37.6525ZM67.492 1.53656C68.7795 2.22593 69.4663 2.2161 70.513 1.48949C69.7172 1.3902 68.1022 1.0225 67.492 1.53656ZM59.2453 39.4636L59.9975 39.3777C60.0199 39.3244 60.3968 39.2122 60.4207 39.1972L60.3383 39.7309C61.0724 39.0079 60.4324 39.2412 61.2632 39.1502C61.3005 39.0855 61.4376 38.8786 61.4509 38.7773C61.4615 38.6966 61.4722 38.6563 61.5088 38.6092C60.8454 38.4597 60.3138 38.256 59.9396 38.0465L60.0555 38.9293C59.2448 39.2034 59.8194 38.8336 59.2448 39.4641L59.2453 39.4636ZM72.8823 2.62259L73.5766 3.1713C74.0056 2.82067 73.6255 3.15941 73.9817 2.72344C74.6887 1.85823 73.5431 2.70172 75.282 1.93736C75.4999 1.37572 75.6047 1.51225 74.9912 1.51225L73.7138 2.05061C73.6574 2.08733 73.5139 2.20266 73.4586 2.24041C73.1566 2.44676 73.188 2.40073 72.8823 2.62156V2.62259ZM88.6139 15.2646C88.8621 14.9388 88.8813 15.2889 88.6989 14.6181C88.2869 14.0374 88.5735 14.1584 87.7782 13.9515C87.4773 13.6014 87.8484 13.8258 87.3216 13.8827L86.4093 13.5083C87.4848 15.3535 87.3449 13.6702 88.6139 15.2646ZM28.8806 36.5333L29.0214 36.9533L29.553 36.8328C30.2117 37.1798 29.831 37.0805 30.5721 36.9657C31.7847 36.7774 31.3578 36.9698 31.6082 36.3885L30.6949 36.6321C30.386 36.3828 30.1798 37.1327 30.5737 36.087L28.8811 36.5333H28.8806Z" fill="#FEFEFE"/>
<path fill-rule="evenodd" clip-rule="evenodd" d="M34.3478 10.6206C34.6237 11.2613 34.3467 11.2603 35.2217 11.5727C35.4067 11.6389 35.6114 11.6978 35.7677 11.7035C36.9579 11.7438 36.042 11.7821 36.3524 11.508C35.9665 10.9407 36.4561 11.4578 36.0351 11.1362C35.596 10.8005 36.5135 11.478 35.7411 10.9841C35.2419 10.665 35.5056 10.9448 35.1494 10.5202C35.0979 10.5425 35.0256 10.5792 34.9948 10.5864C34.9644 10.5937 34.8704 10.6268 34.8363 10.6335C34.8034 10.6402 34.7061 10.649 34.6763 10.6537C34.1564 10.7369 35.2765 10.7555 34.3473 10.62L34.3478 10.6206ZM32.7482 7.22437C32.9231 7.70585 34.1835 9.35817 34.6317 9.60538L34.746 8.81412C34.7279 8.70242 34.6811 8.68483 34.6487 8.6207C34.6099 8.52038 34.5865 8.37867 34.4988 8.24421C34.1293 7.67792 34.385 8.03166 34.0389 7.73222L33.8906 8.23645C33.5164 7.99287 33.9241 8.29748 33.4526 7.9153C32.5356 7.17214 32.8088 7.32625 32.6313 6.90425L32.7477 7.22489L32.7482 7.22437ZM52.2557 15.9566L52.6777 16.8399C53.6208 16.6812 53.4087 16.571 54.2619 16.3957V16.1459C53.3486 16.1397 53.6591 16.014 52.8994 15.7286L52.4678 15.6727L52.2557 15.9571V15.9566ZM58.3233 2.16344L57.41 1.5351C57.3818 1.56871 55.643 1.80402 58.2547 2.74266L58.344 4.00143C58.4317 3.67045 58.5019 3.3767 58.5125 3.04934C58.5444 2.07501 58.5843 2.53477 58.3233 2.16396V2.16344ZM31.608 36.3886C32.6552 36.8763 31.9647 36.4481 32.1592 36.8318C32.3873 37.0573 32.0582 37.6546 32.7727 36.8985C33.1496 36.4993 32.9226 36.749 32.8503 36.2102L30.5735 36.0871C30.1796 37.1328 30.3858 36.3829 30.6947 36.6322L31.608 36.3886Z" fill="#FEFEFE"/>
<path fill-rule="evenodd" clip-rule="evenodd" d="M52.4673 15.672L52.8989 15.7278C52.8314 14.9702 52.6172 15.1196 53.2992 15.086L53.3003 14.904C53.0467 14.8078 52.9473 14.7018 52.731 14.5627L51.4716 15.2738C50.9209 15.536 51.5301 15.0721 51.0618 15.552C52.6757 16.4084 50.6928 15.0447 52.4673 15.672ZM61.4055 38.0629C62.162 37.5458 61.7064 38.2574 61.632 37.4532C61.607 37.1858 61.4502 37.0193 61.4263 36.3786L61.2918 36.0729C60.5752 36.4297 60.6555 36.5523 60.3886 36.9298C60.9654 37.5954 60.9234 37.0002 61.4061 38.0629H61.4055ZM71.5665 5.86713C71.9104 5.67992 72.4 5.51339 72.5924 5.35049C73.0762 4.9409 72.9141 5.01071 72.9013 4.36788L72.0231 4.31151C71.8498 5.17259 71.7328 4.97089 71.5665 5.86765V5.86713ZM65.6296 40.3855L63.803 39.9413C64.1454 40.807 63.7302 40.038 64.4883 40.3855C64.4883 41.3479 64.5978 41.4778 64.2602 42.1625H65.1735C64.8359 41.4778 64.9449 41.3479 64.9449 40.3855H65.6301H65.6296ZM42.8215 15.5065C42.7226 15.1202 42.6918 14.9914 42.5674 14.619L41.6642 14.815L41.9954 16.2476C42.4074 16.0138 42.0991 16.2067 42.4441 15.9637C42.6897 15.7904 42.5775 16.096 42.8215 15.5065ZM72.1975 37.9424C72.0034 37.5448 71.7924 37.2825 71.7807 36.8192C71.7435 35.321 72.0018 36.0398 72.2512 35.7988C72.8274 36.1096 72.5924 35.9834 73.1246 36.165L72.7089 35.7207C72.7057 35.1746 72.7859 35.7476 72.4792 35.4983C70.4081 35.5433 72.1996 36.1944 71.3373 37.9419H72.1969L72.1975 37.9424ZM47.1343 3.58439C47.5596 3.46699 46.9578 3.56629 47.5846 3.54095C48.2395 3.51405 47.5926 3.6842 48.0247 3.51095L48.3049 2.40681L47.819 1.85242C47.6223 2.1291 47.1859 3.14894 47.1338 3.58439H47.1343ZM12.8523 17.1593L12.7343 17.5989C12.9341 17.5632 13.8304 17.3693 13.8474 17.3589C14.5241 16.9571 14.1802 17.3398 14.2275 16.5279L14.1701 16.5899L13.0038 16.5046L12.8523 17.1593ZM13.4306 20.0523C13.764 20.2794 13.7034 20.36 14.2536 20.3947L14.3673 20.3936C14.5672 20.0539 14.4922 20.0461 14.883 19.727L13.9527 18.9673L13.4301 20.0518L13.4306 20.0523ZM64.2772 34.8979C63.4734 34.6786 64.1491 34.2261 62.5995 33.9712L62.541 34.0705C62.6957 34.327 62.8616 34.6507 63.222 34.9677C63.2991 35.0355 63.4873 35.2315 63.6414 35.2491C64.8141 35.3856 63.9444 35.3442 64.2772 34.8979ZM79.7865 29.1409L79.5585 28.2762C79.0747 27.7818 79.4543 28.0988 78.835 27.8832L78.7611 29.3881L79.7871 29.1404L79.7865 29.1409Z" fill="#FEFEFE"/>
<path fill-rule="evenodd" clip-rule="evenodd" d="M12.4525 20.5719L12.8427 20.6406L12.999 21.1671L13.3408 20.999C14.1679 21.119 13.5747 21.0973 13.7974 20.8377C14.7155 20.8377 13.8942 20.9225 14.254 20.3945C13.7033 20.3598 13.7644 20.2791 13.4311 20.0521C12.9942 20.2124 12.8623 20.2124 12.4525 20.5719ZM58.898 8.39687L58.9607 8.84318L58.9549 9.7539C59.4227 9.57238 59.5317 9.83096 59.5827 8.81008C59.6183 8.09899 59.5779 8.08554 59.2366 7.68319L58.898 8.39687ZM6.68891 21.9066C6.9478 21.7251 6.73463 21.7686 7.18382 21.6532C7.20828 21.647 7.80898 21.5762 7.82015 21.5746L7.80579 21.2835L5.22064 21.3528C5.67144 21.812 6.03664 21.9335 6.68891 21.9061V21.9066ZM22.0164 7.95367H24.1641L24.1152 7.4484L22.2461 7.53942C22.0536 7.34394 21.8771 7.80938 22.1041 7.28601L21.8899 7.28653L22.0164 7.95367ZM38.9371 22.9901C39.4219 22.791 39.3082 22.7031 39.3082 23.2083C39.6744 23.5652 39.9758 23.8336 40.3437 24.1692H40.7413C40.1279 23.3547 39.9237 24.0472 39.9471 22.8365L39.8669 22.4357L39.1423 22.4662L38.9371 22.9901ZM45.5363 7.95884L46.2285 7.7318C46.2274 7.73025 45.8734 7.19913 45.766 7.06519H44.6252C44.8442 7.87402 44.9144 7.52908 45.5369 7.95884H45.5363ZM57.8667 11.0644C58.5147 11.4548 58.1266 11.3638 58.3494 11.0633C58.898 10.7101 58.5657 11.1021 58.7901 10.5353C59.4338 9.5972 58.9884 10.3543 58.7805 9.998L57.972 10.479C57.9204 10.5219 57.8002 10.6574 57.7492 10.7008C57.2628 11.1109 57.7476 10.7339 57.291 11.0375C57.5669 11.1678 56.997 11.1787 57.8667 11.0644ZM31.7287 15.5063C32.1194 15.859 31.8982 15.6712 32.0646 16.0136C32.4527 15.7157 32.3209 16.5483 32.4033 15.2854C31.4331 14.7554 32.2773 14.7098 31.3922 14.6721C30.3263 14.6261 31.3151 14.6209 30.9302 14.8402L31.7281 15.5068L31.7287 15.5063ZM43.9384 39.7192H45.993V39.2749H43.9384V39.7192ZM89.4807 27.1036L90.285 26.6599L90.2855 25.774L89.6046 25.9007C89.2702 26.7912 89.1644 26.362 89.4807 27.1036ZM16.4044 30.4413L16.7658 30.2003C17.1342 30.1471 17.0354 30.2076 16.7669 29.9454C16.979 29.0197 16.7685 29.6165 17.1964 28.8356C15.7797 29.3165 17.4303 28.6861 15.8754 29.7794C15.8345 29.8083 15.7537 29.8523 15.6968 29.8947C16.7813 30.3462 16.0854 30.0121 16.4038 30.4413H16.4044ZM20.4195 17.5563L20.3461 18.1293L21.7033 18.1159L21.8346 17.0867C21.5523 17.3189 21.732 17.2972 21.2467 17.4704C20.7427 17.6504 20.8469 17.5496 20.4195 17.5563ZM61.4741 34.7322C61.5326 34.6996 61.6075 34.5734 61.6389 34.6184C61.6703 34.6639 61.7601 34.53 61.8037 34.5021C61.8484 34.4736 61.9196 34.4204 61.9733 34.3873C62.2524 34.214 62.0658 34.2668 62.5421 34.0708L62.6006 33.9715L62.3385 33.821L62.2242 33.3447C61.3173 33.2743 62.0642 33.0364 61.5289 33.4998C61.6378 33.8851 61.5778 33.8349 61.5725 33.9958C61.5703 34.0609 61.4853 34.574 61.4741 34.7327V34.7322ZM66.8549 31.7223C67.4604 32.3709 68.455 31.8097 69.0329 31.7285L68.37 31.2083C67.7804 31.5868 67.6124 31.5905 66.8549 31.7223ZM37.0882 25.5599L37.0893 25.5568C38.0047 25.3758 37.4167 25.7507 37.8532 25.2915L35.4897 24.8431L35.9804 25.475L37.0882 25.5599ZM45.1733 24.8451L45.3194 25.5893L45.6751 25.504L45.5379 25.3054C46.7053 25.3949 46.4342 25.2687 46.7074 25.0587C46.1838 24.4749 46.1046 24.7138 45.1733 24.8457V24.8451Z" fill="#FEFEFE"/>
<path fill-rule="evenodd" clip-rule="evenodd" d="M22.1041 7.28628C21.8771 7.80965 22.053 7.3442 22.246 7.53969L24.1151 7.44867L23.8738 7.06546H22.2391L22.246 6.68534L22.1041 7.28628ZM55.2331 15.7274L56.4749 15.4672C56.2984 15.3504 56.3048 15.173 56.224 15.0323L55.4851 14.993L54.298 14.8063C54.3608 14.8477 54.6819 14.9325 54.7308 14.9749C55.4048 15.5598 54.953 14.4831 55.2337 15.7274H55.2331ZM12.656 17.1594H12.8532L13.0047 16.5047L14.1711 16.59L13.7463 16.0025C13.7144 16.0082 13.0988 16.1535 13.085 16.1551C12.5513 16.2156 12.731 16.2259 12.428 16.0884C12.6263 16.6707 12.5975 16.3485 12.656 17.1589V17.1594ZM54.8972 13.2579L55.0407 13.8377C55.871 13.8863 55.5244 13.7844 55.761 12.8411C55.5324 12.2815 55.7158 12.0648 54.8982 11.9537C55.0348 11.9992 55.3495 11.9862 55.5579 12.1755C55.1241 13.7394 55.7647 12.3431 55.2629 12.9471C55.0774 13.1705 54.7361 13.0469 54.7137 13.0133L54.8972 13.2579ZM15.5181 38.1504L15.9641 37.9797C15.1912 37.2759 14.566 37.6353 13.893 38.2119L15.5181 38.1504ZM40.2474 10.7952C40.3851 11.4546 39.9742 10.9529 40.5132 11.3134L42.0426 11.2477L41.4664 10.6235C40.753 10.8149 40.8816 10.9829 40.2474 10.7952ZM89.2776 14.8399L89.6359 15.4998C89.8698 14.8089 89.7757 14.7153 90.1866 14.3274C89.975 13.1586 90.2031 14.1609 89.8331 13.7353L89.6545 14.0094C89.6332 14.0507 89.5349 14.2524 89.5093 14.3078C89.4169 14.5069 89.3398 14.707 89.277 14.8399H89.2776ZM38.8414 23.7335L39.2815 23.9476C39.6712 23.9476 39.5994 23.8385 39.5994 24.1695H40.3431C39.9753 23.8339 39.6738 23.5655 39.3076 23.2086C38.6537 23.4088 38.7053 22.7323 38.8408 23.733L38.8414 23.7335ZM59.9218 33.7375L59.7921 33.9438C60.2376 34.2495 59.1015 34.3638 60.5953 34.2143L60.9143 34.2546L60.505 33.3051C60.0552 33.6465 60.0977 33.15 59.9218 33.737V33.7375ZM2.60886 29.2325C2.06663 29.4326 2.29841 29.1875 2.15222 29.7233H2.99161C3.45357 29.2527 3.64813 29.4575 4.10158 28.8705C3.09208 28.9486 3.55457 28.6171 3.2691 29.5087L2.60886 29.2325ZM64.2612 31.5287C64.3064 31.5023 65.604 31.7112 64.3899 30.9769C63.9135 30.6888 63.8577 30.8631 63.4085 30.9541L64.2612 31.5287ZM63.156 16.3971L63.6435 14.8725C62.9338 14.9227 63.4654 14.615 63.0694 15.0618C63.0534 15.1973 62.9631 15.7331 62.9641 15.823C62.9716 16.3185 63.0056 16.1571 63.156 16.3966V16.3971ZM11.6476 37.445L13.7979 37.5422C13.1648 36.978 12.3663 36.9775 11.6476 37.445ZM75.2318 10.1751C74.8607 9.58092 75.0691 9.89949 74.7634 9.8152C74.1414 9.82347 74.5933 9.61919 74.2818 9.95276C74.7746 10.6478 74.3828 10.2708 74.9516 10.623C75.3471 10.3892 75.3556 10.999 75.2312 10.1746L75.2318 10.1751ZM52.615 11.0636L53.0594 11.3046L53.3566 10.8226C52.7633 10.5734 53.0499 11.1091 53.1014 10.2108L52.615 10.1276V11.0636ZM58.9017 37.8582L58.8326 38.002C58.8995 38.0646 59.1834 38.3206 59.4652 38.53C59.5103 38.4716 59.5853 38.3123 59.6028 38.3552L59.8952 37.7713L59.892 37.519C59.2605 37.6607 59.5444 37.5122 59.336 38.0899C59.0813 37.566 59.4662 37.7853 58.9022 37.8582H58.9017ZM14.5023 30.3232L14.4044 29.8402L13.5688 29.5102L13.5762 29.9457C14.0515 30.4101 13.7399 30.2172 14.5017 30.3237L14.5023 30.3232ZM52.5156 38.4716L52.6161 38.6324C53.5421 38.4674 52.9637 39.0011 53.4778 38.3019C53.8653 37.7744 53.5565 38.0542 53.3996 37.7191C53.1657 38.0501 53.3683 37.8856 53.0807 38.1499C52.9882 38.2352 52.7591 38.4204 52.7261 38.3707C52.6921 38.3195 52.5847 38.4364 52.5156 38.4721V38.4716ZM62.5846 37.9435L62.7206 37.5805L62.3161 36.9759C61.9046 37.2645 61.7659 36.4707 62.0748 37.6115C62.0923 37.6762 62.1683 37.7015 62.1917 37.717C62.4389 37.8867 62.3958 37.8427 62.5851 37.943L62.5846 37.9435ZM28.8676 35.9799L29.1435 35.5129L27.4976 34.7051C28.2201 35.6086 28.2041 34.9125 28.8676 35.9799ZM41.8242 9.42371L41.2027 9.45732C41.3372 10.8356 41.048 9.98069 41.7162 10.2698L41.8242 9.42371ZM50.7055 24.6143L51.2323 23.7837L50.243 23.9476C50.5163 24.5677 50.2478 24.2057 50.7055 24.6143ZM21.1057 7.06546L20.2733 7.12183C20.2302 7.1332 20.1494 7.17458 20.1148 7.18544C20.0803 7.1963 20.0128 7.23353 19.9628 7.26042C20.4003 7.46574 21.1429 7.51332 21.3343 7.51073L21.1057 7.06546ZM30.6936 15.5065L30.6947 15.5789L30.5192 14.5234L29.7676 14.7727L30.6936 15.5065ZM54.6696 37.6736C55.6499 37.7848 55.1396 37.5624 55.2076 37.4977C54.3602 36.8601 55.1396 37.0866 54.213 37.1254L54.6696 37.6736ZM44.488 1.34256C44.4726 1.67509 44.345 1.7387 44.5587 1.87679C45.3593 2.39291 45.0626 1.78939 45.161 1.73405C44.8213 1.25413 45.1966 1.58356 44.488 1.34256ZM77.8142 39.2525C78.2209 39.284 78.2071 39.4149 78.7802 39.0529C78.7201 39.0079 78.6499 38.8506 78.6053 38.9122L77.8477 38.7451L77.8142 39.2525Z" fill="#FEFEFE"/>
<path fill-rule="evenodd" clip-rule="evenodd" d="M55.0404 13.8376L54.8969 13.2579L54.2239 13.1327C54.2436 13.1705 54.4131 13.6277 54.5482 13.8113L55.0404 13.8381V13.8376ZM37.9092 25.8895L38.6014 26.0209L38.3956 25.2808L38.1522 25.3931C37.7258 25.3931 37.9092 25.3201 37.9092 25.8895ZM15.8996 38.7291C16.0691 37.9875 15.8358 38.3738 16.101 38.0428L15.9644 37.9792L15.5184 38.1498L15.4514 38.7363L15.9001 38.7285L15.8996 38.7291ZM57.1179 36.6092C56.5714 36.2239 57.6335 36.6496 56.4162 36.2151C55.9133 36.0357 56.0377 36.0264 55.8357 36.165C55.875 36.1965 55.9245 36.212 55.9383 36.2757C55.9521 36.3403 56.0276 36.3698 56.0446 36.3874C56.0621 36.4049 56.1376 36.4815 56.1552 36.4991L57.1179 36.6097V36.6092ZM59.9976 39.3776C59.8423 40.0778 60.1209 39.8053 59.4798 40.0147L59.8928 40.0106C60.2245 39.8777 60.1028 39.9356 60.3383 39.7308L60.4207 39.1971C60.3968 39.2126 60.0199 39.3248 59.9976 39.3776ZM18.4847 38.5879L19.1396 38.5465L19.197 38.1199L18.5543 38.2129L18.4847 38.5879ZM34.4507 35.9804L34.5245 36.029C34.5198 36.0491 33.9951 36.8792 35.1821 36.603L34.4507 35.9798V35.9804ZM40.0797 20.8705L40.5358 20.8813C40.2748 20.2432 40.6039 20.8208 40.2275 20.4019L39.7624 20.3187C39.7735 20.3342 39.9341 20.7655 40.0797 20.8705ZM78.8735 41.4881L79.3312 40.8313C79.413 40.4853 79.4502 40.6922 79.1015 40.3928C78.9803 40.8923 78.9245 40.8949 78.8729 41.4881H78.8735ZM68.6572 37.9425C68.4999 37.7604 68.5924 37.8675 68.4446 37.6203L68.1416 37.0736V37.9425H68.6572ZM75.7588 41.9406C75.5435 41.2983 75.686 41.5424 75.2203 41.197V41.7182L75.7588 41.9406ZM53.3563 10.8231C53.4387 10.278 53.5865 10.6152 53.1012 10.2113C53.0496 11.1096 52.7631 10.5738 53.3563 10.8231ZM30.0092 1.68747C29.9746 1.7428 29.8369 1.88399 29.7673 2.10482C29.6503 2.47717 29.7317 2.18446 29.8401 2.38046C30.3106 1.94088 30.0825 1.94812 30.0092 1.68695V1.68747ZM16.404 30.4416C16.2063 30.7953 16.4838 30.5771 16.1499 30.8341C16.7746 30.6433 16.5906 30.7896 16.765 30.2006L16.4035 30.4416H16.404ZM39.9468 22.8372C40.1387 23.0736 39.9925 22.8983 40.379 23.0596C40.2195 22.7602 40.2881 22.8641 40.0914 22.6118C40.0739 22.5895 39.9941 22.5802 39.9808 22.5166C39.9681 22.4561 39.9038 22.4649 39.8665 22.437L39.9468 22.8378V22.8372ZM58.3485 11.0636L58.8153 10.9374C59.2911 10.8417 58.8206 10.88 58.7892 10.5356C58.5649 11.1024 58.8977 10.7104 58.3485 11.0636ZM77.814 39.2524L77.848 38.7451L77.5232 38.9318L77.814 39.2524ZM52.0167 17.5353C52.6344 17.3093 52.3287 17.481 52.6142 16.9659L52.0167 17.5353ZM42.0041 14.3615C41.7277 14.7814 42.3369 14.5477 42.2151 14.3817C42.2141 14.3801 42.1832 14.3527 42.1811 14.3512L42.0041 14.361V14.3615Z" fill="#FEFEFE"/>
</svg>
