<svg width="95" height="51" viewBox="0 0 95 51" fill="none" xmlns="http://www.w3.org/2000/svg">
<g clip-path="url(#clip0_1578_496)">
<path fill-rule="evenodd" clip-rule="evenodd" d="M35.3725 37.6268V46.8526C35.3725 51.6175 43.2991 51.4518 43.2991 46.8526V37.6268C43.2991 35.7658 41.7262 34.0785 39.7968 34.0785H38.8751C36.9456 34.0785 35.3725 35.7658 35.3725 37.6268ZM48.829 47.9169H47.9072V43.1265L49.7507 43.304C50.0763 44.649 49.9352 45.6005 49.9352 47.2072C49.9352 47.7528 49.3952 47.9169 48.829 47.9169ZM48.6446 41.175H47.9072V36.5621C50.3298 36.5621 49.9352 36.2065 49.9352 40.2879C49.9352 40.8614 49.266 41.175 48.6446 41.175ZM45.142 50.0459C50.9112 50.0459 52.6998 50.92 52.6998 45.2555C52.6998 43.8001 52.4236 42.5474 51.2251 42.2394V41.8844C52.933 41.4455 52.5154 39.2031 52.5154 37.094C52.5154 33.6169 48.3164 34.2554 45.1417 34.2554V50.0456L45.142 50.0459ZM57.1245 29.1106H55.6498V18.1109C58.7829 18.1109 58.0462 17.5815 58.0462 27.8688C58.0462 28.4666 57.7203 29.1106 57.1245 29.1106ZM52.8845 16.1591V31.4171C61.7491 31.4171 60.8112 32.0223 60.8112 19.5302C60.8112 15.0258 56.6268 15.6269 53.4375 15.6269C53.0127 15.6269 52.8845 15.7503 52.8845 16.1591ZM86.0655 16.1594V31.4174H88.8307V24.853H91.4116V31.4174H94.1765V15.6272C92.272 15.6272 91.4116 15.3711 91.4116 16.1594V22.5463H88.8307V15.6269C86.9262 15.6269 86.0655 15.3708 86.0655 16.1591V16.1594ZM29.2893 41.8847V36.5621H30.5796C31.0111 36.5621 31.3169 36.8565 31.3169 37.2718V41.175C31.3169 42.102 30.1701 41.4778 29.2893 41.8847ZM26.5241 50.0459H29.2893V43.8362C30.0486 44.0314 29.924 44.3323 30.1507 45.1361L31.6858 50.0459H34.4507C34.3561 48.9505 32.7742 44.9328 32.4231 43.4815C34.2802 42.5356 34.0822 40.5555 34.0822 38.5139C34.0822 33.5398 31.242 34.256 26.5244 34.256V50.0462L26.5241 50.0459ZM11.0396 42.245C11.2867 42.4573 11.5002 42.5897 11.2893 43.1831C11.1962 43.4448 11.1078 43.5166 10.9963 43.6208C10.6311 43.9624 11.0903 43.6705 10.4928 43.8797C9.69283 43.8899 9.5927 43.9785 9.18705 43.4815C8.81758 42.9226 8.46522 42.1371 9.32012 41.6332C10.0184 41.2217 10.8164 41.4284 11.0399 42.245H11.0396ZM9.0611 39.011C9.35371 39.6448 9.13215 39.8934 8.65965 40.802C8.20167 41.6823 8.52238 41.6177 7.89744 42.2363C6.91884 43.2052 7.00152 42.6487 6.23059 43.2751L5.90891 43.5378C5.17674 44.1181 5.43802 43.944 5.18708 44.4106L2.36271 44.4373C1.39541 44.3363 2.01681 44.5129 1.78814 44.248C1.69965 45.3599 1.82658 46.9561 1.45387 47.8283C1.45387 50.5417 1.90312 50.4012 5.5094 50.4005C14.7441 50.3984 12.9752 51.8839 13.0701 41.3497C13.0847 39.7427 13.1302 39.6435 12.2133 38.8686C12.0541 38.9472 12.1025 38.9507 11.764 39.0032C11.702 39.0128 11.4985 39.0268 11.4181 39.0312L9.0611 39.011ZM25.6023 28.2238V18.998C25.6023 17.2949 27.9987 17.3216 27.9987 18.998V28.2238C27.9987 29.7914 25.6023 29.7827 25.6023 28.2238ZM22.837 18.998V28.2238C22.837 32.8227 30.7637 33.0266 30.7637 28.2238V18.998C30.7637 17.137 29.1908 15.4497 27.2611 15.4497H26.3393C24.4099 15.4497 22.8367 17.137 22.8367 18.998H22.837ZM56.7556 47.2072V37.2718C56.7556 36.2376 59.1521 35.7738 59.1521 37.804V46.6748C59.1521 48.4904 56.7556 48.2259 56.7556 47.2069V47.2072ZM53.9907 37.4493V47.0298C53.9907 51.3467 61.9173 51.9488 61.9173 46.3201V38.3364C61.9173 32.3083 53.9907 33.1939 53.9907 37.4493ZM69.4752 31.4171H72.056C72.3738 27.7408 72.3764 28.401 74.8209 28.401C74.8209 29.3929 75.1678 30.4727 75.1898 31.4171H77.955L76.5856 23.3318C76.3405 21.9202 76.1387 20.7524 75.9013 19.3775C75.142 14.9838 75.931 15.6269 72.7933 15.6269C72.087 15.6269 72.1106 16.4724 72.0005 17.1703L70.2383 27.3612C70.0959 28.1846 69.7174 30.9306 69.4752 31.4168V31.4171ZM70.581 37.4493C70.581 42.5008 75.5583 43.1822 75.5583 46.8523C75.5583 48.7164 72.9774 48.2765 72.9774 47.2072V45.2558H70.3966C70.3966 47.5277 70.5187 50.4008 74.2677 50.4008C78.4692 50.4008 79.7453 45.6064 75.7921 41.6596C74.5144 40.384 73.1615 39.2606 73.1615 37.4496C73.1615 36.7303 73.988 36.0499 74.8122 36.3803C75.1032 36.4969 75.4191 36.4126 75.5457 37.4614C75.766 39.2851 74.7935 39.2239 77.5856 39.2239C78.2635 39.2239 78.1385 38.8453 78.1385 37.9818C78.1385 32.4276 70.5807 33.1973 70.5807 37.4496L70.581 37.4493ZM34.2663 31.4171H37.0312C37.0312 30.3304 38.9261 21.1826 39.2681 19.1991C39.3792 18.5541 39.5097 17.989 39.6618 17.2685C40.0497 15.4308 40.3036 15.6269 37.7686 15.6269C37.0354 15.6269 37.1895 16.4438 36.976 17.8802C36.8591 18.6657 36.6482 19.8836 36.5316 20.6461L35.5566 26.0945C35.5566 24.4449 35.148 22.5 34.899 20.8727C34.6319 19.1286 34.4604 17.1911 34.0819 15.6269C30.8012 15.6269 30.8893 14.1607 32.591 22.3843L34.2663 31.4171ZM62.2858 16.1594V31.4174H68.9222V29.1109H65.0511V24.3206C65.324 24.4468 67.8164 24.978 67.8164 23.9656V22.1913H65.0511V17.9334H68.9222V15.6269H62.8391C62.4144 15.6269 62.2862 15.7503 62.2862 16.1591L62.2858 16.1594ZM7.62453 16.1594C7.54475 16.2582 7.20499 16.8243 7.20499 16.3369L6.4079 15.6272C5.84367 16.3083 5.39087 16.5921 4.02762 16.5386C3.25023 16.5082 3.21244 16.4898 2.79 16.1146C2.21123 15.6005 2.60138 15.6098 1.8227 15.4675C0.591542 16.1836 0.170066 17.9216 0.956174 19.4773C1.33211 20.2215 1.73421 20.527 2.21737 21.1021C2.72508 21.7067 2.99314 22.0794 3.63295 22.5463L6.11012 21.532C6.49607 21.2771 6.3404 20.5556 8.77656 20.3144C10.6088 20.1329 8.51399 21.1739 11.6058 20.0471C12.8056 19.6097 12.6819 20.0403 13.2807 19.0471C13.7303 18.3014 13.1089 18.7826 13.8046 18.4264C14.5936 17.3978 13.031 15.3158 11.9517 14.9263C10.7095 14.4781 8.14935 14.7646 7.62453 16.1591V16.1594ZM40.9027 31.4171H47.5387V29.1106H43.4832V24.4977C46.7684 24.4977 46.2481 24.9752 46.2481 22.1913H43.4832C43.4832 16.9449 42.4894 17.9334 47.5387 17.9334C47.5387 14.8927 48.6594 15.6269 40.9027 15.6269V31.4171ZM77.4015 18.1109H79.9823V31.4171H82.7473V18.1109H85.1437V15.6269H77.4015V18.1109ZM62.2858 34.7882C62.2858 37.1316 61.8479 36.7396 64.8667 36.7396V50.0459H67.6316V36.7396H70.0281V34.2557H62.8388C62.4141 34.2557 62.2858 34.3791 62.2858 34.7879V34.7882ZM16.2013 31.4171H22.653V29.1106H18.7818V15.6269H16.2013V31.4171ZM3.37651 33.0139C2.93662 33.4643 1.8466 34.3794 1.59436 34.928C1.08181 36.044 1.73292 37.1325 2.63917 37.3884C4.5589 37.9299 5.22099 35.6887 7.16882 34.4332C7.84189 34.606 10.4915 37.1562 10.6714 37.8043C11.3093 37.6401 13.0578 35.8646 13.4364 35.3203L12.1022 33.9386C11.567 33.5156 11.9762 33.7521 11.5929 33.6639C10.9931 33.1777 10.4373 32.5734 9.87433 32.7817C9.86658 32.7845 9.42961 32.9797 9.39279 32.9999L9.15766 33.1447C9.11083 33.1743 8.99166 33.2725 8.94451 33.3005C8.62347 33.4888 9.28395 33.3947 8.43583 33.5081C7.93587 33.575 7.25634 33.2451 6.7454 33.0596C6.07944 32.8177 6.44375 32.851 5.50875 32.7898L4.30117 32.8317C3.96334 32.9558 4.47525 32.8958 3.89552 33.0521C3.02835 33.2856 4.51142 33.0111 3.65039 33.0742L3.37683 33.0142L3.37651 33.0139ZM18.7818 41.175H15.8325C15.8325 43.977 15.2805 43.4815 18.7818 43.4815V46.4976C21.9318 46.4976 21.3627 47.0835 21.3627 43.4815H24.128V41.175C20.5175 41.175 21.2945 41.3933 21.3701 39.7629C21.4576 37.8826 21.5739 38.1589 18.7822 38.1589V41.175H18.7818ZM0.348022 0.875282L0.847979 1.67073C1.51491 3.14723 2.92306 6.38185 3.25475 7.64294C3.47405 8.75296 4.09964 9.82288 4.50723 10.9142C4.76237 11.5969 4.90383 12.6332 7.15751 12.2481L7.72174 12.0454C7.16139 11.4079 5.00621 6.18758 4.94 5.33649C4.41776 4.16151 3.54252 1.42796 2.92887 0.546101C2.44474 0.546101 1.90958 0.520301 1.43643 0.530248C0.550524 0.549209 0.726866 0.402181 0.348345 0.874661L0.348022 0.875282Z" fill="#FEFEFE"/>
<path fill-rule="evenodd" clip-rule="evenodd" d="M2.19137 29.114C2.46783 29.7674 2.21591 29.3664 2.69455 29.8833C3.21583 30.4466 4.07848 31.0424 4.5878 31.7742L3.37634 33.0163L3.6499 33.0763C4.51126 33.0132 3.02786 33.2877 3.89503 33.0542C4.47476 32.8982 3.96286 32.9579 4.30068 32.8338L5.50826 32.7919C6.44326 32.8531 6.07895 32.8198 6.74492 33.0617C7.25585 33.2472 7.93538 33.577 8.43534 33.5102C9.28346 33.3968 8.62331 33.4909 8.94402 33.3026C8.99149 33.2749 9.11034 33.1764 9.15718 33.1468L9.3923 33.002C9.42912 32.9818 9.86609 32.7866 9.87385 32.7838C10.4368 32.5755 10.9929 33.1798 11.5924 33.666C11.1266 32.7089 10.5763 32.698 9.93327 31.7739C10.4407 31.0446 11.1512 30.5087 11.823 29.8668C12.7919 28.9408 13.067 29.0956 13.067 27.3605L12.5461 27.1895C12.2147 27.8952 11.636 28.9113 10.9803 29.2389C8.9537 30.2523 7.47224 30.3054 5.14234 29.4833C3.7048 28.9756 3.38862 29.2943 2.19104 29.114H2.19137ZM3.25426 7.64564C2.92257 6.38455 1.51475 3.14993 0.847491 1.67343L0.347534 0.87798V12.2589C1.51798 12.2589 2.2495 12.1 3.1128 12.0814C3.1128 10.6875 2.85378 8.93968 3.25426 7.64595V7.64564ZM4.93952 5.33919C5.00572 6.19028 7.1609 11.4106 7.72125 12.0481V0.548798H5.1404L5.07678 4.90463C5.07161 4.93447 5.06224 4.98763 5.05578 5.01529L4.93919 5.33919H4.93952ZM4.5878 41.2667C4.623 41.3015 4.6876 41.2931 4.70762 41.3559C4.81291 41.686 6.75686 42.1802 5.11198 43.4463C5.0855 43.4665 5.03511 43.5004 5.01154 43.5181L4.8184 43.6617C4.4851 43.9903 5.24795 43.7472 4.40532 43.9682L3.84465 43.8383C3.57045 43.6082 3.55785 43.7494 3.37247 43.3658C3.12701 42.8579 3.45644 43.0282 3.48195 42.9993C3.30109 42.5818 3.30917 42.5831 3.29754 41.9658L2.74461 42.7105C2.13388 42.7046 1.90069 42.6536 1.45532 42.5564L1.45435 42.5961V47.8317C1.82706 46.9597 1.70013 45.3636 1.78862 44.2514C2.01729 44.5162 1.39589 44.3397 2.36319 44.4407L5.18756 44.414C5.4385 43.9474 5.17722 44.1214 5.90939 43.5411L6.23107 43.2784C7.00168 42.6521 6.919 43.2082 7.89792 42.2396C8.52254 41.621 8.20215 41.6854 8.66012 40.8054C9.13263 39.8968 9.35419 39.6481 9.06158 39.0143L6.90059 39.0093C6.88573 39.6584 6.66256 40.0118 6.26983 40.4933C5.58319 41.3347 5.16204 41.3394 4.58812 41.2679L4.5878 41.2667Z" fill="#FEFEFE"/>
<path fill-rule="evenodd" clip-rule="evenodd" d="M8.72169 28.249L8.27437 28.4591L7.32743 29.2884L7.13268 29.3096L5.35764 27.9447C4.67262 28.2157 3.9637 27.6798 2.18834 28.1268C1.88927 28.2021 1.6338 28.272 1.41644 28.0466L1.0531 28.3736C1.78656 28.8607 1.67966 29.0998 2.19124 29.1119C3.38882 29.2925 3.705 28.9739 5.14254 29.4812C7.47244 30.3037 8.9539 30.2505 10.9805 29.2368C11.6358 28.9089 12.2146 27.8931 12.5463 27.1875L13.0672 27.3584C12.7756 26.7893 13.0243 27.001 12.5363 26.627L12.108 26.6817C11.6998 26.8144 11.9711 26.6516 11.7121 26.9304C11.5222 27.1346 11.4534 27.4654 11.1065 27.7495C10.5985 28.1657 9.45289 28.2751 8.72169 28.249ZM3.63266 22.5466C3.88683 22.9314 3.83807 22.9519 4.16136 23.3063C4.54957 23.7318 4.59478 23.7495 5.097 23.9662C4.91259 23.2298 4.32607 23.6799 5.51848 23.1882C6.30878 22.8621 5.78751 23.3168 6.5003 22.803C9.37538 20.7297 8.57958 22.2684 10.249 21.7375C10.6944 21.5957 11.7893 21.1683 12.1455 21.187C12.918 20.5556 13.7035 19.7033 13.8046 18.427C13.1089 18.7832 13.73 18.302 13.2807 19.0477C12.6819 20.0409 12.8056 19.6104 11.6058 20.0477C8.51402 21.1745 10.6088 20.1338 8.77659 20.315C6.34043 20.5563 6.4961 21.2774 6.11016 21.5326L3.63298 22.5469L3.63266 22.5466ZM28.1829 6.40173H27.6299V5.15992L29.1046 5.33741V6.22455C28.6912 6.31718 28.6809 6.40204 28.1829 6.40204V6.40173ZM26.5238 8.88568H27.6299V7.28888C28.6877 7.31157 28.4277 7.44741 28.9154 8.18068C29.383 8.88412 29.4302 8.88568 30.5793 8.88568C30.3855 8.08463 29.8804 7.69639 29.4731 7.11139C31.4132 5.86087 29.8646 4.27277 29.1046 4.27277H26.5238V8.88568ZM19.5189 8.3532C19.5189 9.17165 20.5553 8.88536 22.6527 8.88536C23.308 8.88536 23.2056 8.53971 23.2056 7.82073H20.8091V6.93358H23.0212V6.04644H20.8091V5.1593H23.2056V4.27215H19.5189V8.35289V8.3532ZM12.514 5.51459C12.514 7.38555 14.4001 6.57456 15.2789 7.46606C14.4095 8.60809 14.5293 7.46606 12.3296 7.46606C13.0391 8.75636 13.3734 8.88536 14.726 8.88536C16.7058 8.88536 16.9338 6.58233 15.3852 6.12197C14.3753 5.8217 13.8957 6.21771 13.8043 5.15961C15.0115 5.15961 14.7457 5.2597 15.0671 5.36352C15.3251 5.44682 15.1746 5.45833 15.652 5.51024C15.8503 5.532 16.1749 5.51428 16.3851 5.51428C16.3105 5.36476 16.0922 4.09497 14.5416 4.09497C13.5123 4.09497 12.514 4.61656 12.514 5.51428V5.51459ZM44.9576 5.69208C44.9576 7.57547 47.4012 6.23419 47.5384 7.82104C45.496 8.27891 47.4732 7.46606 44.7732 7.46606C45.4801 8.7517 45.5744 8.88536 47.1696 8.88536C48.8558 8.88536 49.5512 6.64108 47.8304 6.12042C46.1419 5.60971 46.67 6.43997 46.0637 5.3371C47.0627 4.79685 47.1799 5.51459 48.829 5.51459C48.4192 4.76888 48.1805 4.09528 46.9855 4.09528C45.8351 4.09528 44.9579 4.60289 44.9579 5.69208H44.9576ZM38.3215 8.88568H41.8238V7.82104H39.4274V6.9339C39.728 6.9339 42.4823 7.21521 41.7004 6.2805C41.445 5.97526 41.9326 6.04675 41.2705 6.04675H39.427V5.15961H41.8235V4.27246H38.3212V8.88536L38.3215 8.88568ZM1.45455 42.5536C1.89993 42.6509 2.13343 42.7019 2.74385 42.7078L3.29677 41.963L3.82709 41.6957C4.2505 41.4635 4.15974 41.5795 4.58703 41.2643C5.16063 41.3361 5.5821 41.3314 6.26873 40.4897C6.66147 40.0082 6.88464 39.6547 6.89949 39.0057L4.06963 39.0728C3.94238 39.6504 3.78284 39.7822 3.23476 40.0703C2.67699 40.3635 2.58204 40.3809 1.80885 40.3799L1.45455 42.5533V42.5536ZM1.82241 15.4678C2.60109 15.6101 2.21095 15.6008 2.78971 16.1149C3.21183 16.4901 3.24994 16.5085 4.02733 16.5389C5.39058 16.5924 5.84338 16.3086 6.40761 15.6275C5.7142 14.5977 2.65955 14.2937 1.82241 15.4681V15.4678ZM5.55142 24.2904C5.91411 24.9009 6.13632 25.226 6.74899 25.5848C7.03514 25.4007 6.59235 25.53 7.29158 25.3084C7.54511 25.2279 7.76667 25.203 8.12775 25.1645L9.23876 24.0685C9.80945 23.6246 9.90989 23.3433 10.2154 22.8195L5.55142 24.2904Z" fill="#FEFEFE"/>
<path fill-rule="evenodd" clip-rule="evenodd" d="M5.09732 23.9662C4.81375 24.3234 4.91613 24.1537 5.32404 24.0511C4.98008 23.5239 5.21746 23.9423 5.32501 23.7723C7.24604 23.2525 8.39936 22.6333 10.4864 22.2902C10.6453 22.5165 10.6627 22.1465 10.4874 22.5864C11.1394 22.5233 10.6262 22.6551 11.0755 22.4067C11.1553 22.3626 11.38 22.1664 11.4702 22.0791C11.8965 21.6663 11.9036 21.6846 12.1455 21.187C11.7892 21.1683 10.6944 21.5957 10.249 21.7375C8.5799 22.2684 9.37537 20.7297 6.5003 22.803C5.78751 23.3169 6.30878 22.8621 5.51847 23.1882C4.32607 23.6802 4.91258 23.2301 5.097 23.9662H5.09732ZM33.7134 8.88601H34.8192V4.2731H33.7134V8.88601ZM1.45422 39.2233L4.0706 39.0735L6.90046 39.0063L9.06145 39.0113L11.4185 39.0315C11.4992 39.0272 11.7024 39.0132 11.7644 39.0035C12.1025 38.9507 12.0541 38.9476 12.2136 38.8689C8.33509 38.5998 5.60018 38.6915 1.63864 38.6915C1.52237 38.8251 1.4891 39.1232 1.45422 39.2227V39.2233ZM10.6702 26.4502C10.1314 27.1937 9.8088 27.1029 9.17481 27.6618C9.13379 27.6979 9.01429 27.8029 8.9778 27.8452C8.73686 28.1244 8.9371 27.8595 8.72233 28.249C9.45353 28.2751 10.5991 28.166 11.1071 27.7495C11.454 27.4654 11.5228 27.1346 11.7127 26.9304C11.9717 26.6516 11.7004 26.8148 12.1087 26.6817L12.5369 26.627C12.0525 26.2537 11.0316 25.7878 10.6708 26.4495L10.6702 26.4502Z" fill="#FEFEFE"/>
<path fill-rule="evenodd" clip-rule="evenodd" d="M1.45568 42.5934L1.45665 42.5536L1.81094 40.3802C2.58446 40.3812 2.67909 40.3641 3.23685 40.0706C3.78493 39.7825 3.94448 39.6507 4.07173 39.0731L1.45535 39.223V42.5934H1.45568ZM5.32582 24.0507L5.55319 24.2901L10.2172 22.8192L10.4891 22.5861C10.6645 22.1462 10.6471 22.5161 10.4882 22.2898C8.40082 22.633 7.24781 23.2522 5.32679 23.7719C5.21924 23.942 4.98186 23.5236 5.32582 24.0507ZM2.19205 27.5145C1.50251 27.7846 1.89007 27.4796 1.41821 28.0466C1.63557 28.2717 1.89104 28.202 2.19011 28.1268C3.96547 27.6798 4.67439 28.2157 5.35941 27.9447C5.14302 27.572 5.33745 27.8365 5.10362 27.5642C5.07972 27.5365 4.85816 27.374 4.81715 27.3432C4.20641 27.3152 3.72357 27.2941 3.11187 27.3932C2.51728 27.4899 2.19366 27.7809 2.19205 27.5142V27.5145Z" fill="#FEFEFE"/>
<path fill-rule="evenodd" clip-rule="evenodd" d="M3.11308 26.6275C2.48135 27.3773 2.85244 26.8025 3.22838 27.0297L4.20923 26.7994L4.81642 27.3437C4.85743 27.3741 5.07899 27.5367 5.10289 27.5647C5.33672 27.837 5.14229 27.5725 5.35868 27.9452L7.13372 29.3101L7.32847 29.2889L3.71025 25.8762C3.5549 25.9928 3.38954 26.0332 3.23871 26.2231C2.97388 26.5569 3.07593 26.2961 3.11308 26.6275ZM9.23981 24.0683L8.12879 25.1644C7.91854 25.5377 8.0923 25.4034 7.68083 25.7301C7.55649 25.8286 7.33881 25.9175 7.21963 25.9685L6.74971 25.5846C6.13704 25.2259 5.91484 24.9008 5.55214 24.2903L5.32477 24.0509C5.04153 24.6969 5.40745 24.622 6.20551 25.4258C6.75843 25.9825 6.64991 26.1743 7.35334 26.6275C8.79572 24.5545 9.36383 25.0307 9.23948 24.0683H9.23981Z" fill="#FEFEFE"/>
<path fill-rule="evenodd" clip-rule="evenodd" d="M2.19076 27.5144C2.19205 27.7811 2.51567 27.4901 3.11058 27.3935C3.7226 27.294 4.20544 27.3151 4.81586 27.3434L4.20867 26.7991L3.22781 27.0295C2.85188 26.8019 2.48078 27.377 3.11251 26.6272C2.66229 26.8038 2.79891 26.6157 2.38615 27.0186C1.83162 27.5591 2.20109 27.1187 2.19108 27.5144H2.19076ZM8.27486 28.459L8.72217 28.2489C8.93695 27.8594 8.73703 28.1243 8.97764 27.8451C9.01414 27.8028 9.13364 27.6981 9.17465 27.6617C9.80897 27.1028 10.1313 27.1936 10.67 26.4501C9.91587 26.4501 9.74017 26.8977 9.33485 27.2931C8.873 27.7438 8.58556 27.9182 8.27454 28.4593L8.27486 28.459ZM6.74948 25.5847L7.2194 25.9686C7.33889 25.9176 7.55658 25.8287 7.6806 25.7301C8.09206 25.4034 7.9183 25.5377 8.12856 25.1644C7.76748 25.2033 7.54592 25.2278 7.29239 25.3083C6.59316 25.53 7.03563 25.401 6.7498 25.5847H6.74948ZM10.5279 43.4817L10.4927 43.8799C11.0902 43.6707 10.6309 43.9626 10.9962 43.621C11.1076 43.5169 11.1964 43.4451 11.2891 43.1833C11.5 42.5896 11.2866 42.4572 11.0395 42.2452V43.1271L10.5276 43.482L10.5279 43.4817ZM10.2159 22.8191C9.91038 23.3429 9.80994 23.6242 9.23925 24.0681C9.85903 23.9108 9.28027 24.1629 9.69205 23.9148C9.71304 23.9021 10.0409 23.6152 10.0841 23.5754C10.7004 23.01 10.6309 23.2944 10.4875 22.5857L10.2156 22.8188L10.2159 22.8191Z" fill="#FEFEFE"/>
<path fill-rule="evenodd" clip-rule="evenodd" d="M10.4911 43.8805L10.5263 43.4823C9.65591 43.6585 10.047 43.671 9.18535 43.4823C9.591 43.9796 9.69112 43.8907 10.4911 43.8805ZM4.81686 43.6598C4.28622 43.6212 4.27234 43.5768 3.82373 43.4823L3.84311 43.8363L4.40378 43.9663C5.24609 43.745 4.48323 43.988 4.81686 43.6598Z" fill="#FEFEFE"/>
<path fill-rule="evenodd" clip-rule="evenodd" d="M3.84419 43.8358L3.82481 43.4818L3.48149 42.9965C3.45598 43.0255 3.12655 42.8551 3.37201 43.363C3.55739 43.7466 3.57031 43.6055 3.84419 43.8355V43.8358ZM7.20469 16.3372C7.20469 16.8246 7.54445 16.2585 7.62422 16.1597C7.3061 16.2856 7.4172 16.1824 7.20469 16.3372Z" fill="#FEFEFE"/>
</g>
<defs>
<clipPath id="clip0_1578_496">
<rect width="93.8285" height="49.9481" fill="white" transform="translate(0.348999 0.52359)"/>
</clipPath>
</defs>
</svg>
