<svg width="94" height="39" viewBox="0 0 94 39" fill="none" xmlns="http://www.w3.org/2000/svg">
<g clip-path="url(#clip0_1578_514)">
<mask id="mask0_1578_514" style="mask-type:luminance" maskUnits="userSpaceOnUse" x="0" y="0" width="94" height="39">
<path d="M93.6804 0.34256H0.850098V38.6523H93.6804V0.34256Z" fill="white"/>
</mask>
<g mask="url(#mask0_1578_514)">
<path d="M8.67562 0.34256H10.1398C14.3408 0.506686 18.3243 1.63648 22.1885 3.17537C23.9351 3.87128 25.5942 4.72197 27.2216 5.64742C28.4963 6.37258 29.5924 7.17371 30.8148 8.07925C31.4573 8.55538 32.0614 9.08473 32.6525 9.61733C34.1096 10.9303 35.4717 12.4676 36.477 14.1345C36.6849 14.4794 36.874 14.8872 37.0673 15.2671C37.2427 15.6121 37.3614 15.857 37.4233 16.0016C37.8412 16.9774 38.0835 18.0711 38.0412 19.1318C38.0161 19.7546 37.9554 20.3847 37.7935 20.9867C37.3827 22.513 36.4335 23.924 35.3082 25.0842C34.3037 26.1202 32.9194 26.8746 31.572 27.41C27.8985 28.8701 23.8502 29.2048 19.9596 28.4667C19.4698 28.3738 18.981 28.2752 18.4929 28.1709C18.4912 28.1705 18.4894 28.1704 18.4877 28.1708C18.486 28.1711 18.4843 28.1718 18.483 28.1728C18.4815 28.1738 18.4804 28.1751 18.4796 28.1766C18.4788 28.1781 18.4783 28.1798 18.4782 28.1815C18.4464 28.7559 18.4582 29.6672 17.7687 29.9036C17.306 30.062 16.6848 30.0949 16.2376 29.9215C15.6465 29.6928 15.3444 29.137 15.2411 28.5467C15.1443 27.9945 15.0724 27.4408 15.0252 26.8855C15.0244 26.8753 15.0207 26.8655 15.0146 26.8572C15.0085 26.8488 15.0001 26.8422 14.9905 26.838C13.3598 26.1234 11.7299 25.2183 10.3348 24.1283C8.98729 23.0757 7.58918 21.9288 6.76045 20.4216C5.89908 18.8551 6.91189 17.6644 8.24264 16.8958C9.73319 16.0345 11.3852 15.5401 13.0339 15.1184C13.6962 14.9494 14.3839 14.8791 15.0537 14.7463C15.074 14.7423 15.0924 14.732 15.1061 14.7169C15.1198 14.7018 15.128 14.6827 15.1294 14.6626C15.1721 14.0439 15.1486 13.3967 15.2026 12.806C15.2725 12.0382 15.3699 11.2748 15.4637 10.5095C15.5401 9.88574 15.6716 9.27283 15.8582 8.67076C16.0096 8.18325 16.315 7.9521 16.7839 8.32707C17.3897 8.81132 17.6943 9.58686 17.8838 10.3169C18.2348 11.6693 18.2921 13.1221 18.3184 14.3981C18.3185 14.4007 18.3191 14.4033 18.3202 14.4056C18.3213 14.408 18.3229 14.4101 18.3249 14.4119C18.3268 14.4137 18.3292 14.4151 18.3318 14.416C18.3343 14.4169 18.337 14.4173 18.3398 14.4172C19.2467 14.3932 20.1947 14.3559 21.0979 14.4379C22.4963 14.565 23.8735 14.8052 25.2295 15.1586C26.6075 15.5178 27.8939 16.0195 28.8046 17.092C29.3757 17.7639 29.6944 18.7284 29.343 19.5709C28.9845 20.4298 28.2315 21.1241 27.2931 21.3414C26.7447 21.4686 26.0666 21.3438 25.5394 21.1671C25.2295 21.0627 25.0889 20.7779 25.4315 20.5902C25.9005 20.3327 26.3561 20.1515 26.7033 19.7302C27.24 19.0782 26.1724 18.6991 25.7415 18.5622C24.9245 18.3026 24.102 18.1206 23.2612 17.9528C21.6606 17.6341 20.0346 17.4552 18.3833 17.4162C18.3785 17.4161 18.3737 17.417 18.3692 17.4189C18.3648 17.4209 18.3607 17.4238 18.3573 17.4276C18.3539 17.4312 18.3512 17.4357 18.3494 17.4406C18.3476 17.4455 18.3468 17.4507 18.3469 17.456L18.5289 25.6318C18.529 25.6384 18.5313 25.6447 18.5353 25.6497C18.5393 25.6548 18.5449 25.6582 18.551 25.6595C21.0314 26.162 23.6234 26.1718 26.1268 25.8362C27.8709 25.6022 29.5066 25.1297 31.039 24.2888C31.6336 23.9624 32.1677 23.583 32.6412 23.1504C34.0222 21.8894 34.6618 20.0353 34.4146 18.2149C34.3234 17.5425 34.077 16.8263 33.7883 16.2137C32.5103 13.4991 30.3847 11.3228 27.8675 9.5312C24.0673 6.82637 19.6822 4.93566 15.1336 3.81968C12.7858 3.24362 10.3874 2.9155 7.93808 2.83533C6.54697 2.7901 5.22316 2.84942 3.96675 3.01327C3.51494 3.07218 3.05058 3.21152 2.55652 3.33909C2.42628 3.37267 2.30537 3.42968 2.19382 3.51012C2.19187 3.5115 2.19029 3.51331 2.1892 3.51539C2.18811 3.51747 2.18754 3.51976 2.18754 3.52207C2.18754 3.52438 2.18811 3.52664 2.1892 3.52866C2.19029 3.53068 2.19187 3.5324 2.19382 3.53368C2.27274 3.58514 2.34428 3.6152 2.40843 3.62387C2.66389 3.65827 2.9195 3.69253 3.17525 3.72665C3.49235 3.7685 3.86886 3.89322 3.97888 4.21984C4.0567 4.45181 3.93078 4.61107 3.71951 4.70532C3.64505 4.73835 3.56765 4.76248 3.48733 4.77763C2.97528 4.8731 2.37789 4.84588 1.85496 4.73172C1.40022 4.63219 0.947572 4.52291 0.850098 4.00656V3.69171C0.975601 3.14408 1.26342 2.61758 1.63073 2.19711C2.03568 1.73195 2.58455 1.42888 3.1719 1.22576C3.60586 1.07598 4.20479 0.927431 4.96868 0.780095C6.19305 0.543926 7.42867 0.398081 8.67562 0.34256ZM8.17612 20.6605C8.60785 21.0647 9.02536 21.4718 9.49976 21.8135C10.4235 22.4781 11.3912 23.0754 12.4031 23.6055C13.2749 24.0625 14.1053 24.3786 14.9855 24.6873C14.991 24.6893 14.997 24.6901 15.0028 24.6895C15.0087 24.6889 15.0142 24.6871 15.019 24.6841C15.0239 24.681 15.0277 24.677 15.0303 24.6722C15.0329 24.6675 15.0342 24.6622 15.034 24.6568C14.9688 22.2965 14.9619 19.936 15.0135 17.5754C15.0136 17.5722 15.013 17.569 15.0117 17.566C15.0105 17.5631 15.0087 17.5604 15.0063 17.5582C15.004 17.556 15.0013 17.5543 14.9982 17.5532C14.9952 17.5521 14.992 17.5516 14.9888 17.5519C14.3736 17.5949 13.7563 17.6475 13.1368 17.7095C11.809 17.8425 10.5003 18.0756 9.21068 18.4091C8.67646 18.5472 8.04936 18.7381 7.62014 19.0741C7.00769 19.5535 7.7971 20.305 8.17612 20.6605ZM39.0113 13.0794C38.3336 13.5157 37.814 12.5704 37.6911 12.0882C37.5948 11.7112 37.7124 11.2163 37.5651 10.9019C37.4191 10.5911 37.1539 10.3372 37.0092 10.0305C35.8186 7.50643 38.1826 5.15829 40.2141 4.03012C41.4553 3.34071 42.825 2.89058 44.2636 2.92186C45.1694 2.94177 45.9918 3.23021 46.6356 3.85381C46.7155 3.9314 46.8013 4.06181 46.903 4.152C46.913 4.16099 46.9256 4.1668 46.9389 4.16866C47.4656 4.2407 47.9296 4.41822 48.3308 4.70125C49.9619 5.85095 49.4222 7.868 48.2233 9.11357C47.5585 9.80449 46.8687 10.3906 46.1541 10.8718C44.8313 11.7632 43.1408 12.4989 41.513 12.5025C41.1805 12.5034 40.8286 12.4367 40.4877 12.3892C40.3191 12.3656 39.8723 12.2933 39.7476 12.1889C39.6952 12.1453 39.6528 12.153 39.6205 12.2121C39.4627 12.4989 39.2946 12.8974 39.0113 13.0794ZM38.6537 9.14201C39.5636 7.77903 40.7006 6.60293 41.9941 5.58039C42.0139 5.56466 42.0112 5.55735 41.9858 5.55845C41.3047 5.58526 40.7851 5.8217 40.2003 6.1853C39.3895 6.68946 38.0617 7.87003 38.5135 8.93807C38.545 9.01254 38.57 9.07782 38.5884 9.13389C38.604 9.1813 38.6258 9.18398 38.6537 9.14201ZM42.4083 8.23972C41.7908 8.83935 41.357 9.41867 40.8851 10.0451C40.8444 10.099 40.8578 10.133 40.9253 10.1471C41.0273 10.1685 41.1279 10.1824 41.2269 10.1889C43.2266 10.3195 44.997 9.78076 46.5382 8.57285C47.0498 8.17188 47.5711 7.55884 47.5941 6.90518C47.6208 6.13289 46.9352 5.65229 46.1884 5.81723C45.3082 6.01142 44.692 6.36811 43.9557 6.91899C43.4106 7.32687 42.8948 7.76713 42.4083 8.23972ZM65.9782 13.2387C66.7241 13.9939 67.3436 14.9198 67.8034 15.8639C67.8532 15.9665 67.9678 16.2421 68.1468 16.6906C68.9471 18.6963 69.3052 20.9006 68.9986 23.042C68.8639 23.9816 68.5777 24.8222 67.9632 25.5725C67.3424 26.331 66.0568 26.7966 65.2247 26.0385C64.9963 25.8309 64.7399 25.5165 64.5332 25.2341C64.0061 24.5142 63.5262 23.7654 63.0937 22.9875C62.5109 21.9394 61.9378 20.8864 61.3743 19.8285C61.3007 19.6904 61.2124 19.5844 61.1095 19.5104C61.0405 19.4609 60.9961 19.4766 60.976 19.5575C60.9304 19.7417 60.9011 19.928 60.8878 20.1165C60.7656 21.833 60.7618 23.4157 60.669 25.0627C60.6296 25.7598 60.5497 27.3995 59.4064 27.2004C57.9983 26.9554 57.9075 25.1464 57.9016 24.0694C57.8974 23.3427 57.9435 22.6188 58.0397 21.8976C58.2844 20.0585 58.7082 18.2734 59.3746 16.5334C59.5206 16.1523 59.8285 15.5596 60.2678 15.4775C60.7614 15.3853 61.2057 15.7664 61.4693 16.1223C62.4787 17.4859 63.356 18.7303 64.101 19.8553C64.8348 20.9631 65.4059 21.8147 65.8146 22.4103C65.8815 22.5078 66.0112 22.6573 66.1028 22.6861C66.2145 22.7213 66.2697 22.6842 66.2689 22.5748C66.2639 21.9435 66.2225 21.2159 66.1028 20.3067C65.8255 18.197 65.1971 16.2693 64.6457 14.2978C64.5612 13.9959 64.4085 13.3841 64.4796 13.0388C64.5725 12.5887 65.0327 12.5915 65.3686 12.7739C65.5857 12.8923 65.7891 13.0472 65.9782 13.2387ZM72.8503 17.0615C72.2566 16.9283 71.589 16.7812 71.0819 16.4282C70.8355 16.2571 70.5276 15.8094 70.5737 15.493C70.6163 15.2021 70.9623 15.0676 71.2288 15.0116C73.4134 14.5521 75.6431 14.3039 77.87 14.1462C78.6406 14.0918 79.3509 14.1613 79.9872 14.6244C80.4465 14.9589 80.8038 15.3814 81.0586 15.8919C81.5037 16.784 80.5976 17.0156 79.9291 17.1204C78.395 17.3601 77.1709 17.3357 75.3101 17.3366C75.3039 17.3366 75.2976 17.3381 75.2926 17.341C75.2875 17.3438 75.2842 17.3478 75.2829 17.3524L74.7801 18.979C74.7788 18.9827 74.7788 18.9866 74.7793 18.9903C74.7801 18.9941 74.7818 18.9976 74.7843 19.0007C74.7868 19.0038 74.7901 19.0063 74.7939 19.0081C74.7972 19.0098 74.8014 19.0107 74.8056 19.0107C75.7494 19.0042 76.7003 18.9972 77.6579 18.9896C78.3285 18.9839 78.8686 19.0899 78.9639 19.844C79.0208 20.2908 79.0752 20.9091 78.577 21.1054C78.3808 21.183 78.0528 21.187 77.8235 21.1915C76.876 21.2099 75.928 21.2275 74.9805 21.2443C74.7094 21.2489 74.3743 21.2818 73.9752 21.343C73.9685 21.344 73.9626 21.3466 73.9572 21.3504C73.9522 21.3543 73.9484 21.3593 73.9463 21.365C73.6518 22.1222 73.3945 22.8914 73.1745 23.6725C73.1732 23.6774 73.1728 23.6827 73.1737 23.6877C73.1749 23.6928 73.177 23.6976 73.1803 23.7017C73.1833 23.7058 73.1875 23.7092 73.1925 23.7115C73.1971 23.7138 73.2021 23.7151 73.2075 23.7151C73.561 23.72 73.9145 23.6908 74.268 23.6274C75.6097 23.3869 76.912 23.2045 78.0549 23.0424C78.2519 23.0145 78.4322 23.0402 78.5962 23.1196C78.9443 23.2882 79.2417 23.8102 79.3229 24.1726C79.4722 24.8421 79.0685 25.1602 78.5607 25.5136C77.1107 26.5228 75.2135 27.4218 73.4117 27.5514C72.7817 27.5965 71.8404 27.3288 71.2899 26.8758C71.0886 26.7106 70.9079 26.5058 70.7477 26.2615C70.0055 25.1313 70.0239 23.733 70.5653 22.5199C70.6293 22.3769 70.7527 22.088 70.9355 21.653C70.9995 21.5013 71.0171 21.3587 70.9891 21.2252C70.9196 20.8942 70.8548 20.5625 70.7941 20.2299C70.6782 19.5949 71.1932 19.2606 71.7701 19.2204C72.101 19.1972 72.2407 18.7893 72.3365 18.5228C72.5093 18.044 72.6854 17.5661 72.8657 17.0891C72.8666 17.0863 72.867 17.0834 72.867 17.0804C72.8666 17.0774 72.8658 17.0746 72.8645 17.072C72.8628 17.0694 72.8607 17.0671 72.8586 17.0653C72.8561 17.0635 72.8532 17.0622 72.8503 17.0615ZM45.4986 20.2591C44.5151 20.0146 44.0574 19.417 44.1239 18.4314C44.2699 16.2608 46.6168 15.3037 48.4638 14.8946C50.4982 14.444 52.6673 14.3307 54.7318 14.6451C55.5313 14.767 56.4332 14.9953 57.1139 15.4064C57.6343 15.7209 57.113 16.4696 56.7897 16.7012C56.5876 16.8458 56.3517 16.9483 56.0818 17.0087C55.6313 17.1095 55.0431 17.1782 54.3173 17.2151C53.4258 17.2603 52.5334 17.2926 51.6403 17.3118C51.5524 17.3138 51.4186 17.3305 51.2918 17.3333C50.0924 17.3601 48.7642 17.4836 47.538 17.7428C47.2912 17.7948 46.6971 17.9 46.5591 18.1166C46.5135 18.1883 46.5265 18.2478 46.598 18.2949C46.8691 18.4732 47.3422 18.5261 47.6627 18.563C50.1782 18.8509 51.7645 19.0342 52.4213 19.1127C53.4329 19.2338 54.4377 19.4284 55.2849 19.8342C56.3659 20.3518 56.9428 21.5949 56.9921 22.717C57.052 24.0808 56.5951 25.1724 55.4794 26.0032C53.7809 27.2678 51.2592 27.4165 49.221 26.9611C47.7217 26.6264 46.0111 25.8041 45.1346 24.5224C44.6891 23.8707 44.6376 23.0164 45.0715 22.3432C45.8513 21.1342 47.9112 20.9977 49.2005 21.1322C50.5752 21.2752 51.9063 21.5356 53.1292 22.1377C53.924 22.5289 53.2626 23.0525 52.7941 23.2504C51.8716 23.6396 50.8655 23.824 49.9096 23.5136C48.8206 23.1602 47.5723 22.318 46.4909 22.7056C46.1688 22.821 45.8136 23.1521 45.924 23.5181C46.0876 24.0605 47.2021 24.3306 47.6899 24.4102C47.912 24.4463 48.1898 24.4672 48.5228 24.4732C50.5028 24.5077 52.7895 24.1779 54.4294 23.0009C54.7611 22.7629 54.9293 22.4082 54.7017 22.0438C54.6971 22.0365 54.6921 22.0303 54.6867 22.0256C54.6812 22.0208 54.6754 22.0176 54.6699 22.0162L54.6042 21.9995C54.5921 21.9964 54.5796 21.9874 54.5695 21.9743C54.1127 21.369 52.6606 21.1102 51.9478 20.9936C50.5007 20.7572 49.0327 20.6589 47.5719 20.5321C46.6712 20.4541 46.1981 20.433 45.4986 20.2591ZM93.6804 19.5303V20.5256C93.6193 21.2829 93.4796 21.9585 93.2612 22.5524C92.4563 24.7434 90.5847 26.3956 88.4315 27.3714C87.2718 27.8967 86.0841 28.1315 84.8053 28.0568C84.7923 28.056 84.7793 28.0594 84.7684 28.0664C84.7576 28.0735 84.7492 28.0838 84.745 28.0958C84.169 29.7269 83.7515 31.1931 83.2863 33.0768C83.2256 33.3217 83.1658 33.5863 83.1059 33.8707C82.8236 35.2159 82.5307 36.5595 82.2274 37.9015C82.1358 38.307 82.1245 38.5393 81.7237 38.6523H81.4832C80.6252 38.3143 79.8312 37.7601 79.5764 36.8721C79.3588 36.114 79.3957 35.2523 79.4927 34.4788C79.7236 32.6418 80.0391 30.8843 80.6168 29.1338C80.9803 28.0315 81.3824 26.942 81.8229 25.8654C81.8271 25.8552 81.8292 25.8442 81.8288 25.8331C81.8288 25.8219 81.8258 25.811 81.8212 25.8008C81.356 24.8173 81.1176 23.7176 81.1908 22.6361C81.3732 19.9553 82.9955 17.3991 84.7626 15.4077C85.0023 15.1376 85.2621 14.9043 85.5424 14.7077C85.8494 14.492 86.1791 14.5789 86.259 14.9685C86.287 15.1055 86.2883 15.2507 86.2632 15.404C86.136 16.1775 85.7867 16.8962 85.3868 17.5689C85.0881 18.0708 84.7902 18.5729 84.4928 19.0753C83.8975 20.0824 83.4264 21.2451 83.2779 22.3887C83.2427 22.6581 83.2758 22.9099 83.3172 23.1744C83.3218 23.2042 83.3331 23.2068 83.3511 23.1821C83.8447 22.5094 84.353 21.8431 84.8576 21.1752C85.8691 19.8354 87.1179 18.5695 88.1457 17.5961C88.8703 16.91 89.4556 16.4521 90.2697 16.0747C90.9708 15.7501 91.6033 15.7782 92.2221 16.264C93.2152 17.0445 93.5737 18.3493 93.6804 19.5303ZM90.6014 18.9652C89.8371 19.7753 89.1451 20.6402 88.5252 21.56C88.0248 22.3026 87.5366 23.0517 87.0304 23.7907C86.8179 24.1008 86.6217 24.4209 86.4414 24.7511C86.4401 24.7534 86.4393 24.7559 86.4393 24.7584C86.4389 24.761 86.4393 24.7636 86.4406 24.7659C86.4414 24.7683 86.4431 24.7704 86.4447 24.7721C86.4468 24.7738 86.4489 24.7751 86.4514 24.7759C86.5033 24.7916 86.5677 24.7975 86.6447 24.7937C87.8868 24.734 89.2502 24.106 90.1375 23.3142C91.3197 22.2587 92.1401 20.5699 91.828 18.9798C91.7774 18.7219 91.5477 18.1007 91.1469 18.4489C90.9315 18.6363 90.7495 18.8084 90.6014 18.9652ZM42.0786 27.1179C40.9654 27.3206 40.0949 26.8908 39.9267 25.7464C39.8302 25.0896 39.7719 24.3684 39.7518 23.5827C39.7114 21.9888 39.7518 20.3969 39.8731 18.8068C39.9373 17.9647 40.0458 17.1281 40.1986 16.2969C40.2675 15.924 40.3704 15.5605 40.5073 15.2066C40.6274 14.8966 40.8324 14.5167 41.2436 14.6463C41.6706 14.7809 41.9694 15.0644 42.1401 15.4966C42.3497 16.028 42.4342 16.5773 42.502 17.1314C42.6338 18.2035 42.7154 19.2508 42.7689 20.29C42.8496 21.8576 42.9149 23.4258 42.9647 24.9944C42.9764 25.3677 42.9559 25.7383 42.9032 26.1063C42.8342 26.5906 42.6112 27.0208 42.0786 27.1179Z" fill="white"/>
</g>
</g>
<defs>
<clipPath id="clip0_1578_514">
<rect width="92.8303" height="38.3097" fill="white" transform="translate(0.848389 0.342743)"/>
</clipPath>
</defs>
</svg>
