<svg width="61" height="75" viewBox="0 0 61 75" fill="none" xmlns="http://www.w3.org/2000/svg">
<g clip-path="url(#clip0_1578_521)">
<path d="M30.6182 0.548157H30.7321C31.2645 0.656688 31.6856 0.750575 31.9955 0.82982C35.6996 1.77283 39.3862 2.78303 43.0552 3.86042C43.7013 4.05026 44.3379 4.25009 44.9651 4.45992C44.9779 4.46425 44.9895 4.47149 44.999 4.48107C45.0086 4.49066 45.0159 4.50234 45.0203 4.51522L46.4968 8.82079C46.4995 8.82863 46.5039 8.83571 46.5097 8.84145C46.5155 8.8472 46.5225 8.85146 46.5302 8.85387L52.8986 10.8028C52.9062 10.8051 52.9132 10.8094 52.9189 10.8152C52.9245 10.8209 52.9287 10.828 52.931 10.8359L53.9862 14.4985C53.9884 14.5066 53.9926 14.514 53.9983 14.5201C54.0041 14.5261 54.0112 14.5306 54.0191 14.5331L60.8189 16.7022V18.3555C60.4123 30.0965 56.6112 41.594 50.7152 51.6429C45.5348 60.4727 38.6707 68.304 30.4906 74.3419C30.4819 74.3484 30.4714 74.3519 30.4606 74.3519C30.4498 74.3519 30.4392 74.3484 30.4304 74.3419C26.8886 71.7265 23.612 68.8136 20.6006 65.6031C11.5192 55.9206 4.76504 43.7765 1.6991 30.6929C0.663611 26.2741 0.0949808 21.5876 0.0777649 16.9684C0.077589 16.9562 0.0812192 16.9443 0.0881338 16.9344C0.0950484 16.9245 0.104891 16.917 0.116247 16.9131L7.11349 14.5326C7.12125 14.5299 7.12821 14.5253 7.1337 14.5192C7.1392 14.513 7.14304 14.5055 7.14488 14.4975L7.98491 10.8545C7.99133 10.8276 8.00753 10.8102 8.03352 10.8023L14.3847 8.85594C14.3934 8.85321 14.4015 8.84847 14.4081 8.84209C14.4146 8.83572 14.4196 8.82789 14.4226 8.81924L15.9002 4.51108C15.9059 4.49386 15.9174 4.483 15.9346 4.47853C20.5403 3.29657 25.0929 1.90738 29.7032 0.739378C29.9051 0.688041 30.2101 0.624301 30.6182 0.548157ZM32.6299 6.9644C32.5982 6.87895 32.5376 6.84794 32.4482 6.87137C32.4446 6.87239 32.4415 6.87451 32.4392 6.87743C32.4369 6.88036 32.4355 6.88394 32.4353 6.88769C32.435 6.89144 32.436 6.89517 32.4379 6.89836C32.4399 6.90155 32.4427 6.90404 32.4461 6.90548L32.5768 6.96026C32.5844 6.96345 32.591 6.96889 32.5956 6.97588C32.6002 6.98288 32.6026 6.99112 32.6026 6.99954V65.5111C32.6026 65.5193 32.6007 65.5271 32.597 65.5339C32.5856 65.5573 32.5842 65.5771 32.593 65.5933C32.5944 65.5959 32.5965 65.5982 32.599 65.5999C32.6014 65.6016 32.6042 65.6027 32.6072 65.6031C32.6101 65.6035 32.6131 65.6032 32.6159 65.6022C32.6187 65.6012 32.6213 65.5996 32.6234 65.5974C35.2895 62.8997 37.8386 60.088 40.2708 57.1625C42.5584 54.411 44.7114 51.5349 46.6092 48.4878C48.0346 46.1988 49.3055 43.745 50.1198 41.1563C50.5719 39.7195 50.817 38.2761 50.7729 36.7479C50.7645 36.4409 50.7191 36.1523 50.6367 35.8822C50.5743 35.6768 50.5307 35.5187 50.5061 35.4078C49.9329 32.8118 47.8316 31.2397 45.4705 30.4763C45.4661 30.4749 45.4622 30.4722 45.4592 30.4687C45.4561 30.4652 45.4541 30.4609 45.4533 30.4563C45.4524 30.4517 45.4528 30.4471 45.4544 30.4428C45.456 30.4384 45.4588 30.4347 45.4624 30.4319C45.5479 30.3626 45.6112 30.2737 45.7079 30.2184C48.9764 28.3424 53.4369 24.8162 51.6859 20.2966C51.1142 18.8206 50.1385 17.5379 49.0235 16.4371C47.5465 14.9786 45.8791 13.7445 44.1332 12.6437C40.5244 10.3681 36.6164 8.52931 32.6563 6.99127C32.6438 6.98645 32.635 6.97749 32.6299 6.9644ZM24.2251 46.7647C23.9604 45.8403 23.6934 44.913 23.424 43.9827C20.394 33.5147 19.1276 22.6233 19.1205 11.7253C19.1205 11.705 19.1124 11.7007 19.0962 11.7124C17.7662 12.6716 16.4364 13.6308 15.1067 14.59C14.9265 14.7199 14.774 14.8393 14.6495 14.9481C14.6356 14.9602 14.6287 14.9757 14.6287 14.9947C14.6282 23.2595 15.3543 31.5399 17.1863 39.6027C17.2025 39.6735 17.1954 39.7526 17.1974 39.827C17.1978 39.8443 17.1916 39.8611 17.1802 39.8741L15.5123 41.7899C15.5096 41.7929 15.506 41.7951 15.5021 41.7959C15.4981 41.7968 15.494 41.7963 15.4903 41.7947C15.4866 41.793 15.4835 41.7902 15.4815 41.7867C15.4794 41.7831 15.4785 41.779 15.4789 41.7749C15.491 41.67 15.4956 41.6271 15.4429 41.5351C14.0824 39.1572 13.0454 36.6083 12.2028 33.9452C10.7226 29.2687 9.82161 24.484 9.49991 19.5912C9.4996 19.5856 9.49785 19.5801 9.49485 19.5754C9.49185 19.5706 9.4877 19.5668 9.4828 19.5642C9.4779 19.5616 9.47242 19.5603 9.4669 19.5605C9.46138 19.5607 9.456 19.5624 9.4513 19.5654C8.26948 20.2997 7.15298 21.2202 6.10433 22.1355C6.09282 22.1456 6.08373 22.1583 6.07776 22.1725C6.0718 22.1868 6.06911 22.2022 6.0699 22.2176C6.45878 30.9523 8.92774 39.4358 13.255 46.988C13.7033 47.7708 14.227 48.6573 14.8262 49.6475C14.8353 49.6623 14.8453 49.663 14.8561 49.6496C16.023 48.1877 17.2233 46.7549 18.4567 45.3513C18.4672 45.3392 18.4765 45.3401 18.4846 45.3538C18.6034 45.5537 18.6785 45.708 18.7099 45.8169C20.312 51.3861 22.4655 56.8085 25.5041 61.71C26.3473 63.0706 27.2761 64.3676 28.2905 65.6011C28.293 65.6042 28.2963 65.6065 28.3001 65.6076C28.3039 65.6087 28.3079 65.6085 28.3116 65.6072C28.3153 65.6058 28.3185 65.6033 28.3207 65.5999C28.3229 65.5966 28.3241 65.5927 28.324 65.5886V6.91789C28.3239 6.91457 28.3231 6.91132 28.3214 6.90845C28.3198 6.90558 28.3174 6.90319 28.3146 6.90153C28.3118 6.89986 28.3086 6.89896 28.3054 6.89893C28.3021 6.8989 28.2989 6.89973 28.2961 6.90135C26.7948 7.74324 25.2013 8.40217 23.6919 9.22494C23.6389 9.25388 23.6129 9.29885 23.6139 9.35983L24.2534 46.7606C24.2536 46.7642 24.2525 46.7677 24.2503 46.7704C24.2481 46.7731 24.245 46.7749 24.2415 46.7754C24.238 46.7759 24.2344 46.7751 24.2314 46.7732C24.2283 46.7712 24.2261 46.7682 24.2251 46.7647Z" fill="#E5E5E5"/>
<path d="M43.3527 17.4024C44.8584 18.3727 46.8375 20.0028 47.0055 21.9786C47.1613 23.8167 45.2046 25.3769 43.8088 26.1764C41.8562 27.2945 39.68 28.0246 37.5014 28.5529C37.2922 28.6039 37.1171 28.7058 36.9292 28.8022C36.9266 28.8035 36.9236 28.8041 36.9206 28.8039C36.9176 28.8037 36.9147 28.8028 36.9122 28.8012C36.9097 28.7997 36.9076 28.7975 36.9061 28.7949C36.9046 28.7923 36.9038 28.7894 36.9038 28.7864V14.4039C36.9037 14.4008 36.9045 14.3978 36.906 14.3951C36.9075 14.3924 36.9097 14.3902 36.9123 14.3887C36.915 14.3871 36.918 14.3863 36.921 14.3863C36.9241 14.3862 36.9271 14.3871 36.9298 14.3886C37.1186 14.4962 37.2876 14.5721 37.5095 14.643C39.5782 15.3052 41.526 16.225 43.3527 17.4024ZM36.9634 53.0997C36.9491 53.1147 36.9369 53.1249 36.9267 53.1303C36.9224 53.1326 36.9174 53.1336 36.9126 53.1331C36.9077 53.1325 36.9031 53.1305 36.8993 53.1274C36.8956 53.1242 36.8929 53.1199 36.8916 53.1152C36.8903 53.1104 36.8905 53.1054 36.8921 53.1007C36.8948 53.0929 36.8972 53.0853 36.8992 53.0778C36.9023 53.0662 36.9038 53.0543 36.9038 53.0421V34.2252C36.9038 34.2175 36.9059 34.2099 36.9099 34.2033C36.914 34.1966 36.9198 34.1912 36.9267 34.1875C37.1125 34.0901 37.2596 33.9983 37.4754 33.9759C38.7338 33.8443 39.9938 33.8262 41.2555 33.9213C42.6899 34.0294 44.189 34.419 45.2127 35.4622C47.1531 37.441 45.4642 41.2069 44.3779 43.1903C42.5607 46.5076 40.158 49.5306 37.6673 52.3609C37.4485 52.6097 37.1995 52.854 36.9634 53.0997Z" fill="#E5E5E5"/>
</g>
<defs>
<clipPath id="clip0_1578_521">
<rect width="60.7412" height="73.8037" fill="white" transform="translate(0.0793457 0.548126)"/>
</clipPath>
</defs>
</svg>
