<svg width="63" height="75" viewBox="0 0 63 75" fill="none" xmlns="http://www.w3.org/2000/svg">
<g clip-path="url(#clip0_1578_527)">
<path fill-rule="evenodd" clip-rule="evenodd" d="M2.03825 45.5063L2.5068 39.6474C2.5068 39.6474 1.14359 39.6062 0.802739 37.5845C0.46184 35.5628 0.248901 32.1383 0.248901 32.1383C0.248901 32.1383 2.29382 31.8494 2.54944 30.8179C2.80506 29.7865 2.76238 29.1263 2.76238 29.1263C2.76238 29.1263 0.930528 27.4759 1.10096 26.1969C1.27138 24.9179 1.56956 24.7527 1.65479 24.2989C1.73994 23.8452 1.78258 22.6486 1.39917 21.9472C1.01581 21.2458 0.461968 19.2241 0.504522 17.1611C0.547118 15.0982 0.589714 13.6541 1.05836 12.6226C1.527 11.5912 1.22874 6.0624 1.22874 6.0624C1.22874 6.0624 0.717503 4.74214 0.674907 4.08197C0.632311 3.42184 1.44177 1.85397 1.44177 1.85397L16.0545 1.68892L17.2048 2.80296L22.7005 2.84417C22.7005 2.84417 23.7656 2.06028 24.1917 1.89523C24.6177 1.73013 24.7881 1.56516 24.7881 1.56516L25.3846 0.987495L36.0352 0.781189C36.0352 0.781189 36.2909 0.987496 35.9074 1.15255C35.524 1.3176 34.885 1.73013 34.885 1.73013L37.1855 1.93644L37.8245 3.1742L40.7216 3.05044L40.8493 1.68888C40.8493 1.68888 40.8493 0.904948 41.2754 0.904948C41.7014 0.904948 53.0764 1.52378 53.0764 1.52378L53.4172 2.88538L54.9935 1.44128L55.4195 1.89515L60.191 2.10145L61.9803 3.33921L62.1081 6.10353C62.1081 6.10353 61.6822 6.47481 61.6822 6.84617C61.6822 7.21757 62.236 7.96029 62.1934 8.90919C62.1508 9.8581 62.0655 20.9981 62.0655 20.9981C62.0655 20.9981 61.8525 21.3282 61.5117 21.4933C61.1709 21.6583 60.1911 21.6995 60.3615 22.0709C60.5319 22.4422 61.1283 22.8547 60.5319 23.3086C59.9354 23.7624 59.1259 24.4639 59.765 25.124C60.4041 25.7842 61.1283 26.4855 61.2561 27.6408C61.384 28.7961 61.171 34.2423 61.171 34.2423L60.1059 34.6549L61.9804 34.7787L62.2786 59.6993C62.2786 59.6993 60.2764 58.8742 59.3391 58.5441C58.4018 58.2139 57.8906 58.2139 57.4219 58.2139C56.9533 58.2139 55.6326 58.0077 55.7178 58.3378C55.803 58.6678 56.7828 58.7503 56.4421 59.1629C56.1012 59.5755 53.6729 59.9055 52.6504 59.9881C51.628 60.0706 50.9464 59.5343 50.5629 59.3692C50.1794 59.2042 50.1369 59.2042 50.1369 59.2042C50.1369 59.2042 50.2326 59.5858 49.5617 59.6168C48.8908 59.6477 48.1026 59.2866 47.6552 59.0907C47.2079 58.8948 47.0482 58.9359 46.8352 59.1319C46.6222 59.3279 46.3451 59.5343 45.8446 59.524C45.3441 59.5136 44.0872 59.4414 43.6186 59.6476C43.15 59.8539 42.5108 59.8951 41.7867 59.7301C41.0624 59.5651 35.1406 59.7714 35.1406 59.7714C35.1406 59.7714 34.5868 61.133 33.5643 61.0505C32.5419 60.9679 32.2863 60.5141 32.2863 60.5141C32.2863 60.5141 31.9881 60.8442 31.5195 60.7617C31.0508 60.6791 30.3265 60.0602 29.4745 59.8539C28.6225 59.6476 28.4096 59.6063 28.0687 60.1839C27.7278 60.7617 27.2167 61.0917 26.7906 60.8029C26.3646 60.5141 25.7682 59.8539 25.5978 59.4001C25.4273 58.9462 25.5126 58.4511 25.2569 58.6574C25.0013 58.8637 25.0013 59.1525 24.5753 59.1112C24.1492 59.07 21.2522 59.0287 20.9114 58.9049C20.5706 58.7812 20.2298 58.3273 19.5481 58.3273C18.8665 58.3273 17.8441 59.0699 17.4606 58.9874C17.0771 58.9049 16.8215 58.4923 16.8215 58.4923C16.8215 58.4923 16.1826 58.9461 15.8418 58.9461C15.5009 58.9461 15.1601 58.4098 14.6488 58.4098C14.1376 58.4098 13.3708 58.5336 13.1151 58.8224C12.8595 59.1112 12.3483 59.1938 12.1353 58.8224C11.9223 58.451 11.2405 58.0384 10.9424 58.4098C10.6442 58.7811 9.79206 58.9049 9.40865 58.6986C9.02528 58.4923 8.81225 58.2861 8.81225 58.2861C8.81225 58.2861 8.51395 58.8224 7.87496 58.8224C7.23598 58.8224 6.93776 58.2035 6.93776 58.2035C6.93776 58.2035 6.08566 58.9049 5.3614 58.8636C4.63709 58.8224 4.59454 58.6573 4.0407 58.6573C3.48686 58.6573 2.42183 58.6986 2.42183 58.6986C2.42183 58.6986 2.33668 58.2035 1.86803 58.1622C1.39939 58.121 0.845548 58.0798 0.845548 58.0798L1.10117 54.8615L0.760271 47.5999C0.760271 47.5999 0.675121 45.7432 2.03833 45.506L2.03825 45.5063ZM12.0657 36.6069L24.3168 48.0889L17.0621 50.686C17.0621 50.686 13.8159 50.7954 13.0537 50.5767C12.2915 50.358 8.31134 46.722 8.31134 46.722C8.31134 46.722 7.88785 46.4487 8.31134 45.3004C8.73483 44.1522 12.1786 37.5364 12.0657 36.6069ZM37.1756 13.7022L48.199 21.9025C48.199 21.9025 48.6784 22.212 48.9979 21.7993C49.3173 21.3867 49.9031 17.6733 50.0096 16.9513C50.1161 16.2293 50.4356 15.0947 50.4356 14.6306C50.4356 14.1664 50.6486 13.96 50.2226 13.7022C49.7966 13.4443 46.8145 11.2782 46.5482 11.3814C46.2819 11.4846 45.2167 11.8455 43.5127 12.0519C41.8086 12.2582 40.3176 13.0832 39.8915 13.0317C39.4655 12.9802 39.3589 12.877 38.8797 13.0833C38.4004 13.2896 37.1756 13.7022 37.1756 13.7022ZM7.40696 12.516C7.40696 12.516 8.31224 12.2581 9.11103 12.0002C9.90986 11.7424 10.4956 11.3297 10.4956 11.3297C10.4956 11.3297 12.0401 11.1234 12.6258 11.3297C13.2116 11.536 16.5134 14.0631 17.2588 14.4757C18.0044 14.8883 18.2173 14.9916 18.2706 15.3009C18.3239 15.6103 18.3239 16.0746 18.3239 16.0746C18.3239 16.0746 19.389 15.8682 20.1345 16.2808C20.88 16.6934 54.7491 38.8186 54.7491 38.8186C54.7491 38.8186 54.9089 39.9017 54.6959 40.6237C54.4829 41.3458 52.0333 49.1335 51.7137 49.3914C51.3941 49.6492 51.1812 49.9587 50.0629 49.9587C48.9445 49.9587 45.5363 49.5977 44.9506 49.6492C44.3648 49.7007 43.6725 49.5976 43.6725 49.5976C43.6725 49.5976 7.46018 12.5159 7.40696 12.5159V12.516Z" fill="white"/>
<path d="M2.00624 73.9375C2.16673 73.8706 2.35397 73.8274 2.56798 73.8059C2.8778 73.7734 3.10743 73.7 3.26125 73.5921C3.3794 73.3589 3.43736 72.7674 3.43736 71.8174V70.8178L3.45076 70.2155L3.43736 69.7729L3.45076 68.9547L3.4307 66.8972C3.4307 66.664 3.3951 66.5129 3.32592 66.4395C3.22562 66.3337 2.95809 66.2365 2.52564 66.148C2.34731 66.1113 2.23805 66.0767 2.19793 66.0465C2.16002 66.0142 2.13548 65.9558 2.12656 65.8695C2.22691 65.8501 2.29605 65.8392 2.33613 65.8392H2.79982L3.04285 65.8328C3.20338 65.8328 3.3817 65.8501 3.57787 65.8846C3.97916 65.9105 4.39151 65.9235 4.81512 65.9235C4.93549 65.9235 5.11159 65.917 5.33678 65.9062C5.93863 65.8738 6.37117 65.8587 6.63195 65.8587C7.16027 65.8587 7.65742 65.9083 8.12556 66.0098C8.59369 66.1113 9.07744 66.297 9.57456 66.5711C9.88443 66.7438 10.201 67.0158 10.5264 67.3872C10.8497 67.7585 11.0972 68.1644 11.2643 68.6048C11.4315 69.0431 11.5162 69.5375 11.5162 70.088C11.5162 70.5803 11.4226 71.0682 11.2376 71.5518C11.0525 72.0354 10.7962 72.4543 10.464 72.8083C10.1319 73.1646 9.79748 73.4323 9.45641 73.6093C9.11752 73.7885 8.59813 73.944 7.90259 74.0735C7.61504 74.1232 7.09783 74.1491 6.35324 74.1491C5.86057 74.1491 5.45932 74.1361 5.14945 74.1124C5.02904 74.0973 4.89754 74.0908 4.75712 74.0908C4.73706 74.0908 4.71252 74.093 4.6858 74.0973L2.0196 74.1491L2.0062 74.0994C1.99728 74.0778 1.9928 74.0562 1.9928 74.0303L2.0062 73.9375L2.00624 73.9375ZM40.8291 72.2244L44.4851 72.0628C44.7242 72.7389 44.8878 73.2896 44.8878 73.5322C44.8878 73.5711 44.8744 73.6272 44.8477 73.7049C44.7563 73.7438 44.6225 73.7665 44.4486 73.774L44.1613 73.7864C44.1188 73.7882 44.0698 73.8058 44.0185 73.8317C43.9985 73.8878 43.9874 73.9461 43.9874 74.0066C44.0275 74.0282 44.0698 74.0411 44.1189 74.0454H44.2616C44.2995 74.0454 44.3463 74.0476 44.402 74.0497C44.4555 74.0541 44.509 74.0541 44.5626 74.0541L45.3517 74.0476L46.0049 74.0584C46.5644 74.067 46.9568 74.0713 47.1775 74.0713C47.2355 74.0713 47.3335 74.0692 47.4717 74.0649C47.4851 74.0239 47.4918 73.9936 47.4918 73.9742C47.4918 73.9483 47.4829 73.9137 47.465 73.8684C47.387 73.8317 47.2488 73.7885 47.0482 73.7346C46.9924 73.7173 46.8922 73.6913 46.7517 73.659C46.609 73.6244 46.5287 73.5985 46.5065 73.5813C46.4328 73.523 46.3526 73.4021 46.2657 73.2164C46.188 73.0523 46.0336 72.6397 45.8027 71.9803C46.7528 71.882 47.8026 71.743 48.2875 71.4976H45.6281L45.1868 70.3212L44.1947 67.711C44.0164 67.2771 43.8871 66.9489 43.8091 66.7287C43.6664 66.3141 43.4992 65.9256 43.3119 65.5672L43.0845 65.5607L42.8795 65.5736C42.7502 65.9687 42.6387 66.2861 42.5473 66.5214C41.9122 68.159 41.2794 69.81 40.6792 71.4589C40.3982 72.2469 40.1442 72.8579 39.919 73.2876C39.8098 73.4862 39.6782 73.6243 39.5267 73.7043C39.4665 73.7345 39.2681 73.7625 38.9337 73.7928C38.8579 73.7971 38.8066 73.7992 38.7754 73.7992H38.626C38.577 73.7992 38.5235 73.8165 38.4633 73.8511C38.4454 73.9028 38.4365 73.9439 38.4365 73.9741V74.013C38.6015 74.026 38.7375 74.0324 38.8423 74.0324C38.9069 74.0324 39.0139 74.0281 39.1611 74.0194C39.3884 74.0108 39.5468 74.0065 39.6382 74.0065C39.7295 74.0065 39.8812 74.0108 40.0952 74.0194C40.5566 74.054 40.9624 74.0712 41.3101 74.0712C41.4149 74.0712 41.5643 74.069 41.7604 74.0647C41.7738 74.0216 41.7804 73.9892 41.7804 73.9676C41.7804 73.9374 41.7559 73.9028 41.7091 73.8639L40.8197 73.7884C40.6681 73.7668 40.5455 73.7431 40.4541 73.7171C40.4162 73.6286 40.3961 73.566 40.3961 73.5271C40.3961 73.458 40.535 73.0985 40.7617 72.4261C40.7848 72.3578 40.8072 72.2906 40.8292 72.2242L40.8291 72.2244ZM44.2791 71.4976H41.0636C41.4325 70.3277 41.6959 69.3913 42.2488 68.1039C42.4114 67.7252 42.5891 67.4905 42.6158 67.4407L42.6805 67.553C42.8875 68.0559 43.7001 69.9496 44.2791 71.4976ZM5.3323 73.6741C5.66223 73.7842 5.99664 73.8382 6.33771 73.8382C6.77686 73.8382 7.20935 73.7713 7.63066 73.6396C8.05428 73.5057 8.42655 73.32 8.752 73.076C9.07527 72.8343 9.34275 72.5622 9.55232 72.2556C9.75962 71.9512 9.90901 71.6771 9.99595 71.4309C10.1185 71.0747 10.1788 70.6084 10.1788 70.0362C10.1788 69.4878 10.0584 68.933 9.81989 68.3674C9.65493 67.9766 9.3629 67.6031 8.9482 67.2447C8.53129 66.8863 8.04092 66.6251 7.47466 66.4588C6.9084 66.2926 6.29537 66.2084 5.63777 66.2084C5.18526 66.2084 4.85081 66.2559 4.6324 66.3531C4.60564 66.379 4.58106 66.4092 4.55434 66.4416C4.52762 66.5473 4.51422 66.6445 4.51422 66.733C4.51422 66.787 4.51644 66.8517 4.52092 66.9273C4.53432 67.4174 4.54098 67.8082 4.54098 68.1039L4.53428 69.5375C4.53428 71.6425 4.57436 72.8148 4.6546 73.0523C4.73484 73.2898 4.96229 73.497 5.3323 73.6741ZM15.4508 70.0168C15.4508 69.5872 15.5043 69.205 15.6113 68.8683C15.7183 68.5337 15.8967 68.1688 16.1508 67.7758C16.4027 67.3851 16.7081 67.0569 17.0648 66.7935C17.4215 66.5301 17.9164 66.297 18.5495 66.094C18.9931 65.9536 19.5549 65.8846 20.2348 65.8846C20.6918 65.8846 21.1399 65.9429 21.5791 66.0616C22.016 66.1804 22.4128 66.3445 22.7717 66.5561C23.1284 66.7654 23.4851 67.0915 23.8417 67.5297C24.0914 67.8341 24.2787 68.1601 24.4057 68.5099C24.5707 68.9719 24.6532 69.4448 24.6532 69.9348C24.6532 70.4918 24.5974 70.9539 24.486 71.3209C24.3746 71.6879 24.1895 72.0506 23.9287 72.409C23.7236 72.6875 23.3714 73.0092 22.8765 73.3719C22.5443 73.6158 22.1319 73.8145 21.6392 73.9634C21.1488 74.1124 20.616 74.188 20.0453 74.188C19.4657 74.188 18.9485 74.1232 18.496 73.9915C18.0435 73.8619 17.6644 73.7022 17.3635 73.5143C17.0603 73.3265 16.7482 73.048 16.4272 72.681C16.1084 72.314 15.8655 71.9102 15.6982 71.4655C15.5333 71.0229 15.4508 70.5393 15.4508 70.0168H15.4508ZM19.9874 73.9547C20.353 73.9547 20.7319 73.9051 21.1265 73.8058C21.5211 73.7065 21.8711 73.5424 22.1765 73.3114C22.4797 73.0825 22.7182 72.8213 22.8921 72.5277C23.0638 72.234 23.2019 71.8584 23.3067 71.3964C23.4115 70.9365 23.4627 70.4767 23.4627 70.0168C23.4627 69.4425 23.3758 68.8747 23.2019 68.3133C23.066 67.888 22.8452 67.5081 22.5421 67.1712C22.2367 66.8366 21.8689 66.5775 21.4363 66.394C21.0062 66.2105 20.5469 66.1177 20.0587 66.1177C19.6619 66.1177 19.274 66.1803 18.895 66.3076C18.5161 66.435 18.2039 66.5948 17.961 66.7913C17.718 66.9877 17.4906 67.2662 17.281 67.6268C17.0715 67.9873 16.9132 68.3867 16.804 68.8207C16.6948 69.2547 16.6413 69.6389 16.6413 69.9736C16.6413 70.3233 16.6948 70.7206 16.804 71.1631C16.9132 71.6058 17.0626 71.99 17.2521 72.316C17.4415 72.6399 17.6757 72.9292 17.9521 73.1796C18.2285 73.4301 18.5383 73.6222 18.8816 73.756C19.2272 73.8877 19.595 73.9547 19.9874 73.9547V73.9547ZM28.2021 66.9036L28.4718 65.9493C28.4897 65.8219 28.512 65.7399 28.5431 65.7053C28.5743 65.6686 28.6078 65.6514 28.6479 65.6514C28.726 65.6514 28.8129 65.7421 28.9132 65.9234C28.9869 66.0551 29.0492 66.1393 29.096 66.176C29.1429 66.2105 29.2142 66.2343 29.3056 66.2473L29.3702 66.2408L29.6512 66.2667L31.1916 66.2861L33.0107 66.2796H33.5457L34.5578 66.2623C34.6024 66.2623 34.6559 66.2645 34.7206 66.2731C35.017 66.299 35.1998 66.312 35.2689 66.312C35.3335 66.312 35.3871 66.2904 35.4249 66.2494C35.4383 66.2321 35.5097 66.0939 35.6412 65.8306C35.6991 65.7118 35.7683 65.6514 35.8508 65.6514C35.8864 65.6514 35.931 65.66 35.9823 65.6773C36.0045 65.7593 36.0157 65.8349 36.0157 65.9018L36.009 66.1544L36.0157 66.6876C36.0157 66.8172 36.0045 67.236 35.9823 67.942C35.9823 67.9895 35.9733 68.0305 35.9555 68.0694C35.9087 68.0974 35.8663 68.1126 35.8329 68.1126C35.7972 68.1126 35.766 68.0974 35.7393 68.0651C35.7125 68.0349 35.6814 67.9377 35.6412 67.7758C35.5543 67.4001 35.445 67.1303 35.3157 66.9683C35.2287 66.8647 35.1039 66.7891 34.9412 66.7437C34.7784 66.6985 34.3883 66.6747 33.773 66.6747H32.6717C32.665 66.8431 32.6606 66.9964 32.6606 67.1367L32.7119 71.0595C32.7119 71.215 32.703 71.5108 32.6851 71.9448L32.6918 72.7846L32.6851 73.2531C32.6851 73.3999 32.7119 73.5057 32.7632 73.5683C32.8167 73.6309 32.9593 73.6935 33.1889 73.7518C33.5902 73.849 33.8577 73.9073 33.9937 73.9289C34.0762 73.9375 34.1453 73.9569 34.1966 73.9828V74.188L33.2669 74.1642C32.7565 74.162 32.373 74.1512 32.1167 74.1361L31.1603 74.1771L30.4625 74.2138C30.2641 74.2138 30.146 74.2095 30.1014 74.2009L30.01 74.1641C30.019 74.0691 30.039 74.0087 30.068 73.9806C30.0992 73.9547 30.1794 73.9332 30.3109 73.9158C30.4938 73.8899 30.71 73.8446 30.9597 73.7799C31.2093 73.7151 31.3721 73.6482 31.4501 73.5812C31.4947 73.5423 31.5259 73.4798 31.5437 73.3913C31.5816 73.2056 31.6016 72.8407 31.6016 72.2945V71.2193L31.5749 68.8704L31.5482 68.3651L31.5415 66.6747H30.4892C29.8628 66.6747 29.4816 66.7114 29.3456 66.7848C29.1316 66.8992 28.8151 67.2339 28.3915 67.7887C28.251 67.996 28.1285 68.0996 28.0215 68.0996L27.9635 68.0866C27.9457 68.0607 27.9368 68.0391 27.9368 68.0175C27.9368 67.9657 27.9725 67.8145 28.0416 67.562C28.1308 67.2382 28.1842 67.0179 28.2021 66.9035V66.9036ZM60.5319 72.3917L59.8405 74.0584H54.011V73.8209C55.727 72.4629 56.9332 71.3554 57.632 70.4961C58.3309 69.6369 58.6815 68.851 58.6815 68.1386C58.6815 67.5945 58.49 67.1476 58.1045 66.7978C57.7215 66.4481 57.2639 66.2732 56.7292 66.2732C56.2418 66.2732 55.8065 66.3941 55.421 66.6381C55.0331 66.882 54.7496 67.2404 54.563 67.7111H54.2945C54.4163 66.936 54.7296 66.3402 55.232 65.9235C55.7344 65.5089 56.3637 65.3017 57.1197 65.3017C57.9205 65.3017 58.592 65.5262 59.1291 65.9731C59.6663 66.42 59.935 66.9468 59.935 67.5556C59.935 67.9895 59.8181 68.4257 59.5843 68.8596C59.2261 69.5418 58.6417 70.2651 57.8359 71.0294C56.6247 72.1736 55.8787 72.8602 55.5927 73.0869H58.1468C58.6665 73.0869 59.0322 73.0696 59.241 73.0372C59.45 73.0027 59.639 72.9336 59.8081 72.83C59.9772 72.7285 60.1239 72.5817 60.2483 72.3917H60.5318H60.5319Z" fill="white"/>
</g>
<defs>
<clipPath id="clip0_1578_527">
<rect width="62.0295" height="73.4327" fill="white" transform="translate(0.248413 0.78125)"/>
</clipPath>
</defs>
</svg>
