<svg width="129" height="54" viewBox="0 0 129 54" fill="none" xmlns="http://www.w3.org/2000/svg">
<g clip-path="url(#clip0_1578_623)">
<path d="M101.445 0.695099H102.449C116.621 1.05456 127.914 12.3058 128.238 26.5573V27.5469C127.899 41.7415 116.603 53.049 102.41 53.3695H101.469C90.8193 53.1281 81.4301 46.6169 77.4869 36.702C77.4786 36.6816 77.4831 36.6644 77.4818 36.6414C77.481 36.6307 77.4752 36.6254 77.4646 36.6254H77.4487C77.4414 36.6254 77.438 36.6288 77.4385 36.6356C77.6782 41.5851 76.4744 46.8212 72.3654 50.0034C69.9635 51.8639 66.8263 52.761 63.8166 52.7616C56.2887 52.7633 48.7616 52.7636 41.2354 52.7623C41.2261 52.7623 41.2171 52.7586 41.2106 52.7522C41.204 52.7457 41.2003 52.7369 41.2003 52.7278V1.30038C41.2003 1.29216 41.2019 1.28402 41.205 1.27643C41.2082 1.26884 41.2128 1.26194 41.2186 1.25613C41.2244 1.25032 41.2313 1.24571 41.2389 1.24257C41.2464 1.23942 41.2546 1.2378 41.2628 1.2378C48.2593 1.23823 55.2632 1.23802 62.2742 1.23717C62.8209 1.23717 63.2455 1.24504 63.5482 1.26079C67.0539 1.44595 70.7528 2.57861 73.5374 4.73666C77.1496 7.53638 78.4141 11.6265 78.0009 16.0792C77.9996 16.0933 78.006 16.0999 78.02 16.099C78.0268 16.0986 78.0334 16.0984 78.0398 16.0984C78.0504 16.0984 78.0557 16.093 78.0557 16.0824V16.0543C78.0557 16.0424 78.0583 16.0311 78.0634 16.0205C82.3706 6.80405 91.2669 0.956236 101.445 0.695099ZM53.9052 13.8158L53.9046 21.5478C53.9046 21.5528 53.9056 21.5578 53.9075 21.5624C53.9095 21.5671 53.9123 21.5713 53.916 21.5749C53.9196 21.5784 53.9239 21.5812 53.9286 21.5832C53.9333 21.5851 53.9384 21.5861 53.9435 21.5861C56.3695 21.5942 58.8018 21.5927 61.2406 21.5816C61.451 21.5803 61.637 21.5554 61.7985 21.5069C63.9773 20.8512 64.7234 18.7219 64.409 16.6455C64.1954 15.2339 63.3926 14.1491 61.935 13.8688C61.6863 13.8207 61.2629 13.7971 60.6648 13.7979C58.4131 13.8009 56.1654 13.8013 53.9218 13.7992C53.9174 13.7992 53.9132 13.801 53.9101 13.8041C53.9069 13.8072 53.9052 13.8114 53.9052 13.8158ZM114.944 27.0316C114.944 25.3226 114.607 23.6303 113.954 22.0514C113.301 20.4724 112.344 19.0378 111.137 17.8293C109.93 16.6208 108.497 15.6622 106.92 15.0082C105.344 14.3542 103.653 14.0176 101.947 14.0176C98.4997 14.0176 95.1939 15.3887 92.7565 17.8293C90.3191 20.2699 88.9497 23.5801 88.9497 27.0316C88.9497 30.4832 90.3191 33.7934 92.7565 36.234C95.1939 38.6746 98.4997 40.0457 101.947 40.0457C103.653 40.0457 105.344 39.7091 106.92 39.0551C108.497 38.4011 109.93 37.4425 111.137 36.234C112.344 35.0255 113.301 33.5909 113.954 32.0119C114.607 30.433 114.944 28.7407 114.944 27.0316ZM70.1382 26.6894C70.1705 26.7124 70.1973 26.7277 70.2185 26.7354C70.7456 26.9282 71.2651 27.1395 71.7769 27.3694C73.5134 28.1492 74.8892 29.3629 75.9043 31.0106C75.9494 31.0838 75.9655 31.0779 75.9528 30.9928C75.5604 28.3418 75.5615 25.6911 75.956 23.0405C75.9562 23.0374 75.9554 23.0343 75.9538 23.0316C75.9521 23.0289 75.9496 23.0269 75.9467 23.0257C75.9437 23.0246 75.9405 23.0244 75.9375 23.0252C75.9345 23.0261 75.9318 23.0278 75.9298 23.0303C74.7757 24.7146 73.2033 25.8205 71.2126 26.3478C71.0532 26.39 70.1879 26.5649 70.1311 26.6447C70.1286 26.648 70.1268 26.6518 70.1258 26.6559C70.1248 26.66 70.1246 26.6642 70.1252 26.6684C70.1259 26.6725 70.1274 26.6765 70.1296 26.6802C70.1318 26.6838 70.1347 26.6869 70.1382 26.6894ZM64.3471 35.2527C64.0793 33.9566 63.0859 33.0097 61.7934 32.8175C61.6323 32.7937 61.2081 32.7813 60.5207 32.7805C58.3221 32.7775 56.1342 32.7771 53.9568 32.7792C53.9429 32.7794 53.9296 32.785 53.9198 32.7948C53.9101 32.8046 53.9046 32.8178 53.9046 32.8316L53.9052 40.6076C53.9052 40.6154 53.9068 40.6231 53.91 40.6302C53.9132 40.6372 53.9179 40.6434 53.9237 40.6484C53.9437 40.6655 53.963 40.6691 53.9817 40.6593C53.9962 40.6521 54.0115 40.6484 54.0276 40.6484C56.4319 40.6472 58.8367 40.6472 61.2419 40.6484C61.4527 40.6489 61.6389 40.6253 61.8004 40.5776C64.1437 39.8899 64.7884 37.3909 64.3471 35.2527ZM0.710327 52.747V1.2659L0.738383 1.24802C0.74901 1.24121 0.760488 1.2378 0.772816 1.2378H14.8818C14.8903 1.2378 14.8984 1.24117 14.9044 1.24715C14.9103 1.25314 14.9137 1.26126 14.9137 1.26973V20.6475C14.9137 20.656 14.9171 20.6641 14.923 20.6701C14.929 20.6761 14.9371 20.6794 14.9456 20.6794H23.9522C23.9607 20.6794 23.9688 20.6761 23.9747 20.6701C23.9807 20.6641 23.9841 20.656 23.9841 20.6475V1.26973C23.9841 1.26126 23.9874 1.25314 23.9934 1.24715C23.9994 1.24117 24.0075 1.2378 24.016 1.2378H38.1556C38.164 1.2378 38.1721 1.24117 38.1781 1.24715C38.1841 1.25314 38.1874 1.26126 38.1874 1.26973V52.731C38.1874 52.7395 38.1841 52.7476 38.1781 52.7536C38.1721 52.7596 38.164 52.7629 38.1556 52.7629H24.016C23.9947 52.7629 23.9841 52.7523 23.9841 52.731V33.7203C23.9841 33.7119 23.9807 33.7037 23.9747 33.6978C23.9688 33.6918 23.9607 33.6884 23.9522 33.6884H14.9615C14.9488 33.6884 14.9367 33.6935 14.9277 33.7024C14.9187 33.7114 14.9137 33.7236 14.9137 33.7363V52.7316C14.9137 52.7391 14.9107 52.7462 14.9055 52.7515C14.9002 52.7568 14.8931 52.7597 14.8856 52.7597L0.710327 52.747Z" fill="#F0F0F0"/>
<path d="M101.633 38.0767C107.464 38.0767 112.19 33.322 112.19 27.4569C112.19 21.5917 107.464 16.837 101.633 16.837C95.8029 16.837 91.0764 21.5917 91.0764 27.4569C91.0764 33.322 95.8029 38.0767 101.633 38.0767Z" fill="#F0F0F0"/>
</g>
<defs>
<clipPath id="clip0_1578_623">
<rect width="127.527" height="52.6744" fill="white" transform="translate(0.70874 0.694641)"/>
</clipPath>
</defs>
</svg>
