<svg width="95" height="124" viewBox="0 0 95 124" fill="none" xmlns="http://www.w3.org/2000/svg">
<path d="M54.3116 91.141C55.021 90.5985 56.6068 90.056 57.4832 89.6804C57.4415 88.345 56.8989 87.093 57.2328 85.9663C57.817 83.9632 59.1942 83.0868 60.5296 82.9199C60.6131 82.9616 60.6965 83.1285 60.6131 83.1703C59.8619 83.8797 59.5698 84.8813 59.4446 85.9663C59.4029 86.3836 59.3194 87.6773 59.695 88.5954C60.4879 88.1781 62.4075 87.5104 63.0335 87.3852C63.117 86.0497 63.3256 84.7561 63.7012 83.7962C64.4524 81.9183 66.1217 80.416 67.7909 81.2923C67.8744 81.3341 67.9578 81.501 67.8744 81.5427C66.8311 81.9183 66.1634 83.0033 65.5791 84.2553C65.4122 84.6309 64.828 86.634 65.4957 87.0513C65.4957 87.0513 65.5374 87.0513 65.5374 87.093C66.7476 86.8426 66.9563 86.9678 68.25 86.8426C68.4586 85.549 69.0429 84.4222 69.5436 83.5876C70.2948 82.127 72.2562 80.9585 74.0089 82.0018C74.0924 82.0435 74.1759 82.2522 74.0507 82.2522C72.8405 82.5025 72.0476 83.2954 71.6302 84.0049C71.4216 84.3387 70.2948 85.8828 70.8791 86.5088C70.9208 86.5088 71.0043 86.5088 71.0877 86.5088C72.131 86.4671 72.8822 86.6757 73.9672 86.8844C74.3011 86.0915 74.5932 86.008 74.927 85.5907C76.1373 84.1301 78.1821 83.6293 78.8916 85.0065C78.975 85.0899 78.975 85.2568 78.8916 85.2568C78.2656 85.3403 77.2223 85.6742 76.7215 86.3001C76.5963 86.4253 76.2625 86.8009 75.9286 87.5104C77.3475 88.5954 78.1404 89.4717 78.516 90.9324C78.5994 91.1827 78.7246 92.6851 78.2238 91.9339C75.9286 89.0544 72.8405 88.4285 68.2082 88.8875C63.2422 89.3465 60.9469 90.0977 55.9808 92.7685C58.7351 95.2307 54.6037 97.6512 53.936 94.0205C51.5156 97.6929 48.9699 93.0607 52.225 92.393C48.8865 89.1379 53.4352 87.6355 54.3116 91.141Z" fill="#F0F0F0"/>
<path d="M62.7831 75.283C64.5776 74.6987 66.539 74.0727 67.5406 73.8641C67.7075 70.9429 70.4618 67.3122 73.7168 68.5642C73.842 68.6059 73.9255 68.7728 73.8003 68.8146C72.9657 69.0649 70.2948 71.6106 71.2129 73.2381C71.8807 73.2798 73.7169 73.2381 74.2594 73.2798C74.9688 70.0665 77.7648 67.813 80.9364 69.2736C81.0616 69.3153 81.1451 69.524 81.0199 69.524C79.7679 69.7326 76.9302 71.7358 77.264 73.4468C77.8483 73.4885 79.4341 74.031 80.4357 74.5735C80.8112 73.7806 81.2286 73.4885 81.6041 73.0712C82.9813 71.6106 85.819 71.4854 86.6537 72.9043C86.7371 72.9877 86.7371 73.1546 86.6537 73.1546C85.4435 73.1129 84.3584 73.2798 83.3151 74.1979C83.1482 74.3231 82.8144 74.8239 82.4388 75.5334C83.4403 76.0759 84.5671 77.1192 84.7757 78.1207C84.9427 78.6215 85.0261 79.0388 84.9427 79.5396C84.9009 79.6648 84.6506 79.5396 84.5671 79.4561C81.938 76.5766 76.1373 74.7822 70.5035 75.4916C66.7477 75.9507 63.0753 76.994 60.0289 78.3294C61.0722 77.4113 61.9902 76.4097 62.7831 75.283ZM54.5203 81.7931C54.2699 82.0435 54.0195 82.2522 53.8108 82.5025C55.1462 84.3387 53.0179 85.7994 52.392 83.9632C50.8062 85.6742 49.5542 83.671 50.5975 82.8364C51.9329 82.6277 53.2683 82.2939 54.5203 81.7931Z" fill="#F0F0F0"/>
<path d="M53.6021 106.415C53.9777 105.997 54.8958 105.205 55.3549 104.829C53.936 102.617 54.7289 99.7795 56.106 99.5708C56.1895 99.6125 56.2312 99.7377 56.1895 99.8212C55.8139 100.364 55.647 103.285 56.732 103.911C57.2745 103.535 58.3178 102.784 58.7769 102.659C57.984 99.9881 59.3611 96.3992 62.0319 96.9834C62.1154 97.0252 62.1571 97.1921 62.1154 97.2338C59.9454 98.3606 59.9036 101.699 60.4879 102.075C61.3642 101.824 62.3241 101.449 63.2839 101.365C63.7012 97.8181 66.8311 96.2323 68.4169 97.1504C68.5004 97.1921 68.5421 97.4008 68.5004 97.4008C67.624 96.9 64.3272 100.28 65.4122 101.282C66.1634 101.24 67.0398 101.574 67.9161 101.783C68.2917 99.8212 71.046 98.1937 72.2145 99.4456C72.2979 99.5291 72.2979 99.696 72.2562 99.696C71.2129 99.9047 69.8358 100.864 69.6271 102.701C71.8389 103.744 71.5885 105.914 71.2129 105.33C69.1263 102.575 64.7028 103.035 61.3225 103.744C59.3611 104.161 56.6068 106.039 55.4383 107.375C58.9855 109.044 55.7722 112.174 54.2699 108.627C51.8077 112.967 49.3872 109.002 52.2667 107.834C48.7613 105.121 52.3919 103.285 53.6021 106.415Z" fill="#F0F0F0"/>
<path d="M17.8798 103.118C14.3744 99.07 11.4114 94.6882 9.03271 90.2646H47.4259V103.118H17.8798Z" fill="#F0F0F0"/>
<path d="M65.913 40.3118H94.1236V51.3707H65.913V40.3118Z" fill="#F0F0F0"/>
<path d="M94.1236 23.5357L85.7773 20.5727L76.0538 18.6113L65.1201 16.2326L54.9793 15.4397H47.2589V27.0829H94.0819L94.1236 23.5357Z" fill="#F0F0F0"/>
<path d="M7.23827 10.4737C8.36502 10.0981 9.49178 9.76421 10.6603 9.43036C11.0776 9.30516 11.4949 9.17997 11.9539 9.09651C12.413 9.01304 12.872 8.97131 13.3311 9.09651L13.498 9.17997C13.6649 9.26343 13.7484 9.38863 13.8319 9.55555C13.9571 9.84768 13.9988 10.1398 14.0405 10.4737C14.124 11.1414 14.124 11.8091 14.0405 12.4768C13.9988 13.0193 13.9153 13.5618 13.7067 14.0208C13.6232 14.2295 13.498 14.3964 13.3311 14.5634C13.2059 14.6886 13.0807 14.8137 12.9555 14.8972C12.6634 15.1059 12.413 15.2728 12.0791 15.398C11.328 15.7318 10.5768 15.9822 9.7839 16.2326C8.44849 16.6917 7.11307 17.1507 5.77766 17.6098V20.0719C5.10995 20.3223 4.44224 20.6145 3.77454 20.8648V11.6004C4.94302 11.2248 6.06978 10.8492 7.23827 10.4737ZM5.77766 15.9405C7.11307 15.4815 8.44849 15.0224 9.82563 14.5634C10.2429 14.4382 10.6603 14.313 11.0359 14.146L11.328 13.9791L11.4532 13.8957L11.5784 13.7705L11.7036 13.6453L11.787 13.5201L11.9122 13.2697C11.9539 13.1027 11.9957 12.9776 11.9957 12.8106C12.0374 12.3933 12.0374 12.0177 11.9122 11.6004L11.8288 11.3917L11.7453 11.2248L11.6201 11.0996L11.4532 11.0162L11.2862 10.9744H11.1193H10.9524C10.5351 11.0162 10.1595 11.1414 9.74217 11.2666C8.40675 11.6839 7.07134 12.1429 5.73593 12.5602L5.77766 15.9405ZM22.7625 6.25875C23.6806 6.09182 24.5569 5.9249 25.475 5.84143C25.7671 5.7997 26.0593 5.7997 26.3514 5.7997C26.4766 5.7997 26.6435 5.84143 26.7687 5.88317C26.8939 5.9249 26.9774 5.96663 27.1026 6.05009C27.186 6.13356 27.2695 6.17529 27.3529 6.25875C27.4364 6.34221 27.4781 6.46741 27.5199 6.55087C27.6033 6.7178 27.6451 6.84299 27.6451 7.00992C27.7285 7.55243 27.7703 8.13668 27.812 8.72092C27.8537 9.38863 27.8537 10.0146 27.812 10.6406C27.812 10.891 27.812 11.1831 27.7703 11.4335C27.7285 11.9343 27.7285 12.435 27.6033 12.9358C27.5616 13.061 27.5199 13.1862 27.4781 13.2697C27.3947 13.4366 27.3112 13.6035 27.186 13.7705L26.9356 14.146L26.56 14.3964C26.3931 14.4799 26.2679 14.5216 26.101 14.6051C25.4333 14.8137 24.7656 14.9389 24.0979 15.1059C22.7207 15.398 21.3436 15.6484 19.9664 15.9405C19.2987 16.0657 18.631 16.1909 17.9633 16.2744C17.7964 16.3161 17.5877 16.3161 17.4208 16.3161L17.0035 16.2744C16.8783 16.2326 16.7948 16.1909 16.7114 16.1492L16.5027 15.9822L16.3358 15.7318L16.0854 14.3547V10.6406C16.1271 10.2233 16.1688 9.76421 16.2523 9.3469L16.3775 8.97131C16.461 8.76265 16.5444 8.59573 16.6696 8.4288L16.9618 8.09495L17.2121 7.88629C17.4625 7.71936 17.7547 7.55243 18.0885 7.42724L19.5908 6.96819C20.5507 6.67607 21.6357 6.46741 22.7625 6.25875ZM21.7192 8.13668L19.5491 8.63746C19.3822 8.67919 19.2153 8.76265 19.0483 8.80438L18.8814 8.92958L18.7145 9.05477L18.5893 9.17997L18.4641 9.30516L18.3389 9.43036L18.2554 9.59729C18.172 9.72248 18.1302 9.88941 18.0885 10.0146C17.9633 10.5571 17.9633 11.0996 17.9633 11.6421C17.9633 12.2264 17.9633 12.8106 18.0468 13.3531L18.1302 13.5618L18.2554 13.7705L18.4224 13.9374L18.5893 14.0626L18.7979 14.146L19.0066 14.1878H19.257C19.4239 14.1878 19.5491 14.1878 19.6743 14.146C20.5089 14.0208 21.3436 13.8539 22.1782 13.687C22.8459 13.5618 23.5554 13.3949 24.2231 13.2279C24.3483 13.1862 24.5152 13.1445 24.6404 13.1027L24.849 12.9776L25.0577 12.8524L25.2246 12.6854L25.3916 12.5185L25.5168 12.3098L25.6002 12.1012L25.6837 11.8925C25.8089 11.2666 25.7671 10.6823 25.7671 10.0563C25.7671 9.72248 25.7671 9.38863 25.7254 9.09651L25.6837 8.84612C25.6419 8.67919 25.6002 8.51226 25.5168 8.34534L25.4333 8.17841L25.3498 8.05321L25.2246 7.92802L25.1412 7.88629L24.9742 7.80282L24.8073 7.76109L24.4735 7.71936C24.0979 7.71936 23.764 7.76109 23.4302 7.80282C22.8459 7.92802 22.2617 8.05321 21.7192 8.13668ZM35.4906 4.71468C36.5339 4.63121 37.5772 4.54775 38.6205 4.54775C38.8292 4.54775 39.0796 4.54775 39.2882 4.54775C39.5386 4.54775 39.7473 4.58948 39.9559 4.71468C40.0394 4.75641 40.1228 4.79814 40.1646 4.83987C40.3315 4.96507 40.4567 5.09026 40.5402 5.29892C40.6236 5.42412 40.6654 5.59104 40.7071 5.71624C40.7906 6.05009 40.7905 6.42568 40.7905 6.75953C40.7905 7.21858 40.7906 7.6359 40.7488 8.09495C40.7488 8.26187 40.7071 8.4288 40.6654 8.59573L40.5819 8.76265C40.4984 8.88785 40.4567 8.97131 40.3732 9.09651L40.1646 9.26343C40.0811 9.30516 39.9976 9.38863 39.8725 9.43036C39.7473 9.47209 39.5803 9.51382 39.4551 9.55555L38.3284 9.80594L39.4551 10.4319C39.6221 10.5571 39.7473 10.6406 39.8725 10.7658L39.9976 10.9327C40.1646 11.1831 40.2898 11.4335 40.415 11.7256C40.5819 12.2264 40.6654 12.7272 40.6654 13.2279C39.9976 13.2697 39.3299 13.2697 38.6622 13.3114C38.6205 12.9358 38.5788 12.602 38.4536 12.2264L38.2866 11.8091L38.2032 11.6004L38.078 11.4335L37.9528 11.2666L37.7859 11.1414L37.5772 11.0162C37.452 10.9744 37.3268 10.9327 37.2016 10.9327C36.9512 10.891 36.6591 10.9327 36.4087 10.9327C35.115 11.0162 33.8631 11.1414 32.5694 11.2666L32.0686 11.3083V13.7705C31.4009 13.8539 30.7332 13.9374 30.0655 13.9791V5.21546C31.9017 5.0068 33.6962 4.83987 35.4906 4.71468ZM32.1104 9.80594C33.4458 9.68075 34.7812 9.55555 36.1166 9.47209C36.5756 9.43036 37.0347 9.38863 37.4937 9.3469C37.6189 9.3469 37.7441 9.30516 37.8693 9.26343L38.0363 9.2217L38.2032 9.13824L38.3284 9.05477L38.4536 8.92958L38.537 8.80438L38.6205 8.67919C38.6622 8.55399 38.704 8.47053 38.704 8.34534C38.7457 7.96975 38.7457 7.59416 38.7457 7.21858C38.7457 7.09338 38.704 6.96819 38.6622 6.80126L38.5788 6.67607L38.4953 6.55087L38.3701 6.42568L38.2449 6.34221L38.1197 6.25875L37.9528 6.21702C37.8276 6.17529 37.7024 6.17529 37.5772 6.17529C36.9095 6.17529 36.2418 6.25875 35.6158 6.30048C34.4473 6.38395 33.3206 6.50914 32.1521 6.5926L32.1104 9.80594ZM46.2991 11.8508C47.0503 11.8508 47.8015 11.8508 48.5944 11.8508C49.0952 11.8508 49.6377 11.8508 50.1802 11.8091C50.3054 11.8091 50.3888 11.7673 50.514 11.7673C50.6392 11.7256 50.7227 11.6839 50.8062 11.6421L50.9314 11.5587L51.0148 11.4335L51.0983 11.3083L51.14 11.1831L51.1817 10.891V10.4737L51.0983 10.0146L51.0565 9.88941L51.0148 9.76421L50.9314 9.63902L50.8062 9.55555L50.681 9.47209L50.3888 9.38863L49.8881 9.30516H49.2621H45.0472C44.6299 9.30516 44.2125 9.30516 43.837 9.2217C43.7118 9.17997 43.6283 9.17997 43.5448 9.13824L43.4196 9.05477L43.2944 8.97131L43.211 8.88785L43.1275 8.76265L43.0441 8.63746C42.9606 8.47053 42.8771 8.3036 42.8354 8.13668C42.7519 7.67763 42.7519 7.17685 42.7519 6.7178C42.7519 6.13356 42.7937 5.54931 43.0441 5.0068C43.0858 4.92334 43.1693 4.83987 43.211 4.75641C43.5031 4.50602 43.8787 4.38082 44.2543 4.29736C44.6299 4.2139 45.0472 4.2139 45.4228 4.2139C46.3409 4.2139 47.259 4.2139 48.1771 4.2139C49.6794 4.2139 51.2235 4.25563 52.7258 4.29736V5.63278C50.7227 5.59104 48.7196 5.54931 46.7164 5.54931C46.2574 5.54931 45.7983 5.54931 45.3393 5.59104C45.2558 5.59104 45.1306 5.63278 45.0472 5.63278L44.8803 5.71624L44.7551 5.84143L44.6716 6.00836L44.6299 6.17529L44.5881 6.46741C44.5881 6.7178 44.5881 6.92646 44.5881 7.17685L44.6299 7.34377L44.6716 7.5107L44.7968 7.67763L45.0055 7.80282L45.2141 7.84455C47.3007 7.88629 49.429 7.92802 51.5156 8.01148L51.766 8.05321C52.0998 8.13668 52.4337 8.26187 52.6841 8.51226C52.8093 8.63746 52.8927 8.76265 52.9345 8.88785C53.1431 9.3469 53.1849 9.88941 53.1849 10.3902C53.1849 10.9744 53.1849 11.5587 53.0179 12.1012C52.9762 12.1847 52.9762 12.2681 52.9345 12.3516L52.8093 12.5185C52.7258 12.6437 52.6424 12.7272 52.5172 12.8106C52.3085 12.9358 52.0998 13.061 51.8912 13.1027C51.5573 13.1862 51.1817 13.1862 50.8479 13.2279C49.8046 13.2697 48.803 13.2697 47.7597 13.2697C46.1322 13.2697 44.5047 13.3114 42.9189 13.3114C42.9189 12.8524 42.9189 12.3516 42.9189 11.8925C44.0039 11.8508 45.0889 11.8508 46.1739 11.8508H46.2991ZM60.1123 13.687C59.2777 13.6035 58.4013 13.5618 57.5667 13.4366C57.1911 13.3949 56.8155 13.3114 56.4817 13.1862C56.3147 13.1027 56.1478 13.061 55.9809 12.9358C55.8557 12.8524 55.7722 12.7689 55.647 12.6854C55.5636 12.602 55.4801 12.4768 55.3966 12.3933C55.3132 12.2681 55.2715 12.1429 55.2297 12.0177C55.1045 11.5587 55.0628 11.0579 55.0628 10.5571C55.0211 9.3469 55.0211 8.17841 55.0628 6.96819V6.67607C55.1045 6.13356 55.1462 5.59104 55.4801 5.13199C55.6053 5.0068 55.6888 4.88161 55.8557 4.79814C56.273 4.58948 56.7738 4.50602 57.2328 4.46429C57.7336 4.42256 58.1927 4.42256 58.6934 4.46429C59.6533 4.50602 60.6548 4.54775 61.6147 4.63121C63.0335 4.75641 64.4107 4.8816 65.8296 5.04853V6.63434C63.9516 6.46741 62.1154 6.30048 60.2375 6.17529C59.6533 6.13356 59.0273 6.09182 58.4013 6.13356L58.1092 6.17529L57.9005 6.21702L57.7336 6.30048L57.5667 6.42568L57.3998 6.5926L57.2746 6.75953L57.1911 6.96819C57.1494 7.09338 57.1076 7.21858 57.1076 7.34377C57.0242 7.92802 56.9824 8.55399 57.0242 9.17997C57.0242 9.68075 57.0242 10.1815 57.1076 10.6823C57.1494 10.8075 57.1494 10.9327 57.1911 11.0579L57.2746 11.2666L57.3998 11.4335L57.5667 11.6004L57.7336 11.7256L57.9005 11.8091L58.1092 11.8925C58.2761 11.9343 58.4431 11.976 58.61 11.976C59.1525 12.0595 59.7367 12.1012 60.2792 12.1429C62.1572 12.3098 64.0768 12.4768 65.9548 12.6854C65.9548 13.1862 65.9548 13.6453 65.9548 14.146V14.313C64.7863 14.1878 63.5761 14.0626 62.4076 13.9791C61.6981 13.8122 60.9052 13.7705 60.1123 13.687ZM72.8822 9.72248C74.4263 10.0146 75.9704 10.3067 77.5144 10.5988V7.05165C78.2239 7.21858 78.9333 7.38551 79.6845 7.5107V16.6499C78.975 16.483 78.2656 16.3161 77.5144 16.1492V12.5602C76.2625 12.3098 75.0523 12.0595 73.8003 11.8091C72.6736 11.6004 71.5051 11.3917 70.3783 11.1831V14.7303C69.6689 14.6051 68.9594 14.5216 68.2083 14.3964V5.50758C68.9177 5.59104 69.6689 5.67451 70.3783 5.7997V9.30516C71.213 9.43036 72.0476 9.55555 72.8822 9.72248ZM89.2828 10.3067C90.0339 10.5571 90.7851 10.8075 91.578 11.0579V12.5602C89.3662 11.8091 87.1127 11.0996 84.8592 10.3902L84.108 10.1815V12.4768C85.7356 12.9776 87.4049 13.4783 89.0324 14.0208C89.7418 14.2712 90.493 14.4799 91.2024 14.7303V16.0657C89.1159 15.3563 86.9875 14.6886 84.8592 14.0626L84.108 13.8539V16.2744C85.6939 16.7334 87.2797 17.2342 88.8237 17.735C89.7418 18.0271 90.6599 18.3609 91.6198 18.6531V20.1971C88.6151 19.1956 85.5687 18.2775 82.4805 17.4011L82.1467 17.3176V8.13668C84.5254 8.80438 86.9041 9.55555 89.2828 10.3067Z" fill="#F0F0F0"/>
<path d="M3.64933 77.453C2.31391 72.9877 1.60448 68.8146 1.56274 65.2256H29.523C29.6064 69.9413 31.5678 74.2814 34.656 77.453H3.64933Z" fill="#F0F0F0"/>
<path d="M0.310791 10.0563L0.853303 9.84767C16.461 4.0887 32.0269 1.08402 47.6345 0.791893C63.2422 0.541503 78.8081 3.00367 94.4158 8.26187L95 8.47052V9.05477C94.8748 27.7923 94.7496 46.5298 94.6244 65.2674C94.5827 74.9491 89.4914 88.5536 79.8931 100.447C72.1728 110.045 61.4895 118.559 48.1353 123.066H47.6763C34.1969 119.602 23.5553 111.423 15.7932 101.866C5.86111 89.5552 0.76984 74.8657 0.728108 64.8918C0.644645 55.836 0.602913 46.7802 0.519449 37.7662L0.310791 10.0563ZM18.5058 102.617H46.8834V91.2245H10.4933C10.3681 91.0158 10.2429 90.8072 10.1595 90.5985C12.1209 94.104 14.4161 97.5677 17.0452 100.864C17.546 101.449 18.005 102.033 18.5058 102.617ZM46.9251 104.036H19.7995C26.8104 111.715 35.8662 118.1 46.9251 121.188V104.036ZM19.2153 103.41C19.1735 103.368 19.1735 103.368 19.1735 103.327C19.1735 103.368 19.2153 103.41 19.2153 103.41ZM9.70042 89.7639H46.9251V83.0451C47.2172 83.0451 47.5093 83.0451 47.8015 83.0451C48.0101 83.0451 48.177 83.0451 48.3857 83.0451V121.23C48.344 121.23 48.3022 121.271 48.3022 121.271C60.9887 116.848 71.1712 108.668 78.5994 99.4456C87.8222 88.0111 92.7465 74.9908 92.9552 65.6429C92.9552 65.6847 92.9552 65.6847 92.9552 65.7264H66.1217C66.1217 65.4343 66.1634 65.1422 66.1634 64.85V64.2658H92.9969C93.0386 60.2596 93.0386 56.2533 93.0803 52.2888H66.1634V50.8699H93.0803C93.1221 47.6149 93.1221 44.4015 93.1638 41.1882H66.1634V39.7693H65.9548V39.7276H93.1638C93.2055 35.8048 93.2055 31.9237 93.2473 28.001H47.9684V39.7693H46.5078V16.1074C31.6513 16.3578 16.7531 19.3208 1.81313 25.1215L1.7714 23.6191C17.1287 17.6932 32.4859 14.772 47.8015 14.6468C62.9918 14.5216 78.1404 17.1507 93.2473 22.3672C93.2473 22.868 93.2473 23.3687 93.2473 23.8695C93.289 19.1121 93.3307 14.3547 93.3307 9.63901C78.0987 4.58948 62.8666 2.21077 47.6763 2.46116C32.2355 2.71155 16.8365 5.6745 1.43755 11.3917L2.18872 37.7662C2.27218 46.6133 2.31391 55.4604 2.39738 64.3493C2.39738 64.3493 2.39738 64.3493 2.39738 64.3075H29.5647V64.8918C29.5647 65.1839 29.5647 65.476 29.6064 65.7681H2.35564C2.43911 69.1067 3.14855 72.9877 4.35877 77.0774C4.35877 77.0357 4.31703 76.994 4.31703 76.9522H34.1135C34.3639 77.2444 34.6142 77.5365 34.9064 77.7869L35.8245 78.4128H4.77608C5.9863 82.0852 7.61384 85.9245 9.70042 89.7639ZM4.69262 78.1207C4.65089 78.0373 4.65089 77.9538 4.60916 77.9121C4.65089 77.9955 4.69262 78.0373 4.69262 78.1207ZM4.52569 77.5782C4.48396 77.4948 4.48396 77.4113 4.44223 77.3278C4.48396 77.4113 4.52569 77.4948 4.52569 77.5782ZM92.9134 64.8918V64.9335C92.9134 64.9335 92.9134 64.9335 92.9134 64.8918ZM92.9134 65.1422V65.1839C92.9134 65.1839 92.9134 65.1839 92.9134 65.1422ZM92.9134 65.1422C92.9134 65.1004 92.9134 65.1004 92.9134 65.1004V65.1422ZM92.9134 65.017C92.9134 64.9752 92.9134 64.9752 92.9134 64.9752V65.017ZM92.9134 64.391C92.9134 64.3493 92.9134 64.3493 92.9134 64.3493V64.391ZM47.9684 26.5821H93.2055C93.2055 26.8325 93.2055 27.0411 93.2055 27.2915C93.2055 26.1648 93.2055 25.038 93.2055 23.9113C78.1404 18.6531 63.0753 16.024 47.9684 16.1074V26.5821ZM47.8849 121.396C47.8432 121.396 47.8432 121.396 47.8015 121.438C47.8432 121.438 47.8432 121.438 47.8849 121.396ZM47.3007 121.313C47.1755 121.271 47.092 121.271 46.9668 121.23C47.092 121.23 47.2172 121.271 47.3007 121.313Z" fill="#F0F0F0"/>
<path d="M8.28153 33.134C9.07444 32.6332 9.90907 32.1324 10.7437 31.7151C10.6185 30.4214 10.4933 28.4183 10.8272 27.3333C11.4531 25.3301 13.2893 23.7026 15.4594 24.0782C15.5846 24.1199 15.668 24.2451 15.5846 24.2868C14.3744 24.9128 13.4145 25.8726 12.872 27.2081C12.7051 27.5836 12.1209 30.2545 12.9972 30.4631C13.0807 30.5049 13.1641 30.5049 13.2893 30.5049C14.8751 29.8372 16.5027 29.2529 18.1719 28.7521C18.1719 27.4585 18.2137 25.664 18.6727 24.7042C19.5074 22.8262 21.5939 21.4491 23.8475 22.1168C23.9727 22.1585 24.0561 22.3255 23.9726 22.3672C22.6372 22.8262 21.5522 23.6191 20.8428 24.8711C20.6341 25.2467 19.7577 27.7923 20.6758 28.1262H20.7176C22.2617 27.7923 23.8475 27.5002 25.5585 27.2915C25.7671 25.9978 26.101 24.3286 26.6852 23.4522C27.9372 21.616 30.4411 20.3641 32.778 21.2404C32.9032 21.2822 32.9867 21.4491 32.8615 21.4908C31.3174 21.8664 29.982 22.5758 29.0222 23.7861C28.7718 24.1199 27.4781 26.4569 28.2293 26.9994C28.3127 26.9994 28.3962 26.9994 28.4797 26.9577C29.8151 26.8325 31.3592 26.7907 32.8198 26.8742C33.1954 26.0813 33.5709 25.3719 33.9883 24.9128C35.4489 23.4105 38.6622 22.868 39.622 24.1616C39.7055 24.2451 39.7472 24.412 39.622 24.412C38.2449 24.4538 36.826 24.6624 35.7827 25.6223C35.6158 25.7892 35.0315 26.3734 34.6977 27.0411C36.9095 27.4167 38.7874 28.1679 39.3716 29.5868C39.5803 30.0458 39.7055 30.4631 39.622 30.9639C39.622 31.0891 39.3299 31.0056 39.2464 30.8805C36.4504 28.2931 31.9851 28.001 26.0175 29.0443C19.9664 30.0875 14.9169 31.882 9.49175 34.4694C11.6618 36.9315 8.2398 38.8095 7.11305 36.2221C4.48395 39.352 2.06351 34.8032 5.65244 34.2607C3.60758 31.0891 7.73902 30.9639 8.28153 33.134Z" fill="#F0F0F0"/>
<path d="M9.03277 58.0895C9.74221 57.547 10.6603 57.0879 11.4115 56.6289C10.6603 55.4187 10.2013 53.6659 10.4934 52.5392C10.9942 50.5361 12.2461 49.5762 13.7902 49.6597C13.9154 49.6597 13.9988 49.8266 13.9154 49.8684C12.8304 50.5778 12.6634 51.4959 12.3296 52.873C12.1626 53.6242 12.58 54.8762 13.1225 55.3352C14.4996 54.584 14.4579 54.7092 15.9185 54.1667C15.5012 52.873 15.5846 51.1203 16.1272 50.0353C16.9618 48.2825 18.3389 47.6148 19.7161 47.907C19.8413 47.9487 19.9247 48.0739 19.7995 48.1156C18.7145 48.5747 16.5027 50.3274 17.9634 53.6242C19.2988 53.1652 19.3822 53.0817 21.0932 52.7061C21.2184 51.4124 21.2602 49.8684 21.7609 48.9503C22.8042 47.0723 25.2664 46.196 26.3932 46.655C26.5183 46.6967 26.6018 46.8637 26.4766 46.9054C25.8506 47.3227 25.016 47.6566 24.1814 48.9085C23.7223 49.5762 22.9294 51.1203 23.1381 52.1636C24.3483 51.9967 25.9341 51.9132 27.3112 51.9549C27.6034 51.162 28.1876 50.2022 28.5632 49.7432C28.8136 49.451 29.1474 49.2006 29.4813 49.0754V53.7494C27.1861 53.6242 24.6404 53.8746 22.22 54.4588C16.7531 55.7525 15.3343 56.7541 10.4516 59.3832C13.3729 61.2194 10.5351 64.0154 8.74065 61.2611C5.56904 64.8918 3.52418 60.2178 6.82099 59.5084C4.31709 56.462 8.40679 54.8344 9.03277 58.0895Z" fill="#F0F0F0"/>
<path d="M7.61379 45.6535C8.44842 45.1527 9.57518 44.7771 10.4098 44.3598C10.3263 43.0661 10.1594 41.8976 10.535 40.8126C11.2027 38.8512 12.246 37.8496 13.9153 38.0166C14.0405 38.0583 14.1239 38.1835 14.0405 38.267C12.8302 38.8929 13.1224 39.7276 12.5799 41.0212C12.4129 41.3968 11.9956 42.9826 12.872 43.233C12.9554 43.2748 13.0389 43.2748 13.1641 43.2748C14.7499 42.6488 14.1657 42.6905 15.7932 42.2732C15.8349 41.0212 15.9184 39.3102 16.3357 38.3921C17.2121 36.5977 18.8396 35.7213 20.342 36.0969C20.4671 36.1386 20.7175 36.4308 20.5923 36.4725C19.3821 36.8481 17.2955 39.3102 18.1719 41.2299C19.2152 41.063 19.9246 40.7291 21.8026 40.4787C22.053 39.185 22.4703 37.8914 23.0962 37.015C24.3899 35.2205 26.393 34.845 27.5615 35.3875C27.6867 35.4292 27.8537 35.763 27.7285 35.8048C26.1844 36.1386 26.1427 35.9717 25.1411 37.1819C24.5986 37.8079 23.5136 39.5189 24.3065 40.3118C25.6419 40.2283 26.56 40.0614 28.0206 40.1866C28.3962 39.4354 28.6883 38.3921 29.1056 37.9748C30.5662 36.4725 33.1119 36.3473 33.9465 37.3489C34.0299 37.4323 34.0717 37.5992 33.9465 37.5992C32.5693 37.641 32.0686 38.0166 30.9835 38.9764C30.8583 39.0599 30.608 39.3937 30.3158 39.811H29.5229V42.3984C27.2694 42.1897 24.8072 42.2732 22.512 42.607C16.4609 43.5251 14.2491 44.9023 9.24132 47.3227C11.3696 49.8266 7.90591 51.5794 6.86262 48.9503C4.19179 52.0384 1.81308 47.4062 5.48547 46.9471C3.44062 43.6503 7.02954 42.774 7.61379 45.6535Z" fill="#F0F0F0"/>
<path d="M65.2453 40.6457V64.8918C65.2453 74.4484 57.4414 82.2105 47.8014 82.2105C38.2031 82.2105 30.3576 74.4484 30.3576 64.8918V40.6457H65.2453ZM66.0799 39.7693H29.4812V64.8501C29.4812 74.8239 37.7023 83.0451 47.7597 83.0451C57.8588 83.0451 66.0382 74.8239 66.0382 64.8501L66.0799 39.7693Z" fill="#F0F0F0"/>
<path d="M47.0085 57.547C47.1755 57.7139 47.551 57.5053 47.6762 57.3383C47.9684 56.8793 47.9266 56.295 47.9684 55.7108C48.0101 55.0848 48.0101 54.5423 47.8014 53.9581C47.4676 52.9565 47.0085 52.1636 45.8818 51.9967C45.7566 51.9549 45.5062 52.2053 45.5897 52.2888C46.3408 53.0817 46.6329 53.04 46.8416 54.2502C47.0503 55.4187 46.9251 57.4635 47.0085 57.547ZM39.1212 72.1114C39.2882 72.1531 39.6638 71.6523 39.789 71.3602C39.9141 71.1098 39.8724 70.609 39.8724 70.5673C39.8307 70.4838 39.4134 70.6507 39.2047 70.6507C38.996 70.6507 38.8291 70.609 38.537 70.5673C38.2449 70.5255 38.2866 69.8578 38.2449 69.4823C38.1614 68.5224 38.1197 67.5626 38.1614 66.6028C38.1614 66.3524 38.2449 66.0185 38.4535 65.8516C38.7457 65.6847 39.163 65.7264 39.4968 65.7681C40.1645 65.8933 40.7905 66.2272 41.4999 66.3524C41.8755 66.4358 42.2929 66.3941 42.6684 66.2689C43.0023 66.1855 43.2527 65.9351 43.5448 65.8099C43.7117 65.7681 43.9204 65.7264 44.0456 65.8099C44.5881 66.102 44.9637 66.6445 45.5062 66.8532C46.2156 67.0618 46.9668 66.9784 47.718 67.0201C48.3022 67.0201 48.8865 66.9366 49.4707 67.0201C49.7211 67.0618 50.1384 67.1036 50.2219 67.3957C50.3053 67.7713 49.6794 68.1051 49.7628 68.4807C49.9298 69.0649 50.5975 69.3571 50.8896 69.8578C51.0148 70.0665 50.973 70.3169 50.8896 70.5256C50.8061 70.6925 50.514 70.7342 50.3888 70.9011C50.2219 71.1515 50.1801 71.4436 50.0132 71.694C49.8463 71.9444 49.5959 72.1531 49.3455 72.3617C48.803 72.7791 48.2605 73.1964 47.6345 73.5302C47.4258 73.6554 47.0503 73.405 46.9668 73.6137C46.7999 73.9893 46.633 74.4483 46.466 74.6987C46.2991 74.9491 46.0904 74.9908 45.9652 75.116C45.84 75.283 45.6731 75.5751 45.7566 75.6168C45.84 75.6585 46.6329 75.6585 46.9251 75.6168C47.2172 75.5751 47.3841 75.5334 47.4676 75.4916C47.551 75.4082 47.4258 75.1578 47.3424 74.657C47.3007 74.1562 48.6778 73.9475 49.3455 73.572C50.0549 73.1129 50.7644 72.6121 51.4738 72.1948C51.7659 72.0279 52.1833 71.9862 52.4337 71.7358C52.5588 71.6106 52.5171 71.4019 52.5171 71.235C52.5171 70.8177 52.4337 70.4004 52.4337 69.983C52.4337 69.7744 52.4337 69.524 52.6006 69.3988C52.7258 69.2736 52.9762 69.2319 53.1014 69.3153C53.3518 69.4405 53.3935 69.8161 53.6021 69.983C53.936 70.2334 54.3533 70.3169 54.7289 70.4838C55.0627 70.6507 55.647 70.6507 55.6887 70.9846C55.7722 71.6106 55.3549 72.1948 55.1045 72.7373C54.9793 73.0294 54.6872 73.1964 54.5202 73.4885C54.4368 73.6554 54.4368 73.8641 54.3116 73.9893C53.9777 74.3231 53.5187 74.5318 53.1848 74.8656C52.9344 75.116 52.7258 75.3664 52.6006 75.6585C52.5171 75.8255 52.4754 75.9924 52.3919 76.1593C52.2667 76.3263 52.0581 76.368 51.9329 76.6184C51.8077 76.8688 51.5156 77.5365 51.7659 77.4947C52.0163 77.453 53.4769 77.2026 53.5187 77.0357C53.5604 76.9105 53.4352 76.5349 53.3518 76.0759C53.2683 75.6168 54.3116 75.283 54.8124 74.9908C55.1045 74.8239 55.5218 74.9074 55.7722 74.6987C55.9391 74.5735 55.8557 74.2814 55.8974 74.1145C56.0226 73.8224 56.106 73.4885 56.3564 73.2381C56.6486 72.9043 57.1493 72.7791 57.3997 72.4452C57.6501 72.0279 57.9422 71.5271 57.8588 71.0681C57.7753 70.6925 57.3163 70.5673 57.0659 70.2752C56.8572 70.0665 56.6486 69.8161 56.5651 69.524C56.4399 69.1067 56.3564 68.6894 56.4816 68.272C56.6486 67.7713 57.1493 67.4374 57.4415 67.0201C57.6918 66.6445 58.0674 66.3524 58.1926 65.9351C58.3178 65.4343 58.0674 64.8918 58.0257 64.391C58.0257 64.3075 57.9422 64.1823 58.0257 64.0989C58.3596 63.8067 58.7351 63.4312 59.1942 63.3477C59.6115 63.306 59.9454 63.7233 60.3627 63.8067C60.78 63.8485 61.2808 63.8902 61.6981 63.7233C61.8233 63.6816 61.865 63.3894 61.7816 63.2642C61.4894 63.0138 60.8635 63.0973 60.7383 62.7635C60.6548 62.4713 61.239 62.3879 61.406 62.0957C61.6146 61.7202 61.7816 61.3028 61.7816 60.8438C61.7816 60.6769 61.4477 60.6769 61.3225 60.7603C61.1138 60.8855 61.1138 61.1777 60.9469 61.3446C60.8217 61.4698 60.6131 61.5115 60.4461 61.5115C60.2792 61.5115 60.0288 61.428 59.9454 61.3028C59.8202 61.1777 59.7367 60.8855 59.8619 60.8021C60.1957 60.5934 60.6548 60.6769 61.0304 60.5934C61.1973 60.5517 61.406 60.5099 61.4894 60.3847C61.6146 60.1344 61.6146 59.8422 61.4894 59.5918C61.4477 59.4666 61.239 59.4667 61.1138 59.5084C60.9469 59.5501 60.8635 59.8005 60.6548 59.8005C60.4044 59.8005 60.154 59.6753 59.9871 59.5084C59.8619 59.3415 59.8202 59.0911 59.9036 58.9241C60.0288 58.632 60.4461 58.5486 60.5713 58.2564C60.7383 57.8808 60.8635 57.4218 60.78 57.0045C60.7383 56.8376 60.4044 56.7541 60.2792 56.8793C60.0706 57.0045 60.1123 57.2966 59.9871 57.4635C59.8202 57.7139 59.7367 58.0895 59.4863 58.2147C59.3194 58.2982 59.0273 58.1312 58.9855 57.9226C58.9021 57.5887 59.1107 57.2549 59.1942 56.9628C59.3194 56.6289 59.4863 56.295 59.695 56.0029C59.9036 55.7108 60.3209 55.5856 60.4879 55.2517C60.6131 55.0014 60.7383 54.6675 60.5713 54.4589C60.4461 54.2919 60.154 54.4171 59.9871 54.5423C59.8619 54.6258 59.9036 54.9179 59.7784 55.0014C59.4028 55.1683 58.9438 55.0431 58.6099 55.21C58.3178 55.3769 58.1926 55.6691 58.0257 55.9612C57.7336 56.462 57.6918 57.3383 57.5667 57.4218C57.4415 57.547 57.1493 57.5053 57.0659 57.3383C56.9407 57.1297 57.1493 56.7958 56.9824 56.5872C56.8572 56.462 56.5234 56.462 56.3982 56.5872C56.2312 56.7541 56.1895 57.0045 56.1895 57.2549C56.1895 57.6305 56.2312 58.006 56.3982 58.3399C56.6903 58.8824 57.1493 59.2997 57.5249 59.8005C57.9005 60.3013 58.3596 60.7603 58.5682 61.3446C58.6934 61.7202 58.7351 62.1792 58.5682 62.5131C58.443 62.8469 58.1092 63.1808 57.7753 63.1808C57.3163 63.139 56.9824 62.6383 56.6068 62.3879C56.2312 62.1375 55.8557 61.8036 55.4383 61.7202C54.4785 61.5532 53.4769 61.7202 52.4754 61.7202C51.599 61.7202 50.6809 61.8454 49.8046 61.7202C49.3872 61.6784 48.9282 61.5115 48.6361 61.2194C48.3439 60.9273 48.1353 60.5099 48.1353 60.1344C48.0936 59.5918 48.3022 59.0911 48.5109 58.5903C48.6778 58.2564 48.9282 57.9226 49.262 57.7139C49.5124 57.547 49.9298 57.4635 50.1801 57.547C50.4723 57.6722 51.2652 58.7572 51.4321 58.7155C51.599 58.6738 51.4738 57.7139 51.3904 57.4218C51.2234 56.9627 50.7227 56.7124 50.5975 56.2533C50.5557 56.1281 50.7644 55.9612 50.8896 55.9612C51.14 55.9612 51.4321 56.1281 51.6408 56.3368C51.7659 56.4202 52.3085 57.2131 52.4337 57.1714C52.5588 57.1297 52.3502 56.0447 52.225 55.7108C52.0163 55.2518 51.3486 54.9179 51.3069 54.7927C51.2652 54.7092 51.3069 54.6258 51.4321 54.584C51.6825 54.584 51.9329 54.7092 52.1833 54.7927C52.3919 54.8762 52.7258 55.1266 52.851 55.0848C52.9762 55.0431 52.851 54.6675 52.7258 54.5006C52.2667 53.9581 51.6407 53.6242 51.1817 53.1234C50.9313 52.873 50.6809 52.5392 50.6809 52.1636C50.6809 51.9549 50.9313 51.7463 51.14 51.6628C51.5156 51.4959 52.0163 51.4124 52.3502 51.2038C52.4754 51.1203 52.3919 51.0369 52.2667 50.9951C51.7242 50.7865 51.14 50.703 50.5557 50.703C50.2219 50.703 49.9298 50.9117 49.5959 50.9951C49.3872 51.0786 49.1786 51.2038 48.9282 51.2038C48.5109 51.2038 48.0518 51.2455 47.7597 50.9951C47.5928 50.8282 47.8014 50.4943 47.9266 50.2439C48.0518 50.0353 48.2605 49.9101 48.4274 49.7432C48.5526 49.618 48.9282 49.4928 48.803 49.451C48.6778 49.4093 48.0101 49.4093 47.6345 49.5345C47.3007 49.618 47.0085 49.7432 46.7581 49.9936C46.5495 50.2022 46.5912 50.6613 46.2991 50.7865C45.7983 51.0786 45.5479 50.9951 45.0054 51.2455C44.8802 51.329 44.5881 51.6628 44.4629 51.7046C43.7952 51.788 42.4598 51.4542 42.418 51.5794C42.3346 51.7046 43.4613 52.3305 43.67 52.9148C43.7535 53.1652 43.1275 52.7896 42.8771 52.8313C42.4598 52.873 42.0425 52.9565 41.7086 53.1234C41.3748 53.2904 41.0826 53.5825 40.8322 53.8746C40.5819 54.125 40.4567 54.4589 40.1645 54.6675C40.0393 54.751 39.7472 54.6258 39.6638 54.751C39.5386 54.9179 39.4968 55.2935 39.7055 55.2935L40.874 55.3769C41.0826 55.3769 40.6653 55.836 40.7905 56.0446C40.874 56.1698 41.1661 56.1281 41.2913 56.0446C41.4582 55.9612 41.5417 55.7108 41.7503 55.5856C41.959 55.4604 42.1677 55.2935 42.418 55.2935C42.7102 55.2935 43.0858 55.4187 43.211 55.6691C43.3361 55.9195 43.044 56.2116 43.0023 56.462C42.9606 56.7541 43.1275 57.1297 42.9188 57.3383C42.2929 57.9226 42.0842 57.4218 41.1661 58.5903C40.4149 59.5084 40.7488 59.0076 40.4984 60.2178C40.4567 60.4682 40.4149 60.7186 40.2063 60.8855C39.9976 61.0107 39.6638 61.0942 39.4551 60.969C39.0378 60.7603 38.7874 60.343 38.4953 59.9257C38.3283 59.717 38.4118 59.3415 38.2031 59.1745C37.911 59.0076 37.4937 59.0076 37.1599 59.0911C36.9095 59.1745 36.7843 59.4667 36.6591 59.6753C36.3252 60.1344 36.0748 60.6769 35.7827 61.1359C35.5323 61.5115 35.1985 61.8454 34.9898 62.2209C34.8646 62.4296 34.9481 62.68 34.8229 62.8887C34.5725 63.4729 34.3638 64.0154 34.0717 64.5579C33.9465 64.7666 33.6961 64.8918 33.6127 65.1422C33.5709 65.3926 33.6544 65.9351 33.7796 65.9351C33.9048 65.9351 34.3221 65.6429 34.5725 65.476C34.8646 65.3508 35.4071 65.1839 35.4489 65.1004C35.4906 65.017 35.1567 64.7248 34.9898 64.5162C34.6977 64.1406 35.3237 63.5981 35.5741 63.1808C35.6575 63.0138 35.8662 62.9721 35.9496 62.8052C36.1166 62.4713 36.1583 62.054 36.3252 61.7202C36.5339 61.2611 36.7843 60.8021 37.1181 60.4682C37.285 60.3013 37.5772 60.1761 37.7858 60.343C38.1197 60.5517 38.1614 61.0107 38.3701 61.3863C38.537 61.6367 38.7457 61.8871 38.8291 62.1792C38.9126 62.4296 38.6622 62.7635 38.8291 62.9721C39.0378 63.2225 39.4551 63.306 39.789 63.3477L40.5401 63.4312L40.6236 64.4745C40.6653 64.85 39.8307 64.5579 39.4551 64.6414C39.1212 64.7248 38.7874 64.85 38.4118 64.9335C38.078 65.017 37.452 64.7248 37.3685 65.1004C37.0764 66.561 37.452 68.0217 37.5354 69.4823C37.5354 69.8578 37.3268 70.4838 37.7024 70.6507L38.4118 70.9429C38.537 71.235 38.6205 71.6106 38.7874 71.8192C38.7457 72.0279 38.9543 72.0696 39.1212 72.1114Z" fill="#F0F0F0"/>
<path d="M62.1154 44.2763C62.1154 43.9842 61.9067 43.859 61.5312 43.859H60.1123C59.7367 43.859 59.528 43.9842 59.528 44.2763C59.528 44.5684 59.7367 44.6936 60.1123 44.6936H60.4044V47.3227C60.4044 47.7818 60.5296 47.9904 60.8217 47.9904C61.1138 47.9904 61.239 47.7818 61.239 47.3227V44.6936H61.5312C61.9485 44.6936 62.1154 44.5684 62.1154 44.2763ZM58.0674 45.1944C58.0674 45.5283 57.9005 45.6952 57.5667 45.6952H57.1911V44.6936H57.5667C57.9005 44.6936 58.0674 44.8606 58.0674 45.1944ZM58.9855 47.5731C58.9855 47.4062 58.9021 47.2393 58.7351 47.0306L58.0674 46.196C58.6099 46.0708 58.9438 45.6535 58.9438 45.0692C58.9438 44.3181 58.443 43.7755 57.5667 43.7755H56.9407C56.4816 43.7755 56.3564 43.9842 56.3564 44.4432V47.281C56.3564 47.7401 56.4816 47.9487 56.7738 47.9487C57.0659 47.9487 57.1911 47.7401 57.1911 47.281V46.2794L58.1509 47.6566C58.3178 47.8652 58.443 47.9904 58.6099 47.9904C58.8186 47.9904 58.9855 47.8235 58.9855 47.5731ZM54.562 46.2794H53.6856L54.1447 44.7771L54.562 46.2794ZM55.7305 47.5314C55.7305 47.4479 55.7305 47.3645 55.6887 47.2393L54.7706 44.3181C54.6454 43.9842 54.4368 43.7755 54.1447 43.7755C53.8525 43.7755 53.6439 43.9842 53.5187 44.3598L52.5588 47.2393C52.5171 47.3227 52.5171 47.4062 52.5171 47.4897C52.5171 47.7401 52.684 47.9487 52.8927 47.9487C53.0596 47.9487 53.2266 47.8235 53.31 47.5314L53.4352 47.1141H54.7706L54.8541 47.4897C54.9376 47.7818 55.0628 47.9487 55.2714 47.9487C55.5635 47.9904 55.7305 47.8235 55.7305 47.5314ZM51.9329 46.0708C51.9329 45.6117 51.7659 45.4448 51.4321 45.4448H50.8896C50.5557 45.4448 50.3888 45.57 50.3888 45.8621C50.3888 46.1542 50.5557 46.2794 50.8896 46.2794H51.14C51.14 46.7802 50.8896 47.1141 50.4723 47.1141C50.0132 47.1141 49.6794 46.6133 49.6794 45.8204C49.6794 45.0275 50.0132 44.5684 50.4723 44.5684C50.9313 44.5684 51.14 44.944 51.3486 44.944C51.5156 44.944 51.6825 44.7354 51.6825 44.5267C51.6825 44.1094 51.2234 43.6921 50.514 43.6921C49.5124 43.6921 48.8865 44.5267 48.8865 45.8621C48.8865 47.1558 49.5124 48.0322 50.4305 48.0322C51.3486 48.0322 51.9329 47.1975 51.9329 46.0708ZM48.6778 44.2763C48.6778 43.9842 48.4691 43.859 48.0936 43.859H46.6747C46.2991 43.859 46.0904 43.9842 46.0904 44.2763C46.0904 44.5684 46.2991 44.6936 46.6747 44.6936H46.9668V47.3227C46.9668 47.7818 47.092 47.9904 47.3841 47.9904C47.6762 47.9904 47.8014 47.7818 47.8014 47.3227V44.6936H48.0936C48.4691 44.6936 48.6778 44.5684 48.6778 44.2763ZM45.9235 44.2763C45.9235 43.9842 45.7149 43.859 45.3393 43.859H43.9204C43.5448 43.859 43.3362 43.9842 43.3362 44.2763C43.3362 44.5684 43.5448 44.6936 43.9204 44.6936H44.2125V47.3227C44.2125 47.7818 44.3377 47.9904 44.6298 47.9904C44.922 47.9904 45.0471 47.7818 45.0471 47.3227V44.6936H45.3393C45.7149 44.6936 45.9235 44.5684 45.9235 44.2763ZM42.8354 46.1542V44.4432C42.8354 43.9842 42.7102 43.7755 42.418 43.7755C42.1259 43.7755 42.0007 43.9842 42.0007 44.4432V46.0708C42.0007 46.7802 41.7503 47.1558 41.2913 47.1558C40.8322 47.1558 40.5819 46.7802 40.5819 46.0708V44.4432C40.5819 43.9842 40.4567 43.7755 40.1645 43.7755C39.8724 43.7755 39.7472 43.9842 39.7472 44.4432V46.1542C39.7472 47.3645 40.3315 48.0322 41.2913 48.0322C42.2094 48.0322 42.8354 47.3645 42.8354 46.1542ZM39.4134 44.2763C39.4134 43.9842 39.2047 43.859 38.8291 43.859H37.4102C37.0347 43.859 36.826 43.9842 36.826 44.2763C36.826 44.5684 37.0347 44.6936 37.4102 44.6936H37.7024V47.3227C37.7024 47.7818 37.8276 47.9904 38.1197 47.9904C38.4118 47.9904 38.537 47.7818 38.537 47.3227V44.6936H38.8291C39.2047 44.6936 39.4134 44.5684 39.4134 44.2763ZM36.5339 46.655C36.5339 46.0291 36.2 45.6535 35.5323 45.4031C35.115 45.2361 34.8646 45.1944 34.8646 44.9023C34.8646 44.6936 35.0315 44.5684 35.2819 44.5684C35.4906 44.5684 35.741 44.6936 35.9079 44.6936C36.1583 44.6936 36.2835 44.5267 36.2835 44.3181C36.2835 43.9842 35.9079 43.7338 35.2819 43.7338C34.489 43.7338 33.9882 44.2763 33.9882 45.0275C33.9882 45.6535 34.3221 45.9456 34.9898 46.196C35.3654 46.3212 35.6158 46.4464 35.6158 46.7802C35.6158 47.0306 35.4489 47.1975 35.1985 47.1975C34.8229 47.1975 34.5308 46.9889 34.3221 46.9889C34.0717 46.9889 33.9048 47.1558 33.9048 47.4062C33.9048 47.74 34.4056 48.0739 35.0733 48.0739C35.9914 48.0322 36.5339 47.4479 36.5339 46.655Z" fill="#F0F0F0"/>
</svg>
