<svg width="159" height="71" viewBox="0 0 159 71" fill="none" xmlns="http://www.w3.org/2000/svg">
<path d="M39.014 17.2972C42.4471 17.271 45.924 17.4622 49.4207 17.4922C49.6246 17.4946 49.7571 17.5421 49.818 17.6346C49.8736 17.7196 49.8909 17.8308 49.8697 17.9683C49.8619 18.0163 49.8373 18.0604 49.7999 18.0937C49.7624 18.127 49.7143 18.1475 49.663 18.152C48.5716 18.2344 47.6922 18.6693 47.0246 19.4566C46.9397 19.5586 46.8935 19.684 46.8935 19.8127V30.9733C46.8934 31.1288 46.8523 31.2818 46.7739 31.4186C46.6956 31.5554 46.5823 31.6716 46.4445 31.7568C41.2153 35.0109 30.7729 34.6323 25.4325 32.053C18.8881 28.8927 15.4828 21.661 16.1543 14.8716C16.7583 8.74964 20.4894 4.07846 26.6245 1.90783C33.1133 -0.390267 39.9637 0.794397 46.5836 1.69039C46.9041 1.73538 47.0498 1.90908 47.0206 2.21149C46.7955 4.53583 46.5107 6.79269 46.1663 8.98207C46.1319 9.217 46.0061 9.33822 45.7889 9.34572C45.721 9.34782 45.6546 9.32711 45.6015 9.28728C45.5483 9.24745 45.5119 9.19109 45.4988 9.12828C43.8577 1.8516 34.9451 0.92936 28.9093 3.29494C18.0536 7.55373 17.8113 20.72 25.7066 27.6068C29.4524 30.8733 34.0312 32.1567 39.4431 31.4569C40.4868 31.322 41.4405 30.8721 42.3041 30.1073C42.3417 30.0743 42.3718 30.0342 42.3923 29.9897C42.4128 29.9452 42.4234 29.8972 42.4233 29.8486V19.9964C42.4231 19.7399 42.3395 19.4895 42.184 19.279C42.0284 19.0686 41.8082 18.9081 41.5531 18.8193L38.9027 17.897C38.8325 17.8705 38.7741 17.822 38.7373 17.7596C38.7004 17.6973 38.6875 17.6249 38.7005 17.5545C38.7135 17.4842 38.7518 17.4203 38.8089 17.3734C38.866 17.3266 38.9384 17.2997 39.014 17.2972ZM89.14 25.3312C89.1572 25.369 89.1857 25.4012 89.2221 25.4239C89.2584 25.4466 89.3011 25.4587 89.3447 25.4587C89.3883 25.4587 89.4309 25.4466 89.4673 25.4239C89.5037 25.4012 89.5322 25.369 89.5493 25.3312C92.5414 18.8943 95.4142 11.9625 99.4871 6.03541C99.5161 5.99418 99.5579 5.96243 99.6068 5.94449C99.6557 5.92656 99.7092 5.92332 99.7601 5.93522C99.8111 5.94713 99.8568 5.97359 99.8912 6.01099C99.9255 6.04839 99.9468 6.09489 99.952 6.14413C100.572 12.8435 101.08 19.8577 102.392 26.4671C102.789 28.4578 103.437 29.6612 105.761 29.53C105.85 29.5254 105.938 29.5411 106.019 29.5757C106.1 29.6102 106.171 29.6627 106.226 29.7287C106.51 30.0636 106.499 30.236 106.194 30.246C103.786 30.3335 101.373 30.321 98.9546 30.2085C98.9096 30.2062 98.8658 30.1941 98.8266 30.173C98.7874 30.152 98.7538 30.1225 98.7284 30.087C98.7031 30.0515 98.6867 30.0109 98.6804 29.9682C98.6742 29.9256 98.6783 29.8821 98.6924 29.8411C99.1454 28.5865 99.307 27.2456 99.1772 25.8185C98.7983 21.6972 98.3189 17.6521 97.7387 13.6832C97.7122 13.4983 97.6566 13.4895 97.5718 13.657L89.2115 30.0661C89.1907 30.1063 89.1592 30.1407 89.1201 30.1659C89.081 30.1912 89.0356 30.2065 88.9884 30.2102C88.9411 30.214 88.8937 30.2062 88.8506 30.1875C88.8075 30.1688 88.7704 30.1399 88.7427 30.1036C85.0076 25.1625 82.3493 19.2579 79.7943 13.7282C79.7808 13.6982 79.7569 13.6734 79.7264 13.658C79.6959 13.6426 79.6607 13.6376 79.6267 13.6437C79.5928 13.6499 79.5621 13.6668 79.5398 13.6918C79.5175 13.7167 79.5049 13.7481 79.5042 13.7807C79.4698 14.498 79.3969 15.2203 79.2857 15.9476C78.6923 19.8765 78.3148 23.8241 78.1532 27.7905C78.0936 29.2526 79.389 29.3425 80.4221 29.8149C80.484 29.8421 80.5339 29.8887 80.5634 29.9468C80.5928 30.0048 80.5999 30.0708 80.5835 30.1333C80.567 30.1958 80.5281 30.2509 80.4733 30.2893C80.4184 30.3276 80.3512 30.3468 80.283 30.3435C75.1175 30.1136 69.9519 30.0898 64.7863 30.2723C64.7395 30.2738 64.6936 30.2603 64.656 30.234C64.6184 30.2077 64.5914 30.1701 64.5794 30.1274C64.5674 30.0847 64.5711 30.0395 64.5899 29.9991C64.6087 29.9586 64.6415 29.9254 64.683 29.9049L65.9386 29.2825C66.2962 29.1051 66.4022 28.8389 66.2565 28.484L63.3081 21.2898C63.2657 21.1874 63.1876 21.1361 63.0737 21.1361H56.5293C56.4615 21.1362 56.3953 21.1556 56.3393 21.1917C56.2833 21.2278 56.2401 21.279 56.2154 21.3386C54.9041 24.4202 54.0882 26.7345 53.7677 28.2816C53.5664 29.2563 54.0127 29.7137 55.1068 29.6537C55.1621 29.6502 55.2171 29.6641 55.2631 29.6933C55.3091 29.7225 55.3436 29.7652 55.3611 29.8149L55.4445 30.0773C55.5134 30.2823 55.4352 30.371 55.2101 30.3435C52.8445 30.0411 50.4803 30.0461 48.1173 30.3585C47.961 30.3785 47.8842 30.3148 47.8869 30.1673V30.0361C47.8869 29.8861 47.965 29.7999 48.1213 29.7774C50.1796 29.4962 51.0657 28.4128 51.8286 26.5533C54.5756 19.8702 57.1889 13.1396 59.6684 6.36156C59.7346 6.18411 59.8048 6.0704 59.879 6.02041C59.9136 5.99756 59.9531 5.98232 59.9947 5.97584C60.0363 5.96935 60.0789 5.97181 60.1191 5.98301C60.1593 5.99421 60.1961 6.01386 60.2268 6.04048C60.2575 6.0671 60.2812 6.09997 60.2962 6.13663C63.1492 13.2671 65.8393 20.4088 69.5307 27.1981C70.6472 29.2601 72.2804 30.1523 74.6724 29.455C75.0936 29.3313 75.4512 28.8889 75.4989 28.5403C76.5612 21.0974 77.4645 13.6407 78.2089 6.17037C78.2145 6.11476 78.2375 6.06199 78.2751 6.0188C78.3127 5.9756 78.363 5.94394 78.4197 5.92785C78.4764 5.91176 78.5369 5.91197 78.5935 5.92846C78.65 5.94494 78.7001 5.97696 78.7373 6.02041C79.2565 6.63024 79.7267 7.30255 80.1479 8.03734C83.4195 13.7082 86.4168 19.4728 89.14 25.3312ZM59.6445 11.3139L56.9584 19.2879C56.9028 19.4578 56.969 19.5428 57.1571 19.5428H62.3068C62.3318 19.5425 62.3563 19.5368 62.3786 19.5262C62.4008 19.5155 62.4202 19.5002 62.4352 19.4813C62.4501 19.4625 62.4603 19.4407 62.4649 19.4175C62.4696 19.3944 62.4685 19.3706 62.4618 19.3479L59.9108 11.3139C59.826 11.0415 59.7373 11.0415 59.6445 11.3139ZM112.457 18.5194V26.9582C112.457 27.1143 112.522 27.264 112.639 27.3743C114.996 29.5937 119.824 29.7849 120.869 26.1185C120.911 25.9785 121.006 25.9285 121.155 25.9685L121.258 25.9947C121.401 26.0322 121.461 26.1209 121.437 26.2609L120.861 29.47C120.76 30.0323 120.409 30.3123 119.808 30.3098L107.208 30.2723C107.081 30.2723 107.009 30.2123 106.993 30.0923C106.988 30.0623 106.986 30.0298 106.989 29.9948C106.997 29.8774 107.063 29.8099 107.188 29.7924C108.435 29.615 109.061 28.9389 109.063 27.7642C109.084 21.2961 109.087 14.8854 109.071 8.5322C109.071 8.33839 109.01 8.14913 108.895 7.98878C108.78 7.82843 108.618 7.70433 108.428 7.63245L106.763 7.00638C106.691 6.97718 106.632 6.92555 106.595 6.86012C106.559 6.79469 106.547 6.71944 106.563 6.64697C106.578 6.57449 106.619 6.5092 106.679 6.46202C106.74 6.41484 106.815 6.38864 106.894 6.38781C110.888 6.4353 114.881 6.44279 118.87 6.4103C119.005 6.4103 119.14 6.4028 119.275 6.38781C119.691 6.34282 120.085 6.2341 120.455 6.06165C120.498 6.04236 120.546 6.03458 120.593 6.03917C120.64 6.04375 120.685 6.06052 120.723 6.08764C120.761 6.11476 120.79 6.15117 120.807 6.19288C120.824 6.23459 120.829 6.27998 120.821 6.32407L120.038 10.3579C120.025 10.4341 119.983 10.503 119.919 10.551C119.855 10.5989 119.774 10.6224 119.692 10.6167C119.611 10.6111 119.535 10.5767 119.479 10.5204C119.423 10.4641 119.391 10.3901 119.39 10.3129C119.295 7.31379 114.722 7.91737 112.596 8.05608C112.437 8.06608 112.357 8.14606 112.357 8.29601V16.4462C112.357 16.4792 112.364 16.5118 112.378 16.5421C112.391 16.5724 112.411 16.5998 112.436 16.6226C112.461 16.6454 112.49 16.6631 112.523 16.6747C112.555 16.6862 112.589 16.6914 112.624 16.6899C115.091 16.5924 117.535 17.0348 119.796 15.9139C119.854 15.8844 119.92 15.8708 119.987 15.8744C120.053 15.8781 120.117 15.8988 120.171 15.9344C120.226 15.9701 120.269 16.0192 120.296 16.0764C120.323 16.1336 120.333 16.1967 120.324 16.2588L119.804 20.3901C119.795 20.4876 119.749 20.5786 119.673 20.6454C119.597 20.7122 119.498 20.7499 119.394 20.7514C119.29 20.7528 119.19 20.7177 119.112 20.653C119.034 20.5883 118.985 20.4986 118.973 20.4013C118.814 19.3704 118.54 18.6843 117.312 18.5269C115.757 18.3219 114.196 18.2619 112.628 18.3469C112.514 18.3519 112.457 18.4094 112.457 18.5194ZM125.712 19.0217C125.955 15.7077 127.512 14.0131 130.739 12.8772C140.462 9.45819 145.663 24.9488 134.236 26.7145C131.41 27.1532 128.049 25.05 126.674 22.8756C125.93 21.6935 125.609 20.4088 125.712 19.0217ZM133.004 13.7095C133.004 13.6399 132.974 13.5731 132.922 13.5239C132.87 13.4747 132.799 13.4471 132.726 13.4471H132.702C132.628 13.4471 132.557 13.4747 132.505 13.5239C132.453 13.5731 132.424 13.6399 132.424 13.7095V25.4586C132.424 25.5282 132.453 25.595 132.505 25.6442C132.557 25.6934 132.628 25.7211 132.702 25.7211H132.726C132.799 25.7211 132.87 25.6934 132.922 25.6442C132.974 25.595 133.004 25.5282 133.004 25.4586V13.7095ZM134.028 13.6649C134.028 13.6132 134.006 13.5636 133.968 13.527C133.929 13.4905 133.876 13.4699 133.822 13.4699L133.734 13.4695C133.679 13.4695 133.627 13.49 133.588 13.5265C133.549 13.563 133.528 13.6125 133.528 13.6641L133.505 25.6082C133.505 25.6599 133.527 25.7095 133.566 25.7461C133.605 25.7826 133.657 25.8032 133.712 25.8032L133.799 25.8035C133.854 25.8035 133.907 25.7831 133.945 25.7466C133.984 25.7101 134.006 25.6606 134.006 25.609L134.028 13.6649ZM131.577 13.5595C129.773 14.1481 128.271 15.6402 127.926 17.3647C127.208 20.9412 128.401 23.6579 131.506 25.5149C131.538 25.5336 131.574 25.5439 131.612 25.5448C131.649 25.5457 131.686 25.5371 131.719 25.5199C131.752 25.5027 131.779 25.4775 131.799 25.4469C131.818 25.4164 131.828 25.3816 131.828 25.3462V13.7282C131.827 13.6995 131.82 13.6713 131.806 13.6458C131.792 13.6204 131.772 13.5985 131.747 13.582C131.723 13.5655 131.695 13.5548 131.665 13.5509C131.635 13.547 131.605 13.55 131.577 13.5595ZM134.708 13.9944L134.693 25.5711C134.693 25.6961 134.756 25.7398 134.883 25.7023C140.395 24.0115 140.001 15.7376 135.078 13.7657C134.832 13.6682 134.708 13.7445 134.708 13.9944Z" fill="#F0F0F0"/>
<path d="M144.43 14.3721V18.6531C144.43 18.6979 144.447 18.7412 144.478 18.7749C144.51 18.8086 144.553 18.8304 144.601 18.8359C146.037 18.9781 147.44 18.8804 148.81 18.5427C148.937 18.5097 148.994 18.5566 148.98 18.6836C148.89 19.4936 148.798 20.3087 148.703 21.1288C148.687 21.271 148.596 21.3383 148.429 21.3307C148.297 21.323 148.225 21.2558 148.215 21.1288C148.068 19.4225 145.918 19.9443 144.743 19.8262C144.704 19.8225 144.665 19.8266 144.628 19.8383C144.591 19.85 144.557 19.869 144.527 19.8941C144.498 19.9191 144.475 19.9498 144.459 19.984C144.443 20.0182 144.434 20.0553 144.434 20.0928C144.422 21.7077 143.684 25.9545 145.902 26.4039C146.063 26.4369 146.125 26.5309 146.088 26.6858C146.067 26.7797 146.013 26.8521 145.926 26.9029C145.922 26.9067 142.232 26.8381 141.645 26.9333C141.507 26.9562 141.388 26.9206 141.288 26.8267L141.177 26.72C141.161 26.7045 141.149 26.6853 141.143 26.6643C141.137 26.6432 141.136 26.6211 141.141 26.5998C141.147 26.5785 141.157 26.5588 141.172 26.5425C141.188 26.5263 141.207 26.514 141.228 26.5068L142.22 26.1525C142.287 26.1291 142.344 26.0865 142.385 26.0306C142.425 25.9748 142.447 25.9083 142.446 25.8402V14.5511C142.45 13.0771 141.53 13.8846 141.026 13.1457C141.002 13.1118 140.989 13.0722 140.987 13.0314C140.986 12.9905 140.997 12.95 141.019 12.9146C141.041 12.8792 141.073 12.8503 141.112 12.8312C141.15 12.8121 141.193 12.8036 141.236 12.8067C143.937 13.0352 146.634 13.0212 149.33 12.7648C149.446 12.7546 149.495 12.8041 149.476 12.9133L149.068 15.2329C149.059 15.2859 149.031 15.3341 148.988 15.3685C148.945 15.4028 148.89 15.421 148.834 15.4196C148.778 15.4182 148.725 15.3973 148.684 15.3609C148.643 15.3244 148.617 15.2748 148.611 15.2214C148.373 13.2447 146.029 13.9303 144.66 14.1207C144.507 14.141 144.43 14.2248 144.43 14.3721ZM12.3796 39.7765C10.1024 39.7739 7.82385 39.779 5.54399 39.7917C3.20728 39.8069 1.75922 40.8734 0.86659 42.873C0.837745 42.9423 0.784567 42.9997 0.71626 43.0354C0.647953 43.071 0.568817 43.0826 0.492547 43.0681C0.416278 43.0537 0.347676 43.0141 0.298615 42.9562C0.249554 42.8983 0.223122 42.8257 0.223893 42.7511C0.200089 40.5877 0.858655 38.8052 1.52912 36.7752C1.5688 36.6533 1.6455 36.6241 1.75922 36.6876C2.95734 37.3503 4.35249 37.6829 5.94469 37.6854C25.3949 37.7007 44.8331 37.7032 64.2595 37.6931C74.6828 37.6854 85.1061 37.7096 95.5295 37.7654L126.676 37.6778C135.575 37.6512 144.505 37.2322 153.408 37.6435C155.045 37.7172 156.648 37.5458 158.216 37.1294C158.27 37.1149 158.326 37.1124 158.381 37.1219C158.436 37.1314 158.488 37.1527 158.533 37.1842C158.578 37.2157 158.615 37.2567 158.641 37.3039C158.667 37.3511 158.682 37.4034 158.684 37.4569C158.764 39.2775 158.602 41.1336 158.2 43.0253C158.163 43.1954 158.105 43.3059 158.026 43.3567C157.981 43.3844 157.93 43.4011 157.876 43.4053C157.823 43.4095 157.77 43.4011 157.721 43.3807C157.672 43.3604 157.629 43.3288 157.595 43.2888C157.562 43.2487 157.54 43.2014 157.53 43.151C156.792 39.2927 152.257 39.6089 149.266 39.6165C105.211 39.713 61.1796 39.7333 17.172 39.6774C17.1215 39.6774 17.0731 39.6967 17.0374 39.731C17.0017 39.7653 16.9816 39.8118 16.9816 39.8602V63.7944C16.9776 67.0052 17.4498 69.1914 20.8735 69.9798C21.1962 70.0535 21.3139 70.2261 21.2266 70.4978C21.2109 70.5496 21.176 70.594 21.1285 70.6228C21.081 70.6516 21.0241 70.6627 20.9687 70.654C17.1972 70.1335 13.415 70.0865 9.62234 70.5131C9.43191 70.5359 9.36579 70.4598 9.42398 70.2845L9.54299 69.9189C9.56241 69.8594 9.60133 69.8074 9.65412 69.7704C9.70691 69.7334 9.77082 69.7134 9.83657 69.7132C11.7845 69.7285 12.566 68.6582 12.578 66.8376C12.6361 57.8845 12.6441 48.9352 12.6018 39.9897C12.5991 39.8475 12.5251 39.7765 12.3796 39.7765Z" fill="#F0F0F0"/>
<path d="M76.7439 43.6296C89.2199 40.5195 97.6036 56.5051 88.3569 64.4468C84.3958 67.8482 78.8239 68.499 74.1349 66.0094C70.6988 64.1857 67.4972 60.9886 66.8689 57.1445C66.662 55.8833 66.8357 54.0571 67.3898 51.6659C68.5154 46.8343 71.9953 44.8101 76.7439 43.6296ZM79.0904 45.0976C79.0904 45.0529 79.0811 45.0086 79.0631 44.9673C79.0451 44.926 79.0188 44.8885 78.9855 44.8569C78.9523 44.8252 78.9128 44.8001 78.8694 44.783C78.826 44.7659 78.7794 44.7571 78.7324 44.7571H78.5574C78.4625 44.7571 78.3715 44.793 78.3043 44.8569C78.2372 44.9207 78.1995 45.0073 78.1995 45.0976V65.6802C78.1995 65.7705 78.2372 65.8571 78.3043 65.921C78.3715 65.9848 78.4625 66.0207 78.5574 66.0207H78.7324C78.7794 66.0207 78.826 66.0119 78.8694 65.9948C78.9128 65.9777 78.9523 65.9526 78.9855 65.921C79.0188 65.8894 79.0451 65.8518 79.0631 65.8105C79.0811 65.7692 79.0904 65.7249 79.0904 65.6802V45.0976ZM80.9755 45.1657C80.9755 45.0604 80.9315 44.9593 80.8532 44.8848C80.7749 44.8103 80.6686 44.7685 80.5579 44.7685H80.5022C80.3915 44.7685 80.2852 44.8103 80.2069 44.8848C80.1286 44.9593 80.0846 45.0604 80.0846 45.1657V65.6953C80.0846 65.8007 80.1286 65.9018 80.2069 65.9763C80.2852 66.0508 80.3915 66.0926 80.5022 66.0926H80.5579C80.6686 66.0926 80.7749 66.0508 80.8532 65.9763C80.9315 65.9018 80.9755 65.8007 80.9755 65.6953V45.1657ZM77.0223 45.0749C67.1711 47.3072 68.5472 62.5285 76.9666 65.5516C77.1257 65.6096 77.2052 65.5579 77.2052 65.3964V45.2111C77.2052 45.0926 77.1443 45.0472 77.0223 45.0749ZM88.6035 59.8649C90.2261 54.8214 88.2098 47.084 82.1567 45.1809C82.0321 45.1405 81.9698 45.1821 81.9698 45.3057V65.6689C81.9701 65.7012 81.9784 65.7329 81.9939 65.7617C82.0095 65.7904 82.0318 65.8153 82.0592 65.8344C82.0866 65.8535 82.1183 65.8662 82.1518 65.8717C82.1853 65.8771 82.2196 65.875 82.2521 65.8656C85.5027 64.9222 87.6198 62.922 88.6035 59.8649ZM140.81 46.3386C143.117 43.3648 148.033 42.7934 151.576 43.7091C151.646 43.7277 151.707 43.7693 151.747 43.8262C151.787 43.8832 151.804 43.9517 151.795 44.0193L151.282 48.2758C151.277 48.3328 151.251 48.3862 151.209 48.4269C151.166 48.4676 151.111 48.4931 151.051 48.4989C150.991 48.5047 150.931 48.4905 150.881 48.4588C150.831 48.4271 150.794 48.3798 150.777 48.325C150.477 47.4321 150.102 46.6893 149.651 46.0965C147.122 42.767 141.53 45.8846 143.312 49.6833C144.254 51.6886 146.74 53.3155 148.55 54.7154C159.51 63.1982 143.733 70.9545 140.075 66.1191C139.251 65.0294 139.741 62.8463 140.15 61.6545C140.172 61.5972 140.214 61.5492 140.27 61.5192C140.325 61.4893 140.391 61.4793 140.453 61.4913C140.516 61.5032 140.572 61.5362 140.611 61.5842C140.651 61.6322 140.67 61.6921 140.667 61.7529C140.158 68.6881 153.374 65.9186 148.745 59.8233C146.426 56.7737 137.215 50.9735 140.81 46.3386ZM114.156 61.8853C114.169 61.8979 114.185 61.9066 114.203 61.91C114.22 61.9135 114.239 61.9117 114.256 61.9048C114.273 61.8979 114.288 61.8862 114.298 61.8713C114.309 61.8564 114.315 61.8389 114.315 61.821C114.188 56.9175 114.104 51.9837 114.065 47.0197C114.051 45.4709 113.334 44.6638 111.913 44.5982C111.635 44.5831 111.445 44.5339 111.344 44.4506C111.201 44.3296 111.16 44.1694 111.221 43.9701C111.255 43.8516 111.336 43.7986 111.464 43.8112C113.359 43.9878 115.262 44.0181 117.171 43.902C117.592 43.8768 117.981 43.8982 118.336 43.9664C118.402 43.9788 118.461 44.0113 118.506 44.059C118.55 44.1067 118.577 44.167 118.582 44.2305C118.587 44.294 118.57 44.3574 118.533 44.4108C118.497 44.4642 118.443 44.5048 118.38 44.5263L116.725 45.0863C116.652 45.1107 116.588 45.1562 116.543 45.2166C116.499 45.2769 116.475 45.3491 116.475 45.423C116.475 52.6458 116.654 59.846 116.097 67.0461C116.084 67.1898 116.066 67.268 116.045 67.2806C115.944 67.3356 115.829 67.3601 115.716 67.3506C115.604 67.3411 115.5 67.298 115.421 67.2277C109.05 61.57 103.089 55.5428 97.5399 49.146C97.5109 49.1134 97.472 49.09 97.4285 49.0791C97.3849 49.0683 97.339 49.0704 97.2968 49.0853C97.2546 49.1002 97.2183 49.1271 97.1928 49.1623C97.1672 49.1976 97.1538 49.2395 97.1542 49.2823C97.2576 54.3699 97.4021 59.5054 97.5877 64.6889C97.6394 66.0321 99.6398 66.0321 100.606 66.6639C100.644 66.6886 100.673 66.7235 100.69 66.7641C100.707 66.8047 100.711 66.8492 100.701 66.8919C100.691 66.9345 100.668 66.9734 100.635 67.0036C100.602 67.0338 100.56 67.0538 100.515 67.0612C100.385 67.0814 100.238 67.0789 100.073 67.0536C97.6208 66.6753 95.2372 66.6967 92.9226 67.118C92.8532 67.131 92.7813 67.1204 92.7193 67.0882C92.6573 67.056 92.6091 67.0042 92.5831 66.9416C92.5571 66.8791 92.5549 66.8099 92.577 66.7461C92.599 66.6822 92.6439 66.6277 92.7038 66.592C93.881 65.8921 95.1935 65.4532 95.1935 63.8868C95.1961 57.3211 95.2001 50.6897 95.2054 43.9928C95.2056 43.8806 95.2412 43.771 95.3076 43.6782C95.374 43.5855 95.4682 43.5139 95.578 43.4727C95.6877 43.4315 95.808 43.4226 95.9231 43.4472C96.0382 43.4718 96.1429 43.5288 96.2235 43.6107L114.156 61.8853ZM123.689 64.4051C123.737 58.1724 123.749 52.0052 123.725 45.9035C123.725 45.7063 123.661 45.5142 123.542 45.3536C123.423 45.193 123.255 45.0718 123.061 45.0068L121.359 44.4355C121.283 44.4107 121.219 44.3612 121.179 44.2959C121.138 44.2305 121.124 44.1535 121.138 44.0784C121.151 44.0032 121.193 43.9348 121.254 43.8853C121.316 43.8357 121.394 43.8081 121.474 43.8074C125.446 43.8049 129.501 43.8049 133.64 43.8074C133.958 43.8074 134.26 43.6637 134.543 43.5729C134.597 43.5546 134.655 43.55 134.712 43.5596C134.769 43.5693 134.823 43.5928 134.867 43.6278C134.911 43.6629 134.946 43.7083 134.966 43.7597C134.987 43.8111 134.993 43.8666 134.984 43.9209C134.809 45.0182 134.637 46.0877 134.467 47.1294C134.417 47.4371 134.281 47.6667 134.061 47.818C134.025 47.8429 133.982 47.8581 133.937 47.8621C133.892 47.8661 133.847 47.8586 133.806 47.8405C133.765 47.8224 133.73 47.7944 133.704 47.7592C133.679 47.724 133.663 47.6829 133.66 47.6402C133.437 44.6663 129.289 45.4268 127.197 45.3511C127.16 45.3496 127.124 45.3551 127.09 45.3674C127.056 45.3796 127.024 45.3983 126.998 45.4224C126.971 45.4464 126.951 45.4753 126.936 45.5073C126.922 45.5392 126.914 45.5737 126.915 45.6084V53.5615C126.915 53.7305 127.003 53.8175 127.181 53.8225C129.651 53.8679 131.798 54.1403 134.061 53.0469C134.116 53.0201 134.178 53.0082 134.239 53.0123C134.301 53.0165 134.36 53.0366 134.411 53.0706C134.461 53.1045 134.501 53.1509 134.525 53.2047C134.55 53.2586 134.559 53.3178 134.55 53.3761L134.002 57.5569C133.994 57.6127 133.969 57.6651 133.93 57.7075C133.892 57.7499 133.84 57.7803 133.783 57.7949C133.726 57.8095 133.666 57.8076 133.61 57.7895C133.554 57.7714 133.505 57.7378 133.469 57.6931C132.745 56.8115 133.194 55.6765 131.564 55.5667C130.084 55.4659 128.654 55.4167 127.272 55.4192C127.178 55.4192 127.086 55.4551 127.019 55.5189C126.952 55.5828 126.915 55.6694 126.915 55.7597V63.7317C126.914 63.8555 126.966 63.9761 127.058 64.0684C129.38 66.4142 133.874 66.558 135.063 63.0014C135.106 62.8728 135.197 62.8097 135.338 62.8123C135.481 62.8123 135.577 62.864 135.624 62.9674C135.656 63.0305 135.656 63.125 135.624 63.2512C135.356 64.2778 135.196 65.2451 135.143 66.1532C135.129 66.3963 135.017 66.625 134.831 66.7919C134.646 66.9588 134.4 67.0512 134.145 67.0499L121.804 66.9893C121.78 66.9893 121.755 66.9841 121.733 66.974C121.711 66.9639 121.692 66.9493 121.677 66.9311C121.661 66.9129 121.651 66.8917 121.645 66.8691C121.64 66.8464 121.64 66.8228 121.645 66.8001C121.666 66.7119 121.735 66.6564 121.852 66.6337C123.069 66.3915 123.681 65.6487 123.689 64.4051Z" fill="#F0F0F0"/>
<path d="M52.3923 57.7254C52.3882 59.8704 51.4237 66.2014 54.8256 66.4167C55.0071 66.4295 55.1311 66.5218 55.1979 66.6935C55.2143 66.7372 55.2186 66.7843 55.2104 66.8301C55.2023 66.876 55.1819 66.919 55.1512 66.955C55.1206 66.991 55.0808 67.0188 55.0356 67.0356C54.9905 67.0524 54.9416 67.0577 54.8937 67.051C52.2949 66.7076 49.6987 66.7396 47.1052 67.1471C47.037 67.1563 46.9676 67.1422 46.9092 67.107C46.8508 67.0719 46.8072 67.0181 46.7861 66.955C46.765 66.892 46.7678 66.8239 46.794 66.7627C46.8202 66.7014 46.868 66.6511 46.9291 66.6204C48.482 65.8862 49.0183 64.7753 49.0183 63.0571C49.0157 57.7908 49.017 52.5232 49.0223 47.2544C49.0263 45.5823 48.5821 44.5137 46.8811 44.0677C46.7637 44.037 46.6783 43.9934 46.625 43.9371C46.5369 43.8474 46.4969 43.7538 46.5049 43.6564C46.509 43.5817 46.5429 43.5112 46.5995 43.4597C46.6561 43.4082 46.7311 43.3796 46.8091 43.3797C51.6438 43.3605 63.6707 41.7191 62.8502 49.9337C62.6021 52.4246 61.0372 54.2928 59.2722 56.1456C59.1788 56.2404 59.1721 56.3403 59.2522 56.4454C61.7216 59.7128 66.036 66.532 70.6426 66.3514C70.7272 66.3476 70.8102 66.3733 70.8767 66.4236C70.9431 66.4738 70.9885 66.5454 71.0046 66.6252C71.0206 66.705 71.0062 66.7876 70.964 66.858C70.9218 66.9285 70.8546 66.9819 70.7747 67.0087C60.5049 70.5951 61.5054 56.9374 52.6204 57.4948C52.471 57.5025 52.3949 57.5794 52.3923 57.7254ZM59.2121 53.0934C60.3128 49.0572 57.9834 43.2067 52.5924 44.9749C52.4776 45.0134 52.4203 45.0915 52.4203 45.2094V55.2038C52.4203 55.3678 52.5043 55.4639 52.6724 55.4921C55.1258 55.8957 58.4157 55.9956 59.2121 53.0934ZM26.2133 53.1819H39.3368C39.4062 53.1819 39.4409 53.1485 39.4409 53.0819L39.4009 45.4785C39.3982 45.3596 39.3497 45.246 39.2648 45.1594C38.5444 44.4406 37.2997 44.5828 36.8314 44.0101C36.8062 43.9788 36.7908 43.9412 36.7871 43.9018C36.7833 43.8624 36.7914 43.8228 36.8104 43.7877C36.8293 43.7525 36.8583 43.7233 36.8939 43.7035C36.9295 43.6836 36.9703 43.674 37.0115 43.6757C39.5836 43.7987 42.1571 43.8038 44.7319 43.691C44.7746 43.6885 44.8106 43.7013 44.84 43.7295L45.0361 43.9217C45.0754 43.9603 45.1015 44.0096 45.1109 44.0629C45.1203 44.1162 45.1124 44.171 45.0885 44.2199C45.0646 44.2688 45.0256 44.3096 44.9769 44.3366C44.9282 44.3637 44.872 44.3759 44.8159 44.3714C43.5672 44.2676 42.8148 44.7904 42.8108 46.0589C42.8108 51.8275 42.8135 57.5922 42.8188 63.353C42.8228 65.0752 43.3511 66.2399 45.1801 66.5282C45.3669 66.5589 45.5043 66.6307 45.5924 66.7435C45.6144 66.7719 45.6277 66.8056 45.6306 66.8409C45.6336 66.8762 45.6262 66.9117 45.6092 66.9435C45.5922 66.9753 45.5664 67.0022 45.5345 67.0211C45.5025 67.0401 45.4658 67.0504 45.4283 67.051L37.3557 66.9933C37.326 66.9933 37.2975 66.982 37.2765 66.9618C37.2554 66.9416 37.2436 66.9142 37.2436 66.8857V66.6666C37.2436 66.541 37.309 66.468 37.4397 66.4475C39.1127 66.1784 39.4209 65.1367 39.4129 63.5991C39.3995 60.7443 39.4102 57.8895 39.4449 55.0347C39.4476 54.8835 39.3702 54.8079 39.2127 54.8079H26.2093C26.0786 54.8079 26.0132 54.8719 26.0132 55.0001C25.9999 57.6575 25.9972 60.3125 26.0052 62.9648C26.0132 64.9637 26.3894 66.3629 28.6747 66.5128C28.8722 66.5256 28.9843 66.6012 29.0109 66.7396C29.0186 66.7768 29.0178 66.8151 29.0085 66.8519C28.9992 66.8886 28.9817 66.9229 28.9572 66.9523C28.9328 66.9817 28.902 67.0054 28.867 67.0218C28.832 67.0382 28.7937 67.0468 28.7548 67.0471C26.1293 67.0933 23.4785 67.0958 20.8023 67.0548C20.6822 67.0522 20.6142 67.0433 20.5982 67.0279C20.546 66.975 20.5112 66.9084 20.4984 66.8366C20.4855 66.7647 20.4951 66.6908 20.526 66.6242C20.5568 66.5576 20.6075 66.5013 20.6716 66.4623C20.7357 66.4233 20.8104 66.4034 20.8863 66.4052C22.4112 66.4359 22.7074 65.5595 22.7074 64.2487C22.702 58.288 22.702 52.3272 22.7074 46.3665C22.7074 45.0134 22.127 44.2715 20.7222 44.1984C20.4261 44.1831 20.2846 44.0575 20.298 43.8217C20.3005 43.7836 20.3109 43.7464 20.3287 43.7123C20.3465 43.6782 20.3713 43.6478 20.4015 43.6231C20.4318 43.5983 20.4669 43.5797 20.5048 43.5682C20.5427 43.5568 20.5826 43.5528 20.6222 43.5565C23.0475 43.7743 25.4783 43.791 27.9143 43.6065C28.0584 43.5937 28.1438 43.6552 28.1705 43.791L28.2105 43.9947C28.2452 44.1613 28.1731 44.2471 27.9944 44.2523C26.6389 44.3009 25.9639 44.9993 25.9692 46.3472C25.9772 48.5665 25.9946 50.7832 26.0212 52.9973C26.0223 53.0466 26.043 53.0935 26.0789 53.128C26.1148 53.1625 26.1631 53.1818 26.2133 53.1819Z" fill="#F0F0F0"/>
</svg>
