<svg width="139" height="25" viewBox="0 0 139 25" fill="none" xmlns="http://www.w3.org/2000/svg">
<path fill-rule="evenodd" clip-rule="evenodd" d="M1.01594 0.685673C0.79383 1.78588 0.519775 3.31931 0.519775 3.46102C0.519775 3.54421 2.1857 3.61539 5.10762 3.65692L9.69546 3.72223L8.84911 8.35868C7.73293 14.4727 6.66173 20.283 6.25072 22.4526C6.06824 23.4161 5.91885 24.3123 5.91885 24.4443C5.91885 24.6687 6.0867 24.6842 8.51587 24.6842C9.94423 24.6842 11.1129 24.6377 11.1129 24.5808C11.1129 24.524 11.3252 23.3338 11.5847 21.9361C12.1926 18.6621 13.8831 9.46125 14.4035 6.59552C14.6252 5.37437 14.8415 4.21356 14.8842 4.01609L14.9618 3.65692L19.4957 3.65496C21.9894 3.65379 24.0959 3.60977 24.1769 3.55701C24.29 3.48322 24.9181 0.545797 24.9181 0.0902489C24.9181 0.0406192 19.5713 0 13.0362 0H1.15427L1.01594 0.685673ZM128.25 3.22162C128.245 3.50216 127.433 7.59778 127.361 7.70945C127.313 7.78494 126.118 7.83626 124.41 7.83626H121.541L122.459 9.10966C123.893 11.0992 123.694 10.9708 125.337 10.9708C126.387 10.9708 126.749 11.0132 126.749 11.1366C126.749 11.2689 125.526 18.058 124.5 23.6173C124.368 24.3346 124.364 24.5894 124.482 24.6326C124.568 24.6645 125.742 24.6744 127.09 24.6547L129.541 24.6189L129.856 22.9211C130.029 21.9873 130.573 19.0193 131.064 16.3256C131.556 13.6318 131.989 11.3261 132.027 11.2017C132.09 10.9968 132.398 10.9722 135.308 10.9405L138.52 10.9055L133.5 7.05264C130.739 4.93358 128.429 3.18022 128.366 3.15632C128.303 3.13228 128.251 3.16167 128.25 3.22162ZM26.1975 7.63723C21.7091 8.41563 18.3183 11.3404 17.1846 15.4113C16.8295 16.6861 16.8497 18.7574 17.2286 19.9227C17.979 22.2306 19.888 23.8849 22.6628 24.632C23.7313 24.9197 27.6961 25.0349 29.1487 24.8205C31.5089 24.472 34.1651 23.5665 34.2786 23.0719C34.508 22.0706 34.9022 19.6834 34.8468 19.6305C34.81 19.5954 34.4217 19.7667 33.9838 20.0112C32.9547 20.5857 31.3878 21.1972 30.1805 21.4955C28.7255 21.8551 26.1052 21.8355 24.8416 21.4556C23.1088 20.9347 22.1113 19.9741 21.9334 18.6554C21.8818 18.2718 21.8598 17.8258 21.8848 17.6642L21.93 17.3704H28.8628H35.7958L36.0373 16.5042C36.3754 15.2922 36.468 13.6998 36.267 12.5606C35.8115 9.98027 33.9674 8.21554 31.1253 7.64023C29.976 7.40762 27.5303 7.40619 26.1975 7.63723ZM40.3087 7.9337C40.2653 8.20339 40.1343 9.15864 40.0177 10.0565C39.8208 11.5727 39.2348 14.9191 37.7611 22.9435C37.6137 23.7461 37.4932 24.466 37.4932 24.5434C37.4932 24.6392 38.3216 24.6842 40.0794 24.6842H42.6655L42.7445 24.3251C42.7881 24.1275 43.2249 21.7673 43.7155 19.08C44.2164 16.3355 44.7219 13.9466 44.8688 13.6294C45.4834 12.3019 47.3639 11.0725 49.0425 10.9008C50.7505 10.7259 52.2935 11.5113 52.6495 12.7369C52.9591 13.8028 52.889 14.3517 51.5066 21.6803C51.2423 23.0811 51.0258 24.33 51.0256 24.4557C51.025 24.6653 51.2388 24.6842 53.6047 24.6842H56.1843L56.4024 23.5414C57.123 19.7659 58.0281 14.6862 58.127 13.862C58.371 11.832 57.761 9.91784 56.5438 8.89403C55.2471 7.80348 53.743 7.3815 51.506 7.48063C50.6777 7.51733 49.6308 7.64362 49.1798 7.7613C47.9609 8.07906 46.5389 8.77309 45.7243 9.44753L45.0025 10.045L44.3575 9.67949C42.9792 8.89847 40.5641 7.53588 40.4782 7.49082C40.4285 7.4647 40.3522 7.664 40.3087 7.9337ZM70.6394 7.65133C65.3849 8.42686 61.4977 11.3244 60.4474 15.2488C60.0841 16.6058 60.0872 18.614 60.4543 19.7496C61.8341 24.0181 67.0676 25.8922 73.8515 24.547C75.7867 24.1632 76.437 23.931 76.5138 23.5962C76.5495 23.4404 76.7053 22.6076 76.8599 21.7456C77.0145 20.8836 77.1778 20.003 77.2227 19.7885L77.3044 19.3988L76.7439 19.8827C75.1858 21.2277 72.4291 21.9146 70.0195 21.5583C68.7125 21.3651 67.7452 20.9386 66.8995 20.1828C64.2951 17.8549 65.5955 13.4075 69.4052 11.6135C71.3079 10.7175 73.1142 10.5067 74.9803 10.9627C76.2739 11.2789 76.9906 11.6246 77.7634 12.3052C78.0957 12.598 78.3997 12.8068 78.4388 12.7695C78.525 12.687 79.179 9.06382 79.1808 8.65777C79.1819 8.41537 79.0357 8.3259 78.2659 8.09878C76.0466 7.4438 73.1835 7.27584 70.6394 7.65133ZM88.8868 7.7037C86.4083 8.21737 84.5486 9.1286 83.0002 10.5876C80.8906 12.5755 79.8093 15.045 79.8312 17.8246C79.8701 22.7582 84.015 25.4551 90.7618 24.9368C93.5128 24.7255 97.0009 23.7088 97.1593 23.0719C97.3155 22.4442 97.7714 19.9148 97.7714 19.6758C97.7714 19.4406 97.7517 19.4364 97.5322 19.6249C97.1152 19.9826 94.8696 20.9943 93.8759 21.2719C92.3956 21.6856 90.9896 21.8514 89.6978 21.765C86.5631 21.5551 84.7914 20.2406 84.7877 18.1214L84.7863 17.3704H91.7406H98.695L98.9331 16.4888C99.064 16.004 99.2007 15.0489 99.2369 14.3665C99.426 10.7972 97.5235 8.35333 94.0005 7.64023C92.6987 7.37667 90.3219 7.40618 88.8868 7.7037ZM103.182 7.99926C103.142 8.30474 103.011 9.28924 102.891 10.1871C102.693 11.664 101.881 16.3075 100.778 22.2681C100.552 23.4892 100.367 24.5323 100.368 24.5863C100.368 24.6402 101.536 24.6842 102.963 24.6842C105.543 24.6842 105.558 24.6825 105.624 24.3904C105.697 24.0639 106.103 21.8538 106.937 17.2398C107.284 15.319 107.602 13.9506 107.786 13.5829C108.638 11.8766 111.017 10.6544 112.987 10.9099C114.759 11.1398 115.678 12.1516 115.677 13.8725C115.676 14.7651 115.623 15.0963 114.594 20.6734C114.212 22.7414 113.9 24.4899 113.9 24.5589C113.9 24.6346 114.925 24.6842 116.486 24.6842H119.073L119.148 24.3251C119.189 24.1275 119.634 21.762 120.135 19.0682C121.134 13.7055 121.249 12.3927 120.838 11.1014C120.336 9.52733 119.15 8.3626 117.491 7.81524C116.697 7.55298 116.305 7.51015 114.72 7.51263C113.179 7.51498 112.707 7.56539 111.855 7.81876C110.451 8.23591 109.437 8.74841 108.613 9.45654L107.915 10.0559L105.857 8.88868C104.725 8.24676 103.676 7.65904 103.527 7.58263C103.28 7.45621 103.249 7.4933 103.182 7.99926ZM26.5583 10.4972C25.4828 10.7801 24.872 11.131 24.0137 11.9593C23.212 12.7328 22.3581 14.1068 22.5219 14.36C22.5636 14.4243 24.5538 14.4835 26.9491 14.4916C30.7271 14.5044 31.324 14.4796 31.4768 14.3037C31.7317 14.0102 31.5817 12.5892 31.225 11.9214C30.517 10.5952 28.512 9.98327 26.5583 10.4972ZM89.4336 10.5046C88.4447 10.7676 87.659 11.2128 86.8941 11.9436C86.1808 12.6251 85.2522 14.136 85.4033 14.3695C85.4513 14.4437 87.2622 14.4806 89.9529 14.4622L94.4226 14.4318L94.4635 13.6858C94.5221 12.6135 94.2958 11.9672 93.6302 11.3066C92.7191 10.4021 91.0317 10.0798 89.4336 10.5046Z" fill="#F0F0F0"/>
</svg>
