<svg width="40" height="54" viewBox="0 0 40 54" fill="none" xmlns="http://www.w3.org/2000/svg">
<path d="M36.6965 9.11813V4.74046C36.6965 3.73326 35.8793 2.91603 34.8721 2.91603H5.11013C4.62667 2.91444 4.16235 3.10481 3.81915 3.44532C3.47595 3.78583 3.28194 4.24864 3.27972 4.73209V36.7976C3.27968 38.7391 3.82835 40.6411 4.86249 42.2843C5.89663 43.9274 7.37411 45.2448 9.12459 46.0846L18.9971 50.8303C19.6757 51.1577 20.4666 51.1577 21.1453 50.8303L30.8851 46.1121C32.6266 45.2689 34.0954 43.9522 35.1232 42.3129C36.151 40.6736 36.6963 38.7779 36.6965 36.843V30.0722V9.15397V9.11813Z" fill="url(#paint0_linear_1578_1102)"/>
<path fill-rule="evenodd" clip-rule="evenodd" d="M0.858826 4.72672L0.858851 4.72118C0.864001 3.59643 1.31537 2.5197 2.11382 1.72751C2.91115 0.936424 3.98948 0.493667 5.11253 0.496104H34.8713C37.2151 0.496104 39.1158 2.39684 39.1158 4.74062V36.8435C39.1155 39.233 38.4421 41.5741 37.1728 43.5986C35.9036 45.623 34.0899 47.249 31.9394 48.2903C31.9393 48.2904 31.9391 48.2904 31.939 48.2905L22.1995 53.0085L22.196 53.0102C20.854 53.6576 19.2901 53.6581 17.9478 53.0117C17.9477 53.0116 17.9475 53.0115 17.9474 53.0115C17.9465 53.0111 17.9457 53.0106 17.9448 53.0102L8.07698 48.2668C5.91522 47.2297 4.09059 45.6027 2.81347 43.5735C1.53637 41.5443 0.858777 39.1954 0.858826 36.7978C0.858826 36.7978 0.858826 36.7978 0.858826 36.7978V4.72672ZM3.27892 36.7978C3.27887 38.7393 3.82755 40.6413 4.86168 42.2844C5.89582 43.9276 7.37331 45.245 9.12379 46.0848L18.9963 50.8305C19.6749 51.1578 20.4658 51.1578 21.1445 50.8305L30.8843 46.1123C32.6258 45.2691 34.0946 43.9524 35.1224 42.3131C36.1502 40.6737 36.6955 38.7781 36.6957 36.8432V4.74062C36.6957 3.73342 35.8785 2.91619 34.8713 2.91619H5.10932C4.62586 2.91461 4.16154 3.10497 3.81834 3.44549C3.47514 3.786 3.28113 4.24881 3.27892 4.73226V36.7978Z" fill="url(#paint1_linear_1578_1102)"/>
<path d="M19.6695 26.9137L18.0231 28.8636C17.2871 27.9675 16.1999 27.4083 15.2094 27.4083C13.4328 27.4083 12.091 28.8158 12.091 30.6545C12.091 32.5303 13.4328 33.9474 15.2094 33.9474C16.1473 33.9474 17.2405 33.4372 18.0231 32.6367L19.6922 34.3966C18.4939 35.6272 16.722 36.4444 15.072 36.4444C11.6979 36.4444 9.1889 33.9653 9.1889 30.688C9.1889 27.4573 11.7625 25.0283 15.1688 25.0283C16.8571 25.0478 18.4714 25.724 19.6695 26.9137ZM30.6866 30.6247V34.9892C29.487 35.8363 27.5993 36.4444 26.0329 36.4444C22.6278 36.4444 20.0542 33.9808 20.0542 30.7203C20.0542 27.4585 22.6923 25.0283 26.2253 25.0283C27.8884 25.0283 29.6471 25.6675 30.7977 26.6915L29.1991 28.633C28.3826 27.8794 27.3204 27.4477 26.2097 27.4179C24.3698 27.4179 22.9635 28.8564 22.9635 30.7274C22.9635 32.6295 24.3865 34.0692 26.2456 34.0692C26.9385 34.0351 27.6155 33.8495 28.2289 33.5256V30.6247H30.6854H30.6866Z" fill="white"/>
<path d="M9.37648 25.0381C10.8915 23.6043 12.9465 22.8146 15.1592 22.8146C17.1449 22.827 19.0667 23.5184 20.605 24.774C22.1188 23.5076 24.0986 22.8146 26.2325 22.8146C27.8283 22.8238 29.3964 23.2334 30.7929 24.0058L32.5134 14.2385C31.5742 14.9547 30.4972 15.4693 29.3499 15.7502C28.2027 16.0311 27.0098 16.0722 25.8459 15.8709C24.682 15.6696 23.5722 15.2302 22.5859 14.5803C21.5996 13.9304 20.7581 13.0839 20.114 12.0938L19.9909 11.9062L19.9204 12.0186C19.2857 13.0173 18.4514 13.874 17.4699 14.535C16.4884 15.196 15.3809 15.647 14.2168 15.8597C13.0528 16.0724 11.8573 16.0422 10.7055 15.7711C9.55363 15.4999 8.47027 14.9936 7.52338 14.2839L7.46722 14.242L9.18771 25.234C9.24506 25.1671 9.30958 25.1038 9.37648 25.0381Z" fill="#779DB9"/>
<defs>
<linearGradient id="paint0_linear_1578_1102" x1="1674.39" y1="4818.56" x2="1674.39" y2="2.14549" gradientUnits="userSpaceOnUse">
<stop stop-color="#2B2B2B"/>
<stop offset="1" stop-color="#4F4F51"/>
</linearGradient>
<linearGradient id="paint1_linear_1578_1102" x1="19.9873" y1="2.91619" x2="19.9873" y2="51.076" gradientUnits="userSpaceOnUse">
<stop stop-color="#E7D8AC"/>
<stop offset="1" stop-color="#908067"/>
</linearGradient>
</defs>
</svg>
