<svg width="38" height="54" viewBox="0 0 38 54" fill="none" xmlns="http://www.w3.org/2000/svg">
<path fill-rule="evenodd" clip-rule="evenodd" d="M4.00712 2.91602H9.03861H9.08307H13.1756L13.1757 2.91614V2.91602H23.9536V2.93044L23.968 2.91602H28.1494H28.7965H33.2254C34.0382 2.91602 34.6958 3.57356 34.6958 4.38639V37.3728C34.696 39.2355 34.1715 41.0606 33.1824 42.6389C32.1932 44.2173 30.7794 45.4851 29.103 46.297L19.7275 50.8391C19.405 50.9949 19.0515 51.0758 18.6933 51.0758C18.3351 51.0758 17.9816 50.9949 17.6591 50.8391L8.16348 46.2836C6.47866 45.4755 5.0565 44.2078 4.06096 42.6265C3.06543 41.0452 2.53705 39.2147 2.53674 37.3461V4.38639C2.53674 3.99642 2.69166 3.62243 2.96741 3.34668C3.24316 3.07093 3.61715 2.91602 4.00712 2.91602Z" fill="url(#paint0_linear_1578_1107)"/>
<path fill-rule="evenodd" clip-rule="evenodd" d="M13.1749 2.91619H4.00631C3.61634 2.91619 3.24235 3.0711 2.9666 3.34685C2.69085 3.6226 2.53594 3.99659 2.53594 4.38656V37.3463C2.53624 39.2149 3.06462 41.0453 4.06016 42.6266C5.05569 44.208 6.47785 45.4757 8.16267 46.2838L17.6582 50.8393C17.9808 50.9951 18.3343 51.076 18.6925 51.076C19.0507 51.076 19.4042 50.9951 19.7267 50.8393L29.1022 46.2971C30.7786 45.4852 32.1924 44.2175 33.1816 42.6391C34.1707 41.0608 34.6952 39.2357 34.695 37.373V4.38656C34.695 3.57373 34.0374 2.91619 33.2246 2.91619H23.9672L23.9528 2.93061V2.91619H13.1749ZM4.00631 0.496094C2.9745 0.496094 1.98494 0.905981 1.25534 1.63559C0.525732 2.36519 0.115845 3.35475 0.115845 4.38656V37.3467C0.116226 39.6714 0.773583 41.9487 2.01213 43.916C3.25068 45.8833 5.02 47.4606 7.1161 48.4659L16.6056 53.0185C16.6071 53.0192 16.6085 53.0199 16.6099 53.0206C17.2595 53.3335 17.9714 53.4961 18.6925 53.4961C19.4152 53.4961 20.1286 53.3328 20.7793 53.0185L30.1571 48.4752C30.1572 48.4752 30.1573 48.4751 30.1574 48.4751C32.2429 47.465 34.0017 45.8878 35.2322 43.9243C36.4628 41.9607 37.1153 39.6902 37.1151 37.373C37.1151 37.3729 37.1151 37.3728 37.1151 37.3726V4.38656C37.1151 2.23715 35.374 0.496094 33.2246 0.496094H4.00631Z" fill="url(#paint1_linear_1578_1107)"/>
<path d="M13.1744 2.91602H23.9523V9.13479H13.1744V2.91602Z" fill="#4D4D4F"/>
<path d="M23.967 2.91699L18.5708 8.31201L13.1745 2.91699H9.0376V12.5497H28.7955V2.91699H23.967Z" fill="#779DB9"/>
<path d="M28.1494 2.91602L18.6163 12.448L9.08307 2.91602H4.00712C3.61715 2.91602 3.24316 3.07093 2.96741 3.34668C2.69166 3.62243 2.53674 3.99642 2.53674 4.38639V37.3461C2.53705 39.2147 3.06543 41.0452 4.06096 42.6265C5.0565 44.2078 6.47866 45.4755 8.16348 46.2836L17.6591 50.8391C17.9816 50.9949 18.3351 51.0758 18.6933 51.0758C19.0515 51.0758 19.405 50.9949 19.7275 50.8391L29.103 46.297C30.7794 45.4851 32.1932 44.2173 33.1824 42.6389C34.1715 41.0606 34.696 39.2355 34.6958 37.3728V4.38639C34.6958 3.57356 34.0382 2.91602 33.2254 2.91602H28.1494Z" fill="url(#paint2_linear_1578_1107)"/>
<path d="M18.6149 27.498H19.8282V28.7114H18.6149V27.498Z" fill="url(#paint3_linear_1578_1107)"/>
<path d="M26.1651 35.0477L18.6155 31.8983L11.0659 35.0477L14.2141 27.4981L11.0659 19.9473L18.6155 23.0967L26.1651 19.9473L23.0169 27.4981L26.1651 35.0477Z" fill="white"/>
<path d="M29.2935 27.4995L21.7281 30.6113L18.6163 38.1755L15.5045 30.6113L7.93909 27.4995L15.5045 24.3877L18.6163 16.8223L21.7281 24.3877L29.2935 27.4995Z" fill="white"/>
<path d="M18.6148 12.8037L20.4954 14.6843L18.6148 16.565L16.7341 14.6843L18.6148 12.8037Z" fill="#779DB9"/>
<defs>
<linearGradient id="paint0_linear_1578_1107" x1="1610.75" y1="4818.56" x2="1610.75" y2="2.14549" gradientUnits="userSpaceOnUse">
<stop stop-color="#2B2B2B"/>
<stop offset="1" stop-color="#4F4F51"/>
</linearGradient>
<linearGradient id="paint1_linear_1578_1107" x1="18.6154" y1="2.91619" x2="18.6154" y2="51.076" gradientUnits="userSpaceOnUse">
<stop stop-color="#E7D8AC"/>
<stop offset="1" stop-color="#908067"/>
</linearGradient>
<linearGradient id="paint2_linear_1578_1107" x1="1610.75" y1="4818.56" x2="1610.75" y2="2.14549" gradientUnits="userSpaceOnUse">
<stop stop-color="#2B2B2B"/>
<stop offset="1" stop-color="#4F4F51"/>
</linearGradient>
<linearGradient id="paint3_linear_1578_1107" x1="18.6149" y1="134.269" x2="18.6149" y2="-80.4862" gradientUnits="userSpaceOnUse">
<stop stop-color="#A60086"/>
<stop offset="0.16" stop-color="#930086"/>
<stop offset="0.73" stop-color="#520088"/>
<stop offset="1" stop-color="#390088"/>
</linearGradient>
</defs>
</svg>
