<svg width="174" height="36" viewBox="0 0 174 36" fill="none" xmlns="http://www.w3.org/2000/svg">
<path d="M14.8743 7.66526V34.8455H22.9729V7.66526H37.8472V1.14672H0V7.66526H14.8743ZM57.9528 35.3867C71.1332 35.3867 78.0947 28.8682 78.0947 18.0667V17.9255C78.0947 7.12401 71.1332 0.605469 57.9528 0.605469C44.7492 0.605469 37.7877 7.12401 37.7877 17.9255V18.0667C37.7877 28.8682 44.7492 35.3867 57.9528 35.3867ZM57.9528 28.9152C49.0885 28.9152 46.1415 24.2558 46.1415 18.0667V17.9255C46.1415 11.7364 49.0885 7.07695 57.9528 7.07695C66.7939 7.07695 69.7641 11.7364 69.7641 17.9255V18.0667C69.7641 24.2558 66.7939 28.9152 57.9528 28.9152ZM103.304 1.14672H81.3056V34.8455H89.4273V22.1849H103.234C111.286 22.1849 117.18 19.761 117.18 11.6187V11.5717C117.18 3.49998 111.31 1.14672 103.304 1.14672ZM108.85 11.7364C108.85 15.1722 106.599 16.0194 102.933 16.0194H89.4273V7.45347H102.933C106.599 7.45347 108.85 8.25358 108.85 11.6893V11.7364ZM126.413 34.8455H134.233V1.14672H128.247V2.20569C128.2 5.50026 126.39 6.95928 121.656 6.95928H118.895V12.5365H126.437L126.413 34.8455ZM156.224 35.3867C167.595 35.3867 173.906 29.5742 173.906 18.2314V17.7608C173.906 6.41803 167.595 0.605469 156.224 0.605469C144.831 0.605469 138.519 6.41803 138.519 17.7608V18.2314C138.519 29.5742 144.831 35.3867 156.224 35.3867ZM156.224 29.2212C148.984 29.2212 146.524 25.0088 146.524 18.2079V17.7843C146.524 10.9834 148.984 6.77102 156.224 6.77102C163.441 6.77102 165.901 10.9834 165.901 17.7843V18.2079C165.901 25.0088 163.441 29.2212 156.224 29.2212Z" fill="url(#paint0_linear_1578_1082)"/>
<defs>
<linearGradient id="paint0_linear_1578_1082" x1="87.51" y1="-6.04067" x2="87.51" y2="47.0681" gradientUnits="userSpaceOnUse">
<stop stop-color="#FDEEBD"/>
<stop offset="1" stop-color="#6D5C4B"/>
</linearGradient>
</defs>
</svg>
