<svg width="24" height="24" viewBox="0 0 24 24" fill="none" xmlns="http://www.w3.org/2000/svg">
<rect x="0.766602" y="0.604004" width="22.6415" height="22.6415" rx="11.3208" fill="#F0F0F0"/>
<path d="M6.60961 4.85609L6.65977 4.81836C7.70624 6.07617 10.6875 9.49257 12.402 9.49257C13.7263 9.49257 14.489 7.49203 14.5927 7.20299L14.6532 7.22402C14.6532 7.22402 13.702 9.877 14.5959 10.576C15.4751 11.2633 19.1745 10.103 19.4912 10.003L19.5092 10.0631C19.5092 10.0631 15.258 11.3525 14.9879 12.5815C14.7947 13.4599 15.9019 14.7003 16.1975 15.0185L16.153 15.0612C16.153 15.0612 14.8664 13.6226 13.9089 14.0248C12.485 14.623 11.6708 18.8067 11.5723 19.3958L11.5095 19.3841C11.5095 19.3841 12.4028 14.6696 10.1653 13.6122C8.90842 13.0178 5.80611 13.7763 5.31394 13.899L5.2959 13.8375C5.2959 13.8375 9.63504 12.7527 9.63504 10.3681C9.63504 8.43799 6.60961 4.85609 6.60961 4.85609Z" fill="#0F0F0F"/>
</svg>
