<svg width="20" height="20" viewBox="0 0 20 20" fill="none" xmlns="http://www.w3.org/2000/svg">
<path d="M20 10C20 4.47715 15.5228 0 10 0C4.47715 0 0 4.47715 0 10C0 15.5228 4.47715 20 10 20C15.5228 20 20 15.5228 20 10Z" fill="#0052FF"/>
<path d="M10.0005 13.5161C8.05812 13.5161 6.48486 11.9429 6.48486 10.0005C6.48486 8.05811 8.05812 6.48486 10.0005 6.48486C11.7407 6.48486 13.1851 7.75342 13.4634 9.41455H17.0054C16.7066 5.80518 13.686 2.96924 10.0005 2.96924C6.11865 2.96924 2.96924 6.11865 2.96924 10.0005C2.96924 13.8823 6.11865 17.0317 10.0005 17.0317C13.686 17.0317 16.7066 14.1958 17.0054 10.5864H13.4605C13.1821 12.2476 11.7407 13.5161 10.0005 13.5161Z" fill="white"/>
</svg>
