<svg width="44" height="44" viewBox="0 0 44 44" fill="none" xmlns="http://www.w3.org/2000/svg">
<g filter="url(#filter0_b_2458_2380)">
<rect width="44" height="44" rx="22" fill="#F0F0F0" fill-opacity="0.1"/>
<path fill-rule="evenodd" clip-rule="evenodd" d="M12 14.4706C12 13.7767 12.4135 13.1495 13.0513 12.8762L16.8623 11.2429C17.4346 10.9977 18.0712 11.4175 18.0712 12.0401V31.9597C18.0712 32.5824 17.4346 33.0022 16.8623 32.757L13.0513 31.1237C12.4135 30.8503 12 30.2232 12 29.5293V14.4706ZM22.4078 22.0035C22.4078 22.2335 22.4992 22.4541 22.6619 22.6168C22.8245 22.7794 23.0451 22.8708 23.2751 22.8708H30.0468L28.052 24.857C27.9707 24.9376 27.9062 25.0335 27.8621 25.1392C27.818 25.2449 27.7954 25.3583 27.7954 25.4728C27.7954 25.5873 27.818 25.7006 27.8621 25.8063C27.9062 25.912 27.9707 26.0079 28.052 26.0886C28.1326 26.1698 28.2285 26.2344 28.3342 26.2784C28.4399 26.3224 28.5533 26.3451 28.6677 26.3451C28.7822 26.3451 28.8956 26.3224 29.0013 26.2784C29.107 26.2344 29.2029 26.1698 29.2835 26.0886L32.7528 22.6193C32.8317 22.5368 32.8937 22.4395 32.935 22.3331C33.0217 22.1219 33.0217 21.885 32.935 21.6739C32.8937 21.5674 32.8317 21.4702 32.7528 21.3877L29.2835 17.9184C29.2027 17.8376 29.1067 17.7734 29.0011 17.7296C28.8953 17.6859 28.7821 17.6634 28.6677 17.6634C28.5533 17.6634 28.4402 17.6859 28.3344 17.7296C28.2288 17.7734 28.1328 17.8376 28.052 17.9184C27.9711 17.9993 27.9069 18.0953 27.8631 18.2009C27.8194 18.3066 27.7969 18.4199 27.7969 18.5342C27.7969 18.6486 27.8194 18.7618 27.8631 18.8675C27.9069 18.9731 27.9711 19.0691 28.052 19.15L30.0468 21.1362H23.2751C23.0451 21.1362 22.8245 21.2275 22.6619 21.3902C22.4992 21.5529 22.4078 21.7735 22.4078 22.0035ZM25.0098 16.796C25.0098 16.317 24.6215 15.9287 24.1424 15.9287H20.6732C20.1942 15.9287 19.8059 15.5404 19.8059 15.0614C19.8059 14.5824 20.1942 14.1941 20.6732 14.1941H25.0098C25.9678 14.1941 26.7444 14.9707 26.7444 15.9287V18.2009C26.7444 18.68 26.3561 19.0683 25.8771 19.0683C25.3981 19.0683 25.0098 18.68 25.0098 18.2009V16.796ZM25.8771 24.9389C26.3561 24.9389 26.7444 25.3272 26.7444 25.8063V28.0712C26.7444 29.0291 25.9678 29.8058 25.0098 29.8058H20.6732C20.1942 29.8058 19.8059 29.4175 19.8059 28.9385C19.8059 28.4595 20.1942 28.0712 20.6732 28.0712H24.1424C24.6215 28.0712 25.0098 27.6829 25.0098 27.2039V25.8063C25.0098 25.3272 25.3981 24.9389 25.8771 24.9389Z" fill="#F0F0F0"/>
</g>
<defs>
<filter id="filter0_b_2458_2380" x="-18.8812" y="-18.8812" width="81.7625" height="81.7625" filterUnits="userSpaceOnUse" color-interpolation-filters="sRGB">
<feFlood flood-opacity="0" result="BackgroundImageFix"/>
<feGaussianBlur in="BackgroundImageFix" stdDeviation="9.44062"/>
<feComposite in2="SourceAlpha" operator="in" result="effect1_backgroundBlur_2458_2380"/>
<feBlend mode="normal" in="SourceGraphic" in2="effect1_backgroundBlur_2458_2380" result="shape"/>
</filter>
</defs>
</svg>
