<svg width="37" height="28" viewBox="0 0 37 28" fill="none" xmlns="http://www.w3.org/2000/svg">
<path fill-rule="evenodd" clip-rule="evenodd" d="M10.7548 24.8601V26.3272V27.7944H10.1126V27.4381C9.90886 27.7023 9.59975 27.8682 9.17959 27.8682C8.3513 27.8682 7.70196 27.2238 7.70196 26.3272C7.70196 25.4314 8.3513 24.7863 9.17959 24.7863C9.59975 24.7863 9.90886 24.9522 10.1126 25.2163V24.8601H10.7548ZM9.2595 25.3879C8.70353 25.3879 8.3633 25.8116 8.3633 26.3273C8.3633 26.8431 8.70353 27.2668 9.2595 27.2668C9.79071 27.2668 10.1493 26.8614 10.1493 26.3273C10.1493 25.7933 9.79071 25.3879 9.2595 25.3879ZM32.4588 26.3273C32.4588 25.8116 32.7991 25.3879 33.355 25.3879C33.8869 25.3879 34.2449 25.7933 34.2449 26.3273C34.2449 26.8614 33.8869 27.2668 33.355 27.2668C32.7991 27.2668 32.4588 26.8431 32.4588 26.3273ZM34.851 23.6818V26.3272V27.7944H34.2081V27.4381C34.0044 27.7023 33.6953 27.8682 33.2751 27.8682C32.4468 27.8682 31.7975 27.2238 31.7975 26.3272C31.7975 25.4314 32.4468 24.7863 33.2751 24.7863C33.6953 24.7863 34.0044 24.9522 34.2081 25.2163V23.6818H34.851ZM18.7273 25.3576C19.1411 25.3576 19.407 25.6155 19.4749 26.0694H17.9421C18.0107 25.6457 18.2696 25.3576 18.7273 25.3576ZM17.2687 26.3272C17.2687 25.4124 17.8742 24.7863 18.74 24.7863C19.5676 24.7863 20.1363 25.4124 20.1426 26.3272C20.1426 26.413 20.1363 26.4931 20.1299 26.5725H17.9364C18.0291 27.1009 18.4061 27.2913 18.8199 27.2913C19.1163 27.2913 19.4318 27.1803 19.6793 26.9842L19.9941 27.4571C19.6355 27.7578 19.228 27.8682 18.7831 27.8682C17.899 27.8682 17.2687 27.2604 17.2687 26.3272ZM26.4953 26.3273C26.4953 25.8116 26.8355 25.3879 27.3914 25.3879C27.9227 25.3879 28.2813 25.7933 28.2813 26.3273C28.2813 26.8614 27.9227 27.2668 27.3914 27.2668C26.8355 27.2668 26.4953 26.8431 26.4953 26.3273ZM28.8868 24.8601V26.3272V27.7944H28.2445V27.4381C28.0401 27.7023 27.7317 27.8682 27.3115 27.8682C26.4832 27.8682 25.8339 27.2238 25.8339 26.3272C25.8339 25.4314 26.4832 24.7863 27.3115 24.7863C27.7317 24.7863 28.0401 24.9522 28.2445 25.2163V24.8601H28.8868ZM22.868 26.3272C22.868 27.2175 23.4918 27.8682 24.4439 27.8682C24.8888 27.8682 25.1852 27.7698 25.5063 27.5182L25.1979 27.0025C24.9567 27.1746 24.7035 27.2667 24.4248 27.2667C23.912 27.2604 23.535 26.8922 23.535 26.3272C23.535 25.7623 23.912 25.3941 24.4248 25.3878C24.7035 25.3878 24.9567 25.4798 25.1979 25.652L25.5063 25.1362C25.1852 24.8847 24.8888 24.7863 24.4439 24.7863C23.4918 24.7863 22.868 25.437 22.868 26.3272ZM30.3699 25.2163C30.5369 24.9584 30.7781 24.7863 31.1487 24.7863C31.2789 24.7863 31.4642 24.8109 31.6064 24.8664L31.4083 25.4679C31.2725 25.4124 31.1367 25.3941 31.0065 25.3941C30.5864 25.3941 30.3763 25.6639 30.3763 26.1494V27.7944H29.7333V24.8601H30.3699V25.2163ZM13.9314 25.0934C13.6223 24.891 13.1965 24.7863 12.7268 24.7863C11.9785 24.7863 11.4968 25.1426 11.4968 25.7258C11.4968 26.2043 11.8554 26.4994 12.5161 26.5914L12.8195 26.6343C13.1718 26.6835 13.338 26.7755 13.338 26.9414C13.338 27.1683 13.1031 27.2976 12.6646 27.2976C12.2197 27.2976 11.8985 27.1564 11.6821 26.9906L11.3794 27.4873C11.7316 27.7452 12.1765 27.8682 12.6582 27.8682C13.5113 27.8682 14.0057 27.4691 14.0057 26.9104C14.0057 26.3947 13.6167 26.1249 12.9737 26.0328L12.671 25.9893C12.393 25.9527 12.1702 25.8979 12.1702 25.7012C12.1702 25.4862 12.3802 25.3576 12.7325 25.3576C13.1095 25.3576 13.4745 25.4988 13.6535 25.6091L13.9314 25.0934ZM21.4406 25.2163C21.6068 24.9584 21.848 24.7863 22.2187 24.7863C22.3488 24.7863 22.5341 24.8109 22.6763 24.8664L22.4783 25.4679C22.3425 25.4124 22.2066 25.3941 22.0765 25.3941C21.6563 25.3941 21.4463 25.6639 21.4463 26.1494V27.7944H20.804V24.8601H21.4406V25.2163ZM16.7374 24.8601H15.687V23.9698H15.0377V24.8601H14.4385V25.4433H15.0377V26.7819C15.0377 27.4627 15.3036 27.8682 16.0633 27.8682C16.342 27.8682 16.6631 27.7824 16.8668 27.6412L16.6815 27.0945C16.4898 27.2049 16.2797 27.2604 16.1128 27.2604C15.7917 27.2604 15.687 27.0636 15.687 26.7692V25.4433H16.7374V24.8601ZM7.13392 25.9527V27.7944H6.48458V26.1614C6.48458 25.6639 6.2745 25.3878 5.83595 25.3878C5.40943 25.3878 5.11305 25.6583 5.11305 26.1677V27.7944H4.46372V26.1614C4.46372 25.6639 4.24798 25.3878 3.82146 25.3878C3.3822 25.3878 3.09785 25.6583 3.09785 26.1677V27.7944H2.44922L2.44922 24.8601H3.09219V25.2219C3.33339 24.8783 3.64179 24.7863 3.95726 24.7863C4.40855 24.7863 4.72968 24.983 4.93339 25.3084C5.20572 24.8966 5.59475 24.78 5.97176 24.7863C6.689 24.7926 7.13392 25.2592 7.13392 25.9527Z" fill="white"/>
<path d="M23.4531 19.8736H13.7188V2.49561H23.4531V19.8736Z" fill="#FF5F00"/>
<path d="M14.3366 11.1848C14.3366 7.65956 15.9981 4.5194 18.5856 2.49575C16.6934 1.01596 14.3055 0.132727 11.7102 0.132727C5.56631 0.132727 0.585937 5.08082 0.585937 11.1848C0.585937 17.2887 5.56631 22.2368 11.7102 22.2368C14.3055 22.2368 16.6934 21.3536 18.5856 19.8738C15.9981 17.8501 14.3366 14.71 14.3366 11.1848Z" fill="#EB001B"/>
<path d="M36.5863 11.1848C36.5863 17.2887 31.6059 22.2368 25.462 22.2368C22.8667 22.2368 20.4788 21.3536 18.5859 19.8738C21.1741 17.8501 22.8356 14.71 22.8356 11.1848C22.8356 7.65956 21.1741 4.5194 18.5859 2.49575C20.4788 1.01596 22.8667 0.132727 25.462 0.132727C31.6059 0.132727 36.5863 5.08082 36.5863 11.1848Z" fill="#F79E1B"/>
</svg>
