<svg width="24" height="24" viewBox="0 0 24 24" fill="none" xmlns="http://www.w3.org/2000/svg">
<path d="M23.0669 14.5315C21.5549 20.5962 15.4123 24.2871 9.34682 22.7747C3.2839 21.2628 -0.406991 15.1198 1.10564 9.05553C2.61695 2.99012 8.75955 -0.701045 14.8231 0.810924C20.8882 2.32289 24.5788 8.46655 23.0667 14.5316L23.0668 14.5315H23.0669Z" fill="#50AF95"/>
<path fill-rule="evenodd" clip-rule="evenodd" d="M13.5199 13.0765C13.4399 13.0825 13.0263 13.1072 12.1037 13.1072C11.37 13.1072 10.849 13.0852 10.6662 13.0765C7.83051 12.9518 5.7139 12.4582 5.7139 11.8672C5.7139 11.2761 7.83051 10.7832 10.6662 10.6564V12.5849C10.8516 12.5983 11.3826 12.6296 12.1164 12.6296C12.9969 12.6296 13.4379 12.5929 13.5172 12.5856V10.6578C16.3469 10.7838 18.4589 11.2775 18.4589 11.8672C18.4589 12.4568 16.3476 12.9505 13.5172 13.0759L13.5199 13.0765ZM13.5201 10.4584V8.73265H17.4691V6.10107H6.71731V8.73265H10.6657V10.4577C7.45642 10.6051 5.04297 11.2408 5.04297 12.0026C5.04297 12.7644 7.45642 13.3994 10.6657 13.5475V19.0775H13.5194V13.5455C16.7213 13.3981 19.1307 12.7631 19.1307 12.0019C19.1307 11.2408 16.7233 10.6058 13.5194 10.4577L13.5201 10.4584Z" fill="#F0F0F0"/>
</svg>
