<svg width="31" height="29" viewBox="0 0 31 29" fill="none" xmlns="http://www.w3.org/2000/svg">
<path d="M23.6383 14.9029C22.0356 21.3315 15.5244 25.2438 9.09503 23.6407C2.66833 22.0381 -1.24401 15.5265 0.359382 9.09837C1.96137 2.66903 8.47253 -1.24361 14.8999 0.359081C21.3289 1.96177 25.241 8.47405 23.6381 14.903L23.6382 14.9029H23.6383Z" fill="#50AF95"/>
<path fill-rule="evenodd" clip-rule="evenodd" d="M13.5189 13.3604C13.4341 13.3667 12.9957 13.3929 12.0178 13.3929C11.24 13.3929 10.6877 13.3695 10.494 13.3604C7.48813 13.2281 5.24454 12.7049 5.24454 12.0784C5.24454 11.4519 7.48813 10.9294 10.494 10.795V12.8392C10.6905 12.8534 11.2534 12.8866 12.0312 12.8866C12.9646 12.8866 13.4319 12.8477 13.5161 12.8399V10.7964C16.5156 10.9301 18.7542 11.4533 18.7542 12.0784C18.7542 12.7035 16.5163 13.2267 13.5161 13.3596L13.5189 13.3604ZM13.5189 10.585V8.75578H17.7049V5.96631H6.308V8.75578H10.4933V10.5843C7.09146 10.7406 4.5332 11.4144 4.5332 12.2219C4.5332 13.0294 7.09146 13.7026 10.4933 13.8596V19.7213H13.5182V13.8574C16.9122 13.7012 19.4662 13.028 19.4662 12.2212C19.4662 11.4144 16.9144 10.7413 13.5182 10.5843L13.5189 10.585Z" fill="white"/>
<path d="M30.7606 22.9375C29.6921 27.2242 25.3508 29.833 21.064 28.7641C16.7791 27.6954 14.1706 23.3533 15.2396 19.0669C16.3077 14.7798 20.649 12.1707 24.9344 13.2394C29.2208 14.3081 31.8292 18.6506 30.7605 22.9376L30.7606 22.9375H30.7606Z" fill="#F3BA2F"/>
<path d="M24.0524 24.7499V25.9757L22.984 26.6043L21.9469 25.9757V24.7499L22.984 25.3785L24.0524 24.7499ZM18.333 20.507L19.37 21.1356V23.2414L21.1613 24.3099V25.5357L18.333 23.8699V20.507ZM27.6349 20.507V23.8699L24.7752 25.5357V24.3099L26.5665 23.2414V21.1356L27.6349 20.507ZM24.7752 18.8413L25.8437 19.4699V20.6956L24.0524 21.7642V23.9014L23.0154 24.5299L21.9783 23.9014V21.7642L20.1243 20.6956V19.4699L21.1927 18.8413L22.984 19.9099L24.7752 18.8413ZM20.1243 21.5756L21.1613 22.2042V23.4299L20.1243 22.8014V21.5756ZM25.8437 21.5756V22.8014L24.8066 23.4299V22.2042L25.8437 21.5756ZM19.37 17.7727L20.4385 18.4013L19.37 19.0299V20.2556L18.333 19.627V18.4013L19.37 17.7727ZM26.5979 17.7727L27.6663 18.4013V19.627L26.5979 20.2556V19.0299L25.5608 18.4013L26.5979 17.7727ZM22.984 17.7727L24.0524 18.4013L22.984 19.0299L21.9469 18.4013L22.984 17.7727ZM22.984 15.667L25.8437 17.3327L24.8066 17.9613L23.0154 16.8927L21.1927 17.9613L20.1557 17.3327L22.984 15.667Z" fill="white"/>
</svg>
