<svg width="47" height="16" viewBox="0 0 47 16" fill="none" xmlns="http://www.w3.org/2000/svg">
<path fill-rule="evenodd" clip-rule="evenodd" d="M11.7114 15.5187H7.68715L4.66942 3.66728C4.52619 3.12212 4.22206 2.64016 3.7747 2.41301C2.65826 1.84217 1.42802 1.38786 0.0859375 1.15874V0.702458H6.56874C7.46347 0.702458 8.13451 1.38786 8.24635 2.18388L9.81211 10.7327L13.8344 0.702458H17.7469L11.7114 15.5187ZM19.9837 15.5187H16.1831L19.3126 0.702458H23.1132L19.9837 15.5187ZM28.0303 4.80709C28.1422 4.00909 28.8132 3.55282 29.5961 3.55282C30.8263 3.43825 32.1665 3.66738 33.2849 4.23625L33.9559 1.04625C32.8375 0.589967 31.6073 0.36084 30.4908 0.36084C26.802 0.36084 24.1179 2.41311 24.1179 5.26139C24.1179 7.42822 26.0192 8.56595 27.3612 9.25136C28.8132 9.93479 29.3724 10.3911 29.2606 11.0745C29.2606 12.0996 28.1422 12.5559 27.0257 12.5559C25.6836 12.5559 24.3416 12.2142 23.1133 11.6434L22.4422 14.8353C23.7843 15.4042 25.2363 15.6333 26.5784 15.6333C30.7145 15.7459 33.2849 13.6956 33.2849 10.6182C33.2849 6.74282 28.0303 6.51566 28.0303 4.80709ZM46.586 15.5187L43.5683 0.702458H40.3269C39.6558 0.702458 38.9848 1.15874 38.7611 1.84217L33.173 15.5187H37.0855L37.8664 13.3538H42.6735L43.1209 15.5187H46.586ZM40.886 4.69272L42.0025 10.2767H38.8729L40.886 4.69272Z" fill="white"/>
</svg>
