<svg width="24" height="24" viewBox="0 0 24 24" fill="none" xmlns="http://www.w3.org/2000/svg">
<circle cx="12" cy="12" r="12" fill="#3B99FC"/>
<path fill-rule="evenodd" clip-rule="evenodd" d="M16.7246 8.95395C14.1153 6.34885 9.88491 6.34885 7.27565 8.95395L6.93098 9.29807C6.80051 9.42833 6.80051 9.63951 6.93098 9.76977L8.0052 10.8423C8.07044 10.9074 8.1762 10.9074 8.24143 10.8423L8.70422 10.3802C10.5245 8.56285 13.4758 8.56285 15.296 10.3802L15.7282 10.8117C15.7934 10.8768 15.8992 10.8768 15.9644 10.8117L17.0386 9.73917C17.1691 9.60892 17.1691 9.39773 17.0386 9.26748L16.7246 8.95395ZM19.9023 12.1265L18.9462 11.172C18.8157 11.0417 18.6042 11.0417 18.4738 11.172L15.4141 14.2267C15.3815 14.2593 15.3286 14.2593 15.296 14.2267L12.2363 11.1719L12.2363 11.1719C12.1058 11.0417 11.8943 11.0417 11.7638 11.1719L8.7043 14.2267C8.67168 14.2593 8.6188 14.2593 8.58619 14.2267L5.52648 11.1719C5.39602 11.0417 5.1845 11.0417 5.05404 11.1719L4.09797 12.1265C3.96751 12.2567 3.96751 12.4679 4.09797 12.5982L8.40905 16.9024C8.53952 17.0326 8.75104 17.0326 8.8815 16.9024L11.9411 13.8476C11.9737 13.815 12.0266 13.815 12.0592 13.8476L15.1189 16.9024C15.2493 17.0326 15.4609 17.0326 15.5913 16.9024L19.9023 12.5982C20.0327 12.468 20.0327 12.2568 19.9023 12.1265Z" fill="white"/>
</svg>
