<svg xmlns="http://www.w3.org/2000/svg" width="39" height="40" fill="none"><mask id="a" fill="#fff"><path d="M1.546 34.709c4.037 1.848 8.416 1.542 11.132-1.174 2.185-2.185 2.809-5.446 2.007-8.74a12.03 12.03 0 0 0 2.018-.429c1.122 4.093.419 8.194-2.29 10.903-3.232 3.232-8.445 3.614-13.26 1.444l.393-2.004Zm.728-3.703c2.601 1.254 5.453 1.09 7.209-.667 1.405-1.405 1.786-3.51 1.242-5.629 1.042.166 2.073.221 3.075.165.705 2.992.13 5.948-1.852 7.93-2.492 2.492-6.526 2.767-10.235 1.057l.56-2.856Zm.71-3.605c1.198.68 2.572.659 3.395-.165.824-.824.847-2.198.164-3.398l.598-.123c.875.348 1.758.62 2.638.816.546 1.903.233 3.818-1.027 5.078-1.533 1.534-4.04 1.667-6.311.552l.542-2.76Zm2.865-3.103c.385.795.337 1.67-.2 2.208-.537.537-1.413.585-2.208.2l2.408-2.408Zm1.223-4.162c4.036 1.848 8.416 1.542 11.132-1.174 2.729-2.73 3.025-7.137 1.148-11.188l1.996-.408c2.205 4.835 1.837 10.082-1.41 13.33-3.232 3.231-8.444 3.613-13.26 1.444l.394-2.004Zm.727-3.703c2.6 1.253 5.453 1.089 7.209-.667 1.762-1.763 1.92-4.629.652-7.237l2.846-.582c1.735 3.722 1.47 7.78-1.034 10.283-2.492 2.492-6.525 2.768-10.234 1.058l.561-2.855Zm.71-3.605c1.199.68 2.572.658 3.396-.165.824-.824.847-2.198.163-3.4l2.75-.562c1.127 2.278.999 4.796-.54 6.335-1.534 1.534-4.04 1.667-6.312.552l.543-2.76Zm2.866-3.104c.384.796.337 1.671-.2 2.208-.537.538-1.414.585-2.21.201l2.41-2.409Zm15.102-2.632c.824-.824.847-2.198.164-3.398l2.75-.563c1.127 2.277 1 4.796-.54 6.335-1.262 1.263-3.183 1.571-5.09 1.02a17.376 17.376 0 0 0-.805-2.59l.125-.64c1.2.683 2.573.66 3.396-.164Zm-.53-2.938c.386.796.337 1.67-.2 2.208-.537.537-1.412.586-2.209.2l2.41-2.408Zm7.133-1.777c1.733 3.721 1.47 7.78-1.034 10.284-1.98 1.98-4.935 2.56-7.926 1.856a14.471 14.471 0 0 0-.176-3.08c2.12.547 4.231.166 5.638-1.24 1.762-1.763 1.919-4.63.652-7.238l2.846-.582Zm2.84-.582c2.205 4.835 1.837 10.083-1.41 13.33-2.706 2.706-6.802 3.413-10.89 2.297.197-.652.338-1.33.424-2.023 3.29.8 6.548.176 8.732-2.008 2.729-2.729 3.026-7.135 1.148-11.188l1.997-.408ZM18.543 26.952c2.488 1.048 5.138.817 6.804-.848 1.676-1.676 1.898-4.35.826-6.85 1.045.105 2.072.096 3.066-.025 1.28 3.449.867 7.047-1.427 9.34-2.283 2.284-5.862 2.7-9.297 1.44.124-.99.131-2.016.029-3.058Zm2.97-4.682c-.381.383-.935.511-1.51.418a10.002 10.002 0 0 0 1.93-1.93c.093.575-.037 1.13-.42 1.512Zm-3.156 3.386.427-2.171a7.89 7.89 0 0 0 .322-.186c1.134.54 2.373.466 3.138-.298.764-.765.837-2.004.298-3.138.066-.107.128-.217.189-.327l2.226-.456c.079.014.16.03.239.043 1.082 2.254.941 4.73-.58 6.25-1.508 1.51-3.958 1.66-6.202.602a10.467 10.467 0 0 0-.057-.32Zm11.92 5.378c-3.054 3.053-7.875 3.56-12.461 1.776.243-.622.429-1.271.56-1.94 3.755 1.387 7.666.93 10.167-1.57 2.51-2.51 2.96-6.44 1.555-10.209.667-.13 1.316-.316 1.937-.558 1.802 4.598 1.304 9.438-1.758 12.5ZM.117 37.617l.003-.002c5.52 2.786 11.645 2.492 15.388-1.25a10.176 10.176 0 0 0 1.774-2.393c5.16 2.125 10.638 1.608 14.089-1.843 3.46-3.46 3.97-8.955 1.826-14.127a10.163 10.163 0 0 0 2.408-1.782c3.748-3.747 4.038-9.884 1.24-15.41l.003-.002h-.004l-.002-.003-.014.007L25.76 2.88l-3.496 3.495v.003l-.011.003L11.187 8.45 7.69 11.945 5.645 23.029a.518.518 0 0 0-.004.011l.002.001v.003l-3.475 3.475L.12 37.603a.025.025 0 0 0-.005.01l.002.001v.003Z"/></mask><path fill="#fff" fill-opacity=".1" stroke="#fff" stroke-opacity=".1" stroke-width=".273" d="M1.546 34.709c4.037 1.848 8.416 1.542 11.132-1.174 2.185-2.185 2.809-5.446 2.007-8.74a12.03 12.03 0 0 0 2.018-.429c1.122 4.093.419 8.194-2.29 10.903-3.232 3.232-8.445 3.614-13.26 1.444l.393-2.004Zm.728-3.703c2.601 1.254 5.453 1.09 7.209-.667 1.405-1.405 1.786-3.51 1.242-5.629 1.042.166 2.073.221 3.075.165.705 2.992.13 5.948-1.852 7.93-2.492 2.492-6.526 2.767-10.235 1.057l.56-2.856Zm.71-3.605c1.198.68 2.572.659 3.395-.165.824-.824.847-2.198.164-3.398l.598-.123c.875.348 1.758.62 2.638.816.546 1.903.233 3.818-1.027 5.078-1.533 1.534-4.04 1.667-6.311.552l.542-2.76Zm2.865-3.103c.385.795.337 1.67-.2 2.208-.537.537-1.413.585-2.208.2l2.408-2.408Zm1.223-4.162c4.036 1.848 8.416 1.542 11.132-1.174 2.729-2.73 3.025-7.137 1.148-11.188l1.996-.408c2.205 4.835 1.837 10.082-1.41 13.33-3.232 3.231-8.444 3.613-13.26 1.444l.394-2.004Zm.727-3.703c2.6 1.253 5.453 1.089 7.209-.667 1.762-1.763 1.92-4.629.652-7.237l2.846-.582c1.735 3.722 1.47 7.78-1.034 10.283-2.492 2.492-6.525 2.768-10.234 1.058l.561-2.855Zm.71-3.605c1.199.68 2.572.658 3.396-.165.824-.824.847-2.198.163-3.4l2.75-.562c1.127 2.278.999 4.796-.54 6.335-1.534 1.534-4.04 1.667-6.312.552l.543-2.76Zm2.866-3.104c.384.796.337 1.671-.2 2.208-.537.538-1.414.585-2.21.201l2.41-2.409Zm15.102-2.632c.824-.824.847-2.198.164-3.398l2.75-.563c1.127 2.277 1 4.796-.54 6.335-1.262 1.263-3.183 1.571-5.09 1.02a17.376 17.376 0 0 0-.805-2.59l.125-.64c1.2.683 2.573.66 3.396-.164Zm-.53-2.938c.386.796.337 1.67-.2 2.208-.537.537-1.412.586-2.209.2l2.41-2.408Zm7.133-1.777c1.733 3.721 1.47 7.78-1.034 10.284-1.98 1.98-4.935 2.56-7.926 1.856a14.471 14.471 0 0 0-.176-3.08c2.12.547 4.231.166 5.638-1.24 1.762-1.763 1.919-4.63.652-7.238l2.846-.582Zm2.84-.582c2.205 4.835 1.837 10.083-1.41 13.33-2.706 2.706-6.802 3.413-10.89 2.297.197-.652.338-1.33.424-2.023 3.29.8 6.548.176 8.732-2.008 2.729-2.729 3.026-7.135 1.148-11.188l1.997-.408ZM18.543 26.952c2.488 1.048 5.138.817 6.804-.848 1.676-1.676 1.898-4.35.826-6.85 1.045.105 2.072.096 3.066-.025 1.28 3.449.867 7.047-1.427 9.34-2.283 2.284-5.862 2.7-9.297 1.44.124-.99.131-2.016.029-3.058Zm2.97-4.682c-.381.383-.935.511-1.51.418a10.002 10.002 0 0 0 1.93-1.93c.093.575-.037 1.13-.42 1.512Zm-3.156 3.386.427-2.171a7.89 7.89 0 0 0 .322-.186c1.134.54 2.373.466 3.138-.298.764-.765.837-2.004.298-3.138.066-.107.128-.217.189-.327l2.226-.456c.079.014.16.03.239.043 1.082 2.254.941 4.73-.58 6.25-1.508 1.51-3.958 1.66-6.202.602a10.467 10.467 0 0 0-.057-.32Zm11.92 5.378c-3.054 3.053-7.875 3.56-12.461 1.776.243-.622.429-1.271.56-1.94 3.755 1.387 7.666.93 10.167-1.57 2.51-2.51 2.96-6.44 1.555-10.209.667-.13 1.316-.316 1.937-.558 1.802 4.598 1.304 9.438-1.758 12.5ZM.117 37.617l.003-.002c5.52 2.786 11.645 2.492 15.388-1.25a10.176 10.176 0 0 0 1.774-2.393c5.16 2.125 10.638 1.608 14.089-1.843 3.46-3.46 3.97-8.955 1.826-14.127a10.163 10.163 0 0 0 2.408-1.782c3.748-3.747 4.038-9.884 1.24-15.41l.003-.002h-.004l-.002-.003-.014.007L25.76 2.88l-3.496 3.495v.003l-.011.003L11.187 8.45 7.69 11.945 5.645 23.029a.518.518 0 0 0-.004.011l.002.001v.003l-3.475 3.475L.12 37.603a.025.025 0 0 0-.005.01l.002.001v.003Z" mask="url(#a)"/></svg>