<svg xmlns="http://www.w3.org/2000/svg" width="18" height="50" fill="none"><path fill="#fff" fill-opacity=".2" fill-rule="evenodd" d="M12.755 2.94c2.021.635 4.338 2.236 4.959 4.38.561 1.938.156 15.039-.033 16.417-.103.748-.916 1.831-2.124 2.828-.576.475-1.599 1.219-2.869 1.728.052.379.161 1.326-.023 1.476-.059.048-.553.08-1.26.098.035.437.078 1.183-.028 1.315-.066.082-.967.117-1.973.119v4.557a.414.414 0 0 1-.01.085h.463c.237 0 .429.188.429.42 0 .233-.192.421-.429.421H9.36c.033.339.108.874.123.883.204.131.547.432.686 1.199.044.244.083 1.553.13 3.188.092 3.09.217 7.34.48 7.764.123.198-.24.22-.578.126l-.014.004c-.087.022-.536.137-.548-.067a53.486 53.486 0 0 1-.053-1.766c-.02-1.003-.045-2.155-.109-3.046-.12-.075-.104.722-.036 3.838l.021.974c.005.232-.87.076-.876-.154l-.004-.207-.004-.183a3.573 3.573 0 0 1-.12.4c-.063.17-.908.158-.827-.06.33-.888.296-2.822.25-4.193-.03-.916-.056-6.26.02-6.782.082-.576.33-.845.5-.983.119-.328.162-.694.18-.935h-.563a.425.425 0 0 1-.429-.42c0-.233.192-.421.429-.421h.539a.415.415 0 0 1-.01-.085v-4.563c-1.007-.015-1.915-.058-1.99-.113-.124-.09-.07-.887-.03-1.334-.698-.02-1.187-.048-1.254-.08-.219-.103-.074-1.157-.019-1.515a11.24 11.24 0 0 1-2.738-1.656C1.303 25.607.484 24.53.377 23.782.18 22.404-.293 9.305.258 7.364c.61-2.147 2.918-3.76 4.936-4.405l.044-.013c-.062-.424-.167-1.319.034-1.414.067-.031.556-.06 1.253-.08-.04-.447-.093-1.244.03-1.333.173-.125 4.671-.189 4.822 0 .105.132.063.878.029 1.315.706.018 1.2.05 1.26.098.17.14.088.972.033 1.39l.056.019Zm.403 24.2c1.98-1.028 3.558-2.72 3.667-3.516.197-1.433.547-14.383.058-16.073-.395-1.363-1.808-2.72-3.57-3.494 1.182.916 1.996 2.094 2.224 3.307.36 1.924.088 15.256-.009 16.358-.078.893-1.021 2.298-2.37 3.418ZM1.09 7.59c-.48 1.693-.062 14.641.142 16.073.114.795 1.7 2.479 3.686 3.497-1.355-1.113-2.305-2.514-2.388-3.405-.103-1.103-.446-14.432-.095-16.359.222-1.214 1.03-2.396 2.206-3.318-1.757.782-3.164 2.148-3.551 3.512Zm10.805 16.122c-.045 1.02-.538 2.85-1.412 4.036 2.204-.814 4.099-3.124 4.185-4.099.126-1.436.338-14.433.02-16.132-.316-1.681-1.958-3.06-3.534-3.746h-.416c.596.87.992 2.118 1.142 3.638.188 1.915.063 15.205.015 16.303Zm-4.68-19.93h-.416c-1.572.693-3.207 2.081-3.514 3.763-.31 1.702-.029 14.697.105 16.133.09.974 1.998 3.274 4.206 4.078-.88-1.184-1.383-3.01-1.433-4.029-.054-1.1-.249-14.388-.07-16.305.14-1.519.53-2.768 1.122-3.64Zm3.817 19.894c.065-1.476.163-14.405-.012-16.187-.167-1.695-.67-3.026-1.392-3.714l-1.303.003c-.719.691-1.215 2.024-1.373 3.723-.165 1.781 0 14.71.074 16.185.056 1.141.82 3.546 1.913 4.196h.202c1.089-.656 1.84-3.065 1.89-4.206Z" clip-rule="evenodd"/></svg>