<svg xmlns="http://www.w3.org/2000/svg" width="132" height="86" fill="none">
<path fill="#FEB405" d="m71.867 47.952 2.402-2.34c.782.739 1.646 1.557 2.377 2.251-.75.733-1.558 1.525-2.429 2.38a427.65 427.65 0 0 1-2.35-2.291Zm-1.731 6.301-.21.204c-.7-.69-1.497-1.473-2.357-2.314.294-.29 2.08-2.028 2.328-2.272.883.868 1.674 1.637 2.358 2.298l-2.12 2.084Zm-.216 4.066c4.356 3.928 1.171 6.479-2.346 2.294.711-.69 1.501-1.465 2.346-2.294Zm-4.32-4.257c.863.849 1.662 1.63 2.364 2.324l-2.355 2.305a991.035 991.035 0 0 1-2.352-2.338c.697-.683 1.487-1.456 2.343-2.29Zm-5.184 5.112c.161-.168.457-.467.882-.888l2.333 2.318c-2.41 3.126-6.679 2.99-3.215-1.43Zm.885-9.32 2.334 2.282c-.848.828-1.633 1.598-2.326 2.278-.757-.756-1.586-1.584-2.316-2.31.676-.651 1.45-1.408 2.308-2.25ZM56.9 45.556l2.433 2.377c-.847.832-1.614 1.578-2.29 2.232-.873-.868-1.683-1.673-2.433-2.416.708-.677 1.483-1.423 2.29-2.193Zm-6.217 6.24c.743-.911 1.161-1.408 1.946-2.14.806.798 1.62 1.607 2.42 2.402-1.469 1.841-5.272 3.323-4.366-.263Zm-7.83-12.455c-.703.486-.745 6.804-.232 8.158-2.076 1.874-5.043 4.323-8.048 6.009-.521-5.088-.323-15.075.278-20.403 2.52 1.443 5.385 3.675 8.003 6.236Zm7.718.39c-.71.734-1.35 1.395-1.935 1.993-2.004-2.814-7.773-8.619-13.388-11.505.812-4.648 1.801-4.901 2.041-4.911 3.924 1.404 9.231 12.07 13.282 14.424Zm2.084-2.169c-5.868-4.707-2.322-8.29 2.393-2.514-.79.835-1.595 1.68-2.393 2.514Zm.059 3.905 2.218 2.166-2.28 2.183c-.795-.782-1.5-1.472-2.135-2.09.658-.671 1.395-1.427 2.197-2.259Zm-7.663.855c.406.371.893.825 1.456 1.36-.356.385-.828.882-1.417 1.47-.055-.88-.075-1.94-.04-2.83Zm12.975-4.286 1.343 1.347-2.45 2.347-2.3-2.248c.733-.766 1.521-1.591 2.372-2.485l1.035 1.039Zm2.916-5.207c.779.769 1.652 1.62 2.606 2.544-.723.697-1.457 1.4-2.193 2.107-.611-.615-1.863-1.87-2.47-2.478.649-.684 1.37-1.447 2.057-2.173Zm4.586.634a384.282 384.282 0 0 1-2.695-2.633c.86-.904 1.873-1.972 2.78-2.919.835.839 1.772 1.785 2.764 2.788-.838.818-1.777 1.729-2.849 2.764Zm8.713 8.333c-.805-.763-1.638-1.555-2.483-2.36.748-.75 1.895-1.9 2.65-2.66.881.888 1.697 1.703 2.451 2.46l-2.618 2.56Zm-12.93-.464c.765.766 1.546 1.549 2.332 2.334-.796.793-1.585 1.575-2.351 2.334l-2.404-2.347 2.423-2.32Zm1.986-1.903c.75-.72 1.496-1.436 2.23-2.143.757.727 1.527 1.463 2.297 2.2-.728.732-1.478 1.482-2.234 2.238-.777-.776-1.546-1.548-2.293-2.295Zm4.428 8.721-2.121 2.068-2.344-2.295c.758-.75 1.54-1.525 2.33-2.314.797.792 1.584 1.578 2.348 2.334l-.213.207Zm3.785-12.36c-.441.441-1.304 1.305-1.744 1.75-.758-.724-1.514-1.45-2.258-2.164a637.478 637.478 0 0 0 2.804-2.725c.754.763 1.472 1.486 2.156 2.176l-.959.963Zm.762 7.929-2.363 2.3a803.737 803.737 0 0 1-2.372-2.353c.767-.765 1.531-1.531 2.279-2.28.835.795 1.66 1.577 2.456 2.333Zm8.164-8.037c-.243.256-.774.789-1.618 1.624a627.708 627.708 0 0 1-2.47-2.475c1.69-1.598 2.297-2.64 3.994-2.84 1.67.187 1.534 2.113.094 3.691Zm.713 7.807c-.724.693-1.559 1.502-2.533 2.452-.676-.641-1.584-1.499-2.377-2.252.921-.9 1.788-1.748 2.569-2.514.877.87 1.648 1.633 2.341 2.314Zm4.102.112c.273-.493.888-1.065 1.293-1.414.096.832.11 1.887.034 2.686-.353-.329-.92-.822-1.327-1.272Zm12.365 10.104c-3.252-1.755-6.508-4.464-8.799-6.568.655-1.972 1.092-4.072-.163-7.474 1.555-1.548 4.95-4.704 8.675-6.752.64 5.39.847 15.66.287 20.794Zm-2.759-28.397c.245.01 1.234.25 2.06 4.74-5.935 2.922-10.977 8.382-13.776 11.544a367.01 367.01 0 0 1-1.862-1.837c4.14-2.334 9.573-13.053 13.578-14.447Zm-25.999-.664c4.066-3.678 6.36.542 1.482 4.129a1746.582 1746.582 0 0 0-2.812-2.837c.673-.684 1.12-1.118 1.33-1.292Zm-5.19 1.318c-.737.77-1.62 1.7-2.783 2.926-5.585-4.49-1.78-8.468 2.783-2.926ZM32.011 54.733c-6.89 2.465-8.607-2.222-8.744-11.603.207-9.408 2.27-13.787 9.049-11.259-.753 5.644-.981 17.504-.306 22.862Zm5.484 6.81c-.669-.045-1.722-.551-2.55-5.127 5.693-2.995 9.392-6.729 13.634-10.739.628.611 1.318 1.285 2.092 2.045-4.045 3.773-8.904 13.023-13.176 13.822Zm42.778-7.846c-1.332 1.026-2.834-.483-4.059-1.564.8-.783 1.616-1.585 2.426-2.373 1.62 1.479 2.69 2.485 1.633 3.938Zm14.374 7.847c-3.964-.48-10.182-10.96-13.694-14.04.816-.791 1.532-1.485 2.174-2.1 2.206 2.193 7.733 8.04 14.1 11.173-.847 4.438-1.902 4.92-2.58 4.967Zm5.953-19.088c-.1-4.405-.33-7.922-.701-10.733 6.559-2.189 8.441 2.213 8.668 11.407-.163 9.167-1.696 13.861-8.354 11.741.378-3.205.504-7.274.387-12.415Zm3.767-13.901c-1.659-.313-3.151-.102-4.916.45-2.682-13.267-10.409-2.817-15.19 3.823-1.056-5.371-6.774-3.994-9.85.052l-2.136-2.156c8.565-6.525.056-15.055-6.691-6.735-6.931-8.451-15.113.28-6.592 6.896-.263.28-1.756 1.857-2.05 2.166-3.059-3.76-7.856-5.72-9.911-1.084C42.282 25 35.175 16.458 32.748 29.13c-8.413-2.728-12.14 2.807-12.248 13.983.017 11.147 3.363 16.994 11.92 14.371 2.54 12.652 10.44 5.043 15.897-2.675 2.095 3.385 6.285 1.83 8.681-.812l2.352 2.347c-7.307 6.456.532 13.184 6.246 6.183 5.646 6.975 13.525.332 6.285-6.134.632-.621 1.73-1.703 2.37-2.33 2.483 2.856 7.264 4.121 8.9.144 5.489 7.583 13.88 16.41 16.639 3.396 14.376 6.048 15.047-27.678 4.577-29.048Z"/>
</svg>