<svg xmlns="http://www.w3.org/2000/svg" width="25" height="36" fill="none"><path fill="#fff" fill-opacity=".2" fill-rule="evenodd" d="M13.61 1.948c.166-.2.263-.443.263-.706C13.873.556 13.207 0 12.386 0c-.82 0-1.486.556-1.486 1.242 0 .26.094.5.256.698-1.462.004-2.704.027-2.896.081-.192.053-.688.192-.506 2.248-2.581.463-4.241 1.5-5.264 2.44C.962 8.117.055 10.043.003 11.996c-.054 2.002.687 3.854 2.085 5.215 1.53 1.49 3.782 2.404 6.72 2.732-.149 2.09.216 2.225.414 2.3.03.01.087.02.164.03v2.546c0 .21.172.38.383.38.212 0 .383-.17.383-.38v-2.503c.175.005.367.009.572.011v2.491c0 .212.171.382.383.382.211 0 .383-.17.383-.382v-2.485a86.415 86.415 0 0 0 .57 0v4.951c0 .026.004.052.009.077h-.482a.383.383 0 1 0 0 .765h.504a3.327 3.327 0 0 1-.162.85c-.15.125-.373.37-.447.893-.067.474-.044 1.193-.017 2.026v.001c.04 1.246.071 3.004-.224 3.81-.072.2.683.21.74.055a3.2 3.2 0 0 0 .107-.362l.007.354c.005.209.787.351.784.14l-.02-.891c-.06-2.828-.076-3.552.034-3.483.056.81.078 1.86.096 2.772.013.647.025 1.225.047 1.602.011.185.412.081.49.06a.18.18 0 0 1 .013-.002c.302.085.627.065.518-.116-.24-.392-.353-2.571-.434-4.165-.041-.792-.074-1.439-.112-1.652-.125-.697-.43-.97-.614-1.09-.013-.008-.08-.494-.11-.802h.446a.383.383 0 0 0 0-.765h-.414a.38.38 0 0 0 .008-.077v-4.956l.57-.007v2.497c0 .212.172.382.384.382.212 0 .383-.17.383-.382v-2.51l.572-.014v2.524c0 .212.17.382.383.382.211 0 .382-.17.382-.382V22.25c.244-.057.525-.2.433-2.281 3.064-.303 5.403-1.226 6.978-2.76 1.398-1.36 2.138-3.212 2.085-5.214-.053-1.953-.96-3.88-2.488-5.285-1.056-.972-2.791-2.046-5.518-2.485.111-2.103-.31-2.174-.54-2.212-.157-.026-1.382-.052-2.84-.065Zm1.56 18.082a25.395 25.395 0 0 1-2.67.028c-.364.012-.722.021-1.07.021-.645 0-1.265-.022-1.86-.066-.04.628-.031 1.256.02 1.517.827.06 4.618.034 5.55-.01.044-.29.051-.918.03-1.49Zm1.01-17.273c.052.24.071.79.048 1.365a18.69 18.69 0 0 0-3.064-.068c-.124.007-1.203.007-1.328 0a18.431 18.431 0 0 0-3.32.1c-.046-.6-.032-1.183.035-1.404.914-.073 6.572-.044 7.628.007Zm6.196 13.905c-1.42 1.383-3.545 2.227-6.34 2.527 3.65-1.474 4.98-4.544 4.915-7.193-.069-2.777-1.872-5.799-5.232-7.15 2.618.214 4.758 1.034 6.27 2.426 1.378 1.267 2.196 2.997 2.242 4.743.028 1.035-.176 3.013-1.855 4.647ZM.768 12.016c.047-1.747.864-3.477 2.242-4.744 1.512-1.39 3.653-2.212 6.27-2.427C5.92 6.198 4.119 9.22 4.05 11.996c-.066 2.649 1.264 5.72 4.914 7.193-2.795-.3-4.92-1.144-6.34-2.527C.945 15.028.741 13.05.768 12.016Zm12.243-6.844c1.065.875 1.845 3.646 1.872 6.837.028 3.255-.702 6.671-2.383 7.216-1.682-.545-2.411-3.96-2.383-7.216.026-3.198.81-5.973 1.878-6.842.121-.098.893-.096 1.016.005Zm2.638 6.83c-.021-2.536-.554-5.412-1.66-6.89 3.98.865 6.125 4.03 6.196 6.903.072 2.871-1.555 6.016-6.147 6.987 1.192-1.503 1.634-4.358 1.611-7Zm-4.638-6.89c-1.106 1.478-1.64 4.354-1.66 6.89-.023 2.642.419 5.496 1.611 7-4.592-.97-6.219-4.116-6.148-6.986.072-2.873 2.217-6.039 6.197-6.903Z" clip-rule="evenodd"/></svg>