<svg width="30" height="29" viewBox="0 0 30 29" fill="none" xmlns="http://www.w3.org/2000/svg">
<path d="M28.6065 17.9621C26.7068 25.582 18.9891 30.2193 11.3683 28.3191C3.75068 26.4195 -0.886641 18.7013 1.01387 11.082C2.91271 3.46123 10.6304 -1.17645 18.2489 0.723229C25.8691 2.6229 30.5062 10.342 28.6063 17.9622L28.6064 17.9621H28.6065Z" fill="#F3BA2F"/>
<path fill-rule="evenodd" clip-rule="evenodd" d="M14.8125 9.32489L11.1294 13.008L11.1295 13.0079L8.9865 10.8648L14.8125 5.03882L20.6404 10.8666L18.4974 13.0096L14.8125 9.32489ZM7.4727 12.3779L5.32959 14.5213L7.47255 16.664L9.61566 14.5209L7.4727 12.3779ZM11.1286 16.0347L14.8117 19.7176L18.4965 16.033L20.6407 18.1749L20.6397 18.176L14.8117 24.0037L8.98571 18.1777L8.98268 18.1746L11.1286 16.0347ZM22.1521 12.3791L20.009 14.5222L22.152 16.6652L24.295 14.5221L22.1521 12.3791Z" fill="white"/>
<path d="M16.9845 14.5202H16.9854L14.811 12.3456L13.2037 13.9524V13.9524L13.0191 14.1371L12.6383 14.518L12.6353 14.5209L12.6383 14.524L14.811 16.697L16.9856 14.5224L16.9866 14.5212L16.9847 14.5202" fill="white"/>
</svg>
