<svg width="24" height="24" viewBox="0 0 24 24" fill="none" xmlns="http://www.w3.org/2000/svg">
<path fill-rule="evenodd" clip-rule="evenodd" d="M2 4.47057C2 3.77667 2.41353 3.14953 3.05133 2.87619L6.86225 1.24294C7.43457 0.997658 8.07122 1.41747 8.07122 2.04012V21.9597C8.07122 22.5824 7.43457 23.0022 6.86225 22.757L3.05133 21.1237C2.41353 20.8503 2 20.2232 2 19.5293V4.47057ZM12.4078 12.0035C12.4078 12.2335 12.4992 12.4541 12.6619 12.6168C12.8245 12.7794 13.0451 12.8708 13.2751 12.8708H20.0468L18.052 14.857C17.9707 14.9376 17.9062 15.0335 17.8621 15.1392C17.818 15.2449 17.7954 15.3583 17.7954 15.4728C17.7954 15.5873 17.818 15.7006 17.8621 15.8063C17.9062 15.912 17.9707 16.0079 18.052 16.0886C18.1326 16.1698 18.2285 16.2344 18.3342 16.2784C18.4399 16.3224 18.5533 16.3451 18.6677 16.3451C18.7822 16.3451 18.8956 16.3224 19.0013 16.2784C19.107 16.2344 19.2029 16.1698 19.2835 16.0886L22.7528 12.6193C22.8317 12.5368 22.8937 12.4395 22.935 12.3331C23.0217 12.1219 23.0217 11.885 22.935 11.6739C22.8937 11.5674 22.8317 11.4702 22.7528 11.3877L19.2835 7.91842C19.2027 7.83755 19.1067 7.77341 19.0011 7.72964C18.8953 7.68588 18.7821 7.66335 18.6677 7.66335C18.5533 7.66335 18.4402 7.68588 18.3344 7.72964C18.2288 7.77341 18.1328 7.83755 18.052 7.91842C17.9711 7.99929 17.9069 8.09529 17.8631 8.20095C17.8194 8.30661 17.7969 8.41985 17.7969 8.53422C17.7969 8.64858 17.8194 8.76182 17.8631 8.86748C17.9069 8.97314 17.9711 9.06914 18.052 9.15001L20.0468 11.1362H13.2751C13.0451 11.1362 12.8245 11.2275 12.6619 11.3902C12.4992 11.5529 12.4078 11.7735 12.4078 12.0035ZM15.0098 6.79603C15.0098 6.31702 14.6215 5.92872 14.1424 5.92872H10.6732C10.1942 5.92872 9.80586 5.5404 9.80586 5.0614C9.80586 4.58239 10.1942 4.19408 10.6732 4.19408H15.0098C15.9678 4.19408 16.7444 4.9707 16.7444 5.92872V8.20095C16.7444 8.67995 16.3561 9.06827 15.8771 9.06827C15.3981 9.06827 15.0098 8.67995 15.0098 8.20095V6.79603ZM15.8771 14.9389C16.3561 14.9389 16.7444 15.3272 16.7444 15.8063V18.0712C16.7444 19.0291 15.9678 19.8058 15.0098 19.8058H10.6732C10.1942 19.8058 9.80586 19.4175 9.80586 18.9385C9.80586 18.4595 10.1942 18.0712 10.6732 18.0712H14.1424C14.6215 18.0712 15.0098 17.6829 15.0098 17.2039V15.8063C15.0098 15.3272 15.3981 14.9389 15.8771 14.9389Z" fill="#F0F0F0"/>
</svg>
