<svg width="194" height="684" viewBox="0 0 194 684" fill="none" xmlns="http://www.w3.org/2000/svg">
<path d="M59.3405 345.873C52.3393 356.085 48.7896 370.052 48.7896 387.379C48.7896 409.64 56.7418 428.134 71.831 441.08L54.1204 441.08L52.5355 441.08L52.5355 442.626L52.5355 478.758L52.5355 480.308L54.1204 480.308L196.185 480.308L197.77 480.308L197.77 478.758L197.77 442.626L197.77 441.08L196.185 441.08L119.793 441.08C88.6711 441.08 80.3618 414.9 80.3618 399.428C80.3618 369.596 98.1227 366.151 111.484 366.151L196.187 366.151L197.772 366.151L197.772 364.604L197.772 328.472L197.772 326.925L196.187 326.925L99.6899 326.925C81.5366 326.935 67.9669 333.309 59.3405 345.873ZM168.905 210.057L169.42 235.204C169.42 245.706 162.588 246.748 145.808 246.748L82.5202 246.748L82.5202 210.584L82.5202 209.034L80.9353 209.034L54.133 209.034L52.5481 209.034L52.5481 210.584L52.5481 246.748L10.1735 246.748L7.42886 246.748L8.8125 249.068L30.2589 285.2L30.7143 285.973L31.6224 285.973L52.5531 285.973L52.5531 313.226L52.5531 314.773L54.138 314.773L80.9404 314.773L82.5253 314.773L82.5253 313.226L82.5253 285.973L156.532 285.973C183.398 285.973 201 282.569 201 237.041C201 225.571 200.104 218.216 198.836 209.076L198.645 207.736L197.262 207.736L170.462 207.736L168.824 207.736L168.877 209.335L168.91 210.057L168.905 210.057ZM52.5405 185.249L52.5405 186.796L54.1254 186.796L196.19 186.796L197.775 186.796L197.775 185.249L197.775 149.117L197.775 147.568L196.19 147.568L54.1254 147.568L52.5405 147.568L52.5405 149.117L52.5405 185.249ZM0.00249199 185.249L0.00249206 186.796L1.58739 186.796L31.6098 186.796L33.1947 186.796L33.1947 185.249L33.1947 149.117L33.1947 147.568L31.6098 147.568L1.58738 147.568L0.00249035 147.568L0.00249041 149.117L0.00249199 185.249ZM195.156 -45.1849L123.008 16.498L55.1694 -40.9979L52.5405 -43.2243L52.5405 -39.8304L52.5405 6.77167L52.5405 7.51306L53.1317 7.97857L97.695 43.1524L53.1418 77.5627L52.5405 78.0258L52.5405 78.7795L52.5405 125.382L52.5405 128.756L55.1594 126.559L123.008 69.5581L195.156 130.992L197.775 133.231L197.775 129.827L197.775 83.2253L197.775 82.4937L197.194 82.0282L148.331 43.1819L197.174 5.36779L197.775 4.90478L197.775 4.15105L197.775 -44.02L197.775 -47.4336L195.156 -45.1849ZM0.00250668 521.277L0.0025079 549.086L0.00250865 566.354L0.00250868 567.066L0.560993 567.529L195.164 729.392L197.772 731.566L197.772 728.214L197.772 683.139L197.772 682.427L197.214 681.962L150.59 643.19L150.59 550.633L196.177 550.633L197.762 550.633L197.762 549.086L197.762 512.954L197.762 511.405L196.177 511.405L1.58488 511.405L-9.62355e-06 511.405L-9.55584e-06 512.954L-9.19205e-06 521.277L0.00250668 521.277ZM117.146 615.36L39.328 550.633L117.146 550.633L117.146 615.36Z" fill="white"/>
</svg>
