<svg width="1920" height="528" viewBox="0 0 1920 528" fill="none" xmlns="http://www.w3.org/2000/svg">
<path fill-rule="evenodd" clip-rule="evenodd" d="M0 518.99V427.755L354.624 1.9668L355.84 0.50293H357.708H403.04H476.044L497.892 0.496094H501.958V4.65137V514.809V518.964H497.892H403.04H398.979V514.809V395.294H156.003L54.2197 517.526L52.9976 518.99H51.1294H0ZM1920 461.789V518.997H1833.58H1831.6L1830.39 517.421L1731.12 389.372L1629.14 517.474L1627.92 518.997H1626H1503.66H1494.73L1500.6 512.131L1661.88 322.982L1512.24 145.106L1506.47 138.24H1515.33H1637.67H1639.65L1640.86 139.816L1731.2 256.62L1823.53 139.79L1824.76 138.24H1826.7H1920V182.962L1801.17 322.982L1920 461.789ZM827.547 128.406C873.033 128.406 909.7 137.713 936.507 156.067C969.489 178.683 986.222 214.259 986.248 261.851V514.835V518.99H982.188H887.335H883.275V514.835V292.769C883.275 257.741 874.229 211.179 795.917 211.179C755.299 211.179 686.574 232.963 686.574 314.554V514.829V518.983H682.514H587.662H583.595V514.829V142.382V138.227H587.662H682.514H686.574V142.382V188.813C720.558 149.255 769.109 128.406 827.547 128.406ZM1227.03 444.66L1293.05 443.322L1294.94 443.236L1299.14 443.098V447.392V517.651V521.279L1295.62 521.78C1271.63 525.104 1252.32 527.452 1222.21 527.452C1102.69 527.452 1093.75 481.305 1093.75 410.873V216.851H1022.21H1018.15V212.695V142.429V138.273H1022.21H1093.75V83.3994V81.0185L1095.78 79.8252L1190.64 23.5996L1196.73 19.9726V27.1679V138.26H1291.66H1295.73V142.415V212.682V216.837H1291.66H1196.73V382.757C1196.73 426.748 1199.46 444.66 1227.03 444.66ZM1354.11 138.24H1358.17H1453.02H1457.09V142.395V514.842V518.997H1453.02H1358.17H1354.11V514.842V142.395V138.24ZM1354.11 0.50293H1358.17H1453.02H1457.09V4.6582V83.3672V87.5215H1453.02H1358.17H1354.11V83.3672V4.6582V0.50293ZM398.979 103.602L229.06 307.615H398.979V103.602Z" fill="#F0F0F0"/>
</svg>
