<svg width="20" height="21" viewBox="0 0 20 21" fill="none" xmlns="http://www.w3.org/2000/svg">
<rect y="0.5" width="20" height="20" rx="10" fill="#F0F0F0" fill-opacity="0.4"/>
<path d="M9.18461 12.7571C9.15167 12.7571 9.12496 12.7304 9.12496 12.6974C9.13158 12.0644 9.19787 11.5606 9.32382 11.186C9.44977 10.8115 9.62874 10.5083 9.86075 10.2762C10.0928 10.0442 10.3712 9.83046 10.696 9.63491C10.8915 9.51559 11.0672 9.37473 11.223 9.21233C11.3787 9.04661 11.5014 8.85603 11.5909 8.64059C11.6837 8.42516 11.7301 8.18652 11.7301 7.92468C11.7301 7.59987 11.6538 7.31815 11.5014 7.07951C11.3489 6.84088 11.1451 6.65693 10.8899 6.52767C10.6347 6.3984 10.3513 6.33377 10.0397 6.33377C9.76795 6.33377 9.50611 6.39012 9.25422 6.50281C9.00232 6.6155 8.79186 6.79282 8.62282 7.03477C8.54696 7.14335 8.48545 7.26696 8.4383 7.40559C8.33125 7.72028 8.07139 7.98434 7.73899 7.98434C7.37834 7.98434 7.0822 7.67949 7.17008 7.32971C7.24348 7.03757 7.35817 6.77354 7.51416 6.53761C7.78263 6.13657 8.13561 5.82999 8.57311 5.61786C9.01392 5.40574 9.5028 5.29968 10.0397 5.29968C10.6231 5.29968 11.1302 5.41569 11.561 5.64769C11.9952 5.8797 12.33 6.19788 12.5653 6.60224C12.8039 7.0066 12.9233 7.4673 12.9233 7.98434C12.9233 8.34892 12.8669 8.67871 12.7542 8.97369C12.6448 9.26867 12.4858 9.53216 12.2769 9.76417C12.0715 9.99618 11.8229 10.2017 11.5312 10.3806C11.2395 10.5629 11.0059 10.7552 10.8302 10.9574C10.6545 11.1562 10.5269 11.3932 10.4474 11.6683C10.3679 11.9434 10.3248 12.2864 10.3181 12.6974C10.3181 12.7304 10.2914 12.7571 10.2585 12.7571H9.18461ZM9.76132 15.7003C9.51605 15.7003 9.30559 15.6124 9.12993 15.4368C8.95426 15.2611 8.86643 15.0506 8.86643 14.8054C8.86643 14.5601 8.95426 14.3496 9.12993 14.174C9.30559 13.9983 9.51605 13.9105 9.76132 13.9105C10.0066 13.9105 10.217 13.9983 10.3927 14.174C10.5684 14.3496 10.6562 14.5601 10.6562 14.8054C10.6562 14.9678 10.6148 15.1169 10.5319 15.2528C10.4524 15.3887 10.3447 15.4981 10.2088 15.5809C10.0762 15.6605 9.92704 15.7003 9.76132 15.7003Z" fill="white"/>
</svg>
