<svg width="36" height="36" viewBox="0 0 36 36" fill="none" xmlns="http://www.w3.org/2000/svg">
<rect x="0.4" y="0.4" width="35.2" height="35.2" rx="5.61804" stroke="url(#paint0_linear_1578_3606)" stroke-width="0.8"/>
<path d="M26.6666 26.6663V20.318C26.6666 17.198 25.995 14.8147 22.355 14.8147C20.6 14.8147 19.43 15.768 18.9533 16.678H18.91V15.0963H15.465V26.6663H19.0616V20.9247C19.0616 19.408 19.3433 17.9563 21.2066 17.9563C23.0483 17.9563 23.07 19.668 23.07 21.0113V26.6447H26.6666V26.6663ZM9.61498 15.0963H13.2116V26.6663H9.61498V15.0963ZM11.4133 9.33301C10.265 9.33301 9.33331 10.2647 9.33331 11.413C9.33331 12.5613 10.265 13.5147 11.4133 13.5147C12.5616 13.5147 13.4933 12.5613 13.4933 11.413C13.4933 10.2647 12.5616 9.33301 11.4133 9.33301Z" fill="#F0F0F0"/>
<defs>
<linearGradient id="paint0_linear_1578_3606" x1="-6.73548" y1="-1.17345e-06" x2="43.5317" y2="33.0469" gradientUnits="userSpaceOnUse">
<stop stop-color="#12FFF1"/>
<stop offset="1" stop-color="#EDFFFE" stop-opacity="0.4"/>
</linearGradient>
</defs>
</svg>
