<svg width="54" height="54" viewBox="0 0 54 54" fill="none" xmlns="http://www.w3.org/2000/svg">
<path d="M4.91921 0.139709L5.10704 0C9.02555 4.6575 20.1889 17.3079 26.6088 17.3079C31.5678 17.3079 34.4234 9.90021 34.812 8.82994L35.0384 8.9078C35.0384 8.9078 31.4766 18.7314 34.824 21.3196C38.1159 23.8645 51.9685 19.5681 53.1542 19.1979L53.2217 19.4205C53.2217 19.4205 37.303 24.1951 36.2916 28.7459C35.5684 31.9985 39.7142 36.5913 40.8209 37.7695L40.6543 37.9278C40.6543 37.9278 35.8367 32.6009 32.2512 34.09C26.9194 36.3053 23.8709 51.797 23.5019 53.9783L23.2667 53.9347C23.2667 53.9347 26.6117 36.4776 18.2336 32.5623C13.5271 30.3615 1.91048 33.1698 0.0675551 33.6244L0 33.3965C0 33.3965 16.2479 29.3798 16.2479 20.5498C16.2479 13.403 4.91921 0.139709 4.91921 0.139709Z" fill="white"/>
</svg>
