<svg width="13" height="12" viewBox="0 0 13 12" fill="none" xmlns="http://www.w3.org/2000/svg">
<path d="M11.9282 7.39849C11.1683 10.4468 8.08119 12.3019 5.03287 11.5418C1.98582 10.7818 0.130891 7.6942 0.891094 4.64614C1.65063 1.5975 4.73772 -0.257779 7.7851 0.502177C10.8332 1.26213 12.688 4.3501 11.9281 7.39855L11.9281 7.39849H11.9282Z" fill="#F3BA2F"/>
<path d="M7.15792 8.68744V9.55906L6.39813 10.006L5.66069 9.55906V8.68744L6.39813 9.13443L7.15792 8.68744ZM3.09082 5.6703L3.82826 6.11728V7.61468L5.10202 8.37455V9.24617L3.09082 8.06166V5.6703ZM9.70544 5.6703V8.06166L7.67189 9.24617V8.37455L8.94566 7.61468V6.11728L9.70544 5.6703V5.6703ZM7.67189 4.48579L8.43168 4.93277V5.80439L7.15792 6.56426V8.08401L6.42048 8.531L5.68304 8.08401V6.56426L4.36458 5.80439V4.93277L5.12437 4.48579L6.39813 5.24566L7.67189 4.48579V4.48579ZM4.36458 6.43017L5.10202 6.87715V7.74877L4.36458 7.30179V6.43017ZM8.43168 6.43017V7.30179L7.69424 7.74877V6.87715L8.43168 6.43017ZM3.82826 3.72591L4.58805 4.1729L3.82826 4.61988V5.4915L3.09082 5.04452V4.1729L3.82826 3.72591V3.72591ZM8.968 3.72591L9.72779 4.1729V5.04452L8.968 5.4915V4.61988L8.23056 4.1729L8.968 3.72591V3.72591ZM6.39813 3.72591L7.15792 4.1729L6.39813 4.61988L5.66069 4.1729L6.39813 3.72591V3.72591ZM6.39813 2.22852L8.43168 3.41302L7.69424 3.86001L6.42048 3.10014L5.12437 3.86001L4.38693 3.41302L6.39813 2.22852V2.22852Z" fill="white"/>
</svg>
