<svg width="75" height="20" viewBox="0 0 75 20" fill="none" xmlns="http://www.w3.org/2000/svg">
<path d="M6.71271 9.465C6.71271 7.745 6.99271 6.405 7.55271 5.445C8.11271 4.475 9.09271 3.99 10.4927 3.99C11.8827 3.99 12.8577 4.475 13.4177 5.445C13.9777 6.405 14.2577 7.745 14.2577 9.465C14.2577 11.215 13.9777 12.575 13.4177 13.545C12.8577 14.515 11.8827 15 10.4927 15C9.09271 15 8.11271 14.515 7.55271 13.545C6.99271 12.575 6.71271 11.215 6.71271 9.465ZM12.9077 9.465C12.9077 8.595 12.8477 7.86 12.7277 7.26C12.6177 6.65 12.3827 6.16 12.0227 5.79C11.6727 5.42 11.1627 5.235 10.4927 5.235C9.81271 5.235 9.29271 5.42 8.93271 5.79C8.58272 6.16 8.34771 6.65 8.22771 7.26C8.11771 7.86 8.06271 8.595 8.06271 9.465C8.06271 10.365 8.11771 11.12 8.22771 11.73C8.34771 12.34 8.58272 12.83 8.93271 13.2C9.29271 13.57 9.81271 13.755 10.4927 13.755C11.1627 13.755 11.6727 13.57 12.0227 13.2C12.3827 12.83 12.6177 12.34 12.7277 11.73C12.8477 11.12 12.9077 10.365 12.9077 9.465ZM16.7917 15.09C16.5317 15.09 16.3117 15 16.1317 14.82C15.9517 14.64 15.8617 14.42 15.8617 14.16C15.8617 13.9 15.9517 13.68 16.1317 13.5C16.3117 13.32 16.5317 13.23 16.7917 13.23C17.0417 13.23 17.2517 13.32 17.4217 13.5C17.6017 13.68 17.6917 13.9 17.6917 14.16C17.6917 14.42 17.6017 14.64 17.4217 14.82C17.2517 15 17.0417 15.09 16.7917 15.09ZM18.9211 5.4V4.155H21.7411V15H20.3611V5.4H18.9211ZM23.7558 12.585V11.55L29.0208 4.26H30.6558V11.4H32.1558V12.585H30.6558V15H29.3058V12.585H23.7558ZM29.3658 5.685L25.3308 11.4H29.3658V5.685ZM39.0784 4.545V11.16C39.0784 12.09 39.3034 12.78 39.7534 13.23C40.2134 13.68 40.8484 13.905 41.6584 13.905C42.4584 13.905 43.0834 13.68 43.5334 13.23C43.9934 12.78 44.2234 12.09 44.2234 11.16V4.545H45.5884V11.145C45.5884 12.015 45.4134 12.75 45.0634 13.35C44.7134 13.94 44.2384 14.38 43.6384 14.67C43.0484 14.96 42.3834 15.105 41.6434 15.105C40.9034 15.105 40.2334 14.96 39.6334 14.67C39.0434 14.38 38.5734 13.94 38.2234 13.35C37.8834 12.75 37.7134 12.015 37.7134 11.145V4.545H39.0784ZM51.1804 15.105C50.4904 15.105 49.8704 14.985 49.3204 14.745C48.7804 14.495 48.3554 14.155 48.0454 13.725C47.7354 13.285 47.5754 12.78 47.5654 12.21H49.0204C49.0704 12.7 49.2704 13.115 49.6204 13.455C49.9804 13.785 50.5004 13.95 51.1804 13.95C51.8304 13.95 52.3404 13.79 52.7104 13.47C53.0904 13.14 53.2804 12.72 53.2804 12.21C53.2804 11.81 53.1704 11.485 52.9504 11.235C52.7304 10.985 52.4554 10.795 52.1254 10.665C51.7954 10.535 51.3504 10.395 50.7904 10.245C50.1004 10.065 49.5454 9.885 49.1254 9.705C48.7154 9.525 48.3604 9.245 48.0604 8.865C47.7704 8.475 47.6254 7.955 47.6254 7.305C47.6254 6.735 47.7704 6.23 48.0604 5.79C48.3504 5.35 48.7554 5.01 49.2754 4.77C49.8054 4.53 50.4104 4.41 51.0904 4.41C52.0704 4.41 52.8704 4.655 53.4904 5.145C54.1204 5.635 54.4754 6.285 54.5554 7.095H53.0554C53.0054 6.695 52.7954 6.345 52.4254 6.045C52.0554 5.735 51.5654 5.58 50.9554 5.58C50.3854 5.58 49.9204 5.73 49.5604 6.03C49.2004 6.32 49.0204 6.73 49.0204 7.26C49.0204 7.64 49.1254 7.95 49.3354 8.19C49.5554 8.43 49.8204 8.615 50.1304 8.745C50.4504 8.865 50.8954 9.005 51.4654 9.165C52.1554 9.355 52.7104 9.545 53.1304 9.735C53.5504 9.915 53.9104 10.2 54.2104 10.59C54.5104 10.97 54.6604 11.49 54.6604 12.15C54.6604 12.66 54.5254 13.14 54.2554 13.59C53.9854 14.04 53.5854 14.405 53.0554 14.685C52.5254 14.965 51.9004 15.105 51.1804 15.105ZM59.9242 4.545C61.0642 4.545 62.0492 4.76 62.8792 5.19C63.7192 5.61 64.3592 6.215 64.7992 7.005C65.2492 7.795 65.4742 8.725 65.4742 9.795C65.4742 10.865 65.2492 11.795 64.7992 12.585C64.3592 13.365 63.7192 13.965 62.8792 14.385C62.0492 14.795 61.0642 15 59.9242 15H56.6692V4.545H59.9242ZM59.9242 13.875C61.2742 13.875 62.3042 13.52 63.0142 12.81C63.7242 12.09 64.0792 11.085 64.0792 9.795C64.0792 8.495 63.7192 7.48 62.9992 6.75C62.2892 6.02 61.2642 5.655 59.9242 5.655H58.0342V13.875H59.9242ZM73.7096 4.545V5.655H70.8596V15H69.4946V5.655H66.6296V4.545H73.7096Z" fill="#F0F0F0" fill-opacity="0.4"/>
<line x1="0.14835" y1="16.0075" x2="74.1484" y2="3.00754" stroke="#BF3434"/>
</svg>
