<svg width="75" height="20" viewBox="0 0 75 20" fill="none" xmlns="http://www.w3.org/2000/svg">
<path d="M2.41718 9.465C2.41718 7.745 2.69718 6.405 3.25718 5.445C3.81718 4.475 4.79718 3.99 6.19718 3.99C7.58718 3.99 8.56218 4.475 9.12218 5.445C9.68218 6.405 9.96218 7.745 9.96218 9.465C9.96218 11.215 9.68218 12.575 9.12218 13.545C8.56218 14.515 7.58718 15 6.19718 15C4.79718 15 3.81718 14.515 3.25718 13.545C2.69718 12.575 2.41718 11.215 2.41718 9.465ZM8.61218 9.465C8.61218 8.595 8.55218 7.86 8.43218 7.26C8.32218 6.65 8.08718 6.16 7.72718 5.79C7.37718 5.42 6.86718 5.235 6.19718 5.235C5.51718 5.235 4.99718 5.42 4.63718 5.79C4.28718 6.16 4.05218 6.65 3.93218 7.26C3.82218 7.86 3.76718 8.595 3.76718 9.465C3.76718 10.365 3.82218 11.12 3.93218 11.73C4.05218 12.34 4.28718 12.83 4.63718 13.2C4.99718 13.57 5.51718 13.755 6.19718 13.755C6.86718 13.755 7.37718 13.57 7.72718 13.2C8.08718 12.83 8.32218 12.34 8.43218 11.73C8.55218 11.12 8.61218 10.365 8.61218 9.465ZM12.4961 15.09C12.2361 15.09 12.0161 15 11.8361 14.82C11.6561 14.64 11.5661 14.42 11.5661 14.16C11.5661 13.9 11.6561 13.68 11.8361 13.5C12.0161 13.32 12.2361 13.23 12.4961 13.23C12.7461 13.23 12.9561 13.32 13.1261 13.5C13.3061 13.68 13.3961 13.9 13.3961 14.16C13.3961 14.42 13.3061 14.64 13.1261 14.82C12.9561 15 12.7461 15.09 12.4961 15.09ZM14.9855 9.465C14.9855 7.745 15.2655 6.405 15.8255 5.445C16.3855 4.475 17.3655 3.99 18.7655 3.99C20.1555 3.99 21.1305 4.475 21.6905 5.445C22.2505 6.405 22.5305 7.745 22.5305 9.465C22.5305 11.215 22.2505 12.575 21.6905 13.545C21.1305 14.515 20.1555 15 18.7655 15C17.3655 15 16.3855 14.515 15.8255 13.545C15.2655 12.575 14.9855 11.215 14.9855 9.465ZM21.1805 9.465C21.1805 8.595 21.1205 7.86 21.0005 7.26C20.8905 6.65 20.6555 6.16 20.2955 5.79C19.9455 5.42 19.4355 5.235 18.7655 5.235C18.0855 5.235 17.5655 5.42 17.2055 5.79C16.8555 6.16 16.6205 6.65 16.5005 7.26C16.3905 7.86 16.3355 8.595 16.3355 9.465C16.3355 10.365 16.3905 11.12 16.5005 11.73C16.6205 12.34 16.8555 12.83 17.2055 13.2C17.5655 13.57 18.0855 13.755 18.7655 13.755C19.4355 13.755 19.9455 13.57 20.2955 13.2C20.6555 12.83 20.8905 12.34 21.0005 11.73C21.1205 11.12 21.1805 10.365 21.1805 9.465ZM26.1595 12.09C26.2595 12.66 26.4895 13.1 26.8495 13.41C27.2195 13.72 27.7145 13.875 28.3345 13.875C29.1645 13.875 29.7745 13.55 30.1645 12.9C30.5645 12.25 30.7545 11.155 30.7345 9.615C30.5245 10.065 30.1745 10.42 29.6845 10.68C29.1945 10.93 28.6495 11.055 28.0495 11.055C27.3795 11.055 26.7795 10.92 26.2495 10.65C25.7295 10.37 25.3195 9.965 25.0195 9.435C24.7195 8.905 24.5695 8.265 24.5695 7.515C24.5695 6.445 24.8795 5.585 25.4995 4.935C26.1195 4.275 26.9995 3.945 28.1395 3.945C29.5395 3.945 30.5195 4.4 31.0795 5.31C31.6495 6.22 31.9345 7.575 31.9345 9.375C31.9345 10.635 31.8195 11.675 31.5895 12.495C31.3695 13.315 30.9895 13.94 30.4495 14.37C29.9195 14.8 29.1895 15.015 28.2595 15.015C27.2395 15.015 26.4445 14.74 25.8745 14.19C25.3045 13.64 24.9795 12.94 24.8995 12.09H26.1595ZM28.2745 9.9C28.9445 9.9 29.4945 9.695 29.9245 9.285C30.3545 8.865 30.5695 8.3 30.5695 7.59C30.5695 6.84 30.3595 6.235 29.9395 5.775C29.5195 5.315 28.9295 5.085 28.1695 5.085C27.4695 5.085 26.9095 5.305 26.4895 5.745C26.0795 6.185 25.8745 6.765 25.8745 7.485C25.8745 8.215 26.0795 8.8 26.4895 9.24C26.8995 9.68 27.4945 9.9 28.2745 9.9ZM39.4118 4.545V11.16C39.4118 12.09 39.6368 12.78 40.0868 13.23C40.5468 13.68 41.1818 13.905 41.9918 13.905C42.7918 13.905 43.4168 13.68 43.8668 13.23C44.3268 12.78 44.5568 12.09 44.5568 11.16V4.545H45.9218V11.145C45.9218 12.015 45.7468 12.75 45.3968 13.35C45.0468 13.94 44.5718 14.38 43.9718 14.67C43.3818 14.96 42.7168 15.105 41.9768 15.105C41.2368 15.105 40.5668 14.96 39.9668 14.67C39.3768 14.38 38.9068 13.94 38.5568 13.35C38.2168 12.75 38.0468 12.015 38.0468 11.145V4.545H39.4118ZM51.5138 15.105C50.8238 15.105 50.2038 14.985 49.6538 14.745C49.1138 14.495 48.6888 14.155 48.3788 13.725C48.0688 13.285 47.9088 12.78 47.8988 12.21H49.3538C49.4038 12.7 49.6038 13.115 49.9538 13.455C50.3138 13.785 50.8338 13.95 51.5138 13.95C52.1638 13.95 52.6738 13.79 53.0438 13.47C53.4238 13.14 53.6138 12.72 53.6138 12.21C53.6138 11.81 53.5038 11.485 53.2838 11.235C53.0638 10.985 52.7888 10.795 52.4588 10.665C52.1288 10.535 51.6838 10.395 51.1238 10.245C50.4338 10.065 49.8788 9.885 49.4588 9.705C49.0488 9.525 48.6938 9.245 48.3938 8.865C48.1038 8.475 47.9588 7.955 47.9588 7.305C47.9588 6.735 48.1038 6.23 48.3938 5.79C48.6838 5.35 49.0888 5.01 49.6088 4.77C50.1388 4.53 50.7438 4.41 51.4238 4.41C52.4038 4.41 53.2038 4.655 53.8238 5.145C54.4538 5.635 54.8088 6.285 54.8888 7.095H53.3888C53.3388 6.695 53.1288 6.345 52.7588 6.045C52.3888 5.735 51.8988 5.58 51.2888 5.58C50.7188 5.58 50.2538 5.73 49.8938 6.03C49.5338 6.32 49.3538 6.73 49.3538 7.26C49.3538 7.64 49.4588 7.95 49.6688 8.19C49.8888 8.43 50.1538 8.615 50.4638 8.745C50.7838 8.865 51.2288 9.005 51.7988 9.165C52.4888 9.355 53.0438 9.545 53.4638 9.735C53.8838 9.915 54.2438 10.2 54.5438 10.59C54.8438 10.97 54.9938 11.49 54.9938 12.15C54.9938 12.66 54.8588 13.14 54.5888 13.59C54.3188 14.04 53.9188 14.405 53.3888 14.685C52.8588 14.965 52.2338 15.105 51.5138 15.105ZM60.2575 4.545C61.3975 4.545 62.3825 4.76 63.2125 5.19C64.0525 5.61 64.6925 6.215 65.1325 7.005C65.5825 7.795 65.8075 8.725 65.8075 9.795C65.8075 10.865 65.5825 11.795 65.1325 12.585C64.6925 13.365 64.0525 13.965 63.2125 14.385C62.3825 14.795 61.3975 15 60.2575 15H57.0025V4.545H60.2575ZM60.2575 13.875C61.6075 13.875 62.6375 13.52 63.3475 12.81C64.0575 12.09 64.4125 11.085 64.4125 9.795C64.4125 8.495 64.0525 7.48 63.3325 6.75C62.6225 6.02 61.5975 5.655 60.2575 5.655H58.3675V13.875H60.2575ZM74.043 4.545V5.655H71.193V15H69.828V5.655H66.963V4.545H74.043Z" fill="#F0F0F0" fill-opacity="0.4"/>
<line x1="0.481724" y1="16.0075" x2="74.4817" y2="3.00754" stroke="#BF3434"/>
</svg>
