<svg width="84" height="84" viewBox="0 0 84 84" fill="none" xmlns="http://www.w3.org/2000/svg">
<rect x="0.5" y="0.5" width="83" height="83" rx="4.9939" stroke="#F0F0F0"/>
<path d="M63.9758 40.2339C63.9758 39.4754 63.3608 38.8604 62.6023 38.8604H56.78C55.759 38.8604 55.0949 37.7859 55.5515 36.8727L59.8426 28.2907C60.2992 27.3775 59.6351 26.303 58.6141 26.303H52.2672C51.747 26.303 51.2714 26.5969 51.0387 27.0622L45.2846 38.5704C45.1892 38.7612 45.1396 38.9714 45.1396 39.1847V56.3232C45.1396 57.0817 45.7545 57.6967 46.513 57.6967H62.6023C63.3608 57.6967 63.9758 57.0817 63.9758 56.3232V40.2339ZM37.4873 57.6967C38.2458 57.6967 38.8608 57.0817 38.8608 56.3232V40.2339C38.8608 39.4754 38.2458 38.8604 37.4873 38.8604H31.665C30.644 38.8604 29.9799 37.7859 30.4365 36.8727L34.7276 28.2907C35.1842 27.3775 34.5201 26.303 33.4991 26.303H27.1522C26.632 26.303 26.1564 26.5969 25.9237 27.0622L20.1696 38.5704C20.0742 38.7612 20.0246 38.9714 20.0246 39.1847V56.3232C20.0246 57.0817 20.6395 57.6967 21.398 57.6967H37.4873Z" fill="#F0F0F0"/>
</svg>
