<svg width="14" height="12" viewBox="0 0 14 12" fill="none" xmlns="http://www.w3.org/2000/svg">
<path d="M11.8525 1.78682C10.9448 1.37015 9.98686 1.07306 9.00269 0.903008C8.99372 0.901438 8.98448 0.902668 8.97624 0.906529C8.96799 0.910391 8.96114 0.916698 8.9566 0.924592C8.83351 1.14336 8.697 1.42921 8.60191 1.65323C7.54099 1.49221 6.46185 1.49221 5.40093 1.65323C5.29438 1.40394 5.17422 1.1607 5.04099 0.924592C5.03633 0.916812 5.02946 0.910601 5.02125 0.906755C5.01303 0.902909 5.00386 0.901604 4.9949 0.903008C4.01064 1.07269 3.05267 1.36979 2.14512 1.78682C2.13733 1.78987 2.13077 1.79541 2.12645 1.80257C0.311573 4.5141 -0.186046 7.15912 0.057805 9.77147C0.058442 9.77786 0.0603742 9.78405 0.0634835 9.78966C0.0665928 9.79528 0.070814 9.80021 0.0758896 9.80414C1.13261 10.5872 2.31487 11.1847 3.57205 11.5712C3.5809 11.5739 3.59039 11.5738 3.59918 11.5709C3.60797 11.568 3.61562 11.5623 3.62106 11.5548C3.89058 11.1873 4.13034 10.7994 4.33627 10.3916C4.33913 10.386 4.34076 10.3798 4.34105 10.3736C4.34135 10.3673 4.3403 10.361 4.33798 10.3551C4.33567 10.3493 4.33213 10.344 4.32761 10.3396C4.32309 10.3353 4.31769 10.3319 4.31177 10.3298C3.93469 10.1851 3.56954 10.0112 3.2197 9.80939C3.2134 9.80558 3.20812 9.80031 3.20431 9.79402C3.20049 9.78773 3.19826 9.78061 3.1978 9.77327C3.19734 9.76593 3.19867 9.75859 3.20167 9.75187C3.20467 9.74516 3.20925 9.73927 3.21503 9.73471C3.28873 9.67989 3.36109 9.62329 3.43204 9.56495C3.43831 9.5598 3.44591 9.55652 3.45396 9.55549C3.462 9.55446 3.47018 9.55572 3.47755 9.55912C5.76904 10.6051 8.24955 10.6051 10.5136 9.55912C10.5211 9.5556 10.5294 9.55428 10.5375 9.55531C10.5457 9.55634 10.5534 9.55969 10.5597 9.56495C10.6297 9.62271 10.7032 9.68046 10.7773 9.7353C10.803 9.75397 10.8012 9.79364 10.7732 9.80997C10.4244 10.0136 10.0621 10.1862 9.68057 10.3298C9.67468 10.332 9.66933 10.3355 9.66487 10.3399C9.66041 10.3444 9.65694 10.3497 9.65469 10.3556C9.65243 10.3615 9.65144 10.3678 9.65178 10.3741C9.65212 10.3804 9.65378 10.3866 9.65665 10.3922C9.86666 10.7994 10.107 11.1873 10.3713 11.5548C10.3766 11.5624 10.3843 11.5682 10.3931 11.5712C10.4018 11.5742 10.4114 11.5744 10.4203 11.5718C11.6794 11.1862 12.8636 10.5886 13.9217 9.80472C13.9268 9.80098 13.9311 9.79618 13.9342 9.79064C13.9374 9.78511 13.9392 9.77897 13.9398 9.77263C14.2315 6.7525 13.4509 4.12907 11.87 1.80374C11.8684 1.79982 11.8661 1.79629 11.8631 1.79337C11.8601 1.79045 11.8564 1.78821 11.8525 1.78682ZM4.67871 8.18119C3.98858 8.18119 3.42038 7.54764 3.42038 6.77001C3.42038 5.99237 3.9775 5.35882 4.67871 5.35882C5.38518 5.35882 5.94814 5.99762 5.93705 6.77001C5.93705 7.54823 5.37935 8.18119 4.67871 8.18119ZM9.33113 8.18119C8.64158 8.18119 8.07279 7.54764 8.07279 6.77001C8.07279 5.99237 8.62991 5.35882 9.33113 5.35882C10.0376 5.35882 10.6006 5.99762 10.5895 6.77001C10.5895 7.54823 10.0376 8.18119 9.33113 8.18119Z" fill="white"/>
</svg>
