<svg width="18" height="14" viewBox="0 0 18 14" fill="none" xmlns="http://www.w3.org/2000/svg">
<path d="M14.961 1.29404C13.8648 0.787576 12.6892 0.414437 11.46 0.200726C11.4377 0.196601 11.4153 0.206909 11.4038 0.227524C11.2526 0.49827 11.0851 0.851481 10.9678 1.1291C9.6458 0.929826 8.33056 0.929826 7.03564 1.1291C6.91834 0.84531 6.74479 0.49827 6.59292 0.227524C6.58139 0.207596 6.55903 0.197289 6.53665 0.200726C5.30818 0.413754 4.1326 0.786893 3.03565 1.29404C3.02615 1.29816 3.01801 1.30504 3.01261 1.31396C0.782777 4.66811 0.171932 7.93982 0.471592 11.171C0.472948 11.1868 0.481761 11.2019 0.493965 11.2115C1.96515 12.2993 3.39024 12.9597 4.78886 13.3974C4.81125 13.4043 4.83496 13.3961 4.84921 13.3775C5.18005 12.9226 5.47497 12.4429 5.72784 11.9385C5.74276 11.909 5.72852 11.8739 5.69802 11.8623C5.23022 11.6836 4.78479 11.4658 4.35632 11.2184C4.32243 11.1984 4.31971 11.1496 4.35089 11.1263C4.44106 11.0582 4.53125 10.9875 4.61735 10.916C4.63292 10.9029 4.65463 10.9002 4.67294 10.9084C7.48783 12.2024 10.5353 12.2024 13.317 10.9084C13.3353 10.8995 13.357 10.9023 13.3732 10.9153C13.4594 10.9868 13.5495 11.0582 13.6404 11.1263C13.6715 11.1496 13.6695 11.1984 13.6356 11.2184C13.2071 11.4706 12.7617 11.6836 12.2932 11.8616C12.2627 11.8733 12.2492 11.909 12.2641 11.9385C12.5224 12.4422 12.8173 12.9219 13.1421 13.3768C13.1556 13.3961 13.18 13.4043 13.2024 13.3974C14.6078 12.9597 16.0329 12.2993 17.5041 11.2115C17.517 11.2019 17.5251 11.1874 17.5265 11.1716C17.8851 7.43609 16.9258 4.19121 14.9834 1.31465C14.9787 1.30504 14.9705 1.29816 14.961 1.29404ZM6.1482 9.20353C5.30072 9.20353 4.60242 8.42015 4.60242 7.45809C4.60242 6.49602 5.28718 5.71265 6.1482 5.71265C7.01597 5.71265 7.70751 6.5029 7.69394 7.45809C7.69394 8.42015 7.00919 9.20353 6.1482 9.20353ZM11.8634 9.20353C11.016 9.20353 10.3177 8.42015 10.3177 7.45809C10.3177 6.49602 11.0024 5.71265 11.8634 5.71265C12.7312 5.71265 13.4227 6.5029 13.4092 7.45809C13.4092 8.42015 12.7312 9.20353 11.8634 9.20353Z" fill="#9B9B9B"/>
</svg>
