<svg width="16" height="13" viewBox="0 0 16 13" fill="none" xmlns="http://www.w3.org/2000/svg">
<path fill-rule="evenodd" clip-rule="evenodd" d="M1.6978 5.54779C5.72432 3.78376 8.4093 2.62079 9.75274 2.05891C13.5885 0.45461 14.3856 0.175926 14.9051 0.166724C15.0193 0.1647 15.2748 0.193174 15.4403 0.328201C15.58 0.442215 15.6185 0.596232 15.6369 0.704329C15.6553 0.812427 15.6782 1.05868 15.66 1.25109C15.4521 3.44725 14.5527 8.77676 14.0951 11.2365C13.9015 12.2773 13.5203 12.6263 13.1512 12.6604C12.3491 12.7347 11.74 12.1274 10.9631 11.6153C9.74748 10.814 9.06071 10.3152 7.88072 9.53329C6.51702 8.62965 7.40105 8.13299 8.17821 7.32131C8.3816 7.10889 11.9157 3.87653 11.9841 3.5833C11.9926 3.54663 12.0006 3.40993 11.9198 3.33775C11.839 3.26557 11.7198 3.29025 11.6338 3.30988C11.5119 3.33771 9.56988 4.62844 5.80777 7.18208C5.25654 7.5627 4.75725 7.74815 4.3099 7.73843C3.81674 7.72772 2.86808 7.45804 2.16286 7.22753C1.29787 6.94479 0.610396 6.79531 0.67026 6.31513C0.701441 6.06503 1.04395 5.80925 1.6978 5.54779Z" fill="#9B9B9B"/>
</svg>
