<svg width="30" height="29" viewBox="0 0 30 29" fill="none" xmlns="http://www.w3.org/2000/svg">
<path d="M28.7974 17.9621C26.8978 25.582 19.18 30.2193 11.5592 28.3191C3.9416 26.4195 -0.695723 18.7013 1.20479 11.082C3.10363 3.46123 10.8214 -1.17645 18.4398 0.723229C26.0601 2.6229 30.6971 10.342 28.7972 17.9622L28.7974 17.9621H28.7974Z" fill="#50AF95"/>
<path fill-rule="evenodd" clip-rule="evenodd" d="M16.8022 16.1338V16.1338C16.7016 16.1414 16.182 16.1724 15.0229 16.1724C14.1009 16.1724 13.4464 16.1447 13.2167 16.1338V16.1338C9.65387 15.9771 6.99452 15.3569 6.99452 14.6143C6.99452 13.8717 9.65387 13.2524 13.2167 13.0931V15.5161C13.4497 15.5329 14.1169 15.5723 15.0388 15.5723C16.1451 15.5723 16.6991 15.5262 16.7988 15.517V13.0948C20.3541 13.2532 23.0076 13.8734 23.0076 14.6143C23.0076 15.3552 20.355 15.9754 16.7988 16.133V16.133L16.8022 16.1338ZM16.8022 12.8442V10.676H21.7639V7.36963H8.25505V10.676H13.2159V12.8434C9.18368 13.0286 6.15137 13.8273 6.15137 14.7845C6.15137 15.7416 9.18368 16.5395 13.2159 16.7256V23.6736H16.8013V16.723C20.8243 16.5378 23.8516 15.7399 23.8516 14.7836C23.8516 13.8273 20.8268 13.0294 16.8013 12.8434V12.8434L16.8022 12.8442Z" fill="white"/>
</svg>
