<svg width="533" height="533" viewBox="0 0 533 533" fill="none" xmlns="http://www.w3.org/2000/svg">
<path d="M0.592449 284.106C-1.80667 248.205 3.09666 212.19 15.0062 178.237C26.9158 144.284 45.5845 113.098 69.8844 86.5622C94.1844 60.0264 123.611 38.6918 156.387 23.8473C189.164 9.00285 224.609 0.956543 260.582 0.194482L263.965 159.891C249.576 160.196 235.398 163.414 222.287 169.352C209.177 175.29 197.406 183.824 187.686 194.438C177.966 205.052 170.498 217.527 165.735 231.108C160.971 244.689 159.009 259.095 159.969 273.455L0.592449 284.106Z" fill="white"/>
<path d="M44.8555 414.243C18.5232 374.828 3.19234 329.097 0.446896 281.774L159.911 272.523C161.009 291.452 167.141 309.744 177.674 325.51L44.8555 414.243Z" fill="#0F0F0F"/>
<path d="M252.394 0.494041C284.602 -1.18093 316.846 3.01032 347.555 12.8636L298.754 164.958C286.47 161.017 273.573 159.341 260.69 160.011L252.394 0.494041Z" fill="#AFAFAF"/>
<path d="M342.808 11.3894C407.491 30.8191 462.371 74.1068 496.333 132.484C530.295 190.862 540.8 259.966 525.719 325.799L370.02 290.132C376.052 263.799 371.85 236.158 358.265 212.807C344.681 189.456 322.729 172.141 296.856 164.369L342.808 11.3894Z" fill="#61ADB1"/>
<path d="M526.236 323.497C524.727 330.364 522.946 337.169 520.898 343.896L368.091 297.371C368.911 294.681 369.623 291.959 370.226 289.212L526.236 323.497Z" fill="#0AD4C9"/>
<path d="M521.528 341.795C502.351 406.693 459.18 461.852 400.791 496.059L320.049 358.237C343.404 344.554 360.673 322.49 368.343 296.531L521.528 341.795Z" fill="#0DAAA1"/>
<path d="M404.694 493.728C373.368 512.805 338.438 525.204 302.095 530.147L280.57 371.872C295.108 369.895 309.079 364.935 321.61 357.304L404.694 493.728Z" fill="#0A8078"/>
<path d="M307.481 529.358C292.615 531.691 277.579 532.758 262.533 532.55L264.745 372.833C270.764 372.916 276.778 372.489 282.725 371.556L307.481 529.358Z" fill="#055550"/>
<path d="M266.22 532.575C221.323 532.575 177.155 521.221 137.825 499.567C98.4945 477.914 65.2792 446.665 41.2686 408.728L176.24 323.304C185.844 338.479 199.13 350.978 214.862 359.64C230.594 368.301 248.261 372.843 266.22 372.843L266.22 532.575Z" fill="#032A28"/>
<path d="M400.172 170.28C401.708 168.952 402.916 167.864 403.796 167.016C404.692 166.152 405.436 165.256 406.028 164.328C406.62 163.4 406.916 162.472 406.916 161.544C406.916 160.584 406.684 159.832 406.22 159.288C405.772 158.744 405.06 158.472 404.084 158.472C403.14 158.472 402.404 158.776 401.876 159.384C401.364 159.976 401.092 160.776 401.06 161.784H398.42C398.468 159.96 399.012 158.568 400.052 157.608C401.108 156.632 402.444 156.144 404.06 156.144C405.804 156.144 407.164 156.624 408.14 157.584C409.132 158.544 409.628 159.824 409.628 161.424C409.628 162.576 409.332 163.688 408.74 164.76C408.164 165.816 407.468 166.768 406.652 167.616C405.852 168.448 404.828 169.416 403.58 170.52L402.5 171.48H410.108V173.76H398.444V171.768L400.172 170.28ZM423.792 158.856H415.752V163.632C416.088 163.184 416.584 162.808 417.24 162.504C417.912 162.2 418.624 162.048 419.376 162.048C420.72 162.048 421.808 162.336 422.64 162.912C423.488 163.488 424.088 164.216 424.44 165.096C424.808 165.976 424.992 166.904 424.992 167.88C424.992 169.064 424.76 170.12 424.296 171.048C423.848 171.96 423.168 172.68 422.256 173.208C421.36 173.736 420.256 174 418.944 174C417.2 174 415.8 173.568 414.744 172.704C413.688 171.84 413.056 170.696 412.848 169.272H415.512C415.688 170.024 416.08 170.624 416.688 171.072C417.296 171.504 418.056 171.72 418.968 171.72C420.104 171.72 420.952 171.376 421.512 170.688C422.088 170 422.376 169.088 422.376 167.952C422.376 166.8 422.088 165.92 421.512 165.312C420.936 164.688 420.088 164.376 418.968 164.376C418.184 164.376 417.52 164.576 416.976 164.976C416.448 165.36 416.064 165.888 415.824 166.56H413.232V156.456H423.792V158.856ZM429.304 174.168C428.808 174.168 428.392 174 428.056 173.664C427.72 173.328 427.552 172.912 427.552 172.416C427.552 171.92 427.72 171.504 428.056 171.168C428.392 170.832 428.808 170.664 429.304 170.664C429.784 170.664 430.192 170.832 430.528 171.168C430.864 171.504 431.032 171.92 431.032 172.416C431.032 172.912 430.864 173.328 430.528 173.664C430.192 174 429.784 174.168 429.304 174.168ZM436.581 164.856C434.917 164.024 434.085 162.712 434.085 160.92C434.085 160.056 434.301 159.264 434.733 158.544C435.165 157.824 435.813 157.256 436.677 156.84C437.541 156.408 438.597 156.192 439.845 156.192C441.077 156.192 442.125 156.408 442.989 156.84C443.869 157.256 444.525 157.824 444.957 158.544C445.389 159.264 445.605 160.056 445.605 160.92C445.605 161.816 445.373 162.608 444.909 163.296C444.461 163.968 443.861 164.488 443.109 164.856C444.021 165.192 444.741 165.744 445.269 166.512C445.797 167.264 446.061 168.152 446.061 169.176C446.061 170.216 445.797 171.136 445.269 171.936C444.741 172.736 444.005 173.352 443.061 173.784C442.117 174.216 441.045 174.432 439.845 174.432C438.645 174.432 437.573 174.216 436.629 173.784C435.701 173.352 434.973 172.736 434.445 171.936C433.917 171.136 433.653 170.216 433.653 169.176C433.653 168.136 433.917 167.24 434.445 166.488C434.973 165.736 435.685 165.192 436.581 164.856ZM442.989 161.256C442.989 160.36 442.709 159.672 442.149 159.192C441.589 158.712 440.821 158.472 439.845 158.472C438.885 158.472 438.125 158.712 437.565 159.192C437.005 159.672 436.725 160.368 436.725 161.28C436.725 162.08 437.013 162.736 437.589 163.248C438.181 163.744 438.933 163.992 439.845 163.992C440.757 163.992 441.509 163.736 442.101 163.224C442.693 162.712 442.989 162.056 442.989 161.256ZM439.845 166.056C438.789 166.056 437.925 166.32 437.253 166.848C436.597 167.36 436.269 168.104 436.269 169.08C436.269 169.992 436.589 170.736 437.229 171.312C437.869 171.872 438.741 172.152 439.845 172.152C440.933 172.152 441.789 171.864 442.413 171.288C443.053 170.712 443.373 169.976 443.373 169.08C443.373 168.12 443.045 167.376 442.389 166.848C441.749 166.32 440.901 166.056 439.845 166.056ZM448.502 160.728C448.502 159.56 448.838 158.648 449.51 157.992C450.198 157.32 451.078 156.984 452.15 156.984C453.222 156.984 454.094 157.32 454.766 157.992C455.454 158.648 455.798 159.56 455.798 160.728C455.798 161.896 455.454 162.816 454.766 163.488C454.094 164.16 453.222 164.496 452.15 164.496C451.078 164.496 450.198 164.16 449.51 163.488C448.838 162.816 448.502 161.896 448.502 160.728ZM463.142 157.296L453.566 174H450.878L460.454 157.296H463.142ZM452.15 158.64C451.142 158.64 450.638 159.336 450.638 160.728C450.638 162.136 451.142 162.84 452.15 162.84C452.63 162.84 452.998 162.672 453.254 162.336C453.526 161.984 453.662 161.448 453.662 160.728C453.662 159.336 453.158 158.64 452.15 158.64ZM458.27 170.544C458.27 169.376 458.606 168.464 459.278 167.808C459.966 167.136 460.846 166.8 461.918 166.8C462.974 166.8 463.838 167.136 464.51 167.808C465.198 168.464 465.542 169.376 465.542 170.544C465.542 171.712 465.198 172.632 464.51 173.304C463.838 173.976 462.974 174.312 461.918 174.312C460.846 174.312 459.966 173.976 459.278 173.304C458.606 172.632 458.27 171.712 458.27 170.544ZM461.894 168.456C460.886 168.456 460.382 169.152 460.382 170.544C460.382 171.936 460.886 172.632 461.894 172.632C462.902 172.632 463.406 171.936 463.406 170.544C463.406 169.152 462.902 168.456 461.894 168.456Z" fill="#F0F0F0"/>
<path d="M86.1722 154.28C87.7082 152.952 88.9162 151.864 89.7962 151.016C90.6922 150.152 91.4362 149.256 92.0282 148.328C92.6202 147.4 92.9162 146.472 92.9162 145.544C92.9162 144.584 92.6842 143.832 92.2202 143.288C91.7722 142.744 91.0602 142.472 90.0842 142.472C89.1402 142.472 88.4042 142.776 87.8762 143.384C87.3642 143.976 87.0922 144.776 87.0602 145.784H84.4202C84.4682 143.96 85.0122 142.568 86.0522 141.608C87.1082 140.632 88.4442 140.144 90.0602 140.144C91.8042 140.144 93.1642 140.624 94.1402 141.584C95.1322 142.544 95.6282 143.824 95.6282 145.424C95.6282 146.576 95.3322 147.688 94.7402 148.76C94.1642 149.816 93.4682 150.768 92.6522 151.616C91.8522 152.448 90.8282 153.416 89.5802 154.52L88.5002 155.48H96.1082V157.76H84.4442V155.768L86.1722 154.28ZM98.1758 154.352V152.288L106.24 140.72H109.552V151.976H111.784V154.352H109.552V158H106.864V154.352H98.1758ZM106.984 143.504L101.32 151.976H106.984V143.504ZM115.515 158.168C115.019 158.168 114.603 158 114.267 157.664C113.931 157.328 113.763 156.912 113.763 156.416C113.763 155.92 113.931 155.504 114.267 155.168C114.603 154.832 115.019 154.664 115.515 154.664C115.995 154.664 116.403 154.832 116.739 155.168C117.075 155.504 117.243 155.92 117.243 156.416C117.243 156.912 117.075 157.328 116.739 157.664C116.403 158 115.995 158.168 115.515 158.168ZM119.504 154.352V152.288L127.568 140.72H130.88V151.976H133.112V154.352H130.88V158H128.192V154.352H119.504ZM128.312 143.504L122.648 151.976H128.312V143.504ZM134.947 144.728C134.947 143.56 135.283 142.648 135.955 141.992C136.643 141.32 137.523 140.984 138.595 140.984C139.667 140.984 140.539 141.32 141.211 141.992C141.899 142.648 142.243 143.56 142.243 144.728C142.243 145.896 141.899 146.816 141.211 147.488C140.539 148.16 139.667 148.496 138.595 148.496C137.523 148.496 136.643 148.16 135.955 147.488C135.283 146.816 134.947 145.896 134.947 144.728ZM149.587 141.296L140.011 158H137.323L146.899 141.296H149.587ZM138.595 142.64C137.587 142.64 137.083 143.336 137.083 144.728C137.083 146.136 137.587 146.84 138.595 146.84C139.075 146.84 139.443 146.672 139.699 146.336C139.971 145.984 140.107 145.448 140.107 144.728C140.107 143.336 139.603 142.64 138.595 142.64ZM144.715 154.544C144.715 153.376 145.051 152.464 145.723 151.808C146.411 151.136 147.291 150.8 148.363 150.8C149.419 150.8 150.283 151.136 150.955 151.808C151.643 152.464 151.987 153.376 151.987 154.544C151.987 155.712 151.643 156.632 150.955 157.304C150.283 157.976 149.419 158.312 148.363 158.312C147.291 158.312 146.411 157.976 145.723 157.304C145.051 156.632 144.715 155.712 144.715 154.544ZM148.339 152.456C147.331 152.456 146.827 153.152 146.827 154.544C146.827 155.936 147.331 156.632 148.339 156.632C149.347 156.632 149.851 155.936 149.851 154.544C149.851 153.152 149.347 152.456 148.339 152.456Z" fill="#032A28"/>
<path d="M146.3 418V415.504H151.292V433H148.532V418H146.3ZM166.331 417.856H158.291V422.632C158.627 422.184 159.123 421.808 159.779 421.504C160.451 421.2 161.163 421.048 161.915 421.048C163.259 421.048 164.347 421.336 165.179 421.912C166.027 422.488 166.627 423.216 166.979 424.096C167.347 424.976 167.531 425.904 167.531 426.88C167.531 428.064 167.299 429.12 166.835 430.048C166.387 430.96 165.707 431.68 164.795 432.208C163.899 432.736 162.795 433 161.483 433C159.739 433 158.339 432.568 157.283 431.704C156.227 430.84 155.595 429.696 155.387 428.272H158.051C158.227 429.024 158.619 429.624 159.227 430.072C159.835 430.504 160.595 430.72 161.507 430.72C162.643 430.72 163.491 430.376 164.051 429.688C164.627 429 164.915 428.088 164.915 426.952C164.915 425.8 164.627 424.92 164.051 424.312C163.475 423.688 162.627 423.376 161.507 423.376C160.723 423.376 160.059 423.576 159.515 423.976C158.987 424.36 158.603 424.888 158.363 425.56H155.771V415.456H166.331V417.856ZM171.843 433.168C171.347 433.168 170.931 433 170.595 432.664C170.259 432.328 170.091 431.912 170.091 431.416C170.091 430.92 170.259 430.504 170.595 430.168C170.931 429.832 171.347 429.664 171.843 429.664C172.323 429.664 172.731 429.832 173.067 430.168C173.403 430.504 173.571 430.92 173.571 431.416C173.571 431.912 173.403 432.328 173.067 432.664C172.731 433 172.323 433.168 171.843 433.168ZM179.12 423.856C177.456 423.024 176.624 421.712 176.624 419.92C176.624 419.056 176.84 418.264 177.272 417.544C177.704 416.824 178.352 416.256 179.216 415.84C180.08 415.408 181.136 415.192 182.384 415.192C183.616 415.192 184.664 415.408 185.528 415.84C186.408 416.256 187.064 416.824 187.496 417.544C187.928 418.264 188.144 419.056 188.144 419.92C188.144 420.816 187.912 421.608 187.448 422.296C187 422.968 186.4 423.488 185.648 423.856C186.56 424.192 187.28 424.744 187.808 425.512C188.336 426.264 188.6 427.152 188.6 428.176C188.6 429.216 188.336 430.136 187.808 430.936C187.28 431.736 186.544 432.352 185.6 432.784C184.656 433.216 183.584 433.432 182.384 433.432C181.184 433.432 180.112 433.216 179.168 432.784C178.24 432.352 177.512 431.736 176.984 430.936C176.456 430.136 176.192 429.216 176.192 428.176C176.192 427.136 176.456 426.24 176.984 425.488C177.512 424.736 178.224 424.192 179.12 423.856ZM185.528 420.256C185.528 419.36 185.248 418.672 184.688 418.192C184.128 417.712 183.36 417.472 182.384 417.472C181.424 417.472 180.664 417.712 180.104 418.192C179.544 418.672 179.264 419.368 179.264 420.28C179.264 421.08 179.552 421.736 180.128 422.248C180.72 422.744 181.472 422.992 182.384 422.992C183.296 422.992 184.048 422.736 184.64 422.224C185.232 421.712 185.528 421.056 185.528 420.256ZM182.384 425.056C181.328 425.056 180.464 425.32 179.792 425.848C179.136 426.36 178.808 427.104 178.808 428.08C178.808 428.992 179.128 429.736 179.768 430.312C180.408 430.872 181.28 431.152 182.384 431.152C183.472 431.152 184.328 430.864 184.952 430.288C185.592 429.712 185.912 428.976 185.912 428.08C185.912 427.12 185.584 426.376 184.928 425.848C184.288 425.32 183.44 425.056 182.384 425.056ZM191.041 419.728C191.041 418.56 191.377 417.648 192.049 416.992C192.737 416.32 193.617 415.984 194.689 415.984C195.761 415.984 196.633 416.32 197.305 416.992C197.993 417.648 198.337 418.56 198.337 419.728C198.337 420.896 197.993 421.816 197.305 422.488C196.633 423.16 195.761 423.496 194.689 423.496C193.617 423.496 192.737 423.16 192.049 422.488C191.377 421.816 191.041 420.896 191.041 419.728ZM205.681 416.296L196.105 433H193.417L202.993 416.296H205.681ZM194.689 417.64C193.681 417.64 193.177 418.336 193.177 419.728C193.177 421.136 193.681 421.84 194.689 421.84C195.169 421.84 195.537 421.672 195.793 421.336C196.065 420.984 196.201 420.448 196.201 419.728C196.201 418.336 195.697 417.64 194.689 417.64ZM200.809 429.544C200.809 428.376 201.145 427.464 201.817 426.808C202.505 426.136 203.385 425.8 204.457 425.8C205.513 425.8 206.377 426.136 207.049 426.808C207.737 427.464 208.081 428.376 208.081 429.544C208.081 430.712 207.737 431.632 207.049 432.304C206.377 432.976 205.513 433.312 204.457 433.312C203.385 433.312 202.505 432.976 201.817 432.304C201.145 431.632 200.809 430.712 200.809 429.544ZM204.433 427.456C203.425 427.456 202.921 428.152 202.921 429.544C202.921 430.936 203.425 431.632 204.433 431.632C205.441 431.632 205.945 430.936 205.945 429.544C205.945 428.152 205.441 427.456 204.433 427.456Z" fill="#F0F0F0"/>
<path d="M49.6122 325.856C47.9482 325.024 47.1162 323.712 47.1162 321.92C47.1162 321.056 47.3322 320.264 47.7642 319.544C48.1962 318.824 48.8442 318.256 49.7082 317.84C50.5722 317.408 51.6282 317.192 52.8762 317.192C54.1082 317.192 55.1562 317.408 56.0202 317.84C56.9002 318.256 57.5562 318.824 57.9882 319.544C58.4202 320.264 58.6362 321.056 58.6362 321.92C58.6362 322.816 58.4042 323.608 57.9402 324.296C57.4922 324.968 56.8922 325.488 56.1402 325.856C57.0522 326.192 57.7722 326.744 58.3002 327.512C58.8282 328.264 59.0922 329.152 59.0922 330.176C59.0922 331.216 58.8282 332.136 58.3002 332.936C57.7722 333.736 57.0362 334.352 56.0922 334.784C55.1482 335.216 54.0762 335.432 52.8762 335.432C51.6762 335.432 50.6042 335.216 49.6602 334.784C48.7322 334.352 48.0042 333.736 47.4762 332.936C46.9482 332.136 46.6842 331.216 46.6842 330.176C46.6842 329.136 46.9482 328.24 47.4762 327.488C48.0042 326.736 48.7162 326.192 49.6122 325.856ZM56.0202 322.256C56.0202 321.36 55.7402 320.672 55.1802 320.192C54.6202 319.712 53.8522 319.472 52.8762 319.472C51.9162 319.472 51.1562 319.712 50.5962 320.192C50.0362 320.672 49.7562 321.368 49.7562 322.28C49.7562 323.08 50.0442 323.736 50.6202 324.248C51.2122 324.744 51.9642 324.992 52.8762 324.992C53.7882 324.992 54.5402 324.736 55.1322 324.224C55.7242 323.712 56.0202 323.056 56.0202 322.256ZM52.8762 327.056C51.8202 327.056 50.9562 327.32 50.2842 327.848C49.6282 328.36 49.3002 329.104 49.3002 330.08C49.3002 330.992 49.6202 331.736 50.2602 332.312C50.9002 332.872 51.7722 333.152 52.8762 333.152C53.9642 333.152 54.8202 332.864 55.4442 332.288C56.0842 331.712 56.4042 330.976 56.4042 330.08C56.4042 329.12 56.0762 328.376 55.4202 327.848C54.7802 327.32 53.9322 327.056 52.8762 327.056ZM63.4289 335.168C62.9329 335.168 62.5169 335 62.1809 334.664C61.8449 334.328 61.6769 333.912 61.6769 333.416C61.6769 332.92 61.8449 332.504 62.1809 332.168C62.5169 331.832 62.9329 331.664 63.4289 331.664C63.9089 331.664 64.3169 331.832 64.6529 332.168C64.9889 332.504 65.1569 332.92 65.1569 333.416C65.1569 333.912 64.9889 334.328 64.6529 334.664C64.3169 335 63.9089 335.168 63.4289 335.168ZM67.754 326.024C67.754 323.256 68.218 321.096 69.146 319.544C70.09 317.976 71.706 317.192 73.994 317.192C76.282 317.192 77.89 317.976 78.818 319.544C79.762 321.096 80.234 323.256 80.234 326.024C80.234 328.824 79.762 331.016 78.818 332.6C77.89 334.168 76.282 334.952 73.994 334.952C71.706 334.952 70.09 334.168 69.146 332.6C68.218 331.016 67.754 328.824 67.754 326.024ZM77.546 326.024C77.546 324.728 77.458 323.632 77.282 322.736C77.122 321.84 76.786 321.112 76.274 320.552C75.762 319.976 75.002 319.688 73.994 319.688C72.986 319.688 72.226 319.976 71.714 320.552C71.202 321.112 70.858 321.84 70.682 322.736C70.522 323.632 70.442 324.728 70.442 326.024C70.442 327.368 70.522 328.496 70.682 329.408C70.842 330.32 71.178 331.056 71.69 331.616C72.218 332.176 72.986 332.456 73.994 332.456C75.002 332.456 75.762 332.176 76.274 331.616C76.802 331.056 77.146 330.32 77.306 329.408C77.466 328.496 77.546 327.368 77.546 326.024ZM82.697 321.728C82.697 320.56 83.033 319.648 83.705 318.992C84.393 318.32 85.273 317.984 86.345 317.984C87.417 317.984 88.289 318.32 88.961 318.992C89.649 319.648 89.993 320.56 89.993 321.728C89.993 322.896 89.649 323.816 88.961 324.488C88.289 325.16 87.417 325.496 86.345 325.496C85.273 325.496 84.393 325.16 83.705 324.488C83.033 323.816 82.697 322.896 82.697 321.728ZM97.337 318.296L87.761 335H85.073L94.649 318.296H97.337ZM86.345 319.64C85.337 319.64 84.833 320.336 84.833 321.728C84.833 323.136 85.337 323.84 86.345 323.84C86.825 323.84 87.193 323.672 87.449 323.336C87.721 322.984 87.857 322.448 87.857 321.728C87.857 320.336 87.353 319.64 86.345 319.64ZM92.465 331.544C92.465 330.376 92.801 329.464 93.473 328.808C94.161 328.136 95.041 327.8 96.113 327.8C97.169 327.8 98.033 328.136 98.705 328.808C99.393 329.464 99.737 330.376 99.737 331.544C99.737 332.712 99.393 333.632 98.705 334.304C98.033 334.976 97.169 335.312 96.113 335.312C95.041 335.312 94.161 334.976 93.473 334.304C92.801 333.632 92.465 332.712 92.465 331.544ZM96.089 329.456C95.081 329.456 94.577 330.152 94.577 331.544C94.577 332.936 95.081 333.632 96.089 333.632C97.097 333.632 97.601 332.936 97.601 331.544C97.601 330.152 97.097 329.456 96.089 329.456Z" fill="#F0F0F0"/>
<path d="M276.94 60.856H268.9V65.632C269.236 65.184 269.732 64.808 270.388 64.504C271.06 64.2 271.772 64.048 272.524 64.048C273.868 64.048 274.956 64.336 275.788 64.912C276.636 65.488 277.236 66.216 277.588 67.096C277.956 67.976 278.14 68.904 278.14 69.88C278.14 71.064 277.908 72.12 277.444 73.048C276.996 73.96 276.316 74.68 275.404 75.208C274.508 75.736 273.404 76 272.092 76C270.348 76 268.948 75.568 267.892 74.704C266.836 73.84 266.204 72.696 265.996 71.272H268.66C268.836 72.024 269.228 72.624 269.836 73.072C270.444 73.504 271.204 73.72 272.116 73.72C273.252 73.72 274.1 73.376 274.66 72.688C275.236 72 275.524 71.088 275.524 69.952C275.524 68.8 275.236 67.92 274.66 67.312C274.084 66.688 273.236 66.376 272.116 66.376C271.332 66.376 270.668 66.576 270.124 66.976C269.596 67.36 269.212 67.888 268.972 68.56H266.38V58.456H276.94V60.856ZM282.452 76.168C281.956 76.168 281.54 76 281.204 75.664C280.868 75.328 280.7 74.912 280.7 74.416C280.7 73.92 280.868 73.504 281.204 73.168C281.54 72.832 281.956 72.664 282.452 72.664C282.932 72.664 283.34 72.832 283.676 73.168C284.012 73.504 284.18 73.92 284.18 74.416C284.18 74.912 284.012 75.328 283.676 75.664C283.34 76 282.932 76.168 282.452 76.168ZM286.777 67.024C286.777 64.256 287.241 62.096 288.169 60.544C289.113 58.976 290.729 58.192 293.017 58.192C295.305 58.192 296.913 58.976 297.841 60.544C298.785 62.096 299.257 64.256 299.257 67.024C299.257 69.824 298.785 72.016 297.841 73.6C296.913 75.168 295.305 75.952 293.017 75.952C290.729 75.952 289.113 75.168 288.169 73.6C287.241 72.016 286.777 69.824 286.777 67.024ZM296.569 67.024C296.569 65.728 296.481 64.632 296.305 63.736C296.145 62.84 295.809 62.112 295.297 61.552C294.785 60.976 294.025 60.688 293.017 60.688C292.009 60.688 291.249 60.976 290.737 61.552C290.225 62.112 289.881 62.84 289.705 63.736C289.545 64.632 289.465 65.728 289.465 67.024C289.465 68.368 289.545 69.496 289.705 70.408C289.865 71.32 290.201 72.056 290.713 72.616C291.241 73.176 292.009 73.456 293.017 73.456C294.025 73.456 294.785 73.176 295.297 72.616C295.825 72.056 296.169 71.32 296.329 70.408C296.489 69.496 296.569 68.368 296.569 67.024ZM301.72 62.728C301.72 61.56 302.056 60.648 302.728 59.992C303.416 59.32 304.296 58.984 305.368 58.984C306.44 58.984 307.312 59.32 307.984 59.992C308.672 60.648 309.016 61.56 309.016 62.728C309.016 63.896 308.672 64.816 307.984 65.488C307.312 66.16 306.44 66.496 305.368 66.496C304.296 66.496 303.416 66.16 302.728 65.488C302.056 64.816 301.72 63.896 301.72 62.728ZM316.36 59.296L306.784 76H304.096L313.672 59.296H316.36ZM305.368 60.64C304.36 60.64 303.856 61.336 303.856 62.728C303.856 64.136 304.36 64.84 305.368 64.84C305.848 64.84 306.216 64.672 306.472 64.336C306.744 63.984 306.88 63.448 306.88 62.728C306.88 61.336 306.376 60.64 305.368 60.64ZM311.488 72.544C311.488 71.376 311.824 70.464 312.496 69.808C313.184 69.136 314.064 68.8 315.136 68.8C316.192 68.8 317.056 69.136 317.728 69.808C318.416 70.464 318.76 71.376 318.76 72.544C318.76 73.712 318.416 74.632 317.728 75.304C317.056 75.976 316.192 76.312 315.136 76.312C314.064 76.312 313.184 75.976 312.496 75.304C311.824 74.632 311.488 73.712 311.488 72.544ZM315.112 70.456C314.104 70.456 313.6 71.152 313.6 72.544C313.6 73.936 314.104 74.632 315.112 74.632C316.12 74.632 316.624 73.936 316.624 72.544C316.624 71.152 316.12 70.456 315.112 70.456Z" fill="#032A28"/>
<path d="M315.068 436.56C314.892 435.824 314.572 435.272 314.108 434.904C313.644 434.536 312.996 434.352 312.164 434.352C310.9 434.352 309.956 434.84 309.332 435.816C308.708 436.776 308.38 438.376 308.348 440.616C308.764 439.912 309.372 439.368 310.172 438.984C310.972 438.6 311.836 438.408 312.764 438.408C313.82 438.408 314.748 438.64 315.548 439.104C316.364 439.552 316.996 440.208 317.444 441.072C317.908 441.936 318.14 442.968 318.14 444.168C318.14 445.288 317.916 446.288 317.468 447.168C317.036 448.048 316.388 448.744 315.524 449.256C314.66 449.752 313.62 450 312.404 450C310.756 450 309.46 449.64 308.516 448.92C307.588 448.184 306.932 447.152 306.548 445.824C306.18 444.496 305.996 442.84 305.996 440.856C305.996 435 308.06 432.072 312.188 432.072C313.788 432.072 315.044 432.504 315.956 433.368C316.884 434.232 317.428 435.296 317.588 436.56H315.068ZM312.164 440.712C311.188 440.712 310.356 441.008 309.668 441.6C308.996 442.176 308.66 443.016 308.66 444.12C308.66 445.224 308.972 446.104 309.596 446.76C310.236 447.4 311.124 447.72 312.26 447.72C313.268 447.72 314.06 447.408 314.636 446.784C315.228 446.16 315.524 445.328 315.524 444.288C315.524 443.2 315.236 442.336 314.66 441.696C314.1 441.04 313.268 440.712 312.164 440.712ZM322.523 450.168C322.027 450.168 321.611 450 321.275 449.664C320.939 449.328 320.771 448.912 320.771 448.416C320.771 447.92 320.939 447.504 321.275 447.168C321.611 446.832 322.027 446.664 322.523 446.664C323.003 446.664 323.411 446.832 323.747 447.168C324.083 447.504 324.251 447.92 324.251 448.416C324.251 448.912 324.083 449.328 323.747 449.664C323.411 450 323.003 450.168 322.523 450.168ZM326.848 441.024C326.848 438.256 327.312 436.096 328.24 434.544C329.184 432.976 330.8 432.192 333.088 432.192C335.376 432.192 336.984 432.976 337.912 434.544C338.856 436.096 339.328 438.256 339.328 441.024C339.328 443.824 338.856 446.016 337.912 447.6C336.984 449.168 335.376 449.952 333.088 449.952C330.8 449.952 329.184 449.168 328.24 447.6C327.312 446.016 326.848 443.824 326.848 441.024ZM336.64 441.024C336.64 439.728 336.552 438.632 336.376 437.736C336.216 436.84 335.88 436.112 335.368 435.552C334.856 434.976 334.096 434.688 333.088 434.688C332.08 434.688 331.32 434.976 330.808 435.552C330.296 436.112 329.952 436.84 329.776 437.736C329.616 438.632 329.536 439.728 329.536 441.024C329.536 442.368 329.616 443.496 329.776 444.408C329.936 445.32 330.272 446.056 330.784 446.616C331.312 447.176 332.08 447.456 333.088 447.456C334.096 447.456 334.856 447.176 335.368 446.616C335.896 446.056 336.24 445.32 336.4 444.408C336.56 443.496 336.64 442.368 336.64 441.024ZM341.791 436.728C341.791 435.56 342.127 434.648 342.799 433.992C343.487 433.32 344.367 432.984 345.439 432.984C346.511 432.984 347.383 433.32 348.055 433.992C348.743 434.648 349.087 435.56 349.087 436.728C349.087 437.896 348.743 438.816 348.055 439.488C347.383 440.16 346.511 440.496 345.439 440.496C344.367 440.496 343.487 440.16 342.799 439.488C342.127 438.816 341.791 437.896 341.791 436.728ZM356.431 433.296L346.855 450H344.167L353.743 433.296H356.431ZM345.439 434.64C344.431 434.64 343.927 435.336 343.927 436.728C343.927 438.136 344.431 438.84 345.439 438.84C345.919 438.84 346.287 438.672 346.543 438.336C346.815 437.984 346.951 437.448 346.951 436.728C346.951 435.336 346.447 434.64 345.439 434.64ZM351.559 446.544C351.559 445.376 351.895 444.464 352.567 443.808C353.255 443.136 354.135 442.8 355.207 442.8C356.263 442.8 357.127 443.136 357.799 443.808C358.487 444.464 358.831 445.376 358.831 446.544C358.831 447.712 358.487 448.632 357.799 449.304C357.127 449.976 356.263 450.312 355.207 450.312C354.135 450.312 353.255 449.976 352.567 449.304C351.895 448.632 351.559 447.712 351.559 446.544ZM355.183 444.456C354.175 444.456 353.671 445.152 353.671 446.544C353.671 447.936 354.175 448.632 355.183 448.632C356.191 448.632 356.695 447.936 356.695 446.544C356.695 445.152 356.191 444.456 355.183 444.456Z" fill="#F0F0F0"/>
<path d="M388.3 373V370.504H393.292V388H390.532V373H388.3ZM398.563 384.28C400.099 382.952 401.307 381.864 402.187 381.016C403.083 380.152 403.827 379.256 404.419 378.328C405.011 377.4 405.307 376.472 405.307 375.544C405.307 374.584 405.075 373.832 404.611 373.288C404.163 372.744 403.451 372.472 402.475 372.472C401.531 372.472 400.795 372.776 400.267 373.384C399.755 373.976 399.483 374.776 399.451 375.784H396.811C396.859 373.96 397.403 372.568 398.443 371.608C399.499 370.632 400.835 370.144 402.451 370.144C404.195 370.144 405.555 370.624 406.531 371.584C407.523 372.544 408.019 373.824 408.019 375.424C408.019 376.576 407.723 377.688 407.131 378.76C406.555 379.816 405.859 380.768 405.043 381.616C404.243 382.448 403.219 383.416 401.971 384.52L400.891 385.48H408.499V387.76H396.835V385.768L398.563 384.28ZM412.366 388.168C411.87 388.168 411.454 388 411.118 387.664C410.782 387.328 410.614 386.912 410.614 386.416C410.614 385.92 410.782 385.504 411.118 385.168C411.454 384.832 411.87 384.664 412.366 384.664C412.846 384.664 413.254 384.832 413.59 385.168C413.926 385.504 414.094 385.92 414.094 386.416C414.094 386.912 413.926 387.328 413.59 387.664C413.254 388 412.846 388.168 412.366 388.168ZM416.691 379.024C416.691 376.256 417.155 374.096 418.083 372.544C419.027 370.976 420.643 370.192 422.931 370.192C425.219 370.192 426.827 370.976 427.755 372.544C428.699 374.096 429.171 376.256 429.171 379.024C429.171 381.824 428.699 384.016 427.755 385.6C426.827 387.168 425.219 387.952 422.931 387.952C420.643 387.952 419.027 387.168 418.083 385.6C417.155 384.016 416.691 381.824 416.691 379.024ZM426.483 379.024C426.483 377.728 426.395 376.632 426.219 375.736C426.059 374.84 425.723 374.112 425.211 373.552C424.699 372.976 423.939 372.688 422.931 372.688C421.923 372.688 421.163 372.976 420.651 373.552C420.139 374.112 419.795 374.84 419.619 375.736C419.459 376.632 419.379 377.728 419.379 379.024C419.379 380.368 419.459 381.496 419.619 382.408C419.779 383.32 420.115 384.056 420.627 384.616C421.155 385.176 421.923 385.456 422.931 385.456C423.939 385.456 424.699 385.176 425.211 384.616C425.739 384.056 426.083 383.32 426.243 382.408C426.403 381.496 426.483 380.368 426.483 379.024ZM431.634 374.728C431.634 373.56 431.97 372.648 432.642 371.992C433.33 371.32 434.21 370.984 435.282 370.984C436.354 370.984 437.226 371.32 437.898 371.992C438.586 372.648 438.93 373.56 438.93 374.728C438.93 375.896 438.586 376.816 437.898 377.488C437.226 378.16 436.354 378.496 435.282 378.496C434.21 378.496 433.33 378.16 432.642 377.488C431.97 376.816 431.634 375.896 431.634 374.728ZM446.274 371.296L436.698 388H434.01L443.586 371.296H446.274ZM435.282 372.64C434.274 372.64 433.77 373.336 433.77 374.728C433.77 376.136 434.274 376.84 435.282 376.84C435.762 376.84 436.13 376.672 436.386 376.336C436.658 375.984 436.794 375.448 436.794 374.728C436.794 373.336 436.29 372.64 435.282 372.64ZM441.402 384.544C441.402 383.376 441.738 382.464 442.41 381.808C443.098 381.136 443.978 380.8 445.05 380.8C446.106 380.8 446.97 381.136 447.642 381.808C448.33 382.464 448.674 383.376 448.674 384.544C448.674 385.712 448.33 386.632 447.642 387.304C446.97 387.976 446.106 388.312 445.05 388.312C443.978 388.312 443.098 387.976 442.41 387.304C441.738 386.632 441.402 385.712 441.402 384.544ZM445.026 382.456C444.018 382.456 443.514 383.152 443.514 384.544C443.514 385.936 444.018 386.632 445.026 386.632C446.034 386.632 446.538 385.936 446.538 384.544C446.538 383.152 446.034 382.456 445.026 382.456Z" fill="#F0F0F0"/>
<path d="M468.42 322.52C468.42 320.213 468.807 318.413 469.58 317.12C470.367 315.813 471.714 315.16 473.62 315.16C475.527 315.16 476.867 315.813 477.64 317.12C478.427 318.413 478.82 320.213 478.82 322.52C478.82 324.853 478.427 326.68 477.64 328C476.867 329.307 475.527 329.96 473.62 329.96C471.714 329.96 470.367 329.307 469.58 328C468.807 326.68 468.42 324.853 468.42 322.52ZM476.58 322.52C476.58 321.44 476.507 320.527 476.36 319.78C476.227 319.033 475.947 318.427 475.52 317.96C475.094 317.48 474.46 317.24 473.62 317.24C472.78 317.24 472.147 317.48 471.72 317.96C471.294 318.427 471.007 319.033 470.86 319.78C470.727 320.527 470.66 321.44 470.66 322.52C470.66 323.64 470.727 324.58 470.86 325.34C470.994 326.1 471.274 326.713 471.7 327.18C472.14 327.647 472.78 327.88 473.62 327.88C474.46 327.88 475.094 327.647 475.52 327.18C475.96 326.713 476.247 326.1 476.38 325.34C476.514 324.58 476.58 323.64 476.58 322.52ZM482.453 330.14C482.039 330.14 481.693 330 481.413 329.72C481.133 329.44 480.993 329.093 480.993 328.68C480.993 328.267 481.133 327.92 481.413 327.64C481.693 327.36 482.039 327.22 482.453 327.22C482.853 327.22 483.193 327.36 483.473 327.64C483.753 327.92 483.893 328.267 483.893 328.68C483.893 329.093 483.753 329.44 483.473 329.72C483.193 330 482.853 330.14 482.453 330.14ZM493.897 318.8C493.75 318.187 493.484 317.727 493.097 317.42C492.71 317.113 492.17 316.96 491.477 316.96C490.424 316.96 489.637 317.367 489.117 318.18C488.597 318.98 488.324 320.313 488.297 322.18C488.644 321.593 489.15 321.14 489.817 320.82C490.484 320.5 491.204 320.34 491.977 320.34C492.857 320.34 493.63 320.533 494.297 320.92C494.977 321.293 495.504 321.84 495.877 322.56C496.264 323.28 496.457 324.14 496.457 325.14C496.457 326.073 496.27 326.907 495.897 327.64C495.537 328.373 494.997 328.953 494.277 329.38C493.557 329.793 492.69 330 491.677 330C490.304 330 489.224 329.7 488.437 329.1C487.664 328.487 487.117 327.627 486.797 326.52C486.49 325.413 486.337 324.033 486.337 322.38C486.337 317.5 488.057 315.06 491.497 315.06C492.83 315.06 493.877 315.42 494.637 316.14C495.41 316.86 495.864 317.747 495.997 318.8H493.897ZM491.477 322.26C490.664 322.26 489.97 322.507 489.397 323C488.837 323.48 488.557 324.18 488.557 325.1C488.557 326.02 488.817 326.753 489.337 327.3C489.87 327.833 490.61 328.1 491.557 328.1C492.397 328.1 493.057 327.84 493.537 327.32C494.03 326.8 494.277 326.107 494.277 325.24C494.277 324.333 494.037 323.613 493.557 323.08C493.09 322.533 492.397 322.26 491.477 322.26ZM498.529 318.94C498.529 317.967 498.809 317.207 499.369 316.66C499.942 316.1 500.676 315.82 501.569 315.82C502.462 315.82 503.189 316.1 503.749 316.66C504.322 317.207 504.609 317.967 504.609 318.94C504.609 319.913 504.322 320.68 503.749 321.24C503.189 321.8 502.462 322.08 501.569 322.08C500.676 322.08 499.942 321.8 499.369 321.24C498.809 320.68 498.529 319.913 498.529 318.94ZM510.729 316.08L502.749 330H500.509L508.489 316.08H510.729ZM501.569 317.2C500.729 317.2 500.309 317.78 500.309 318.94C500.309 320.113 500.729 320.7 501.569 320.7C501.969 320.7 502.276 320.56 502.489 320.28C502.716 319.987 502.829 319.54 502.829 318.94C502.829 317.78 502.409 317.2 501.569 317.2ZM506.669 327.12C506.669 326.147 506.949 325.387 507.509 324.84C508.082 324.28 508.816 324 509.709 324C510.589 324 511.309 324.28 511.869 324.84C512.442 325.387 512.729 326.147 512.729 327.12C512.729 328.093 512.442 328.86 511.869 329.42C511.309 329.98 510.589 330.26 509.709 330.26C508.816 330.26 508.082 329.98 507.509 329.42C506.949 328.86 506.669 328.093 506.669 327.12ZM509.689 325.38C508.849 325.38 508.429 325.96 508.429 327.12C508.429 328.28 508.849 328.86 509.689 328.86C510.529 328.86 510.949 328.28 510.949 327.12C510.949 325.96 510.529 325.38 509.689 325.38Z" fill="#032A28"/>
<path d="M266.68 506.9C267.96 505.793 268.967 504.887 269.7 504.18C270.447 503.46 271.067 502.713 271.56 501.94C272.054 501.167 272.3 500.393 272.3 499.62C272.3 498.82 272.107 498.193 271.72 497.74C271.347 497.287 270.754 497.06 269.94 497.06C269.154 497.06 268.54 497.313 268.1 497.82C267.674 498.313 267.447 498.98 267.42 499.82H265.22C265.26 498.3 265.714 497.14 266.58 496.34C267.46 495.527 268.574 495.12 269.92 495.12C271.374 495.12 272.507 495.52 273.32 496.32C274.147 497.12 274.56 498.187 274.56 499.52C274.56 500.48 274.314 501.407 273.82 502.3C273.34 503.18 272.76 503.973 272.08 504.68C271.414 505.373 270.56 506.18 269.52 507.1L268.62 507.9H274.96V509.8H265.24V508.14L266.68 506.9ZM278.183 510.14C277.77 510.14 277.423 510 277.143 509.72C276.863 509.44 276.723 509.093 276.723 508.68C276.723 508.267 276.863 507.92 277.143 507.64C277.423 507.36 277.77 507.22 278.183 507.22C278.583 507.22 278.923 507.36 279.203 507.64C279.483 507.92 279.623 508.267 279.623 508.68C279.623 509.093 279.483 509.44 279.203 509.72C278.923 510 278.583 510.14 278.183 510.14ZM291.187 497.38H284.487V501.36C284.767 500.987 285.181 500.673 285.727 500.42C286.287 500.167 286.881 500.04 287.507 500.04C288.627 500.04 289.534 500.28 290.227 500.76C290.934 501.24 291.434 501.847 291.727 502.58C292.034 503.313 292.187 504.087 292.187 504.9C292.187 505.887 291.994 506.767 291.607 507.54C291.234 508.3 290.667 508.9 289.907 509.34C289.161 509.78 288.241 510 287.147 510C285.694 510 284.527 509.64 283.647 508.92C282.767 508.2 282.241 507.247 282.067 506.06H284.287C284.434 506.687 284.761 507.187 285.267 507.56C285.774 507.92 286.407 508.1 287.167 508.1C288.114 508.1 288.821 507.813 289.287 507.24C289.767 506.667 290.007 505.907 290.007 504.96C290.007 504 289.767 503.267 289.287 502.76C288.807 502.24 288.101 501.98 287.167 501.98C286.514 501.98 285.961 502.147 285.507 502.48C285.067 502.8 284.747 503.24 284.547 503.8H282.387V495.38H291.187V497.38ZM294.201 498.94C294.201 497.967 294.481 497.207 295.041 496.66C295.614 496.1 296.348 495.82 297.241 495.82C298.134 495.82 298.861 496.1 299.421 496.66C299.994 497.207 300.281 497.967 300.281 498.94C300.281 499.913 299.994 500.68 299.421 501.24C298.861 501.8 298.134 502.08 297.241 502.08C296.348 502.08 295.614 501.8 295.041 501.24C294.481 500.68 294.201 499.913 294.201 498.94ZM306.401 496.08L298.421 510H296.181L304.161 496.08H306.401ZM297.241 497.2C296.401 497.2 295.981 497.78 295.981 498.94C295.981 500.113 296.401 500.7 297.241 500.7C297.641 500.7 297.948 500.56 298.161 500.28C298.388 499.987 298.501 499.54 298.501 498.94C298.501 497.78 298.081 497.2 297.241 497.2ZM302.341 507.12C302.341 506.147 302.621 505.387 303.181 504.84C303.754 504.28 304.488 504 305.381 504C306.261 504 306.981 504.28 307.541 504.84C308.114 505.387 308.401 506.147 308.401 507.12C308.401 508.093 308.114 508.86 307.541 509.42C306.981 509.98 306.261 510.26 305.381 510.26C304.488 510.26 303.754 509.98 303.181 509.42C302.621 508.86 302.341 508.093 302.341 507.12ZM305.361 505.38C304.521 505.38 304.101 505.96 304.101 507.12C304.101 508.28 304.521 508.86 305.361 508.86C306.201 508.86 306.621 508.28 306.621 507.12C306.621 505.96 306.201 505.38 305.361 505.38Z" fill="#F0F0F0"/>
</svg>
