<svg width="40" height="40" viewBox="0 0 40 40" fill="none" xmlns="http://www.w3.org/2000/svg">
<rect width="40" height="40" rx="20" fill="white"/>
<path d="M9.71595 6.37649L9.81011 6.30566C11.7744 8.66668 17.3705 15.0796 20.5887 15.0796C23.0746 15.0796 24.5061 11.3244 24.7009 10.7818L24.8144 10.8213C24.8144 10.8213 23.0289 15.8011 24.7069 17.1132C26.3571 18.4033 33.3013 16.2253 33.8957 16.0376L33.9295 16.1505C33.9295 16.1505 25.9497 18.5709 25.4426 20.8778C25.0801 22.5266 27.1583 24.8548 27.7132 25.4521L27.6296 25.5323C27.6296 25.5323 25.2146 22.832 23.4172 23.5869C20.7445 24.7098 19.2163 32.563 19.0313 33.6688L18.9134 33.6467C18.9134 33.6467 20.5902 24.7972 16.3903 22.8124C14.031 21.6968 8.20771 23.1204 7.28386 23.3508L7.25 23.2353C7.25 23.2353 15.3949 21.1991 15.3949 16.723C15.3949 13.1 9.71595 6.37649 9.71595 6.37649Z" fill="#0F0F0F"/>
</svg>
