<svg width="1140" height="665" viewBox="0 0 1140 665" fill="none" xmlns="http://www.w3.org/2000/svg">
<path d="M49.36 96.7041V101.364H54.44V102.864H49.36V107.664H55.04V109.164H47.54V95.2041H55.04V96.7041H49.36ZM57.1139 103.664C57.1139 102.531 57.3406 101.544 57.7939 100.704C58.2472 99.8507 58.8739 99.1907 59.6739 98.7241C60.4872 98.2574 61.4139 98.0241 62.4539 98.0241C63.8006 98.0241 64.9072 98.3507 65.7739 99.0041C66.6539 99.6574 67.2339 100.564 67.5139 101.724H65.5539C65.3672 101.057 65.0006 100.531 64.4539 100.144C63.9206 99.7574 63.2539 99.5641 62.4539 99.5641C61.4139 99.5641 60.5739 99.9241 59.9339 100.644C59.2939 101.351 58.9739 102.357 58.9739 103.664C58.9739 104.984 59.2939 106.004 59.9339 106.724C60.5739 107.444 61.4139 107.804 62.4539 107.804C63.2539 107.804 63.9206 107.617 64.4539 107.244C64.9872 106.871 65.3539 106.337 65.5539 105.644H67.5139C67.2206 106.764 66.6339 107.664 65.7539 108.344C64.8739 109.011 63.7739 109.344 62.4539 109.344C61.4139 109.344 60.4872 109.111 59.6739 108.644C58.8739 108.177 58.2472 107.517 57.7939 106.664C57.3406 105.811 57.1139 104.811 57.1139 103.664ZM74.7223 109.344C73.6957 109.344 72.7623 109.111 71.9223 108.644C71.0957 108.177 70.4423 107.517 69.9623 106.664C69.4957 105.797 69.2623 104.797 69.2623 103.664C69.2623 102.544 69.5023 101.557 69.9823 100.704C70.4757 99.8374 71.1423 99.1774 71.9823 98.7241C72.8223 98.2574 73.7623 98.0241 74.8023 98.0241C75.8423 98.0241 76.7823 98.2574 77.6223 98.7241C78.4623 99.1774 79.1223 99.8307 79.6023 100.684C80.0957 101.537 80.3423 102.531 80.3423 103.664C80.3423 104.797 80.089 105.797 79.5823 106.664C79.089 107.517 78.4157 108.177 77.5623 108.644C76.709 109.111 75.7623 109.344 74.7223 109.344ZM74.7223 107.744C75.3757 107.744 75.989 107.591 76.5623 107.284C77.1357 106.977 77.5957 106.517 77.9423 105.904C78.3023 105.291 78.4823 104.544 78.4823 103.664C78.4823 102.784 78.309 102.037 77.9623 101.424C77.6157 100.811 77.1623 100.357 76.6023 100.064C76.0423 99.7574 75.4357 99.6041 74.7823 99.6041C74.1157 99.6041 73.5023 99.7574 72.9423 100.064C72.3957 100.357 71.9557 100.811 71.6223 101.424C71.289 102.037 71.1223 102.784 71.1223 103.664C71.1223 104.557 71.2823 105.311 71.6023 105.924C71.9357 106.537 72.3757 106.997 72.9223 107.304C73.469 107.597 74.069 107.744 74.7223 107.744ZM86.6153 109.344C85.7753 109.344 85.022 109.204 84.3553 108.924C83.6886 108.631 83.162 108.231 82.7753 107.724C82.3886 107.204 82.1753 106.611 82.1353 105.944H84.0153C84.0686 106.491 84.322 106.937 84.7753 107.284C85.242 107.631 85.8486 107.804 86.5953 107.804C87.2886 107.804 87.8353 107.651 88.2353 107.344C88.6353 107.037 88.8353 106.651 88.8353 106.184C88.8353 105.704 88.622 105.351 88.1953 105.124C87.7686 104.884 87.1086 104.651 86.2153 104.424C85.402 104.211 84.7353 103.997 84.2153 103.784C83.7086 103.557 83.2686 103.231 82.8953 102.804C82.5353 102.364 82.3553 101.791 82.3553 101.084C82.3553 100.524 82.522 100.011 82.8553 99.5441C83.1886 99.0774 83.662 98.7107 84.2753 98.4441C84.8886 98.1641 85.5886 98.0241 86.3753 98.0241C87.5886 98.0241 88.5686 98.3307 89.3153 98.9441C90.062 99.5574 90.462 100.397 90.5153 101.464H88.6953C88.6553 100.891 88.422 100.431 87.9953 100.084C87.582 99.7374 87.022 99.5641 86.3153 99.5641C85.662 99.5641 85.142 99.7041 84.7553 99.9841C84.3686 100.264 84.1753 100.631 84.1753 101.084C84.1753 101.444 84.2886 101.744 84.5153 101.984C84.7553 102.211 85.0486 102.397 85.3953 102.544C85.7553 102.677 86.2486 102.831 86.8753 103.004C87.662 103.217 88.302 103.431 88.7953 103.644C89.2886 103.844 89.7086 104.151 90.0553 104.564C90.4153 104.977 90.602 105.517 90.6153 106.184C90.6153 106.784 90.4486 107.324 90.1153 107.804C89.782 108.284 89.3086 108.664 88.6953 108.944C88.0953 109.211 87.402 109.344 86.6153 109.344ZM102.625 98.2041L96.0245 114.324H94.1445L96.3045 109.044L91.8845 98.2041H93.9045L97.3445 107.084L100.745 98.2041H102.625ZM108.334 109.344C107.494 109.344 106.741 109.204 106.074 108.924C105.407 108.631 104.881 108.231 104.494 107.724C104.107 107.204 103.894 106.611 103.854 105.944H105.734C105.787 106.491 106.041 106.937 106.494 107.284C106.961 107.631 107.567 107.804 108.314 107.804C109.007 107.804 109.554 107.651 109.954 107.344C110.354 107.037 110.554 106.651 110.554 106.184C110.554 105.704 110.341 105.351 109.914 105.124C109.487 104.884 108.827 104.651 107.934 104.424C107.121 104.211 106.454 103.997 105.934 103.784C105.427 103.557 104.987 103.231 104.614 102.804C104.254 102.364 104.074 101.791 104.074 101.084C104.074 100.524 104.241 100.011 104.574 99.5441C104.907 99.0774 105.381 98.7107 105.994 98.4441C106.607 98.1641 107.307 98.0241 108.094 98.0241C109.307 98.0241 110.287 98.3307 111.034 98.9441C111.781 99.5574 112.181 100.397 112.234 101.464H110.414C110.374 100.891 110.141 100.431 109.714 100.084C109.301 99.7374 108.741 99.5641 108.034 99.5641C107.381 99.5641 106.861 99.7041 106.474 99.9841C106.087 100.264 105.894 100.631 105.894 101.084C105.894 101.444 106.007 101.744 106.234 101.984C106.474 102.211 106.767 102.397 107.114 102.544C107.474 102.677 107.967 102.831 108.594 103.004C109.381 103.217 110.021 103.431 110.514 103.644C111.007 103.844 111.427 104.151 111.774 104.564C112.134 104.977 112.321 105.517 112.334 106.184C112.334 106.784 112.167 107.324 111.834 107.804C111.501 108.284 111.027 108.664 110.414 108.944C109.814 109.211 109.121 109.344 108.334 109.344ZM117.123 99.7041V106.164C117.123 106.697 117.237 107.077 117.463 107.304C117.69 107.517 118.083 107.624 118.643 107.624H119.983V109.164H118.343C117.33 109.164 116.57 108.931 116.063 108.464C115.557 107.997 115.303 107.231 115.303 106.164V99.7041H113.883V98.2041H115.303V95.4441H117.123V98.2041H119.983V99.7041H117.123ZM132.188 103.264C132.188 103.611 132.168 103.977 132.128 104.364H123.368C123.435 105.444 123.802 106.291 124.468 106.904C125.148 107.504 125.968 107.804 126.928 107.804C127.715 107.804 128.368 107.624 128.888 107.264C129.422 106.891 129.795 106.397 130.008 105.784H131.968C131.675 106.837 131.088 107.697 130.208 108.364C129.328 109.017 128.235 109.344 126.928 109.344C125.888 109.344 124.955 109.111 124.128 108.644C123.315 108.177 122.675 107.517 122.208 106.664C121.742 105.797 121.508 104.797 121.508 103.664C121.508 102.531 121.735 101.537 122.188 100.684C122.642 99.8307 123.275 99.1774 124.088 98.7241C124.915 98.2574 125.862 98.0241 126.928 98.0241C127.968 98.0241 128.888 98.2507 129.688 98.7041C130.488 99.1574 131.102 99.7841 131.528 100.584C131.968 101.371 132.188 102.264 132.188 103.264ZM130.308 102.884C130.308 102.191 130.155 101.597 129.848 101.104C129.542 100.597 129.122 100.217 128.588 99.9641C128.068 99.6974 127.488 99.5641 126.848 99.5641C125.928 99.5641 125.142 99.8574 124.488 100.444C123.848 101.031 123.482 101.844 123.388 102.884H130.308ZM147.771 98.0041C148.624 98.0041 149.384 98.1841 150.051 98.5441C150.717 98.8907 151.244 99.4174 151.631 100.124C152.017 100.831 152.211 101.691 152.211 102.704V109.164H150.411V102.964C150.411 101.871 150.137 101.037 149.591 100.464C149.057 99.8774 148.331 99.5841 147.411 99.5841C146.464 99.5841 145.711 99.8907 145.151 100.504C144.591 101.104 144.311 101.977 144.311 103.124V109.164H142.511V102.964C142.511 101.871 142.237 101.037 141.691 100.464C141.157 99.8774 140.431 99.5841 139.511 99.5841C138.564 99.5841 137.811 99.8907 137.251 100.504C136.691 101.104 136.411 101.977 136.411 103.124V109.164H134.591V98.2041H136.411V99.7841C136.771 99.2107 137.251 98.7707 137.851 98.4641C138.464 98.1574 139.137 98.0041 139.871 98.0041C140.791 98.0041 141.604 98.2107 142.311 98.6241C143.017 99.0374 143.544 99.6441 143.891 100.444C144.197 99.6707 144.704 99.0707 145.411 98.6441C146.117 98.2174 146.904 98.0041 147.771 98.0041ZM171.088 99.2641C170.702 98.4507 170.142 97.8241 169.408 97.3841C168.675 96.9307 167.822 96.7041 166.848 96.7041C165.875 96.7041 164.995 96.9307 164.208 97.3841C163.435 97.8241 162.822 98.4641 162.368 99.3041C161.928 100.131 161.708 101.091 161.708 102.184C161.708 103.277 161.928 104.237 162.368 105.064C162.822 105.891 163.435 106.531 164.208 106.984C164.995 107.424 165.875 107.644 166.848 107.644C168.208 107.644 169.328 107.237 170.208 106.424C171.088 105.611 171.602 104.511 171.748 103.124H166.188V101.644H173.688V103.044C173.582 104.191 173.222 105.244 172.608 106.204C171.995 107.151 171.188 107.904 170.188 108.464C169.188 109.011 168.075 109.284 166.848 109.284C165.555 109.284 164.375 108.984 163.308 108.384C162.242 107.771 161.395 106.924 160.768 105.844C160.155 104.764 159.848 103.544 159.848 102.184C159.848 100.824 160.155 99.6041 160.768 98.5241C161.395 97.4307 162.242 96.5841 163.308 95.9841C164.375 95.3707 165.555 95.0641 166.848 95.0641C168.328 95.0641 169.635 95.4307 170.768 96.1641C171.915 96.8974 172.748 97.9307 173.268 99.2641H171.088ZM177.915 99.9841C178.235 99.3574 178.688 98.8707 179.275 98.5241C179.875 98.1774 180.601 98.0041 181.455 98.0041V99.8841H180.975C178.935 99.8841 177.915 100.991 177.915 103.204V109.164H176.095V98.2041H177.915V99.9841ZM188.336 109.344C187.309 109.344 186.376 109.111 185.536 108.644C184.709 108.177 184.056 107.517 183.576 106.664C183.109 105.797 182.876 104.797 182.876 103.664C182.876 102.544 183.116 101.557 183.596 100.704C184.089 99.8374 184.756 99.1774 185.596 98.7241C186.436 98.2574 187.376 98.0241 188.416 98.0241C189.456 98.0241 190.396 98.2574 191.236 98.7241C192.076 99.1774 192.736 99.8307 193.216 100.684C193.709 101.537 193.956 102.531 193.956 103.664C193.956 104.797 193.702 105.797 193.196 106.664C192.702 107.517 192.029 108.177 191.176 108.644C190.322 109.111 189.376 109.344 188.336 109.344ZM188.336 107.744C188.989 107.744 189.602 107.591 190.176 107.284C190.749 106.977 191.209 106.517 191.556 105.904C191.916 105.291 192.096 104.544 192.096 103.664C192.096 102.784 191.922 102.037 191.576 101.424C191.229 100.811 190.776 100.357 190.216 100.064C189.656 99.7574 189.049 99.6041 188.396 99.6041C187.729 99.6041 187.116 99.7574 186.556 100.064C186.009 100.357 185.569 100.811 185.236 101.424C184.902 102.037 184.736 102.784 184.736 103.664C184.736 104.557 184.896 105.311 185.216 105.924C185.549 106.537 185.989 106.997 186.536 107.304C187.082 107.597 187.682 107.744 188.336 107.744ZM210.949 98.2041L207.529 109.164H205.649L203.009 100.464L200.369 109.164H198.489L195.049 98.2041H196.909L199.429 107.404L202.149 98.2041H204.009L206.669 107.424L209.149 98.2041H210.949ZM214.975 99.7041V106.164C214.975 106.697 215.088 107.077 215.315 107.304C215.542 107.517 215.935 107.624 216.495 107.624H217.835V109.164H216.195C215.182 109.164 214.422 108.931 213.915 108.464C213.408 107.997 213.155 107.231 213.155 106.164V99.7041H211.735V98.2041H213.155V95.4441H214.975V98.2041H217.835V99.7041H214.975ZM225.48 98.0041C226.307 98.0041 227.053 98.1841 227.72 98.5441C228.387 98.8907 228.907 99.4174 229.28 100.124C229.667 100.831 229.86 101.691 229.86 102.704V109.164H228.06V102.964C228.06 101.871 227.787 101.037 227.24 100.464C226.693 99.8774 225.947 99.5841 225 99.5841C224.04 99.5841 223.273 99.8841 222.7 100.484C222.14 101.084 221.86 101.957 221.86 103.104V109.164H220.04V94.3641H221.86V99.7641C222.22 99.2041 222.713 98.7707 223.34 98.4641C223.98 98.1574 224.693 98.0041 225.48 98.0041Z" fill="#575757"/>
<path d="M350.621 122.542L351.104 121.667L350.878 121.542H350.621V122.542ZM40.2265 122.542L46 128.315L51.7735 122.542L46 116.768L40.2265 122.542ZM373.593 134.089L351.104 121.667L350.137 123.417L372.626 135.839L373.593 134.089ZM350.621 121.542H46V123.542H350.621V121.542Z" fill="#575757"/>
<path d="M9.36 376.514H14.24V377.994H7.54V364.054H9.36V376.514ZM17.1128 365.254C16.7661 365.254 16.4728 365.134 16.2328 364.894C15.9928 364.654 15.8728 364.361 15.8728 364.014C15.8728 363.667 15.9928 363.374 16.2328 363.134C16.4728 362.894 16.7661 362.774 17.1128 362.774C17.4461 362.774 17.7261 362.894 17.9528 363.134C18.1928 363.374 18.3128 363.667 18.3128 364.014C18.3128 364.361 18.1928 364.654 17.9528 364.894C17.7261 365.134 17.4461 365.254 17.1128 365.254ZM17.9928 367.034V377.994H16.1728V367.034H17.9928ZM20.4147 372.474C20.4147 371.354 20.6414 370.374 21.0947 369.534C21.548 368.681 22.168 368.021 22.9547 367.554C23.7547 367.087 24.648 366.854 25.6347 366.854C26.5814 366.854 27.408 367.067 28.1147 367.494C28.8347 367.907 29.3614 368.421 29.6947 369.034V367.034H31.5347V383.194H29.6947V375.974C29.348 376.587 28.8147 377.107 28.0947 377.534C27.3747 377.961 26.5347 378.174 25.5747 378.174C24.6147 378.174 23.7414 377.934 22.9547 377.454C22.168 376.974 21.548 376.301 21.0947 375.434C20.6414 374.567 20.4147 373.581 20.4147 372.474ZM29.6947 372.494C29.6947 371.667 29.528 370.947 29.1947 370.334C28.8614 369.721 28.408 369.254 27.8347 368.934C27.2747 368.601 26.6547 368.434 25.9747 368.434C25.2947 368.434 24.6747 368.594 24.1147 368.914C23.5547 369.234 23.108 369.701 22.7747 370.314C22.4414 370.927 22.2747 371.647 22.2747 372.474C22.2747 373.314 22.4414 374.047 22.7747 374.674C23.108 375.287 23.5547 375.761 24.1147 376.094C24.6747 376.414 25.2947 376.574 25.9747 376.574C26.6547 376.574 27.2747 376.414 27.8347 376.094C28.408 375.761 28.8614 375.287 29.1947 374.674C29.528 374.047 29.6947 373.321 29.6947 372.494ZM44.3303 367.034V377.994H42.5103V376.374C42.1636 376.934 41.677 377.374 41.0503 377.694C40.437 378.001 39.757 378.154 39.0103 378.154C38.157 378.154 37.3903 377.981 36.7103 377.634C36.0303 377.274 35.4903 376.741 35.0903 376.034C34.7036 375.327 34.5103 374.467 34.5103 373.454V367.034H36.3103V373.214C36.3103 374.294 36.5836 375.127 37.1303 375.714C37.677 376.287 38.4236 376.574 39.3703 376.574C40.3436 376.574 41.1103 376.274 41.6703 375.674C42.2303 375.074 42.5103 374.201 42.5103 373.054V367.034H44.3303ZM48.3433 365.254C47.9966 365.254 47.7033 365.134 47.4633 364.894C47.2233 364.654 47.1033 364.361 47.1033 364.014C47.1033 363.667 47.2233 363.374 47.4633 363.134C47.7033 362.894 47.9966 362.774 48.3433 362.774C48.6766 362.774 48.9566 362.894 49.1833 363.134C49.4233 363.374 49.5433 363.667 49.5433 364.014C49.5433 364.361 49.4233 364.654 49.1833 364.894C48.9566 365.134 48.6766 365.254 48.3433 365.254ZM49.2233 367.034V377.994H47.4033V367.034H49.2233ZM51.6452 372.474C51.6452 371.354 51.8718 370.374 52.3252 369.534C52.7785 368.681 53.3985 368.021 54.1852 367.554C54.9852 367.087 55.8785 366.854 56.8652 366.854C57.7185 366.854 58.5118 367.054 59.2452 367.454C59.9785 367.841 60.5385 368.354 60.9252 368.994V363.194H62.7652V377.994H60.9252V375.934C60.5652 376.587 60.0318 377.127 59.3252 377.554C58.6185 377.967 57.7918 378.174 56.8452 378.174C55.8718 378.174 54.9852 377.934 54.1852 377.454C53.3985 376.974 52.7785 376.301 52.3252 375.434C51.8718 374.567 51.6452 373.581 51.6452 372.474ZM60.9252 372.494C60.9252 371.667 60.7585 370.947 60.4252 370.334C60.0918 369.721 59.6385 369.254 59.0652 368.934C58.5052 368.601 57.8852 368.434 57.2052 368.434C56.5252 368.434 55.9052 368.594 55.3452 368.914C54.7852 369.234 54.3385 369.701 54.0052 370.314C53.6718 370.927 53.5052 371.647 53.5052 372.474C53.5052 373.314 53.6718 374.047 54.0052 374.674C54.3385 375.287 54.7852 375.761 55.3452 376.094C55.9052 376.414 56.5252 376.574 57.2052 376.574C57.8852 376.574 58.5052 376.414 59.0652 376.094C59.6385 375.761 60.0918 375.287 60.4252 374.674C60.7585 374.047 60.9252 373.321 60.9252 372.494ZM66.7808 365.254C66.4341 365.254 66.1408 365.134 65.9008 364.894C65.6608 364.654 65.5408 364.361 65.5408 364.014C65.5408 363.667 65.6608 363.374 65.9008 363.134C66.1408 362.894 66.4341 362.774 66.7808 362.774C67.1141 362.774 67.3941 362.894 67.6208 363.134C67.8608 363.374 67.9808 363.667 67.9808 364.014C67.9808 364.361 67.8608 364.654 67.6208 364.894C67.3941 365.134 67.1141 365.254 66.7808 365.254ZM67.6608 367.034V377.994H65.8408V367.034H67.6608ZM72.9827 368.534V374.994C72.9827 375.527 73.096 375.907 73.3227 376.134C73.5493 376.347 73.9427 376.454 74.5027 376.454H75.8427V377.994H74.2027C73.1893 377.994 72.4293 377.761 71.9227 377.294C71.416 376.827 71.1627 376.061 71.1627 374.994V368.534H69.7427V367.034H71.1627V364.274H72.9827V367.034H75.8427V368.534H72.9827ZM87.4878 367.034L80.8878 383.154H79.0078L81.1678 377.874L76.7478 367.034H78.7678L82.2078 375.914L85.6078 367.034H87.4878Z" fill="#575757"/>
<path d="M367.188 391.282V392.282H367.65L367.95 391.93L367.188 391.282ZM0.226497 391.282L6 397.056L11.7735 391.282L6 385.509L0.226497 391.282ZM384.07 369.877L366.426 390.635L367.95 391.93L385.594 371.172L384.07 369.877ZM367.188 390.282H6V392.282H367.188V390.282Z" fill="#0F0F0F"/>
<path d="M56.86 541.014C56.86 539.654 57.1667 538.434 57.78 537.354C58.3933 536.261 59.2267 535.407 60.28 534.794C61.3467 534.181 62.5267 533.874 63.82 533.874C65.34 533.874 66.6667 534.241 67.8 534.974C68.9333 535.707 69.76 536.747 70.28 538.094H68.1C67.7133 537.254 67.1533 536.607 66.42 536.154C65.7 535.701 64.8333 535.474 63.82 535.474C62.8467 535.474 61.9733 535.701 61.2 536.154C60.4267 536.607 59.82 537.254 59.38 538.094C58.94 538.921 58.72 539.894 58.72 541.014C58.72 542.121 58.94 543.094 59.38 543.934C59.82 544.761 60.4267 545.401 61.2 545.854C61.9733 546.307 62.8467 546.534 63.82 546.534C64.8333 546.534 65.7 546.314 66.42 545.874C67.1533 545.421 67.7133 544.774 68.1 543.934H70.28C69.76 545.267 68.9333 546.301 67.8 547.034C66.6667 547.754 65.34 548.114 63.82 548.114C62.5267 548.114 61.3467 547.814 60.28 547.214C59.2267 546.601 58.3933 545.754 57.78 544.674C57.1667 543.594 56.86 542.374 56.86 541.014ZM77.7692 548.174C76.7426 548.174 75.8092 547.941 74.9692 547.474C74.1426 547.007 73.4892 546.347 73.0092 545.494C72.5426 544.627 72.3092 543.627 72.3092 542.494C72.3092 541.374 72.5492 540.387 73.0292 539.534C73.5226 538.667 74.1892 538.007 75.0292 537.554C75.8692 537.087 76.8092 536.854 77.8492 536.854C78.8892 536.854 79.8292 537.087 80.6692 537.554C81.5092 538.007 82.1692 538.661 82.6492 539.514C83.1426 540.367 83.3892 541.361 83.3892 542.494C83.3892 543.627 83.1359 544.627 82.6292 545.494C82.1359 546.347 81.4626 547.007 80.6092 547.474C79.7559 547.941 78.8092 548.174 77.7692 548.174ZM77.7692 546.574C78.4226 546.574 79.0359 546.421 79.6092 546.114C80.1826 545.807 80.6426 545.347 80.9892 544.734C81.3492 544.121 81.5292 543.374 81.5292 542.494C81.5292 541.614 81.3559 540.867 81.0092 540.254C80.6626 539.641 80.2092 539.187 79.6492 538.894C79.0892 538.587 78.4826 538.434 77.8292 538.434C77.1626 538.434 76.5492 538.587 75.9892 538.894C75.4426 539.187 75.0026 539.641 74.6692 540.254C74.3359 540.867 74.1692 541.614 74.1692 542.494C74.1692 543.387 74.3292 544.141 74.6492 544.754C74.9826 545.367 75.4226 545.827 75.9692 546.134C76.5159 546.427 77.1159 546.574 77.7692 546.574ZM98.9622 536.834C99.8155 536.834 100.576 537.014 101.242 537.374C101.909 537.721 102.436 538.247 102.822 538.954C103.209 539.661 103.402 540.521 103.402 541.534V547.994H101.602V541.794C101.602 540.701 101.329 539.867 100.782 539.294C100.249 538.707 99.5222 538.414 98.6022 538.414C97.6555 538.414 96.9022 538.721 96.3422 539.334C95.7822 539.934 95.5022 540.807 95.5022 541.954V547.994H93.7022V541.794C93.7022 540.701 93.4289 539.867 92.8822 539.294C92.3489 538.707 91.6222 538.414 90.7022 538.414C89.7555 538.414 89.0022 538.721 88.4422 539.334C87.8822 539.934 87.6022 540.807 87.6022 541.954V547.994H85.7822V537.034H87.6022V538.614C87.9622 538.041 88.4422 537.601 89.0422 537.294C89.6555 536.987 90.3289 536.834 91.0622 536.834C91.9822 536.834 92.7955 537.041 93.5022 537.454C94.2089 537.867 94.7355 538.474 95.0822 539.274C95.3889 538.501 95.8955 537.901 96.6022 537.474C97.3089 537.047 98.0955 536.834 98.9622 536.834ZM119.568 536.834C120.421 536.834 121.181 537.014 121.848 537.374C122.514 537.721 123.041 538.247 123.428 538.954C123.814 539.661 124.008 540.521 124.008 541.534V547.994H122.208V541.794C122.208 540.701 121.934 539.867 121.388 539.294C120.854 538.707 120.128 538.414 119.208 538.414C118.261 538.414 117.508 538.721 116.948 539.334C116.388 539.934 116.108 540.807 116.108 541.954V547.994H114.308V541.794C114.308 540.701 114.034 539.867 113.488 539.294C112.954 538.707 112.228 538.414 111.308 538.414C110.361 538.414 109.608 538.721 109.048 539.334C108.488 539.934 108.208 540.807 108.208 541.954V547.994H106.388V537.034H108.208V538.614C108.568 538.041 109.048 537.601 109.648 537.294C110.261 536.987 110.934 536.834 111.668 536.834C112.588 536.834 113.401 537.041 114.108 537.454C114.814 537.867 115.341 538.474 115.688 539.274C115.994 538.501 116.501 537.901 117.208 537.474C117.914 537.047 118.701 536.834 119.568 536.834ZM136.713 537.034V547.994H134.893V546.374C134.546 546.934 134.06 547.374 133.433 547.694C132.82 548.001 132.14 548.154 131.393 548.154C130.54 548.154 129.773 547.981 129.093 547.634C128.413 547.274 127.873 546.741 127.473 546.034C127.086 545.327 126.893 544.467 126.893 543.454V537.034H128.693V543.214C128.693 544.294 128.966 545.127 129.513 545.714C130.06 546.287 130.806 546.574 131.753 546.574C132.726 546.574 133.493 546.274 134.053 545.674C134.613 545.074 134.893 544.201 134.893 543.054V537.034H136.713ZM145.126 536.834C146.459 536.834 147.539 537.241 148.366 538.054C149.193 538.854 149.606 540.014 149.606 541.534V547.994H147.806V541.794C147.806 540.701 147.533 539.867 146.986 539.294C146.439 538.707 145.693 538.414 144.746 538.414C143.786 538.414 143.019 538.714 142.446 539.314C141.886 539.914 141.606 540.787 141.606 541.934V547.994H139.786V537.034H141.606V538.594C141.966 538.034 142.453 537.601 143.066 537.294C143.693 536.987 144.379 536.834 145.126 536.834ZM153.519 535.254C153.172 535.254 152.879 535.134 152.639 534.894C152.399 534.654 152.279 534.361 152.279 534.014C152.279 533.667 152.399 533.374 152.639 533.134C152.879 532.894 153.172 532.774 153.519 532.774C153.852 532.774 154.132 532.894 154.359 533.134C154.599 533.374 154.719 533.667 154.719 534.014C154.719 534.361 154.599 534.654 154.359 534.894C154.132 535.134 153.852 535.254 153.519 535.254ZM154.399 537.034V547.994H152.579V537.034H154.399ZM159.721 538.534V544.994C159.721 545.527 159.834 545.907 160.061 546.134C160.288 546.347 160.681 546.454 161.241 546.454H162.581V547.994H160.941C159.928 547.994 159.168 547.761 158.661 547.294C158.154 546.827 157.901 546.061 157.901 544.994V538.534H156.481V537.034H157.901V534.274H159.721V537.034H162.581V538.534H159.721ZM174.226 537.034L167.626 553.154H165.746L167.906 547.874L163.486 537.034H165.506L168.946 545.914L172.346 537.034H174.226ZM188.728 547.994L185.408 542.294H183.208V547.994H181.388V534.054H185.888C186.941 534.054 187.828 534.234 188.548 534.594C189.281 534.954 189.828 535.441 190.188 536.054C190.548 536.667 190.728 537.367 190.728 538.154C190.728 539.114 190.448 539.961 189.888 540.694C189.341 541.427 188.514 541.914 187.408 542.154L190.908 547.994H188.728ZM183.208 540.834H185.888C186.874 540.834 187.614 540.594 188.108 540.114C188.601 539.621 188.848 538.967 188.848 538.154C188.848 537.327 188.601 536.687 188.108 536.234C187.628 535.781 186.888 535.554 185.888 535.554H183.208V540.834ZM203.556 542.094C203.556 542.441 203.536 542.807 203.496 543.194H194.736C194.802 544.274 195.169 545.121 195.836 545.734C196.516 546.334 197.336 546.634 198.296 546.634C199.082 546.634 199.736 546.454 200.256 546.094C200.789 545.721 201.162 545.227 201.376 544.614H203.336C203.042 545.667 202.456 546.527 201.576 547.194C200.696 547.847 199.602 548.174 198.296 548.174C197.256 548.174 196.322 547.941 195.496 547.474C194.682 547.007 194.042 546.347 193.576 545.494C193.109 544.627 192.876 543.627 192.876 542.494C192.876 541.361 193.102 540.367 193.556 539.514C194.009 538.661 194.642 538.007 195.456 537.554C196.282 537.087 197.229 536.854 198.296 536.854C199.336 536.854 200.256 537.081 201.056 537.534C201.856 537.987 202.469 538.614 202.896 539.414C203.336 540.201 203.556 541.094 203.556 542.094ZM201.676 541.714C201.676 541.021 201.522 540.427 201.216 539.934C200.909 539.427 200.489 539.047 199.956 538.794C199.436 538.527 198.856 538.394 198.216 538.394C197.296 538.394 196.509 538.687 195.856 539.274C195.216 539.861 194.849 540.674 194.756 541.714H201.676ZM220.558 537.034L217.138 547.994H215.258L212.618 539.294L209.978 547.994H208.098L204.658 537.034H206.518L209.038 546.234L211.758 537.034H213.618L216.278 546.254L218.758 537.034H220.558ZM221.684 542.474C221.684 541.354 221.911 540.374 222.364 539.534C222.818 538.681 223.438 538.021 224.224 537.554C225.024 537.087 225.911 536.854 226.884 536.854C227.844 536.854 228.678 537.061 229.384 537.474C230.091 537.887 230.618 538.407 230.964 539.034V537.034H232.804V547.994H230.964V545.954C230.604 546.594 230.064 547.127 229.344 547.554C228.638 547.967 227.811 548.174 226.864 548.174C225.891 548.174 225.011 547.934 224.224 547.454C223.438 546.974 222.818 546.301 222.364 545.434C221.911 544.567 221.684 543.581 221.684 542.474ZM230.964 542.494C230.964 541.667 230.798 540.947 230.464 540.334C230.131 539.721 229.678 539.254 229.104 538.934C228.544 538.601 227.924 538.434 227.244 538.434C226.564 538.434 225.944 538.594 225.384 538.914C224.824 539.234 224.378 539.701 224.044 540.314C223.711 540.927 223.544 541.647 223.544 542.474C223.544 543.314 223.711 544.047 224.044 544.674C224.378 545.287 224.824 545.761 225.384 546.094C225.944 546.414 226.564 546.574 227.244 546.574C227.924 546.574 228.544 546.414 229.104 546.094C229.678 545.761 230.131 545.287 230.464 544.674C230.798 544.047 230.964 543.321 230.964 542.494ZM237.7 538.814C238.02 538.187 238.473 537.701 239.06 537.354C239.66 537.007 240.387 536.834 241.24 536.834V538.714H240.76C238.72 538.714 237.7 539.821 237.7 542.034V547.994H235.88V537.034H237.7V538.814ZM242.661 542.474C242.661 541.354 242.887 540.374 243.341 539.534C243.794 538.681 244.414 538.021 245.201 537.554C246.001 537.087 246.894 536.854 247.881 536.854C248.734 536.854 249.527 537.054 250.261 537.454C250.994 537.841 251.554 538.354 251.941 538.994V533.194H253.781V547.994H251.941V545.934C251.581 546.587 251.047 547.127 250.341 547.554C249.634 547.967 248.807 548.174 247.861 548.174C246.887 548.174 246.001 547.934 245.201 547.454C244.414 546.974 243.794 546.301 243.341 545.434C242.887 544.567 242.661 543.581 242.661 542.474ZM251.941 542.494C251.941 541.667 251.774 540.947 251.441 540.334C251.107 539.721 250.654 539.254 250.081 538.934C249.521 538.601 248.901 538.434 248.221 538.434C247.541 538.434 246.921 538.594 246.361 538.914C245.801 539.234 245.354 539.701 245.021 540.314C244.687 540.927 244.521 541.647 244.521 542.474C244.521 543.314 244.687 544.047 245.021 544.674C245.354 545.287 245.801 545.761 246.361 546.094C246.921 546.414 247.541 546.574 248.221 546.574C248.901 546.574 249.521 546.414 250.081 546.094C250.654 545.761 251.107 545.287 251.441 544.674C251.774 544.047 251.941 543.321 251.941 542.494ZM260.736 548.174C259.896 548.174 259.143 548.034 258.476 547.754C257.81 547.461 257.283 547.061 256.896 546.554C256.51 546.034 256.296 545.441 256.256 544.774H258.136C258.19 545.321 258.443 545.767 258.896 546.114C259.363 546.461 259.97 546.634 260.716 546.634C261.41 546.634 261.956 546.481 262.356 546.174C262.756 545.867 262.956 545.481 262.956 545.014C262.956 544.534 262.743 544.181 262.316 543.954C261.89 543.714 261.23 543.481 260.336 543.254C259.523 543.041 258.856 542.827 258.336 542.614C257.83 542.387 257.39 542.061 257.016 541.634C256.656 541.194 256.476 540.621 256.476 539.914C256.476 539.354 256.643 538.841 256.976 538.374C257.31 537.907 257.783 537.541 258.396 537.274C259.01 536.994 259.71 536.854 260.496 536.854C261.71 536.854 262.69 537.161 263.436 537.774C264.183 538.387 264.583 539.227 264.636 540.294H262.816C262.776 539.721 262.543 539.261 262.116 538.914C261.703 538.567 261.143 538.394 260.436 538.394C259.783 538.394 259.263 538.534 258.876 538.814C258.49 539.094 258.296 539.461 258.296 539.914C258.296 540.274 258.41 540.574 258.636 540.814C258.876 541.041 259.17 541.227 259.516 541.374C259.876 541.507 260.37 541.661 260.996 541.834C261.783 542.047 262.423 542.261 262.916 542.474C263.41 542.674 263.83 542.981 264.176 543.394C264.536 543.807 264.723 544.347 264.736 545.014C264.736 545.614 264.57 546.154 264.236 546.634C263.903 547.114 263.43 547.494 262.816 547.774C262.216 548.041 261.523 548.174 260.736 548.174Z" fill="#575757"/>
<path d="M417.188 561.282V562.282H417.65L417.95 561.93L417.188 561.282ZM50.2265 561.282L56 567.056L61.7735 561.282L56 555.509L50.2265 561.282ZM434.07 539.877L416.426 560.635L417.95 561.93L435.594 541.172L434.07 539.877ZM417.188 560.282H56V562.282H417.188V560.282Z" fill="#032A28"/>
<path d="M1071.64 642.671H1065.56L1064.44 645.771H1062.52L1067.56 631.911H1069.66L1074.68 645.771H1072.76L1071.64 642.671ZM1071.12 641.191L1068.6 634.151L1066.08 641.191H1071.12ZM1077.81 633.031C1077.47 633.031 1077.17 632.911 1076.93 632.671C1076.69 632.431 1076.57 632.137 1076.57 631.791C1076.57 631.444 1076.69 631.151 1076.93 630.911C1077.17 630.671 1077.47 630.551 1077.81 630.551C1078.15 630.551 1078.43 630.671 1078.65 630.911C1078.89 631.151 1079.01 631.444 1079.01 631.791C1079.01 632.137 1078.89 632.431 1078.65 632.671C1078.43 632.911 1078.15 633.031 1077.81 633.031ZM1078.69 634.811V645.771H1076.87V634.811H1078.69ZM1083.61 636.591C1083.93 635.964 1084.39 635.477 1084.97 635.131C1085.57 634.784 1086.3 634.611 1087.15 634.611V636.491H1086.67C1084.63 636.491 1083.61 637.597 1083.61 639.811V645.771H1081.79V634.811H1083.61V636.591ZM1088.58 640.251C1088.58 639.131 1088.8 638.151 1089.26 637.311C1089.71 636.457 1090.33 635.797 1091.12 635.331C1091.92 634.864 1092.81 634.631 1093.8 634.631C1094.65 634.631 1095.44 634.831 1096.18 635.231C1096.91 635.617 1097.47 636.131 1097.86 636.771V630.971H1099.7V645.771H1097.86V643.711C1097.5 644.364 1096.96 644.904 1096.26 645.331C1095.55 645.744 1094.72 645.951 1093.78 645.951C1092.8 645.951 1091.92 645.711 1091.12 645.231C1090.33 644.751 1089.71 644.077 1089.26 643.211C1088.8 642.344 1088.58 641.357 1088.58 640.251ZM1097.86 640.271C1097.86 639.444 1097.69 638.724 1097.36 638.111C1097.02 637.497 1096.57 637.031 1096 636.711C1095.44 636.377 1094.82 636.211 1094.14 636.211C1093.46 636.211 1092.84 636.371 1092.28 636.691C1091.72 637.011 1091.27 637.477 1090.94 638.091C1090.6 638.704 1090.44 639.424 1090.44 640.251C1090.44 641.091 1090.6 641.824 1090.94 642.451C1091.27 643.064 1091.72 643.537 1092.28 643.871C1092.84 644.191 1093.46 644.351 1094.14 644.351C1094.82 644.351 1095.44 644.191 1096 643.871C1096.57 643.537 1097.02 643.064 1097.36 642.451C1097.69 641.824 1097.86 641.097 1097.86 640.271ZM1104.59 636.591C1104.91 635.964 1105.36 635.477 1105.95 635.131C1106.55 634.784 1107.28 634.611 1108.13 634.611V636.491H1107.65C1105.61 636.491 1104.59 637.597 1104.59 639.811V645.771H1102.77V634.811H1104.59V636.591ZM1115.01 645.951C1113.98 645.951 1113.05 645.717 1112.21 645.251C1111.38 644.784 1110.73 644.124 1110.25 643.271C1109.78 642.404 1109.55 641.404 1109.55 640.271C1109.55 639.151 1109.79 638.164 1110.27 637.311C1110.76 636.444 1111.43 635.784 1112.27 635.331C1113.11 634.864 1114.05 634.631 1115.09 634.631C1116.13 634.631 1117.07 634.864 1117.91 635.331C1118.75 635.784 1119.41 636.437 1119.89 637.291C1120.38 638.144 1120.63 639.137 1120.63 640.271C1120.63 641.404 1120.38 642.404 1119.87 643.271C1119.38 644.124 1118.7 644.784 1117.85 645.251C1117 645.717 1116.05 645.951 1115.01 645.951ZM1115.01 644.351C1115.66 644.351 1116.28 644.197 1116.85 643.891C1117.42 643.584 1117.88 643.124 1118.23 642.511C1118.59 641.897 1118.77 641.151 1118.77 640.271C1118.77 639.391 1118.6 638.644 1118.25 638.031C1117.9 637.417 1117.45 636.964 1116.89 636.671C1116.33 636.364 1115.72 636.211 1115.07 636.211C1114.4 636.211 1113.79 636.364 1113.23 636.671C1112.68 636.964 1112.24 637.417 1111.91 638.031C1111.58 638.644 1111.41 639.391 1111.41 640.271C1111.41 641.164 1111.57 641.917 1111.89 642.531C1112.22 643.144 1112.66 643.604 1113.21 643.911C1113.76 644.204 1114.36 644.351 1115.01 644.351ZM1124.84 636.831C1125.2 636.204 1125.74 635.684 1126.44 635.271C1127.16 634.844 1128 634.631 1128.94 634.631C1129.92 634.631 1130.8 634.864 1131.58 635.331C1132.38 635.797 1133.01 636.457 1133.46 637.311C1133.92 638.151 1134.14 639.131 1134.14 640.251C1134.14 641.357 1133.92 642.344 1133.46 643.211C1133.01 644.077 1132.38 644.751 1131.58 645.231C1130.8 645.711 1129.92 645.951 1128.94 645.951C1128.01 645.951 1127.18 645.744 1126.46 645.331C1125.76 644.904 1125.22 644.377 1124.84 643.751V650.971H1123.02V634.811H1124.84V636.831ZM1132.28 640.251C1132.28 639.424 1132.12 638.704 1131.78 638.091C1131.45 637.477 1131 637.011 1130.42 636.691C1129.86 636.371 1129.24 636.211 1128.56 636.211C1127.9 636.211 1127.28 636.377 1126.7 636.711C1126.14 637.031 1125.69 637.504 1125.34 638.131C1125.01 638.744 1124.84 639.457 1124.84 640.271C1124.84 641.097 1125.01 641.824 1125.34 642.451C1125.69 643.064 1126.14 643.537 1126.7 643.871C1127.28 644.191 1127.9 644.351 1128.56 644.351C1129.24 644.351 1129.86 644.191 1130.42 643.871C1131 643.537 1131.45 643.064 1131.78 642.451C1132.12 641.824 1132.28 641.091 1132.28 640.251Z" fill="#575757"/>
<path d="M586.703 658.673H585.703V659.673H586.703V658.673ZM1139.87 658.673L1134.09 652.899L1128.32 658.673L1134.09 664.446L1139.87 658.673ZM585.703 564.267V658.673H587.703V564.267H585.703ZM586.703 659.673H1134.09V657.673H586.703V659.673Z" fill="#055550"/>
<path d="M1037.78 474.615V476.095H1033.98V488.555H1032.16V476.095H1028.34V474.615H1037.78ZM1050.02 482.655C1050.02 483.001 1050 483.368 1049.96 483.755H1041.2C1041.26 484.835 1041.63 485.681 1042.3 486.295C1042.98 486.895 1043.8 487.195 1044.76 487.195C1045.54 487.195 1046.2 487.015 1046.72 486.655C1047.25 486.281 1047.62 485.788 1047.84 485.175H1049.8C1049.5 486.228 1048.92 487.088 1048.04 487.755C1047.16 488.408 1046.06 488.735 1044.76 488.735C1043.72 488.735 1042.78 488.501 1041.96 488.035C1041.14 487.568 1040.5 486.908 1040.04 486.055C1039.57 485.188 1039.34 484.188 1039.34 483.055C1039.34 481.921 1039.56 480.928 1040.02 480.075C1040.47 479.221 1041.1 478.568 1041.92 478.115C1042.74 477.648 1043.69 477.415 1044.76 477.415C1045.8 477.415 1046.72 477.641 1047.52 478.095C1048.32 478.548 1048.93 479.175 1049.36 479.975C1049.8 480.761 1050.02 481.655 1050.02 482.655ZM1048.14 482.275C1048.14 481.581 1047.98 480.988 1047.68 480.495C1047.37 479.988 1046.95 479.608 1046.42 479.355C1045.9 479.088 1045.32 478.955 1044.68 478.955C1043.76 478.955 1042.97 479.248 1042.32 479.835C1041.68 480.421 1041.31 481.235 1041.22 482.275H1048.14ZM1051.74 483.035C1051.74 481.915 1051.97 480.935 1052.42 480.095C1052.87 479.241 1053.49 478.581 1054.28 478.115C1055.08 477.648 1055.97 477.415 1056.94 477.415C1057.9 477.415 1058.73 477.621 1059.44 478.035C1060.15 478.448 1060.67 478.968 1061.02 479.595V477.595H1062.86V488.555H1061.02V486.515C1060.66 487.155 1060.12 487.688 1059.4 488.115C1058.69 488.528 1057.87 488.735 1056.92 488.735C1055.95 488.735 1055.07 488.495 1054.28 488.015C1053.49 487.535 1052.87 486.861 1052.42 485.995C1051.97 485.128 1051.74 484.141 1051.74 483.035ZM1061.02 483.055C1061.02 482.228 1060.85 481.508 1060.52 480.895C1060.19 480.281 1059.73 479.815 1059.16 479.495C1058.6 479.161 1057.98 478.995 1057.3 478.995C1056.62 478.995 1056 479.155 1055.44 479.475C1054.88 479.795 1054.43 480.261 1054.1 480.875C1053.77 481.488 1053.6 482.208 1053.6 483.035C1053.6 483.875 1053.77 484.608 1054.1 485.235C1054.43 485.848 1054.88 486.321 1055.44 486.655C1056 486.975 1056.62 487.135 1057.3 487.135C1057.98 487.135 1058.6 486.975 1059.16 486.655C1059.73 486.321 1060.19 485.848 1060.52 485.235C1060.85 484.608 1061.02 483.881 1061.02 483.055ZM1079.11 477.395C1079.97 477.395 1080.73 477.575 1081.39 477.935C1082.06 478.281 1082.59 478.808 1082.97 479.515C1083.36 480.221 1083.55 481.081 1083.55 482.095V488.555H1081.75V482.355C1081.75 481.261 1081.48 480.428 1080.93 479.855C1080.4 479.268 1079.67 478.975 1078.75 478.975C1077.81 478.975 1077.05 479.281 1076.49 479.895C1075.93 480.495 1075.65 481.368 1075.65 482.515V488.555H1073.85V482.355C1073.85 481.261 1073.58 480.428 1073.03 479.855C1072.5 479.268 1071.77 478.975 1070.85 478.975C1069.91 478.975 1069.15 479.281 1068.59 479.895C1068.03 480.495 1067.75 481.368 1067.75 482.515V488.555H1065.93V477.595H1067.75V479.175C1068.11 478.601 1068.59 478.161 1069.19 477.855C1069.81 477.548 1070.48 477.395 1071.21 477.395C1072.13 477.395 1072.95 477.601 1073.65 478.015C1074.36 478.428 1074.89 479.035 1075.23 479.835C1075.54 479.061 1076.05 478.461 1076.75 478.035C1077.46 477.608 1078.25 477.395 1079.11 477.395Z" fill="#575757"/>
<path d="M783.104 501.843L782.104 501.869L782.129 502.843H783.104V501.843ZM1089.87 501.843L1084.09 496.07L1078.32 501.843L1084.09 507.617L1089.87 501.843ZM780.029 419.875L782.104 501.869L784.104 501.818L782.028 419.824L780.029 419.875ZM783.104 502.843H1084.09V500.843H783.104V502.843Z" fill="#0DAAA1"/>
<path d="M982.11 153.972C982.11 155.132 981.71 156.099 980.91 156.872C980.123 157.632 978.917 158.012 977.29 158.012H974.61V163.832H972.79V149.892H977.29C978.863 149.892 980.057 150.272 980.87 151.032C981.697 151.792 982.11 152.772 982.11 153.972ZM977.29 156.512C978.303 156.512 979.05 156.292 979.53 155.852C980.01 155.412 980.25 154.785 980.25 153.972C980.25 152.252 979.263 151.392 977.29 151.392H974.61V156.512H977.29ZM986.192 154.652C986.512 154.025 986.965 153.539 987.552 153.192C988.152 152.845 988.879 152.672 989.732 152.672V154.552H989.252C987.212 154.552 986.192 155.659 986.192 157.872V163.832H984.372V152.872H986.192V154.652ZM1001.83 157.932C1001.83 158.279 1001.81 158.645 1001.77 159.032H993.013C993.08 160.112 993.446 160.959 994.113 161.572C994.793 162.172 995.613 162.472 996.573 162.472C997.36 162.472 998.013 162.292 998.533 161.932C999.066 161.559 999.44 161.065 999.653 160.452H1001.61C1001.32 161.505 1000.73 162.365 999.853 163.032C998.973 163.685 997.88 164.012 996.573 164.012C995.533 164.012 994.6 163.779 993.773 163.312C992.96 162.845 992.32 162.185 991.853 161.332C991.386 160.465 991.153 159.465 991.153 158.332C991.153 157.199 991.38 156.205 991.833 155.352C992.286 154.499 992.92 153.845 993.733 153.392C994.56 152.925 995.506 152.692 996.573 152.692C997.613 152.692 998.533 152.919 999.333 153.372C1000.13 153.825 1000.75 154.452 1001.17 155.252C1001.61 156.039 1001.83 156.932 1001.83 157.932ZM999.953 157.552C999.953 156.859 999.8 156.265 999.493 155.772C999.186 155.265 998.766 154.885 998.233 154.632C997.713 154.365 997.133 154.232 996.493 154.232C995.573 154.232 994.786 154.525 994.133 155.112C993.493 155.699 993.126 156.512 993.033 157.552H999.953ZM1011.84 155.732V157.272H1003.86V155.732H1011.84ZM1019.13 164.012C1018.29 164.012 1017.54 163.872 1016.87 163.592C1016.2 163.299 1015.68 162.899 1015.29 162.392C1014.9 161.872 1014.69 161.279 1014.65 160.612H1016.53C1016.58 161.159 1016.84 161.605 1017.29 161.952C1017.76 162.299 1018.36 162.472 1019.11 162.472C1019.8 162.472 1020.35 162.319 1020.75 162.012C1021.15 161.705 1021.35 161.319 1021.35 160.852C1021.35 160.372 1021.14 160.019 1020.71 159.792C1020.28 159.552 1019.62 159.319 1018.73 159.092C1017.92 158.879 1017.25 158.665 1016.73 158.452C1016.22 158.225 1015.78 157.899 1015.41 157.472C1015.05 157.032 1014.87 156.459 1014.87 155.752C1014.87 155.192 1015.04 154.679 1015.37 154.212C1015.7 153.745 1016.18 153.379 1016.79 153.112C1017.4 152.832 1018.1 152.692 1018.89 152.692C1020.1 152.692 1021.08 152.999 1021.83 153.612C1022.58 154.225 1022.98 155.065 1023.03 156.132H1021.21C1021.17 155.559 1020.94 155.099 1020.51 154.752C1020.1 154.405 1019.54 154.232 1018.83 154.232C1018.18 154.232 1017.66 154.372 1017.27 154.652C1016.88 154.932 1016.69 155.299 1016.69 155.752C1016.69 156.112 1016.8 156.412 1017.03 156.652C1017.27 156.879 1017.56 157.065 1017.91 157.212C1018.27 157.345 1018.76 157.499 1019.39 157.672C1020.18 157.885 1020.82 158.099 1021.31 158.312C1021.8 158.512 1022.22 158.819 1022.57 159.232C1022.93 159.645 1023.12 160.185 1023.13 160.852C1023.13 161.452 1022.96 161.992 1022.63 162.472C1022.3 162.952 1021.82 163.332 1021.21 163.612C1020.61 163.879 1019.92 164.012 1019.13 164.012ZM1025.02 158.312C1025.02 157.192 1025.25 156.212 1025.7 155.372C1026.15 154.519 1026.77 153.859 1027.56 153.392C1028.36 152.925 1029.25 152.692 1030.22 152.692C1031.18 152.692 1032.01 152.899 1032.72 153.312C1033.43 153.725 1033.95 154.245 1034.3 154.872V152.872H1036.14V163.832H1034.3V161.792C1033.94 162.432 1033.4 162.965 1032.68 163.392C1031.97 163.805 1031.15 164.012 1030.2 164.012C1029.23 164.012 1028.35 163.772 1027.56 163.292C1026.77 162.812 1026.15 162.139 1025.7 161.272C1025.25 160.405 1025.02 159.419 1025.02 158.312ZM1034.3 158.332C1034.3 157.505 1034.13 156.785 1033.8 156.172C1033.47 155.559 1033.01 155.092 1032.44 154.772C1031.88 154.439 1031.26 154.272 1030.58 154.272C1029.9 154.272 1029.28 154.432 1028.72 154.752C1028.16 155.072 1027.71 155.539 1027.38 156.152C1027.05 156.765 1026.88 157.485 1026.88 158.312C1026.88 159.152 1027.05 159.885 1027.38 160.512C1027.71 161.125 1028.16 161.599 1028.72 161.932C1029.28 162.252 1029.9 162.412 1030.58 162.412C1031.26 162.412 1031.88 162.252 1032.44 161.932C1033.01 161.599 1033.47 161.125 1033.8 160.512C1034.13 159.885 1034.3 159.159 1034.3 158.332ZM1041.04 149.032V163.832H1039.22V149.032H1041.04ZM1054.14 157.932C1054.14 158.279 1054.12 158.645 1054.08 159.032H1045.32C1045.38 160.112 1045.75 160.959 1046.42 161.572C1047.1 162.172 1047.92 162.472 1048.88 162.472C1049.66 162.472 1050.32 162.292 1050.84 161.932C1051.37 161.559 1051.74 161.065 1051.96 160.452H1053.92C1053.62 161.505 1053.04 162.365 1052.16 163.032C1051.28 163.685 1050.18 164.012 1048.88 164.012C1047.84 164.012 1046.9 163.779 1046.08 163.312C1045.26 162.845 1044.62 162.185 1044.16 161.332C1043.69 160.465 1043.46 159.465 1043.46 158.332C1043.46 157.199 1043.68 156.205 1044.14 155.352C1044.59 154.499 1045.22 153.845 1046.04 153.392C1046.86 152.925 1047.81 152.692 1048.88 152.692C1049.92 152.692 1050.84 152.919 1051.64 153.372C1052.44 153.825 1053.05 154.452 1053.48 155.252C1053.92 156.039 1054.14 156.932 1054.14 157.932ZM1052.26 157.552C1052.26 156.859 1052.1 156.265 1051.8 155.772C1051.49 155.265 1051.07 154.885 1050.54 154.632C1050.02 154.365 1049.44 154.232 1048.8 154.232C1047.88 154.232 1047.09 154.525 1046.44 155.112C1045.8 155.699 1045.43 156.512 1045.34 157.552H1052.26Z" fill="#575757"/>
<path d="M791.506 178.234L791.391 179.227L791.448 179.234H791.506V178.234ZM1059.87 178.234L1054.09 172.46L1048.32 178.234L1054.09 184.007L1059.87 178.234ZM764.406 176.114L791.391 179.227L791.62 177.24L764.635 174.127L764.406 176.114ZM791.506 179.234H1054.09V177.234H791.506V179.234Z" fill="#61ADB1"/>
<path d="M1039.86 403.445L1034.12 397.085V403.445H1032.3V389.505H1034.12V395.965L1039.88 389.505H1042.18L1035.86 396.485L1042.24 403.445H1039.86ZM1050.59 403.585C1049.3 403.585 1048.12 403.285 1047.05 402.685C1045.99 402.072 1045.14 401.225 1044.51 400.145C1043.9 399.052 1043.59 397.825 1043.59 396.465C1043.59 395.105 1043.9 393.885 1044.51 392.805C1045.14 391.712 1045.99 390.865 1047.05 390.265C1048.12 389.652 1049.3 389.345 1050.59 389.345C1051.9 389.345 1053.09 389.652 1054.15 390.265C1055.22 390.865 1056.06 391.705 1056.67 392.785C1057.29 393.865 1057.59 395.092 1057.59 396.465C1057.59 397.839 1057.29 399.065 1056.67 400.145C1056.06 401.225 1055.22 402.072 1054.15 402.685C1053.09 403.285 1051.9 403.585 1050.59 403.585ZM1050.59 402.005C1051.57 402.005 1052.44 401.779 1053.21 401.325C1054 400.872 1054.61 400.225 1055.05 399.385C1055.51 398.545 1055.73 397.572 1055.73 396.465C1055.73 395.345 1055.51 394.372 1055.05 393.545C1054.61 392.705 1054.01 392.059 1053.23 391.605C1052.46 391.152 1051.58 390.925 1050.59 390.925C1049.61 390.925 1048.73 391.152 1047.95 391.605C1047.18 392.059 1046.57 392.705 1046.11 393.545C1045.67 394.372 1045.45 395.345 1045.45 396.465C1045.45 397.572 1045.67 398.545 1046.11 399.385C1046.57 400.225 1047.18 400.872 1047.95 401.325C1048.74 401.779 1049.62 402.005 1050.59 402.005ZM1061.82 401.965H1066.7V403.445H1060V389.505H1061.82V401.965ZM1078.38 403.585C1077.46 403.585 1076.64 403.425 1075.9 403.105C1075.18 402.772 1074.62 402.319 1074.2 401.745C1073.79 401.159 1073.58 400.485 1073.56 399.725H1075.5C1075.57 400.379 1075.84 400.932 1076.3 401.385C1076.78 401.825 1077.48 402.045 1078.38 402.045C1079.25 402.045 1079.93 401.832 1080.42 401.405C1080.93 400.965 1081.18 400.405 1081.18 399.725C1081.18 399.192 1081.04 398.759 1080.74 398.425C1080.45 398.092 1080.08 397.839 1079.64 397.665C1079.2 397.492 1078.61 397.305 1077.86 397.105C1076.94 396.865 1076.2 396.625 1075.64 396.385C1075.1 396.145 1074.62 395.772 1074.22 395.265C1073.84 394.745 1073.64 394.052 1073.64 393.185C1073.64 392.425 1073.84 391.752 1074.22 391.165C1074.61 390.579 1075.15 390.125 1075.84 389.805C1076.55 389.485 1077.36 389.325 1078.26 389.325C1079.57 389.325 1080.64 389.652 1081.46 390.305C1082.3 390.959 1082.78 391.825 1082.88 392.905H1080.88C1080.82 392.372 1080.54 391.905 1080.04 391.505C1079.55 391.092 1078.9 390.885 1078.08 390.885C1077.32 390.885 1076.7 391.085 1076.22 391.485C1075.74 391.872 1075.5 392.419 1075.5 393.125C1075.5 393.632 1075.64 394.045 1075.92 394.365C1076.22 394.685 1076.57 394.932 1076.98 395.105C1077.41 395.265 1078 395.452 1078.76 395.665C1079.68 395.919 1080.42 396.172 1080.98 396.425C1081.54 396.665 1082.02 397.045 1082.42 397.565C1082.82 398.072 1083.02 398.765 1083.02 399.645C1083.02 400.325 1082.84 400.965 1082.48 401.565C1082.12 402.165 1081.59 402.652 1080.88 403.025C1080.18 403.399 1079.34 403.585 1078.38 403.585ZM1085.02 397.925C1085.02 396.805 1085.25 395.825 1085.7 394.985C1086.15 394.132 1086.77 393.472 1087.56 393.005C1088.36 392.539 1089.25 392.305 1090.22 392.305C1091.18 392.305 1092.01 392.512 1092.72 392.925C1093.43 393.339 1093.95 393.859 1094.3 394.485V392.485H1096.14V403.445H1094.3V401.405C1093.94 402.045 1093.4 402.579 1092.68 403.005C1091.97 403.419 1091.15 403.625 1090.2 403.625C1089.23 403.625 1088.35 403.385 1087.56 402.905C1086.77 402.425 1086.15 401.752 1085.7 400.885C1085.25 400.019 1085.02 399.032 1085.02 397.925ZM1094.3 397.945C1094.3 397.119 1094.13 396.399 1093.8 395.785C1093.47 395.172 1093.01 394.705 1092.44 394.385C1091.88 394.052 1091.26 393.885 1090.58 393.885C1089.9 393.885 1089.28 394.045 1088.72 394.365C1088.16 394.685 1087.71 395.152 1087.38 395.765C1087.05 396.379 1086.88 397.099 1086.88 397.925C1086.88 398.765 1087.05 399.499 1087.38 400.125C1087.71 400.739 1088.16 401.212 1088.72 401.545C1089.28 401.865 1089.9 402.025 1090.58 402.025C1091.26 402.025 1091.88 401.865 1092.44 401.545C1093.01 401.212 1093.47 400.739 1093.8 400.125C1094.13 399.499 1094.3 398.772 1094.3 397.945ZM1101.04 388.645V403.445H1099.22V388.645H1101.04ZM1114.14 397.545C1114.14 397.892 1114.12 398.259 1114.08 398.645H1105.32C1105.38 399.725 1105.75 400.572 1106.42 401.185C1107.1 401.785 1107.92 402.085 1108.88 402.085C1109.66 402.085 1110.32 401.905 1110.84 401.545C1111.37 401.172 1111.74 400.679 1111.96 400.065H1113.92C1113.62 401.119 1113.04 401.979 1112.16 402.645C1111.28 403.299 1110.18 403.625 1108.88 403.625C1107.84 403.625 1106.9 403.392 1106.08 402.925C1105.26 402.459 1104.62 401.799 1104.16 400.945C1103.69 400.079 1103.46 399.079 1103.46 397.945C1103.46 396.812 1103.68 395.819 1104.14 394.965C1104.59 394.112 1105.22 393.459 1106.04 393.005C1106.86 392.539 1107.81 392.305 1108.88 392.305C1109.92 392.305 1110.84 392.532 1111.64 392.985C1112.44 393.439 1113.05 394.065 1113.48 394.865C1113.92 395.652 1114.14 396.545 1114.14 397.545ZM1112.26 397.165C1112.26 396.472 1112.1 395.879 1111.8 395.385C1111.49 394.879 1111.07 394.499 1110.54 394.245C1110.02 393.979 1109.44 393.845 1108.8 393.845C1107.88 393.845 1107.09 394.139 1106.44 394.725C1105.8 395.312 1105.43 396.125 1105.34 397.165H1112.26Z" fill="#575757"/>
<path d="M835.937 416.734L834.98 417.026L835.196 417.734H835.937V416.734ZM1119.87 416.734L1114.09 410.961L1108.32 416.734L1114.09 422.508L1119.87 416.734ZM820.45 369.282L834.98 417.026L836.893 416.443L822.363 368.7L820.45 369.282ZM835.937 417.734H1114.09V415.734H835.937V417.734Z" fill="#0AD4C9"/>
<path d="M1010.9 22.2191C1009.98 22.2191 1009.15 22.0591 1008.42 21.7391C1007.7 21.4058 1007.13 20.9524 1006.72 20.3791C1006.31 19.7924 1006.09 19.1191 1006.08 18.3591H1008.02C1008.09 19.0124 1008.35 19.5658 1008.82 20.0191C1009.3 20.4591 1009.99 20.6791 1010.9 20.6791C1011.77 20.6791 1012.45 20.4658 1012.94 20.0391C1013.45 19.5991 1013.7 19.0391 1013.7 18.3591C1013.7 17.8258 1013.55 17.3924 1013.26 17.0591C1012.97 16.7258 1012.6 16.4724 1012.16 16.2991C1011.72 16.1258 1011.13 15.9391 1010.38 15.7391C1009.46 15.4991 1008.72 15.2591 1008.16 15.0191C1007.61 14.7791 1007.14 14.4058 1006.74 13.8991C1006.35 13.3791 1006.16 12.6858 1006.16 11.8191C1006.16 11.0591 1006.35 10.3858 1006.74 9.7991C1007.13 9.21243 1007.67 8.7591 1008.36 8.4391C1009.07 8.1191 1009.87 7.9591 1010.78 7.9591C1012.09 7.9591 1013.15 8.28577 1013.98 8.9391C1014.82 9.59243 1015.29 10.4591 1015.4 11.5391H1013.4C1013.33 11.0058 1013.05 10.5391 1012.56 10.1391C1012.07 9.72577 1011.41 9.5191 1010.6 9.5191C1009.84 9.5191 1009.22 9.7191 1008.74 10.1191C1008.26 10.5058 1008.02 11.0524 1008.02 11.7591C1008.02 12.2658 1008.16 12.6791 1008.44 12.9991C1008.73 13.3191 1009.09 13.5658 1009.5 13.7391C1009.93 13.8991 1010.52 14.0858 1011.28 14.2991C1012.2 14.5524 1012.94 14.8058 1013.5 15.0591C1014.06 15.2991 1014.54 15.6791 1014.94 16.1991C1015.34 16.7058 1015.54 17.3991 1015.54 18.2791C1015.54 18.9591 1015.36 19.5991 1015 20.1991C1014.64 20.7991 1014.11 21.2858 1013.4 21.6591C1012.69 22.0324 1011.86 22.2191 1010.9 22.2191ZM1028.22 16.1791C1028.22 16.5258 1028.2 16.8924 1028.16 17.2791H1019.4C1019.47 18.3591 1019.83 19.2058 1020.5 19.8191C1021.18 20.4191 1022 20.7191 1022.96 20.7191C1023.75 20.7191 1024.4 20.5391 1024.92 20.1791C1025.45 19.8058 1025.83 19.3124 1026.04 18.6991H1028C1027.71 19.7524 1027.12 20.6124 1026.24 21.2791C1025.36 21.9324 1024.27 22.2591 1022.96 22.2591C1021.92 22.2591 1020.99 22.0258 1020.16 21.5591C1019.35 21.0924 1018.71 20.4324 1018.24 19.5791C1017.77 18.7124 1017.54 17.7124 1017.54 16.5791C1017.54 15.4458 1017.77 14.4524 1018.22 13.5991C1018.67 12.7458 1019.31 12.0924 1020.12 11.6391C1020.95 11.1724 1021.89 10.9391 1022.96 10.9391C1024 10.9391 1024.92 11.1658 1025.72 11.6191C1026.52 12.0724 1027.13 12.6991 1027.56 13.4991C1028 14.2858 1028.22 15.1791 1028.22 16.1791ZM1026.34 15.7991C1026.34 15.1058 1026.19 14.5124 1025.88 14.0191C1025.57 13.5124 1025.15 13.1324 1024.62 12.8791C1024.1 12.6124 1023.52 12.4791 1022.88 12.4791C1021.96 12.4791 1021.17 12.7724 1020.52 13.3591C1019.88 13.9458 1019.51 14.7591 1019.42 15.7991H1026.34ZM1040.62 16.1791C1040.62 16.5258 1040.6 16.8924 1040.56 17.2791H1031.8C1031.87 18.3591 1032.24 19.2058 1032.9 19.8191C1033.58 20.4191 1034.4 20.7191 1035.36 20.7191C1036.15 20.7191 1036.8 20.5391 1037.32 20.1791C1037.86 19.8058 1038.23 19.3124 1038.44 18.6991H1040.4C1040.11 19.7524 1039.52 20.6124 1038.64 21.2791C1037.76 21.9324 1036.67 22.2591 1035.36 22.2591C1034.32 22.2591 1033.39 22.0258 1032.56 21.5591C1031.75 21.0924 1031.11 20.4324 1030.64 19.5791C1030.18 18.7124 1029.94 17.7124 1029.94 16.5791C1029.94 15.4458 1030.17 14.4524 1030.62 13.5991C1031.08 12.7458 1031.71 12.0924 1032.52 11.6391C1033.35 11.1724 1034.3 10.9391 1035.36 10.9391C1036.4 10.9391 1037.32 11.1658 1038.12 11.6191C1038.92 12.0724 1039.54 12.6991 1039.96 13.4991C1040.4 14.2858 1040.62 15.1791 1040.62 16.1791ZM1038.74 15.7991C1038.74 15.1058 1038.59 14.5124 1038.28 14.0191C1037.98 13.5124 1037.56 13.1324 1037.02 12.8791C1036.5 12.6124 1035.92 12.4791 1035.28 12.4791C1034.36 12.4791 1033.58 12.7724 1032.92 13.3591C1032.28 13.9458 1031.92 14.7591 1031.82 15.7991H1038.74ZM1042.34 16.5591C1042.34 15.4391 1042.57 14.4591 1043.02 13.6191C1043.48 12.7658 1044.1 12.1058 1044.88 11.6391C1045.68 11.1724 1046.58 10.9391 1047.56 10.9391C1048.42 10.9391 1049.21 11.1391 1049.94 11.5391C1050.68 11.9258 1051.24 12.4391 1051.62 13.0791V7.2791H1053.46V22.0791H1051.62V20.0191C1051.26 20.6724 1050.73 21.2124 1050.02 21.6391C1049.32 22.0524 1048.49 22.2591 1047.54 22.2591C1046.57 22.2591 1045.68 22.0191 1044.88 21.5391C1044.1 21.0591 1043.48 20.3858 1043.02 19.5191C1042.57 18.6524 1042.34 17.6658 1042.34 16.5591ZM1051.62 16.5791C1051.62 15.7524 1051.46 15.0324 1051.12 14.4191C1050.79 13.8058 1050.34 13.3391 1049.76 13.0191C1049.2 12.6858 1048.58 12.5191 1047.9 12.5191C1047.22 12.5191 1046.6 12.6791 1046.04 12.9991C1045.48 13.3191 1045.04 13.7858 1044.7 14.3991C1044.37 15.0124 1044.2 15.7324 1044.2 16.5591C1044.2 17.3991 1044.37 18.1324 1044.7 18.7591C1045.04 19.3724 1045.48 19.8458 1046.04 20.1791C1046.6 20.4991 1047.22 20.6591 1047.9 20.6591C1048.58 20.6591 1049.2 20.4991 1049.76 20.1791C1050.34 19.8458 1050.79 19.3724 1051.12 18.7591C1051.46 18.1324 1051.62 17.4058 1051.62 16.5791Z" fill="#575757"/>
<path d="M608.22 35.3662V34.3662H607.617L607.336 34.8995L608.22 35.3662ZM1059.87 35.3662L1054.09 29.5927L1048.32 35.3662L1054.09 41.1397L1059.87 35.3662ZM589.384 73.1972L609.104 35.833L607.336 34.8995L587.616 72.2637L589.384 73.1972ZM608.22 36.3662H1054.09V34.3662H608.22V36.3662Z" fill="#AFAFAF"/>
<path d="M1002.5 564.712H996.423L995.303 567.812H993.383L998.423 553.952H1000.52L1005.54 567.812H1003.62L1002.5 564.712ZM1001.98 563.232L999.463 556.192L996.943 563.232H1001.98ZM1007.06 562.292C1007.06 561.172 1007.29 560.192 1007.74 559.352C1008.19 558.499 1008.81 557.839 1009.6 557.372C1010.4 556.906 1011.29 556.672 1012.28 556.672C1013.13 556.672 1013.93 556.872 1014.66 557.272C1015.39 557.659 1015.95 558.172 1016.34 558.812V553.012H1018.18V567.812H1016.34V565.752C1015.98 566.406 1015.45 566.946 1014.74 567.372C1014.03 567.786 1013.21 567.993 1012.26 567.993C1011.29 567.993 1010.4 567.753 1009.6 567.272C1008.81 566.792 1008.19 566.119 1007.74 565.252C1007.29 564.386 1007.06 563.399 1007.06 562.292ZM1016.34 562.312C1016.34 561.486 1016.17 560.766 1015.84 560.152C1015.51 559.539 1015.05 559.072 1014.48 558.752C1013.92 558.419 1013.3 558.252 1012.62 558.252C1011.94 558.252 1011.32 558.412 1010.76 558.732C1010.2 559.052 1009.75 559.519 1009.42 560.132C1009.09 560.746 1008.92 561.466 1008.92 562.292C1008.92 563.132 1009.09 563.866 1009.42 564.492C1009.75 565.106 1010.2 565.579 1010.76 565.912C1011.32 566.232 1011.94 566.392 1012.62 566.392C1013.3 566.392 1013.92 566.232 1014.48 565.912C1015.05 565.579 1015.51 565.106 1015.84 564.492C1016.17 563.866 1016.34 563.139 1016.34 562.312ZM1025.33 566.132L1028.73 556.852H1030.67L1026.37 567.812H1024.25L1019.95 556.852H1021.91L1025.33 566.132ZM1033.41 555.072C1033.06 555.072 1032.77 554.952 1032.53 554.712C1032.29 554.472 1032.17 554.179 1032.17 553.832C1032.17 553.486 1032.29 553.192 1032.53 552.952C1032.77 552.712 1033.06 552.592 1033.41 552.592C1033.74 552.592 1034.02 552.712 1034.25 552.952C1034.49 553.192 1034.61 553.486 1034.61 553.832C1034.61 554.179 1034.49 554.472 1034.25 554.712C1034.02 554.952 1033.74 555.072 1033.41 555.072ZM1034.29 556.852V567.812H1032.47V556.852H1034.29ZM1041.27 567.993C1040.43 567.993 1039.67 567.853 1039.01 567.572C1038.34 567.279 1037.81 566.879 1037.43 566.372C1037.04 565.852 1036.83 565.259 1036.79 564.592H1038.67C1038.72 565.139 1038.97 565.586 1039.43 565.932C1039.89 566.279 1040.5 566.452 1041.25 566.452C1041.94 566.452 1042.49 566.299 1042.89 565.992C1043.29 565.686 1043.49 565.299 1043.49 564.832C1043.49 564.352 1043.27 563.999 1042.85 563.772C1042.42 563.532 1041.76 563.299 1040.87 563.072C1040.05 562.859 1039.39 562.646 1038.87 562.432C1038.36 562.206 1037.92 561.879 1037.55 561.452C1037.19 561.012 1037.01 560.439 1037.01 559.732C1037.01 559.172 1037.17 558.659 1037.51 558.192C1037.84 557.726 1038.31 557.359 1038.93 557.092C1039.54 556.812 1040.24 556.672 1041.03 556.672C1042.24 556.672 1043.22 556.979 1043.97 557.592C1044.71 558.206 1045.11 559.046 1045.17 560.112H1043.35C1043.31 559.539 1043.07 559.079 1042.65 558.732C1042.23 558.386 1041.67 558.212 1040.97 558.212C1040.31 558.212 1039.79 558.352 1039.41 558.632C1039.02 558.912 1038.83 559.279 1038.83 559.732C1038.83 560.092 1038.94 560.392 1039.17 560.632C1039.41 560.859 1039.7 561.046 1040.05 561.192C1040.41 561.326 1040.9 561.479 1041.53 561.652C1042.31 561.866 1042.95 562.079 1043.45 562.292C1043.94 562.492 1044.36 562.799 1044.71 563.212C1045.07 563.626 1045.25 564.166 1045.27 564.832C1045.27 565.432 1045.1 565.972 1044.77 566.452C1044.43 566.932 1043.96 567.312 1043.35 567.592C1042.75 567.859 1042.05 567.993 1041.27 567.993ZM1052.62 567.993C1051.59 567.993 1050.66 567.759 1049.82 567.292C1048.99 566.826 1048.34 566.166 1047.86 565.312C1047.39 564.446 1047.16 563.446 1047.16 562.312C1047.16 561.192 1047.4 560.206 1047.88 559.352C1048.37 558.486 1049.04 557.826 1049.88 557.372C1050.72 556.906 1051.66 556.672 1052.7 556.672C1053.74 556.672 1054.68 556.906 1055.52 557.372C1056.36 557.826 1057.02 558.479 1057.5 559.332C1057.99 560.186 1058.24 561.179 1058.24 562.312C1058.24 563.446 1057.98 564.446 1057.48 565.312C1056.98 566.166 1056.31 566.826 1055.46 567.292C1054.6 567.759 1053.66 567.993 1052.62 567.993ZM1052.62 566.392C1053.27 566.392 1053.88 566.239 1054.46 565.932C1055.03 565.626 1055.49 565.166 1055.84 564.552C1056.2 563.939 1056.38 563.192 1056.38 562.312C1056.38 561.432 1056.2 560.686 1055.86 560.072C1055.51 559.459 1055.06 559.006 1054.5 558.712C1053.94 558.406 1053.33 558.252 1052.68 558.252C1052.01 558.252 1051.4 558.406 1050.84 558.712C1050.29 559.006 1049.85 559.459 1049.52 560.072C1049.18 560.686 1049.02 561.432 1049.02 562.312C1049.02 563.206 1049.18 563.959 1049.5 564.572C1049.83 565.186 1050.27 565.646 1050.82 565.952C1051.36 566.246 1051.96 566.392 1052.62 566.392ZM1062.45 558.632C1062.77 558.006 1063.22 557.519 1063.81 557.172C1064.41 556.826 1065.14 556.652 1065.99 556.652V558.532H1065.51C1063.47 558.532 1062.45 559.639 1062.45 561.852V567.812H1060.63V556.852H1062.45V558.632ZM1071.97 567.993C1071.13 567.993 1070.38 567.853 1069.71 567.572C1069.04 567.279 1068.52 566.879 1068.13 566.372C1067.74 565.852 1067.53 565.259 1067.49 564.592H1069.37C1069.42 565.139 1069.68 565.586 1070.13 565.932C1070.6 566.279 1071.2 566.452 1071.95 566.452C1072.64 566.452 1073.19 566.299 1073.59 565.992C1073.99 565.686 1074.19 565.299 1074.19 564.832C1074.19 564.352 1073.98 563.999 1073.55 563.772C1073.12 563.532 1072.46 563.299 1071.57 563.072C1070.76 562.859 1070.09 562.646 1069.57 562.432C1069.06 562.206 1068.62 561.879 1068.25 561.452C1067.89 561.012 1067.71 560.439 1067.71 559.732C1067.71 559.172 1067.88 558.659 1068.21 558.192C1068.54 557.726 1069.02 557.359 1069.63 557.092C1070.24 556.812 1070.94 556.672 1071.73 556.672C1072.94 556.672 1073.92 556.979 1074.67 557.592C1075.42 558.206 1075.82 559.046 1075.87 560.112H1074.05C1074.01 559.539 1073.78 559.079 1073.35 558.732C1072.94 558.386 1072.38 558.212 1071.67 558.212C1071.02 558.212 1070.5 558.352 1070.11 558.632C1069.72 558.912 1069.53 559.279 1069.53 559.732C1069.53 560.092 1069.64 560.392 1069.87 560.632C1070.11 560.859 1070.4 561.046 1070.75 561.192C1071.11 561.326 1071.6 561.479 1072.23 561.652C1073.02 561.866 1073.66 562.079 1074.15 562.292C1074.64 562.492 1075.06 562.799 1075.41 563.212C1075.77 563.626 1075.96 564.166 1075.97 564.832C1075.97 565.432 1075.8 565.972 1075.47 566.452C1075.14 566.932 1074.66 567.312 1074.05 567.592C1073.45 567.859 1072.76 567.993 1071.97 567.993Z" fill="#575757"/>
<path d="M656.785 581.101L655.786 581.154L655.836 582.101H656.785V581.101ZM1081.87 581.101L1076.09 575.328L1070.32 581.101L1076.09 586.875L1081.87 581.101ZM653.71 541.714L655.786 581.154L657.783 581.049L655.708 541.609L653.71 541.714ZM656.785 582.101H1076.09V580.101H656.785V582.101Z" fill="#0A8078"/>
</svg>
