<svg width="30" height="29" viewBox="0 0 30 29" fill="none" xmlns="http://www.w3.org/2000/svg">
<path d="M15.1552 28.745C23.0366 28.745 29.3773 22.4036 29.3773 14.5213C29.3773 6.63895 23.0366 0.297607 15.1552 0.297607C7.27373 0.297607 0.933105 6.63895 0.933105 14.5213C0.933105 22.4036 7.27373 28.745 15.1552 28.745Z" fill="#2775CA"/>
<path d="M19.0661 16.7733C19.0661 14.6991 17.8217 13.9879 15.3328 13.6916C13.555 13.4545 13.1995 12.9805 13.1995 12.1507C13.1995 11.3208 13.7921 10.7876 14.9773 10.7876C16.0439 10.7876 16.6365 11.1432 16.9328 12.0322C16.9921 12.21 17.1699 12.3284 17.3476 12.3284H18.2957C18.5328 12.3284 18.7105 12.1507 18.7105 11.9137V11.8544C18.4735 10.5505 17.4068 9.54302 16.0439 9.42454V8.00217C16.0439 7.76506 15.8661 7.58727 15.5699 7.52795H14.681C14.4439 7.52795 14.2662 7.70575 14.2068 8.00217V9.36523C12.4291 9.60234 11.3033 10.7876 11.3033 12.2693C11.3033 14.225 12.4884 14.9954 14.9773 15.2918C16.6365 15.5881 17.1699 15.9437 17.1699 16.892C17.1699 17.8403 16.3402 18.4921 15.2143 18.4921C13.6735 18.4921 13.1402 17.8401 12.9624 16.9511C12.9032 16.7142 12.7255 16.5956 12.5477 16.5956H11.5402C11.3033 16.5956 11.1255 16.7733 11.1255 17.0105V17.0698C11.3624 18.5513 12.3106 19.6181 14.2661 19.9145V21.3369C14.2661 21.5738 14.4439 21.7516 14.7402 21.811H15.6291C15.8661 21.811 16.0439 21.6332 16.1032 21.3369V19.9145C17.881 19.6181 19.0661 18.3735 19.0661 16.7733V16.7733Z" fill="white"/>
<path fill-rule="evenodd" clip-rule="evenodd" d="M6.85831 11.6172C5.13972 16.1807 7.51011 21.3368 12.1323 22.9961C12.3101 23.1148 12.4878 23.3517 12.4878 23.5295V24.3593C12.4878 24.4778 12.4878 24.5371 12.4285 24.5963C12.3694 24.8334 12.1323 24.9519 11.8952 24.8334C8.57677 23.7666 6.0286 21.2182 4.96194 17.8994C3.18418 12.2692 6.26568 6.2833 11.8952 4.50534C11.9545 4.44617 12.073 4.44617 12.1323 4.44617C12.3694 4.50534 12.4878 4.68313 12.4878 4.92024V5.74991C12.4878 6.04633 12.3694 6.22413 12.1323 6.34261C9.70273 7.23159 7.74719 9.12804 6.85831 11.6172ZM17.8803 4.74243C17.9395 4.50532 18.1766 4.38684 18.4136 4.50532C21.6728 5.5721 24.2802 8.12055 25.3469 11.4987C27.1247 17.1288 24.0432 23.1147 18.4136 24.8927C18.3543 24.9519 18.2359 24.9519 18.1766 24.9519C17.9395 24.8927 17.821 24.7149 17.821 24.4778V23.6481C17.821 23.3517 17.9395 23.1739 18.1766 23.0554C20.6061 22.1664 22.5616 20.27 23.4505 17.7809C25.1691 13.2173 22.7987 8.06124 18.1766 6.40191C17.9988 6.28328 17.821 6.04631 17.821 5.8092V4.97954C17.821 4.86091 17.821 4.80174 17.8803 4.74243Z" fill="white"/>
</svg>
