<svg width="24" height="24" viewBox="0 0 24 24" fill="none" xmlns="http://www.w3.org/2000/svg">
<g clip-path="url(#clip0_13_4792)">
<path d="M12 1.89185e-07C5.3496 1.89185e-07 1.89185e-07 5.3496 1.89185e-07 12C1.89185e-07 18.6504 5.3496 24 12 24C18.6504 24 24 18.6504 24 12C24 5.3496 18.6504 1.89185e-07 12 1.89185e-07Z" fill="#2775CA"/>
<path d="M9.13135 10.2587C9.13135 11.8453 10.0727 12.3894 11.9553 12.6169C13.3001 12.7986 13.569 13.161 13.569 13.7954C13.569 14.4298 13.1204 14.8379 12.2243 14.8379C11.4174 14.8379 10.9688 14.5658 10.7451 13.8857C10.6999 13.7497 10.5654 13.6594 10.4309 13.6594H9.71336C9.5337 13.6594 9.39922 13.7954 9.39922 13.9771V14.0228C9.57888 15.0207 10.3857 15.7911 11.4164 15.8815V16.9697C11.4164 17.1514 11.5508 17.2874 11.7746 17.332H12.447C12.6266 17.332 12.7611 17.196 12.8052 16.9697V15.9272C14.15 15.7454 15.002 14.839 15.002 13.7051C15.002 12.2088 14.1059 11.619 12.2232 11.3926C10.9677 11.1663 10.5643 10.8942 10.5643 10.1684C10.5643 9.44258 11.1915 8.94418 12.0435 8.94418C13.2086 8.94418 13.6121 9.44258 13.7465 10.1227C13.7917 10.3044 13.9262 10.3948 14.0607 10.3948H14.8223C15.002 10.3948 15.1365 10.2587 15.1365 10.077V10.0313C14.9568 8.89739 14.2403 8.08124 12.7611 7.85489V6.76669C12.7611 6.58496 12.6266 6.44894 12.4029 6.40432H11.7305C11.5508 6.40432 11.4164 6.54034 11.3722 6.76669V7.85489C10.0286 8.08232 9.13135 9.0345 9.13135 10.2587Z" fill="white"/>
<path d="M14.3758 5.49627C17.8722 6.7662 19.6655 10.7109 18.3649 14.2019C17.6925 16.1062 16.2133 17.5568 14.3758 18.2369C14.1961 18.3272 14.1069 18.4633 14.1069 18.6907V19.3251C14.1069 19.5069 14.1961 19.6429 14.3758 19.6875C14.421 19.6875 14.5103 19.6875 14.5555 19.6418C18.8135 18.2815 21.1448 13.7024 19.8 9.39421C18.9931 6.85544 17.0653 4.90538 14.5555 4.08923C14.3758 3.99891 14.1972 4.08923 14.152 4.27096C14.1069 4.31666 14.1069 4.36128 14.1069 4.45269V5.08711C14.1069 5.22422 14.2413 5.40486 14.3758 5.49627ZM9.62507 19.6429C9.80473 19.7332 9.98331 19.6429 10.0285 19.4612C10.0737 19.4154 10.0737 19.3708 10.0737 19.2794V18.645C10.0737 18.4633 9.9392 18.2826 9.80472 18.1912C6.30837 16.9213 4.51501 12.9766 5.81565 9.48562C6.48803 7.58127 7.96726 6.13069 9.80472 5.45057C9.98438 5.36025 10.0737 5.22422 10.0737 4.99679V4.36237C10.0737 4.18064 9.98438 4.04461 9.80472 4C9.75954 4 9.67025 4 9.62507 4.0457C5.36704 5.40595 3.03578 9.9851 4.38053 14.2933C5.18738 16.8767 7.15933 18.8267 9.62507 19.6429Z" fill="white"/>
</g>
<defs>
<clipPath id="clip0_13_4792">
<rect width="24" height="24" fill="white"/>
</clipPath>
</defs>
</svg>
