<svg width="32" height="31" viewBox="0 0 32 31" fill="none" xmlns="http://www.w3.org/2000/svg">
<g clip-path="url(#clip0_3269_26009)">
<path d="M12 24C18.65 24 24 18.65 24 12C24 5.34996 18.65 0 12 0C5.34996 0 0 5.34996 0 12C0 18.65 5.34996 24 12 24Z" fill="#2775CA"/>
<path d="M15.2996 13.9001C15.2996 12.1501 14.2496 11.5501 12.1496 11.3002C10.6496 11.1001 10.3496 10.7002 10.3496 10.0001C10.3496 9.30002 10.8496 8.85014 11.8496 8.85014C12.7496 8.85014 13.2496 9.15014 13.4996 9.90014C13.5496 10.0501 13.6996 10.1501 13.8496 10.1501H14.6495C14.8496 10.1501 14.9996 10.0001 14.9996 9.80018V9.75014C14.7995 8.6501 13.8995 7.80014 12.7496 7.70018V6.50018C12.7496 6.30014 12.5996 6.15014 12.3496 6.1001H11.5996C11.3996 6.1001 11.2496 6.2501 11.1995 6.50018V7.65014C9.69953 7.85018 8.74961 8.85014 8.74961 10.1002C8.74961 11.7502 9.74957 12.4001 11.8496 12.6502C13.2496 12.9001 13.6996 13.2001 13.6996 14.0002C13.6996 14.8002 12.9995 15.3502 12.0496 15.3502C10.7495 15.3502 10.2995 14.8001 10.1495 14.0501C10.0996 13.8502 9.94961 13.7501 9.79961 13.7501H8.94953C8.74961 13.7501 8.59961 13.9001 8.59961 14.1001V14.1502C8.79953 15.4001 9.59957 16.3001 11.2496 16.5502V17.7502C11.2496 17.9501 11.3996 18.1001 11.6495 18.1501H12.3995C12.5996 18.1501 12.7496 18.0001 12.7996 17.7502V16.5502C14.2996 16.3001 15.2996 15.2501 15.2996 13.9001Z" fill="white"/>
<path d="M9.45 19.1499C5.55 17.75 3.54996 13.4 5.00004 9.54992C5.75004 7.44992 7.40004 5.84996 9.45 5.09996C9.65004 5 9.75 4.85 9.75 4.59992V3.89996C9.75 3.69992 9.65004 3.54992 9.45 3.5C9.39996 3.5 9.3 3.5 9.24996 3.54992C4.5 5.04992 1.89996 10.1 3.39996 14.85C4.29996 17.6499 6.45 19.8 9.24996 20.7C9.45 20.7999 9.65004 20.7 9.69996 20.4999C9.75 20.45 9.75 20.4 9.75 20.3V19.5999C9.75 19.4499 9.6 19.25 9.45 19.1499ZM14.75 3.54992C14.55 3.44996 14.35 3.54992 14.3 3.74996C14.25 3.8 14.25 3.84992 14.25 3.95V4.64996C14.25 4.85 14.4 5.04992 14.55 5.15C18.45 6.54992 20.45 10.8999 19 14.75C18.25 16.85 16.6 18.45 14.55 19.2C14.35 19.2999 14.25 19.4499 14.25 19.7V20.4C14.25 20.6 14.35 20.75 14.55 20.7999C14.6 20.7999 14.7 20.7999 14.75 20.75C19.5 19.25 22.1 14.1999 20.6 9.44996C19.7 6.59996 17.5 4.44992 14.75 3.54992Z" fill="white"/>
</g>
<circle cx="24" cy="23" r="8" fill="#EDF0F4"/>
<path d="M23.9777 18.2002L23.9141 18.4164V24.6886L23.9777 24.7521L26.8891 23.0311L23.9777 18.2002Z" fill="#343434"/>
<path d="M23.9779 18.2002L21.0664 23.0311L23.9779 24.7521V21.7077V18.2002Z" fill="#8C8C8C"/>
<path d="M23.9783 25.3031L23.9424 25.3468V27.5811L23.9783 27.6858L26.8915 23.583L23.9783 25.3031Z" fill="#3C3C3B"/>
<path d="M23.9779 27.6858V25.3031L21.0664 23.583L23.9779 27.6858Z" fill="#8C8C8C"/>
<path d="M23.9775 24.7519L26.889 23.0309L23.9775 21.7075V24.7519Z" fill="#141414"/>
<path d="M21.0664 23.0309L23.9779 24.7519V21.7075L21.0664 23.0309Z" fill="#393939"/>
<defs>
<clipPath id="clip0_3269_26009">
<rect width="24" height="24" fill="white"/>
</clipPath>
</defs>
</svg>
