<svg width="20" height="21" viewBox="0 0 20 21" fill="none" xmlns="http://www.w3.org/2000/svg">
<rect y="0.899902" width="19.2" height="19.2" rx="9.6" fill="#F0F0F0"/>
<path d="M4.95778 4.50514L5.00032 4.47314C5.88772 5.53977 8.41583 8.43688 9.86972 8.43688C10.9928 8.43688 11.6395 6.74041 11.7275 6.49531L11.7787 6.51314C11.7787 6.51314 10.9721 8.76287 11.7302 9.35561C12.4757 9.93842 15.6128 8.95448 15.8813 8.86971L15.8966 8.92069C15.8966 8.92069 12.2916 10.0141 12.0625 11.0563C11.8988 11.8012 12.8376 12.853 13.0883 13.1228L13.0505 13.1591C13.0505 13.1591 11.9595 11.9392 11.1475 12.2802C9.94007 12.7875 9.24969 16.3353 9.16612 16.8349L9.11286 16.8249C9.11286 16.8249 9.87037 12.827 7.97302 11.9303C6.90717 11.4263 4.27641 12.0694 3.85905 12.1736L3.84375 12.1214C3.84375 12.1214 7.52335 11.2015 7.52335 9.17931C7.52335 7.54259 4.95778 4.50514 4.95778 4.50514Z" fill="#0F0F0F"/>
<path fill-rule="evenodd" clip-rule="evenodd" d="M7.15601 16.4197L9.86783 11.1118H7.77368L6.38335 13.8245L4.98684 11.1118H2.88281L5.61394 16.4197H7.15601ZM6.38483 15.0213L6.38523 15.0221L8.10891 11.659H8.10811L6.38483 15.0213ZM5.94857 15.8725L3.78056 11.659H3.77976L5.94777 15.8725H5.94857Z" fill="#00A1B3"/>
</svg>
