<svg width="24" height="24" viewBox="0 0 24 24" fill="none" xmlns="http://www.w3.org/2000/svg">
<path d="M1 9.66666C1 9.11438 1.44772 8.66666 2 8.66666H21.9C22.5075 8.66666 23 9.16412 23 9.77777V20.8889C23 21.5026 22.5075 22 21.9 22H2.1C1.49249 22 1 21.5026 1 20.8889V9.66666ZM2.1 2H17.6C18.1523 2 18.6 2.44772 18.6 3V5.44444C18.6 5.99673 18.1523 6.44444 17.6 6.44444H2C1.44772 6.44444 1 5.99673 1 5.44444V3.11111C1 2.49746 1.49249 2 2.1 2ZM15.3 14.2222V16.4444H18.6V14.2222H15.3Z" fill="#0F0F0F"/>
</svg>
