<svg width="25" height="24" viewBox="0 0 25 24" fill="none" xmlns="http://www.w3.org/2000/svg">
<g clip-path="url(#clip0_4330_5931)">
<g clip-path="url(#clip1_4330_5931)">
<path d="M17.6422 20.5724C17.6422 21.5177 16.3293 22.5811 14.2539 22.9724C13.4069 22.9724 12.9941 22.9724 11.6606 22.9724C7.01125 22.9724 3.24219 21.8978 3.24219 20.5724C3.24219 19.2469 7.01125 18.1724 11.6606 18.1724C16.31 18.1724 17.6422 19.2469 17.6422 20.5724Z" fill="black"/>
<path d="M23.8152 11.0095C23.8152 16.8641 18.6299 22.6295 12.7397 22.6295C6.84937 22.6295 0.84375 16.4564 0.84375 10.6017C0.84375 4.74711 5.61876 0.000976562 11.509 0.000976562C17.3993 0.000976562 23.8152 5.15484 23.8152 11.0095Z" fill="#F61F7D"/>
<path fill-rule="evenodd" clip-rule="evenodd" d="M19.6877 18.2667C21.5583 16.2667 22.7213 13.6208 22.7213 11.0095C22.7213 8.48899 21.3319 6.01682 19.1566 4.13889C16.9832 2.2627 14.1529 1.09591 11.509 1.09591C6.21564 1.09591 1.93763 5.35908 1.93763 10.6017C1.93763 13.1695 3.26915 15.9148 5.36237 18.043C7.45558 20.1712 10.1646 21.5346 12.7397 21.5346C15.3235 21.5346 17.8181 20.2656 19.6877 18.2667ZM12.7397 22.6295C18.6299 22.6295 23.8152 16.8641 23.8152 11.0095C23.8152 5.15484 17.3993 0.000976562 11.509 0.000976562C5.61876 0.000976562 0.84375 4.74711 0.84375 10.6017C0.84375 16.4564 6.84937 22.6295 12.7397 22.6295Z" fill="black"/>
<path d="M24.5004 12.1726C24.5004 18.1372 19.6651 22.9726 13.7004 22.9726C7.73571 22.9726 2.90039 18.1372 2.90039 12.1726C2.90039 6.20787 7.73571 1.37256 13.7004 1.37256C19.6651 1.37256 24.5004 6.20787 24.5004 12.1726Z" fill="white"/>
<path fill-rule="evenodd" clip-rule="evenodd" d="M13.7004 21.8743C19.0585 21.8743 23.4021 17.5307 23.4021 12.1726C23.4021 6.81446 19.0585 2.47086 13.7004 2.47086C8.34229 2.47086 3.9987 6.81446 3.9987 12.1726C3.9987 17.5307 8.34229 21.8743 13.7004 21.8743ZM13.7004 22.9726C19.6651 22.9726 24.5004 18.1372 24.5004 12.1726C24.5004 6.20787 19.6651 1.37256 13.7004 1.37256C7.73571 1.37256 2.90039 6.20787 2.90039 12.1726C2.90039 18.1372 7.73571 22.9726 13.7004 22.9726Z" fill="black"/>
<path fill-rule="evenodd" clip-rule="evenodd" d="M3.52305 10.6296L1.18555 8.75209L1.93376 7.88672L4.27126 9.7642L3.52305 10.6296Z" fill="black"/>
<path d="M6.32812 9.94385H7.31888L7.63177 12.9407L8.02938 9.95019H8.80503L9.22222 12.9216L9.54159 9.94385H10.5193L9.88705 15.0867H8.87024L8.42048 11.9819L7.99678 15.0867H6.9669L6.32812 9.94385Z" fill="black"/>
<path d="M11.4141 9.94385H13.7867V10.7185H12.5808V11.9946H13.4999V12.782H12.5808V14.3185H13.7997V15.0867H11.4141V9.94385Z" fill="black"/>
<path d="M15.1383 10.7883H14.3301V9.94385H17.1134V10.7883H16.3116V15.0867H15.1383V10.7883Z" fill="black"/>
<path d="M17.916 9.94385H19.0828V12.0264H19.8975V9.94385H21.0708V15.0867H19.8975V12.8391H19.0828V15.0867H17.916V9.94385Z" fill="black"/>
</g>
</g>
<defs>
<clipPath id="clip0_4330_5931">
<rect width="24" height="24" fill="white" transform="translate(0.498047 0.000976562)"/>
</clipPath>
<clipPath id="clip1_4330_5931">
<rect width="24" height="24" fill="white" transform="translate(0.5 0.000976562)"/>
</clipPath>
</defs>
</svg>
