<svg width="36" height="31" viewBox="0 0 36 31" fill="none" xmlns="http://www.w3.org/2000/svg">
<path fill-rule="evenodd" clip-rule="evenodd" d="M25.4573 0.0682287C25.3634 0.104926 24.6832 0.717861 23.9457 1.43037C23.2081 2.14289 22.494 2.78331 22.3586 2.85361C22.1373 2.96845 21.8613 2.98577 19.6165 3.02528C16.9826 3.07167 16.8665 3.08528 16.163 3.43081C15.826 3.59636 11.105 8.13114 10.9279 8.45943C10.6995 8.88283 10.8608 9.45343 11.3063 9.79807C11.9826 10.3213 12.5577 10.5281 13.3589 10.5363C14.2397 10.5454 14.855 10.2995 15.714 9.59507C16.3756 9.05271 16.9192 8.83431 17.6905 8.80125C18.5044 8.76634 18.8839 8.87149 19.7479 9.37117C20.6011 9.86466 20.8985 9.98987 21.5578 10.1333C22.7879 10.4008 24.0321 10.0859 24.9837 9.26623L25.3238 8.9734L28.9359 12.5035C30.9226 14.445 32.5715 16.0105 32.6004 15.9823C32.6513 15.9326 32.6539 15.7083 32.6177 14.4932C32.5904 13.579 32.6568 13.4768 34.3866 11.7692C35.1959 10.9703 35.8582 10.2649 35.8582 10.2017C35.8582 10.1386 35.8898 10.106 35.9285 10.1294C36.0474 10.2012 36.0085 9.55589 35.8818 9.35385C35.7129 9.08432 26.6489 0.20911 26.4226 0.0914569C26.2081 -0.0199419 25.7136 -0.031831 25.4573 0.0682287ZM9.52703 0.160454C9.41102 0.211858 7.22001 2.30638 4.65805 4.81488L0 9.37584V9.87944V10.383L1.18241 11.5657C2.70378 13.0873 2.95992 13.4538 3.4421 14.8C3.56353 15.1388 3.67624 15.4292 3.69276 15.4453C3.70921 15.4614 3.92232 15.2924 4.16644 15.0698C5.3049 14.0314 6.9245 13.7993 8.34315 14.4714C9.09947 14.8297 9.87028 15.7252 10.1502 16.5708C10.1872 16.6828 10.2072 16.6823 10.4931 16.5625C11.8428 15.9971 13.428 16.3008 14.4769 17.326C15.5136 18.3393 15.8241 19.9011 15.2495 21.2115C15.127 21.491 15.1265 21.5105 15.2411 21.5467C16.5649 21.9654 17.5303 23.0844 17.7315 24.4337L17.8144 24.99L18.3815 25.0682C19.3797 25.206 19.8075 25.4601 21.0539 26.6554C22.1839 27.7391 22.5159 27.9589 23.0266 27.9609C23.5176 27.9629 23.8505 27.8292 24.1963 27.4912C24.5422 27.1531 24.6789 26.8278 24.6769 26.3478C24.6747 25.8082 24.4662 25.532 22.8881 23.9781C21.288 22.4026 21.2203 22.3065 21.3389 21.7791C21.4041 21.4887 21.8064 21.1078 22.106 21.0529C22.6328 20.9563 22.7285 21.0217 24.3285 22.5721C25.3858 23.5966 25.9363 24.0801 26.1566 24.1778C26.7341 24.4338 27.3888 24.335 27.8588 23.9208C28.2191 23.6034 28.4022 23.2169 28.4022 22.7743C28.4022 22.1561 28.2359 21.9291 26.6144 20.3346C25.0129 18.7599 24.9465 18.6657 25.0653 18.1368C25.1305 17.8464 25.5329 17.4656 25.8324 17.4106C26.3574 17.3144 26.456 17.3815 28.0538 18.9245C28.8852 19.7273 29.67 20.4366 29.7977 20.5005C30.1176 20.6608 30.6308 20.7088 30.9956 20.6126C31.3921 20.5081 31.8791 20.0681 32.0323 19.6759C32.1838 19.2881 32.1355 18.6456 31.9308 18.3262C31.8514 18.2025 30.318 16.6673 28.5232 14.9149L25.2599 11.7287L24.6706 12.0107C23.9376 12.3615 23.4166 12.4967 22.6047 12.5468C21.3814 12.6221 20.1684 12.2549 19.1823 11.5106C18.2307 10.7923 18.2127 10.7822 17.8789 10.7822C17.4989 10.7822 17.4044 10.8301 16.7932 11.3316C16.1975 11.8205 15.5315 12.1688 14.7971 12.3756C13.9959 12.6012 12.7029 12.5996 11.9552 12.3721C10.6935 11.9883 9.71701 11.2893 9.15832 10.3699C8.89121 9.93036 8.77 9.37076 8.80171 8.72318C8.82667 8.21251 8.8678 8.05197 9.09188 7.59085C9.3374 7.08553 9.47429 6.93407 11.3899 5.04895L13.4269 3.04439L11.9691 1.62609C11.1674 0.846096 10.4223 0.174954 10.3134 0.134683C10.0507 0.0376472 9.7845 0.0463062 9.52703 0.160454ZM6.17921 16.1646C5.7809 16.3101 5.60077 16.4622 4.27809 17.7699C3.10806 18.9265 3.02988 19.0203 2.91611 19.4027C2.81459 19.744 2.8084 19.8651 2.87723 20.1657C3.03719 20.8644 3.70317 21.3881 4.42954 21.3863C5.0842 21.3847 5.26862 21.2599 6.72489 19.8328C7.96495 18.6176 8.08082 18.4831 8.19345 18.1285C8.34772 17.6429 8.29337 17.235 8.01789 16.8104C7.64419 16.2344 6.7997 15.9378 6.17921 16.1646ZM11.2103 18.4426C10.9552 18.5668 10.3137 19.1506 8.81225 20.6245C6.84167 22.559 6.758 22.652 6.64677 23.0283C6.27722 24.2788 7.46715 25.3598 8.75362 24.9424C9.14967 24.814 13.0678 21.0171 13.325 20.5126C13.64 19.8946 13.532 19.2714 13.0202 18.7559C12.5125 18.2442 11.8521 18.13 11.2103 18.4426ZM13.6321 23.4491C13.2344 23.5944 13.0529 23.7473 11.7599 25.0263C10.4509 26.3211 10.316 26.5182 10.3143 27.1382C10.3116 28.1768 11.3244 28.9071 12.3598 28.6129C12.7323 28.507 12.8469 28.4147 14.0496 27.2518C15.5607 25.7906 15.7143 25.5766 15.7143 24.9337C15.7143 24.5503 15.6819 24.4304 15.5016 24.1452C15.1094 23.5252 14.2745 23.2144 13.6321 23.4491ZM17.3047 27.1138C16.9161 27.2532 16.0174 28.0768 15.7421 28.546C15.2821 29.3298 15.5906 30.3205 16.4165 30.7113C16.792 30.8889 17.3712 30.9065 17.7502 30.7518C18.0818 30.6163 19.008 29.7452 19.2542 29.3373C19.4051 29.0871 19.4408 28.9416 19.4408 28.576C19.4408 28.1926 19.4083 28.0726 19.228 27.7874C18.821 27.144 18.0114 26.8604 17.3047 27.1138Z" fill="#12FFF1"/>
</svg>
