<svg width="36" height="36" viewBox="0 0 36 36" fill="none" xmlns="http://www.w3.org/2000/svg">
<path d="M7.5 24V30M9 6V12M10.5 27H4.5M12 9H6M19.5 6L22.1293 12.6666C22.4111 13.3812 22.5521 13.7386 22.7679 14.0399C22.9591 14.307 23.193 14.5409 23.4601 14.7321C23.7614 14.9479 24.1188 15.0889 24.8334 15.3707L31.5 18L24.8334 20.6292C24.1188 20.9111 23.7614 21.0521 23.4601 21.2679C23.193 21.4591 22.9591 21.693 22.7679 21.9601C22.5521 22.2614 22.4111 22.6188 22.1293 23.3334L19.5 30L16.8707 23.3334C16.5889 22.6188 16.4479 22.2614 16.2321 21.9601C16.0409 21.693 15.807 21.4591 15.5399 21.2679C15.2386 21.0521 14.8812 20.9111 14.1666 20.6292L7.5 18L14.1666 15.3707C14.8812 15.0889 15.2386 14.9479 15.5399 14.7321C15.807 14.5409 16.0409 14.307 16.2321 14.0399C16.4479 13.7386 16.5889 13.3812 16.8707 12.6666L19.5 6Z" stroke="#12FFF1" stroke-linecap="round" stroke-linejoin="round"/>
<path d="M19.5 6L22.1293 12.6666C22.4111 13.3812 22.5521 13.7386 22.7679 14.0399C22.9591 14.307 23.193 14.5409 23.4601 14.7321C23.7614 14.9479 24.1188 15.0889 24.8334 15.3707L31.5 18L24.8334 20.6292C24.1188 20.9111 23.7614 21.0521 23.4601 21.2679C23.193 21.4591 22.9591 21.693 22.7679 21.9601C22.5521 22.2614 22.4111 22.6188 22.1293 23.3334L19.5 30L16.8707 23.3334C16.5889 22.6188 16.4479 22.2614 16.2321 21.9601C16.0409 21.693 15.807 21.4591 15.5399 21.2679C15.2386 21.0521 14.8812 20.9111 14.1666 20.6292L7.5 18L14.1666 15.3707C14.8812 15.0889 15.2386 14.9479 15.5399 14.7321C15.807 14.5409 16.0409 14.307 16.2321 14.0399C16.4479 13.7386 16.5889 13.3812 16.8707 12.6666L19.5 6Z" fill="#12FFF1"/>
</svg>
