<svg width="175" height="42" viewBox="0 0 175 42" fill="none" xmlns="http://www.w3.org/2000/svg">
<mask id="mask0_478_354" style="mask-type:luminance" maskUnits="userSpaceOnUse" x="0" y="0" width="175" height="42">
<path d="M0.597656 0.5H174.598V41.5H0.597656V0.5Z" fill="white"/>
</mask>
<g mask="url(#mask0_478_354)">
<path d="M26.3612 30.6843L18.9538 33.8955V33.574C17.5253 33.9385 15.9434 34.1489 14.4444 34.2163C7.47919 34.1489 1.95046 30.514 1.88583 26.1887V24.582C4.17356 27.8991 8.83126 30.1214 14.4444 30.0414C16.3444 30.1214 18.2869 29.8221 19.9196 29.3991L20.5636 27.7932C18.6277 28.3695 16.514 28.7702 14.4452 28.7562C7.47919 28.7702 1.95046 25.1353 1.88657 20.7293V19.4448C4.17356 22.5116 8.82098 24.7338 14.4452 24.5827C16.9753 24.7346 19.4495 24.2035 21.5294 23.2975L21.8526 21.6923C19.8197 22.7612 17.1853 23.382 14.4452 23.2975C7.47919 23.382 1.95046 19.7471 1.88657 15.2707V13.9855C4.17356 17.1233 8.83126 19.3463 14.4452 19.4448C17.6355 19.3463 20.6606 18.5056 23.1407 17.1966L23.4624 15.2699C21.2121 16.9329 17.9263 18.0048 14.4452 18.1596C7.47919 18.0048 1.9512 14.3692 1.88657 9.81131C1.95046 5.4764 7.47919 1.84077 14.4452 1.78373C18.5976 1.84151 22.4541 3.29339 24.7506 5.63715L24.9746 6.00826L26.5977 6.01567L26.3612 5.63715C24.0771 2.54301 19.509 0.5 14.4452 0.5C6.73742 0.5 0.597656 4.73564 0.597656 9.81205V26.5094C0.868658 31.4651 6.86815 35.5 14.4452 35.5C19.4495 35.5 23.9471 33.537 26.3612 30.6843Z" fill="#F0F0F0"/>
<path d="M23.6154 41.5L26.1916 30.5353L18.7852 33.7602L23.2944 14.7335H14.5977L16.8515 5.38087H44.5494L42.2948 14.7335H33.2779L31.3449 19.8934L41.3284 15.7006L23.6154 41.5ZM28.1246 28.2774L26.8364 34.7273L37.4639 18.6034L28.7679 22.4733L32.6331 13.4435H41.3284L42.9389 6.67083H17.8173L16.2067 13.4435H24.9035L20.716 31.5031L28.1238 28.2789L28.1246 28.2774ZM58.0596 11.5263C57.9815 12.6369 57.5827 13.5116 56.8632 14.1504C56.1441 14.7878 55.1966 15.1065 54.0205 15.1065C52.7338 15.1065 51.722 14.661 50.985 13.7701C50.2481 12.8791 49.8793 11.6563 49.8788 10.1014V9.4697C49.8788 8.47753 50.0486 7.60305 50.3883 6.84627C50.7289 6.09047 51.2148 5.5106 51.846 5.10665C52.4777 4.70173 53.2117 4.49951 54.0482 4.5C55.2058 4.5 56.1386 4.81918 56.8464 5.45753C57.5538 6.09489 57.9628 6.9905 58.0734 8.14435H56.0059C55.9549 7.47799 55.7747 6.99468 55.4651 6.69442C55.1546 6.39466 54.6823 6.24478 54.0482 6.24478C53.3592 6.24478 52.8435 6.49859 52.501 7.00623C52.1589 7.51484 51.983 8.30308 51.9733 9.37092V10.1508C51.9738 11.2663 52.1381 12.0816 52.466 12.5966C52.795 13.1126 53.3134 13.3703 54.0213 13.3698C54.6598 13.3698 55.1362 13.2199 55.4506 12.9202C55.7655 12.6194 55.9459 12.155 55.992 11.527L58.0596 11.5263ZM68.7359 10.0373C68.7359 11.0545 68.5612 11.9455 68.2119 12.7101C67.8626 13.4762 67.3628 14.0671 66.7127 14.4829C66.0626 14.8986 65.3171 15.1065 64.4763 15.1065C63.6452 15.1065 62.9031 14.9011 62.2501 14.4903C61.598 14.0785 61.0927 13.4912 60.7341 12.7285C60.3756 11.9659 60.1941 11.0874 60.1898 10.0933V9.58322C60.1898 8.56697 60.3678 7.67259 60.7239 6.90008C61.0801 6.12757 61.5832 5.53419 62.2333 5.11992C62.8835 4.70713 63.6268 4.50049 64.4632 4.5C65.2991 4.5 66.0422 4.70664 66.6923 5.11992C67.3425 5.53419 67.8456 6.12757 68.2017 6.90008C68.5578 7.67259 68.7359 8.56451 68.7359 9.57585V10.0373ZM66.6407 9.56921C66.6407 8.48662 66.4524 7.66423 66.0759 7.10205C65.6989 6.53938 65.1614 6.25804 64.4632 6.25804C63.7689 6.25804 63.2333 6.53569 62.8563 7.091C62.4798 7.6463 62.2894 8.46082 62.285 9.53457V10.038C62.285 11.0921 62.4732 11.9096 62.8497 12.4904C63.2262 13.0723 63.7684 13.3632 64.4763 13.3632C65.1701 13.3632 65.7033 13.0831 66.0759 12.5229C66.448 11.9627 66.6363 11.1459 66.6407 10.0727V9.56921ZM73.5115 14.965H71.4446V4.64153H73.5115V14.965ZM84.6644 14.965H82.5961L78.5709 8.1731V14.965H76.5033V4.64153H78.5709L82.6034 11.4481V4.64153H84.6644V14.965ZM94.8997 6.36493H91.8263V14.965H89.7587V6.36493H86.7254V4.64153H94.8997V6.36493ZM103.192 10.4914H99.2218V13.2563H103.881V14.965H97.1535V4.64153H103.867V6.36493H99.2218V8.82471H103.192V10.4914ZM108.237 13.2563H112.627V14.965H106.169V4.64153H108.237V13.2563ZM120.926 10.4906H116.956V13.2563H121.615V14.965H114.888V4.64153H121.601V6.36493H116.956V8.82471H120.926V10.4906ZM131.844 13.6603C131.472 14.1187 130.945 14.4743 130.265 14.7269C129.586 14.9804 128.833 15.1072 128.005 15.1072C127.136 15.1072 126.375 14.9121 125.72 14.522C125.065 14.1318 124.56 13.5657 124.204 12.8236C123.848 12.0816 123.665 11.2096 123.656 10.2076V9.50508C123.656 8.47458 123.825 7.58266 124.162 6.82932C124.5 6.07548 124.987 5.49881 125.623 5.09928C126.259 4.69976 127.005 4.5 127.86 4.5C129.05 4.5 129.981 4.7919 130.652 5.37571C131.322 5.95951 131.72 6.80917 131.844 7.92469H129.831C129.739 7.33351 129.536 6.90106 129.221 6.62734C128.906 6.35313 128.473 6.21603 127.922 6.21603C127.219 6.21603 126.683 6.48778 126.316 7.03129C125.948 7.5748 125.762 8.38318 125.757 9.45643V10.1154C125.757 11.198 125.957 12.0157 126.357 12.5686C126.757 13.1214 127.343 13.3978 128.115 13.3978C128.892 13.3978 129.446 13.2278 129.775 12.8877V11.1083H127.894V9.5412H131.844V13.6603ZM138.308 11.1865H136.662V14.965H134.594V4.64153H138.323C139.508 4.64153 140.422 4.91353 141.065 5.45753C141.709 6.00054 142.031 6.76838 142.03 7.76104C142.03 8.46573 141.882 9.05298 141.586 9.52277C141.29 9.99355 140.841 10.3683 140.239 10.6469L142.409 14.8655V14.965H140.19L138.308 11.1865ZM136.662 9.46307H138.329C138.848 9.46307 139.25 9.32719 139.535 9.05543C139.82 8.78319 139.963 8.40848 139.963 7.93132C139.963 7.44482 139.828 7.062 139.56 6.78288C139.291 6.50424 138.879 6.36493 138.323 6.36493H136.662L136.662 9.46307ZM150.343 12.8376H146.718L146.029 14.965H143.83L147.566 4.64153H149.482L153.238 14.965H151.039L150.343 12.8376ZM147.276 11.1157H149.785L148.523 7.25022L147.276 11.1157ZM157.318 11.328V14.965H155.251V4.64153H159.165C159.919 4.64153 160.582 4.78355 161.154 5.06759C161.726 5.35064 162.166 5.75361 162.474 6.27647C162.781 6.79836 162.935 7.39273 162.935 8.05958C162.936 9.07091 162.599 9.86824 161.926 10.4516C161.252 11.0363 160.321 11.3285 159.131 11.328H157.318ZM157.318 9.60459H159.165C159.712 9.60459 160.129 9.4724 160.416 9.20802C160.704 8.94266 160.847 8.56451 160.847 8.07358C160.847 7.56742 160.702 7.15832 160.413 6.84627C160.124 6.5352 159.724 6.37476 159.213 6.36493H157.318V9.60459ZM173.598 14.965H171.53V10.5407H167.499V14.965H165.431V4.64153H167.499V8.82471H171.53V4.64153H173.598V14.965Z" fill="#F0F0F0"/>
<path d="M75.5977 29.5V22.5H74.4721V29.5H75.5977ZM72.7981 24.5691V29.5H71.6732V24.5684L72.7981 24.5691ZM71.5979 23.2749C71.5979 23.1082 71.6537 22.97 71.7653 22.8602C71.8806 22.7477 72.0388 22.6915 72.2398 22.6915C72.4386 22.6915 72.5953 22.7477 72.7102 22.8602C72.8245 22.97 72.8817 23.1082 72.8817 23.2749C72.8837 23.3512 72.8695 23.4271 72.84 23.4978C72.8104 23.5684 72.7663 23.6323 72.7102 23.6854C72.5953 23.7942 72.4386 23.8488 72.2398 23.8493C72.0388 23.8493 71.8806 23.7944 71.7653 23.6847C71.71 23.6314 71.6667 23.5674 71.6379 23.4969C71.6091 23.4264 71.5955 23.3508 71.5979 23.2749Z" fill="#F0F0F0"/>
<path fill-rule="evenodd" clip-rule="evenodd" d="M53.4166 26.8566C53.4839 26.829 53.5478 26.7983 53.6083 26.7644C53.8768 26.6142 54.0801 26.4204 54.218 26.1831C54.3559 25.9423 54.4249 25.6778 54.4249 25.3896C54.4249 25.0626 54.3688 24.7804 54.2565 24.543C54.1498 24.3079 53.9824 24.1055 53.7716 23.9566C53.54 23.7901 53.2769 23.6724 52.9985 23.6108C52.6615 23.5332 52.3164 23.4962 51.9706 23.5003H49.5977V30.5H52.1673C52.676 30.5 53.1115 30.423 53.474 30.2689C53.8355 30.112 54.1123 29.8828 54.3044 29.5815C54.4999 29.2802 54.5977 28.907 54.5977 28.4618C54.5977 28.1731 54.5367 27.9037 54.4147 27.6538C54.291 27.4014 54.0979 27.1896 53.858 27.0434C53.7216 26.9582 53.5726 26.8952 53.4166 26.8566ZM50.8034 27.3362H52.2203C52.4981 27.3362 52.7239 27.3827 52.8976 27.4757C53.0704 27.5658 53.1967 27.6957 53.2765 27.8652C53.3564 28.0319 53.3965 28.229 53.397 28.4567C53.397 28.6747 53.3506 28.8653 53.2576 29.0286C53.1681 29.1884 53.0319 29.3151 52.849 29.4086C52.667 29.4982 52.4396 29.543 52.1666 29.543H50.8034V27.3362ZM50.8034 26.457V24.4617H51.9706C52.2552 24.4617 52.4889 24.4953 52.6718 24.5627C52.8572 24.6295 52.9949 24.7368 53.0849 24.8846C53.1744 25.0318 53.2192 25.2224 53.2192 25.4564C53.2192 25.6676 53.171 25.8488 53.0747 25.9999C52.9789 26.1477 52.8381 26.2615 52.6522 26.3415C52.4698 26.4185 52.2472 26.457 51.9844 26.457H50.8034Z" fill="#F0F0F0"/>
<path d="M57.8614 26.145V29.5H56.5977V24.5905H57.8043L57.8392 25.1672L57.8495 25.1528L57.8614 25.1349C58.0052 24.9356 58.1835 24.78 58.3965 24.668C58.6143 24.5555 58.8643 24.4995 59.1465 24.5C59.2237 24.5 59.3059 24.5059 59.3931 24.5178C59.484 24.5302 59.5522 24.5439 59.5977 24.559L59.5873 25.5752C59.4175 25.5515 59.2457 25.5393 59.0736 25.5388C58.8569 25.5388 58.6664 25.566 58.502 25.6204C58.3455 25.6673 58.2036 25.7447 58.0874 25.8467C57.9912 25.9328 57.9146 26.0344 57.8614 26.145Z" fill="#F0F0F0"/>
<path fill-rule="evenodd" clip-rule="evenodd" d="M62.2828 29.072C62.3304 29.0271 62.3748 28.9813 62.4159 28.9346L62.4205 28.9696C62.449 29.1479 62.4878 29.2949 62.5367 29.4108H63.5977V29.3394C63.5353 29.1958 63.4906 29.0446 63.4645 28.8895C63.4344 28.6935 63.4201 28.4952 63.4217 28.2967V26.1529C63.4217 25.7847 63.3429 25.4787 63.1853 25.2348C63.0304 24.988 62.8073 24.7955 62.5451 24.6825C62.2759 24.5613 61.9664 24.5004 61.6166 24.5C61.3244 24.5 61.0612 24.54 60.827 24.6199C60.592 24.7007 60.3901 24.8107 60.2212 24.9499C60.052 25.0891 59.923 25.2481 59.8342 25.4268C59.7482 25.5973 59.7026 25.7866 59.7011 25.9791H60.7322C60.7322 25.8511 60.7667 25.7366 60.8355 25.6356C60.9043 25.535 61.0002 25.4551 61.1231 25.3958C61.2465 25.3361 61.3926 25.3062 61.5614 25.3062C61.7445 25.3062 61.8962 25.3404 62.0166 25.4086C62.14 25.4773 62.2317 25.5738 62.2919 25.6982C62.3521 25.8235 62.3821 25.9721 62.3821 26.1441V26.4782H61.7198C61.3822 26.4782 61.0816 26.5141 60.8179 26.586C60.5543 26.6533 60.331 26.7541 60.1479 26.8884C59.9673 27.0222 59.8299 27.1885 59.7355 27.3875C59.641 27.5997 59.5939 27.8313 59.5979 28.065C59.5979 28.3389 59.6652 28.5839 59.7998 28.7999C59.934 29.0141 60.1202 29.1849 60.3582 29.3124C60.5963 29.4373 60.8669 29.4997 61.1699 29.4997C61.5796 29.5079 61.9772 29.3552 62.2828 29.072ZM62.3042 28.1809C62.3345 28.1364 62.3605 28.0927 62.3821 28.0496V27.1423H61.7978C61.6056 27.1423 61.4365 27.1616 61.2906 27.2002C61.1602 27.2289 61.0363 27.2833 60.9257 27.3605C60.8283 27.4319 60.7552 27.5181 60.7063 27.6192C60.6578 27.7202 60.6335 27.8347 60.6335 27.9627C60.6335 28.0902 60.6621 28.2074 60.7193 28.3143C60.7777 28.4193 60.8643 28.5045 60.9686 28.5594C61.0803 28.6187 61.2149 28.6483 61.3725 28.6483C61.5841 28.6483 61.7688 28.6039 61.9263 28.515C62.0865 28.4229 62.2125 28.3116 62.3042 28.1809Z" fill="#F0F0F0"/>
<path d="M68.4609 27.8154C68.515 27.9016 68.542 27.9981 68.542 28.105C68.542 28.2209 68.5075 28.3248 68.4386 28.4169C68.37 28.5067 68.2702 28.5781 68.139 28.6311C67.9825 28.6858 67.8172 28.7114 67.6514 28.7065C67.4905 28.7065 67.3338 28.6814 67.1814 28.6311C67.0359 28.5807 66.9063 28.4931 66.8054 28.3771C66.7072 28.2577 66.6522 28.0987 66.6404 27.9002H65.5977C65.5977 28.1647 65.6752 28.4202 65.8303 28.6668C65.9885 28.9106 66.2196 29.1111 66.5234 29.2683C66.8278 29.4228 67.1992 29.5 67.6379 29.5C67.9363 29.5 68.2046 29.4643 68.4426 29.3929C68.6847 29.3219 68.8921 29.2225 69.0648 29.0945C69.2379 28.9638 69.3693 28.8109 69.459 28.6358C69.551 28.4575 69.5972 28.2613 69.5977 28.0471C69.5977 27.7588 69.526 27.5212 69.3826 27.3344C69.2397 27.144 69.0339 26.9896 68.7652 26.871C68.4598 26.7361 68.1402 26.6358 67.8124 26.5719C67.6461 26.5377 67.4817 26.4945 67.3201 26.4426C67.2131 26.408 67.1109 26.3603 67.0157 26.3005C66.9498 26.2551 66.8949 26.1958 66.8548 26.1267C66.8192 26.0429 66.8044 25.9518 66.8114 25.8611C66.8185 25.7704 66.8473 25.6827 66.8954 25.6053C66.9619 25.5073 67.055 25.43 67.1638 25.3824C67.3086 25.3183 67.466 25.2876 67.6244 25.2928C67.8182 25.2928 67.9794 25.3287 68.1079 25.4006C68.2359 25.4679 68.3313 25.5584 68.3939 25.672C68.4598 25.7821 68.4927 25.9011 68.4927 26.029H69.5706C69.5748 25.7527 69.4936 25.4818 69.338 25.2531C69.1824 25.0214 68.9588 24.8386 68.6671 24.7048C68.3777 24.5683 68.0301 24.5 67.6244 24.5C67.3381 24.5 67.0786 24.5386 66.846 24.6159C66.6161 24.6931 66.4207 24.7986 66.2597 24.9324C66.1045 25.0591 65.9779 25.217 65.8884 25.3959C65.8024 25.569 65.7579 25.7597 65.7586 25.9529C65.7586 26.155 65.8003 26.3333 65.8837 26.4877C65.9676 26.6418 66.0855 26.7754 66.2374 26.8885C66.3893 27.0017 66.5712 27.0982 66.7831 27.1782C67.0141 27.261 67.2504 27.328 67.4905 27.3789C67.7826 27.4382 68.0033 27.5033 68.1525 27.5742C68.3044 27.6461 68.4072 27.7265 68.4609 27.8154Z" fill="#F0F0F0"/>
</g>
</svg>
