<svg width="154" height="30" viewBox="0 0 154 30" fill="none" xmlns="http://www.w3.org/2000/svg">
<path d="M7.52797 15.0186L4.06281 18.4015L0.597656 15.0186L4.06281 11.6357L7.52797 15.0186ZM15.9814 6.76581L21.9217 12.6022L25.3869 9.21933L19.4466 3.3829L15.9814 0L12.5163 3.3829L6.53793 9.21933L10.0031 12.6022L15.9814 6.76581ZM27.9001 11.6357L24.4349 15.0186L27.9001 18.4015L31.3652 15.0186L27.9001 11.6357ZM15.9814 23.2342L10.0412 17.4349L6.53793 20.8179L12.4782 26.6171L15.9433 30L19.4085 26.6171L25.3869 20.8179L21.9217 17.4349L15.9814 23.2342ZM15.9814 18.4015L19.4466 15.0186L15.9814 11.6357L12.5163 15.0186L15.9814 18.4015ZM52.6512 18.7361V18.6989C52.6512 16.5056 51.4327 15.3903 49.4906 14.6468C50.7091 13.9777 51.6991 12.9368 51.6991 11.0781V11.0409C51.6991 8.43867 49.5669 6.76581 46.1398 6.76581H38.2954V23.2342H46.33C50.138 23.2342 52.6512 21.7472 52.6512 18.7361ZM48.0057 11.7101C48.0057 12.9368 46.9774 13.4573 45.3399 13.4573H41.9129V9.96284H45.5684C47.1299 9.96284 48.0057 10.5576 48.0057 11.6729V11.7101ZM48.9574 18.29C48.9574 19.5167 47.9674 20.0743 46.33 20.0743H41.9129V16.4684H46.2158C48.1199 16.4684 48.9574 17.1375 48.9574 18.2528V18.29ZM60.4193 23.2342V6.76581H56.7256V23.2342H60.4193ZM80.3723 23.2342V6.76581H76.7169V16.9145L68.7965 6.76581H65.3695V23.2342H69.025V12.7881L77.2121 23.2714H80.3723V23.2342ZM100.935 23.2342L93.7001 6.65428H90.2727L83.0381 23.2342H86.8077L88.3689 19.5539H95.4897L97.0508 23.2342H100.935ZM94.1949 16.3569H89.7016L91.9484 11.0037L94.1949 16.3569ZM118.603 23.2342V6.76581H114.948V16.9145L107.027 6.76581H103.6V23.2342H107.256V12.7881L115.443 23.2714H118.603V23.2342ZM137.795 20.5948L135.434 18.2528C134.101 19.4424 132.921 20.1859 131.017 20.1859C128.123 20.1859 126.143 17.8439 126.143 15.0186V14.9814C126.143 12.1561 128.199 9.85131 131.017 9.85131C132.693 9.85131 134.025 10.5576 135.32 11.7101L137.681 9.03345C136.12 7.50928 134.215 6.50558 131.017 6.50558C125.838 6.50558 122.221 10.3346 122.221 15.0186V15.0558C122.221 19.777 125.914 23.5316 130.865 23.5316C134.101 23.5316 136.043 22.4164 137.795 20.5948ZM153.598 23.2342V20H144.459V16.5428H152.417V13.3086H144.459V9.96284H153.483V6.72863H140.765V23.197H153.598V23.2342Z" fill="#F0F0F0"/>
</svg>
