<svg width="178" height="24" viewBox="0 0 178 24" fill="none" xmlns="http://www.w3.org/2000/svg">
<path d="M26.0499 23.8877H43.0431V19.4321H31.2005V13.9657H41.0129V9.51014H31.2005V4.45554H43.1183V0H26.0499V23.8877ZM63.4951 15.0515L52.3668 0H44.6973L47.1034 3.03276V23.9626H52.2164V8.27457L63.7206 23.8877H68.6457V0H63.4951V15.0515ZM18.3052 11.6069C20.5609 11.195 22.4407 9.09828 22.4407 6.14041C22.4407 2.95788 20.1098 0 15.4855 0H0.597656L2.92858 2.95788V23.9251H16.0118C20.6361 23.9251 23.0422 21.0421 23.0422 17.4477C22.9294 14.4899 20.8993 11.9438 18.3052 11.6069ZM8.04158 4.49298H14.4704C16.1998 4.49298 17.2901 5.5039 17.2901 7.00156C17.2901 8.49922 16.1998 9.51014 14.4704 9.51014H8.04158V4.49298ZM14.696 19.4696H8.04158V13.9657H14.696C16.651 13.9657 17.7412 15.2012 17.7412 16.6989C17.7412 18.4212 16.5758 19.4321 14.696 19.4696ZM143.762 15.0515H146.431V17.8596C145.04 18.9828 143.31 19.6193 141.506 19.6568C137.22 19.6568 134.212 16.3994 134.212 12.0187C134.212 7.63807 137.258 4.38066 141.506 4.38066C143.724 4.38066 145.792 5.54134 146.995 7.41342L151.055 5.16693C149.326 2.4337 146.281 0 141.468 0C134.664 0 129.024 4.68019 129.024 11.9438C129.024 19.2075 134.588 23.8877 141.468 23.8877C145.228 23.9626 148.799 22.3526 151.281 19.5819V10.7457H140.303L143.762 15.0515ZM120.64 15.0515L109.474 0H101.843L104.211 3.03276V23.9626H109.362V8.27457L120.866 23.8877H125.753V0H120.64V15.0515ZM168.274 0H158.386L160.755 3.03276L160.341 4.19345L152.672 23.9626H158.462L159.965 19.9189H170.304L171.808 23.9626H177.598L168.274 0ZM161.281 15.4259L165.041 5.12949L168.8 15.4259H161.281ZM93.7219 0H98.8725V24H93.7219V0ZM89.624 4.11856V0H71.5405V4.45554H82.8944L71.5405 19.8066V23.8877H89.812V19.4321H78.1949L89.624 4.11856Z" fill="#F0F0F0"/>
</svg>
