<svg width="229" height="40" viewBox="0 0 229 40" fill="none" xmlns="http://www.w3.org/2000/svg">
<path fill-rule="evenodd" clip-rule="evenodd" d="M118.059 0.982152L114.689 1.94178V5.04219C114.689 6.74749 114.753 8.13975 114.832 8.13633C114.91 8.13273 116.555 7.68262 118.486 7.13589L121.998 6.14191L122.05 3.06086C122.099 0.210276 122.077 -0.0188565 121.766 0.00107629C121.58 0.0128462 119.912 0.454406 118.059 0.982152Z" fill="#F0F0F0"/>
<path fill-rule="evenodd" clip-rule="evenodd" d="M5.4626 1.79699C3.90973 2.25184 2.17975 2.75756 1.61841 2.92082L0.597656 3.21754V17.6436V32.0697L4.63168 32.0184L8.66571 31.9671V16.5112C8.66571 6.36237 8.6006 1.04068 8.47587 1.01259C8.37146 0.989047 7.01546 1.34214 5.4626 1.79699ZM104.383 3.829L101.005 4.80134L101.063 16.201C101.13 29.2656 101.088 28.9094 102.752 30.5796C104.064 31.8977 105.077 32.156 108.931 32.1566C110.619 32.1568 112.047 32.1101 112.104 32.0528C112.162 31.9952 112.513 30.7993 112.885 29.3951C113.257 27.9906 113.601 26.7121 113.65 26.5538C113.725 26.306 113.449 26.276 111.657 26.3374L109.576 26.4085L109.001 25.8328L108.425 25.2572V19.6424V14.0276H110.405H112.384L112.67 13.0309C112.827 12.4829 113.09 11.5031 113.256 10.8539C113.422 10.2047 113.608 9.5427 113.669 9.38267C113.766 9.13 113.43 9.09184 111.103 9.09184H108.425V5.95954C108.425 3.09737 108.396 2.82856 108.093 2.84185C107.91 2.85001 106.24 3.29404 104.383 3.829ZM15.31 9.03983C13.7438 9.48917 12.1422 9.9444 11.7506 10.0513L11.0387 10.2455V21.1539V32.0621H14.7405H18.4423V25.3574C18.4423 17.9198 18.5264 17.2514 19.6176 16.0085C20.4622 15.0466 21.0833 14.7869 22.5393 14.7869C24.0639 14.7869 24.8732 15.2042 25.3987 16.2612C25.7185 16.9049 25.7597 17.6597 25.8459 24.4686L25.9408 31.9671L29.7023 32.0186L33.4635 32.0702L33.39 23.381C33.3302 16.2948 33.2632 14.517 33.0272 13.7428C32.0972 10.692 30.3697 9.07381 27.4721 8.53999C24.2577 7.9477 21.3401 8.79361 19.2645 10.9198L18.2657 11.9428L18.2116 10.0828L18.1575 8.22277L15.31 9.03983ZM63.8132 8.62769C59.3959 9.57649 55.7258 13.31 54.773 17.8243C54.4209 19.493 54.5185 22.6095 54.975 24.2788C55.8403 27.442 57.8277 29.9139 60.6082 31.2845C62.5956 32.2642 64.2823 32.624 66.906 32.6283C70.1707 32.6335 73.0636 31.8496 75.7729 30.2258C77.6506 29.1002 77.5821 29.4463 76.516 26.4733C75.9988 25.0309 75.5381 23.7899 75.4922 23.7157C75.4462 23.6415 74.8921 24.083 74.2607 24.6972C72.9806 25.9419 71.0502 26.9763 69.3475 27.3298C67.8539 27.6398 65.6102 27.4735 64.6546 26.9817C63.9359 26.6119 62.4838 25.2156 62.4848 24.8952C62.4849 24.8171 65.9553 23.771 70.1967 22.5702L77.9082 20.3871L77.8015 18.6786C77.546 14.5844 75.4428 11.2102 72.1302 9.5801C69.761 8.41412 66.5304 8.04413 63.8132 8.62769ZM85.7876 8.61953C82.142 9.31072 79.796 10.9484 78.992 13.3632C78.6266 14.461 78.6605 16.5976 79.0619 17.7619C79.538 19.1424 80.6719 20.3545 82.1454 21.0576C82.8753 21.406 84.8145 21.9776 86.9699 22.4793C91.7391 23.59 92.4786 23.9819 92.4786 25.3986C92.4786 26.1699 91.563 27.1891 90.6147 27.4731C89.3668 27.8471 87.715 27.7547 86.7658 27.2579C85.7853 26.7446 84.6953 25.265 84.6953 24.4471C84.6953 24.1457 84.6332 23.8991 84.5572 23.8991C84.4813 23.8991 83.0201 24.2979 81.3103 24.7854L78.2015 25.6718L78.3033 26.2984C78.5992 28.1224 80.3495 30.3059 82.2995 31.2843C84.3412 32.3089 85.5717 32.5367 89.0615 32.5367C91.8137 32.5367 92.3665 32.4827 93.6176 32.0922C97.4194 30.9056 99.4199 28.8707 99.8634 25.739C100.163 23.6263 99.6193 21.8122 98.2249 20.2688C97.077 18.9983 95.2731 18.2587 92.004 17.7184C89.5008 17.3047 87.3818 16.6208 86.736 16.018C85.7439 15.0924 86.1887 13.8837 87.6728 13.4716C89.8768 12.8593 92.2697 13.885 92.6103 15.5879C92.7009 16.041 92.7973 16.1268 93.1223 16.044C95.7916 15.3644 99.3121 14.2715 99.3123 14.1225C99.3123 14.0181 99.0695 13.4201 98.7726 12.7937C97.4792 10.0642 94.3492 8.58137 89.5361 8.41792C88.0193 8.36648 86.7666 8.43387 85.7876 8.61953ZM118.012 9.34129L114.595 10.3258V21.1465V31.9671L118.344 32.0186L122.093 32.07V20.2013C122.093 9.01951 122.074 8.33325 121.761 8.34464C121.578 8.35129 119.891 8.79987 118.012 9.34129ZM128.358 9.1112C126.948 9.51878 125.475 9.94079 125.083 10.0488L124.371 10.2455V21.1539V32.0621H128.058H131.746L131.824 25.0856C131.908 17.449 131.938 17.2286 133.045 15.9349C133.773 15.084 134.656 14.7326 136.067 14.7326C137.413 14.7326 138.202 15.2154 138.799 16.4038L139.273 17.3497L139.335 24.7059L139.396 32.0621H143.093H146.789L146.73 23.2821C146.672 14.7505 146.658 14.4661 146.241 13.2288C145.494 11.0117 143.902 9.38552 141.871 8.76608C140.222 8.26301 137.131 8.31902 135.716 8.87751C134.419 9.38912 132.968 10.4408 132.166 11.4506L131.585 12.1814V10.2571C131.585 8.54359 131.548 8.33458 131.253 8.35129C131.07 8.36173 129.767 8.70363 128.358 9.1112ZM156.453 8.45171C152.735 9.16778 150.17 11.4787 148.914 15.2467C148.444 16.6563 148.403 17.0255 148.403 19.8176C148.403 22.6097 148.444 22.979 148.914 24.3885C150.371 28.7595 153.4 30.9908 157.877 30.9933C160.114 30.9944 161.361 30.5214 162.915 29.083L164.047 28.0347V29.5393C164.047 30.3668 163.915 31.4878 163.754 32.0304C163.213 33.8517 161.645 35.0886 159.871 35.0934C158.266 35.0977 156.277 33.7903 155.958 32.522C155.895 32.269 155.721 32.0621 155.572 32.0621C155.295 32.0621 149.201 33.7664 149.075 33.8794C148.844 34.0855 150.303 36.5638 151.127 37.3667C152.906 39.1001 155.071 39.8336 158.826 39.9769C161.843 40.092 163.457 39.7954 165.72 38.7098C168.445 37.4029 170.116 35.3396 170.885 32.3307C171.239 30.9487 171.261 30.1994 171.261 19.5974C171.261 10.8239 171.209 8.33249 171.028 8.33249C170.619 8.33249 164.531 10.0949 164.284 10.2848C164.154 10.3852 164.047 10.6823 164.047 10.9452C164.047 11.391 163.995 11.3642 163.278 10.5494C162.109 9.2215 160.485 8.49727 158.506 8.42115C157.638 8.38774 156.714 8.4014 156.453 8.45171ZM32.9779 9.51897C33.1958 10.2157 39.0988 28.3963 39.7283 30.3097L40.3071 32.0691L44.5792 32.0182L48.8515 31.9671L52.5307 20.7668C54.5543 14.6066 56.2122 9.45974 56.2148 9.32914C56.2186 9.14708 55.3461 9.09184 52.4705 9.09222L48.7212 9.0926L46.7287 16.4009C45.6328 20.4205 44.691 23.7093 44.6358 23.7093C44.5807 23.7093 43.6471 20.4203 42.5614 16.4005L40.5873 9.09184H36.7158H32.8442L32.9779 9.51897ZM64.5549 14.0859C63.141 14.826 61.9149 17.1132 61.9149 19.0106C61.9149 19.624 61.9709 19.7318 62.2471 19.65C62.4297 19.5961 64.416 19.0277 66.6608 18.387C68.9056 17.7463 70.7559 17.2081 70.7726 17.191C70.9249 17.0354 70.1629 15.5499 69.6649 15.0313C68.2755 13.5843 66.2344 13.2067 64.5549 14.0859ZM158.157 14.6446C157.09 15.1846 156.359 16.2407 155.959 17.8243C155.336 20.2869 156.007 23.2552 157.427 24.3279C159.543 25.9262 162.418 25.2266 163.597 22.8265C164.082 21.8369 164.141 21.5197 164.137 19.9125C164.129 17.0766 163.419 15.5497 161.71 14.6983C160.483 14.0868 159.296 14.0688 158.157 14.6446ZM183.79 16.6642C180.616 17.692 178.854 20.5014 178.854 24.533C178.854 27.8705 180.404 30.7433 182.824 31.8939C184.045 32.4738 186.092 32.5902 187.405 32.1543C189.128 31.582 190.589 29.9017 191.157 27.8369C191.376 27.042 191.256 26.9069 190.119 26.6629C189.558 26.5426 189.512 26.5741 189.384 27.1626C189.077 28.5846 187.895 30.1066 186.768 30.5318C185.773 30.9065 184.53 30.7729 183.496 30.18C181.839 29.2293 180.983 27.555 180.806 24.9183C180.619 22.1479 181.739 19.6185 183.582 18.6456C184.549 18.1357 186.099 18.0535 187.074 18.4605C187.89 18.8016 188.845 19.9163 189.127 20.8585C189.374 21.6841 189.587 21.7642 190.596 21.4126C191.315 21.162 191.336 20.8911 190.739 19.6084C190.206 18.4637 189.261 17.4665 188.233 16.9628C187.427 16.5682 184.66 16.3821 183.79 16.6642ZM197.173 16.9558C194.191 18.1968 192.451 21.9996 193.062 25.9398C193.494 28.7166 194.865 30.8403 196.858 31.8191C197.805 32.284 198.147 32.3466 199.736 32.3459C201.32 32.3451 201.655 32.2838 202.489 31.8428C203.011 31.5666 203.767 31.0117 204.169 30.6098C207.157 27.6212 207.11 21.2116 204.077 18.1784C202.96 17.0619 201.858 16.6291 199.926 16.549C198.542 16.4915 198.15 16.5494 197.173 16.9558ZM212.93 16.9422C212.408 17.1857 211.66 17.7404 211.269 18.1748L210.557 18.9645V17.8249C210.557 17.1981 210.509 16.6853 210.451 16.6853C210.393 16.6853 209.966 16.7808 209.502 16.8977L208.659 17.11V24.5861V32.0621H209.592H210.525L210.591 26.889C210.655 21.9396 210.677 21.6729 211.105 20.7208C211.649 19.5086 212.762 18.4603 213.69 18.2862C215.528 17.9415 216.992 18.6554 217.391 20.0915C217.495 20.4663 217.579 23.2804 217.58 26.4144L217.581 32.0621H218.512H219.444L219.512 26.7941C219.578 21.7919 219.603 21.4783 220.014 20.5792C220.82 18.8172 221.701 18.204 223.428 18.204C224.76 18.204 225.656 18.7014 226.171 19.7265C226.465 20.3125 226.503 21.0458 226.503 26.2246L226.503 32.0621H227.452H228.402V26.116C228.402 19.4131 228.319 18.8808 227.088 17.6502C225.186 15.7481 221.114 16.2363 219.59 18.5493L219.226 19.1014L218.641 18.2365C217.826 17.0331 216.74 16.4949 215.131 16.4974C214.22 16.4987 213.62 16.6198 212.93 16.9422ZM197.819 18.582C194.533 20.3188 193.85 26.3315 196.595 29.369C197.508 30.3801 198.625 30.8042 200.094 30.6981C201.933 30.565 203.157 29.482 204.023 27.2212C204.558 25.8256 204.516 22.8652 203.939 21.3982C203.462 20.1819 202.299 18.8732 201.341 18.4726C200.42 18.0882 198.649 18.1431 197.819 18.582ZM174.488 30.4485V32.0621H175.722H176.956V30.4485V28.8348H175.722H174.488V30.4485Z" fill="#F0F0F0"/>
</svg>
