<svg width="233" height="40" viewBox="0 0 233 40" fill="none" xmlns="http://www.w3.org/2000/svg">
<path d="M39.6784 20.0083V19.9307C39.6397 8.9563 30.8265 0 20.0399 0C9.25327 0 0.401367 8.9563 0.401367 20.0083C0.401367 31.0617 9.21322 40 20.0399 40C25.0079 40.0034 29.7859 38.0854 33.3799 34.6451C33.7339 34.3207 33.9449 33.8685 33.9665 33.3881C33.9881 32.9077 33.8186 32.4383 33.4952 32.0832C33.1718 31.7282 32.721 31.5165 32.242 31.4948C31.7631 31.4732 31.2951 31.6432 30.9411 31.9676L30.9025 32.0064C29.3518 33.485 27.5191 34.6341 25.5147 35.3847C23.5102 36.1353 21.3751 36.4718 19.2378 36.3741C17.1004 36.2765 15.0047 35.7466 13.0765 34.8163C11.1484 33.886 9.42756 32.5745 8.01732 30.9606L16.4066 17.4666V23.7108C16.4066 26.6944 17.5666 27.6653 18.5416 27.9368C19.5165 28.2083 20.9789 28.0116 22.5629 25.4921L27.1656 17.9957C27.2885 17.7769 27.4307 17.5691 27.5882 17.3738V21.176C27.5882 23.967 28.7095 26.2165 30.6415 27.3011C31.5333 27.7881 32.54 28.0238 33.5546 27.9831C34.5693 27.9424 35.554 27.6267 36.4042 27.0697C38.6358 25.6167 39.8345 23.0722 39.6784 20.0083ZM34.5744 23.9352C34.2645 24.1493 33.9032 24.2765 33.5278 24.3035C33.1524 24.3305 32.7767 24.2565 32.4395 24.0889C31.6661 23.6249 31.2007 22.5791 31.2007 21.1441V16.7491C31.2007 14.6575 30.3887 13.1436 28.9981 12.7585C26.6381 12.0438 24.8622 14.9678 24.2035 16.0537L20.0399 22.7606V14.5024C20.0012 12.6034 19.3812 11.4786 18.2212 11.1282C17.4478 10.8969 16.2878 11.0146 15.1679 12.7211L5.85061 27.6875C4.6111 25.3185 3.96152 22.6838 3.95732 20.0083C3.95732 10.9731 11.1852 3.6443 20.0399 3.6443C28.8946 3.6443 36.1225 10.9731 36.1225 20.0083V20.0873C36.215 21.8298 35.6571 23.2288 34.5758 23.9241L34.5744 23.9352ZM67.0503 13.1837C67.3064 13.3483 67.5205 13.5709 67.6752 13.8336C67.8299 14.0964 67.9209 14.3918 67.941 14.6963C67.9383 15.1414 67.7635 15.5681 67.4533 15.8864C67.1432 16.2048 66.7219 16.3899 66.2783 16.4028C66.0679 16.3867 65.86 16.3472 65.6583 16.2851C64.5752 15.4702 63.2614 15.0228 61.9076 15.008C58.6223 15.008 56.381 17.6813 56.381 21.0153C56.381 24.3493 58.6624 26.988 61.9076 26.988C63.4675 26.9858 64.9651 26.3736 66.0822 25.2815C66.3667 25.0807 66.7037 24.9726 67.0503 24.9713C67.3277 24.9682 67.601 25.039 67.8422 25.1767C68.0833 25.3143 68.2837 25.5137 68.4228 25.7546C68.5619 25.9954 68.6347 26.2689 68.6337 26.5472C68.6328 26.8255 68.5581 27.0986 68.4174 27.3385C68.2835 27.5739 68.0929 27.7748 67.8623 27.9202C66.7304 28.8641 65.3889 29.5212 63.9508 29.836C62.5127 30.1508 61.0202 30.114 59.5992 29.7289C58.1782 29.3437 56.8704 28.6214 55.786 27.623C54.7017 26.6245 53.8727 25.3791 53.3689 23.9919C52.8651 22.6046 52.7013 21.1162 52.8913 19.6521C53.0813 18.1881 53.6196 16.7913 54.4607 15.5797C55.3018 14.368 56.4211 13.377 57.7241 12.6903C59.0271 12.0035 60.4757 11.6412 61.9477 11.6338C63.7677 11.6061 65.5519 12.1463 67.0503 13.1837ZM76.2502 17.0497C74.5159 17.0423 72.8494 17.7248 71.616 18.9477C70.3825 20.1706 69.6827 21.8341 69.6699 23.5737C69.6807 25.3228 70.3753 26.9979 71.6046 28.2387C72.8339 29.4794 74.4995 30.1867 76.2433 30.2085C79.6459 30.2085 82.5459 27.1445 82.5459 23.5737C82.5459 20.0055 79.6915 17.0497 76.2502 17.0497ZM76.2115 26.9769C74.5889 26.9769 73.2356 25.5031 73.2356 23.6027C73.2356 21.6262 74.5889 20.4225 76.2115 20.4225C77.7209 20.4225 78.9941 21.6649 78.9941 23.6027C78.9941 25.5419 77.7209 26.988 76.2115 26.988V26.9769ZM84.7168 28.1903V19.0373C84.7124 18.8 84.7552 18.5642 84.8426 18.3436C84.9301 18.1231 85.0605 17.9222 85.2262 17.7528C85.3919 17.5834 85.5896 17.4487 85.8078 17.3568C86.026 17.2648 86.2602 17.2174 86.4968 17.2173C86.973 17.2235 87.4274 17.4183 87.7609 17.7593C88.0944 18.1003 88.2798 18.5597 88.2769 19.0373V28.1903C88.2802 28.6682 88.0949 29.128 87.7614 29.4692C87.4278 29.8105 86.9733 30.0056 86.4968 30.0118C86.0229 29.9978 85.5728 29.8003 85.241 29.4607C84.9091 29.1211 84.7212 28.6658 84.7168 28.1903ZM84.4461 13.7655C84.4384 13.4892 84.4856 13.2141 84.5848 12.9563C84.6841 12.6984 84.8335 12.4629 85.0243 12.2635C85.2151 12.0641 85.4436 11.9048 85.6964 11.7948C85.9492 11.6847 86.2213 11.6263 86.4968 11.6227C86.7741 11.6259 87.0479 11.684 87.3028 11.7934C87.5577 11.9029 87.7885 12.0617 87.9822 12.2607C88.1758 12.4597 88.3285 12.695 88.4314 12.9532C88.5343 13.2114 88.5855 13.4874 88.5821 13.7655C88.5821 14.3154 88.3643 14.8429 87.9766 15.2317C87.5889 15.6206 87.0631 15.839 86.5148 15.839C85.9665 15.839 85.4407 15.6206 85.053 15.2317C84.6653 14.8429 84.4461 14.3154 84.4461 13.7655ZM95.0781 23.2288V28.1903C95.0781 28.6638 94.8905 29.118 94.5567 29.4528C94.2229 29.7876 93.7701 29.9758 93.298 29.9758C92.8259 29.9758 92.3732 29.7876 92.0393 29.4528C91.7055 29.118 91.518 28.6638 91.518 28.1903V18.6121C91.518 18.2469 91.6626 17.8967 91.92 17.6385C92.1775 17.3803 92.5266 17.2353 92.8906 17.2353C93.2547 17.2353 93.6039 17.3803 93.8613 17.6385C94.1187 17.8967 94.2633 18.2469 94.2633 18.6121C94.7706 18.0921 95.3814 17.6853 96.056 17.418C96.7306 17.1507 97.4537 17.0289 98.1783 17.0607C101.737 17.0607 103.321 19.7368 103.321 22.8007V28.1903C103.321 28.6638 103.133 29.118 102.8 29.4528C102.466 29.7876 102.013 29.9758 101.541 29.9758C101.069 29.9758 100.616 29.7876 100.282 29.4528C99.9484 29.118 99.7609 28.6638 99.7609 28.1903V23.2288C99.7609 21.676 99.5689 20.3726 97.3263 20.3726C95.7437 20.3726 95.085 21.6899 95.085 23.2288H95.0781ZM114.834 25.1278C114.653 25.1282 114.475 25.0861 114.314 25.0048C114.152 24.9234 114.012 24.8052 113.905 24.6596L109.769 20.1621V28.1903C109.775 28.4289 109.734 28.6663 109.648 28.8887C109.561 29.111 109.431 29.3137 109.265 29.4848C109.1 29.6559 108.901 29.7919 108.682 29.8848C108.463 29.9776 108.227 30.0255 107.989 30.0255C107.751 30.0255 107.516 29.9776 107.297 29.8848C107.077 29.7919 106.879 29.6559 106.713 29.4848C106.547 29.3137 106.417 29.111 106.331 28.8887C106.244 28.6663 106.203 28.4289 106.21 28.1903V12.2903C106.265 12.1585 106.356 12.0449 106.472 11.9628C106.589 11.8806 106.726 11.8333 106.869 11.8263C107.175 11.8785 107.451 12.0441 107.642 12.2903L114.254 19.7368C114.321 19.8328 114.408 19.9139 114.507 19.9754C114.607 20.0368 114.718 20.0772 114.834 20.0942C115.064 20.0494 115.27 19.9224 115.414 19.7368L122.023 12.2903C122.115 12.1655 122.23 12.0601 122.363 11.9805C122.495 11.9008 122.642 11.8484 122.795 11.8263C122.94 11.8227 123.082 11.8659 123.201 11.9494C123.319 12.0329 123.408 12.1524 123.454 12.2903V28.1917C123.458 28.429 123.416 28.6648 123.328 28.8854C123.241 29.1059 123.11 29.3068 122.944 29.4762C122.779 29.6457 122.581 29.7803 122.363 29.8722C122.145 29.9642 121.91 30.0116 121.674 30.0118C121.198 30.0048 120.744 29.8095 120.411 29.4684C120.077 29.1272 119.892 28.6678 119.895 28.1903V20.1621L115.755 24.6596C115.516 24.9267 115.186 25.0938 114.83 25.1278H114.834ZM148.274 20.3587H147.886C145.644 20.4723 145.22 21.755 145.22 23.2149V28.1765C145.22 28.6499 145.032 29.1038 144.699 29.4386C144.365 29.7733 143.912 29.9615 143.44 29.9619C142.968 29.9612 142.516 29.7726 142.183 29.4376C141.849 29.1026 141.662 28.6485 141.662 28.1751V18.6135C141.662 18.2482 141.807 17.898 142.065 17.6397C142.323 17.3814 142.672 17.236 143.036 17.2353C143.4 17.236 143.749 17.3815 144.006 17.6398C144.263 17.8982 144.408 18.2483 144.408 18.6135C145.722 17.371 146.804 17.0995 147.886 17.0594H148.242C148.676 17.0709 149.088 17.2515 149.391 17.5629C149.694 17.8743 149.864 18.2919 149.865 18.7271C149.864 19.1523 149.698 19.5605 149.403 19.8652C149.107 20.1698 148.704 20.3469 148.281 20.3587H148.274ZM161.998 27.3371C162.161 27.5933 162.255 27.887 162.268 28.1903C162.249 28.6576 162.055 29.1006 161.725 29.4313C161.396 29.762 160.954 29.9564 160.488 29.9758C159.872 29.9758 159.328 29.5076 158.904 28.9646L154.808 24.1887V28.1501C154.808 28.6235 154.621 29.0774 154.287 29.4122C153.954 29.7469 153.501 29.9349 153.029 29.9349C152.557 29.9349 152.105 29.7469 151.771 29.4122C151.437 29.0774 151.25 28.6235 151.25 28.1501V13.6131C151.249 13.2599 151.353 12.9144 151.548 12.6204C151.743 12.3265 152.021 12.0974 152.347 11.9622C152.672 11.827 153.03 11.7918 153.376 11.861C153.721 11.9303 154.038 12.1009 154.286 12.3513C154.621 12.6851 154.808 13.1408 154.808 13.6117V22.6844L158.904 18.1495C159.328 17.6827 159.834 17.1799 160.45 17.1799C160.901 17.1998 161.328 17.3912 161.644 17.7153C161.96 18.0394 162.141 18.4719 162.151 18.9251C162.152 19.2128 162.072 19.4949 161.919 19.7382L158.674 23.3077L161.998 27.3426V27.3371ZM183.494 30.1683H182.525C179.82 30.1683 178.234 28.9646 178.234 24.7386V20.3587H177.308C176.872 20.3587 176.454 20.1849 176.145 19.8756C175.837 19.5662 175.664 19.1466 175.664 18.709C175.664 18.2715 175.837 17.8519 176.145 17.5425C176.454 17.2332 176.872 17.0594 177.308 17.0594H178.22V13.6865C178.211 13.3288 178.311 12.9768 178.505 12.6767C178.7 12.3766 178.98 12.1425 179.309 12.005C179.527 11.9136 179.762 11.8665 179.998 11.8665C180.474 11.8745 180.927 12.0699 181.26 12.4105C181.593 12.7511 181.78 13.2094 181.778 13.6865V17.0497H183.245C183.675 17.0627 184.082 17.2448 184.379 17.5566C184.676 17.8684 184.838 18.2849 184.832 18.716C184.817 19.1373 184.647 19.5381 184.353 19.8399C184.06 20.1416 183.665 20.3227 183.245 20.3477H181.778V24.0321C181.778 26.4741 181.892 26.9769 182.974 26.9769H183.48C183.9 26.9788 184.302 27.1473 184.599 27.4458C184.896 27.7442 185.063 28.1483 185.064 28.5698C185.054 28.9882 184.884 29.3868 184.589 29.6827C184.294 29.9786 183.897 30.1491 183.48 30.1586L183.494 30.1683ZM200.695 13.1837C200.95 13.3487 201.164 13.5715 201.318 13.8341C201.473 14.0968 201.564 14.3921 201.584 14.6963C201.582 15.1415 201.407 15.5684 201.097 15.8868C200.786 16.2052 200.365 16.3902 199.921 16.4028C199.712 16.3858 199.504 16.3463 199.303 16.2851C198.221 15.4696 196.908 15.0221 195.555 15.008C192.267 15.008 190.024 17.6813 190.024 21.0153C190.024 24.3493 192.305 26.988 195.555 26.988C197.115 26.9858 198.612 26.3736 199.729 25.2815C200.013 25.0821 200.349 24.974 200.695 24.9713C200.904 24.9693 201.111 25.009 201.304 25.0879C201.498 25.1669 201.673 25.2835 201.822 25.4311C202.067 25.6772 202.225 25.9983 202.269 26.3438C202.313 26.6893 202.241 27.0397 202.065 27.3398C201.929 27.5765 201.737 27.7755 201.505 27.9188C200.374 28.861 199.034 29.5164 197.597 29.8298C196.16 30.1432 194.669 30.1053 193.25 29.7195C191.108 29.1386 189.248 27.7983 188.016 25.9472C186.784 24.0961 186.262 21.8596 186.548 19.6523C186.833 17.4447 187.907 15.4155 189.569 13.9411C191.232 12.4666 193.371 11.6468 195.591 11.6338C197.412 11.599 199.198 12.1413 200.695 13.1837ZM137.102 17.1785C136.921 17.1784 136.742 17.2147 136.575 17.2852C136.408 17.3557 136.257 17.459 136.131 17.589C136.004 17.719 135.905 17.8731 135.839 18.0421C135.773 18.2112 135.741 18.3918 135.746 18.5733L135.671 19.0027C135.161 18.3968 134.528 17.907 133.815 17.5659C133.101 17.2248 132.323 17.0403 131.532 17.0247C128.055 17.0247 125.543 19.9695 125.543 23.5349C125.543 27.1016 128.015 30.1683 131.341 30.1683C132.733 30.1683 134.935 29.5464 135.633 28.1903L135.711 28.6156C135.708 28.7981 135.741 28.9795 135.81 29.1484C135.88 29.3174 135.982 29.4703 136.113 29.5978C136.243 29.7253 136.398 29.8246 136.568 29.8896C136.738 29.9546 136.92 29.9839 137.102 29.9758C137.285 29.9761 137.466 29.9403 137.635 29.8702C137.804 29.8002 137.958 29.6974 138.087 29.5676C138.216 29.4379 138.319 29.2838 138.389 29.1143C138.458 28.9447 138.494 28.763 138.494 28.5795V18.5844C138.489 18.2148 138.34 17.8618 138.081 17.5995C137.821 17.3373 137.47 17.1863 137.102 17.1785ZM131.921 26.988C130.337 26.988 129.098 25.4782 129.098 23.6138C129.098 21.7508 130.372 20.4003 131.921 20.4003C133.467 20.4003 134.861 21.6788 134.861 23.6138C134.861 25.5489 133.506 26.988 131.921 26.988ZM174.988 23.3035C174.91 19.3088 172.319 17.0594 168.88 17.0594C164.61 17.0594 162.808 20.1621 162.808 23.7316C162.808 28.2693 165.788 30.2071 169.383 30.2071C170.735 30.2071 172.166 30.0118 173.247 29.1973C173.471 29.0654 173.66 28.8794 173.795 28.6562C173.93 28.433 174.007 28.1796 174.02 27.9188C174.023 27.535 173.875 27.1655 173.609 26.8899C173.343 26.6142 172.979 26.4545 172.596 26.445C172.269 26.4478 171.949 26.542 171.671 26.7165C170.938 27.0307 170.147 27.1887 169.35 27.1805C168.461 27.1805 166.411 26.8232 166.411 24.6998H173.592C173.959 24.6927 174.31 24.5435 174.57 24.2833C174.83 24.023 174.98 23.672 174.988 23.3035ZM166.403 22.4032C166.403 20.8934 167.991 20.3906 168.955 20.3906C169.92 20.3906 171.507 20.8934 171.546 22.4032H166.403ZM214.877 17.1785C214.696 17.1786 214.517 17.2149 214.35 17.2853C214.184 17.3557 214.033 17.4588 213.906 17.5885C213.78 17.7184 213.681 17.8726 213.615 18.0418C213.549 18.211 213.518 18.3918 213.524 18.5733L213.446 19.0027C212.937 18.3967 212.305 17.9068 211.591 17.5657C210.878 17.2246 210.1 17.0402 209.31 17.0247C205.83 17.0247 203.317 19.9695 203.317 23.5349C203.317 27.1016 205.808 30.1683 209.114 30.1683C210.506 30.1683 212.713 29.5464 213.406 28.1903L213.485 28.6156C213.483 28.7979 213.517 28.9788 213.587 29.1473C213.656 29.3159 213.759 29.4686 213.888 29.5962C214.019 29.7239 214.173 29.8234 214.344 29.8887C214.514 29.954 214.695 29.9836 214.877 29.9758C215.152 29.9756 215.422 29.8937 215.651 29.7404C215.88 29.5871 216.058 29.3692 216.164 29.1142C216.233 28.9452 216.269 28.7638 216.269 28.5795V18.5844C216.263 18.2151 216.115 17.8624 215.855 17.6003C215.596 17.3382 215.245 17.187 214.877 17.1785ZM209.694 26.988C208.15 26.988 206.873 25.4782 206.873 23.6138C206.873 21.7508 208.112 20.4003 209.694 20.4003C211.278 20.4003 212.634 21.6788 212.634 23.6138C212.634 25.5489 211.289 26.988 209.703 26.988H209.694ZM226.404 17.0497C225.629 17.0355 224.859 17.1794 224.142 17.4728C223.424 17.7661 222.773 18.2028 222.229 18.7561C222.229 17.8669 221.649 17.2062 220.877 17.2062C220.694 17.2056 220.513 17.2414 220.344 17.3113C220.174 17.3812 220.02 17.484 219.891 17.6137C219.761 17.7435 219.658 17.8976 219.588 18.0672C219.518 18.2369 219.482 18.4188 219.483 18.6024V33.6491C219.484 34.122 219.671 34.5751 220.005 34.9094C220.338 35.2438 220.79 35.4321 221.261 35.4332C221.733 35.4328 222.185 35.2448 222.519 34.9103C222.853 34.5759 223.041 34.1223 223.041 33.6491V29.1225C224.005 29.8566 225.553 30.1683 226.6 30.1932C229.964 30.1932 232.401 27.1307 232.401 23.5612C232.401 19.9903 229.847 17.0497 226.404 17.0497ZM225.977 26.9769C224.393 26.9769 223.041 25.5502 223.041 23.6041C223.041 21.658 224.393 20.3906 225.977 20.3906C227.561 20.3906 228.8 21.6691 228.8 23.6041C228.8 25.4768 227.565 26.988 225.977 26.988V26.9769Z" fill="#F0F0F0"/>
</svg>
