<svg width="223" height="26" viewBox="0 0 223 26" fill="none" xmlns="http://www.w3.org/2000/svg">
<path fill-rule="evenodd" clip-rule="evenodd" d="M0.136719 10.7102V21.4204H6.97934H13.822V10.7102V0H6.97934H0.136719V10.7102Z" fill="#F0F0F0"/>
<path fill-rule="evenodd" clip-rule="evenodd" d="M44.3482 1.13099C41.5582 2.88389 40.5889 5.22704 40.5359 10.3453C40.4598 17.7467 42.8964 20.8258 48.828 20.8258C52.9431 20.8258 55.4755 18.7659 55.4755 15.4178C55.4755 14.1379 55.7432 13.0907 56.0705 13.0907C56.3977 13.0907 56.6655 12.6891 56.6655 12.1982C56.6655 11.5038 55.8723 11.3057 53.0954 11.3057C50.3185 11.3057 49.5254 11.5038 49.5254 12.1982C49.5254 12.6891 49.9419 13.0907 50.4506 13.0907C51.1825 13.0907 51.3378 13.6792 51.1944 15.9116C51.001 18.9206 50.2584 19.5031 47.4976 18.8105C43.4414 17.7919 43.2111 4.69213 47.2102 2.44775C49.3451 1.24881 51.5936 1.9765 52.4974 4.15781C53.4506 6.45931 54.8805 6.51941 54.8805 4.25777C54.8805 1.80931 53.0294 0.434833 49.3677 0.164104C46.99 -0.0114244 45.8018 0.217654 44.3482 1.13099ZM127.331 0.931666C125.157 2.11098 123.836 4.83136 123.473 8.87327C123.089 13.1419 124.146 16.9963 126.284 19.1348C127.655 20.5057 128.497 20.8258 130.728 20.8258C136.703 20.8258 139.053 17.8906 139.066 10.4132C139.076 5.08305 137.752 1.99852 134.896 0.697828C132.818 -0.249429 129.307 -0.140542 127.331 0.931666ZM16.7998 1.488C16.7998 1.97888 17.0676 2.38052 17.3948 2.38052C17.7631 2.38052 17.9898 5.55371 17.9898 10.7107C17.9898 15.8676 17.7631 19.0408 17.3948 19.0408C17.0676 19.0408 16.7998 19.4424 16.7998 19.9333C16.7998 20.6533 17.7322 20.8258 21.6188 20.8258C29.1724 20.8258 31.5656 19.1628 32.5515 13.2281C33.2858 8.81079 32.3825 4.75401 30.1727 2.54414C28.2418 0.613336 28.1722 0.595486 22.5119 0.595486C17.831 0.595486 16.7998 0.756734 16.7998 1.488ZM32.8651 1.488C32.8651 1.97888 33.2667 2.38052 33.7576 2.38052C34.5085 2.38052 34.6501 3.70263 34.6501 10.7107C34.6501 16.8399 34.4627 19.0015 33.9415 18.892C33.5523 18.8099 33.131 19.2122 33.0055 19.7846C32.808 20.6872 33.2596 20.8258 36.3917 20.8258C39.2073 20.8258 40.0052 20.6289 40.0052 19.9333C40.0052 19.4424 39.7374 19.0408 39.4102 19.0408C39.0419 19.0408 38.8152 15.8676 38.8152 10.7107C38.8152 5.55371 39.0419 2.38052 39.4102 2.38052C39.7374 2.38052 40.0052 1.97888 40.0052 1.488C40.0052 0.793624 39.2121 0.595486 36.4351 0.595486C33.6582 0.595486 32.8651 0.793624 32.8651 1.488ZM56.0705 1.488C56.0705 1.97888 56.4721 2.38052 56.963 2.38052C57.7139 2.38052 57.8555 3.70263 57.8555 10.7107C57.8555 16.8399 57.6681 19.0015 57.1468 18.892C56.7577 18.8099 56.3364 19.2122 56.2109 19.7846C56.0134 20.6872 56.465 20.8258 59.5971 20.8258C62.8482 20.8258 63.2106 20.7033 63.2106 19.6007C63.2106 18.9272 62.9428 18.541 62.6156 18.7433C62.2294 18.9819 62.0206 16.1711 62.0206 10.7458C62.0206 5.56561 62.2473 2.38052 62.6156 2.38052C62.9428 2.38052 63.2106 1.97888 63.2106 1.488C63.2106 0.793624 62.4174 0.595486 59.6405 0.595486C56.8636 0.595486 56.0705 0.793624 56.0705 1.488ZM63.8056 2.34541C63.8056 4.53445 64.7291 5.18063 65.5817 3.5872C66.0077 2.79167 66.8283 2.38052 67.9915 2.38052H69.7557V10.3834C69.7557 17.1832 69.6087 18.469 68.7799 18.9331C67.1079 19.8685 68.505 20.8258 71.5407 20.8258C74.5765 20.8258 75.9736 19.8685 74.3016 18.9331C73.4727 18.469 73.3258 17.1832 73.3258 10.3834V2.38052H75.09C76.2449 2.38052 77.0737 2.79107 77.4908 3.57054C78.4667 5.39424 79.2759 4.98964 79.2759 2.67802V0.595486H71.5407H63.8056V2.34541ZM84.0359 1.21668C84.0359 1.60343 82.8168 5.77207 81.3269 10.4804C79.3937 16.5894 78.3572 19.0408 77.7074 19.0408C75.7665 19.0408 77.4087 20.5384 79.5454 20.7175C81.6791 20.896 81.785 20.8252 81.4393 19.449C81.2382 18.6475 81.365 17.157 81.7208 16.1366C82.292 14.4973 82.6317 14.2807 84.631 14.2807C86.6302 14.2807 86.97 14.4973 87.5412 16.1366C87.897 17.157 88.0243 18.6445 87.8244 19.4424C87.4686 20.8586 87.5352 20.8889 90.6102 20.711C92.4607 20.6033 93.8614 20.2213 94.0053 19.7846C94.1398 19.3752 93.8346 19.0408 93.3264 19.0408C92.6576 19.0408 91.6063 16.5358 89.519 9.9669C87.0419 2.17286 86.4517 0.866216 85.3355 0.702588C84.6208 0.598461 84.0359 0.829325 84.0359 1.21668ZM94.7461 1.488C94.7461 1.97888 95.0139 2.38052 95.3411 2.38052C95.7095 2.38052 95.9362 5.55371 95.9362 10.7107C95.9362 15.8676 95.7095 19.0408 95.3411 19.0408C95.0139 19.0408 94.7461 19.4424 94.7461 19.9333C94.7461 20.6771 95.9362 20.8258 101.886 20.8258C107.197 20.8258 109.028 20.6354 109.035 20.0821C109.039 19.6733 109.204 18.7356 109.401 17.9995C109.831 16.3936 108.212 16.0943 107.358 17.6211C106.972 18.3107 105.873 18.6047 103.461 18.6624L100.101 18.7433V10.5619C100.101 5.50432 100.329 2.38052 100.696 2.38052C101.023 2.38052 101.291 1.97888 101.291 1.488C101.291 0.802549 100.531 0.595486 98.0187 0.595486C95.5066 0.595486 94.7461 0.802549 94.7461 1.488ZM116.167 1.488C116.167 1.97888 116.434 2.38052 116.762 2.38052C117.135 2.38052 117.357 6.14872 117.357 12.4957C117.357 21.9784 117.279 22.6888 116.107 23.8604C114.344 25.6234 115.447 26.6236 117.991 25.5693C120.984 24.3298 121.522 22.2074 121.522 11.6222C121.522 5.85776 121.745 2.38052 122.117 2.38052C122.444 2.38052 122.712 1.97888 122.712 1.488C122.712 0.802549 121.951 0.595486 119.439 0.595486C116.927 0.595486 116.167 0.802549 116.167 1.488ZM139.372 1.488C139.372 1.97888 139.64 2.38052 139.967 2.38052C140.326 2.38052 140.562 4.86587 140.562 8.64716C140.562 17.7306 142.252 20.8258 147.211 20.8258C152.798 20.8258 154.247 18.4006 154.247 9.0482C154.247 3.78355 154.421 2.44121 155.14 2.16512C156.949 1.47075 155.954 0.595486 153.355 0.595486C150.621 0.595486 149.908 1.29581 151.649 2.27044C152.484 2.73752 152.583 3.7413 152.351 9.382C152.037 16.9975 151.184 19.0408 148.317 19.0408C145.347 19.0408 144.727 17.3748 144.727 9.38795C144.727 5.1128 144.959 2.38052 145.322 2.38052C145.649 2.38052 145.917 1.97888 145.917 1.488C145.917 0.802549 145.157 0.595486 142.644 0.595486C140.132 0.595486 139.372 0.802549 139.372 1.488ZM156.627 1.20894C156.627 1.54691 157.029 1.9771 157.52 2.16512C158.254 2.44716 158.412 3.97514 158.412 10.7743C158.412 17.9192 158.284 19.0408 157.47 19.0408C156.952 19.0408 156.639 19.3752 156.774 19.7846C156.921 20.2326 158.359 20.5991 160.393 20.7068C163.148 20.8526 163.767 20.7128 163.767 19.9446C163.767 19.427 163.366 18.8492 162.875 18.6612C162.221 18.4101 161.982 17.3801 161.982 14.8121C161.982 11.8465 162.146 11.3057 163.042 11.3057C163.658 11.3057 164.367 12.009 164.737 12.9884C165.086 13.9142 166.278 16.0562 167.386 17.7484C169.222 20.5533 169.599 20.8258 171.642 20.8258C173.507 20.8258 173.882 20.6206 173.882 19.6007C173.882 18.9272 173.624 18.5356 173.308 18.7308C172.679 19.1193 169.348 14.868 168.431 12.5082C168.014 11.4336 168.061 10.9653 168.605 10.7838C169.016 10.647 169.97 9.91691 170.725 9.16244C172.682 7.20486 172.538 4.51422 170.358 2.3347C168.666 0.642492 168.457 0.595486 162.623 0.595486C158.901 0.595486 156.627 0.828135 156.627 1.20894ZM174.477 1.20894C174.477 1.54691 174.879 1.9771 175.37 2.16512C176.757 2.69766 176.68 18.153 175.287 18.9331C173.819 19.7542 174.877 20.8258 177.155 20.8258C179.495 20.8258 180.376 19.8673 178.978 18.8439C178.163 18.2488 178.031 17.1267 178.174 12.0233L178.345 5.91488L182.573 13.2216C185.632 18.5089 187.112 20.5283 187.928 20.5283C188.978 20.5283 189.067 19.9059 189.219 11.4544C189.317 6.07612 189.62 2.38052 189.963 2.38052C190.282 2.38052 190.543 1.97888 190.543 1.488C190.543 0.843605 189.882 0.595486 188.163 0.595486C186.506 0.595486 185.783 0.851935 185.783 1.43862C185.783 1.90213 186.062 2.37457 186.404 2.48821C186.789 2.61674 186.958 4.58622 186.85 7.66183L186.675 12.6284L183.199 6.61163L179.722 0.595486H177.1C175.657 0.595486 174.477 0.871571 174.477 1.20894ZM196.029 6.39683C195.032 9.58787 193.742 13.7375 193.163 15.6195C192.578 17.5205 191.762 19.0408 191.326 19.0408C190.896 19.0408 190.543 19.4424 190.543 19.9333C190.543 20.5777 191.204 20.8258 192.923 20.8258C194.642 20.8258 195.303 20.5777 195.303 19.9333C195.303 19.4424 195.049 19.0408 194.739 19.0408C194.42 19.0408 194.51 18.0703 194.944 16.8095C195.641 14.7895 195.937 14.5616 198.077 14.4003C200.347 14.2301 200.468 14.3128 201.135 16.4829C201.578 17.9228 201.617 18.8153 201.244 18.9414C200.922 19.0509 200.658 19.5192 200.658 19.9827C200.658 20.6081 201.504 20.8258 203.93 20.8258C207.242 20.8258 208.065 20.1422 206.357 18.8087C205.892 18.4458 204.271 14.1992 202.755 9.37189C199.269 -1.73517 198.655 -2.00649 196.029 6.39683ZM207.798 1.488C207.798 1.97888 208.066 2.38052 208.393 2.38052C208.761 2.38052 208.988 5.55371 208.988 10.7107C208.988 15.8676 208.761 19.0408 208.393 19.0408C208.066 19.0408 207.798 19.4424 207.798 19.9333C207.798 20.6765 208.98 20.8258 214.869 20.8258C221.699 20.8258 221.952 20.78 222.298 19.4871C222.495 18.7504 222.661 17.8139 222.665 17.4045C222.677 16.3317 221.044 16.4888 220.41 17.6211C220.024 18.3107 218.925 18.6047 216.513 18.6624L213.153 18.7433V10.5619C213.153 5.50432 213.38 2.38052 213.748 2.38052C214.075 2.38052 214.343 1.97888 214.343 1.488C214.343 0.802549 213.583 0.595486 211.071 0.595486C208.558 0.595486 207.798 0.802549 207.798 1.488ZM128.824 3.3956C127.225 5.83693 127.298 16.0152 128.928 17.8163C130.652 19.7209 132.882 19.2288 134.164 16.6608C135.366 14.2557 135.577 7.7838 134.549 4.83672C133.4 1.54096 130.515 0.81445 128.824 3.3956ZM22.1549 10.7107V19.0408H23.6091C24.4094 19.0408 25.8148 18.3946 26.7329 17.605C28.3442 16.2193 28.4025 15.9711 28.4025 10.5274C28.4025 3.95967 27.5772 2.38052 24.1452 2.38052H22.1549V10.7107ZM161.982 5.95058V9.52064H164.023C166.579 9.52064 167.932 8.20864 167.932 5.72983C167.932 3.21948 167.008 2.38052 164.243 2.38052H161.982V5.95058ZM197.206 9.35999C196.298 12.3916 196.245 12.1982 197.98 12.1982C199.635 12.1982 199.698 11.8953 198.649 8.99346L197.92 6.97875L197.206 9.35999ZM83.8926 9.03273C83.7283 9.79196 83.41 10.8475 83.1857 11.3783C82.8531 12.1631 83.0703 12.288 84.3436 12.0441C85.6942 11.7864 85.8579 11.5294 85.5265 10.1865C84.9743 7.95041 84.2383 7.43096 83.8926 9.03273Z" fill="#F0F0F0"/>
</svg>
