<svg width="134" height="32" viewBox="0 0 134 32" fill="none" xmlns="http://www.w3.org/2000/svg">
<path d="M46.1581 12.3532C46.0106 10.4092 44.4118 7.68994 40.4642 7.68994C37.07 7.68994 34.4014 10.04 34.4014 14.6541C34.4014 19.2067 36.9224 21.5814 40.4273 21.5814C43.7355 21.5814 45.6047 19.5758 46.1581 16.7089H43.4034C43.0714 18.3331 42.0138 19.1944 40.4888 19.1944C38.1522 19.1944 37.2176 17.0658 37.2176 14.691C37.2176 10.9629 39.1606 10.077 40.4888 10.077C42.7639 10.077 43.1821 11.5658 43.4034 12.3532H46.1581ZM88.4014 16.3398C88.4014 12.8085 86.0279 11.1966 83.4084 11.1966C80.789 11.1966 78.4155 12.8085 78.4155 16.3398C78.4155 19.8711 80.789 21.483 83.4084 21.483C86.0402 21.483 88.4014 19.8588 88.4014 16.3398ZM85.7573 16.3398C85.7573 17.5825 85.3884 19.3174 83.4084 19.3174C81.4285 19.3174 81.0595 17.5948 81.0595 16.3398C81.0595 15.0848 81.4285 13.3622 83.4084 13.3622C85.4007 13.3622 85.7573 15.0848 85.7573 16.3398ZM76.62 8.79732H74.0497V11.4427H72.7339V13.2761H74.0497V19.2067C74.0497 20.474 74.4556 21.323 76.6692 21.323H77.0012C77.4071 21.323 77.8129 21.3107 78.2187 21.2861V19.342C78.0342 19.3543 77.8498 19.379 77.6899 19.379C76.6446 19.379 76.62 19.1575 76.62 18.5915V13.2761H78.2187V11.4427H76.62V8.79732ZM46.9083 21.2246H49.4786V16.1306C49.4786 15.0479 49.8475 13.7928 51.8521 13.7928C52.0857 13.7928 52.3686 13.7928 52.5899 13.8298V11.2213C52.4301 11.2089 52.2579 11.1843 52.098 11.1843C50.5362 11.1843 49.9459 12.1441 49.4171 13.1284H49.3802V11.4427H46.9206V21.2246H46.9083Z" fill="#F0F0F0"/>
<path d="M63.4014 11.6589H60.6039L58.5406 18.9538H58.5026L56.3507 11.6589H53.4014L57.1102 21.9715C56.8571 23.3308 56.3381 23.4679 55.376 23.4679C55.1482 23.4679 54.9836 23.443 54.8697 23.4305V25.513C55.2495 25.5255 55.7052 25.5504 56.0596 25.5504C58.3634 25.5504 58.7052 25.0641 59.9583 21.3979L63.4014 11.6589Z" fill="#F0F0F0"/>
<path d="M66.0021 17.0379C66.0021 15.4711 66.4443 13.8919 68.3168 13.8919C70.0464 13.8919 70.6315 15.3477 70.6315 16.8898C70.6315 18.0495 70.1504 19.8507 68.3949 19.8507C66.6523 19.8507 66.0021 18.4813 66.0021 17.0379ZM66.0021 11.918H63.4014V25.5504H66.1062V20.4676H66.1452C66.4703 20.9981 67.1595 21.9727 69.0581 21.9727C72.127 21.9727 73.4014 19.3942 73.4014 16.7048C73.4014 13.3121 71.3858 11.6589 69.1101 11.6589C67.2895 11.6589 66.5223 12.5595 66.0151 13.3368H65.9761V11.918H66.0021Z" fill="#F0F0F0"/>
<path d="M2.40137 20.4217C5.21063 26.0465 9.91804 29.5894 14.2585 31.8052C14.2711 31.8174 14.6381 32 14.6381 32C14.6381 32 15.0051 31.8174 15.0177 31.8052C22.3699 28.0797 30.7597 20.507 29.2159 5.56844L25.9764 4.21704C25.369 8.84347 22.4079 12.7394 18.2826 15.564C17.7258 15.9414 17.1437 16.3066 16.5363 16.6475L17.1184 20.86C17.1943 21.4201 16.6375 21.8949 16.0554 21.8949H13.1069C12.5248 21.8949 11.9554 21.4201 12.044 20.86L12.3477 18.5955C9.51311 19.6425 6.46341 20.2635 3.43902 20.4096C3.0847 20.4096 2.74303 20.4217 2.40137 20.4217Z" fill="#F0F0F0"/>
<path d="M0.577237 5.16258C0.0385617 10.6538 0.773119 15.1544 2.2912 18.8479C2.79315 18.8601 3.28286 18.8479 3.7848 18.8234C6.80873 18.6766 9.85714 17.9795 12.6607 16.8299L12.8933 15.0444C12.0118 14.4573 11.4242 13.4545 11.4242 12.3171C11.4242 10.5193 12.8933 9.0517 14.693 9.0517C16.4926 9.0517 17.9618 10.5193 17.9618 12.3171C17.9618 13.0876 17.6924 13.8091 17.2272 14.3717C17.3129 14.3106 17.3986 14.2494 17.4843 14.1883C21.1571 11.5833 23.8015 8.01215 24.4014 3.82952C20.9612 4.73454 17.8271 3.54824 15.8927 0.992188H14.7542H14.644H13.5054C11.4242 3.74392 7.95954 4.90576 4.22554 3.59716L0.577237 5.16258Z" fill="#F0F0F0"/>
<path d="M27.4014 0C27.6756 0 27.9336 0.112031 28.111 0.288075C28.2885 0.464119 28.4014 0.720182 28.4014 0.992251C28.4014 1.26432 28.2885 1.52038 28.111 1.69643C27.9336 1.87247 27.6756 1.9845 27.4014 1.9845C27.1272 1.9845 26.8691 1.87247 26.6917 1.69643C26.5143 1.52038 26.4014 1.26432 26.4014 0.992251C26.4014 0.720182 26.5143 0.464119 26.6917 0.288075C26.8691 0.128035 27.1272 0 27.4014 0ZM27.0304 1.63241V0.336085H27.4981C27.5949 0.336085 27.6594 0.352091 27.7239 0.368095C27.7723 0.384099 27.8046 0.432108 27.8368 0.48012C27.8691 0.544136 27.8852 0.608154 27.8852 0.67217C27.8852 0.768194 27.853 0.848214 27.8046 0.91223C27.7562 0.976247 27.6756 1.00825 27.5788 1.02426C27.6272 1.04026 27.6594 1.07227 27.6756 1.08828C27.7239 1.13629 27.7562 1.2003 27.7885 1.24832L27.982 1.61641C27.9981 1.6004 28.0143 1.6004 28.0304 1.5844C28.1917 1.42436 28.2885 1.21631 28.2885 0.976246C28.2885 0.736185 28.1917 0.528135 28.0304 0.368095C27.8691 0.208055 27.6594 0.11203 27.4175 0.11203C27.1756 0.11203 26.9659 0.208055 26.8046 0.368095C26.6433 0.528135 26.5465 0.736185 26.5465 0.976246C26.5465 1.21631 26.6433 1.42436 26.8046 1.5844C26.9659 1.74444 27.1756 1.84046 27.4175 1.84046C27.5788 1.84046 27.724 1.79245 27.853 1.72844L27.6594 1.34434C27.611 1.23231 27.5627 1.16829 27.5304 1.13629C27.4981 1.10428 27.482 1.07227 27.4498 1.05627C27.4175 1.04026 27.3852 1.04026 27.3369 1.04026H27.1756V1.61641H27.0304V1.63241ZM27.1594 0.91223H27.4659C27.5304 0.91223 27.5788 0.896226 27.611 0.896226C27.6433 0.880221 27.6756 0.848213 27.6917 0.816205C27.7078 0.784197 27.7239 0.736183 27.7239 0.704175C27.7239 0.640159 27.7078 0.592148 27.6594 0.56014C27.6272 0.512128 27.5627 0.496125 27.4981 0.496125H27.1594V0.91223Z" fill="#F0F0F0"/>
<path d="M90.4014 21.8488H96.1626C100.558 21.8488 101.688 17.6351 101.688 14.6944C101.688 12.1102 100.757 8.18931 96.2743 8.18931H90.4014V21.8488ZM129.401 11.741H126.657L124.633 19.1882H124.596L122.485 11.741H119.592L123.23 22.2689C122.994 23.6565 122.473 23.7965 121.529 23.7965C121.306 23.7965 121.144 23.7711 121.02 23.7583V25.8843C121.393 25.897 121.84 25.9225 122.187 25.9225C124.447 25.9225 124.782 25.426 126.012 21.6833L129.401 11.741ZM118.723 8.20204H116.128V21.8488H118.723V8.20204ZM111.969 11.741V21.8488H114.564V11.741H111.969ZM114.564 8.06201H111.969V10.5317H114.564V8.06201ZM110.578 14.3889C110.578 11.8938 108.033 11.461 106.642 11.461C104.618 11.461 102.532 11.8938 102.234 15H104.742C104.817 14.4144 105.04 13.5869 106.332 13.5869C107.002 13.5869 108.033 13.6506 108.033 14.7581C108.033 15.331 107.536 15.4964 107.126 15.5601L104.792 15.9165C103.141 16.1584 101.924 17.1768 101.924 19.15C101.924 21.2378 103.439 22.1034 104.929 22.1034C106.692 22.1034 107.524 21.2632 108.12 20.6394C108.182 21.2123 108.219 21.3651 108.368 21.8361H111.162V21.4542C110.851 21.3396 110.59 21.0723 110.59 19.8756V14.3889H110.578ZM108.033 18.2207C108.033 19.4555 106.866 20.2193 105.711 20.2193C105.214 20.2193 104.506 19.9393 104.506 18.9973C104.506 17.8897 105.301 17.6478 106.27 17.4824C107.337 17.3041 107.772 17.1386 108.033 16.935V18.2207ZM93.1206 10.5571H95.7901C96.9821 10.5571 98.8445 10.8881 98.8445 14.9109C98.8445 17.1514 98.0871 19.4937 95.8273 19.4937H93.1206V10.5571Z" fill="#F0F0F0"/>
<path d="M130.362 6.81684V7.87475C130.362 7.89907 130.35 7.92339 130.338 7.94771C130.325 7.97203 130.301 7.97203 130.276 7.97203H130.105C130.08 7.97203 130.056 7.95987 130.031 7.94771C130.007 7.93555 130.007 7.91123 130.007 7.87475V5.16309C130.007 5.13877 130.019 5.11445 130.031 5.09013C130.044 5.06581 130.068 5.06581 130.105 5.06581H131.085C131.355 5.06581 131.588 5.13877 131.759 5.28469C131.906 5.43061 132.004 5.63732 132.004 5.90484V5.96564C132.004 6.1602 131.955 6.33044 131.833 6.47636C131.735 6.59796 131.588 6.69524 131.404 6.75604L131.968 7.82611C131.98 7.83827 131.98 7.85043 131.992 7.86259C131.992 7.87475 131.992 7.88691 131.992 7.89907C131.992 7.92339 131.98 7.93555 131.968 7.94771C131.955 7.95987 131.931 7.97203 131.919 7.97203H131.686C131.661 7.97203 131.637 7.95987 131.624 7.94771C131.612 7.93555 131.6 7.92339 131.588 7.89907L131.024 6.81684H130.362ZM130.901 4.09302C131.588 4.09302 132.213 4.3727 132.666 4.82261C133.12 5.27253 133.401 5.89268 133.401 6.57364C133.401 7.25459 133.12 7.87475 132.666 8.32466C132.213 8.77458 131.588 9.05426 130.901 9.05426C130.215 9.05426 129.59 8.77458 129.137 8.32466C128.683 7.87475 128.401 7.25459 128.401 6.57364C128.401 5.89268 128.683 5.27253 129.137 4.82261C129.578 4.3727 130.215 4.09302 130.901 4.09302ZM132.421 5.05365C132.029 4.66453 131.49 4.42133 130.889 4.42133C130.289 4.42133 129.749 4.66453 129.357 5.05365C128.965 5.44277 128.72 5.9778 128.72 6.57364C128.72 7.16947 128.965 7.70451 129.357 8.09363C129.749 8.48274 130.289 8.72594 130.889 8.72594C131.49 8.72594 132.029 8.48274 132.421 8.09363C132.813 7.70451 133.058 7.16947 133.058 6.57364C133.058 5.9778 132.813 5.44277 132.421 5.05365ZM130.362 5.41845V6.47636H131.061C131.22 6.47636 131.367 6.42772 131.477 6.3426C131.563 6.25748 131.624 6.14804 131.624 5.98996V5.917C131.624 5.74676 131.563 5.62516 131.477 5.54005C131.367 5.44277 131.22 5.40629 131.061 5.40629H130.362V5.41845Z" fill="#F0F0F0"/>
</svg>
