<svg width="120" height="48" viewBox="0 0 120 48" fill="none" xmlns="http://www.w3.org/2000/svg">
<path d="M16.6152 46.1167C13.6074 46.1167 10.9219 45.5698 8.55859 44.4761C6.19531 43.3628 4.32031 41.8296 2.93359 39.8765C1.56641 37.9233 0.853516 35.6968 0.794922 33.1968H9.75977C9.83789 34.8765 10.5312 36.2437 11.8398 37.2983C13.168 38.3335 14.7598 38.8511 16.6152 38.8511C18.0605 38.8511 19.3301 38.5288 20.4238 37.8843C21.5371 37.2397 22.4062 36.3511 23.0312 35.2183C23.6562 34.0659 23.9688 32.728 23.9688 31.2046C23.9688 29.6812 23.6465 28.3335 23.002 27.1616C22.3574 25.9897 21.4688 25.0815 20.3359 24.437C19.2227 23.7729 17.9336 23.4409 16.4688 23.4409C15.1797 23.4409 13.9395 23.7046 12.748 24.2319C11.5566 24.7593 10.6289 25.4722 9.96484 26.3706L1.73242 24.9058L3.7832 1.87842H30.4727V9.43701H11.4004L10.3164 20.3647H10.5508C11.3125 19.2905 12.4648 18.4019 14.0078 17.6987C15.5703 16.9956 17.3086 16.644 19.2227 16.644C21.8398 16.644 24.1738 17.2593 26.2246 18.4897C28.2949 19.7202 29.9258 21.4097 31.1172 23.5581C32.3086 25.7065 32.9043 28.1772 32.9043 30.9702C32.9043 33.9194 32.2207 36.5366 30.8535 38.8218C29.4863 41.0874 27.5723 42.8745 25.1113 44.1831C22.6699 45.4722 19.8379 46.1167 16.6152 46.1167ZM54.6133 46.1167C50.9023 46.1167 47.7285 45.2378 45.0918 43.48C42.4746 41.7026 40.4629 39.1538 39.0566 35.8335C37.6699 32.4937 36.9766 28.4604 36.9766 23.7339C36.9766 19.0269 37.6797 15.0034 39.0859 11.6636C40.4922 8.3042 42.5039 5.73584 45.1211 3.9585C47.7578 2.18115 50.9219 1.29248 54.6133 1.29248C58.3242 1.29248 61.4883 2.18115 64.1055 3.9585C66.7422 5.73584 68.7539 8.29443 70.1406 11.6343C71.5469 14.9741 72.25 19.0073 72.25 23.7339C72.25 28.4604 71.5566 32.4937 70.1699 35.8335C68.7832 39.1538 66.7715 41.7026 64.1348 43.48C61.5176 45.2378 58.3438 46.1167 54.6133 46.1167ZM54.6133 38.4995C56.3906 38.4995 57.8848 37.9331 59.0957 36.8003C60.3262 35.6479 61.2539 33.9683 61.8789 31.7612C62.5234 29.5542 62.8457 26.8784 62.8457 23.7339C62.8457 20.5698 62.5234 17.8843 61.8789 15.6772C61.2539 13.4702 60.3262 11.7905 59.0957 10.6382C57.8848 9.46631 56.3906 8.88037 54.6133 8.88037C51.9766 8.88037 49.9453 10.1792 48.5195 12.7769C47.0938 15.355 46.3809 19.0073 46.3809 23.7339C46.3809 26.8784 46.6934 29.5542 47.3184 31.7612C47.9629 33.9683 48.9004 35.6479 50.1309 36.8003C51.3613 37.9331 52.8555 38.4995 54.6133 38.4995ZM100.727 37.3276V35.0425C100.727 33.2847 101.098 31.6733 101.84 30.2085C102.582 28.7437 103.666 27.5718 105.092 26.6929C106.518 25.7944 108.256 25.3452 110.307 25.3452C112.416 25.3452 114.174 25.7847 115.58 26.6636C117.006 27.5425 118.08 28.7241 118.803 30.2085C119.545 31.6733 119.916 33.2847 119.916 35.0425V37.3276C119.916 39.0854 119.545 40.7065 118.803 42.1909C118.061 43.6558 116.977 44.8276 115.551 45.7065C114.125 46.5854 112.377 47.0249 110.307 47.0249C108.236 47.0249 106.488 46.5854 105.062 45.7065C103.637 44.8276 102.553 43.6558 101.811 42.1909C101.088 40.7065 100.727 39.0854 100.727 37.3276ZM106.908 35.0425V37.3276C106.908 38.3433 107.152 39.3003 107.641 40.1987C108.129 41.0972 109.018 41.5464 110.307 41.5464C111.615 41.5464 112.504 41.1069 112.973 40.228C113.441 39.3491 113.676 38.3823 113.676 37.3276V35.0425C113.676 33.9878 113.451 33.021 113.002 32.1421C112.553 31.2437 111.654 30.8042 110.307 30.8237C109.037 30.8042 108.148 31.2437 107.641 32.1421C107.152 33.021 106.908 33.9878 106.908 35.0425ZM78.3145 12.3667V10.0815C78.3145 8.32373 78.6855 6.7124 79.4277 5.24756C80.1895 3.76318 81.2832 2.58154 82.709 1.70264C84.1543 0.82373 85.8926 0.384277 87.9238 0.384277C90.0137 0.384277 91.7715 0.82373 93.1973 1.70264C94.6426 2.58154 95.7266 3.76318 96.4492 5.24756C97.1719 6.7124 97.5234 8.32373 97.5039 10.0815V12.3667C97.5234 14.1245 97.1621 15.7358 96.4199 17.2007C95.6777 18.6655 94.5938 19.8374 93.168 20.7163C91.7422 21.5757 89.9941 22.0151 87.9238 22.0347C85.8535 22.0151 84.0957 21.5659 82.6504 20.687C81.2246 19.8081 80.1406 18.6362 79.3984 17.1714C78.6758 15.7065 78.3145 14.105 78.3145 12.3667ZM84.5547 10.0815V12.3667C84.5547 13.4214 84.7988 14.3882 85.2871 15.2671C85.7754 16.146 86.6543 16.5757 87.9238 16.5562C89.2129 16.5757 90.0918 16.146 90.5605 15.2671C91.0488 14.3882 91.2832 13.4214 91.2637 12.3667V10.0815C91.2832 9.02686 91.0586 8.06006 90.5898 7.18115C90.1406 6.28271 89.252 5.8335 87.9238 5.8335C86.6348 5.8335 85.7461 6.29248 85.2578 7.21045C84.7891 8.10889 84.5547 9.06592 84.5547 10.0815ZM81.127 45.5308L111.127 1.87842H116.723L86.7227 45.5308H81.127Z" fill="#F0F0F0"/>
</svg>
