<svg width="121" height="48" viewBox="0 0 121 48" fill="none" xmlns="http://www.w3.org/2000/svg">
<path d="M16.4707 1.23389C18.7168 1.23389 20.875 1.61475 22.9453 2.37646C25.0352 3.11865 26.9004 4.32959 28.541 6.00928C30.2012 7.66943 31.5098 9.87646 32.4668 12.6304C33.4238 15.3647 33.9023 18.7144 33.9023 22.6792C33.9023 26.3706 33.4824 29.6616 32.6426 32.5522C31.8223 35.4429 30.6309 37.9038 29.0684 39.9351C27.5254 41.9663 25.6602 43.519 23.4727 44.5933C21.3047 45.6479 18.873 46.1753 16.1777 46.1753C13.2871 46.1753 10.7188 45.6089 8.47266 44.4761C6.22656 43.3237 4.42969 41.771 3.08203 39.8179C1.73438 37.8647 0.914062 35.687 0.621094 33.2847H9.70312C10.0547 34.8472 10.7969 36.0679 11.9297 36.9468C13.082 37.8257 14.498 38.2651 16.1777 38.2651C19.0293 38.2651 21.1875 37.0249 22.6523 34.5444C24.1172 32.0444 24.8496 28.6655 24.8496 24.4077H24.5859C23.9414 25.6772 23.0625 26.7808 21.9492 27.7183C20.8359 28.6362 19.5664 29.3394 18.1406 29.8276C16.7148 30.3159 15.2012 30.5601 13.5996 30.5601C11.0215 30.5601 8.7168 29.9546 6.68555 28.7437C4.6543 27.5327 3.0625 25.8726 1.91016 23.7632C0.757812 21.6343 0.171875 19.2026 0.152344 16.4683C0.171875 13.519 0.865234 10.9019 2.23242 8.6167C3.59961 6.31201 5.50391 4.50537 7.94531 3.19678C10.4062 1.86865 13.248 1.21436 16.4707 1.23389ZM16.5293 8.55811C15.1426 8.55811 13.8828 8.8999 12.75 9.5835C11.6172 10.2476 10.7285 11.1655 10.084 12.3374C9.43945 13.4897 9.11719 14.7886 9.11719 16.2339C9.11719 17.6792 9.42969 18.978 10.0547 20.1304C10.6992 21.2827 11.5781 22.2007 12.6914 22.8843C13.8047 23.5483 15.0645 23.8804 16.4707 23.8804C17.8965 23.8804 19.166 23.5386 20.2793 22.855C21.4121 22.1519 22.3105 21.2241 22.9746 20.0718C23.6387 18.8999 23.9707 17.6011 23.9707 16.1753C23.9707 14.7886 23.6484 13.519 23.0039 12.3667C22.3594 11.1948 21.4805 10.2671 20.3672 9.5835C19.2539 8.8999 17.9746 8.55811 16.5293 8.55811ZM55.582 46.1167C51.8711 46.1167 48.6973 45.2378 46.0605 43.48C43.4434 41.7026 41.4316 39.1538 40.0254 35.8335C38.6387 32.4937 37.9453 28.4604 37.9453 23.7339C37.9453 19.0269 38.6484 15.0034 40.0547 11.6636C41.4609 8.3042 43.4727 5.73584 46.0898 3.9585C48.7266 2.18115 51.8906 1.29248 55.582 1.29248C59.293 1.29248 62.457 2.18115 65.0742 3.9585C67.7109 5.73584 69.7227 8.29443 71.1094 11.6343C72.5156 14.9741 73.2188 19.0073 73.2188 23.7339C73.2188 28.4604 72.5254 32.4937 71.1387 35.8335C69.752 39.1538 67.7402 41.7026 65.1035 43.48C62.4863 45.2378 59.3125 46.1167 55.582 46.1167ZM55.582 38.4995C57.3594 38.4995 58.8535 37.9331 60.0645 36.8003C61.2949 35.6479 62.2227 33.9683 62.8477 31.7612C63.4922 29.5542 63.8145 26.8784 63.8145 23.7339C63.8145 20.5698 63.4922 17.8843 62.8477 15.6772C62.2227 13.4702 61.2949 11.7905 60.0645 10.6382C58.8535 9.46631 57.3594 8.88037 55.582 8.88037C52.9453 8.88037 50.9141 10.1792 49.4883 12.7769C48.0625 15.355 47.3496 19.0073 47.3496 23.7339C47.3496 26.8784 47.6621 29.5542 48.2871 31.7612C48.9316 33.9683 49.8691 35.6479 51.0996 36.8003C52.3301 37.9331 53.8242 38.4995 55.582 38.4995ZM101.695 37.3276V35.0425C101.695 33.2847 102.066 31.6733 102.809 30.2085C103.551 28.7437 104.635 27.5718 106.061 26.6929C107.486 25.7944 109.225 25.3452 111.275 25.3452C113.385 25.3452 115.143 25.7847 116.549 26.6636C117.975 27.5425 119.049 28.7241 119.771 30.2085C120.514 31.6733 120.885 33.2847 120.885 35.0425V37.3276C120.885 39.0854 120.514 40.7065 119.771 42.1909C119.029 43.6558 117.945 44.8276 116.52 45.7065C115.094 46.5854 113.346 47.0249 111.275 47.0249C109.205 47.0249 107.457 46.5854 106.031 45.7065C104.605 44.8276 103.521 43.6558 102.779 42.1909C102.057 40.7065 101.695 39.0854 101.695 37.3276ZM107.877 35.0425V37.3276C107.877 38.3433 108.121 39.3003 108.609 40.1987C109.098 41.0972 109.986 41.5464 111.275 41.5464C112.584 41.5464 113.473 41.1069 113.941 40.228C114.41 39.3491 114.645 38.3823 114.645 37.3276V35.0425C114.645 33.9878 114.42 33.021 113.971 32.1421C113.521 31.2437 112.623 30.8042 111.275 30.8237C110.006 30.8042 109.117 31.2437 108.609 32.1421C108.121 33.021 107.877 33.9878 107.877 35.0425ZM79.2832 12.3667V10.0815C79.2832 8.32373 79.6543 6.7124 80.3965 5.24756C81.1582 3.76318 82.252 2.58154 83.6777 1.70264C85.123 0.82373 86.8613 0.384277 88.8926 0.384277C90.9824 0.384277 92.7402 0.82373 94.166 1.70264C95.6113 2.58154 96.6953 3.76318 97.418 5.24756C98.1406 6.7124 98.4922 8.32373 98.4727 10.0815V12.3667C98.4922 14.1245 98.1309 15.7358 97.3887 17.2007C96.6465 18.6655 95.5625 19.8374 94.1367 20.7163C92.7109 21.5757 90.9629 22.0151 88.8926 22.0347C86.8223 22.0151 85.0645 21.5659 83.6191 20.687C82.1934 19.8081 81.1094 18.6362 80.3672 17.1714C79.6445 15.7065 79.2832 14.105 79.2832 12.3667ZM85.5234 10.0815V12.3667C85.5234 13.4214 85.7676 14.3882 86.2559 15.2671C86.7441 16.146 87.623 16.5757 88.8926 16.5562C90.1816 16.5757 91.0605 16.146 91.5293 15.2671C92.0176 14.3882 92.252 13.4214 92.2324 12.3667V10.0815C92.252 9.02686 92.0273 8.06006 91.5586 7.18115C91.1094 6.28271 90.2207 5.8335 88.8926 5.8335C87.6035 5.8335 86.7148 6.29248 86.2266 7.21045C85.7578 8.10889 85.5234 9.06592 85.5234 10.0815ZM82.0957 45.5308L112.096 1.87842H117.691L87.6914 45.5308H82.0957Z" fill="#F0F0F0"/>
</svg>
