<svg width="100" height="45" viewBox="0 0 100 45" fill="none" xmlns="http://www.w3.org/2000/svg">
<path d="M25.0645 11.4015C27.2034 11.3851 29.3694 11.5043 31.5478 11.5229C31.6749 11.5245 31.7574 11.5541 31.7954 11.6117C31.83 11.6646 31.8407 11.7339 31.8275 11.8196C31.8227 11.8494 31.8074 11.877 31.7841 11.8977C31.7607 11.9184 31.7307 11.9312 31.6988 11.934C31.0189 11.9854 30.471 12.2563 30.0551 12.7468C30.0022 12.8103 29.9734 12.8885 29.9734 12.9686V19.9216C29.9734 20.0185 29.9478 20.1138 29.8989 20.199C29.8501 20.2842 29.7796 20.3566 29.6937 20.4097C26.436 22.437 19.9304 22.2011 16.6034 20.5942C12.5263 18.6254 10.4048 14.1201 10.8231 9.89038C11.1994 6.07642 13.5239 3.16632 17.346 1.81403C21.3885 0.382336 25.6562 1.12037 29.7803 1.67857C29.98 1.7066 30.0708 1.81481 30.0526 2.00321C29.9123 3.45126 29.7349 4.85726 29.5204 6.22122C29.4989 6.36759 29.4205 6.4431 29.2852 6.44777C29.243 6.44909 29.2016 6.43618 29.1685 6.41137C29.1354 6.38655 29.1127 6.35144 29.1045 6.31231C28.0821 1.779 22.5297 1.20445 18.7694 2.67819C12.0064 5.33138 11.8554 13.5338 16.7742 17.8243C19.1077 19.8593 21.9603 20.6588 25.3319 20.2229C25.9821 20.1388 26.5762 19.8585 27.1142 19.3821C27.1377 19.3615 27.1564 19.3365 27.1692 19.3088C27.182 19.2811 27.1885 19.2512 27.1885 19.2209V13.0831C27.1884 12.9232 27.1363 12.7673 27.0394 12.6361C26.9425 12.505 26.8053 12.4051 26.6464 12.3497L24.9952 11.7752C24.9515 11.7586 24.9151 11.7284 24.8921 11.6896C24.8692 11.6507 24.8611 11.6056 24.8692 11.5618C24.8774 11.518 24.9012 11.4782 24.9368 11.449C24.9723 11.4198 25.0174 11.403 25.0645 11.4015ZM56.2927 16.4066C56.3033 16.4301 56.3211 16.4502 56.3438 16.4644C56.3664 16.4785 56.393 16.486 56.4201 16.486C56.4473 16.486 56.4739 16.4785 56.4965 16.4644C56.5192 16.4502 56.537 16.4301 56.5476 16.4066C58.4117 12.3964 60.2014 8.07799 62.7388 4.38548C62.7569 4.35979 62.7829 4.34001 62.8134 4.32884C62.8438 4.31766 62.8772 4.31565 62.9089 4.32306C62.9406 4.33048 62.9691 4.34697 62.9905 4.37027C63.0119 4.39356 63.0252 4.42254 63.0284 4.45321C63.4146 8.62685 63.7315 12.9967 64.5484 17.1143C64.7959 18.3544 65.1994 19.1041 66.6476 19.0224C66.7027 19.0196 66.7577 19.0293 66.8081 19.0509C66.8585 19.0724 66.9028 19.1051 66.9372 19.1462C67.1138 19.3548 67.1072 19.4623 66.9174 19.4685C65.4173 19.523 63.9138 19.5152 62.4071 19.4451C62.379 19.4437 62.3517 19.4361 62.3273 19.423C62.3029 19.4099 62.2819 19.3916 62.2662 19.3694C62.2504 19.3473 62.2401 19.322 62.2362 19.2954C62.2323 19.2689 62.2349 19.2418 62.2437 19.2163C62.5259 18.4346 62.6266 17.5993 62.5457 16.7102C62.3097 14.1426 62.011 11.6226 61.6496 9.15001C61.6331 9.03479 61.5984 9.02934 61.5456 9.13366L56.3372 19.3564C56.3242 19.3814 56.3046 19.4029 56.2803 19.4186C56.2559 19.4343 56.2276 19.4438 56.1982 19.4462C56.1688 19.4486 56.1392 19.4437 56.1124 19.432C56.0855 19.4204 56.0624 19.4024 56.0451 19.3797C53.7182 16.3015 52.0621 12.623 50.4703 9.17804C50.462 9.15931 50.447 9.14387 50.428 9.13429C50.409 9.1247 50.3871 9.12156 50.366 9.12539C50.3448 9.12922 50.3257 9.13979 50.3118 9.15532C50.2979 9.17085 50.2901 9.19041 50.2896 9.21074C50.2682 9.6576 50.2228 10.1076 50.1535 10.5607C49.7838 13.0083 49.5486 15.4677 49.448 17.9387C49.4108 18.8496 50.2178 18.9056 50.8615 19.1999C50.9 19.2168 50.9311 19.2459 50.9495 19.2821C50.9678 19.3182 50.9722 19.3593 50.962 19.3983C50.9518 19.4372 50.9275 19.4715 50.8933 19.4954C50.8592 19.5193 50.8173 19.5313 50.7748 19.5292C47.5567 19.386 44.3386 19.3712 41.1205 19.4848C41.0913 19.4858 41.0627 19.4774 41.0393 19.461C41.0159 19.4446 40.999 19.4212 40.9916 19.3946C40.9841 19.368 40.9864 19.3398 40.9981 19.3146C41.0099 19.2894 41.0303 19.2688 41.0561 19.256L41.8384 18.8683C42.0611 18.7577 42.1272 18.5919 42.0364 18.3708L40.1996 13.8889C40.1732 13.825 40.1245 13.7931 40.0535 13.7931H35.9764C35.9342 13.7932 35.8929 13.8052 35.8581 13.8277C35.8232 13.8502 35.7963 13.8821 35.7809 13.9192C34.964 15.839 34.4557 17.2809 34.256 18.2447C34.1306 18.8519 34.4086 19.1368 35.0902 19.0995C35.1247 19.0973 35.1589 19.106 35.1876 19.1242C35.2163 19.1423 35.2378 19.169 35.2486 19.1999L35.3006 19.3634C35.3435 19.4911 35.2948 19.5463 35.1546 19.5292C33.6808 19.3408 32.2079 19.3439 30.7359 19.5386C30.6385 19.551 30.5906 19.5113 30.5923 19.4194V19.3377C30.5923 19.2443 30.641 19.1906 30.7383 19.1765C32.0206 19.0014 32.5727 18.3264 33.0479 17.168C34.7593 13.0045 36.3874 8.81135 37.9321 4.58867C37.9733 4.47812 38.017 4.40728 38.0633 4.37614C38.0848 4.3619 38.1095 4.3524 38.1354 4.34836C38.1613 4.34433 38.1878 4.34586 38.2128 4.35283C38.2379 4.35981 38.2608 4.37206 38.28 4.38864C38.2991 4.40522 38.3139 4.4257 38.3232 4.44854C40.1006 8.89076 41.7765 13.34 44.0762 17.5697C44.7718 18.8542 45.7892 19.4101 47.2795 18.9757C47.5419 18.8986 47.7646 18.623 47.7943 18.4058C48.4561 13.769 49.0189 9.12354 49.4826 4.46956C49.4861 4.43491 49.5005 4.40204 49.5239 4.37513C49.5473 4.34822 49.5786 4.3285 49.614 4.31847C49.6493 4.30845 49.687 4.30858 49.7222 4.31885C49.7575 4.32912 49.7887 4.34906 49.8119 4.37614C50.1353 4.75605 50.4283 5.17489 50.6907 5.63266C52.7288 9.16558 54.5961 12.7569 56.2927 16.4066ZM37.9172 7.67394L36.2438 12.6417C36.2091 12.7475 36.2504 12.8005 36.3676 12.8005H39.5758C39.5913 12.8003 39.6066 12.7968 39.6205 12.7901C39.6343 12.7835 39.6464 12.7739 39.6557 12.7622C39.6651 12.7505 39.6714 12.7368 39.6743 12.7224C39.6772 12.708 39.6765 12.6932 39.6723 12.679L38.0831 7.67394C38.0303 7.50422 37.975 7.50422 37.9172 7.67394ZM70.8187 12.1629V17.4202C70.8188 17.5175 70.8597 17.6107 70.9326 17.6795C72.4006 19.0621 75.4083 19.1812 76.0593 16.897C76.0857 16.8099 76.1451 16.7787 76.2376 16.8036L76.3019 16.82C76.391 16.8433 76.4282 16.8986 76.4133 16.9858L76.0544 18.985C75.9917 19.3354 75.773 19.5098 75.3984 19.5082L67.5486 19.4848C67.4694 19.4848 67.4249 19.4475 67.415 19.3727C67.4117 19.3541 67.4108 19.3338 67.4125 19.312C67.4174 19.2388 67.4587 19.1968 67.5363 19.1859C68.3136 19.0753 68.703 18.6542 68.7047 17.9224C68.7179 13.8927 68.7195 9.89894 68.7096 5.94096C68.7096 5.82022 68.6713 5.70231 68.5999 5.60241C68.5284 5.50251 68.427 5.4252 68.3086 5.38042L67.2714 4.99039C67.2266 4.9722 67.1897 4.94003 67.167 4.89927C67.1443 4.85851 67.1372 4.81162 67.1467 4.76647C67.1563 4.72132 67.182 4.68065 67.2196 4.65126C67.2572 4.62186 67.3043 4.60554 67.3531 4.60502C69.8418 4.6346 72.3288 4.63928 74.8142 4.61903C74.8983 4.61903 74.9825 4.61436 75.0667 4.60502C75.3258 4.57699 75.5708 4.50926 75.8019 4.40183C75.8286 4.38981 75.8582 4.38496 75.8877 4.38782C75.9171 4.39068 75.9451 4.40113 75.9686 4.41802C75.9921 4.43491 76.0103 4.4576 76.021 4.48358C76.0318 4.50956 76.0348 4.53784 76.0296 4.56532L75.5419 7.07837C75.534 7.12585 75.5075 7.16878 75.4676 7.19865C75.4277 7.22851 75.3773 7.24313 75.3265 7.2396C75.2757 7.23608 75.2282 7.21466 75.1934 7.1796C75.1585 7.14454 75.1389 7.0984 75.1385 7.05035C75.079 5.1819 72.2298 5.55793 70.9054 5.64434C70.8064 5.65057 70.7569 5.7004 70.7569 5.79382V10.8713C70.7568 10.8919 70.7612 10.9122 70.7696 10.9311C70.778 10.95 70.7904 10.967 70.8059 10.9812C70.8214 10.9954 70.8397 11.0064 70.8598 11.0136C70.8799 11.0209 70.9013 11.0241 70.9227 11.0231C72.46 10.9624 73.9824 11.238 75.3909 10.5397C75.4274 10.5213 75.4686 10.5128 75.5098 10.5151C75.5511 10.5174 75.5909 10.5303 75.6249 10.5525C75.6589 10.5747 75.6858 10.6053 75.7026 10.6409C75.7194 10.6765 75.7255 10.7159 75.7202 10.7545L75.3959 13.3283C75.3906 13.3891 75.3615 13.4458 75.3143 13.4874C75.2671 13.529 75.2052 13.5525 75.1406 13.5534C75.076 13.5543 75.0134 13.5324 74.9649 13.4921C74.9165 13.4518 74.8857 13.3959 74.8785 13.3353C74.7795 12.693 74.6087 12.2656 73.8438 12.1675C72.875 12.0399 71.9022 12.0025 70.9252 12.0554C70.8542 12.0586 70.8187 12.0944 70.8187 12.1629ZM79.0769 12.4758C79.2279 10.4112 80.1983 9.35554 82.2084 8.64787C88.2659 6.51784 91.5063 16.1684 84.3868 17.2684C82.6268 17.5417 80.5325 16.2314 79.676 14.8768C79.2123 14.1403 79.0126 13.34 79.0769 12.4758ZM83.6194 9.16636C83.6194 9.123 83.6012 9.08142 83.5687 9.05076C83.5362 9.02009 83.4921 9.00287 83.4461 9.00287H83.4313C83.3853 9.00287 83.3413 9.02009 83.3088 9.05076C83.2763 9.08142 83.258 9.123 83.258 9.16636V16.486C83.258 16.5293 83.2763 16.5709 83.3088 16.6016C83.3413 16.6323 83.3853 16.6495 83.4313 16.6495H83.4461C83.4921 16.6495 83.5362 16.6323 83.5687 16.6016C83.6012 16.5709 83.6194 16.5293 83.6194 16.486V9.16636ZM84.2576 9.13857C84.2576 9.10636 84.244 9.07547 84.2199 9.05269C84.1958 9.02991 84.163 9.01712 84.1289 9.01712L84.0744 9.01689C84.0403 9.01688 84.0076 9.02965 83.9835 9.05237C83.9594 9.0751 83.9458 9.10593 83.9457 9.1381L83.9318 16.5792C83.9318 16.6114 83.9454 16.6423 83.9695 16.6651C83.9937 16.6878 84.0264 16.7006 84.0606 16.7006L84.115 16.7009C84.1491 16.7009 84.1818 16.6881 84.206 16.6654C84.2301 16.6426 84.2437 16.6118 84.2437 16.5796L84.2576 9.13857ZM82.7307 9.07294C81.6069 9.43962 80.6711 10.3692 80.4558 11.4435C80.0085 13.6716 80.752 15.3641 82.6862 16.521C82.706 16.5327 82.7288 16.5391 82.7522 16.5397C82.7756 16.5402 82.7987 16.5349 82.8192 16.5241C82.8397 16.5134 82.8567 16.4977 82.8686 16.4787C82.8804 16.4597 82.8867 16.438 82.8867 16.4159V9.17804C82.8865 9.16016 82.8818 9.14256 82.8731 9.12672C82.8644 9.11087 82.8519 9.09723 82.8366 9.08695C82.8213 9.07666 82.8038 9.07002 82.7853 9.06758C82.7669 9.06514 82.7482 9.06698 82.7307 9.07294ZM84.6814 9.34386L84.6715 16.5561C84.6715 16.6339 84.7111 16.6612 84.7903 16.6378C88.2238 15.5845 87.9787 10.4299 84.9116 9.20139C84.7581 9.14067 84.6814 9.18816 84.6814 9.34386Z" fill="#F0F0F0"/>
<path d="M90.7378 9.57913V12.2462C90.7376 12.2741 90.7483 12.3011 90.7679 12.3221C90.7875 12.3431 90.8146 12.3566 90.844 12.3601C91.7387 12.4487 92.6129 12.3878 93.4664 12.1774C93.5455 12.1568 93.5809 12.1861 93.5727 12.2652C93.5166 12.7698 93.459 13.2776 93.3996 13.7885C93.3898 13.8771 93.3329 13.919 93.2291 13.9143C93.1467 13.9095 93.1022 13.8676 93.0956 13.7885C93.0042 12.7255 91.6646 13.0506 90.933 12.977C90.9088 12.9747 90.8843 12.9773 90.8611 12.9845C90.838 12.9918 90.8166 13.0037 90.7985 13.0193C90.7804 13.0349 90.7658 13.054 90.7558 13.0753C90.7458 13.0966 90.7405 13.1197 90.7402 13.1431C90.7328 14.1492 90.2731 16.7949 91.6547 17.0749C91.7552 17.0954 91.7939 17.154 91.7709 17.2505C91.7577 17.309 91.7239 17.3541 91.6695 17.3857C91.6671 17.3881 89.3685 17.3454 89.0027 17.4047C88.917 17.4189 88.8429 17.3968 88.7803 17.3383L88.7111 17.2718C88.7011 17.2621 88.6939 17.2502 88.69 17.2371C88.6861 17.224 88.6858 17.2101 88.689 17.1969C88.6922 17.1836 88.6989 17.1713 88.7083 17.1612C88.7178 17.1511 88.7298 17.1434 88.7432 17.1389L89.3611 16.9183C89.4025 16.9037 89.4383 16.8771 89.4635 16.8423C89.4887 16.8075 89.5022 16.7661 89.502 16.7237V9.69066C89.5044 8.77238 88.931 9.27541 88.6172 8.81509C88.6022 8.79402 88.5938 8.76934 88.5931 8.74388C88.5923 8.71842 88.5992 8.69321 88.6129 8.67115C88.6265 8.6491 88.6465 8.63109 88.6704 8.61919C88.6944 8.60729 88.7213 8.602 88.7482 8.6039C90.4305 8.74627 92.1111 8.73757 93.7902 8.5778C93.8627 8.57148 93.8931 8.60232 93.8816 8.67034L93.627 10.1154C93.6217 10.1484 93.6039 10.1785 93.5772 10.1999C93.5504 10.2213 93.5165 10.2326 93.4817 10.2317C93.4468 10.2309 93.4135 10.2179 93.388 10.1951C93.3624 10.1724 93.3464 10.1415 93.3428 10.1083C93.1945 8.87678 91.7338 9.30389 90.8811 9.42253C90.7855 9.43518 90.7378 9.48739 90.7378 9.57913ZM8.47148 25.4058C7.0528 25.4043 5.63329 25.4074 4.21296 25.4153C2.75721 25.4248 1.85508 26.0892 1.29898 27.335C1.28101 27.3781 1.24788 27.4139 1.20532 27.4361C1.16277 27.4583 1.11347 27.4655 1.06595 27.4565C1.01844 27.4475 0.975699 27.4228 0.945135 27.3868C0.91457 27.3507 0.898103 27.3055 0.898584 27.259C0.883754 25.9113 1.29404 24.8008 1.71173 23.5361C1.73645 23.4601 1.78423 23.4419 1.85508 23.4815C2.6015 23.8944 3.47067 24.1016 4.46259 24.1032C16.5799 24.1127 28.6898 24.1142 40.7922 24.1079C47.2859 24.1032 53.7795 24.1182 60.2732 24.153L79.6775 24.0984C85.2212 24.0818 90.7847 23.8208 96.3309 24.0771C97.3509 24.1229 98.3494 24.0162 99.3265 23.7567C99.3599 23.7477 99.3951 23.7462 99.4292 23.7521C99.4634 23.758 99.4958 23.7713 99.5238 23.7909C99.5519 23.8105 99.575 23.836 99.5913 23.8655C99.6076 23.8949 99.6168 23.9275 99.6181 23.9608C99.6676 25.095 99.567 26.2514 99.3166 27.4299C99.2935 27.5359 99.2573 27.6047 99.2078 27.6363C99.1799 27.6536 99.1479 27.664 99.1148 27.6666C99.0816 27.6692 99.0483 27.664 99.0178 27.6513C98.9873 27.6386 98.9604 27.619 98.9397 27.594C98.919 27.569 98.905 27.5396 98.8989 27.5082C98.4392 25.1045 95.6142 25.3014 93.7506 25.3062C66.3046 25.3663 38.8735 25.379 11.4571 25.3442C11.4257 25.3442 11.3955 25.3562 11.3733 25.3775C11.351 25.3989 11.3385 25.4278 11.3385 25.458V40.3689C11.336 42.3691 11.6302 43.7311 13.7631 44.2223C13.9641 44.2682 14.0375 44.3758 13.9831 44.545C13.9733 44.5773 13.9515 44.605 13.922 44.6229C13.8924 44.6408 13.857 44.6477 13.8224 44.6423C11.4728 44.318 9.11656 44.2888 6.75374 44.5545C6.6351 44.5688 6.59391 44.5213 6.63016 44.4121L6.70431 44.1844C6.7164 44.1473 6.74065 44.1149 6.77354 44.0918C6.80643 44.0688 6.84624 44.0563 6.8872 44.0562C8.10075 44.0657 8.58765 43.3989 8.59506 42.2647C8.63131 36.687 8.63625 31.1117 8.60989 25.5387C8.60824 25.4501 8.56211 25.4058 8.47148 25.4058Z" fill="#F0F0F0"/>
<path d="M48.57 27.8064C56.3425 25.8688 61.5654 35.8277 55.8048 40.7753C53.3371 42.8943 49.8658 43.2998 46.9447 41.7488C44.8039 40.6126 42.8094 38.6209 42.4179 36.226C42.2891 35.4403 42.3973 34.3026 42.7425 32.8129C43.4437 29.8029 45.6117 28.5418 48.57 27.8064ZM50.0318 28.7209C50.0318 28.6931 50.0261 28.6655 50.0149 28.6397C50.0037 28.614 49.9872 28.5906 49.9665 28.5709C49.9458 28.5512 49.9212 28.5356 49.8942 28.5249C49.8671 28.5143 49.8381 28.5088 49.8089 28.5088H49.6998C49.6407 28.5088 49.584 28.5311 49.5422 28.5709C49.5003 28.6107 49.4768 28.6647 49.4768 28.7209V41.5437C49.4768 41.6 49.5003 41.6539 49.5422 41.6937C49.584 41.7335 49.6407 41.7558 49.6998 41.7558H49.8089C49.8381 41.7558 49.8671 41.7504 49.8942 41.7397C49.9212 41.729 49.9458 41.7134 49.9665 41.6937C49.9872 41.674 50.0037 41.6506 50.0149 41.6249C50.0261 41.5992 50.0318 41.5716 50.0318 41.5437V28.7209ZM51.2063 28.7634C51.2063 28.6977 51.1788 28.6348 51.1301 28.5884C51.0813 28.5419 51.0151 28.5159 50.9461 28.5159H50.9114C50.8424 28.5159 50.7762 28.5419 50.7275 28.5884C50.6787 28.6348 50.6513 28.6977 50.6513 28.7634V41.5531C50.6513 41.6188 50.6787 41.6817 50.7275 41.7281C50.7762 41.7746 50.8424 41.8006 50.9114 41.8006H50.9461C51.0151 41.8006 51.0813 41.7746 51.1301 41.7281C51.1788 41.6817 51.2063 41.6188 51.2063 41.5531V28.7634ZM48.7434 28.7068C42.6062 30.0975 43.4635 39.5802 48.7088 41.4636C48.8079 41.4997 48.8574 41.4675 48.8574 41.3669V28.7916C48.8574 28.7178 48.8194 28.6895 48.7434 28.7068ZM55.9584 37.9208C56.9693 34.7788 55.7132 29.9584 51.9421 28.7728C51.8645 28.7476 51.8257 28.7736 51.8257 28.8506V41.5366C51.8259 41.5568 51.8311 41.5766 51.8408 41.5945C51.8504 41.6124 51.8644 41.6279 51.8814 41.6398C51.8985 41.6517 51.9182 41.6596 51.9391 41.663C51.96 41.6664 51.9813 41.6651 52.0016 41.6592C54.0267 41.0715 55.3456 39.8254 55.9584 37.9208ZM88.4829 29.4941C89.92 27.6414 92.9824 27.2854 95.19 27.8559C95.2335 27.8675 95.2712 27.8934 95.2963 27.9289C95.3213 27.9643 95.3319 28.007 95.3262 28.0492L95.0066 30.7009C95.0033 30.7364 94.9872 30.7697 94.9609 30.795C94.9346 30.8204 94.8998 30.8363 94.8626 30.8399C94.8253 30.8435 94.7879 30.8347 94.7568 30.8149C94.7257 30.7951 94.7027 30.7657 94.692 30.7316C94.5053 30.1753 94.2716 29.7125 93.9908 29.3432C92.415 27.2689 88.9314 29.2112 90.0414 31.5778C90.6286 32.827 92.1771 33.8406 93.3045 34.7128C100.133 39.9974 90.304 44.8295 88.0245 41.8171C87.5117 41.1383 87.8164 39.7782 88.0716 39.0357C88.085 39 88.1115 38.9701 88.1462 38.9515C88.1808 38.9328 88.2214 38.9266 88.2605 38.934C88.2995 38.9415 88.3345 38.962 88.359 38.9919C88.3834 39.0219 88.3957 39.0592 88.3937 39.097C88.0766 43.4176 96.3099 41.6922 93.4259 37.8949C91.9814 35.995 86.2431 32.3816 88.4829 29.4941ZM71.8775 39.1795C71.8853 39.1874 71.8954 39.1928 71.9065 39.1949C71.9176 39.1971 71.9291 39.1959 71.9398 39.1916C71.9504 39.1873 71.9596 39.1801 71.9661 39.1708C71.9727 39.1615 71.9763 39.1506 71.9766 39.1394C71.8973 36.0846 71.8453 33.0109 71.8205 29.9184C71.8123 28.9535 71.3655 28.4506 70.4801 28.4098C70.3067 28.4004 70.1886 28.3697 70.1258 28.3179C70.0366 28.2424 70.011 28.1426 70.049 28.0185C70.0705 27.9447 70.1208 27.9117 70.2001 27.9195C71.3811 28.0295 72.5663 28.0484 73.7556 27.9761C74.0182 27.9604 74.2602 27.9737 74.4815 28.0162C74.5225 28.0239 74.5596 28.0442 74.5872 28.0739C74.6149 28.1036 74.6315 28.1411 74.6346 28.1807C74.6377 28.2203 74.6271 28.2598 74.6044 28.293C74.5816 28.3263 74.5481 28.3516 74.5088 28.365L73.4781 28.7139C73.4324 28.7291 73.3928 28.7574 73.3648 28.795C73.3368 28.8326 73.3219 28.8776 73.322 28.9236C73.322 33.4234 73.4335 37.909 73.0866 42.3946C73.0784 42.4842 73.0676 42.5329 73.0544 42.5408C72.9912 42.575 72.9194 42.5903 72.8495 42.5844C72.7795 42.5784 72.715 42.5516 72.6654 42.5078C68.6962 38.9831 64.983 35.2282 61.5258 31.2431C61.5077 31.2227 61.4834 31.2081 61.4563 31.2014C61.4292 31.1946 61.4006 31.1959 61.3743 31.2052C61.348 31.2145 61.3254 31.2313 61.3095 31.2532C61.2936 31.2752 61.2852 31.3013 61.2854 31.3279C61.3499 34.4975 61.4399 37.6969 61.5555 40.9261C61.5877 41.7629 62.834 41.7629 63.4361 42.1566C63.4597 42.1719 63.4779 42.1937 63.4884 42.219C63.4989 42.2443 63.5013 42.272 63.4952 42.2986C63.4891 42.3251 63.4747 42.3494 63.4541 42.3682C63.4334 42.387 63.4073 42.3995 63.3791 42.4041C63.2981 42.4166 63.2065 42.4151 63.1041 42.3993C61.5762 42.1636 60.0912 42.177 58.6492 42.4394C58.606 42.4475 58.5612 42.441 58.5225 42.4209C58.4839 42.4008 58.4539 42.3685 58.4377 42.3296C58.4215 42.2906 58.4201 42.2475 58.4339 42.2077C58.4476 42.1679 58.4756 42.134 58.5129 42.1118C59.2463 41.6757 60.064 41.4023 60.064 40.4264C60.0656 36.336 60.0681 32.2048 60.0714 28.0327C60.0715 27.9627 60.0937 27.8944 60.135 27.8367C60.1764 27.7789 60.2351 27.7343 60.3035 27.7086C60.3719 27.6829 60.4468 27.6774 60.5185 27.6927C60.5902 27.7081 60.6554 27.7436 60.7057 27.7946L71.8775 39.1795ZM77.8165 40.7494C77.8462 36.8664 77.8537 33.0243 77.8388 29.223C77.8387 29.1001 77.7989 28.9804 77.7248 28.8804C77.6506 28.7803 77.5459 28.7049 77.425 28.6644L76.3646 28.3084C76.3175 28.293 76.2778 28.2622 76.2526 28.2214C76.2274 28.1807 76.2183 28.1327 76.2269 28.0859C76.2355 28.0391 76.2612 27.9965 76.2996 27.9656C76.3379 27.9347 76.3864 27.9176 76.4364 27.9172C78.9108 27.9156 81.4372 27.9156 84.0157 27.9172C84.2139 27.9172 84.4022 27.8276 84.5781 27.771C84.612 27.7596 84.6485 27.7568 84.6839 27.7628C84.7193 27.7688 84.7525 27.7834 84.7802 27.8053C84.8079 27.8271 84.8292 27.8554 84.842 27.8874C84.8548 27.9194 84.8586 27.954 84.8531 27.9879C84.7441 28.6714 84.6367 29.3377 84.531 29.9867C84.4996 30.1784 84.4154 30.3214 84.2783 30.4157C84.2554 30.4312 84.2287 30.4407 84.2007 30.4432C84.1728 30.4456 84.1447 30.441 84.1192 30.4297C84.0938 30.4185 84.0719 30.401 84.0559 30.379C84.0399 30.3571 84.0303 30.3315 84.028 30.3049C83.8893 28.4522 81.3051 28.926 80.0018 28.8789C79.9791 28.8779 79.9564 28.8813 79.9351 28.889C79.9137 28.8966 79.8943 28.9083 79.8778 28.9232C79.8614 28.9382 79.8483 28.9562 79.8394 28.9761C79.8305 28.9961 79.8259 29.0175 79.8259 29.0391V33.9938C79.8259 34.0991 79.8812 34.1533 79.9919 34.1565C81.5305 34.1848 82.8685 34.3545 84.2783 33.6733C84.3125 33.6566 84.3509 33.6491 84.3893 33.6517C84.4276 33.6543 84.4645 33.6669 84.4959 33.688C84.5273 33.7091 84.5521 33.738 84.5674 33.7716C84.5828 33.8051 84.5882 33.8421 84.583 33.8783L84.2411 36.483C84.2364 36.5177 84.221 36.5504 84.1968 36.5768C84.1725 36.6032 84.1406 36.6221 84.105 36.6312C84.0694 36.6403 84.0318 36.6392 83.9969 36.6279C83.962 36.6166 83.9315 36.5957 83.9091 36.5678C83.4582 36.0186 83.7382 35.3115 82.7223 35.2431C81.8006 35.1802 80.9095 35.1496 80.0489 35.1512C79.9897 35.1512 79.933 35.1735 79.8912 35.2133C79.8494 35.2531 79.8259 35.3071 79.8259 35.3633V40.3298C79.8259 40.407 79.8578 40.482 79.9151 40.5396C81.3621 42.001 84.1618 42.0906 84.9027 39.8749C84.9291 39.7947 84.9861 39.7554 85.0736 39.757C85.1628 39.757 85.2223 39.7892 85.252 39.8536C85.2718 39.8929 85.2718 39.9519 85.252 40.0304C85.0852 40.67 84.9852 41.2726 84.9522 41.8383C84.9433 41.9899 84.8738 42.1323 84.7581 42.2363C84.6423 42.3403 84.4892 42.3978 84.3303 42.397L76.6421 42.3593C76.6269 42.3593 76.6118 42.356 76.5981 42.3497C76.5843 42.3435 76.5723 42.3343 76.5628 42.323C76.5532 42.3117 76.5465 42.2985 76.5431 42.2844C76.5397 42.2702 76.5396 42.2556 76.543 42.2414C76.5562 42.1864 76.5991 42.1518 76.6718 42.1377C77.43 41.9868 77.8116 41.5241 77.8165 40.7494Z" fill="#F0F0F0"/>
<path d="M33.3991 36.588C33.3966 37.9242 32.7957 41.8684 34.9151 42.0025C35.0281 42.0105 35.1054 42.068 35.147 42.175C35.1572 42.2022 35.1599 42.2316 35.1548 42.2601C35.1497 42.2887 35.137 42.3155 35.1179 42.3379C35.0989 42.3603 35.074 42.3776 35.0459 42.3881C35.0178 42.3986 34.9873 42.4019 34.9575 42.3977C33.3384 42.1837 31.7211 42.2037 30.1054 42.4576C30.0629 42.4633 30.0196 42.4545 29.9832 42.4326C29.9468 42.4107 29.9197 42.3772 29.9065 42.3379C29.8934 42.2987 29.8952 42.2562 29.9115 42.2181C29.9278 42.1799 29.9576 42.1485 29.9956 42.1295C30.9631 41.6721 31.2972 40.98 31.2972 39.9095C31.2955 36.6287 31.2964 33.347 31.2997 30.0646C31.3022 29.0229 31.0254 28.3571 29.9657 28.0793C29.8926 28.0602 29.8394 28.033 29.8062 27.9979C29.7513 27.942 29.7264 27.8838 29.7313 27.8231C29.7339 27.7765 29.755 27.7326 29.7903 27.7005C29.8255 27.6684 29.8723 27.6506 29.9208 27.6507C32.9329 27.6387 40.4255 26.6161 39.9143 31.7338C39.7598 33.2856 38.7848 34.4494 37.6853 35.6037C37.6271 35.6628 37.6229 35.725 37.6728 35.7905C39.2112 37.8261 41.8991 42.0744 44.769 41.9618C44.8216 41.9595 44.8734 41.9755 44.9148 42.0068C44.9562 42.0381 44.9845 42.0827 44.9944 42.1324C45.0044 42.1821 44.9954 42.2336 44.9692 42.2775C44.9429 42.3214 44.901 42.3547 44.8512 42.3713C38.4532 44.6057 39.0766 36.097 33.5412 36.4443C33.4482 36.4491 33.4008 36.497 33.3991 36.588ZM37.6479 33.7023C38.3335 31.1877 36.8824 27.5429 33.5238 28.6445C33.4523 28.6684 33.4166 28.7171 33.4166 28.7906V35.017C33.4166 35.1192 33.4689 35.179 33.5737 35.1966C35.1021 35.448 37.1517 35.5103 37.6479 33.7023ZM17.0899 33.7573H25.2657C25.3089 33.7573 25.3305 33.7366 25.3305 33.6951L25.3056 28.9582C25.3039 28.8842 25.2737 28.8133 25.2208 28.7594C24.772 28.3116 23.9966 28.4002 23.7048 28.0434C23.6891 28.0239 23.6795 28.0005 23.6772 27.976C23.6749 27.9514 23.6799 27.9267 23.6917 27.9048C23.7035 27.883 23.7216 27.8647 23.7438 27.8524C23.766 27.84 23.7914 27.834 23.817 27.8351C25.4195 27.9117 27.0227 27.9149 28.6268 27.8446C28.6534 27.843 28.6758 27.851 28.6941 27.8686L28.8163 27.9883C28.8408 28.0124 28.857 28.0431 28.8629 28.0763C28.8687 28.1095 28.8639 28.1436 28.8489 28.1741C28.834 28.2046 28.8098 28.23 28.7794 28.2468C28.7491 28.2637 28.7141 28.2713 28.6791 28.2685C27.9012 28.2039 27.4324 28.5295 27.43 29.3198C27.43 32.9136 27.4316 36.5049 27.4349 40.0939C27.4374 41.1668 27.7666 41.8924 28.906 42.072C29.0224 42.0912 29.108 42.1359 29.1629 42.2061C29.1766 42.2238 29.1848 42.2448 29.1867 42.2668C29.1885 42.2888 29.1839 42.3109 29.1733 42.3307C29.1628 42.3506 29.1467 42.3673 29.1268 42.3791C29.1069 42.3909 29.084 42.3973 29.0606 42.3977L24.0315 42.3618C24.0129 42.3618 23.9952 42.3547 23.9821 42.3421C23.969 42.3295 23.9617 42.3125 23.9617 42.2947V42.1582C23.9617 42.08 24.0024 42.0345 24.0838 42.0217C25.1261 41.8541 25.3181 41.2051 25.3131 40.2472C25.3048 38.4687 25.3114 36.6901 25.333 34.9116C25.3347 34.8174 25.2865 34.7703 25.1884 34.7703H17.0874C17.0059 34.7703 16.9652 34.8102 16.9652 34.8901C16.9569 36.5456 16.9552 38.1996 16.9602 39.852C16.9652 41.0973 17.1996 41.969 18.6233 42.0624C18.7463 42.0704 18.8161 42.1175 18.8328 42.2037C18.8375 42.2269 18.837 42.2507 18.8312 42.2736C18.8254 42.2965 18.8145 42.3179 18.7993 42.3362C18.7841 42.3545 18.7649 42.3693 18.7431 42.3795C18.7213 42.3897 18.6974 42.3951 18.6732 42.3953C17.0375 42.424 15.3861 42.4256 13.7188 42.4001C13.644 42.3985 13.6016 42.3929 13.5917 42.3833C13.5591 42.3503 13.5375 42.3089 13.5295 42.2641C13.5215 42.2193 13.5275 42.1733 13.5467 42.1318C13.5659 42.0903 13.5975 42.0552 13.6374 42.0309C13.6774 42.0066 13.7239 41.9943 13.7712 41.9954C14.7212 42.0145 14.9057 41.4685 14.9057 40.6519C14.9023 36.9384 14.9023 33.2249 14.9057 29.5114C14.9057 28.6684 14.5441 28.2062 13.6689 28.1607C13.4844 28.1512 13.3963 28.0729 13.4047 27.9261C13.4062 27.9023 13.4127 27.8791 13.4238 27.8579C13.4349 27.8366 13.4503 27.8177 13.4691 27.8023C13.488 27.7869 13.5099 27.7753 13.5335 27.7681C13.5571 27.761 13.582 27.7585 13.6066 27.7608C15.1176 27.8965 16.6319 27.9069 18.1496 27.7919C18.2393 27.784 18.2925 27.8223 18.3091 27.9069L18.3341 28.0338C18.3557 28.1376 18.3108 28.1911 18.1994 28.1943C17.355 28.2246 16.9345 28.6597 16.9378 29.4994C16.9428 30.882 16.9536 32.263 16.9702 33.6424C16.9708 33.6731 16.9837 33.7023 17.0061 33.7238C17.0285 33.7453 17.0586 33.7573 17.0899 33.7573Z" fill="#F0F0F0"/>
</svg>
