<svg width="89" height="31" viewBox="0 0 89 31" fill="none" xmlns="http://www.w3.org/2000/svg">
<g clip-path="url(#clip0_1578_556)">
<path fill-rule="evenodd" clip-rule="evenodd" d="M41.7094 18.2737C41.8019 18.1028 41.6751 18.1815 41.8676 18.1257L41.949 18.4149L43.3686 21.8624C43.4656 22.0864 43.5236 22.2357 43.6051 22.4445C43.6305 22.5096 43.704 22.6798 43.7196 22.7431C43.7482 22.8596 43.7314 22.7871 43.7395 22.8999L43.73 23.006C43.3886 23.0909 39.8736 23.0965 39.5509 23.0015C39.445 22.7598 39.8596 22.0999 40.0173 21.7934C40.3286 21.1889 41.6383 18.5713 41.7094 18.2736V18.2737ZM26.8889 21.7371C26.8872 20.8566 26.8552 18.6341 27.0526 17.8068C27.1656 17.3329 27.4746 17.4541 27.9833 17.4549C29.7648 17.4576 31.1791 17.6875 31.1837 19.5549C31.1889 21.6601 29.8996 22.3313 28.1228 22.3903C26.7933 22.4345 26.8904 22.5406 26.8889 21.7371ZM49.0087 16.4008C49.1511 16.7017 49.4281 16.8555 49.6384 17.3624C50.4474 19.3122 49.994 28.2827 49.3492 29.1574C47.9447 28.1763 43.6144 16.6423 43.4057 16.3842L40.2692 16.394C40.2419 16.7228 40.4833 16.7931 40.4541 17.235C40.3522 18.782 35.9523 27.362 34.9239 28.032C34.3346 27.8587 32.9815 26.1281 32.541 25.6264C32.3011 25.3533 30.4936 23.3328 30.4351 23.0328C31.3607 22.27 32.5304 22.0402 33.4048 20.4206C33.7665 19.7506 33.8448 18.8303 33.5541 18.0636C32.547 15.9575 24.6822 16.3854 21.8595 16.3851L10.4282 16.4128C10.2786 16.6717 9.94238 18.2355 9.87053 18.626C10.3371 18.42 10.651 17.9648 11.5834 17.7752C12.2465 17.6404 13.3004 17.71 14.0345 17.7057C15.2135 17.6987 15.1386 17.3836 15.1629 20.1686L15.1291 27.1911C15.0632 29.3698 14.6561 29.1184 14.5538 29.7262L18.1462 29.7212C18.067 29.2906 17.7813 29.3633 17.6368 28.4105C17.4114 26.9238 17.3827 18.9503 17.6933 17.667L22.8803 17.6422C24.8438 17.6404 24.5061 17.3608 24.53 18.8048L24.5857 23.8512C24.5859 25.0812 24.6143 27.5302 24.3241 28.7026C24.2124 29.1538 23.8787 29.5942 23.8562 29.8346L27.6089 29.8178C27.5591 29.3914 27.0829 29.4557 26.9548 27.3293C26.8782 26.0605 26.8438 24.7501 26.9277 23.4719C27.8732 23.2656 28.9153 24.6129 29.2906 25.0637L31.1308 27.244C32.0836 28.4223 33.6064 30.4398 35.8766 30.4398C36.6697 30.4398 38.852 30.4367 39.1868 29.7414C38.3593 29.6627 37.7265 29.6672 36.9531 29.4558C36.8533 28.5914 37.6579 27.0851 37.9749 26.3564L38.6072 24.9517C38.9458 24.235 38.7763 24.1081 39.7551 24.109L43.0893 24.1082C44.4651 24.1092 44.2892 23.9307 44.8106 25.1902L46.7636 29.7772L52.2066 29.7689C52.1921 29.4986 51.9172 29.152 51.8144 28.882C51.2019 27.2724 51.3008 20.8882 51.4218 18.624C51.8087 18.7425 57.7904 26.3466 58.8689 27.6753C59.7406 28.7491 60.5897 30.1531 62.1786 29.7453C62.2065 27.8193 62.0078 18.3544 62.5036 17.0642C62.6351 16.7219 62.7851 16.6287 62.8977 16.3936L60.1944 16.3968C60.3119 16.7914 60.5281 16.921 60.6598 17.4971C60.9086 18.5856 61.0079 26.3474 60.8487 26.7741C60.6422 26.67 60.7997 26.7745 60.6346 26.5901C60.567 26.5146 60.5276 26.4596 60.4818 26.4013L54.6325 19.1018C52.7215 16.653 52.4968 16.2834 49.0089 16.4006L49.0087 16.4008ZM74.2387 28.4809C73.5666 28.8193 71.4145 28.6817 70.572 28.5146C69.4588 28.2939 68.4702 27.9157 67.6916 27.2899C65.9169 25.8634 65.4447 23.3519 66.0479 21.2146C66.6066 19.2344 68.2479 17.8942 70.4374 17.4316C74.2959 16.6163 76.3748 18.9301 76.6907 19.0044C76.7127 18.505 76.8024 16.7191 76.6365 16.4151C76.1259 16.1264 72.5118 16.1045 71.6913 16.1659C68.7831 16.3834 66.1735 17.1605 64.4392 19.4023C62.6409 21.7268 62.676 25.1201 64.3081 27.3397C66.0439 29.7004 69.3441 30.0064 72.213 29.8841C72.8129 29.8585 76.6964 29.6433 76.9412 29.4915C77.0854 29.366 76.9115 28.9356 76.8823 28.771C76.697 27.7298 76.6574 25.2799 76.8157 24.2765C76.95 23.4252 77.2426 23.259 77.3436 22.884C76.6927 22.8855 76.1648 22.8594 75.5486 22.8119C74.8575 22.7588 74.4505 22.8646 73.8091 22.8813C73.9461 23.337 74.1732 23.4083 74.3025 24.0777C74.4985 25.0928 74.4885 27.6529 74.2387 28.4808V28.4809ZM78.5763 16.3877C79.2412 17.0375 79.321 18.0852 79.381 19.2226C79.457 20.6624 79.5035 27.1527 79.2133 28.4232C79.066 29.0677 78.7725 29.2827 78.6447 29.7314C80.3721 29.7637 87.1388 29.9175 88.3033 29.4738L88.7851 27.005C88.22 27.1798 87.933 28.117 85.9683 28.4359C85.3245 28.5404 82.4866 28.8469 82.0149 28.5575C81.7011 28.2938 81.7556 26.3707 81.7519 26.0335C81.7474 25.6187 81.6163 23.6156 81.8453 23.4083C82.1122 23.1668 85.233 23.4648 86.7675 22.6848C87.0653 22.5333 87.616 22.143 87.7983 21.8736C87.7441 21.8493 87.7757 21.849 87.6513 21.8418L86.4332 22.0148C85.7297 22.0683 82.0099 22.2039 81.8059 22.011C81.6198 21.835 81.774 18.5372 81.8583 17.8516C81.8679 17.7737 81.8857 17.6368 81.9154 17.5657C82.0217 17.3118 81.9066 17.5031 82.0412 17.3903C82.3368 17.1838 84.9203 17.3475 85.4675 17.3848C87.051 17.4928 87.3549 18.5686 87.6249 18.7191L87.6235 16.2502C86.8412 16.1626 78.7856 16.2778 78.5763 16.3877H78.5763ZM7.50193 26.7157C7.47234 26.9209 7.39871 27.161 7.2989 27.3656C7.22044 27.5263 6.76281 28.0537 6.62893 28.1471C5.78779 28.7339 3.39152 29.1976 1.37804 27.7376L0.454599 26.8252C0.40964 26.7655 0.370301 26.7056 0.300515 26.6363C0.144794 26.4815 0.275261 26.5893 0.134124 26.5002L0.112427 29.0126C1.06581 29.4238 2.90501 29.7988 4.0292 29.8635C5.50822 29.9486 6.82555 29.6035 7.87085 28.9929C10.3012 27.5733 10.7018 24.9181 8.26929 23.1485C7.39053 22.5092 6.22508 22.0198 5.20133 21.4526C1.73024 19.5294 2.80015 17.2993 6.1395 17.2215C6.84462 17.2051 7.60053 17.3202 8.1724 17.5917C9.1058 18.035 9.08802 18.5065 9.39782 18.6481C9.50552 18.3765 9.85239 16.6481 9.86256 16.2505C8.09002 16.2279 5.16854 15.9424 3.65373 16.4439C2.20999 16.9218 0.417679 18.0978 0.948935 20.1825C1.33464 21.6959 2.96356 22.6167 4.39051 23.3507C5.75038 24.0501 7.84794 24.6572 7.50179 26.7157H7.50193ZM24.8916 11.5079C24.6219 13.2783 23.4436 14.1537 21.5219 14.2337C19.6228 14.3128 19.7446 13.9277 19.7025 13.0734L19.7097 8.55176C19.7327 8.06117 19.5967 7.50071 20.0875 7.4245C22.7583 7.00963 25.3936 8.21289 24.8917 11.5079H24.8916ZM17.6648 6.75802C17.8188 7.29324 18.0994 7.01497 18.1493 8.42834C18.1939 9.68871 18.2179 12.0396 18.1493 13.2808C18.1096 13.9998 17.607 14.7606 17.6176 14.938C18.8916 15.0101 21.7636 15.0806 22.9003 14.8563C24.4654 14.5475 25.5338 13.7361 26.1461 12.6615C27.3479 10.5527 26.687 6.60288 22.1998 6.60288C21.5694 6.60288 20.4778 6.52624 19.9236 6.63668C19.1416 6.79253 18.436 6.67126 17.6648 6.75795V6.75802ZM57.0456 7.46927C59.0894 7.04406 60.2863 8.3219 60.5985 10.1179C60.9454 12.114 60.1887 13.9203 58.4623 14.1686C54.1262 14.7922 53.5268 8.20141 57.0456 7.46927ZM56.9313 6.66149C54.1773 7.07265 52.76 9.06573 53.1528 11.6669C53.5186 14.0892 55.6679 15.4151 58.5289 14.9799C60.8125 14.6327 62.6828 12.7284 62.3131 9.95344C61.9695 7.37402 59.7838 6.23564 56.9313 6.66156L56.9313 6.66149ZM31.26 7.47169C33.3543 7.0154 34.4845 8.35192 34.8214 10.1092C35.7697 15.0554 29.716 15.6033 29.109 11.5137C28.7984 9.42093 29.534 7.84778 31.2599 7.47169H31.26ZM31.1446 6.66384C28.4006 7.09155 27.0053 9.01996 27.4003 11.6732C27.7647 14.1213 29.974 15.4552 32.8055 14.9732C35.0391 14.5931 36.9399 12.7083 36.5418 9.96976C36.1233 7.08983 33.6275 6.27692 31.1447 6.66384H31.1446ZM64.9138 7.45551C65.1385 7.27342 65.8563 7.37095 66.1541 7.42286C67.7341 7.6982 67.3854 9.45579 66.6936 10.0028C66.3936 10.2401 66.0912 10.2594 65.6195 10.3412C65.1278 10.4265 64.6929 10.6121 64.6817 10.0148C64.6741 9.60708 64.554 7.74718 64.9139 7.45558L64.9138 7.45551ZM62.6982 6.75004C62.7942 7.23948 63.0787 7.0524 63.1556 8.5047L63.1575 13.0791C63.1069 14.0724 63.0469 14.2194 62.6817 14.9203L65.1411 14.93C64.9473 14.2862 64.832 14.7528 64.7161 13.2336C64.5418 10.9474 64.6037 10.4338 66.1238 12.0863C66.5012 12.4965 66.8407 12.9549 67.2408 13.4218C68.3915 14.7648 68.2188 15.0227 70.71 14.9263C70.579 14.7247 69.8988 14.3097 69.6274 14.0304C69.156 13.5454 66.9636 11.1564 66.8075 10.717C68.5828 10.1106 69.6131 8.23164 68.2637 7.14623C67.318 6.38543 65.4459 6.59718 64.2308 6.70227C63.7216 6.74633 63.2076 6.71517 62.6982 6.75018V6.75004ZM57.4463 15.8443C40.7957 15.8515 24.2221 15.7912 7.61049 15.6245C7.76116 15.6935 39.588 15.4618 42.885 15.4655L69.422 15.5587L73.7893 15.595C74.6083 15.6215 77.6963 15.5193 78.1906 15.6569C71.2302 15.8244 64.4207 15.8413 57.4463 15.8443V15.8443ZM80.7852 15.8254C81.1539 15.8227 87.0496 15.8791 87.3985 15.6678L87.114 15.5913C86.3747 15.5125 85.554 15.5199 84.7998 15.5184L82.078 15.5026L65.9517 15.3983L44.4499 15.3505L22.8801 15.3903L2.73919 15.5343C2.46388 15.5346 1.72491 15.4042 1.5551 15.6678C1.81511 15.8417 3.53949 15.7708 3.82788 15.7725L6.07142 15.8089L10.6323 15.841L56.2215 15.9725L62.8208 15.9531L73.5771 15.8813L80.7852 15.8255V15.8254ZM40.5364 1.17947L41.1101 1.18396L41.11 3.80181L41.1356 3.9136L41.615 3.91331L41.6151 4.49145H40.5364L40.5364 1.17933V1.17947ZM39.8895 2.09698L39.9131 2.47513L40.424 2.49823L40.4653 3.12435L39.8941 3.12478L39.9108 3.84195L40.4127 3.88971C40.4971 4.1292 40.4654 4.15686 40.4654 4.49145H39.4829C39.1468 4.49145 39.4396 4.49509 39.3136 4.43991L39.316 3.87339C39.3195 3.44076 39.3702 2.06076 39.2788 1.85906C39.0923 2.26516 38.958 3.97584 38.8774 4.27543C38.7983 4.56924 38.815 4.49138 38.0935 4.49138C38.0803 4.22138 38.0011 3.83047 37.946 3.54721L37.785 2.64824L37.5652 3.0393C37.4088 3.27379 37.4159 3.14838 37.4914 3.47798L37.8035 4.48874L37.1585 4.49195C37.1447 4.31278 36.9793 3.6749 36.8973 3.46757C36.7123 3.659 36.801 4.20413 36.801 4.45965C36.3946 4.52339 36.0149 4.4943 35.5811 4.49145L35.5257 4.01598L35.0778 4.00814C35.078 4.45609 35.3107 4.57665 33.8556 4.4737L33.8379 3.28213C33.6007 3.73579 33.824 4.49145 33.4271 4.49145C33.0079 4.49145 33.2366 3.59947 33.0188 3.22459L32.9911 4.49145C32.6515 4.49145 32.348 4.60189 32.348 4.27913L32.367 1.19059L33.2084 1.20057C33.2083 1.45346 33.3241 2.47634 33.4205 2.61651C33.5358 2.42993 33.5584 1.98212 33.5985 1.71683C33.6124 1.62521 33.6527 1.29967 33.6797 1.24891C33.742 1.13149 33.7056 1.13748 34.2834 1.16564L34.4618 1.20079L34.5008 3.81813C34.6383 3.4064 34.7672 1.21968 34.9966 1.18246L35.7227 1.20564C35.8598 1.6384 35.9589 3.05512 36.1136 3.581L36.1523 3.69301C36.1524 3.09405 36.0364 1.63063 36.2028 1.18995L36.9683 1.1804C37.3062 1.21091 37.3922 1.31821 37.5318 1.52939L37.6292 1.16157L38.2119 1.17156C38.279 1.55905 38.3369 2.69358 38.4695 2.8997C38.6044 2.64981 38.6277 1.56753 38.7419 1.19081L40.4653 1.17961L40.462 1.75533C40.0314 1.75533 39.8896 1.6471 39.8896 2.09712L39.8895 2.09698ZM31.771 0.869475V4.82476C31.771 5.16349 31.8134 5.16869 32.1341 5.16869H41.7283C42.0319 5.16869 42.0493 5.11679 42.0493 4.82476V0.801244C42.0493 0.472499 41.9982 0.460022 41.6603 0.460022H32.1341C31.7934 0.460022 31.771 0.536166 31.771 0.869475ZM44.3307 7.21125L44.3303 6.80237C44.1605 6.69863 42.0071 6.59019 41.5232 6.6103C40.2764 6.6622 39.0141 7.11942 38.1847 7.88828C36.0632 9.85491 36.6526 14.6416 41.001 15.0442C42.9054 15.2205 44.6536 14.3737 44.9442 12.7867C44.6604 12.9226 44.4904 13.1824 44.1924 13.3649C42.2565 14.5499 38.8916 13.9169 38.6629 10.828C38.5359 9.11378 39.348 7.97333 40.6012 7.5703C41.7934 7.18694 43.2616 7.33474 43.953 8.46192C44.091 8.68693 44.0422 8.75652 44.2497 8.86717L44.3308 7.21118L44.3307 7.21125ZM45.1306 8.78083C45.4994 8.58199 45.6539 7.89648 46.0668 7.73799C46.3368 7.63432 47.6191 7.64929 47.9885 7.68316C48.0881 8.37387 48.172 13.2758 47.9692 14.2135C47.9005 14.5311 47.7365 14.6722 47.6368 14.9393L50.0971 14.9403C49.9888 14.6489 49.8568 14.63 49.7589 14.2923C49.5689 13.6372 49.5413 7.87901 49.7443 7.689C50.0295 7.54556 51.2289 7.62626 51.5811 7.69792C52.1525 7.8142 52.1873 8.46029 52.6365 8.74825L52.3773 6.73L45.4175 6.71867L45.1305 8.78083H45.1306Z" fill="#FEFEFE"/>
<path fill-rule="evenodd" clip-rule="evenodd" d="M78.1915 15.6567C77.6972 15.5191 74.6092 15.6214 73.7902 15.5949C72.3757 15.5492 70.8655 15.5687 69.4229 15.5586L42.8858 15.4653C39.5889 15.4616 7.762 15.6934 7.61133 15.6244L57.4472 15.8442L78.1915 15.6568V15.6567ZM47.4813 1.51518C48.2629 1.53272 48.0727 1.80322 48.0711 2.57407C48.0702 3.01817 48.1209 3.73591 47.9953 4.09482L47.4804 4.15485L47.4813 1.51518ZM47.0928 4.49543C48.6415 4.60223 48.459 4.20896 48.459 2.84685C48.4589 1.497 48.6576 1.06431 47.093 1.18501L47.0929 4.49543H47.0928ZM50.2414 4.14722C49.435 4.3333 49.6789 3.56473 49.6789 2.84685C49.6789 2.10944 49.4212 1.33509 50.2575 1.52552C50.3368 1.90282 50.3434 3.80471 50.2414 4.14715V4.14722ZM50.6505 4.21046L50.6552 1.48332C50.5173 1.27413 50.5283 1.20376 50.2237 1.14972C49.9673 1.10416 49.6627 1.11757 49.482 1.27313C49.1921 1.52274 49.293 2.32368 49.293 2.77869C49.293 3.95679 49.1044 4.60594 50.1018 4.52516C50.4923 4.49357 50.4811 4.40624 50.6504 4.21046H50.6505ZM46.7851 4.15135C46.839 3.65991 46.8171 1.53137 46.7873 1.19057L46.5299 1.18929C46.5262 1.66954 46.8124 4.18344 46.1517 4.19035C45.5588 4.19655 45.8977 1.70711 45.8505 1.17075L45.5086 1.16569C45.4218 1.83259 45.4847 2.95957 45.4845 3.66782C45.4844 4.09225 45.4822 4.40018 45.883 4.49928C46.2756 4.59631 46.7408 4.52352 46.7851 4.15128L46.7851 4.15135ZM42.9663 4.12989C42.8934 3.90274 42.9583 3.63439 42.8178 3.45508L42.6137 3.45672C42.3353 3.89811 42.5871 4.50805 43.156 4.52765C43.8932 4.55303 43.9158 4.13873 43.877 3.45629C43.84 2.80293 43.4789 2.80785 43.1121 2.48445C42.8887 2.28753 42.6325 1.31805 43.4541 1.52816C43.5651 2.01789 43.3071 2.02873 43.8498 2.03593C43.9119 1.3634 43.7389 1.04321 43.0283 1.14537C42.5228 1.21809 42.4399 1.79894 42.5644 2.35391C42.6759 2.85127 43.2095 2.89569 43.4135 3.20176C43.5529 3.4108 43.72 4.40438 42.9662 4.12975L42.9663 4.12989ZM51.4969 3.01354C51.7947 3.22515 51.8387 3.27113 51.8079 3.80664C51.7831 4.23691 51.5597 4.29002 51.2542 4.08348C51.1671 3.98637 51.1766 3.92998 51.1709 3.87116C51.1486 3.64216 51.0809 3.54298 51.0123 3.53086C50.9242 3.51532 50.8444 3.67738 50.9623 4.25345C51.1101 4.6013 51.7657 4.62519 52.0337 4.37102C52.2446 4.17103 52.2489 3.39412 52.1367 3.11842C51.9 2.53664 51.1346 2.75973 51.2239 1.81841C51.2663 1.37188 51.6845 1.41722 51.7387 1.57935C51.7576 1.63596 51.7554 1.82746 51.8035 1.91637C51.9112 2.11507 52.0975 2.17973 52.1059 1.76344C52.1154 1.27613 51.9913 1.11308 51.4597 1.13496C50.4955 1.17467 50.6507 2.4123 51.4969 3.01347V3.01354ZM42.5415 0.596465C42.5914 0.699345 42.5259 0.735563 43.0168 0.729574L51.051 0.724655L51.6674 0.727792C51.9511 0.731784 52.1056 0.802011 52.1862 0.596465C51.9618 0.490234 42.8051 0.484958 42.5415 0.596465H42.5415ZM44.456 1.53957L44.4634 4.50534L44.8119 4.51111L44.8458 1.52253L45.3237 1.50841L45.3292 1.1632L43.959 1.16583C43.9272 1.63125 44.066 1.50228 44.456 1.53957ZM42.5298 5.08754C42.6386 5.21559 42.5934 5.17844 43.0898 5.17302L51.6639 5.17331C51.9836 5.17687 52.0694 5.24674 52.2574 5.02908C52.083 4.8276 52.1188 4.88378 51.8017 4.8852L42.7498 4.88855C42.3538 4.89212 42.6511 4.88599 42.5305 4.97012L52.0091 4.96035C52.2103 5.00826 52.0872 4.94031 52.1635 5.09695L42.5297 5.08754H42.5298Z" fill="#FEFEFE"/>
<path fill-rule="evenodd" clip-rule="evenodd" d="M42.5306 5.08736L52.1644 5.09677C52.088 4.94006 52.2112 5.00808 52.01 4.96017L42.5314 4.96993L42.5307 5.08736H42.5306ZM48.7506 4.42994L49.0261 4.41518L49.0213 1.22212L48.7431 1.22226L48.7506 4.42994ZM36.8037 2.8076C37.2526 2.58544 37.347 1.98413 36.8037 1.78258L36.8037 2.8076ZM35.1459 3.39137L35.4903 3.41982L35.3506 2.27302C35.1862 2.53518 35.2519 3.09093 35.1459 3.3913L35.1459 3.39137ZM41.711 18.2733L41.9508 18.4145L41.8694 18.1253C41.6768 18.181 41.8037 18.1024 41.7111 18.2733H41.711Z" fill="#FEFEFE"/>
</g>
<defs>
<clipPath id="clip0_1578_556">
<rect width="88.6729" height="29.9799" fill="white" transform="translate(0.113525 0.460022)"/>
</clipPath>
</defs>
</svg>
