<svg width="48" height="57" viewBox="0 0 48 57" fill="none" xmlns="http://www.w3.org/2000/svg">
<path d="M43.6647 49.7115C41.2729 53.2193 38.7371 56.6421 34.8756 56.6987C31.0143 56.7835 29.7751 54.4638 25.3951 54.4638C20.9862 54.4638 19.6318 56.6421 15.972 56.7835C12.197 56.9249 9.3442 53.0496 6.92362 49.6266C1.99608 42.6396 -1.77887 29.7686 3.29282 21.1126C5.79985 16.8129 10.2951 14.0973 15.1652 14.0124C18.8538 13.9558 22.3694 16.4735 24.6459 16.4735C26.8935 16.4735 31.1583 13.4466 35.6249 13.8992C37.498 13.984 42.7425 14.6347 46.114 19.5002C45.8547 19.6699 39.8609 23.121 39.9186 30.2778C40.0051 38.8208 47.5549 41.6779 47.6413 41.7061C47.5549 41.9041 46.4311 45.7795 43.6647 49.7115ZM27.2106 4.45111C29.3141 2.10322 32.8008 0.321093 35.6826 0.207947C36.0572 3.51762 34.7027 6.85557 32.6856 9.23174C30.6973 11.6363 27.4122 13.5033 24.1849 13.2487C23.7526 9.99551 25.3662 6.60098 27.2106 4.45111Z" fill="white"/>
</svg>
