<svg width="81" height="33" viewBox="0 0 81 33" fill="none" xmlns="http://www.w3.org/2000/svg">
<g clip-path="url(#clip0_1578_623)">
<path d="M63.4832 0.042366H64.1089C72.938 0.266308 79.9732 7.27574 80.175 16.1543V16.7708C79.9641 25.6139 72.9265 32.6584 64.0843 32.8581H63.4983C56.8636 32.7077 51.0142 28.6513 48.5576 22.4744C48.5525 22.4617 48.5553 22.4509 48.5545 22.4366C48.5539 22.43 48.5504 22.4266 48.5437 22.4266H48.5338C48.5293 22.4266 48.5272 22.4288 48.5275 22.433C48.6768 25.5165 47.9268 28.7786 45.367 30.761C43.8706 31.9201 41.9161 32.479 40.0412 32.4794C35.3513 32.4804 30.662 32.4806 25.9732 32.4798C25.9674 32.4798 25.9619 32.4775 25.9578 32.4735C25.9537 32.4695 25.9514 32.464 25.9514 32.4583V0.419448C25.9514 0.414329 25.9524 0.40926 25.9543 0.404531C25.9563 0.399801 25.9591 0.395504 25.9628 0.391884C25.9664 0.388265 25.9707 0.385393 25.9754 0.383434C25.9801 0.381475 25.9852 0.380467 25.9903 0.380467C30.3491 0.380732 34.7124 0.3806 39.0802 0.380069C39.4208 0.380069 39.6854 0.384975 39.8739 0.394787C42.058 0.510139 44.3624 1.21578 46.0971 2.56022C48.3475 4.30443 49.1352 6.85252 48.8778 9.62654C48.877 9.63529 48.881 9.6394 48.8897 9.63887C48.894 9.6386 48.8981 9.63847 48.9021 9.63847C48.9087 9.63847 48.912 9.63516 48.912 9.62853V9.61102C48.912 9.6036 48.9136 9.59657 48.9168 9.58994C51.6001 3.84819 57.1425 0.205052 63.4832 0.042366ZM33.8664 8.21646L33.866 13.0334C33.866 13.0365 33.8666 13.0396 33.8679 13.0425C33.8691 13.0454 33.8709 13.0481 33.8731 13.0503C33.8754 13.0525 33.878 13.0543 33.881 13.0555C33.8839 13.0567 33.8871 13.0573 33.8903 13.0573C35.4016 13.0623 36.917 13.0614 38.4363 13.0545C38.5674 13.0537 38.6833 13.0382 38.7839 13.0079C40.1413 12.5994 40.606 11.2729 40.4102 9.97936C40.2771 9.0999 39.777 8.42409 38.8689 8.24947C38.714 8.21951 38.4502 8.20479 38.0776 8.20532C36.6748 8.20718 35.2745 8.20744 33.8767 8.20612C33.874 8.20612 33.8714 8.2072 33.8694 8.20914C33.8675 8.21108 33.8664 8.21371 33.8664 8.21646ZM71.8929 16.4498C71.8929 15.3851 71.6834 14.3308 71.2765 13.3471C70.8696 12.3635 70.2732 11.4697 69.5213 10.7168C68.7694 9.96396 67.8768 9.36676 66.8945 8.95931C65.9121 8.55186 64.8592 8.34215 63.7959 8.34215C61.6484 8.34215 59.5889 9.19635 58.0704 10.7168C56.552 12.2373 55.6989 14.2995 55.6989 16.4498C55.6989 18.6001 56.552 20.6623 58.0704 22.1828C59.5889 23.7033 61.6484 24.5575 63.7959 24.5575C64.8592 24.5575 65.9121 24.3478 66.8945 23.9403C67.8768 23.5329 68.7694 22.9357 69.5213 22.1828C70.2732 21.4299 70.8696 20.5362 71.2765 19.5525C71.6834 18.5688 71.8929 17.5145 71.8929 16.4498ZM43.9794 16.2366C43.9995 16.2509 44.0162 16.2605 44.0295 16.2653C44.3579 16.3854 44.6815 16.517 45.0003 16.6602C46.0822 17.146 46.9393 17.9022 47.5717 18.9287C47.5998 18.9743 47.6098 18.9706 47.6019 18.9176C47.3574 17.266 47.3581 15.6146 47.6039 13.9634C47.604 13.9614 47.6035 13.9595 47.6025 13.9578C47.6014 13.9561 47.5999 13.9549 47.5981 13.9542C47.5963 13.9534 47.5942 13.9533 47.5924 13.9538C47.5905 13.9544 47.5888 13.9555 47.5876 13.957C46.8686 15.0063 45.889 15.6953 44.6488 16.0238C44.5495 16.0501 44.0104 16.159 43.9751 16.2088C43.9735 16.2108 43.9723 16.2132 43.9717 16.2157C43.9711 16.2183 43.971 16.2209 43.9714 16.2235C43.9718 16.2261 43.9727 16.2286 43.9741 16.2308C43.9755 16.2331 43.9773 16.2351 43.9794 16.2366ZM40.3717 21.5715C40.2048 20.764 39.5859 20.1741 38.7807 20.0544C38.6803 20.0395 38.416 20.0318 37.9878 20.0313C36.6181 20.0294 35.255 20.0292 33.8986 20.0305C33.8899 20.0306 33.8816 20.0341 33.8755 20.0402C33.8694 20.0463 33.866 20.0545 33.866 20.0631L33.8664 24.9075C33.8664 24.9124 33.8674 24.9172 33.8694 24.9216C33.8714 24.926 33.8743 24.9299 33.8779 24.933C33.8904 24.9436 33.9024 24.9458 33.9141 24.9397C33.9231 24.9352 33.9326 24.933 33.9427 24.933C35.4406 24.9322 36.9387 24.9322 38.4371 24.933C38.5684 24.9332 38.6844 24.9185 38.7851 24.8888C40.2449 24.4604 40.6466 22.9036 40.3717 21.5715ZM0.72644 32.4702V0.397969L0.743919 0.386831C0.75054 0.382589 0.75769 0.380467 0.76537 0.380467H9.55516C9.56043 0.380467 9.56548 0.382562 9.56921 0.386292C9.57293 0.390022 9.57502 0.395081 9.57502 0.400355V12.4726C9.57502 12.4778 9.57712 12.4829 9.58084 12.4866C9.58457 12.4903 9.58962 12.4924 9.59488 12.4924H15.2059C15.2112 12.4924 15.2163 12.4903 15.22 12.4866C15.2237 12.4829 15.2258 12.4778 15.2258 12.4726V0.400355C15.2258 0.395081 15.2279 0.390022 15.2316 0.386292C15.2353 0.382562 15.2404 0.380467 15.2457 0.380467H24.0545C24.0598 0.380467 24.0648 0.382562 24.0686 0.386292C24.0723 0.390022 24.0744 0.395081 24.0744 0.400355V32.4603C24.0744 32.4656 24.0723 32.4706 24.0686 32.4744C24.0648 32.4781 24.0598 32.4802 24.0545 32.4802H15.2457C15.2324 32.4802 15.2258 32.4736 15.2258 32.4603V20.6168C15.2258 20.6115 15.2237 20.6065 15.22 20.6027C15.2163 20.599 15.2112 20.5969 15.2059 20.5969H9.60482C9.59691 20.5969 9.58934 20.6001 9.58375 20.6057C9.57816 20.6113 9.57502 20.6188 9.57502 20.6268V32.4607C9.57502 32.4653 9.57318 32.4698 9.5699 32.4731C9.56663 32.4763 9.56218 32.4782 9.55754 32.4782L0.72644 32.4702Z" fill="#E5E5E5"/>
<path d="M63.601 23.3309C67.2333 23.3309 70.1778 20.3688 70.1778 16.7148C70.1778 13.0609 67.2333 10.0987 63.601 10.0987C59.9687 10.0987 57.0241 13.0609 57.0241 16.7148C57.0241 20.3688 59.9687 23.3309 63.601 23.3309Z" fill="#E5E5E5"/>
</g>
<defs>
<clipPath id="clip0_1578_623">
<rect width="79.4485" height="32.8157" fill="white" transform="translate(0.725708 0.0421448)"/>
</clipPath>
</defs>
</svg>
