<svg width="138" height="36" viewBox="0 0 138 36" fill="none" xmlns="http://www.w3.org/2000/svg">
<g clip-path="url(#clip0_1578_627)">
<path fill-rule="evenodd" clip-rule="evenodd" d="M54.6191 32.0266C54.3776 32.4774 54.0808 33.0214 53.8864 33.5003L55.4893 33.4563C55.2664 32.9846 55.0368 32.3585 54.6191 32.0266L54.6191 32.0266ZM67.0587 35.1499C67.1071 34.5874 67.0924 34.1404 67.0844 33.5802L67.1256 32.7234L68.8013 35.1323C70.6249 35.2082 70.0379 34.1974 71.2467 32.6223C71.4108 32.4086 71.3753 32.4596 71.54 32.3188L71.5549 35.1246L72.8095 35.1486L72.805 30.8969L70.7667 30.9306L69.3553 33.4738C69.2205 33.3498 69.2544 33.3983 69.0821 33.1708C67.5852 31.1939 69.0598 30.8428 65.8056 30.9157L65.8276 35.146L67.0587 35.1499V35.1499ZM119.595 32.1853C120.496 32.9908 121.242 34.2791 122.034 35.1477L124.091 35.1568L124.102 30.9032L122.774 30.9128L122.72 33.8664C119.718 30.8045 121.562 30.8882 118.261 30.9091L118.302 35.1496L119.57 35.1356L119.595 32.1853ZM133.665 32.0262C133.893 31.7537 135.23 31.7354 135.72 31.8425C136.624 32.04 135.839 31.9656 136.502 32.1645C136.934 32.2943 137.119 32.2511 137.58 32.251C137.481 30.7842 136.835 30.8453 135.395 30.8476C134.349 30.8493 133.404 30.8166 132.513 31.2388C131.642 34.8981 134.935 32.7592 136.381 33.7614C136.168 34.4112 135.191 34.3632 134.329 34.2458C133.25 34.0989 134.119 34.1368 133.51 33.8837C133.078 33.7042 132.865 33.7629 132.351 33.7558C132.373 35.0979 132.74 35.2065 134.145 35.2065C135.74 35.2065 138.683 35.4308 137.641 33.1267C137.071 31.8677 134.127 33.2101 133.665 32.0262ZM25.8488 33.9794C25.4875 32.5339 25.509 31.9514 27.1022 31.9299C27.2624 31.9278 27.8536 31.9475 27.9933 31.9783C29.0865 32.2197 28.2113 32.5317 29.8528 32.4378C30.0963 30.4247 27.8383 30.8572 26.2212 30.8591C24.3365 30.9149 24.182 31.8509 24.3827 33.7768C24.5619 35.4961 26.0572 35.2041 27.6412 35.2083C29.3179 35.2125 29.9439 35.2349 29.9551 33.5272C27.9718 33.5053 28.4691 34.6653 25.8488 33.9794ZM43.583 31.0409L42.3302 30.9836C42.3335 31.1937 42.3699 31.6584 42.352 31.8354C42.2766 32.5789 42.3308 32.113 42.1483 32.3971L39.5074 32.4265L39.5221 30.9144L38.2042 30.9054L38.2438 35.1616L39.5096 35.1393L39.5117 33.5467L42.2705 33.5511L42.2785 35.1189L43.5912 35.1337L43.583 31.0409L43.583 31.0409Z" fill="#FEFEFE"/>
<path fill-rule="evenodd" clip-rule="evenodd" d="M54.6181 32.026C55.0358 32.3579 55.2654 32.984 55.4883 33.4557L53.8854 33.4997C54.0799 33.0208 54.3767 32.4768 54.6181 32.026L54.6181 32.026ZM51.5798 35.1548C54.3245 35.112 52.4243 34.564 53.7337 34.3975C54.2349 34.3338 55.6533 34.317 56.0644 34.6019C56.5352 34.9282 55.9634 34.937 56.7689 35.1298C56.9711 35.1781 57.5894 35.156 57.8341 35.1599C57.6067 34.5027 55.8651 31.2592 55.3313 30.9032L54.6213 30.9026C53.6519 30.8991 53.7409 31.0142 53.2856 31.9126C52.8333 32.8052 51.8458 34.3384 51.5798 35.1549V35.1548ZM70.7783 6.59754C72.08 7.02544 73.2238 10.7484 73.875 12.2677C75.5699 16.2222 75.2112 16.0061 70.7743 16.0067C65.9707 16.0074 66.1617 16.3812 67.7665 12.3599C68.4483 10.6513 69.6833 7.5228 70.7783 6.59755V6.59754ZM59.9074 24.4961L64.0491 24.3172C63.742 24.0318 63.4165 23.7904 63.3153 23.3682C63.0825 22.3974 64.3856 19.5977 64.7941 18.7207C65.9601 16.2175 67.9197 16.6629 70.9519 16.6629C76.108 16.6629 76.2166 16.6856 78.2567 21.6241C78.8949 23.1689 79.2556 23.4634 77.8507 24.4802L84.333 24.511C83.6028 23.6647 83.1703 23.7079 82.1847 22.1331C81.1492 20.4786 75.9278 8.87648 74.8948 6.51903C73.9905 4.45538 73.1783 2.10414 72.1449 0.120545C71.7312 0.773232 71.1394 2.47875 70.8439 3.2927C69.463 7.09669 64.1565 18.9353 62.0884 22.0123C61.4133 23.0167 60.7052 23.7331 59.9074 24.4961H59.9074ZM108.409 32.1642C108.845 32.7412 108.835 33.5413 108.383 33.9238C107.976 34.1761 107.237 34.1461 106.615 34.1257C105.718 34.0962 105.469 34.0136 105.464 33.0594C105.458 32.1654 105.588 32.0154 106.433 31.9399C107.074 31.8826 107.958 31.8961 108.409 32.1642L108.409 32.1642ZM104.171 34.1118C104.42 35.507 106.672 35.2793 108.238 35.2018C110.248 35.1023 110.304 33.7014 109.996 32.0143C109.721 30.5114 107.399 30.787 105.909 30.8667C103.951 30.9717 103.845 32.2813 104.171 34.1118V34.1118ZM82.464 31.9575C83.1945 31.9575 84.9648 31.6392 84.9347 32.5241C84.9072 33.3328 83.213 33.0237 82.4831 33.0243L82.464 31.9575ZM82.6673 34.0827C84.5066 34.0827 87.1701 34.4975 86.1927 31.6986C85.7747 30.5018 82.446 30.7238 81.1467 30.9947L81.1409 35.1222L82.3123 35.1439C82.5672 34.7018 82.354 34.9851 82.4665 34.6317L82.6673 34.0827H82.6673ZM7.16559 0.941612C6.49335 1.07779 4.92579 2.44547 4.20676 3.21707C1.36823 6.26319 0.166359 10.8105 1.41261 15.1158C2.77574 19.8248 7.16167 23.8927 12.9104 24.4653C13.0643 28.458 13.307 29.4096 13.9308 33.1009C14.0557 33.8399 14.1897 35.2216 14.5418 35.7651C14.7732 33.9192 15.1361 32.1262 15.4408 30.2875C16.1261 26.1521 15.7362 27.9351 15.9804 24.5077C19.0926 23.9665 21.5102 23.0473 23.372 21.2918C24.3527 20.3671 25.0583 19.787 25.8769 18.5015C28.3537 14.6116 28.6595 9.99185 26.6731 6.10322C25.7606 4.31686 22.8652 0.970515 21.4835 0.815525L22.0388 1.38174C27.7325 6.77512 27.4019 14.1769 22.1434 18.5016C20.6571 19.724 18.4916 21.0985 15.9354 21.1764L16.0548 16.3118C17.5529 15.4229 17.5455 16.3221 17.8064 15.5061C17.4794 15.3002 11.9005 15.0929 11.0697 15.5061C11.3025 15.9445 11.0313 15.624 11.5067 15.8366C13.1251 16.5603 12.9446 15.1389 12.9308 21.2164C5.57589 20.4416 0.664051 12.8169 3.53111 5.88902C4.25482 4.14022 5.33593 2.67274 6.68935 1.45956L7.1656 0.941604L7.16559 0.941612ZM33.4822 0.0234259C34.4651 0.911013 35.0079 1.05953 35.0097 2.86829L35.0121 15.8572C35.012 19.8293 37.8902 22.9744 40.9393 23.947C42.8697 24.5627 45.2117 24.6451 47.3399 24.4203C49.6751 24.1737 50.7709 23.6931 52.3331 22.5483C55.7688 20.0307 55.6925 17.4375 55.6926 12.1711C55.6926 9.8893 55.6933 7.60747 55.6927 5.32565C55.6918 2.25604 55.2095 1.54872 57.2881 0.0170045L50.3565 0.0303358C51.3015 0.826866 51.9189 0.582069 52.0263 2.50656L52.0296 14.6285C52.0294 17.3511 52.4063 19.7945 51.0061 21.7595C49.9333 23.2651 47.7861 23.9435 45.2081 23.9084C37.6625 23.8057 38.6784 18.603 38.6783 14.453L38.6892 2.34823C38.7309 1.83033 38.8836 1.31143 39.1796 0.940254C39.5098 0.526043 39.9307 0.412203 40.3406 0.00281124L33.4822 0.0234115L33.4822 0.0234259ZM93.9753 2.86829C93.9755 1.38518 94.2499 1.00764 95.35 0.0033284L89.1414 -0.00314331C89.6629 0.638799 89.8949 0.554667 90.2147 1.37259C90.6725 2.54343 90.4376 13.8244 90.4372 15.5061C90.4367 17.3584 90.6766 22.3468 90.1375 23.4239C89.844 24.0104 89.5722 24.0185 89.0555 24.4986L95.287 24.493C94.7522 23.9406 94.2606 23.8836 94.0504 22.8433L94.0145 14.9782C94.4398 11.3134 98.084 12.206 101.174 13.1775C103.103 13.7843 104.923 14.8375 106.443 16.0414C109.855 18.7428 110.185 21.3582 111.372 24.2425C112.256 19.2157 109.431 14.1928 105.308 11.8954C105.043 11.7479 104.71 11.6034 104.361 11.4339C104.225 11.3677 104.014 11.2595 103.899 11.1861C103.678 11.0441 103.722 11.0728 103.592 10.9425L109.331 2.90699C109.844 2.18753 110.785 0.907623 111.058 0.268661L103.08 7.9563C99.3305 12.0359 93.9752 13.5125 93.9755 8.83617L93.9753 2.86827V2.86829ZM117.631 0.0456639C118.538 0.696764 119.148 1.34403 119.147 2.86829L119.144 15.8572C119.144 18.5439 119.575 19.6839 120.94 21.1922C122.064 22.434 123.098 23.4165 125.142 24.0502C130.762 25.7918 134.919 22.5657 137.717 24.3558L137.702 16.7128C136.941 17.5744 136.519 19.1872 134.8 21.0622C131.434 24.7336 122.689 26.2219 122.686 17.2614C122.685 12.9034 122.802 12.951 127.155 12.2773C123.682 11.8991 122.684 12.5738 122.686 8.66065C122.688 2.08812 121.792 0.685724 127.221 0.677866C130.631 0.679008 132.209 0.318582 134.61 2.05599C137.134 3.88266 137.03 5.74953 137.712 7.57873L137.702 0.0110499L117.631 0.0456782V0.0456639ZM94.5394 35.1546L95.8301 35.1522L95.825 30.9018L94.505 30.9151L94.5394 35.1546ZM42.1473 32.3966C42.3298 32.1124 42.2756 32.5783 42.351 31.8348C42.3689 31.6578 42.3325 31.1931 42.3292 30.9831L43.582 31.0403C43.3162 30.7584 43.9171 30.8462 42.9149 30.8065C42.6418 30.7956 42.5317 30.8446 42.3023 30.8822C42.019 31.4436 42.1287 31.7049 42.1473 32.3966Z" fill="#FEFEFE"/>
<path fill-rule="evenodd" clip-rule="evenodd" d="M21.4841 0.815875C21.2959 0.255781 21.5288 0.542619 20.9829 0.283693C20.8053 0.19946 20.4584 0.134922 20.2363 0.103577C20.8466 0.498983 20.6684 0.757859 21.4841 0.815875ZM7.16626 0.941955C7.91276 0.765322 7.8642 0.663377 8.34373 0.221202C8.05582 0.31529 7.93244 0.335488 7.66259 0.481773C7.05008 0.813792 7.3863 0.591283 7.16626 0.941962V0.941955Z" fill="#FEFEFE"/>
</g>
<defs>
<clipPath id="clip0_1578_627">
<rect width="136.936" height="35.7683" fill="white" transform="translate(0.92395 -0.00306702)"/>
</clipPath>
</defs>
</svg>
