<svg width="164" height="28" viewBox="0 0 164 28" fill="none" xmlns="http://www.w3.org/2000/svg">
<path fill-rule="evenodd" clip-rule="evenodd" d="M144.079 14.9537H147.758V6.42768C147.783 6.45636 147.824 6.46082 147.834 6.51266C147.843 6.5645 147.894 6.58043 147.907 6.60019L152.078 14.9534H155.597L159.852 6.23435L159.917 14.9534H163.436V0.314751H159.437L155.214 8.61616C154.671 9.50422 154.128 10.9215 153.677 11.2538C153.529 10.6149 151.471 6.65904 151.012 5.73019C150.743 5.18737 150.576 4.93647 150.32 4.4952C150.07 4.06562 149.872 3.60311 149.624 3.10363C149.138 2.12613 148.721 1.23255 148.238 0.314751H144.078V14.9534L144.079 14.9537ZM117.362 14.9537H121.042V3.04967H129.201V7.23224H122.641V9.16259C123.249 9.57178 123.703 10.0776 124.282 10.5695L127.73 13.5368C128.164 13.878 128.19 13.8748 128.598 14.2734C128.901 14.5695 129.194 14.7338 129.521 14.9539H134L131.761 13.0233C131.436 12.7847 131.285 12.6186 130.961 12.38L127.921 9.80612C130.526 9.80612 132.881 10.2727 132.881 8.51929V1.60201C132.881 0.82379 132.374 0.315176 131.601 0.315176H117.363V14.9539L117.362 14.9537ZM37.3719 1.92366V13.3452C37.3719 14.342 37.6403 14.3958 38.0119 14.9539H52.5702C54.3203 14.9539 53.85 12.0484 53.85 9.80612C53.85 8.98923 52.3805 9.32363 50.1705 9.32363V12.2192H41.0514V3.04988H50.1705V5.78458H53.85C53.85 3.39533 54.3492 0.315176 52.5702 0.315176H38.6519C37.6984 0.315176 37.3719 0.964434 37.3719 1.92387V1.92366ZM89.8456 1.60179V13.6668C89.8456 14.3977 90.1872 14.5058 90.4855 14.9537H105.524C105.949 14.4758 106.139 14.389 106.164 13.9885V9.32342C101.701 9.32342 102.484 8.6049 102.484 12.219H93.5253V3.04967H102.484V5.78437H106.164V0.958485C105.688 0.530816 105.602 0.340033 105.204 0.314963H90.4855C90.1874 0.762815 89.8456 0.870954 89.8456 1.60179ZM4.25593 3.04967H12.2549V7.5539H4.25593V3.04967ZM0.576416 14.9537H4.25593V10.2886H15.2947C15.593 9.84075 15.9346 9.73261 15.9346 9.00177V1.60201C15.9346 0.871167 15.593 0.763028 15.2947 0.315176H0.576416V14.9539V14.9537ZM25.6934 3.69319L28.733 9.64529H22.9736L24.9975 5.24559C25.2753 4.67897 25.5502 4.31143 25.6934 3.69319ZM16.5744 14.9539H20.4139L21.6966 12.3815L30.1726 12.38C30.2301 13.0745 30.9874 14.3739 31.2924 14.9539H35.1319C32.6859 10.3056 30.3041 5.12555 27.7729 0.315176H23.9334C22.678 2.70103 21.5351 5.14064 20.3078 7.60828L16.5744 14.9541V14.9539ZM65.2086 14.9537H68.8881V9.00177H77.5269V6.26706H68.8881V3.21049H79.6067V0.314963H65.2086V14.9537ZM82.3264 14.9537H86.0059V0.314963H82.3264V14.9537ZM57.6894 14.9537H61.3689V0.314963H57.6894V14.9537ZM136.56 14.9537H140.239V0.314963H136.56V14.9537ZM130 21.2274C130 22.6823 129.706 25.8517 130.32 27.0187H137.2C138.023 27.0187 137.68 25.4304 137.68 23.158H133.84C133.235 23.158 133.36 23.5332 133.36 24.4448H135.92V25.7316H131.76V21.5491H135.92V22.5142H137.68V20.4231C136.499 19.8535 132.927 20.1014 131.121 20.1014C130.374 20.1014 130.001 20.4766 130.001 21.2274H130ZM86.1658 20.5841V22.9972C86.8022 23.3356 90.8004 24.7486 91.6051 24.7667V25.7319H87.9256V24.6058H86.1658C86.1658 27.7149 85.2191 27.0189 92.8851 27.0189C93.6499 27.0189 93.3649 25.5347 93.3649 23.9625C92.4433 23.7467 91.3353 23.3107 90.4653 23.0175C89.925 22.8355 89.5878 22.7503 88.9846 22.5761C88.0784 22.3143 87.9468 22.4932 87.9258 21.5495H91.6053C91.6053 22.6823 91.4659 22.5147 93.3651 22.5147V20.4235C92.19 19.7982 88.7687 20.1018 87.2859 20.1018C86.6985 20.1018 86.5126 20.351 86.1661 20.5843L86.1658 20.5841ZM113.363 27.0187H115.122L115.341 22.7768C115.476 22.9383 115.428 22.8928 115.562 23.0382C115.77 23.2655 115.902 23.3802 116.122 23.6005L119.122 27.0189H121.042V20.5843C121.042 19.9276 120.54 20.1018 119.282 20.1018V24.6061L115.123 20.2622C115.104 20.2412 115.06 20.1972 115.044 20.1804C114.871 19.996 113.638 20.1018 113.363 20.1018V27.0191V27.0187ZM59.1293 27.0187H60.8891V21.5493H64.5686V23.4796H61.5291C61.5291 24.5287 61.8851 24.7093 63.4184 25.9233C63.6679 26.1209 63.6104 26.0199 63.8879 26.2556C65.0301 27.2254 64.0267 27.0189 66.8082 27.0189C66.5481 26.6284 66.5409 26.6429 66.1687 26.375L64.0886 24.6058C66.7801 24.6058 66.3284 25.4142 66.3284 20.4233C66.014 20.2561 65.8566 20.1016 65.3685 20.1016H59.1293V27.0189V27.0187ZM44.731 21.5493H48.4105V23.6405H44.731V21.5493ZM42.9712 20.5841V27.0187H44.731V24.9275H49.5303C50.5679 24.9275 50.1702 22.6024 50.1702 20.4233C48.9693 19.7842 45.0041 20.1016 43.451 20.1016C43.0823 20.1016 42.9712 20.2136 42.9712 20.5841ZM26.3332 26.5362C26.3332 26.9069 26.4445 27.0187 26.813 27.0187H33.6922C34.3212 25.8236 34.0121 22.1106 34.0121 20.5841C34.0121 19.9274 33.5105 20.1016 32.2523 20.1016V25.2494C32.2523 26.0992 30.4408 25.7319 28.0928 25.7319V20.5841C28.0928 19.9274 27.5912 20.1016 26.333 20.1016V26.5362H26.3332ZM75.2873 20.5841V27.0187H77.047V20.1014H75.7673C75.3986 20.1014 75.2875 20.2134 75.2875 20.5839L75.2873 20.5841ZM102.484 20.5841V27.0187H104.244V20.1014H102.964C102.595 20.1014 102.484 20.2134 102.484 20.5839L102.484 20.5841Z" fill="#FEFEFE"/>
</svg>
