<svg width="87" height="27" viewBox="0 0 87 27" fill="none" xmlns="http://www.w3.org/2000/svg">
<g clip-path="url(#clip0_1578_638)">
<path fill-rule="evenodd" clip-rule="evenodd" d="M46.3562 17.0572C48.0712 17.0606 49.2991 17.1848 49.3 19.0306C49.3008 20.8827 48.0114 21.0028 46.3228 21.0005L46.3562 17.0572ZM50.1923 22.6789C50.6559 22.2379 50.9487 22.1973 51.4159 21.5993C52.6146 20.0653 52.3724 17.4213 51.2469 16.1558C49.432 14.1153 46.649 14.5255 43.4777 14.5272L43.4805 26.3309L46.3187 26.2993L46.3188 23.5048L47.4619 23.4956C47.6327 23.8727 49.0627 26.1521 49.4243 26.3289L52.5436 26.3273C52.0163 25.171 50.8097 23.8219 50.1923 22.6789L50.1923 22.6789ZM7.56071 12.2169L10.2835 12.2646L10.283 8.11231L14.78 8.08145L14.779 12.216C15.6627 12.3225 16.6073 12.264 17.5014 12.2604L17.5014 0.547423L14.7787 0.569216L14.779 5.60941L10.2831 5.58674L10.2823 0.549724L7.56162 0.553766L7.56069 12.2169L7.56071 12.2169ZM72.0357 5.57725L71.9958 1.12129C71.0776 1.0119 70.0639 0.990843 69.1937 1.27576L69.1841 12.8807L71.9757 12.874C72.1463 10.8548 71.4992 9.45757 72.8557 8.69194C73.6591 9.64694 74.9106 11.784 75.7389 12.8653L79.1121 12.8806C78.8512 12.116 74.9907 7.00769 74.7785 6.43344L76.7082 3.79187C77.0317 3.35299 78.5782 1.40079 78.6189 1.07755C74.4597 1.06753 75.9065 0.621581 73.8155 3.26934C73.4409 3.74362 72.3828 5.3132 72.0357 5.57725H72.0357ZM36.2219 17.0602L41.4072 17.0577L41.4058 14.5267C38.7716 14.5267 39.099 14.6236 37.0204 15.5233C35.9164 16.0011 34.5051 16.7736 33.4478 17.1024L33.4488 26.3282L41.6516 26.3288L41.5695 23.7991L36.1997 23.7522L36.1997 21.8312L40.779 21.8292L40.785 19.3543L36.2031 19.3317L36.2219 17.0603L36.2219 17.0602ZM80.3403 22.4352C79.6232 22.7387 78.619 23.3406 77.9883 23.7678C80.0928 27.6929 85.0662 26.8907 86.3018 24.6332C87.3212 22.7706 86.3896 20.9292 85.2829 20.087C84.7135 19.6537 83.9541 19.3104 83.1899 18.9903C82.2538 18.5983 81.3956 18.412 81.6439 17.2812C81.949 16.9845 82.2918 16.7565 82.9387 16.9997C83.4445 17.1899 83.5168 17.5348 83.8614 17.954C84.2759 17.8092 85.7455 16.8442 86.0388 16.5574C85.5277 14.9761 83.2731 13.8909 81.0525 14.5883C79.2886 15.1423 78.1468 17.1015 79.041 19.2348C79.7924 21.0275 81.6005 21.1419 83.2989 22.1789C85.3036 23.4029 81.661 25.2889 80.3403 22.4352L80.3403 22.4352ZM62.0029 22.6224C62.0081 22.1928 62.8043 20.2735 63.0335 19.9429C63.2493 20.2782 64.0683 22.2162 64.0702 22.621L62.0029 22.6224ZM60.1933 26.3282C60.5925 26.1714 60.6982 25.6696 60.9024 25.0345L65.2104 25.0376L65.7128 26.3284L68.7282 26.3282L63.9102 15.6829C63.6303 15.0344 63.2901 13.8286 62.6772 14.6746L57.6059 26.3248L60.1933 26.3282L60.1933 26.3282ZM25.6378 8.55194C25.0744 8.64975 24.0232 9.47281 23.3764 9.71491C25.0061 13.4523 31.9126 13.396 32.0014 9.01738C32.0498 6.63238 30.4241 5.84056 28.6617 5.07222C27.973 4.77203 26.5367 4.3574 26.9139 3.36152C27.1121 2.83859 27.7683 2.73061 28.3257 2.92367C28.7629 3.07518 28.9462 3.54081 29.3064 3.8353C30.0096 3.47714 30.7414 2.95878 31.3903 2.51049C28.9551 -1.76205 22.4045 1.02557 24.5015 5.32294C25.3803 7.12397 27.9088 7.49969 28.8221 8.2118C29.7789 8.9579 29.1357 9.93694 27.8844 9.94415C26.6262 9.95139 26.2233 9.2399 25.6378 8.55194H25.6378ZM5.64657 22.4219C6.44592 22.0788 8.52299 19.6407 9.45202 19.0497L9.45356 25.2695L11.2902 25.2605L11.2837 14.4747C10.9131 14.6749 6.09905 19.4619 5.86061 19.7198C5.17323 19.3963 1.34909 15.4142 0.224005 14.4758C0.0959606 16.368 0.194594 22.94 0.194594 25.2987C0.952987 25.3064 1.35516 25.3705 2.02963 25.2228L2.03214 19.1924C2.85447 19.6878 3.24467 20.2603 3.9296 20.8444C4.50832 21.338 5.13404 21.8873 5.64655 22.4219L5.64657 22.4219ZM63.6288 3.71931C63.8532 3.96437 65.139 4.722 64.5002 6.48062C64.1537 7.43452 62.8229 7.67626 61.643 7.50808L61.6431 4.6387L58.798 5.85696L58.8047 12.8566L61.607 12.8815L61.646 10.0924L62.8045 10.05C63.1966 10.9173 64.0769 12.0234 64.6005 12.8718L67.8568 12.88C67.5253 12.0728 65.9015 10.036 65.5191 9.25873C66.003 8.72528 67.1832 8.35228 67.478 6.3803C67.7831 4.33924 67.0594 3.57746 66.4958 2.52706L63.6288 3.71933V3.71931ZM39.3669 10.2284L39.3678 2.57711C42.439 2.58641 44.4631 3.13624 44.513 6.31424C44.5711 10.0138 41.7848 10.2284 39.3669 10.2284ZM37.4423 11.8481C39.7094 11.8538 42.108 12.1038 43.9073 11.0677C47.4253 9.04198 47.3778 3.75586 43.9499 1.75671C42.1027 0.679438 39.7753 0.967658 37.4419 0.959014L37.4423 11.8481ZM69.7489 26.3283L77.6471 26.3278L77.6474 26.2105L77.6485 23.7978L72.505 23.7964L72.5017 14.5265L69.7498 14.5263L69.7489 26.3283ZM53.8038 26.328L56.5543 26.3282L56.5534 14.5268L53.9213 14.5263L53.8029 14.5277L53.8038 26.328ZM19.6025 12.2601L22.3543 12.2602L22.3534 9.37644L22.3539 6.55112L22.3535 0.547829L19.6025 0.547327V12.2601ZM53.05 8.39825L53.2657 9.09454C52.451 9.24197 51.7584 8.98892 51.0005 9.29696C50.3963 9.5425 49.8005 9.84246 49.2112 10.1034C48.483 10.4259 47.7705 10.5972 47.5312 11.0271C47.3845 11.2907 46.8408 12.5643 46.7913 12.8787L49.521 12.8793C49.8001 12.3353 49.8848 11.6735 50.2527 11.5847L54.158 11.5842C54.5293 11.6685 54.5914 12.2413 54.8957 12.8801L57.8362 12.8792C57.7484 12.4289 55.5702 7.6684 55.3413 7.41126L53.05 8.39827V8.39825ZM18.064 18.215C18.3492 18.5935 19.7645 21.8795 19.8615 22.4189L16.3092 22.3892L18.064 18.215ZM15.6538 23.9449C17.0821 23.9448 17.5939 23.535 18.7466 23.0042C19.4944 22.6599 20.9122 22.173 21.5217 21.7244L18.1101 14.3583L13.3165 25.3709C13.7679 25.2539 14.2326 25.0111 14.656 24.8203C15.4056 24.4824 15.4401 24.6828 15.6538 23.9449H15.6538ZM48.0199 10.074C50.64 9.27217 50.2511 8.83053 51.2789 6.39596C51.4596 5.9679 51.7654 5.04335 52.0278 4.77133L53.311 7.73133L54.8634 7.07518L52.0836 0.919315C51.6854 1.54572 51.3386 2.47605 51.0199 3.19596C50.2737 4.88126 48.4641 8.79605 48.0199 10.074ZM23.1231 15.8512L26.3478 15.8511L26.3587 19.6239L28.27 18.8304L28.2726 15.8592L31.5289 15.8226L31.5036 14.2338L23.1505 14.2304L23.1237 14.6739L23.1231 15.8512ZM26.0503 26.3163L28.834 26.3292L28.8336 26.2105L28.8185 19.1036L26.0532 20.398L26.0503 26.3163ZM15.816 26.3218C15.943 25.9365 16.1263 25.1109 16.5256 25.0332L20.4308 25.0333C20.8343 25.2383 20.9905 25.9232 21.1183 26.3278L24.1509 26.3177L22.2281 22.0562L12.7013 26.3255L15.816 26.3218L15.816 26.3218ZM58.8627 1.13601L58.8632 5.25807L60.7767 4.45175L60.7941 2.5779C62.0029 2.57804 62.4743 2.51848 63.5217 2.90265C64.122 3.12288 64.0418 3.00042 64.6369 2.73527C64.8157 2.65562 64.9599 2.61333 65.1404 2.52985L65.6601 2.15047C64.7379 1.66919 64.5948 1.23919 62.9145 1.02147C61.7328 0.868381 60.0945 0.960368 58.8634 0.960368L58.8627 1.13599L58.8627 1.13601ZM33.4271 16.5281C33.7064 16.4545 37.6988 14.7835 38.1005 14.4237L33.4192 14.4093L33.4271 16.5281V16.5281Z" fill="#FEFEFE"/>
</g>
<defs>
<clipPath id="clip0_1578_638">
<rect width="86.5825" height="26.1381" fill="white" transform="translate(0.158813 0.380898)"/>
</clipPath>
</defs>
</svg>
