<svg width="92" height="39" viewBox="0 0 92 39" fill="none" xmlns="http://www.w3.org/2000/svg">
<g clip-path="url(#clip0_1578_509)">
<path fill-rule="evenodd" clip-rule="evenodd" d="M62.0558 27.6781H58.3965V25.447C60.185 25.447 61.722 25.298 63.2113 25.6329C63.3518 26.2149 63.9088 27.6781 62.0558 27.6781ZM50.6926 38.4617H58.2038V33.4418C60.5404 34.9522 61.9357 38.4617 65.7151 38.4617H80.9302C83.5417 38.4617 86.1048 36.0952 86.2188 33.0226C86.3548 29.3528 83.5949 28.0887 82.2783 26.1907H91.7155V20.0552H80.3524C78.5891 20.0552 76.8284 20.6657 75.8732 21.4948C74.6259 22.5775 73.8041 23.7201 73.8041 25.6329C73.8041 29.3617 77.0649 30.5134 77.4634 31.9544C73.676 31.9544 70.5656 32.0653 66.8707 31.7684C67.1771 30.6605 68.0287 31.103 69.2165 29.5708C71.0218 27.2419 70.5741 23.4443 68.2265 21.7212C66.985 20.81 65.3926 20.0552 63.2113 20.0552H50.6926V38.4618V38.4617ZM16.0254 12.2463H0.810303V18.9396H18.5291C25.012 18.9396 26.3915 12.4202 23.3909 9.2263C22.8568 8.6579 21.1679 6.97091 21.0329 6.48268H29.6997V18.3818C29.6997 18.8103 29.8337 18.9396 30.2775 18.9396H36.0554C36.4991 18.9396 36.6331 18.8102 36.6331 18.3818V6.48268H44.7222V0.533092H17.9513C16.585 0.533092 15.0665 1.36015 14.335 2.06202C11.2709 5.00213 12.2866 8.04103 14.8232 10.804C15.2938 11.3166 15.8271 11.5296 16.0254 12.2464V12.2463ZM6.58817 38.4617H13.1364C13.2453 37.1992 14.9781 32.9314 15.0624 31.9544H15.4476C15.4717 33.0013 17.0333 37.052 17.3735 38.4617H23.9218C24.3906 36.5191 25.142 34.612 25.7364 32.5906C26.3381 30.5444 27.0291 28.6661 27.6505 26.6296C27.9851 25.5328 28.2218 24.6555 28.5669 23.6097C30.0023 19.2593 30.5053 20.0547 26.4255 20.0551C25.0774 20.0553 23.7292 20.0551 22.381 20.0551C22.0896 21.2627 21.1068 23.8457 21.0329 24.7033C20.3877 24.247 19.4829 20.8152 19.2995 20.0551H11.4031C11.2191 20.8175 10.9544 21.6941 10.701 22.5381C10.5152 23.1571 10.257 24.3408 9.86229 24.8892L8.51414 20.0551H0.810303C0.832016 20.9978 1.83145 23.5488 2.15845 24.7032C2.57566 26.1759 3.11185 27.7141 3.62882 29.2333C4.16896 30.8206 4.53315 32.2517 5.07251 33.7892L6.58817 38.4616V38.4617ZM77.0783 7.97005H72.8412C72.8412 5.19434 72.1672 5.73897 76.6931 5.73897C78.5936 5.73897 78.2646 7.97005 77.0783 7.97005ZM65.3299 18.9396H72.8411V13.7337C73.7147 14.2984 75.3921 16.0987 76.2596 16.9411C77.558 18.202 78.5707 18.9396 81.1228 18.9396H91.7156V12.2463H82.0858C81.3494 12.2463 82.0157 12.3034 81.508 12.0604C81.8621 10.7801 85.7307 10.4448 84.7343 5.22849C84.2613 2.75229 81.7037 0.533056 78.619 0.533056H65.3299V18.9396H65.3299ZM53.0038 6.48265C53.5255 6.85166 53.3577 6.76213 53.5506 7.44221L54.7371 11.1308H51.6556C51.9715 9.82199 52.9828 7.39204 53.0038 6.48265ZM42.6036 18.9396C49.2053 18.9396 48.9438 19.472 49.4324 17.723C49.6116 17.0816 49.7797 16.7415 49.9223 16.1507H56.2779C56.4302 16.7816 56.9042 18.9396 57.6261 18.9396H63.5966C64.4025 18.9396 64.0754 18.4706 63.6214 17.0569L59.0944 3.02002C58.8233 2.24638 58.4691 1.37528 58.3965 0.53302H47.6111L42.5794 16.8712C42.4098 17.3797 41.5494 18.9396 42.6036 18.9396V18.9396ZM38.1739 26.0047L39.0137 28.3548C39.2399 29.0961 39.6579 30.1796 39.7147 30.8388H36.8257C36.8538 29.6221 37.8558 27.323 38.1739 26.0047ZM27.1959 38.4617H33.7442C34.3983 38.4617 34.3724 37.9204 34.5235 37.3547C34.674 36.7912 34.8467 36.4741 34.8997 35.8587H41.448C41.4846 36.2829 42.0613 38.1458 42.2184 38.4617H49.1519L43.6216 20.9316C43.4678 20.4387 43.4335 20.0551 42.7962 20.0551H33.359C32.4397 20.0551 31.9496 22.7573 31.5021 24.2121C30.9989 25.8477 30.5624 27.2792 30.0125 28.9096C29.6274 30.0515 27.1959 37.4004 27.1959 38.4617V38.4617Z" fill="#FEFEFE"/>
</g>
<defs>
<clipPath id="clip0_1578_509">
<rect width="90.9053" height="37.9287" fill="white" transform="translate(0.810791 0.533264)"/>
</clipPath>
</defs>
</svg>
