<svg width="295" height="104" viewBox="0 0 295 104" fill="none" xmlns="http://www.w3.org/2000/svg">
<path d="M19.5088 8.5127V47.7998H11.2295V16.3965H10.9922L2.02734 22.0654V14.6826L11.7305 8.5127H19.5088ZM38.7041 48.3271C35.9971 48.3271 33.5801 47.835 31.4531 46.8506C29.3262 45.8486 27.6387 44.4688 26.3906 42.7109C25.1602 40.9531 24.5186 38.9492 24.4658 36.6992H32.5342C32.6045 38.2109 33.2285 39.4414 34.4062 40.3906C35.6016 41.3223 37.0342 41.7881 38.7041 41.7881C40.0049 41.7881 41.1475 41.498 42.1318 40.918C43.1338 40.3379 43.916 39.5381 44.4785 38.5186C45.041 37.4814 45.3223 36.2773 45.3223 34.9062C45.3223 33.5352 45.0322 32.3223 44.4521 31.2676C43.8721 30.2129 43.0723 29.3955 42.0527 28.8154C41.0508 28.2178 39.8906 27.9189 38.5723 27.9189C37.4121 27.9189 36.2959 28.1562 35.2236 28.6309C34.1514 29.1055 33.3164 29.7471 32.7188 30.5557L25.3096 29.2373L27.1553 8.5127H51.1758V15.3154H34.0107L33.0352 25.1504H33.2461C33.9316 24.1836 34.9688 23.3838 36.3574 22.751C37.7637 22.1182 39.3281 21.8018 41.0508 21.8018C43.4062 21.8018 45.5068 22.3555 47.3525 23.4629C49.2158 24.5703 50.6836 26.0908 51.7559 28.0244C52.8281 29.958 53.3643 32.1816 53.3643 34.6953C53.3643 37.3496 52.749 39.7051 51.5186 41.7617C50.2881 43.8008 48.5654 45.4092 46.3506 46.5869C44.1533 47.7471 41.6045 48.3271 38.7041 48.3271ZM56.1592 58.2676L58.4795 41.8145H66.6006L61.6699 58.2676H56.1592ZM87.3516 48.3271C84.0117 48.3271 81.1553 47.5361 78.7822 45.9541C76.4268 44.3545 74.6162 42.0605 73.3506 39.0723C72.1025 36.0664 71.4785 32.4365 71.4785 28.1826C71.4785 23.9463 72.1113 20.3252 73.377 17.3193C74.6426 14.2959 76.4531 11.9844 78.8086 10.3848C81.1816 8.78516 84.0293 7.98535 87.3516 7.98535C90.6914 7.98535 93.5391 8.78516 95.8945 10.3848C98.2676 11.9844 100.078 14.2871 101.326 17.293C102.592 20.2988 103.225 23.9287 103.225 28.1826C103.225 32.4365 102.601 36.0664 101.353 39.0723C100.104 42.0605 98.2939 44.3545 95.9209 45.9541C93.5654 47.5361 90.709 48.3271 87.3516 48.3271ZM87.3516 41.4717C88.9512 41.4717 90.2959 40.9619 91.3857 39.9424C92.4932 38.9053 93.3281 37.3936 93.8906 35.4072C94.4707 33.4209 94.7607 31.0127 94.7607 28.1826C94.7607 25.335 94.4707 22.918 93.8906 20.9316C93.3281 18.9453 92.4932 17.4336 91.3857 16.3965C90.2959 15.3418 88.9512 14.8145 87.3516 14.8145C84.9785 14.8145 83.1504 15.9834 81.8672 18.3213C80.584 20.6416 79.9424 23.9287 79.9424 28.1826C79.9424 31.0127 80.2236 33.4209 80.7861 35.4072C81.3662 37.3936 82.21 38.9053 83.3174 39.9424C84.4248 40.9619 85.7695 41.4717 87.3516 41.4717ZM122.736 48.3271C119.396 48.3271 116.54 47.5361 114.167 45.9541C111.812 44.3545 110.001 42.0605 108.735 39.0723C107.487 36.0664 106.863 32.4365 106.863 28.1826C106.863 23.9463 107.496 20.3252 108.762 17.3193C110.027 14.2959 111.838 11.9844 114.193 10.3848C116.566 8.78516 119.414 7.98535 122.736 7.98535C126.076 7.98535 128.924 8.78516 131.279 10.3848C133.652 11.9844 135.463 14.2871 136.711 17.293C137.977 20.2988 138.609 23.9287 138.609 28.1826C138.609 32.4365 137.985 36.0664 136.737 39.0723C135.489 42.0605 133.679 44.3545 131.306 45.9541C128.95 47.5361 126.094 48.3271 122.736 48.3271ZM122.736 41.4717C124.336 41.4717 125.681 40.9619 126.771 39.9424C127.878 38.9053 128.713 37.3936 129.275 35.4072C129.855 33.4209 130.146 31.0127 130.146 28.1826C130.146 25.335 129.855 22.918 129.275 20.9316C128.713 18.9453 127.878 17.4336 126.771 16.3965C125.681 15.3418 124.336 14.8145 122.736 14.8145C120.363 14.8145 118.535 15.9834 117.252 18.3213C115.969 20.6416 115.327 23.9287 115.327 28.1826C115.327 31.0127 115.608 33.4209 116.171 35.4072C116.751 37.3936 117.595 38.9053 118.702 39.9424C119.81 40.9619 121.154 41.4717 122.736 41.4717ZM158.121 48.3271C154.781 48.3271 151.925 47.5361 149.552 45.9541C147.196 44.3545 145.386 42.0605 144.12 39.0723C142.872 36.0664 142.248 32.4365 142.248 28.1826C142.248 23.9463 142.881 20.3252 144.146 17.3193C145.412 14.2959 147.223 11.9844 149.578 10.3848C151.951 8.78516 154.799 7.98535 158.121 7.98535C161.461 7.98535 164.309 8.78516 166.664 10.3848C169.037 11.9844 170.848 14.2871 172.096 17.293C173.361 20.2988 173.994 23.9287 173.994 28.1826C173.994 32.4365 173.37 36.0664 172.122 39.0723C170.874 42.0605 169.063 44.3545 166.69 45.9541C164.335 47.5361 161.479 48.3271 158.121 48.3271ZM158.121 41.4717C159.721 41.4717 161.065 40.9619 162.155 39.9424C163.263 38.9053 164.098 37.3936 164.66 35.4072C165.24 33.4209 165.53 31.0127 165.53 28.1826C165.53 25.335 165.24 22.918 164.66 20.9316C164.098 18.9453 163.263 17.4336 162.155 16.3965C161.065 15.3418 159.721 14.8145 158.121 14.8145C155.748 14.8145 153.92 15.9834 152.637 18.3213C151.354 20.6416 150.712 23.9287 150.712 28.1826C150.712 31.0127 150.993 33.4209 151.556 35.4072C152.136 37.3936 152.979 38.9053 154.087 39.9424C155.194 40.9619 156.539 41.4717 158.121 41.4717ZM176.446 58.2676L178.767 41.8145H186.888L181.957 58.2676H176.446Z" fill="#F0F0F0"/>
<path d="M85.9717 93.3271C82.6318 93.3271 79.7754 92.5361 77.4023 90.9541C75.0469 89.3545 73.2363 87.0605 71.9707 84.0723C70.7227 81.0664 70.0986 77.4365 70.0986 73.1826C70.0986 68.9463 70.7314 65.3252 71.9971 62.3193C73.2627 59.2959 75.0732 56.9844 77.4287 55.3848C79.8018 53.7852 82.6494 52.9854 85.9717 52.9854C89.3115 52.9854 92.1592 53.7852 94.5146 55.3848C96.8877 56.9844 98.6982 59.2871 99.9463 62.293C101.212 65.2988 101.845 68.9287 101.845 73.1826C101.845 77.4365 101.221 81.0664 99.9727 84.0723C98.7246 87.0605 96.9141 89.3545 94.541 90.9541C92.1855 92.5361 89.3291 93.3271 85.9717 93.3271ZM85.9717 86.4717C87.5713 86.4717 88.916 85.9619 90.0059 84.9424C91.1133 83.9053 91.9482 82.3936 92.5107 80.4072C93.0908 78.4209 93.3809 76.0127 93.3809 73.1826C93.3809 70.335 93.0908 67.918 92.5107 65.9316C91.9482 63.9453 91.1133 62.4336 90.0059 61.3965C88.916 60.3418 87.5713 59.8145 85.9717 59.8145C83.5986 59.8145 81.7705 60.9834 80.4873 63.3213C79.2041 65.6416 78.5625 68.9287 78.5625 73.1826C78.5625 76.0127 78.8438 78.4209 79.4062 80.4072C79.9863 82.3936 80.8301 83.9053 81.9375 84.9424C83.0449 85.9619 84.3896 86.4717 85.9717 86.4717ZM121.356 93.3271C118.017 93.3271 115.16 92.5361 112.787 90.9541C110.432 89.3545 108.621 87.0605 107.355 84.0723C106.107 81.0664 105.483 77.4365 105.483 73.1826C105.483 68.9463 106.116 65.3252 107.382 62.3193C108.647 59.2959 110.458 56.9844 112.813 55.3848C115.187 53.7852 118.034 52.9854 121.356 52.9854C124.696 52.9854 127.544 53.7852 129.899 55.3848C132.272 56.9844 134.083 59.2871 135.331 62.293C136.597 65.2988 137.229 68.9287 137.229 73.1826C137.229 77.4365 136.605 81.0664 135.357 84.0723C134.109 87.0605 132.299 89.3545 129.926 90.9541C127.57 92.5361 124.714 93.3271 121.356 93.3271ZM121.356 86.4717C122.956 86.4717 124.301 85.9619 125.391 84.9424C126.498 83.9053 127.333 82.3936 127.896 80.4072C128.476 78.4209 128.766 76.0127 128.766 73.1826C128.766 70.335 128.476 67.918 127.896 65.9316C127.333 63.9453 126.498 62.4336 125.391 61.3965C124.301 60.3418 122.956 59.8145 121.356 59.8145C118.983 59.8145 117.155 60.9834 115.872 63.3213C114.589 65.6416 113.947 68.9287 113.947 73.1826C113.947 76.0127 114.229 78.4209 114.791 80.4072C115.371 82.3936 116.215 83.9053 117.322 84.9424C118.43 85.9619 119.774 86.4717 121.356 86.4717ZM156.741 93.3271C153.401 93.3271 150.545 92.5361 148.172 90.9541C145.816 89.3545 144.006 87.0605 142.74 84.0723C141.492 81.0664 140.868 77.4365 140.868 73.1826C140.868 68.9463 141.501 65.3252 142.767 62.3193C144.032 59.2959 145.843 56.9844 148.198 55.3848C150.571 53.7852 153.419 52.9854 156.741 52.9854C160.081 52.9854 162.929 53.7852 165.284 55.3848C167.657 56.9844 169.468 59.2871 170.716 62.293C171.981 65.2988 172.614 68.9287 172.614 73.1826C172.614 77.4365 171.99 81.0664 170.742 84.0723C169.494 87.0605 167.684 89.3545 165.311 90.9541C162.955 92.5361 160.099 93.3271 156.741 93.3271ZM156.741 86.4717C158.341 86.4717 159.686 85.9619 160.775 84.9424C161.883 83.9053 162.718 82.3936 163.28 80.4072C163.86 78.4209 164.15 76.0127 164.15 73.1826C164.15 70.335 163.86 67.918 163.28 65.9316C162.718 63.9453 161.883 62.4336 160.775 61.3965C159.686 60.3418 158.341 59.8145 156.741 59.8145C154.368 59.8145 152.54 60.9834 151.257 63.3213C149.974 65.6416 149.332 68.9287 149.332 73.1826C149.332 76.0127 149.613 78.4209 150.176 80.4072C150.756 82.3936 151.6 83.9053 152.707 84.9424C153.814 85.9619 155.159 86.4717 156.741 86.4717ZM175.066 103.268L177.387 86.8145H185.508L180.577 103.268H175.066ZM206.259 93.3271C202.919 93.3271 200.062 92.5361 197.689 90.9541C195.334 89.3545 193.523 87.0605 192.258 84.0723C191.01 81.0664 190.386 77.4365 190.386 73.1826C190.386 68.9463 191.019 65.3252 192.284 62.3193C193.55 59.2959 195.36 56.9844 197.716 55.3848C200.089 53.7852 202.937 52.9854 206.259 52.9854C209.599 52.9854 212.446 53.7852 214.802 55.3848C217.175 56.9844 218.985 59.2871 220.233 62.293C221.499 65.2988 222.132 68.9287 222.132 73.1826C222.132 77.4365 221.508 81.0664 220.26 84.0723C219.012 87.0605 217.201 89.3545 214.828 90.9541C212.473 92.5361 209.616 93.3271 206.259 93.3271ZM206.259 86.4717C207.858 86.4717 209.203 85.9619 210.293 84.9424C211.4 83.9053 212.235 82.3936 212.798 80.4072C213.378 78.4209 213.668 76.0127 213.668 73.1826C213.668 70.335 213.378 67.918 212.798 65.9316C212.235 63.9453 211.4 62.4336 210.293 61.3965C209.203 60.3418 207.858 59.8145 206.259 59.8145C203.886 59.8145 202.058 60.9834 200.774 63.3213C199.491 65.6416 198.85 68.9287 198.85 73.1826C198.85 76.0127 199.131 78.4209 199.693 80.4072C200.273 82.3936 201.117 83.9053 202.225 84.9424C203.332 85.9619 204.677 86.4717 206.259 86.4717ZM241.644 93.3271C238.304 93.3271 235.447 92.5361 233.074 90.9541C230.719 89.3545 228.908 87.0605 227.643 84.0723C226.395 81.0664 225.771 77.4365 225.771 73.1826C225.771 68.9463 226.403 65.3252 227.669 62.3193C228.935 59.2959 230.745 56.9844 233.101 55.3848C235.474 53.7852 238.321 52.9854 241.644 52.9854C244.983 52.9854 247.831 53.7852 250.187 55.3848C252.56 56.9844 254.37 59.2871 255.618 62.293C256.884 65.2988 257.517 68.9287 257.517 73.1826C257.517 77.4365 256.893 81.0664 255.645 84.0723C254.396 87.0605 252.586 89.3545 250.213 90.9541C247.857 92.5361 245.001 93.3271 241.644 93.3271ZM241.644 86.4717C243.243 86.4717 244.588 85.9619 245.678 84.9424C246.785 83.9053 247.62 82.3936 248.183 80.4072C248.763 78.4209 249.053 76.0127 249.053 73.1826C249.053 70.335 248.763 67.918 248.183 65.9316C247.62 63.9453 246.785 62.4336 245.678 61.3965C244.588 60.3418 243.243 59.8145 241.644 59.8145C239.271 59.8145 237.442 60.9834 236.159 63.3213C234.876 65.6416 234.234 68.9287 234.234 73.1826C234.234 76.0127 234.516 78.4209 235.078 80.4072C235.658 82.3936 236.502 83.9053 237.609 84.9424C238.717 85.9619 240.062 86.4717 241.644 86.4717ZM277.028 93.3271C273.688 93.3271 270.832 92.5361 268.459 90.9541C266.104 89.3545 264.293 87.0605 263.027 84.0723C261.779 81.0664 261.155 77.4365 261.155 73.1826C261.155 68.9463 261.788 65.3252 263.054 62.3193C264.319 59.2959 266.13 56.9844 268.485 55.3848C270.858 53.7852 273.706 52.9854 277.028 52.9854C280.368 52.9854 283.216 53.7852 285.571 55.3848C287.944 56.9844 289.755 59.2871 291.003 62.293C292.269 65.2988 292.901 68.9287 292.901 73.1826C292.901 77.4365 292.277 81.0664 291.029 84.0723C289.781 87.0605 287.971 89.3545 285.598 90.9541C283.242 92.5361 280.386 93.3271 277.028 93.3271ZM277.028 86.4717C278.628 86.4717 279.973 85.9619 281.062 84.9424C282.17 83.9053 283.005 82.3936 283.567 80.4072C284.147 78.4209 284.438 76.0127 284.438 73.1826C284.438 70.335 284.147 67.918 283.567 65.9316C283.005 63.9453 282.17 62.4336 281.062 61.3965C279.973 60.3418 278.628 59.8145 277.028 59.8145C274.655 59.8145 272.827 60.9834 271.544 63.3213C270.261 65.6416 269.619 68.9287 269.619 73.1826C269.619 76.0127 269.9 78.4209 270.463 80.4072C271.043 82.3936 271.887 83.9053 272.994 84.9424C274.102 85.9619 275.446 86.4717 277.028 86.4717Z" fill="#F0F0F0"/>
</svg>
