<svg width="119" height="48" viewBox="0 0 119 48" fill="none" xmlns="http://www.w3.org/2000/svg">
<path d="M0.646484 45.5308V38.9097L16.1738 24.4956C17.502 23.2261 18.6152 22.0835 19.5137 21.0679C20.4121 20.0327 21.0957 19.0269 21.5645 18.0503C22.0332 17.0542 22.2676 15.98 22.2676 14.8276C22.2676 13.5386 21.9746 12.4351 21.3887 11.5171C20.8027 10.5991 20.0117 9.88623 19.0156 9.37842C18.0195 8.87061 16.877 8.6167 15.5879 8.6167C14.2598 8.6167 13.0977 8.89014 12.1016 9.43701C11.1055 9.96436 10.334 10.7358 9.78711 11.7515C9.25977 12.7476 8.99609 13.9487 8.99609 15.355H0.207031C0.207031 12.4839 0.851562 10.0034 2.14062 7.91357C3.44922 5.8042 5.26562 4.17334 7.58984 3.021C9.93359 1.86865 12.6289 1.29248 15.6758 1.29248C18.7812 1.29248 21.4961 1.84912 23.8203 2.9624C26.1445 4.05615 27.9512 5.57959 29.2402 7.53271C30.5293 9.46631 31.1738 11.7026 31.1738 14.2417C31.1738 15.8823 30.8516 17.5034 30.207 19.105C29.5625 20.687 28.4199 22.4644 26.7793 24.437C25.1387 26.3901 22.8145 28.7241 19.8066 31.439L13.4199 37.6792V38.0015H31.7598V45.5308H0.646484ZM53.6152 46.1167C49.9043 46.1167 46.7305 45.2378 44.0938 43.48C41.4766 41.7026 39.4648 39.1538 38.0586 35.8335C36.6719 32.4937 35.9785 28.4604 35.9785 23.7339C35.9785 19.0269 36.6816 15.0034 38.0879 11.6636C39.4941 8.3042 41.5059 5.73584 44.123 3.9585C46.7598 2.18115 49.9238 1.29248 53.6152 1.29248C57.3262 1.29248 60.4902 2.18115 63.1074 3.9585C65.7441 5.73584 67.7559 8.29443 69.1426 11.6343C70.5488 14.9741 71.252 19.0073 71.252 23.7339C71.252 28.4604 70.5586 32.4937 69.1719 35.8335C67.7852 39.1538 65.7734 41.7026 63.1367 43.48C60.5195 45.2378 57.3457 46.1167 53.6152 46.1167ZM53.6152 38.4995C55.3926 38.4995 56.8867 37.9331 58.0977 36.8003C59.3281 35.6479 60.2559 33.9683 60.8809 31.7612C61.5254 29.5542 61.8477 26.8784 61.8477 23.7339C61.8477 20.5698 61.5254 17.8843 60.8809 15.6772C60.2559 13.4702 59.3281 11.7905 58.0977 10.6382C56.8867 9.46631 55.3926 8.88037 53.6152 8.88037C50.9785 8.88037 48.9473 10.1792 47.5215 12.7769C46.0957 15.355 45.3828 19.0073 45.3828 23.7339C45.3828 26.8784 45.6953 29.5542 46.3203 31.7612C46.9648 33.9683 47.9023 35.6479 49.1328 36.8003C50.3633 37.9331 51.8574 38.4995 53.6152 38.4995ZM99.7285 37.3276V35.0425C99.7285 33.2847 100.1 31.6733 100.842 30.2085C101.584 28.7437 102.668 27.5718 104.094 26.6929C105.52 25.7944 107.258 25.3452 109.309 25.3452C111.418 25.3452 113.176 25.7847 114.582 26.6636C116.008 27.5425 117.082 28.7241 117.805 30.2085C118.547 31.6733 118.918 33.2847 118.918 35.0425V37.3276C118.918 39.0854 118.547 40.7065 117.805 42.1909C117.062 43.6558 115.979 44.8276 114.553 45.7065C113.127 46.5854 111.379 47.0249 109.309 47.0249C107.238 47.0249 105.49 46.5854 104.064 45.7065C102.639 44.8276 101.555 43.6558 100.812 42.1909C100.09 40.7065 99.7285 39.0854 99.7285 37.3276ZM105.91 35.0425V37.3276C105.91 38.3433 106.154 39.3003 106.643 40.1987C107.131 41.0972 108.02 41.5464 109.309 41.5464C110.617 41.5464 111.506 41.1069 111.975 40.228C112.443 39.3491 112.678 38.3823 112.678 37.3276V35.0425C112.678 33.9878 112.453 33.021 112.004 32.1421C111.555 31.2437 110.656 30.8042 109.309 30.8237C108.039 30.8042 107.15 31.2437 106.643 32.1421C106.154 33.021 105.91 33.9878 105.91 35.0425ZM77.3164 12.3667V10.0815C77.3164 8.32373 77.6875 6.7124 78.4297 5.24756C79.1914 3.76318 80.2852 2.58154 81.7109 1.70264C83.1562 0.82373 84.8945 0.384277 86.9258 0.384277C89.0156 0.384277 90.7734 0.82373 92.1992 1.70264C93.6445 2.58154 94.7285 3.76318 95.4512 5.24756C96.1738 6.7124 96.5254 8.32373 96.5059 10.0815V12.3667C96.5254 14.1245 96.1641 15.7358 95.4219 17.2007C94.6797 18.6655 93.5957 19.8374 92.1699 20.7163C90.7441 21.5757 88.9961 22.0151 86.9258 22.0347C84.8555 22.0151 83.0977 21.5659 81.6523 20.687C80.2266 19.8081 79.1426 18.6362 78.4004 17.1714C77.6777 15.7065 77.3164 14.105 77.3164 12.3667ZM83.5566 10.0815V12.3667C83.5566 13.4214 83.8008 14.3882 84.2891 15.2671C84.7773 16.146 85.6562 16.5757 86.9258 16.5562C88.2148 16.5757 89.0938 16.146 89.5625 15.2671C90.0508 14.3882 90.2852 13.4214 90.2656 12.3667V10.0815C90.2852 9.02686 90.0605 8.06006 89.5918 7.18115C89.1426 6.28271 88.2539 5.8335 86.9258 5.8335C85.6367 5.8335 84.748 6.29248 84.2598 7.21045C83.791 8.10889 83.5566 9.06592 83.5566 10.0815ZM80.1289 45.5308L110.129 1.87842H115.725L85.7246 45.5308H80.1289Z" fill="#F0F0F0"/>
</svg>
