<svg width="147" height="237" viewBox="0 0 147 237" fill="none" xmlns="http://www.w3.org/2000/svg">
<g opacity="0.06">
<path d="M67.8535 226.233V11.667H81.5664V226.233H67.8535ZM74.7676 207.22C60.9395 207.22 48.8783 205.107 38.584 200.882C28.3665 196.657 20.377 190.357 14.6152 181.983C8.93034 173.61 5.93424 163.239 5.62695 150.87H40.6582C41.1191 156.555 42.8092 161.356 45.7285 165.274C48.6478 169.116 52.5658 171.996 57.4824 173.917C62.3991 175.838 68.0456 176.798 74.4219 176.798C80.5677 176.798 85.9069 175.914 90.4395 174.147C95.0488 172.381 98.5827 169.922 101.041 166.772C103.576 163.546 104.844 159.82 104.844 155.595C104.844 151.754 103.691 148.527 101.387 145.915C99.1589 143.303 95.8555 141.075 91.4766 139.231C87.1745 137.388 81.9121 135.736 75.6895 134.276L56.9062 129.667C42.4635 126.21 31.0553 120.717 22.6816 113.188C14.3079 105.583 10.1211 95.4424 10.1211 82.7666C10.1211 72.3955 12.9251 63.3304 18.5332 55.5713C24.2181 47.7354 31.9388 41.6663 41.6953 37.3643C51.5286 32.9854 62.7064 30.7959 75.2285 30.7959C87.9811 30.7959 99.082 32.9854 108.531 37.3643C118.057 41.7432 125.471 47.8122 130.771 55.5713C136.149 63.3304 138.915 72.2803 139.068 82.4209H104.152C103.538 75.7373 100.657 70.5133 95.5098 66.749C90.4395 62.9847 83.5638 61.1025 74.8828 61.1025C69.0443 61.1025 64.0508 61.9476 59.9023 63.6377C55.8307 65.251 52.7194 67.5173 50.5684 70.4365C48.4173 73.3558 47.3418 76.6976 47.3418 80.4619C47.3418 84.4567 48.571 87.8369 51.0293 90.6025C53.4876 93.2913 56.7526 95.5192 60.8242 97.2861C64.9727 98.9762 69.5052 100.397 74.4219 101.55L89.748 105.353C97.1999 107.043 104.076 109.309 110.375 112.151C116.674 114.917 122.129 118.336 126.738 122.407C131.424 126.479 135.035 131.28 137.57 136.812C140.105 142.266 141.373 148.565 141.373 155.71C141.373 166.235 138.723 175.377 133.422 183.136C128.198 190.818 120.631 196.772 110.721 200.997C100.811 205.146 88.8262 207.22 74.7676 207.22Z" fill="#F0F0F0"/>
<rect x="68" y="1.7998" width="14" height="233" fill="#F0F0F0"/>
</g>
</svg>
