<svg width="36" height="36" viewBox="0 0 36 36" fill="none" xmlns="http://www.w3.org/2000/svg">
<rect x="2.24683" y="31.1279" width="15.7518" height="3.93795" rx="0.8751" fill="#12FFF1"/>
<path fill-rule="evenodd" clip-rule="evenodd" d="M3.48733 15.4704C2.80384 16.1539 2.80384 17.2621 3.48733 17.9456L10.294 24.7523C10.9775 25.4358 12.0857 25.4358 12.7692 24.7523L18.0274 19.494L27.4181 28.8846C27.7598 29.2264 28.3139 29.2264 28.6557 28.8846L31.1308 26.4095C31.4726 26.0677 31.4726 25.5136 31.1308 25.1719L21.7402 15.7813L27.0013 10.5201C27.6848 9.83662 27.6848 8.72845 27.0013 8.04496L20.1946 1.23828C19.5111 0.554781 18.403 0.554783 17.7195 1.23828L3.48733 15.4704Z" fill="#12FFF1"/>
</svg>
