<svg width="36" height="36" viewBox="0 0 36 36" fill="none" xmlns="http://www.w3.org/2000/svg">
<path d="M6 18.3C6 16.6198 6 15.7798 6.32698 15.138C6.6146 14.5735 7.07354 14.1146 7.63803 13.827C8.27976 13.5 9.11984 13.5 10.8 13.5H25.2C26.8802 13.5 27.7202 13.5 28.362 13.827C28.9265 14.1146 29.3854 14.5735 29.673 15.138C30 15.7798 30 16.6198 30 18.3V21.9C30 25.2603 30 26.9405 29.346 28.2239C28.7708 29.3529 27.8529 30.2708 26.7239 30.846C25.4405 31.5 23.7603 31.5 20.4 31.5H15.6C12.2397 31.5 10.5595 31.5 9.27606 30.846C8.14708 30.2708 7.2292 29.3529 6.65396 28.2239C6 26.9405 6 25.2603 6 21.9V18.3Z" fill="#12FFF1"/>
<path d="M13.4991 16.5V9C13.4991 6.51472 15.5139 4.5 17.9991 4.5C20.4844 4.5 22.4991 6.51472 22.4991 9V16.4509M15.5991 31.5H20.3991C23.7595 31.5 25.4396 31.5 26.7231 30.846C27.8521 30.2708 28.7699 29.3529 29.3452 28.2239C29.9991 26.9405 29.9991 25.2603 29.9991 21.9V18.3C29.9991 16.6198 29.9991 15.7798 29.6722 15.138C29.3845 14.5735 28.9256 14.1146 28.3611 13.827C27.7194 13.5 26.8793 13.5 25.1991 13.5H10.7991C9.11899 13.5 8.27891 13.5 7.63717 13.827C7.07269 14.1146 6.61375 14.5735 6.32613 15.138C5.99915 15.7798 5.99915 16.6198 5.99915 18.3V21.9C5.99915 25.2603 5.99915 26.9405 6.65311 28.2239C7.22835 29.3529 8.14623 30.2708 9.2752 30.846C10.5587 31.5 12.2388 31.5 15.5991 31.5Z" stroke="#12FFF1" stroke-linecap="round" stroke-linejoin="round"/>
</svg>
