<svg width="36" height="36" viewBox="0 0 36 36" fill="none" xmlns="http://www.w3.org/2000/svg">
<path fill-rule="evenodd" clip-rule="evenodd" d="M21.9378 1.96071C19.9634 -0.653571 16.0366 -0.653571 14.0622 1.96071C12.9836 3.38917 11.2158 4.12139 9.44291 3.87411C6.19829 3.42156 3.42156 6.19829 3.87411 9.44291C4.12139 11.2158 3.38915 12.9835 1.96071 14.0623C-0.653571 16.0366 -0.653571 19.9635 1.96071 21.9377C3.38915 23.0164 4.12139 24.7842 3.87411 26.5572C3.42156 29.8018 6.19829 32.5785 9.44291 32.1259C11.2158 31.8787 12.9836 32.6108 14.0622 34.0393C16.0366 36.6535 19.9634 36.6535 21.9378 34.0393C23.0165 32.6108 24.7842 31.8787 26.5571 32.1259C29.8017 32.5785 32.5784 29.8018 32.1259 26.5572C31.8786 24.7842 32.6108 23.0164 34.0392 21.9377C36.6536 19.9635 36.6536 16.0366 34.0392 14.0623C32.6108 12.9835 31.8786 11.2158 32.1259 9.44291C32.5784 6.19829 29.8017 3.42156 26.5571 3.87411C24.7842 4.12139 23.0165 3.38917 21.9378 1.96071ZM27.645 14.5319C28.3453 13.7166 28.2317 12.5048 27.3914 11.8254C26.5512 11.1459 25.3024 11.2561 24.6021 12.0715L16.4768 21.5324C16.3202 21.7149 16.1966 21.8587 16.088 21.9811C15.9682 21.8688 15.8319 21.7363 15.6588 21.5685L12.6704 18.6688C11.897 17.9184 10.643 17.9184 9.8696 18.6688C9.09619 19.4193 9.09619 20.636 9.8696 21.3865L12.8579 24.2861L12.9014 24.3284C13.2038 24.6218 13.5113 24.9203 13.7951 25.1527C14.1086 25.4096 14.5358 25.7089 15.1058 25.872C15.8702 26.0909 16.6883 26.055 17.4291 25.7698C17.9815 25.5572 18.379 25.2217 18.6673 24.9383C18.9283 24.682 19.2066 24.3576 19.4804 24.0387L19.5197 23.9929L27.645 14.5319Z" fill="#12FFF1"/>
</svg>
