<svg width="246" height="835" viewBox="0 0 246 835" fill="none" xmlns="http://www.w3.org/2000/svg">
<path d="M72.477 422.692C63.9259 435.164 59.5904 452.223 59.5904 473.386C59.5904 500.575 69.3029 523.163 87.7325 538.975L66.1013 538.975L64.1655 538.975L64.1655 540.864L64.1655 584.994L64.1655 586.887L66.1013 586.887L239.615 586.887L241.551 586.887L241.551 584.994L241.551 540.864L241.551 538.975L239.615 538.975L146.312 538.975C108.301 538.975 98.1518 507 98.1518 488.102C98.1518 451.667 119.844 447.458 136.163 447.458L239.618 447.458L241.554 447.458L241.554 445.569L241.554 401.438L241.554 399.549L239.618 399.549L121.759 399.549C99.5867 399.561 83.013 407.347 72.477 422.692ZM206.296 256.809L206.926 287.523C206.926 300.35 198.58 301.623 178.086 301.623L100.788 301.623L100.788 257.453L100.788 255.561L98.8523 255.561L66.1166 255.561L64.1808 255.561L64.1808 257.453L64.1808 301.623L12.4256 301.623L9.07342 301.623L10.7634 304.456L36.9574 348.587L37.5136 349.532L38.6228 349.532L64.187 349.532L64.187 382.818L64.187 384.707L66.1228 384.707L98.8585 384.707L100.794 384.707L100.794 382.818L100.794 349.532L191.185 349.532C223.997 349.532 245.496 345.374 245.496 289.767C245.496 275.758 244.402 266.775 242.854 255.612L242.62 253.975L240.93 253.975L208.198 253.975L206.197 253.975L206.262 255.928L206.302 256.809L206.296 256.809ZM64.1716 226.51L64.1716 228.399L66.1074 228.399L239.621 228.399L241.557 228.399L241.557 226.51L241.557 182.38L241.557 180.487L239.621 180.487L66.1074 180.487L64.1716 180.487L64.1716 182.38L64.1716 226.51ZM0.00304366 226.51L0.00304374 228.399L1.93879 228.399L38.6074 228.399L40.5432 228.399L40.5432 226.51L40.5432 182.38L40.5432 180.487L38.6074 180.487L1.93879 180.487L0.00304164 180.487L0.00304173 182.38L0.00304366 226.51ZM238.358 -54.9363L150.239 20.4016L67.3825 -49.8223L64.1716 -52.5417L64.1716 -48.3965L64.1716 8.52209L64.1716 9.42767L64.8937 9.99621L119.322 52.9566L64.906 94.9845L64.1716 95.55L64.1716 96.4706L64.1716 153.389L64.1716 157.511L67.3702 154.827L150.239 85.2078L238.359 160.242L241.557 162.976L241.557 158.819L241.557 101.901L241.557 101.007L240.847 100.438L181.168 52.9927L240.823 6.80748L241.557 6.24199L241.557 5.3214L241.557 -53.5134L241.557 -57.6828L238.358 -54.9363ZM0.0030616 636.925L0.00306308 670.891L0.003064 691.982L0.00306404 692.851L0.685182 693.417L238.368 891.111L241.554 893.768L241.554 889.673L241.554 834.62L241.554 833.75L240.872 833.182L183.927 785.826L183.927 672.78L239.606 672.78L241.542 672.78L241.542 670.891L241.542 626.761L241.542 624.868L239.606 624.868L1.93574 624.868L-1.1754e-05 624.868L-1.16712e-05 626.761L-1.12269e-05 636.925L0.0030616 636.925ZM143.08 751.836L48.0343 672.78L143.08 672.78L143.08 751.836Z" fill="white"/>
</svg>
