<svg width="149" height="54" viewBox="0 0 149 54" fill="none" xmlns="http://www.w3.org/2000/svg">
<g clip-path="url(#clip0_537_667)">
<path d="M4.91921 0.139709L5.10704 0C9.02555 4.6575 20.1889 17.3079 26.6088 17.3079C31.5678 17.3079 34.4234 9.90021 34.812 8.82994L35.0384 8.9078C35.0384 8.9078 31.4766 18.7314 34.824 21.3196C38.1159 23.8645 51.9685 19.5681 53.1542 19.1979L53.2217 19.4205C53.2217 19.4205 37.303 24.1951 36.2916 28.7459C35.5684 31.9985 39.7142 36.5913 40.8209 37.7695L40.6543 37.9278C40.6543 37.9278 35.8367 32.6009 32.2512 34.09C26.9194 36.3053 23.8709 51.797 23.5019 53.9783L23.2667 53.9347C23.2667 53.9347 26.6117 36.4776 18.2336 32.5623C13.5271 30.3615 1.91048 33.1698 0.0675551 33.6244L0 33.3965C0 33.3965 16.2479 29.3798 16.2479 20.5498C16.2479 13.403 4.91921 0.139709 4.91921 0.139709ZM98.5903 23.5189C97.2815 22.6452 95.4913 22.2022 93.2705 22.2022C90.4174 22.2022 88.047 23.1946 86.3878 25.0777V22.8674V22.6696H86.1896H81.5586H81.36V22.8674V40.5967V40.7945H81.5586H86.1896H86.3878V40.5967V31.0632C86.3878 27.1793 89.7431 26.1423 91.7262 26.1423C95.5497 26.1423 95.9914 28.3588 95.9914 30.0262V40.597V40.7948H96.1896H100.821H101.019V40.597V28.5544C101.018 26.2889 100.201 24.5954 98.5903 23.5189ZM115.998 37.1922L112.775 37.2565C111.429 37.2565 111.295 36.4038 111.295 34.3098V26.4117H115.93H116.129V26.2139V22.869V22.6712H115.93H111.295V17.383V17.0405L110.998 17.2131L106.367 19.8896L106.268 19.9464V20.0597V22.6718H102.775H102.576V22.8696V26.2145V26.4123H102.775H106.268V35.6482C106.268 39.0009 106.704 41.1976 112.539 41.1976C114.009 41.1976 114.952 41.0858 116.123 40.9276L116.295 40.9037V40.7311V37.3865V37.1821L116.09 37.1887L115.998 37.1928V37.1922ZM119.177 22.6703H118.979V22.8681V40.5973V40.7951H119.177H123.808H124.007V40.5973V22.8681V22.6703H123.808H119.177ZM119.177 16.1137H118.979V16.3115V20.0582V20.256H119.177H123.808H124.007V20.0582V16.3115V16.1137H123.808H119.177ZM148.712 40.4683L140.806 31.4644L148.175 22.9983L148.461 22.6703H148.025H142.053H141.958L141.898 22.744L137.39 28.3054L132.979 22.7453L132.92 22.6703H132.823H126.85H126.418L126.7 22.9971L134.005 31.4644L126.131 40.4683L125.844 40.7951H126.281H132.254H132.347L132.407 40.7226L137.386 34.6247L142.232 40.7201L142.292 40.7951H142.388H148.562H149L148.712 40.4683ZM76.109 16.1137H72.5447H70.3315H70.2402L70.1809 16.1834L49.4352 40.4692L49.1564 40.7948H49.5861H55.3633H55.4545L55.5142 40.7251L60.4836 34.9066H72.3464V40.5958V40.7935H72.5447H77.1757H77.3742V40.5958V16.3111V16.1133H77.1757L76.109 16.1137ZM64.0504 30.7329L72.3464 21.0214V30.7329H64.0504Z" fill="white"/>
</g>
<defs>
<clipPath id="clip0_537_667">
<rect width="149" height="54" fill="white"/>
</clipPath>
</defs>
</svg>
