<svg width="31" height="31" viewBox="0 0 31 31" fill="none" xmlns="http://www.w3.org/2000/svg">
<path d="M3.41337 0.376383L3.51912 0.298828C5.72529 2.8843 12.0104 9.9068 15.6249 9.9068C18.4168 9.9068 20.0246 5.79463 20.2434 5.2005L20.3708 5.24372C20.3708 5.24372 18.3655 10.697 20.2501 12.1338C22.1035 13.5465 29.9026 11.1615 30.5702 10.956L30.6082 11.0795C30.6082 11.0795 21.6458 13.73 21.0764 16.2562C20.6692 18.0618 23.0033 20.6114 23.6265 21.2654L23.5326 21.3533C23.5326 21.3533 20.8203 18.3962 18.8016 19.2229C15.7998 20.4526 14.0834 29.0523 13.8756 30.2633L13.7432 30.239C13.7432 30.239 15.6265 20.5483 10.9095 18.3748C8.25972 17.1531 1.71942 18.712 0.681833 18.9644L0.643799 18.8379C0.643799 18.8379 9.79158 16.6081 9.79158 11.7064C9.79158 7.73909 3.41337 0.376383 3.41337 0.376383Z" fill="white"/>
</svg>
