<svg width="442" height="234" viewBox="0 0 442 234" fill="none" xmlns="http://www.w3.org/2000/svg">
<g filter="url(#filter0_b_2109_8608)">
<rect x="0.541992" y="-0.00292969" width="440.916" height="233.607" rx="4.8855" fill="#F0F0F0" fill-opacity="0.04"/>
<rect x="1.15268" y="0.607757" width="439.695" height="232.386" rx="4.27481" stroke="url(#paint0_linear_2109_8608)" stroke-opacity="0.2" stroke-width="1.22137"/>
<rect x="26.8018" y="19.5391" width="36.0505" height="26.6461" fill="#0DFFF1"/>
<rect x="27.4124" y="20.1497" width="34.8292" height="25.4247" stroke="white" stroke-opacity="0.1" stroke-width="1.22137"/>
<path d="M34.3 32.5029C34.3391 31.8971 34.5703 31.4248 34.9937 31.0861C35.4237 30.7474 35.9708 30.578 36.6353 30.578C37.0912 30.578 37.4853 30.6595 37.8175 30.8223C38.1498 30.9852 38.4005 31.2066 38.5699 31.4867C38.7393 31.7668 38.824 32.0828 38.824 32.4345C38.824 32.8384 38.7165 33.1836 38.5015 33.4702C38.2866 33.7569 38.0293 33.949 37.7296 34.0467V34.0858C38.1139 34.2031 38.4136 34.418 38.6285 34.7307C38.8435 35.0369 38.951 35.431 38.951 35.913C38.951 36.2973 38.863 36.6393 38.6872 36.9389C38.5113 37.2386 38.2507 37.4763 37.9055 37.6522C37.5602 37.8216 37.1466 37.9063 36.6646 37.9063C35.9611 37.9063 35.3813 37.7271 34.9253 37.3689C34.4759 37.0041 34.2348 36.483 34.2023 35.8055H35.2771C35.3031 36.1507 35.4367 36.4341 35.6777 36.6556C35.9187 36.8705 36.2444 36.978 36.6548 36.978C37.0522 36.978 37.3583 36.8705 37.5733 36.6556C37.7882 36.4341 37.8957 36.1507 37.8957 35.8055C37.8957 35.3495 37.7491 35.0271 37.456 34.8382C37.1694 34.6428 36.7265 34.5451 36.1272 34.5451H35.8731V33.6266H36.1369C36.6646 33.6201 37.0652 33.5321 37.3388 33.3628C37.6189 33.1934 37.7589 32.9263 37.7589 32.5615C37.7589 32.2489 37.658 32.0013 37.456 31.8189C37.2541 31.63 36.9675 31.5356 36.5962 31.5356C36.2314 31.5356 35.948 31.63 35.7461 31.8189C35.5442 32.0013 35.4237 32.2293 35.3846 32.5029H34.3ZM39.9745 31.7603V30.7441H42.0069V37.8672H40.8832V31.7603H39.9745ZM44.1331 37.9356C43.9312 37.9356 43.7618 37.8672 43.625 37.7304C43.4882 37.5936 43.4198 37.4242 43.4198 37.2223C43.4198 37.0204 43.4882 36.851 43.625 36.7142C43.7618 36.5774 43.9312 36.509 44.1331 36.509C44.3285 36.509 44.4946 36.5774 44.6314 36.7142C44.7682 36.851 44.8366 37.0204 44.8366 37.2223C44.8366 37.4242 44.7682 37.5936 44.6314 37.7304C44.4946 37.8672 44.3285 37.9356 44.1331 37.9356ZM50.4863 31.7017H47.213V33.6461C47.3498 33.4637 47.5518 33.3106 47.8188 33.1869C48.0924 33.0631 48.3823 33.0012 48.6885 33.0012C49.2356 33.0012 49.6786 33.1185 50.0173 33.353C50.3626 33.5875 50.6068 33.8839 50.7501 34.2421C50.9 34.6004 50.9749 34.9782 50.9749 35.3756C50.9749 35.8576 50.8804 36.2875 50.6915 36.6654C50.5091 37.0367 50.2323 37.3298 49.861 37.5447C49.4962 37.7597 49.0467 37.8672 48.5126 37.8672C47.8026 37.8672 47.2326 37.6913 46.8027 37.3396C46.3727 36.9878 46.1154 36.522 46.0308 35.9423H47.1153C47.187 36.2485 47.3466 36.4927 47.5941 36.6751C47.8416 36.851 48.1511 36.9389 48.5224 36.9389C48.9848 36.9389 49.3301 36.7989 49.5581 36.5188C49.7926 36.2387 49.9098 35.8674 49.9098 35.4049C49.9098 34.9359 49.7926 34.5776 49.5581 34.3301C49.3236 34.076 48.9783 33.949 48.5224 33.949C48.2032 33.949 47.9328 34.0304 47.7114 34.1933C47.4964 34.3496 47.3401 34.5646 47.2424 34.8382H46.1871V30.7246H50.4863V31.7017ZM51.9585 32.4638C51.9585 31.9883 52.0953 31.617 52.3689 31.3499C52.649 31.0763 53.0073 30.9396 53.4437 30.9396C53.8802 30.9396 54.2352 31.0763 54.5088 31.3499C54.7889 31.617 54.9289 31.9883 54.9289 32.4638C54.9289 32.9394 54.7889 33.3139 54.5088 33.5875C54.2352 33.8611 53.8802 33.9979 53.4437 33.9979C53.0073 33.9979 52.649 33.8611 52.3689 33.5875C52.0953 33.3139 51.9585 32.9394 51.9585 32.4638ZM57.9188 31.0666L54.0202 37.8672H52.9259L56.8245 31.0666H57.9188ZM53.4437 31.6138C53.0333 31.6138 52.8282 31.8971 52.8282 32.4638C52.8282 33.0371 53.0333 33.3237 53.4437 33.3237C53.6391 33.3237 53.789 33.2553 53.8932 33.1185C54.0039 32.9752 54.0593 32.757 54.0593 32.4638C54.0593 31.8971 53.8541 31.6138 53.4437 31.6138ZM55.9353 36.4602C55.9353 35.9846 56.0721 35.6133 56.3457 35.3463C56.6258 35.0727 56.9841 34.9359 57.4205 34.9359C57.8504 34.9359 58.2022 35.0727 58.4758 35.3463C58.7559 35.6133 58.8959 35.9846 58.8959 36.4602C58.8959 36.9357 58.7559 37.3102 58.4758 37.5838C58.2022 37.8574 57.8504 37.9942 57.4205 37.9942C56.9841 37.9942 56.6258 37.8574 56.3457 37.5838C56.0721 37.3102 55.9353 36.9357 55.9353 36.4602ZM57.4108 35.6101C57.0004 35.6101 56.7952 35.8934 56.7952 36.4602C56.7952 37.0269 57.0004 37.3102 57.4108 37.3102C57.8211 37.3102 58.0263 37.0269 58.0263 36.4602C58.0263 35.8934 57.8211 35.6101 57.4108 35.6101Z" fill="#032A28"/>
<path d="M77.5287 28.7313V32.1463H81.2514V33.2455H77.5287V36.7631H81.6911V37.8623H76.195V27.6321H81.6911V28.7313H77.5287ZM83.0497 33.8318C83.0497 33.0012 83.2158 32.2782 83.548 31.6626C83.8803 31.0373 84.3395 30.5536 84.9258 30.2116C85.5218 29.8696 86.2009 29.6986 86.963 29.6986C87.9499 29.6986 88.7609 29.938 89.396 30.4168C90.0409 30.8956 90.4659 31.56 90.6711 32.4101H89.2348C89.098 31.9215 88.8293 31.5356 88.4287 31.2522C88.0378 30.9689 87.5493 30.8272 86.963 30.8272C86.2009 30.8272 85.5853 31.091 85.1163 31.6186C84.6473 32.1365 84.4128 32.8742 84.4128 33.8318C84.4128 34.7991 84.6473 35.5466 85.1163 36.0742C85.5853 36.6018 86.2009 36.8657 86.963 36.8657C87.5493 36.8657 88.0378 36.7289 88.4287 36.4553C88.8195 36.1817 89.0882 35.7909 89.2348 35.2828H90.6711C90.4561 36.1035 90.0262 36.7631 89.3813 37.2614C88.7364 37.7499 87.9303 37.9942 86.963 37.9942C86.2009 37.9942 85.5218 37.8232 84.9258 37.4812C84.3395 37.1393 83.8803 36.6556 83.548 36.0302C83.2158 35.4049 83.0497 34.6721 83.0497 33.8318ZM95.7924 37.9942C95.04 37.9942 94.3561 37.8232 93.7405 37.4812C93.1347 37.1393 92.6559 36.6556 92.3042 36.0302C91.9622 35.3951 91.7912 34.6623 91.7912 33.8318C91.7912 33.011 91.9671 32.288 92.3188 31.6626C92.6803 31.0275 93.1689 30.5438 93.7845 30.2116C94.4 29.8696 95.0889 29.6986 95.851 29.6986C96.6132 29.6986 97.302 29.8696 97.9176 30.2116C98.5332 30.5438 99.0168 31.0226 99.3686 31.648C99.7301 32.2733 99.9109 33.0012 99.9109 33.8318C99.9109 34.6623 99.7252 35.3951 99.3539 36.0302C98.9924 36.6556 98.499 37.1393 97.8736 37.4812C97.2483 37.8232 96.5545 37.9942 95.7924 37.9942ZM95.7924 36.8217C96.2712 36.8217 96.7206 36.7093 97.1408 36.4846C97.5609 36.2599 97.898 35.9228 98.1521 35.4733C98.4159 35.0238 98.5478 34.4767 98.5478 33.8318C98.5478 33.1869 98.4208 32.6397 98.1667 32.1902C97.9127 31.7408 97.5805 31.4086 97.1701 31.1936C96.7597 30.9689 96.3151 30.8565 95.8364 30.8565C95.3478 30.8565 94.8984 30.9689 94.488 31.1936C94.0874 31.4086 93.7649 31.7408 93.5206 32.1902C93.2764 32.6397 93.1542 33.1869 93.1542 33.8318C93.1542 34.4864 93.2715 35.0385 93.506 35.488C93.7503 35.9374 94.0727 36.2745 94.4733 36.4993C94.8739 36.7142 95.3136 36.8217 95.7924 36.8217ZM104.347 37.9942C103.731 37.9942 103.179 37.8916 102.69 37.6864C102.202 37.4715 101.816 37.1783 101.533 36.807C101.249 36.426 101.093 35.9912 101.064 35.5026H102.441C102.48 35.9032 102.666 36.2305 102.998 36.4846C103.34 36.7386 103.785 36.8657 104.332 36.8657C104.84 36.8657 105.241 36.7533 105.534 36.5286C105.827 36.3038 105.974 36.0205 105.974 35.6785C105.974 35.3267 105.817 35.0678 105.504 34.9017C105.192 34.7258 104.708 34.5548 104.054 34.3887C103.457 34.2324 102.969 34.076 102.588 33.9197C102.217 33.7536 101.894 33.5142 101.621 33.2015C101.357 32.8791 101.225 32.4589 101.225 31.9411C101.225 31.5307 101.347 31.1545 101.591 30.8125C101.835 30.4705 102.182 30.2018 102.632 30.0064C103.081 29.8012 103.594 29.6986 104.171 29.6986C105.06 29.6986 105.778 29.9234 106.325 30.3728C106.872 30.8223 107.166 31.4379 107.205 32.2196H105.871C105.842 31.7994 105.671 31.4623 105.358 31.2083C105.055 30.9542 104.645 30.8272 104.127 30.8272C103.648 30.8272 103.267 30.9298 102.984 31.135C102.7 31.3402 102.559 31.6089 102.559 31.9411C102.559 32.2049 102.642 32.4247 102.808 32.6006C102.984 32.7667 103.199 32.9035 103.453 33.011C103.716 33.1087 104.078 33.2211 104.537 33.3481C105.114 33.5044 105.583 33.6608 105.944 33.8171C106.306 33.9637 106.614 34.1884 106.868 34.4913C107.131 34.7942 107.268 35.1899 107.278 35.6785C107.278 36.1182 107.156 36.5139 106.912 36.8657C106.667 37.2174 106.32 37.4959 105.871 37.7011C105.431 37.8965 104.923 37.9942 104.347 37.9942ZM115.917 29.8305L111.081 41.6437H109.703L111.286 37.7744L108.047 29.8305H109.527L112.048 36.338L114.54 29.8305H115.917ZM119.94 37.9942C119.325 37.9942 118.773 37.8916 118.284 37.6864C117.795 37.4715 117.41 37.1783 117.126 36.807C116.843 36.426 116.686 35.9912 116.657 35.5026H118.035C118.074 35.9032 118.26 36.2305 118.592 36.4846C118.934 36.7386 119.378 36.8657 119.926 36.8657C120.434 36.8657 120.834 36.7533 121.127 36.5286C121.421 36.3038 121.567 36.0205 121.567 35.6785C121.567 35.3267 121.411 35.0678 121.098 34.9017C120.785 34.7258 120.302 34.5548 119.647 34.3887C119.051 34.2324 118.563 34.076 118.181 33.9197C117.81 33.7536 117.488 33.5142 117.214 33.2015C116.95 32.8791 116.818 32.4589 116.818 31.9411C116.818 31.5307 116.941 31.1545 117.185 30.8125C117.429 30.4705 117.776 30.2018 118.225 30.0064C118.675 29.8012 119.188 29.6986 119.764 29.6986C120.654 29.6986 121.372 29.9234 121.919 30.3728C122.466 30.8223 122.759 31.4379 122.798 32.2196H121.464C121.435 31.7994 121.264 31.4623 120.952 31.2083C120.649 30.9542 120.238 30.8272 119.72 30.8272C119.242 30.8272 118.861 30.9298 118.577 31.135C118.294 31.3402 118.152 31.6089 118.152 31.9411C118.152 32.2049 118.235 32.4247 118.401 32.6006C118.577 32.7667 118.792 32.9035 119.046 33.011C119.31 33.1087 119.672 33.2211 120.131 33.3481C120.707 33.5044 121.176 33.6608 121.538 33.8171C121.899 33.9637 122.207 34.1884 122.461 34.4913C122.725 34.7942 122.862 35.1899 122.872 35.6785C122.872 36.1182 122.749 36.5139 122.505 36.8657C122.261 37.2174 121.914 37.4959 121.464 37.7011C121.025 37.8965 120.517 37.9942 119.94 37.9942ZM126.22 30.9298V35.6638C126.22 36.0547 126.303 36.3331 126.469 36.4993C126.635 36.6556 126.923 36.7338 127.334 36.7338H128.316V37.8623H127.114C126.371 37.8623 125.814 37.6913 125.443 37.3493C125.072 37.0073 124.886 36.4455 124.886 35.6638V30.9298H123.846V29.8305H124.886V27.808H126.22V29.8305H128.316V30.9298H126.22ZM137.099 33.5386C137.099 33.7927 137.084 34.0614 137.055 34.3447H130.635C130.684 35.1362 130.953 35.7567 131.441 36.2061C131.94 36.6458 132.541 36.8657 133.244 36.8657C133.821 36.8657 134.299 36.7338 134.681 36.4699C135.071 36.1964 135.345 35.8348 135.501 35.3854H136.938C136.723 36.1573 136.293 36.7875 135.648 37.276C135.003 37.7548 134.202 37.9942 133.244 37.9942C132.482 37.9942 131.798 37.8232 131.192 37.4812C130.596 37.1393 130.127 36.6556 129.785 36.0302C129.443 35.3951 129.272 34.6623 129.272 33.8318C129.272 33.0012 129.438 32.2733 129.771 31.648C130.103 31.0226 130.567 30.5438 131.163 30.2116C131.769 29.8696 132.463 29.6986 133.244 29.6986C134.006 29.6986 134.681 29.8647 135.267 30.197C135.853 30.5292 136.303 30.9884 136.615 31.5747C136.938 32.1512 137.099 32.8058 137.099 33.5386ZM135.721 33.2602C135.721 32.7521 135.609 32.3173 135.384 31.9557C135.159 31.5844 134.852 31.306 134.461 31.1203C134.08 30.9249 133.655 30.8272 133.186 30.8272C132.511 30.8272 131.935 31.0422 131.456 31.4721C130.987 31.902 130.718 32.498 130.65 33.2602H135.721ZM148.357 29.684C148.982 29.684 149.539 29.8159 150.028 30.0797C150.516 30.3338 150.902 30.7197 151.185 31.2376C151.469 31.7554 151.61 32.3857 151.61 33.1283V37.8623H150.291V33.3188C150.291 32.5176 150.091 31.9069 149.69 31.4867C149.3 31.0568 148.767 30.8418 148.093 30.8418C147.399 30.8418 146.847 31.0666 146.437 31.516C146.026 31.9557 145.821 32.5957 145.821 33.436V37.8623H144.502V33.3188C144.502 32.5176 144.302 31.9069 143.901 31.4867C143.51 31.0568 142.978 30.8418 142.304 30.8418C141.61 30.8418 141.058 31.0666 140.647 31.516C140.237 31.9557 140.032 32.5957 140.032 33.436V37.8623H138.698V29.8305H140.032V30.9884C140.296 30.5683 140.647 30.2458 141.087 30.0211C141.537 29.7964 142.03 29.684 142.567 29.684C143.242 29.684 143.838 29.8354 144.356 30.1383C144.873 30.4412 145.259 30.8858 145.513 31.4721C145.738 30.9054 146.109 30.4657 146.627 30.153C147.145 29.8403 147.722 29.684 148.357 29.684ZM160.696 29.6986C161.389 29.6986 161.995 29.8501 162.513 30.153C163.041 30.4559 163.432 30.837 163.686 31.2962V29.8305H165.034V38.0382C165.034 38.771 164.878 39.4208 164.565 39.9875C164.252 40.564 163.803 41.0134 163.217 41.3359C162.64 41.6583 161.966 41.8196 161.194 41.8196C160.139 41.8196 159.259 41.5704 158.556 41.0721C157.852 40.5738 157.437 39.8947 157.31 39.0348H158.629C158.776 39.5234 159.079 39.9142 159.538 40.2073C159.997 40.5102 160.549 40.6617 161.194 40.6617C161.927 40.6617 162.523 40.4321 162.982 39.9728C163.451 39.5136 163.686 38.8687 163.686 38.0382V36.3527C163.422 36.8217 163.031 37.2125 162.513 37.5252C161.995 37.8379 161.389 37.9942 160.696 37.9942C159.982 37.9942 159.333 37.8183 158.746 37.4666C158.17 37.1148 157.716 36.6214 157.383 35.9863C157.051 35.3512 156.885 34.6281 156.885 33.8171C156.885 32.9964 157.051 32.2782 157.383 31.6626C157.716 31.0373 158.17 30.5536 158.746 30.2116C159.333 29.8696 159.982 29.6986 160.696 29.6986ZM163.686 33.8318C163.686 33.226 163.563 32.6983 163.319 32.2489C163.075 31.7994 162.743 31.4574 162.323 31.2229C161.912 30.9786 161.458 30.8565 160.96 30.8565C160.461 30.8565 160.007 30.9738 159.596 31.2083C159.186 31.4428 158.859 31.7847 158.614 32.2342C158.37 32.6837 158.248 33.2113 158.248 33.8171C158.248 34.4327 158.37 34.9701 158.614 35.4293C158.859 35.8788 159.186 36.2257 159.596 36.4699C160.007 36.7044 160.461 36.8217 160.96 36.8217C161.458 36.8217 161.912 36.7044 162.323 36.4699C162.743 36.2257 163.075 35.8788 163.319 35.4293C163.563 34.9701 163.686 34.4376 163.686 33.8318ZM168.46 31.135C168.695 30.6757 169.027 30.3191 169.457 30.0651C169.897 29.811 170.429 29.684 171.055 29.684V31.0617H170.703C169.208 31.0617 168.46 31.8727 168.46 33.4947V37.8623H167.127V29.8305H168.46V31.135ZM175.936 37.9942C175.184 37.9942 174.5 37.8232 173.884 37.4812C173.278 37.1393 172.799 36.6556 172.448 36.0302C172.106 35.3951 171.935 34.6623 171.935 33.8318C171.935 33.011 172.111 32.288 172.462 31.6626C172.824 31.0275 173.312 30.5438 173.928 30.2116C174.544 29.8696 175.232 29.6986 175.995 29.6986C176.757 29.6986 177.446 29.8696 178.061 30.2116C178.677 30.5438 179.16 31.0226 179.512 31.648C179.874 32.2733 180.054 33.0012 180.054 33.8318C180.054 34.6623 179.869 35.3951 179.497 36.0302C179.136 36.6556 178.642 37.1393 178.017 37.4812C177.392 37.8232 176.698 37.9942 175.936 37.9942ZM175.936 36.8217C176.415 36.8217 176.864 36.7093 177.284 36.4846C177.704 36.2599 178.042 35.9228 178.296 35.4733C178.559 35.0238 178.691 34.4767 178.691 33.8318C178.691 33.1869 178.564 32.6397 178.31 32.1902C178.056 31.7408 177.724 31.4086 177.314 31.1936C176.903 30.9689 176.459 30.8565 175.98 30.8565C175.491 30.8565 175.042 30.9689 174.631 31.1936C174.231 31.4086 173.908 31.7408 173.664 32.1902C173.42 32.6397 173.298 33.1869 173.298 33.8318C173.298 34.4864 173.415 35.0385 173.649 35.488C173.894 35.9374 174.216 36.2745 174.617 36.4993C175.017 36.7142 175.457 36.8217 175.936 36.8217ZM192.346 29.8305L189.84 37.8623H188.462L186.527 31.4867L184.593 37.8623H183.215L180.694 29.8305H182.057L183.904 36.5725L185.897 29.8305H187.26L189.21 36.5872L191.027 29.8305H192.346ZM195.135 30.9298V35.6638C195.135 36.0547 195.218 36.3331 195.385 36.4993C195.551 36.6556 195.839 36.7338 196.249 36.7338H197.231V37.8623H196.029C195.287 37.8623 194.73 37.6913 194.359 37.3493C193.987 37.0073 193.802 36.4455 193.802 35.6638V30.9298H192.761V29.8305H193.802V27.808H195.135V29.8305H197.231V30.9298H195.135ZM202.673 29.684C203.278 29.684 203.826 29.8159 204.314 30.0797C204.803 30.3338 205.184 30.7197 205.457 31.2376C205.741 31.7554 205.882 32.3857 205.882 33.1283V37.8623H204.563V33.3188C204.563 32.5176 204.363 31.9069 203.962 31.4867C203.562 31.0568 203.015 30.8418 202.321 30.8418C201.617 30.8418 201.055 31.0617 200.635 31.5014C200.225 31.9411 200.02 32.5811 200.02 33.4214V37.8623H198.686V27.0165H200.02V30.9738C200.284 30.5634 200.645 30.2458 201.104 30.0211C201.573 29.7964 202.096 29.684 202.673 29.684Z" fill="#575757"/>
<rect x="231.992" y="19.5391" width="36.0505" height="26.6461" fill="#0AD4C9"/>
<rect x="232.603" y="20.1497" width="34.8292" height="25.4247" stroke="white" stroke-opacity="0.1" stroke-width="1.22137"/>
<path d="M242.521 36.3527C243.147 35.812 243.638 35.3691 243.997 35.0238C244.361 34.6721 244.664 34.3073 244.905 33.9295C245.146 33.5517 245.267 33.1739 245.267 32.796C245.267 32.4052 245.172 32.099 244.983 31.8776C244.801 31.6561 244.511 31.5454 244.114 31.5454C243.73 31.5454 243.43 31.6691 243.215 31.9167C243.006 32.1577 242.896 32.4834 242.883 32.8938H241.808C241.827 32.1512 242.049 31.5844 242.472 31.1936C242.902 30.7962 243.446 30.5976 244.104 30.5976C244.814 30.5976 245.368 30.793 245.765 31.1838C246.169 31.5747 246.371 32.0958 246.371 32.7472C246.371 33.2162 246.25 33.6689 246.009 34.1054C245.775 34.5353 245.492 34.9229 245.159 35.2681C244.834 35.6068 244.417 36.0009 243.909 36.4504L243.469 36.8412H246.566V37.7695H241.818V36.9585L242.521 36.3527ZM251.375 32.3954C251.303 32.0958 251.173 31.8711 250.984 31.7212C250.795 31.5714 250.532 31.4965 250.193 31.4965C249.678 31.4965 249.294 31.6952 249.04 32.0925C248.786 32.4834 248.652 33.1348 248.639 34.0467C248.809 33.7601 249.056 33.5386 249.382 33.3823C249.708 33.226 250.059 33.1478 250.437 33.1478C250.867 33.1478 251.245 33.2423 251.571 33.4312C251.903 33.6135 252.16 33.8806 252.342 34.2324C252.531 34.5841 252.626 35.0043 252.626 35.4928C252.626 35.9488 252.535 36.3559 252.352 36.7142C252.176 37.0725 251.913 37.3558 251.561 37.5643C251.209 37.7662 250.786 37.8672 250.291 37.8672C249.62 37.8672 249.092 37.7206 248.708 37.4275C248.33 37.1278 248.063 36.7077 247.906 36.167C247.757 35.6264 247.682 34.9522 247.682 34.1444C247.682 31.7603 248.522 30.5683 250.203 30.5683C250.854 30.5683 251.365 30.7441 251.737 31.0959C252.114 31.4476 252.336 31.8808 252.401 32.3954H251.375ZM250.193 34.0858C249.795 34.0858 249.457 34.2063 249.177 34.4473C248.903 34.6818 248.766 35.0238 248.766 35.4733C248.766 35.9228 248.893 36.281 249.147 36.5481C249.408 36.8087 249.769 36.9389 250.232 36.9389C250.642 36.9389 250.965 36.8119 251.199 36.5579C251.44 36.3038 251.561 35.9651 251.561 35.5417C251.561 35.0987 251.444 34.747 251.209 34.4864C250.981 34.2194 250.642 34.0858 250.193 34.0858ZM253.638 32.4638C253.638 31.9883 253.775 31.617 254.048 31.3499C254.329 31.0763 254.687 30.9396 255.123 30.9396C255.56 30.9396 255.915 31.0763 256.188 31.3499C256.468 31.617 256.608 31.9883 256.608 32.4638C256.608 32.9394 256.468 33.3139 256.188 33.5875C255.915 33.8611 255.56 33.9979 255.123 33.9979C254.687 33.9979 254.329 33.8611 254.048 33.5875C253.775 33.3139 253.638 32.9394 253.638 32.4638ZM259.598 31.0666L255.7 37.8672H254.605L258.504 31.0666H259.598ZM255.123 31.6138C254.713 31.6138 254.508 31.8971 254.508 32.4638C254.508 33.0371 254.713 33.3237 255.123 33.3237C255.319 33.3237 255.469 33.2553 255.573 33.1185C255.684 32.9752 255.739 32.757 255.739 32.4638C255.739 31.8971 255.534 31.6138 255.123 31.6138ZM257.615 36.4602C257.615 35.9846 257.752 35.6133 258.025 35.3463C258.305 35.0727 258.664 34.9359 259.1 34.9359C259.53 34.9359 259.882 35.0727 260.155 35.3463C260.435 35.6133 260.576 35.9846 260.576 36.4602C260.576 36.9357 260.435 37.3102 260.155 37.5838C259.882 37.8574 259.53 37.9942 259.1 37.9942C258.664 37.9942 258.305 37.8574 258.025 37.5838C257.752 37.3102 257.615 36.9357 257.615 36.4602ZM259.09 35.6101C258.68 35.6101 258.475 35.8934 258.475 36.4602C258.475 37.0269 258.68 37.3102 259.09 37.3102C259.501 37.3102 259.706 37.0269 259.706 36.4602C259.706 35.8934 259.501 35.6101 259.09 35.6101Z" fill="#032A28"/>
<path d="M288.215 30.6367C288.215 31.4867 287.922 32.1951 287.336 32.7618C286.759 33.3188 285.875 33.5973 284.683 33.5973H282.719V37.8623H281.385V27.6467H284.683C285.836 27.6467 286.711 27.9252 287.307 28.4822C287.912 29.0391 288.215 29.7573 288.215 30.6367ZM284.683 32.498C285.426 32.498 285.973 32.3368 286.325 32.0144C286.676 31.6919 286.852 31.2327 286.852 30.6367C286.852 29.3762 286.129 28.746 284.683 28.746H282.719V32.498H284.683ZM291.046 31.135C291.28 30.6757 291.612 30.3191 292.042 30.0651C292.482 29.811 293.014 29.684 293.64 29.684V31.0617H293.288C291.793 31.0617 291.046 31.8727 291.046 33.4947V37.8623H289.712V29.8305H291.046V31.135ZM302.346 33.5386C302.346 33.7927 302.332 34.0614 302.302 34.3447H295.883C295.932 35.1362 296.2 35.7567 296.689 36.2061C297.187 36.6458 297.788 36.8657 298.492 36.8657C299.068 36.8657 299.547 36.7338 299.928 36.4699C300.319 36.1964 300.592 35.8348 300.749 35.3854H302.185C301.97 36.1573 301.54 36.7875 300.895 37.276C300.25 37.7548 299.449 37.9942 298.492 37.9942C297.73 37.9942 297.046 37.8232 296.44 37.4812C295.844 37.1393 295.375 36.6556 295.033 36.0302C294.691 35.3951 294.52 34.6623 294.52 33.8318C294.52 33.0012 294.686 32.2733 295.018 31.648C295.35 31.0226 295.814 30.5438 296.41 30.2116C297.016 29.8696 297.71 29.6986 298.492 29.6986C299.254 29.6986 299.928 29.8647 300.514 30.197C301.101 30.5292 301.55 30.9884 301.863 31.5747C302.185 32.1512 302.346 32.8058 302.346 33.5386ZM300.969 33.2602C300.969 32.7521 300.856 32.3173 300.632 31.9557C300.407 31.5844 300.099 31.306 299.708 31.1203C299.327 30.9249 298.902 30.8272 298.433 30.8272C297.759 30.8272 297.182 31.0422 296.704 31.4721C296.235 31.902 295.966 32.498 295.897 33.2602H300.969ZM309.515 31.9264V33.055H303.667V31.9264H309.515ZM314.7 37.9942C314.085 37.9942 313.533 37.8916 313.044 37.6864C312.556 37.4715 312.17 37.1783 311.886 36.807C311.603 36.426 311.447 35.9912 311.417 35.5026H312.795C312.834 35.9032 313.02 36.2305 313.352 36.4846C313.694 36.7386 314.138 36.8657 314.686 36.8657C315.194 36.8657 315.594 36.7533 315.887 36.5286C316.181 36.3038 316.327 36.0205 316.327 35.6785C316.327 35.3267 316.171 35.0678 315.858 34.9017C315.545 34.7258 315.062 34.5548 314.407 34.3887C313.811 34.2324 313.323 34.076 312.941 33.9197C312.57 33.7536 312.248 33.5142 311.974 33.2015C311.71 32.8791 311.578 32.4589 311.578 31.9411C311.578 31.5307 311.701 31.1545 311.945 30.8125C312.189 30.4705 312.536 30.2018 312.985 30.0064C313.435 29.8012 313.948 29.6986 314.524 29.6986C315.414 29.6986 316.132 29.9234 316.679 30.3728C317.226 30.8223 317.519 31.4379 317.558 32.2196H316.225C316.195 31.7994 316.024 31.4623 315.712 31.2083C315.409 30.9542 314.998 30.8272 314.48 30.8272C314.002 30.8272 313.621 30.9298 313.337 31.135C313.054 31.3402 312.912 31.6089 312.912 31.9411C312.912 32.2049 312.995 32.4247 313.161 32.6006C313.337 32.7667 313.552 32.9035 313.806 33.011C314.07 33.1087 314.432 33.2211 314.891 33.3481C315.467 33.5044 315.936 33.6608 316.298 33.8171C316.659 33.9637 316.967 34.1884 317.221 34.4913C317.485 34.7942 317.622 35.1899 317.632 35.6785C317.632 36.1182 317.509 36.5139 317.265 36.8657C317.021 37.2174 316.674 37.4959 316.225 37.7011C315.785 37.8965 315.277 37.9942 314.7 37.9942ZM318.855 33.8171C318.855 32.9964 319.021 32.2782 319.353 31.6626C319.685 31.0373 320.14 30.5536 320.716 30.2116C321.302 29.8696 321.952 29.6986 322.665 29.6986C323.369 29.6986 323.98 29.8501 324.498 30.153C325.015 30.4559 325.401 30.837 325.655 31.2962V29.8305H327.004V37.8623H325.655V36.3673C325.392 36.8364 324.996 37.2272 324.468 37.5399C323.95 37.8428 323.345 37.9942 322.651 37.9942C321.938 37.9942 321.293 37.8183 320.716 37.4666C320.14 37.1148 319.685 36.6214 319.353 35.9863C319.021 35.3512 318.855 34.6281 318.855 33.8171ZM325.655 33.8318C325.655 33.226 325.533 32.6983 325.289 32.2489C325.045 31.7994 324.713 31.4574 324.292 31.2229C323.882 30.9786 323.428 30.8565 322.929 30.8565C322.431 30.8565 321.977 30.9738 321.566 31.2083C321.156 31.4428 320.829 31.7847 320.584 32.2342C320.34 32.6837 320.218 33.2113 320.218 33.8171C320.218 34.4327 320.34 34.9701 320.584 35.4293C320.829 35.8788 321.156 36.2257 321.566 36.4699C321.977 36.7044 322.431 36.8217 322.929 36.8217C323.428 36.8217 323.882 36.7044 324.292 36.4699C324.713 36.2257 325.045 35.8788 325.289 35.4293C325.533 34.9701 325.655 34.4376 325.655 33.8318ZM330.43 27.0165V37.8623H329.096V27.0165H330.43ZM339.87 33.5386C339.87 33.7927 339.856 34.0614 339.826 34.3447H333.407C333.456 35.1362 333.724 35.7567 334.213 36.2061C334.711 36.6458 335.312 36.8657 336.016 36.8657C336.592 36.8657 337.071 36.7338 337.452 36.4699C337.843 36.1964 338.116 35.8348 338.273 35.3854H339.709C339.494 36.1573 339.064 36.7875 338.419 37.276C337.775 37.7548 336.973 37.9942 336.016 37.9942C335.254 37.9942 334.57 37.8232 333.964 37.4812C333.368 37.1393 332.899 36.6556 332.557 36.0302C332.215 35.3951 332.044 34.6623 332.044 33.8318C332.044 33.0012 332.21 32.2733 332.542 31.648C332.874 31.0226 333.338 30.5438 333.935 30.2116C334.54 29.8696 335.234 29.6986 336.016 29.6986C336.778 29.6986 337.452 29.8647 338.038 30.197C338.625 30.5292 339.074 30.9884 339.387 31.5747C339.709 32.1512 339.87 32.8058 339.87 33.5386ZM338.493 33.2602C338.493 32.7521 338.38 32.3173 338.156 31.9557C337.931 31.5844 337.623 31.306 337.232 31.1203C336.851 30.9249 336.426 30.8272 335.957 30.8272C335.283 30.8272 334.706 31.0422 334.228 31.4721C333.759 31.902 333.49 32.498 333.422 33.2602H338.493ZM344.313 37.9942C343.697 37.9942 343.145 37.8916 342.657 37.6864C342.168 37.4715 341.782 37.1783 341.499 36.807C341.216 36.426 341.059 35.9912 341.03 35.5026H342.408C342.447 35.9032 342.632 36.2305 342.965 36.4846C343.307 36.7386 343.751 36.8657 344.298 36.8657C344.806 36.8657 345.207 36.7533 345.5 36.5286C345.793 36.3038 345.94 36.0205 345.94 35.6785C345.94 35.3267 345.784 35.0678 345.471 34.9017C345.158 34.7258 344.675 34.5548 344.02 34.3887C343.424 34.2324 342.935 34.076 342.554 33.9197C342.183 33.7536 341.86 33.5142 341.587 33.2015C341.323 32.8791 341.191 32.4589 341.191 31.9411C341.191 31.5307 341.313 31.1545 341.558 30.8125C341.802 30.4705 342.149 30.2018 342.598 30.0064C343.048 29.8012 343.561 29.6986 344.137 29.6986C345.026 29.6986 345.744 29.9234 346.292 30.3728C346.839 30.8223 347.132 31.4379 347.171 32.2196H345.837C345.808 31.7994 345.637 31.4623 345.324 31.2083C345.021 30.9542 344.611 30.8272 344.093 30.8272C343.614 30.8272 343.233 30.9298 342.95 31.135C342.667 31.3402 342.525 31.6089 342.525 31.9411C342.525 32.2049 342.608 32.4247 342.774 32.6006C342.95 32.7667 343.165 32.9035 343.419 33.011C343.683 33.1087 344.044 33.2211 344.504 33.3481C345.08 33.5044 345.549 33.6608 345.911 33.8171C346.272 33.9637 346.58 34.1884 346.834 34.4913C347.098 34.7942 347.235 35.1899 347.244 35.6785C347.244 36.1182 347.122 36.5139 346.878 36.8657C346.634 37.2174 346.287 37.4959 345.837 37.7011C345.398 37.8965 344.89 37.9942 344.313 37.9942Z" fill="#575757"/>
<line x1="20.084" y1="60.2311" x2="421.916" y2="60.2311" stroke="url(#paint1_linear_2109_8608)" stroke-opacity="0.06" stroke-width="1.22137"/>
<rect x="26.8018" y="75.498" width="36.0505" height="26.6461" fill="#032A28"/>
<rect x="27.4124" y="76.1087" width="34.8292" height="25.4247" stroke="white" stroke-opacity="0.1" stroke-width="1.22137"/>
<path d="M37.9162 87.9429V86.9268H39.9486V94.0498H38.8249V87.9429H37.9162ZM46.0712 87.8843H42.7979V89.8287C42.9347 89.6463 43.1366 89.4933 43.4037 89.3695C43.6773 89.2457 43.9672 89.1839 44.2733 89.1839C44.8205 89.1839 45.2635 89.3011 45.6022 89.5356C45.9474 89.7701 46.1917 90.0665 46.335 90.4248C46.4848 90.783 46.5597 91.1608 46.5597 91.5582C46.5597 92.0402 46.4653 92.4702 46.2764 92.848C46.094 93.2193 45.8171 93.5124 45.4458 93.7274C45.0811 93.9423 44.6316 94.0498 44.0974 94.0498C43.3874 94.0498 42.8174 93.8739 42.3875 93.5222C41.9576 93.1704 41.7003 92.7047 41.6156 92.1249H42.7002C42.7719 92.4311 42.9314 92.6754 43.179 92.8577C43.4265 93.0336 43.7359 93.1216 44.1072 93.1216C44.5697 93.1216 44.915 92.9815 45.1429 92.7014C45.3774 92.4213 45.4947 92.05 45.4947 91.5875C45.4947 91.1185 45.3774 90.7602 45.1429 90.5127C44.9084 90.2587 44.5632 90.1316 44.1072 90.1316C43.788 90.1316 43.5177 90.2131 43.2962 90.3759C43.0813 90.5322 42.9249 90.7472 42.8272 91.0208H41.772V86.9072H46.0712V87.8843ZM47.5434 88.6464C47.5434 88.1709 47.6802 87.7996 47.9538 87.5326C48.2339 87.259 48.5922 87.1222 49.0286 87.1222C49.465 87.1222 49.82 87.259 50.0936 87.5326C50.3737 87.7996 50.5138 88.1709 50.5138 88.6464C50.5138 89.122 50.3737 89.4965 50.0936 89.7701C49.82 90.0437 49.465 90.1805 49.0286 90.1805C48.5922 90.1805 48.2339 90.0437 47.9538 89.7701C47.6802 89.4965 47.5434 89.122 47.5434 88.6464ZM53.5037 87.2492L49.6051 94.0498H48.5107L52.4094 87.2492H53.5037ZM49.0286 87.7964C48.6182 87.7964 48.413 88.0797 48.413 88.6464C48.413 89.2197 48.6182 89.5063 49.0286 89.5063C49.224 89.5063 49.3738 89.4379 49.4781 89.3011C49.5888 89.1578 49.6442 88.9396 49.6442 88.6464C49.6442 88.0797 49.439 87.7964 49.0286 87.7964ZM51.5202 92.6428C51.5202 92.1673 51.657 91.796 51.9306 91.5289C52.2107 91.2553 52.569 91.1185 53.0054 91.1185C53.4353 91.1185 53.7871 91.2553 54.0607 91.5289C54.3408 91.796 54.4808 92.1673 54.4808 92.6428C54.4808 93.1183 54.3408 93.4929 54.0607 93.7664C53.7871 94.04 53.4353 94.1768 53.0054 94.1768C52.569 94.1768 52.2107 94.04 51.9306 93.7664C51.657 93.4929 51.5202 93.1183 51.5202 92.6428ZM52.9956 91.7927C52.5852 91.7927 52.38 92.0761 52.38 92.6428C52.38 93.2095 52.5852 93.4929 52.9956 93.4929C53.406 93.4929 53.6112 93.2095 53.6112 92.6428C53.6112 92.0761 53.406 91.7927 52.9956 91.7927Z" fill="#F0F0F0"/>
<path d="M82.4826 83.6057V84.6903H79.6979V93.8213H78.3641V84.6903H75.5647V83.6057H82.4826ZM91.2914 89.4976C91.2914 89.7517 91.2767 90.0204 91.2474 90.3037H84.8279C84.8767 91.0952 85.1454 91.7156 85.634 92.1651C86.1323 92.6048 86.7332 92.8246 87.4367 92.8246C88.0132 92.8246 88.492 92.6927 88.873 92.4289C89.2639 92.1553 89.5375 91.7938 89.6938 91.3443H91.1301C90.9152 92.1163 90.4853 92.7465 89.8404 93.235C89.1955 93.7138 88.3943 93.9532 87.4367 93.9532C86.6746 93.9532 85.9906 93.7822 85.3848 93.4402C84.7888 93.0982 84.3198 92.6146 83.9778 91.9892C83.6358 91.3541 83.4648 90.6213 83.4648 89.7908C83.4648 88.9602 83.6309 88.2323 83.9631 87.6069C84.2953 86.9816 84.7595 86.5028 85.3555 86.1706C85.9613 85.8286 86.655 85.6576 87.4367 85.6576C88.1988 85.6576 88.873 85.8237 89.4593 86.1559C90.0456 86.4882 90.495 86.9474 90.8077 87.5337C91.1301 88.1101 91.2914 88.7648 91.2914 89.4976ZM89.9137 89.2192C89.9137 88.7111 89.8013 88.2763 89.5766 87.9147C89.3518 87.5434 89.044 87.265 88.6532 87.0793C88.2721 86.8839 87.8471 86.7862 87.3781 86.7862C86.7039 86.7862 86.1274 87.0011 85.6486 87.4311C85.1796 87.861 84.9109 88.457 84.8425 89.2192H89.9137ZM92.3923 89.7761C92.3923 88.9553 92.5584 88.2372 92.8906 87.6216C93.2229 86.9963 93.6772 86.5126 94.2537 86.1706C94.84 85.8286 95.4897 85.6576 96.203 85.6576C96.9065 85.6576 97.5172 85.8091 98.0351 86.112C98.5529 86.4149 98.9389 86.7959 99.1929 87.2552V85.7895H100.541V93.8213H99.1929V92.3263C98.9291 92.7953 98.5334 93.1862 98.0058 93.4988C97.4879 93.8017 96.8821 93.9532 96.1884 93.9532C95.4751 93.9532 94.8302 93.7773 94.2537 93.4256C93.6772 93.0738 93.2229 92.5804 92.8906 91.9453C92.5584 91.3101 92.3923 90.5871 92.3923 89.7761ZM99.1929 89.7908C99.1929 89.185 99.0708 88.6573 98.8265 88.2079C98.5822 87.7584 98.25 87.4164 97.8299 87.1819C97.4195 86.9376 96.9651 86.8155 96.4668 86.8155C95.9685 86.8155 95.5142 86.9327 95.1038 87.1672C94.6934 87.4017 94.3661 87.7437 94.1218 88.1932C93.8775 88.6427 93.7554 89.1703 93.7554 89.7761C93.7554 90.3917 93.8775 90.9291 94.1218 91.3883C94.3661 91.8378 94.6934 92.1846 95.1038 92.4289C95.5142 92.6634 95.9685 92.7807 96.4668 92.7807C96.9651 92.7807 97.4195 92.6634 97.8299 92.4289C98.25 92.1846 98.5822 91.8378 98.8265 91.3883C99.0708 90.9291 99.1929 90.3966 99.1929 89.7908ZM112.293 85.643C112.918 85.643 113.475 85.7749 113.963 86.0387C114.452 86.2927 114.838 86.6787 115.121 87.1966C115.405 87.7144 115.546 88.3446 115.546 89.0872V93.8213H114.227V89.2778C114.227 88.4766 114.027 87.8659 113.626 87.4457C113.236 87.0158 112.703 86.8008 112.029 86.8008C111.335 86.8008 110.783 87.0256 110.373 87.475C109.962 87.9147 109.757 88.5547 109.757 89.395V93.8213H108.438V89.2778C108.438 88.4766 108.238 87.8659 107.837 87.4457C107.446 87.0158 106.914 86.8008 106.239 86.8008C105.546 86.8008 104.994 87.0256 104.583 87.475C104.173 87.9147 103.968 88.5547 103.968 89.395V93.8213H102.634V85.7895H103.968V86.9474C104.232 86.5272 104.583 86.2048 105.023 85.9801C105.472 85.7553 105.966 85.643 106.503 85.643C107.178 85.643 107.774 85.7944 108.291 86.0973C108.809 86.4002 109.195 86.8448 109.449 87.4311C109.674 86.8643 110.045 86.4246 110.563 86.112C111.081 85.7993 111.658 85.643 112.293 85.643ZM129.16 93.8213L127.827 92.4729C127.328 92.9908 126.796 93.3767 126.229 93.6308C125.662 93.875 125.022 93.9972 124.309 93.9972C123.606 93.9972 122.98 93.8701 122.433 93.6161C121.896 93.3621 121.476 93.0005 121.173 92.5315C120.879 92.0625 120.733 91.5153 120.733 90.89C120.733 90.1767 120.933 89.5514 121.334 89.014C121.744 88.4668 122.345 88.0369 123.137 87.7242C122.824 87.3529 122.599 87.0109 122.462 86.6982C122.326 86.3856 122.257 86.0436 122.257 85.6723C122.257 85.2424 122.365 84.8564 122.58 84.5144C122.804 84.1627 123.122 83.8891 123.532 83.6937C123.943 83.4982 124.417 83.4005 124.954 83.4005C125.482 83.4005 125.941 83.5031 126.332 83.7083C126.723 83.9135 127.016 84.2017 127.211 84.573C127.407 84.9346 127.494 85.3401 127.475 85.7895H126.141C126.151 85.3889 126.039 85.0763 125.804 84.8515C125.57 84.617 125.267 84.4998 124.895 84.4998C124.505 84.4998 124.187 84.6121 123.943 84.8369C123.708 85.0518 123.591 85.3303 123.591 85.6723C123.591 85.9654 123.669 86.2488 123.825 86.5224C123.992 86.7959 124.265 87.133 124.646 87.5337L127.695 90.5969L127.959 90.1865L128.955 88.5156H130.392L129.19 90.5969C129.024 90.89 128.828 91.1978 128.603 91.5202L130.905 93.8213H129.16ZM124.309 92.854C124.837 92.854 125.311 92.7514 125.731 92.5462C126.161 92.341 126.566 92.0234 126.947 91.5935L123.943 88.5743C122.692 89.053 122.067 89.8103 122.067 90.846C122.067 91.4225 122.272 91.9013 122.682 92.2824C123.102 92.6634 123.645 92.854 124.309 92.854ZM141.778 91.5495H137.322L136.501 93.8213H135.094L138.788 83.6643H140.327L144.005 93.8213H142.598L141.778 91.5495ZM141.397 90.465L139.55 85.3059L137.703 90.465H141.397ZM144.956 89.7761C144.956 88.9553 145.122 88.2372 145.454 87.6216C145.786 86.9963 146.24 86.5126 146.817 86.1706C147.403 85.8286 148.058 85.6576 148.781 85.6576C149.406 85.6576 149.988 85.8042 150.525 86.0973C151.062 86.3807 151.473 86.7569 151.756 87.2259V82.9755H153.105V93.8213H151.756V92.3117C151.492 92.7904 151.101 93.1862 150.584 93.4988C150.066 93.8017 149.46 93.9532 148.766 93.9532C148.053 93.9532 147.403 93.7773 146.817 93.4256C146.24 93.0738 145.786 92.5804 145.454 91.9453C145.122 91.3101 144.956 90.5871 144.956 89.7761ZM151.756 89.7908C151.756 89.185 151.634 88.6573 151.39 88.2079C151.145 87.7584 150.813 87.4164 150.393 87.1819C149.983 86.9376 149.528 86.8155 149.03 86.8155C148.532 86.8155 148.077 86.9327 147.667 87.1672C147.257 87.4017 146.929 87.7437 146.685 88.1932C146.441 88.6427 146.319 89.1703 146.319 89.7761C146.319 90.3917 146.441 90.9291 146.685 91.3883C146.929 91.8378 147.257 92.1846 147.667 92.4289C148.077 92.6634 148.532 92.7807 149.03 92.7807C149.528 92.7807 149.983 92.6634 150.393 92.4289C150.813 92.1846 151.145 91.8378 151.39 91.3883C151.634 90.9291 151.756 90.3966 151.756 89.7908ZM158.187 92.5901L160.679 85.7895H162.1L158.949 93.8213H157.396L154.245 85.7895H155.681L158.187 92.5901ZM163.94 84.4851C163.686 84.4851 163.471 84.3972 163.296 84.2213C163.12 84.0454 163.032 83.8304 163.032 83.5764C163.032 83.3224 163.12 83.1074 163.296 82.9315C163.471 82.7556 163.686 82.6677 163.94 82.6677C164.185 82.6677 164.39 82.7556 164.556 82.9315C164.732 83.1074 164.82 83.3224 164.82 83.5764C164.82 83.8304 164.732 84.0454 164.556 84.2213C164.39 84.3972 164.185 84.4851 163.94 84.4851ZM164.585 85.7895V93.8213H163.252V85.7895H164.585ZM169.541 93.9532C168.925 93.9532 168.373 93.8506 167.884 93.6454C167.396 93.4304 167.01 93.1373 166.727 92.766C166.443 92.385 166.287 91.9501 166.258 91.4616H167.635C167.674 91.8622 167.86 92.1895 168.192 92.4436C168.534 92.6976 168.979 92.8246 169.526 92.8246C170.034 92.8246 170.435 92.7123 170.728 92.4875C171.021 92.2628 171.168 91.9795 171.168 91.6375C171.168 91.2857 171.011 91.0268 170.699 90.8607C170.386 90.6848 169.902 90.5138 169.248 90.3477C168.651 90.1914 168.163 90.035 167.782 89.8787C167.411 89.7126 167.088 89.4732 166.815 89.1605C166.551 88.8381 166.419 88.4179 166.419 87.9001C166.419 87.4897 166.541 87.1135 166.785 86.7715C167.029 86.4295 167.376 86.1608 167.826 85.9654C168.275 85.7602 168.788 85.6576 169.365 85.6576C170.254 85.6576 170.972 85.8824 171.519 86.3318C172.066 86.7813 172.36 87.3969 172.399 88.1785H171.065C171.036 87.7584 170.865 87.4213 170.552 87.1672C170.249 86.9132 169.839 86.7862 169.321 86.7862C168.842 86.7862 168.461 86.8888 168.178 87.094C167.894 87.2992 167.753 87.5679 167.753 87.9001C167.753 88.1639 167.836 88.3837 168.002 88.5596C168.178 88.7257 168.393 88.8625 168.647 88.97C168.91 89.0677 169.272 89.1801 169.731 89.3071C170.308 89.4634 170.777 89.6198 171.138 89.7761C171.5 89.9227 171.808 90.1474 172.062 90.4503C172.325 90.7532 172.462 91.1489 172.472 91.6375C172.472 92.0772 172.35 92.4729 172.106 92.8246C171.861 93.1764 171.514 93.4549 171.065 93.6601C170.625 93.8555 170.117 93.9532 169.541 93.9532ZM177.696 93.9532C176.944 93.9532 176.26 93.7822 175.644 93.4402C175.039 93.0982 174.56 92.6146 174.208 91.9892C173.866 91.3541 173.695 90.6213 173.695 89.7908C173.695 88.97 173.871 88.2469 174.223 87.6216C174.584 86.9865 175.073 86.5028 175.688 86.1706C176.304 85.8286 176.993 85.6576 177.755 85.6576C178.517 85.6576 179.206 85.8286 179.822 86.1706C180.437 86.5028 180.921 86.9816 181.273 87.6069C181.634 88.2323 181.815 88.9602 181.815 89.7908C181.815 90.6213 181.629 91.3541 181.258 91.9892C180.896 92.6146 180.403 93.0982 179.778 93.4402C179.152 93.7822 178.459 93.9532 177.696 93.9532ZM177.696 92.7807C178.175 92.7807 178.625 92.6683 179.045 92.4436C179.465 92.2188 179.802 91.8817 180.056 91.4323C180.32 90.9828 180.452 90.4356 180.452 89.7908C180.452 89.1459 180.325 88.5987 180.071 88.1492C179.817 87.6998 179.484 87.3675 179.074 87.1526C178.664 86.9279 178.219 86.8155 177.74 86.8155C177.252 86.8155 176.802 86.9279 176.392 87.1526C175.991 87.3675 175.669 87.6998 175.425 88.1492C175.18 88.5987 175.058 89.1459 175.058 89.7908C175.058 90.4454 175.175 90.9975 175.41 91.4469C175.654 91.8964 175.977 92.2335 176.377 92.4582C176.778 92.6732 177.218 92.7807 177.696 92.7807ZM184.741 87.094C184.976 86.6347 185.308 86.2781 185.738 86.024C186.177 85.77 186.71 85.643 187.335 85.643V87.0207H186.983C185.489 87.0207 184.741 87.8317 184.741 89.4537V93.8213H183.407V85.7895H184.741V87.094ZM191.557 93.9532C190.941 93.9532 190.389 93.8506 189.901 93.6454C189.412 93.4304 189.026 93.1373 188.743 92.766C188.46 92.385 188.303 91.9501 188.274 91.4616H189.652C189.691 91.8622 189.876 92.1895 190.209 92.4436C190.551 92.6976 190.995 92.8246 191.542 92.8246C192.05 92.8246 192.451 92.7123 192.744 92.4875C193.037 92.2628 193.184 91.9795 193.184 91.6375C193.184 91.2857 193.028 91.0268 192.715 90.8607C192.402 90.6848 191.919 90.5138 191.264 90.3477C190.668 90.1914 190.179 90.035 189.798 89.8787C189.427 89.7126 189.104 89.4732 188.831 89.1605C188.567 88.8381 188.435 88.4179 188.435 87.9001C188.435 87.4897 188.557 87.1135 188.802 86.7715C189.046 86.4295 189.393 86.1608 189.842 85.9654C190.292 85.7602 190.805 85.6576 191.381 85.6576C192.27 85.6576 192.988 85.8824 193.536 86.3318C194.083 86.7813 194.376 87.3969 194.415 88.1785H193.081C193.052 87.7584 192.881 87.4213 192.568 87.1672C192.265 86.9132 191.855 86.7862 191.337 86.7862C190.858 86.7862 190.477 86.8888 190.194 87.094C189.911 87.2992 189.769 87.5679 189.769 87.9001C189.769 88.1639 189.852 88.3837 190.018 88.5596C190.194 88.7257 190.409 88.8625 190.663 88.97C190.927 89.0677 191.288 89.1801 191.748 89.3071C192.324 89.4634 192.793 89.6198 193.155 89.7761C193.516 89.9227 193.824 90.1474 194.078 90.4503C194.342 90.7532 194.479 91.1489 194.488 91.6375C194.488 92.0772 194.366 92.4729 194.122 92.8246C193.878 93.1764 193.531 93.4549 193.081 93.6601C192.642 93.8555 192.133 93.9532 191.557 93.9532Z" fill="#575757"/>
<rect x="231.992" y="75.498" width="36.0505" height="26.6461" fill="#0A8078"/>
<rect x="232.603" y="76.1087" width="34.8292" height="25.4247" stroke="white" stroke-opacity="0.1" stroke-width="1.22137"/>
<path d="M241.842 87.9429V86.9268H243.874V94.0498H242.751V87.9429H241.842ZM245.268 92.5646V91.7243L248.551 87.0147H249.899V91.5973H250.808V92.5646H249.899V94.0498H248.805V92.5646H245.268ZM248.854 88.1481L246.548 91.5973H248.854V88.1481ZM251.555 88.6464C251.555 88.1709 251.692 87.7996 251.965 87.5326C252.246 87.259 252.604 87.1222 253.04 87.1222C253.477 87.1222 253.832 87.259 254.105 87.5326C254.385 87.7996 254.525 88.1709 254.525 88.6464C254.525 89.122 254.385 89.4965 254.105 89.7701C253.832 90.0437 253.477 90.1805 253.04 90.1805C252.604 90.1805 252.246 90.0437 251.965 89.7701C251.692 89.4965 251.555 89.122 251.555 88.6464ZM257.515 87.2492L253.617 94.0498H252.522L256.421 87.2492H257.515ZM253.04 87.7964C252.63 87.7964 252.425 88.0797 252.425 88.6464C252.425 89.2197 252.63 89.5063 253.04 89.5063C253.236 89.5063 253.386 89.4379 253.49 89.3011C253.6 89.1578 253.656 88.9396 253.656 88.6464C253.656 88.0797 253.451 87.7964 253.04 87.7964ZM255.532 92.6428C255.532 92.1673 255.669 91.796 255.942 91.5289C256.222 91.2553 256.581 91.1185 257.017 91.1185C257.447 91.1185 257.799 91.2553 258.072 91.5289C258.352 91.796 258.492 92.1673 258.492 92.6428C258.492 93.1183 258.352 93.4929 258.072 93.7664C257.799 94.04 257.447 94.1768 257.017 94.1768C256.581 94.1768 256.222 94.04 255.942 93.7664C255.669 93.4929 255.532 93.1183 255.532 92.6428ZM257.007 91.7927C256.597 91.7927 256.392 92.0761 256.392 92.6428C256.392 93.2095 256.597 93.4929 257.007 93.4929C257.418 93.4929 257.623 93.2095 257.623 92.6428C257.623 92.0761 257.418 91.7927 257.007 91.7927Z" fill="#F0F0F0"/>
<path d="M280.887 88.7062C280.887 87.7095 281.112 86.8155 281.561 86.024C282.011 85.2228 282.621 84.5975 283.393 84.148C284.175 83.6985 285.04 83.4738 285.988 83.4738C287.101 83.4738 288.074 83.7425 288.904 84.2799C289.735 84.8173 290.341 85.5795 290.722 86.5663H289.124C288.841 85.9508 288.43 85.4769 287.893 85.1446C287.365 84.8124 286.73 84.6463 285.988 84.6463C285.274 84.6463 284.634 84.8124 284.068 85.1446C283.501 85.4769 283.056 85.9508 282.734 86.5663C282.411 87.1721 282.25 87.8854 282.25 88.7062C282.25 89.5172 282.411 90.2304 282.734 90.846C283.056 91.4518 283.501 91.9208 284.068 92.253C284.634 92.5853 285.274 92.7514 285.988 92.7514C286.73 92.7514 287.365 92.5901 287.893 92.2677C288.43 91.9355 288.841 91.4616 289.124 90.846H290.722C290.341 91.8231 289.735 92.5804 288.904 93.1178C288.074 93.6454 287.101 93.9092 285.988 93.9092C285.04 93.9092 284.175 93.6894 283.393 93.2497C282.621 92.8002 282.011 92.1798 281.561 91.3883C281.112 90.5969 280.887 89.7028 280.887 88.7062ZM296.049 93.9532C295.296 93.9532 294.612 93.7822 293.997 93.4402C293.391 93.0982 292.912 92.6146 292.56 91.9892C292.218 91.3541 292.047 90.6213 292.047 89.7908C292.047 88.97 292.223 88.2469 292.575 87.6216C292.937 86.9865 293.425 86.5028 294.041 86.1706C294.656 85.8286 295.345 85.6576 296.107 85.6576C296.869 85.6576 297.558 85.8286 298.174 86.1706C298.789 86.5028 299.273 86.9816 299.625 87.6069C299.986 88.2323 300.167 88.9602 300.167 89.7908C300.167 90.6213 299.981 91.3541 299.61 91.9892C299.249 92.6146 298.755 93.0982 298.13 93.4402C297.505 93.7822 296.811 93.9532 296.049 93.9532ZM296.049 92.7807C296.527 92.7807 296.977 92.6683 297.397 92.4436C297.817 92.2188 298.154 91.8817 298.408 91.4323C298.672 90.9828 298.804 90.4356 298.804 89.7908C298.804 89.1459 298.677 88.5987 298.423 88.1492C298.169 87.6998 297.837 87.3675 297.426 87.1526C297.016 86.9279 296.571 86.8155 296.093 86.8155C295.604 86.8155 295.155 86.9279 294.744 87.1526C294.344 87.3675 294.021 87.6998 293.777 88.1492C293.533 88.5987 293.41 89.1459 293.41 89.7908C293.41 90.4454 293.528 90.9975 293.762 91.4469C294.006 91.8964 294.329 92.2335 294.73 92.4582C295.13 92.6732 295.57 92.7807 296.049 92.7807ZM311.418 85.643C312.043 85.643 312.6 85.7749 313.089 86.0387C313.578 86.2927 313.963 86.6787 314.247 87.1966C314.53 87.7144 314.672 88.3446 314.672 89.0872V93.8213H313.353V89.2778C313.353 88.4766 313.152 87.8659 312.752 87.4457C312.361 87.0158 311.829 86.8008 311.154 86.8008C310.461 86.8008 309.909 87.0256 309.498 87.475C309.088 87.9147 308.883 88.5547 308.883 89.395V93.8213H307.563V89.2778C307.563 88.4766 307.363 87.8659 306.963 87.4457C306.572 87.0158 306.039 86.8008 305.365 86.8008C304.671 86.8008 304.119 87.0256 303.709 87.475C303.298 87.9147 303.093 88.5547 303.093 89.395V93.8213H301.76V85.7895H303.093V86.9474C303.357 86.5272 303.709 86.2048 304.149 85.9801C304.598 85.7553 305.091 85.643 305.629 85.643C306.303 85.643 306.899 85.7944 307.417 86.0973C307.935 86.4002 308.321 86.8448 308.575 87.4311C308.8 86.8643 309.171 86.4246 309.689 86.112C310.207 85.7993 310.783 85.643 311.418 85.643ZM326.357 85.643C326.982 85.643 327.539 85.7749 328.028 86.0387C328.516 86.2927 328.902 86.6787 329.186 87.1966C329.469 87.7144 329.611 88.3446 329.611 89.0872V93.8213H328.292V89.2778C328.292 88.4766 328.091 87.8659 327.691 87.4457C327.3 87.0158 326.767 86.8008 326.093 86.8008C325.4 86.8008 324.847 87.0256 324.437 87.475C324.027 87.9147 323.822 88.5547 323.822 89.395V93.8213H322.502V89.2778C322.502 88.4766 322.302 87.8659 321.902 87.4457C321.511 87.0158 320.978 86.8008 320.304 86.8008C319.61 86.8008 319.058 87.0256 318.648 87.475C318.237 87.9147 318.032 88.5547 318.032 89.395V93.8213H316.698V85.7895H318.032V86.9474C318.296 86.5272 318.648 86.2048 319.087 85.9801C319.537 85.7553 320.03 85.643 320.568 85.643C321.242 85.643 321.838 85.7944 322.356 86.0973C322.874 86.4002 323.26 86.8448 323.514 87.4311C323.738 86.8643 324.11 86.4246 324.628 86.112C325.145 85.7993 325.722 85.643 326.357 85.643ZM338.76 85.7895V93.8213H337.427V92.6341C337.173 93.0445 336.816 93.3669 336.357 93.6014C335.907 93.8262 335.409 93.9385 334.862 93.9385C334.237 93.9385 333.675 93.8115 333.176 93.5575C332.678 93.2937 332.282 92.9028 331.989 92.385C331.706 91.8671 331.564 91.2369 331.564 90.4943V85.7895H332.883V90.3184C332.883 91.1098 333.084 91.7205 333.484 92.1504C333.885 92.5706 334.432 92.7807 335.126 92.7807C335.839 92.7807 336.401 92.5608 336.811 92.1211C337.222 91.6814 337.427 91.0414 337.427 90.2011V85.7895H338.76ZM344.765 85.643C345.742 85.643 346.533 85.941 347.139 86.537C347.745 87.1233 348.048 87.9734 348.048 89.0872V93.8213H346.728V89.2778C346.728 88.4766 346.528 87.8659 346.128 87.4457C345.727 87.0158 345.18 86.8008 344.486 86.8008C343.783 86.8008 343.221 87.0207 342.801 87.4604C342.39 87.9001 342.185 88.5401 342.185 89.3804V93.8213H340.851V85.7895H342.185V86.9327C342.449 86.5224 342.805 86.2048 343.255 85.9801C343.714 85.7553 344.217 85.643 344.765 85.643ZM350.754 84.4851C350.5 84.4851 350.285 84.3972 350.109 84.2213C349.933 84.0454 349.845 83.8304 349.845 83.5764C349.845 83.3224 349.933 83.1074 350.109 82.9315C350.285 82.7556 350.5 82.6677 350.754 82.6677C350.998 82.6677 351.203 82.7556 351.369 82.9315C351.545 83.1074 351.633 83.3224 351.633 83.5764C351.633 83.8304 351.545 84.0454 351.369 84.2213C351.203 84.3972 350.998 84.4851 350.754 84.4851ZM351.399 85.7895V93.8213H350.065V85.7895H351.399ZM355.138 86.8888V91.6228C355.138 92.0137 355.221 92.2921 355.387 92.4582C355.553 92.6146 355.841 92.6927 356.251 92.6927H357.233V93.8213H356.032C355.289 93.8213 354.732 93.6503 354.361 93.3083C353.989 92.9663 353.804 92.4045 353.804 91.6228V86.8888H352.763V85.7895H353.804V83.7669H355.138V85.7895H357.233V86.8888H355.138ZM365.606 85.7895L360.769 97.6027H359.392L360.975 93.7334L357.736 85.7895H359.216L361.737 92.297L364.228 85.7895H365.606ZM371.866 87.094C372.1 86.6347 372.432 86.2781 372.862 86.024C373.302 85.77 373.834 85.643 374.46 85.643V87.0207H374.108C372.613 87.0207 371.866 87.8317 371.866 89.4537V93.8213H370.532V85.7895H371.866V87.094ZM383.166 89.4976C383.166 89.7517 383.152 90.0204 383.122 90.3037H376.703C376.752 91.0952 377.02 91.7156 377.509 92.1651C378.007 92.6048 378.608 92.8246 379.312 92.8246C379.888 92.8246 380.367 92.6927 380.748 92.4289C381.139 92.1553 381.412 91.7938 381.569 91.3443H383.005C382.79 92.1163 382.36 92.7465 381.715 93.235C381.07 93.7138 380.269 93.9532 379.312 93.9532C378.55 93.9532 377.866 93.7822 377.26 93.4402C376.664 93.0982 376.195 92.6146 375.853 91.9892C375.511 91.3541 375.34 90.6213 375.34 89.7908C375.34 88.9602 375.506 88.2323 375.838 87.6069C376.17 86.9816 376.634 86.5028 377.23 86.1706C377.836 85.8286 378.53 85.6576 379.312 85.6576C380.074 85.6576 380.748 85.8237 381.334 86.1559C381.921 86.4882 382.37 86.9474 382.683 87.5337C383.005 88.1101 383.166 88.7648 383.166 89.4976ZM381.789 89.2192C381.789 88.7111 381.676 88.2763 381.452 87.9147C381.227 87.5434 380.919 87.265 380.528 87.0793C380.147 86.8839 379.722 86.7862 379.253 86.7862C378.579 86.7862 378.002 87.0011 377.524 87.4311C377.055 87.861 376.786 88.457 376.717 89.2192H381.789ZM395.465 85.7895L392.959 93.8213H391.581L389.646 87.4457L387.712 93.8213H386.334L383.813 85.7895H385.176L387.023 92.5315L389.016 85.7895H390.379L392.328 92.5462L394.146 85.7895H395.465ZM396.129 89.7761C396.129 88.9553 396.295 88.2372 396.627 87.6216C396.96 86.9963 397.414 86.5126 397.99 86.1706C398.577 85.8286 399.226 85.6576 399.94 85.6576C400.643 85.6576 401.254 85.8091 401.772 86.112C402.29 86.4149 402.676 86.7959 402.93 87.2552V85.7895H404.278V93.8213H402.93V92.3263C402.666 92.7953 402.27 93.1862 401.742 93.4988C401.225 93.8017 400.619 93.9532 399.925 93.9532C399.212 93.9532 398.567 93.7773 397.99 93.4256C397.414 93.0738 396.96 92.5804 396.627 91.9453C396.295 91.3101 396.129 90.5871 396.129 89.7761ZM402.93 89.7908C402.93 89.185 402.807 88.6573 402.563 88.2079C402.319 87.7584 401.987 87.4164 401.567 87.1819C401.156 86.9376 400.702 86.8155 400.203 86.8155C399.705 86.8155 399.251 86.9327 398.84 87.1672C398.43 87.4017 398.103 87.7437 397.858 88.1932C397.614 88.6427 397.492 89.1703 397.492 89.7761C397.492 90.3917 397.614 90.9291 397.858 91.3883C398.103 91.8378 398.43 92.1846 398.84 92.4289C399.251 92.6634 399.705 92.7807 400.203 92.7807C400.702 92.7807 401.156 92.6634 401.567 92.4289C401.987 92.1846 402.319 91.8378 402.563 91.3883C402.807 90.9291 402.93 90.3966 402.93 89.7908ZM407.704 87.094C407.939 86.6347 408.271 86.2781 408.701 86.024C409.141 85.77 409.673 85.643 410.299 85.643V87.0207H409.947C408.452 87.0207 407.704 87.8317 407.704 89.4537V93.8213H406.371V85.7895H407.704V87.094ZM411.179 89.7761C411.179 88.9553 411.345 88.2372 411.677 87.6216C412.009 86.9963 412.464 86.5126 413.04 86.1706C413.626 85.8286 414.281 85.6576 415.004 85.6576C415.629 85.6576 416.211 85.8042 416.748 86.0973C417.286 86.3807 417.696 86.7569 417.979 87.2259V82.9755H419.328V93.8213H417.979V92.3117C417.715 92.7904 417.325 93.1862 416.807 93.4988C416.289 93.8017 415.683 93.9532 414.989 93.9532C414.276 93.9532 413.626 93.7773 413.04 93.4256C412.464 93.0738 412.009 92.5804 411.677 91.9453C411.345 91.3101 411.179 90.5871 411.179 89.7761ZM417.979 89.7908C417.979 89.185 417.857 88.6573 417.613 88.2079C417.369 87.7584 417.036 87.4164 416.616 87.1819C416.206 86.9376 415.752 86.8155 415.253 86.8155C414.755 86.8155 414.301 86.9327 413.89 87.1672C413.48 87.4017 413.152 87.7437 412.908 88.1932C412.664 88.6427 412.542 89.1703 412.542 89.7761C412.542 90.3917 412.664 90.9291 412.908 91.3883C413.152 91.8378 413.48 92.1846 413.89 92.4289C414.301 92.6634 414.755 92.7807 415.253 92.7807C415.752 92.7807 416.206 92.6634 416.616 92.4289C417.036 92.1846 417.369 91.8378 417.613 91.3883C417.857 90.9291 417.979 90.3966 417.979 89.7908ZM424.264 93.9532C423.648 93.9532 423.096 93.8506 422.608 93.6454C422.119 93.4304 421.733 93.1373 421.45 92.766C421.166 92.385 421.01 91.9501 420.981 91.4616H422.358C422.397 91.8622 422.583 92.1895 422.915 92.4436C423.257 92.6976 423.702 92.8246 424.249 92.8246C424.757 92.8246 425.158 92.7123 425.451 92.4875C425.744 92.2628 425.891 91.9795 425.891 91.6375C425.891 91.2857 425.734 91.0268 425.422 90.8607C425.109 90.6848 424.625 90.5138 423.971 90.3477C423.375 90.1914 422.886 90.035 422.505 89.8787C422.134 89.7126 421.811 89.4732 421.538 89.1605C421.274 88.8381 421.142 88.4179 421.142 87.9001C421.142 87.4897 421.264 87.1135 421.508 86.7715C421.753 86.4295 422.099 86.1608 422.549 85.9654C422.998 85.7602 423.511 85.6576 424.088 85.6576C424.977 85.6576 425.695 85.8824 426.242 86.3318C426.79 86.7813 427.083 87.3969 427.122 88.1785H425.788C425.759 87.7584 425.588 87.4213 425.275 87.1672C424.972 86.9132 424.562 86.7862 424.044 86.7862C423.565 86.7862 423.184 86.8888 422.901 87.094C422.617 87.2992 422.476 87.5679 422.476 87.9001C422.476 88.1639 422.559 88.3837 422.725 88.5596C422.901 88.7257 423.116 88.8625 423.37 88.97C423.633 89.0677 423.995 89.1801 424.454 89.3071C425.031 89.4634 425.5 89.6198 425.861 89.7761C426.223 89.9227 426.531 90.1474 426.785 90.4503C427.048 90.7532 427.185 91.1489 427.195 91.6375C427.195 92.0772 427.073 92.4729 426.829 92.8246C426.584 93.1764 426.237 93.4549 425.788 93.6601C425.348 93.8555 424.84 93.9532 424.264 93.9532Z" fill="#575757"/>
<line x1="20.084" y1="116.19" x2="421.916" y2="116.19" stroke="url(#paint2_linear_2109_8608)" stroke-opacity="0.06" stroke-width="1.22137"/>
<rect x="26.8018" y="131.457" width="36.0505" height="26.6461" fill="#055550"/>
<rect x="27.4124" y="132.068" width="34.8292" height="25.4247" stroke="white" stroke-opacity="0.1" stroke-width="1.22137"/>
<path d="M38.9774 146.51C38.3 146.171 37.9612 145.637 37.9612 144.907C37.9612 144.555 38.0492 144.233 38.225 143.94C38.4009 143.647 38.6647 143.416 39.0165 143.246C39.3683 143.07 39.7982 142.982 40.3063 142.982C40.8078 142.982 41.2345 143.07 41.5863 143.246C41.9445 143.416 42.2116 143.647 42.3875 143.94C42.5634 144.233 42.6513 144.555 42.6513 144.907C42.6513 145.272 42.5569 145.594 42.3679 145.875C42.1856 146.148 41.9413 146.36 41.6351 146.51C42.0064 146.646 42.2995 146.871 42.5145 147.184C42.7295 147.49 42.837 147.852 42.837 148.268C42.837 148.692 42.7295 149.066 42.5145 149.392C42.2995 149.718 41.9999 149.969 41.6156 150.144C41.2313 150.32 40.7948 150.408 40.3063 150.408C39.8177 150.408 39.3813 150.32 38.997 150.144C38.6191 149.969 38.3228 149.718 38.1078 149.392C37.8928 149.066 37.7853 148.692 37.7853 148.268C37.7853 147.845 37.8928 147.48 38.1078 147.174C38.3228 146.868 38.6126 146.646 38.9774 146.51ZM41.5863 145.044C41.5863 144.679 41.4723 144.399 41.2443 144.204C41.0163 144.008 40.7036 143.911 40.3063 143.911C39.9154 143.911 39.606 144.008 39.378 144.204C39.15 144.399 39.036 144.682 39.036 145.054C39.036 145.379 39.1533 145.647 39.3878 145.855C39.6288 146.057 39.935 146.158 40.3063 146.158C40.6776 146.158 40.9837 146.054 41.2247 145.845C41.4658 145.637 41.5863 145.37 41.5863 145.044ZM40.3063 146.998C39.8763 146.998 39.5246 147.106 39.251 147.321C38.9839 147.529 38.8504 147.832 38.8504 148.229C38.8504 148.601 38.9807 148.904 39.2412 149.138C39.5018 149.366 39.8568 149.48 40.3063 149.48C40.7492 149.48 41.0977 149.363 41.3518 149.128C41.6123 148.894 41.7426 148.594 41.7426 148.229C41.7426 147.839 41.6091 147.536 41.342 147.321C41.0814 147.106 40.7362 146.998 40.3063 146.998ZM43.8306 144.829C43.8306 144.354 43.9674 143.982 44.241 143.715C44.5211 143.442 44.8794 143.305 45.3158 143.305C45.7522 143.305 46.1073 143.442 46.3808 143.715C46.6609 143.982 46.801 144.354 46.801 144.829C46.801 145.305 46.6609 145.679 46.3808 145.953C46.1073 146.226 45.7522 146.363 45.3158 146.363C44.8794 146.363 44.5211 146.226 44.241 145.953C43.9674 145.679 43.8306 145.305 43.8306 144.829ZM49.7909 143.432L45.8923 150.232H44.7979L48.6966 143.432H49.7909ZM45.3158 143.979C44.9054 143.979 44.7002 144.262 44.7002 144.829C44.7002 145.402 44.9054 145.689 45.3158 145.689C45.5112 145.689 45.661 145.621 45.7653 145.484C45.876 145.34 45.9314 145.122 45.9314 144.829C45.9314 144.262 45.7262 143.979 45.3158 143.979ZM47.8074 148.825C47.8074 148.35 47.9442 147.979 48.2178 147.712C48.4979 147.438 48.8562 147.301 49.2926 147.301C49.7225 147.301 50.0743 147.438 50.3479 147.712C50.628 147.979 50.768 148.35 50.768 148.825C50.768 149.301 50.628 149.675 50.3479 149.949C50.0743 150.223 49.7225 150.359 49.2926 150.359C48.8562 150.359 48.4979 150.223 48.2178 149.949C47.9442 149.675 47.8074 149.301 47.8074 148.825ZM49.2828 147.975C48.8724 147.975 48.6673 148.259 48.6673 148.825C48.6673 149.392 48.8724 149.675 49.2828 149.675C49.6932 149.675 49.8984 149.392 49.8984 148.825C49.8984 148.259 49.6932 147.975 49.2828 147.975Z" fill="#F0F0F0"/>
<path d="M77.5287 148.696H81.1049V149.78H76.195V139.565H77.5287V148.696ZM83.0489 140.444C82.7949 140.444 82.5799 140.356 82.404 140.18C82.2282 140.004 82.1402 139.789 82.1402 139.535C82.1402 139.281 82.2282 139.066 82.404 138.891C82.5799 138.715 82.7949 138.627 83.0489 138.627C83.2932 138.627 83.4984 138.715 83.6645 138.891C83.8404 139.066 83.9283 139.281 83.9283 139.535C83.9283 139.789 83.8404 140.004 83.6645 140.18C83.4984 140.356 83.2932 140.444 83.0489 140.444ZM83.6938 141.749V149.78H82.3601V141.749H83.6938ZM85.3074 145.735C85.3074 144.914 85.4735 144.196 85.8057 143.581C86.1379 142.955 86.5923 142.472 87.1688 142.13C87.755 141.788 88.4097 141.617 89.1327 141.617C89.8265 141.617 90.4323 141.773 90.9501 142.086C91.4778 142.389 91.8637 142.765 92.108 143.214V141.749H93.4564V153.591H92.108V148.3C91.854 148.749 91.4631 149.131 90.9355 149.443C90.4079 149.756 89.7923 149.912 89.0888 149.912C88.3853 149.912 87.7453 149.736 87.1688 149.385C86.5923 149.033 86.1379 148.539 85.8057 147.904C85.4735 147.269 85.3074 146.546 85.3074 145.735ZM92.108 145.75C92.108 145.144 91.9859 144.616 91.7416 144.167C91.4973 143.717 91.1651 143.375 90.745 143.141C90.3346 142.897 89.8802 142.774 89.3819 142.774C88.8836 142.774 88.4292 142.892 88.0188 143.126C87.6085 143.361 87.2811 143.703 87.0369 144.152C86.7926 144.602 86.6705 145.129 86.6705 145.735C86.6705 146.351 86.7926 146.888 87.0369 147.347C87.2811 147.797 87.6085 148.144 88.0188 148.388C88.4292 148.622 88.8836 148.74 89.3819 148.74C89.8802 148.74 90.3346 148.622 90.745 148.388C91.1651 148.144 91.4973 147.797 91.7416 147.347C91.9859 146.888 92.108 146.356 92.108 145.75ZM102.672 141.749V149.78H101.338V148.593C101.084 149.003 100.728 149.326 100.268 149.56C99.819 149.785 99.3207 149.898 98.7735 149.898C98.1482 149.898 97.5863 149.771 97.088 149.516C96.5897 149.253 96.194 148.862 95.9008 148.344C95.6175 147.826 95.4758 147.196 95.4758 146.453V141.749H96.7949V146.277C96.7949 147.069 96.9952 147.68 97.3958 148.109C97.7964 148.53 98.3436 148.74 99.0373 148.74C99.7506 148.74 100.312 148.52 100.723 148.08C101.133 147.64 101.338 147 101.338 146.16V141.749H102.672ZM105.452 140.444C105.198 140.444 104.983 140.356 104.807 140.18C104.631 140.004 104.543 139.789 104.543 139.535C104.543 139.281 104.631 139.066 104.807 138.891C104.983 138.715 105.198 138.627 105.452 138.627C105.696 138.627 105.901 138.715 106.067 138.891C106.243 139.066 106.331 139.281 106.331 139.535C106.331 139.789 106.243 140.004 106.067 140.18C105.901 140.356 105.696 140.444 105.452 140.444ZM106.097 141.749V149.78H104.763V141.749H106.097ZM107.71 145.735C107.71 144.914 107.876 144.196 108.209 143.581C108.541 142.955 108.995 142.472 109.572 142.13C110.158 141.788 110.812 141.617 111.536 141.617C112.161 141.617 112.742 141.763 113.28 142.056C113.817 142.34 114.227 142.716 114.511 143.185V138.934H115.859V149.78H114.511V148.271C114.247 148.749 113.856 149.145 113.338 149.458C112.82 149.761 112.215 149.912 111.521 149.912C110.808 149.912 110.158 149.736 109.572 149.385C108.995 149.033 108.541 148.539 108.209 147.904C107.876 147.269 107.71 146.546 107.71 145.735ZM114.511 145.75C114.511 145.144 114.389 144.616 114.144 144.167C113.9 143.717 113.568 143.375 113.148 143.141C112.737 142.897 112.283 142.774 111.785 142.774C111.286 142.774 110.832 142.892 110.422 143.126C110.011 143.361 109.684 143.703 109.44 144.152C109.195 144.602 109.073 145.129 109.073 145.735C109.073 146.351 109.195 146.888 109.44 147.347C109.684 147.797 110.011 148.144 110.422 148.388C110.832 148.622 111.286 148.74 111.785 148.74C112.283 148.74 112.737 148.622 113.148 148.388C113.568 148.144 113.9 147.797 114.144 147.347C114.389 146.888 114.511 146.356 114.511 145.75ZM118.641 140.444C118.387 140.444 118.172 140.356 117.996 140.18C117.82 140.004 117.732 139.789 117.732 139.535C117.732 139.281 117.82 139.066 117.996 138.891C118.172 138.715 118.387 138.627 118.641 138.627C118.885 138.627 119.09 138.715 119.256 138.891C119.432 139.066 119.52 139.281 119.52 139.535C119.52 139.789 119.432 140.004 119.256 140.18C119.09 140.356 118.885 140.444 118.641 140.444ZM119.286 141.749V149.78H117.952V141.749H119.286ZM123.024 142.848V147.582C123.024 147.973 123.107 148.251 123.274 148.417C123.44 148.574 123.728 148.652 124.138 148.652H125.12V149.78H123.918C123.176 149.78 122.619 149.609 122.248 149.267C121.876 148.925 121.691 148.363 121.691 147.582V142.848H120.65V141.749H121.691V139.726H123.024V141.749H125.12V142.848H123.024ZM133.493 141.749L128.656 153.562H127.279L128.861 149.692L125.622 141.749H127.103L129.624 148.256L132.115 141.749H133.493Z" fill="#575757"/>
<rect x="231.992" y="131.457" width="36.0505" height="26.6461" fill="#0DAAA1"/>
<rect x="232.603" y="132.068" width="34.8292" height="25.4247" stroke="white" stroke-opacity="0.1" stroke-width="1.22137"/>
<path d="M241.136 148.718C241.762 148.177 242.253 147.734 242.612 147.389C242.977 147.037 243.279 146.673 243.52 146.295C243.761 145.917 243.882 145.539 243.882 145.161C243.882 144.77 243.788 144.464 243.599 144.243C243.416 144.021 243.126 143.911 242.729 143.911C242.345 143.911 242.045 144.034 241.83 144.282C241.622 144.523 241.511 144.849 241.498 145.259H240.423C240.443 144.516 240.664 143.95 241.087 143.559C241.517 143.161 242.061 142.963 242.719 142.963C243.429 142.963 243.983 143.158 244.38 143.549C244.784 143.94 244.986 144.461 244.986 145.112C244.986 145.581 244.866 146.034 244.625 146.471C244.39 146.901 244.107 147.288 243.775 147.633C243.449 147.972 243.032 148.366 242.524 148.816L242.084 149.206H245.182V150.135H240.433V149.324L241.136 148.718ZM246.756 150.301C246.554 150.301 246.385 150.232 246.248 150.096C246.111 149.959 246.043 149.789 246.043 149.588C246.043 149.386 246.111 149.216 246.248 149.079C246.385 148.943 246.554 148.874 246.756 148.874C246.952 148.874 247.118 148.943 247.254 149.079C247.391 149.216 247.46 149.386 247.46 149.588C247.46 149.789 247.391 149.959 247.254 150.096C247.118 150.232 246.952 150.301 246.756 150.301ZM253.109 144.067H249.836V146.011C249.973 145.829 250.175 145.676 250.442 145.552C250.715 145.428 251.005 145.366 251.311 145.366C251.859 145.366 252.302 145.484 252.64 145.718C252.986 145.953 253.23 146.249 253.373 146.607C253.523 146.966 253.598 147.343 253.598 147.741C253.598 148.223 253.503 148.653 253.315 149.031C253.132 149.402 252.855 149.695 252.484 149.91C252.119 150.125 251.67 150.232 251.136 150.232C250.426 150.232 249.856 150.057 249.426 149.705C248.996 149.353 248.738 148.887 248.654 148.308H249.738C249.81 148.614 249.97 148.858 250.217 149.04C250.465 149.216 250.774 149.304 251.145 149.304C251.608 149.304 251.953 149.164 252.181 148.884C252.416 148.604 252.533 148.233 252.533 147.77C252.533 147.301 252.416 146.943 252.181 146.695C251.947 146.441 251.601 146.314 251.145 146.314C250.826 146.314 250.556 146.396 250.334 146.559C250.119 146.715 249.963 146.93 249.865 147.203H248.81V143.09H253.109V144.067ZM254.582 144.829C254.582 144.354 254.718 143.982 254.992 143.715C255.272 143.442 255.63 143.305 256.067 143.305C256.503 143.305 256.858 143.442 257.132 143.715C257.412 143.982 257.552 144.354 257.552 144.829C257.552 145.305 257.412 145.679 257.132 145.953C256.858 146.226 256.503 146.363 256.067 146.363C255.63 146.363 255.272 146.226 254.992 145.953C254.718 145.679 254.582 145.305 254.582 144.829ZM260.542 143.432L256.643 150.232H255.549L259.447 143.432H260.542ZM256.067 143.979C255.656 143.979 255.451 144.262 255.451 144.829C255.451 145.402 255.656 145.689 256.067 145.689C256.262 145.689 256.412 145.621 256.516 145.484C256.627 145.34 256.682 145.122 256.682 144.829C256.682 144.262 256.477 143.979 256.067 143.979ZM258.558 148.825C258.558 148.35 258.695 147.979 258.969 147.712C259.249 147.438 259.607 147.301 260.044 147.301C260.473 147.301 260.825 147.438 261.099 147.712C261.379 147.979 261.519 148.35 261.519 148.825C261.519 149.301 261.379 149.675 261.099 149.949C260.825 150.223 260.473 150.359 260.044 150.359C259.607 150.359 259.249 150.223 258.969 149.949C258.695 149.675 258.558 149.301 258.558 148.825ZM260.034 147.975C259.623 147.975 259.418 148.259 259.418 148.825C259.418 149.392 259.623 149.675 260.034 149.675C260.444 149.675 260.649 149.392 260.649 148.825C260.649 148.259 260.444 147.975 260.034 147.975Z" fill="#F0F0F0"/>
<path d="M287.424 147.509H282.968L282.148 149.78H280.741L284.434 139.623H285.973L289.652 149.78H288.245L287.424 147.509ZM287.043 146.424L285.196 141.265L283.349 146.424H287.043ZM291.789 140.444C291.535 140.444 291.32 140.356 291.144 140.18C290.968 140.004 290.88 139.789 290.88 139.535C290.88 139.281 290.968 139.066 291.144 138.891C291.32 138.715 291.535 138.627 291.789 138.627C292.033 138.627 292.238 138.715 292.405 138.891C292.58 139.066 292.668 139.281 292.668 139.535C292.668 139.789 292.58 140.004 292.405 140.18C292.238 140.356 292.033 140.444 291.789 140.444ZM292.434 141.749V149.78H291.1V141.749H292.434ZM295.88 143.053C296.114 142.594 296.446 142.237 296.876 141.983C297.316 141.729 297.848 141.602 298.474 141.602V142.98H298.122C296.627 142.98 295.88 143.791 295.88 145.413V149.78H294.546V141.749H295.88V143.053ZM299.354 145.735C299.354 144.914 299.52 144.196 299.852 143.581C300.184 142.955 300.639 142.472 301.215 142.13C301.801 141.788 302.456 141.617 303.179 141.617C303.804 141.617 304.386 141.763 304.923 142.056C305.461 142.34 305.871 142.716 306.154 143.185V138.934H307.503V149.78H306.154V148.271C305.891 148.749 305.5 149.145 304.982 149.458C304.464 149.761 303.858 149.912 303.164 149.912C302.451 149.912 301.801 149.736 301.215 149.385C300.639 149.033 300.184 148.539 299.852 147.904C299.52 147.269 299.354 146.546 299.354 145.735ZM306.154 145.75C306.154 145.144 306.032 144.616 305.788 144.167C305.544 143.717 305.211 143.375 304.791 143.141C304.381 142.897 303.927 142.774 303.428 142.774C302.93 142.774 302.476 142.892 302.065 143.126C301.655 143.361 301.328 143.703 301.083 144.152C300.839 144.602 300.717 145.129 300.717 145.735C300.717 146.351 300.839 146.888 301.083 147.347C301.328 147.797 301.655 148.144 302.065 148.388C302.476 148.622 302.93 148.74 303.428 148.74C303.927 148.74 304.381 148.622 304.791 148.388C305.211 148.144 305.544 147.797 305.788 147.347C306.032 146.888 306.154 146.356 306.154 145.75ZM310.929 143.053C311.164 142.594 311.496 142.237 311.926 141.983C312.366 141.729 312.898 141.602 313.523 141.602V142.98H313.172C311.677 142.98 310.929 143.791 310.929 145.413V149.78H309.595V141.749H310.929V143.053ZM318.405 149.912C317.652 149.912 316.968 149.741 316.353 149.399C315.747 149.057 315.268 148.574 314.916 147.948C314.574 147.313 314.403 146.58 314.403 145.75C314.403 144.929 314.579 144.206 314.931 143.581C315.293 142.945 315.781 142.462 316.397 142.13C317.012 141.788 317.701 141.617 318.463 141.617C319.225 141.617 319.914 141.788 320.53 142.13C321.145 142.462 321.629 142.941 321.981 143.566C322.342 144.191 322.523 144.919 322.523 145.75C322.523 146.58 322.338 147.313 321.966 147.948C321.605 148.574 321.111 149.057 320.486 149.399C319.861 149.741 319.167 149.912 318.405 149.912ZM318.405 148.74C318.883 148.74 319.333 148.627 319.753 148.403C320.173 148.178 320.51 147.841 320.764 147.391C321.028 146.942 321.16 146.395 321.16 145.75C321.16 145.105 321.033 144.558 320.779 144.108C320.525 143.659 320.193 143.327 319.782 143.112C319.372 142.887 318.927 142.774 318.449 142.774C317.96 142.774 317.511 142.887 317.1 143.112C316.7 143.327 316.377 143.659 316.133 144.108C315.889 144.558 315.767 145.105 315.767 145.75C315.767 146.404 315.884 146.956 316.118 147.406C316.363 147.855 316.685 148.192 317.086 148.417C317.486 148.632 317.926 148.74 318.405 148.74ZM325.449 143.229C325.713 142.77 326.104 142.389 326.622 142.086C327.149 141.773 327.76 141.617 328.454 141.617C329.167 141.617 329.812 141.788 330.389 142.13C330.975 142.472 331.434 142.955 331.766 143.581C332.098 144.196 332.265 144.914 332.265 145.735C332.265 146.546 332.098 147.269 331.766 147.904C331.434 148.539 330.975 149.033 330.389 149.385C329.812 149.736 329.167 149.912 328.454 149.912C327.77 149.912 327.164 149.761 326.636 149.458C326.119 149.145 325.723 148.759 325.449 148.3V153.591H324.116V141.749H325.449V143.229ZM330.902 145.735C330.902 145.129 330.779 144.602 330.535 144.152C330.291 143.703 329.959 143.361 329.538 143.126C329.128 142.892 328.674 142.774 328.175 142.774C327.687 142.774 327.233 142.897 326.812 143.141C326.402 143.375 326.07 143.722 325.816 144.181C325.571 144.631 325.449 145.154 325.449 145.75C325.449 146.356 325.571 146.888 325.816 147.347C326.07 147.797 326.402 148.144 326.812 148.388C327.233 148.622 327.687 148.74 328.175 148.74C328.674 148.74 329.128 148.622 329.538 148.388C329.959 148.144 330.291 147.797 330.535 147.347C330.779 146.888 330.902 146.351 330.902 145.735Z" fill="#575757"/>
<line x1="20.084" y1="172.149" x2="421.916" y2="172.149" stroke="url(#paint3_linear_2109_8608)" stroke-opacity="0.06" stroke-width="1.22137"/>
<rect x="26.8018" y="187.416" width="36.0505" height="26.6461" fill="#61ADB1"/>
<rect x="27.4124" y="188.027" width="34.8292" height="25.4247" stroke="white" stroke-opacity="0.1" stroke-width="1.22137"/>
<path d="M39.9077 203.681C40.533 203.14 41.0248 202.697 41.3831 202.352C41.7479 202 42.0508 201.635 42.2918 201.258C42.5328 200.88 42.6533 200.502 42.6533 200.124C42.6533 199.733 42.5589 199.427 42.3699 199.206C42.1876 198.984 41.8977 198.873 41.5003 198.873C41.116 198.873 40.8164 198.997 40.6014 199.245C40.3929 199.486 40.2822 199.811 40.2692 200.222H39.1944C39.2139 199.479 39.4354 198.913 39.8588 198.522C40.2887 198.124 40.8326 197.926 41.4906 197.926C42.2006 197.926 42.7543 198.121 43.1516 198.512C43.5555 198.903 43.7574 199.424 43.7574 200.075C43.7574 200.544 43.6369 200.997 43.3959 201.433C43.1614 201.863 42.878 202.251 42.5458 202.596C42.2201 202.935 41.8032 203.329 41.2951 203.779L40.8554 204.169H43.9528V205.098H39.2041V204.287L39.9077 203.681ZM44.7555 199.792C44.7555 199.316 44.8923 198.945 45.1659 198.678C45.446 198.404 45.8043 198.268 46.2407 198.268C46.6771 198.268 47.0322 198.404 47.3057 198.678C47.5858 198.945 47.7259 199.316 47.7259 199.792C47.7259 200.267 47.5858 200.642 47.3057 200.916C47.0322 201.189 46.6771 201.326 46.2407 201.326C45.8043 201.326 45.446 201.189 45.1659 200.916C44.8923 200.642 44.7555 200.267 44.7555 199.792ZM50.7158 198.395L46.8172 205.195H45.7228L49.6215 198.395H50.7158ZM46.2407 198.942C45.8303 198.942 45.6251 199.225 45.6251 199.792C45.6251 200.365 45.8303 200.652 46.2407 200.652C46.4361 200.652 46.586 200.583 46.6902 200.447C46.8009 200.303 46.8563 200.085 46.8563 199.792C46.8563 199.225 46.6511 198.942 46.2407 198.942ZM48.7323 203.788C48.7323 203.313 48.8691 202.941 49.1427 202.674C49.4228 202.401 49.7811 202.264 50.2175 202.264C50.6474 202.264 50.9992 202.401 51.2728 202.674C51.5529 202.941 51.6929 203.313 51.6929 203.788C51.6929 204.264 51.5529 204.638 51.2728 204.912C50.9992 205.186 50.6474 205.322 50.2175 205.322C49.7811 205.322 49.4228 205.186 49.1427 204.912C48.8691 204.638 48.7323 204.264 48.7323 203.788ZM50.2077 202.938C49.7974 202.938 49.5922 203.222 49.5922 203.788C49.5922 204.355 49.7974 204.638 50.2077 204.638C50.6181 204.638 50.8233 204.355 50.8233 203.788C50.8233 203.222 50.6181 202.938 50.2077 202.938Z" fill="#F0F0F0"/>
<path d="M81.9696 195.524V196.608H77.5287V200.053H81.1342V201.137H77.5287V205.739H76.195V195.524H81.9696ZM86.9221 205.871C86.1698 205.871 85.4858 205.7 84.8702 205.358C84.2644 205.016 83.7856 204.533 83.4339 203.907C83.0919 203.272 82.9209 202.539 82.9209 201.709C82.9209 200.888 83.0968 200.165 83.4485 199.54C83.8101 198.904 84.2986 198.421 84.9142 198.089C85.5298 197.747 86.2186 197.576 86.9808 197.576C87.7429 197.576 88.4317 197.747 89.0473 198.089C89.6629 198.421 90.1466 198.9 90.4983 199.525C90.8598 200.15 91.0406 200.878 91.0406 201.709C91.0406 202.539 90.855 203.272 90.4837 203.907C90.1221 204.533 89.6287 205.016 89.0034 205.358C88.378 205.7 87.6843 205.871 86.9221 205.871ZM86.9221 204.699C87.4009 204.699 87.8504 204.586 88.2705 204.362C88.6907 204.137 89.0278 203.8 89.2818 203.35C89.5456 202.901 89.6776 202.354 89.6776 201.709C89.6776 201.064 89.5505 200.517 89.2965 200.067C89.0424 199.618 88.7102 199.286 88.2998 199.071C87.8895 198.846 87.4449 198.733 86.9661 198.733C86.4776 198.733 86.0281 198.846 85.6177 199.071C85.2171 199.286 84.8947 199.618 84.6504 200.067C84.4061 200.517 84.284 201.064 84.284 201.709C84.284 202.363 84.4012 202.915 84.6357 203.365C84.88 203.814 85.2024 204.151 85.603 204.376C86.0037 204.591 86.4434 204.699 86.9221 204.699ZM99.7561 197.708V205.739H98.4223V204.552C98.1683 204.962 97.8116 205.285 97.3524 205.519C96.9029 205.744 96.4046 205.857 95.8574 205.857C95.2321 205.857 94.6703 205.729 94.1719 205.475C93.6736 205.212 93.2779 204.821 92.9848 204.303C92.7014 203.785 92.5597 203.155 92.5597 202.412V197.708H93.8788V202.236C93.8788 203.028 94.0791 203.638 94.4797 204.068C94.8803 204.489 95.4275 204.699 96.1213 204.699C96.8345 204.699 97.3964 204.479 97.8067 204.039C98.2171 203.599 98.4223 202.959 98.4223 202.119V197.708H99.7561ZM105.76 197.561C106.737 197.561 107.529 197.859 108.134 198.455C108.74 199.041 109.043 199.891 109.043 201.005V205.739H107.724V201.196C107.724 200.395 107.524 199.784 107.123 199.364C106.723 198.934 106.175 198.719 105.482 198.719C104.778 198.719 104.216 198.939 103.796 199.378C103.386 199.818 103.181 200.458 103.181 201.298V205.739H101.847V197.708H103.181V198.851C103.444 198.44 103.801 198.123 104.25 197.898C104.71 197.673 105.213 197.561 105.76 197.561ZM110.562 201.694C110.562 200.873 110.728 200.155 111.061 199.54C111.393 198.914 111.847 198.431 112.424 198.089C113.01 197.747 113.665 197.576 114.388 197.576C115.013 197.576 115.594 197.722 116.132 198.015C116.669 198.299 117.079 198.675 117.363 199.144V194.893H118.711V205.739H117.363V204.23C117.099 204.708 116.708 205.104 116.19 205.417C115.672 205.72 115.067 205.871 114.373 205.871C113.66 205.871 113.01 205.695 112.424 205.344C111.847 204.992 111.393 204.498 111.061 203.863C110.728 203.228 110.562 202.505 110.562 201.694ZM117.363 201.709C117.363 201.103 117.241 200.575 116.996 200.126C116.752 199.676 116.42 199.334 116 199.1C115.589 198.856 115.135 198.733 114.637 198.733C114.138 198.733 113.684 198.851 113.274 199.085C112.863 199.32 112.536 199.662 112.292 200.111C112.047 200.561 111.925 201.088 111.925 201.694C111.925 202.31 112.047 202.847 112.292 203.306C112.536 203.756 112.863 204.103 113.274 204.347C113.684 204.581 114.138 204.699 114.637 204.699C115.135 204.699 115.589 204.581 116 204.347C116.42 204.103 116.752 203.756 116.996 203.306C117.241 202.847 117.363 202.315 117.363 201.709ZM128.132 201.416C128.132 201.67 128.118 201.938 128.088 202.222H121.669C121.718 203.013 121.986 203.634 122.475 204.083C122.973 204.523 123.574 204.743 124.278 204.743C124.854 204.743 125.333 204.611 125.714 204.347C126.105 204.073 126.378 203.712 126.535 203.262H127.971C127.756 204.034 127.326 204.664 126.681 205.153C126.036 205.632 125.235 205.871 124.278 205.871C123.515 205.871 122.831 205.7 122.226 205.358C121.63 205.016 121.161 204.533 120.819 203.907C120.477 203.272 120.306 202.539 120.306 201.709C120.306 200.878 120.472 200.15 120.804 199.525C121.136 198.9 121.6 198.421 122.196 198.089C122.802 197.747 123.496 197.576 124.278 197.576C125.04 197.576 125.714 197.742 126.3 198.074C126.886 198.406 127.336 198.865 127.649 199.452C127.971 200.028 128.132 200.683 128.132 201.416ZM126.754 201.137C126.754 200.629 126.642 200.194 126.417 199.833C126.193 199.461 125.885 199.183 125.494 198.997C125.113 198.802 124.688 198.704 124.219 198.704C123.545 198.704 122.968 198.919 122.489 199.349C122.02 199.779 121.752 200.375 121.683 201.137H126.754ZM131.065 199.012C131.3 198.553 131.632 198.196 132.062 197.942C132.502 197.688 133.034 197.561 133.659 197.561V198.939H133.308C131.813 198.939 131.065 199.75 131.065 201.372V205.739H129.731V197.708H131.065V199.012ZM137.881 205.871C137.266 205.871 136.714 205.769 136.225 205.563C135.736 205.348 135.35 205.055 135.067 204.684C134.784 204.303 134.627 203.868 134.598 203.38H135.976C136.015 203.78 136.201 204.108 136.533 204.362C136.875 204.616 137.319 204.743 137.866 204.743C138.375 204.743 138.775 204.63 139.068 204.406C139.361 204.181 139.508 203.897 139.508 203.555C139.508 203.204 139.352 202.945 139.039 202.779C138.726 202.603 138.243 202.432 137.588 202.266C136.992 202.109 136.503 201.953 136.122 201.797C135.751 201.631 135.429 201.391 135.155 201.078C134.891 200.756 134.759 200.336 134.759 199.818C134.759 199.408 134.881 199.031 135.126 198.689C135.37 198.348 135.717 198.079 136.166 197.883C136.616 197.678 137.129 197.576 137.705 197.576C138.594 197.576 139.313 197.8 139.86 198.25C140.407 198.699 140.7 199.315 140.739 200.097H139.405C139.376 199.676 139.205 199.339 138.892 199.085C138.59 198.831 138.179 198.704 137.661 198.704C137.183 198.704 136.801 198.807 136.518 199.012C136.235 199.217 136.093 199.486 136.093 199.818C136.093 200.082 136.176 200.302 136.342 200.478C136.518 200.644 136.733 200.78 136.987 200.888C137.251 200.986 137.612 201.098 138.072 201.225C138.648 201.381 139.117 201.538 139.479 201.694C139.84 201.841 140.148 202.065 140.402 202.368C140.666 202.671 140.803 203.067 140.812 203.555C140.812 203.995 140.69 204.391 140.446 204.743C140.202 205.094 139.855 205.373 139.405 205.578C138.966 205.773 138.458 205.871 137.881 205.871Z" fill="#575757"/>
<rect x="231.992" y="187.416" width="36.0505" height="26.6461" fill="white"/>
<rect x="232.603" y="188.027" width="34.8292" height="25.4247" stroke="white" stroke-opacity="0.1" stroke-width="1.22137"/>
<path d="M245.669 199.088V198.072H247.702V205.195H246.578V199.088H245.669ZM249.056 199.792C249.056 199.316 249.193 198.945 249.466 198.678C249.746 198.404 250.105 198.268 250.541 198.268C250.978 198.268 251.333 198.404 251.606 198.678C251.886 198.945 252.026 199.316 252.026 199.792C252.026 200.267 251.886 200.642 251.606 200.916C251.333 201.189 250.978 201.326 250.541 201.326C250.105 201.326 249.746 201.189 249.466 200.916C249.193 200.642 249.056 200.267 249.056 199.792ZM255.016 198.395L251.118 205.195H250.023L253.922 198.395H255.016ZM250.541 198.942C250.131 198.942 249.926 199.225 249.926 199.792C249.926 200.365 250.131 200.652 250.541 200.652C250.737 200.652 250.886 200.583 250.991 200.447C251.101 200.303 251.157 200.085 251.157 199.792C251.157 199.225 250.952 198.942 250.541 198.942ZM253.033 203.788C253.033 203.313 253.17 202.941 253.443 202.674C253.723 202.401 254.082 202.264 254.518 202.264C254.948 202.264 255.3 202.401 255.573 202.674C255.853 202.941 255.993 203.313 255.993 203.788C255.993 204.264 255.853 204.638 255.573 204.912C255.3 205.186 254.948 205.322 254.518 205.322C254.082 205.322 253.723 205.186 253.443 204.912C253.17 204.638 253.033 204.264 253.033 203.788ZM254.508 202.938C254.098 202.938 253.893 203.222 253.893 203.788C253.893 204.355 254.098 204.638 254.508 204.638C254.919 204.638 255.124 204.355 255.124 203.788C255.124 203.222 254.919 202.938 254.508 202.938Z" fill="#032A28"/>
<path d="M286.926 205.739L282.719 201.078V205.739H281.385V195.524H282.719V200.258L286.94 195.524H288.626L283.994 200.639L288.67 205.739H286.926ZM294.629 205.842C293.682 205.842 292.817 205.622 292.035 205.182C291.254 204.733 290.633 204.112 290.174 203.321C289.724 202.52 289.5 201.621 289.5 200.624C289.5 199.628 289.724 198.733 290.174 197.942C290.633 197.141 291.254 196.52 292.035 196.081C292.817 195.631 293.682 195.406 294.629 195.406C295.587 195.406 296.457 195.631 297.238 196.081C298.02 196.52 298.636 197.136 299.085 197.927C299.535 198.719 299.759 199.618 299.759 200.624C299.759 201.631 299.535 202.529 299.085 203.321C298.636 204.112 298.02 204.733 297.238 205.182C296.457 205.622 295.587 205.842 294.629 205.842ZM294.629 204.684C295.343 204.684 295.983 204.518 296.549 204.186C297.126 203.853 297.575 203.38 297.898 202.764C298.23 202.148 298.396 201.435 298.396 200.624C298.396 199.803 298.23 199.09 297.898 198.484C297.575 197.869 297.131 197.395 296.564 197.063C295.997 196.73 295.353 196.564 294.629 196.564C293.906 196.564 293.262 196.73 292.695 197.063C292.128 197.395 291.679 197.869 291.346 198.484C291.024 199.09 290.863 199.803 290.863 200.624C290.863 201.435 291.024 202.148 291.346 202.764C291.679 203.38 292.128 203.853 292.695 204.186C293.271 204.518 293.916 204.684 294.629 204.684ZM302.692 204.655H306.269V205.739H301.359V195.524H302.692V204.655ZM312.604 199.012C312.838 198.553 313.171 198.196 313.6 197.942C314.04 197.688 314.573 197.561 315.198 197.561V198.939H314.846C313.351 198.939 312.604 199.75 312.604 201.372V205.739H311.27V197.708H312.604V199.012ZM320.079 205.871C319.327 205.871 318.643 205.7 318.027 205.358C317.422 205.016 316.943 204.533 316.591 203.907C316.249 203.272 316.078 202.539 316.078 201.709C316.078 200.888 316.254 200.165 316.606 199.54C316.967 198.904 317.456 198.421 318.071 198.089C318.687 197.747 319.376 197.576 320.138 197.576C320.9 197.576 321.589 197.747 322.205 198.089C322.82 198.421 323.304 198.9 323.656 199.525C324.017 200.15 324.198 200.878 324.198 201.709C324.198 202.539 324.012 203.272 323.641 203.907C323.279 204.533 322.786 205.016 322.161 205.358C321.535 205.7 320.841 205.871 320.079 205.871ZM320.079 204.699C320.558 204.699 321.008 204.586 321.428 204.362C321.848 204.137 322.185 203.8 322.439 203.35C322.703 202.901 322.835 202.354 322.835 201.709C322.835 201.064 322.708 200.517 322.454 200.067C322.2 199.618 321.867 199.286 321.457 199.071C321.047 198.846 320.602 198.733 320.123 198.733C319.635 198.733 319.185 198.846 318.775 199.071C318.374 199.286 318.052 199.618 317.808 200.067C317.563 200.517 317.441 201.064 317.441 201.709C317.441 202.363 317.558 202.915 317.793 203.365C318.037 203.814 318.36 204.151 318.76 204.376C319.161 204.591 319.601 204.699 320.079 204.699ZM332.913 197.708V205.739H331.58V204.552C331.325 204.962 330.969 205.285 330.51 205.519C330.06 205.744 329.562 205.857 329.015 205.857C328.389 205.857 327.827 205.729 327.329 205.475C326.831 205.212 326.435 204.821 326.142 204.303C325.859 203.785 325.717 203.155 325.717 202.412V197.708H327.036V202.236C327.036 203.028 327.236 203.638 327.637 204.068C328.038 204.489 328.585 204.699 329.278 204.699C329.992 204.699 330.554 204.479 330.964 204.039C331.374 203.599 331.58 202.959 331.58 202.119V197.708H332.913ZM338.917 197.561C339.894 197.561 340.686 197.859 341.292 198.455C341.897 199.041 342.2 199.891 342.2 201.005V205.739H340.881V201.196C340.881 200.395 340.681 199.784 340.28 199.364C339.88 198.934 339.333 198.719 338.639 198.719C337.935 198.719 337.373 198.939 336.953 199.378C336.543 199.818 336.338 200.458 336.338 201.298V205.739H335.004V197.708H336.338V198.851C336.602 198.44 336.958 198.123 337.408 197.898C337.867 197.673 338.37 197.561 338.917 197.561ZM343.719 201.694C343.719 200.873 343.886 200.155 344.218 199.54C344.55 198.914 345.004 198.431 345.581 198.089C346.167 197.747 346.822 197.576 347.545 197.576C348.17 197.576 348.751 197.722 349.289 198.015C349.826 198.299 350.237 198.675 350.52 199.144V194.893H351.868V205.739H350.52V204.23C350.256 204.708 349.865 205.104 349.348 205.417C348.83 205.72 348.224 205.871 347.53 205.871C346.817 205.871 346.167 205.695 345.581 205.344C345.004 204.992 344.55 204.498 344.218 203.863C343.886 203.228 343.719 202.505 343.719 201.694ZM350.52 201.709C350.52 201.103 350.398 200.575 350.154 200.126C349.909 199.676 349.577 199.334 349.157 199.1C348.747 198.856 348.292 198.733 347.794 198.733C347.296 198.733 346.841 198.851 346.431 199.085C346.021 199.32 345.693 199.662 345.449 200.111C345.205 200.561 345.082 201.088 345.082 201.694C345.082 202.31 345.205 202.847 345.449 203.306C345.693 203.756 346.021 204.103 346.431 204.347C346.841 204.581 347.296 204.699 347.794 204.699C348.292 204.699 348.747 204.581 349.157 204.347C349.577 204.103 349.909 203.756 350.154 203.306C350.398 202.847 350.52 202.315 350.52 201.709Z" fill="#575757"/>
</g>
<defs>
<filter id="filter0_b_2109_8608" x="-35" y="-35.5449" width="512" height="304.691" filterUnits="userSpaceOnUse" color-interpolation-filters="sRGB">
<feFlood flood-opacity="0" result="BackgroundImageFix"/>
<feGaussianBlur in="BackgroundImageFix" stdDeviation="17.771"/>
<feComposite in2="SourceAlpha" operator="in" result="effect1_backgroundBlur_2109_8608"/>
<feBlend mode="normal" in="SourceGraphic" in2="effect1_backgroundBlur_2109_8608" result="shape"/>
</filter>
<linearGradient id="paint0_linear_2109_8608" x1="-18.149" y1="293.451" x2="3.91474" y2="-83.4102" gradientUnits="userSpaceOnUse">
<stop stop-color="#EDFFFE" stop-opacity="0.6"/>
<stop offset="1" stop-color="#0F0F0F" stop-opacity="0.43"/>
</linearGradient>
<linearGradient id="paint1_linear_2109_8608" x1="3.0498" y1="62.098" x2="3.05025" y2="60.4792" gradientUnits="userSpaceOnUse">
<stop stop-color="#0F0F0F" stop-opacity="0.43"/>
<stop offset="1" stop-color="#EDFFFE" stop-opacity="0.6"/>
</linearGradient>
<linearGradient id="paint2_linear_2109_8608" x1="3.0498" y1="118.057" x2="3.05025" y2="116.438" gradientUnits="userSpaceOnUse">
<stop stop-color="#0F0F0F" stop-opacity="0.43"/>
<stop offset="1" stop-color="#EDFFFE" stop-opacity="0.6"/>
</linearGradient>
<linearGradient id="paint3_linear_2109_8608" x1="3.0498" y1="174.016" x2="3.05025" y2="172.397" gradientUnits="userSpaceOnUse">
<stop stop-color="#0F0F0F" stop-opacity="0.43"/>
<stop offset="1" stop-color="#EDFFFE" stop-opacity="0.6"/>
</linearGradient>
</defs>
</svg>
