<svg width="534" height="533" viewBox="0 0 534 533" fill="none" xmlns="http://www.w3.org/2000/svg">
<path d="M20.4458 366.696C3.98187 326.274 -2.29078 282.423 2.18018 239.006C6.65114 195.588 21.7286 153.936 46.0848 117.717C70.441 81.4982 103.329 51.8231 141.852 31.3051C180.376 10.7871 223.353 0.0556635 267 0.0556641L267 159.788C249.541 159.788 232.35 164.08 216.941 172.288C201.532 180.495 188.376 192.365 178.634 206.852C168.891 221.34 162.86 238.001 161.072 255.368C159.284 272.735 161.793 290.275 168.378 306.444L20.4458 366.696Z" fill="white"/>
<path d="M204.546 525.067C163.499 515.161 125.397 495.633 93.3859 468.096C61.375 440.559 36.3735 405.802 20.4458 366.696L168.378 306.444C174.749 322.087 184.75 335.989 197.554 347.004C210.359 358.019 225.6 365.83 242.018 369.792L204.546 525.067Z" fill="#032A28"/>
<path d="M267 0.0556641C303.553 0.0556625 339.714 7.58295 373.23 22.1685C406.747 36.7541 436.9 58.0855 461.813 84.8337C486.725 111.582 505.862 143.174 518.032 177.641C530.202 212.108 535.143 248.712 532.549 285.173L373.22 273.835C374.257 259.25 372.281 244.609 367.413 230.822C362.545 217.035 354.89 204.398 344.925 193.699C334.96 183 322.899 174.467 309.492 168.633C296.085 162.799 281.621 159.788 267 159.788L267 0.0556641Z" fill="#0AD4C9"/>
<path d="M532.549 285.173C532.151 290.763 531.577 296.339 530.827 301.893L372.531 280.523C372.831 278.301 373.06 276.071 373.22 273.835L532.549 285.173Z" fill="#AFAFAF"/>
<path d="M530.827 301.893C529.327 313.003 527.127 324.007 524.24 334.84L369.896 293.702C371.051 289.369 371.931 284.967 372.531 280.523L530.827 301.893Z" fill="#61ADB1"/>
<path d="M510.261 374.429C494.26 410.419 470.473 442.41 440.614 468.096C410.756 493.782 375.57 512.522 337.593 522.966L295.237 368.952C310.428 364.774 324.502 357.278 336.446 347.004C348.389 336.73 357.904 323.933 364.305 309.537L510.261 374.429Z" fill="#0A8078"/>
<path d="M337.593 522.966C294.137 534.917 248.358 535.64 204.546 525.067L242.018 369.792C259.543 374.022 277.855 373.732 295.237 368.952L337.593 522.966Z" fill="#055550"/>
<path d="M524.24 334.84C518.16 357.651 509.073 379.552 497.218 399.966L359.087 319.752C363.829 311.586 367.464 302.826 369.896 293.702L524.24 334.84Z" fill="#0DAAA1"/>
<path d="M374.826 153.834C377.13 151.842 378.942 150.21 380.262 148.938C381.606 147.642 382.722 146.298 383.61 144.906C384.498 143.514 384.942 142.122 384.942 140.73C384.942 139.29 384.594 138.162 383.898 137.346C383.226 136.53 382.158 136.122 380.694 136.122C379.278 136.122 378.174 136.578 377.382 137.49C376.614 138.378 376.206 139.578 376.158 141.09H372.198C372.27 138.354 373.086 136.266 374.646 134.826C376.23 133.362 378.234 132.63 380.658 132.63C383.274 132.63 385.314 133.35 386.778 134.79C388.266 136.23 389.01 138.15 389.01 140.55C389.01 142.278 388.566 143.946 387.678 145.554C386.814 147.138 385.77 148.566 384.546 149.838C383.346 151.086 381.81 152.538 379.938 154.194L378.318 155.634H389.73V159.054H372.234V156.066L374.826 153.834ZM407.447 139.254C407.183 138.15 406.703 137.322 406.007 136.77C405.311 136.218 404.339 135.942 403.091 135.942C401.195 135.942 399.779 136.674 398.843 138.138C397.907 139.578 397.415 141.978 397.367 145.338C397.991 144.282 398.903 143.466 400.103 142.89C401.303 142.314 402.599 142.026 403.991 142.026C405.575 142.026 406.967 142.374 408.167 143.07C409.391 143.742 410.339 144.726 411.011 146.022C411.707 147.318 412.055 148.866 412.055 150.666C412.055 152.346 411.719 153.846 411.047 155.166C410.399 156.486 409.427 157.53 408.131 158.298C406.835 159.042 405.275 159.414 403.451 159.414C400.979 159.414 399.035 158.874 397.619 157.794C396.227 156.69 395.243 155.142 394.667 153.15C394.115 151.158 393.839 148.674 393.839 145.698C393.839 136.914 396.935 132.522 403.127 132.522C405.527 132.522 407.411 133.17 408.779 134.466C410.171 135.762 410.987 137.358 411.227 139.254H407.447ZM403.091 145.482C401.627 145.482 400.379 145.926 399.347 146.814C398.339 147.678 397.835 148.938 397.835 150.594C397.835 152.25 398.303 153.57 399.239 154.554C400.199 155.514 401.531 155.994 403.235 155.994C404.747 155.994 405.935 155.526 406.799 154.59C407.687 153.654 408.131 152.406 408.131 150.846C408.131 149.214 407.699 147.918 406.835 146.958C405.995 145.974 404.747 145.482 403.091 145.482ZM415.785 139.506C415.785 137.754 416.289 136.386 417.297 135.402C418.329 134.394 419.649 133.89 421.257 133.89C422.865 133.89 424.173 134.394 425.181 135.402C426.213 136.386 426.729 137.754 426.729 139.506C426.729 141.258 426.213 142.638 425.181 143.646C424.173 144.654 422.865 145.158 421.257 145.158C419.649 145.158 418.329 144.654 417.297 143.646C416.289 142.638 415.785 141.258 415.785 139.506ZM437.745 134.358L423.381 159.414H419.349L433.713 134.358H437.745ZM421.257 136.374C419.745 136.374 418.989 137.418 418.989 139.506C418.989 141.618 419.745 142.674 421.257 142.674C421.977 142.674 422.529 142.422 422.913 141.918C423.321 141.39 423.525 140.586 423.525 139.506C423.525 137.418 422.769 136.374 421.257 136.374ZM430.437 154.23C430.437 152.478 430.941 151.11 431.949 150.126C432.981 149.118 434.301 148.614 435.909 148.614C437.493 148.614 438.789 149.118 439.797 150.126C440.829 151.11 441.345 152.478 441.345 154.23C441.345 155.982 440.829 157.362 439.797 158.37C438.789 159.378 437.493 159.882 435.909 159.882C434.301 159.882 432.981 159.378 431.949 158.37C430.941 157.362 430.437 155.982 430.437 154.23ZM435.873 151.098C434.361 151.098 433.605 152.142 433.605 154.23C433.605 156.318 434.361 157.362 435.873 157.362C437.385 157.362 438.141 156.318 438.141 154.23C438.141 152.142 437.385 151.098 435.873 151.098Z" fill="#F0F0F0"/>
<path d="M76.6852 169.749C76.8292 167.517 77.6812 165.777 79.2412 164.529C80.8252 163.281 82.8412 162.657 85.2892 162.657C86.9692 162.657 88.4212 162.957 89.6452 163.557C90.8692 164.157 91.7932 164.973 92.4172 166.005C93.0412 167.037 93.3532 168.201 93.3532 169.497C93.3532 170.985 92.9572 172.257 92.1652 173.313C91.3732 174.369 90.4252 175.077 89.3212 175.437V175.581C90.7372 176.013 91.8412 176.805 92.6332 177.957C93.4252 179.085 93.8212 180.537 93.8212 182.313C93.8212 183.729 93.4972 184.989 92.8492 186.093C92.2012 187.197 91.2412 188.073 89.9692 188.721C88.6972 189.345 87.1732 189.657 85.3972 189.657C82.8052 189.657 80.6692 188.997 78.9892 187.677C77.3332 186.333 76.4452 184.413 76.3252 181.917H80.2852C80.3812 183.189 80.8732 184.233 81.7612 185.049C82.6492 185.841 83.8492 186.237 85.3612 186.237C86.8252 186.237 87.9532 185.841 88.7452 185.049C89.5372 184.233 89.9332 183.189 89.9332 181.917C89.9332 180.237 89.3932 179.049 88.3132 178.353C87.2572 177.633 85.6252 177.273 83.4172 177.273H82.4812V173.889H83.4532C85.3972 173.865 86.8732 173.541 87.8812 172.917C88.9132 172.293 89.4292 171.309 89.4292 169.965C89.4292 168.813 89.0572 167.901 88.3132 167.229C87.5692 166.533 86.5132 166.185 85.1452 166.185C83.8012 166.185 82.7572 166.533 82.0132 167.229C81.2692 167.901 80.8252 168.741 80.6812 169.749H76.6852ZM97.5922 167.013V163.269H105.08V189.513H100.94V167.013H97.5922ZM112.914 189.765C112.17 189.765 111.546 189.513 111.042 189.009C110.538 188.505 110.286 187.881 110.286 187.137C110.286 186.393 110.538 185.769 111.042 185.265C111.546 184.761 112.17 184.509 112.914 184.509C113.634 184.509 114.246 184.761 114.75 185.265C115.254 185.769 115.506 186.393 115.506 187.137C115.506 187.881 115.254 188.505 114.75 189.009C114.246 189.513 113.634 189.765 112.914 189.765ZM136.322 166.797H124.262V173.961C124.766 173.289 125.51 172.725 126.494 172.269C127.502 171.813 128.57 171.585 129.698 171.585C131.714 171.585 133.346 172.017 134.594 172.881C135.866 173.745 136.766 174.837 137.294 176.157C137.846 177.477 138.122 178.869 138.122 180.333C138.122 182.109 137.774 183.693 137.078 185.085C136.406 186.453 135.386 187.533 134.018 188.325C132.674 189.117 131.018 189.513 129.05 189.513C126.434 189.513 124.334 188.865 122.75 187.569C121.166 186.273 120.218 184.557 119.906 182.421H123.902C124.166 183.549 124.754 184.449 125.666 185.121C126.578 185.769 127.718 186.093 129.086 186.093C130.79 186.093 132.062 185.577 132.902 184.545C133.766 183.513 134.198 182.145 134.198 180.441C134.198 178.713 133.766 177.393 132.902 176.481C132.038 175.545 130.766 175.077 129.086 175.077C127.91 175.077 126.914 175.377 126.098 175.977C125.306 176.553 124.73 177.345 124.37 178.353H120.482V163.197H136.322V166.797ZM141.746 169.605C141.746 167.853 142.25 166.485 143.258 165.501C144.29 164.493 145.61 163.989 147.218 163.989C148.826 163.989 150.134 164.493 151.142 165.501C152.174 166.485 152.69 167.853 152.69 169.605C152.69 171.357 152.174 172.737 151.142 173.745C150.134 174.753 148.826 175.257 147.218 175.257C145.61 175.257 144.29 174.753 143.258 173.745C142.25 172.737 141.746 171.357 141.746 169.605ZM163.706 164.457L149.342 189.513H145.31L159.674 164.457H163.706ZM147.218 166.473C145.706 166.473 144.95 167.517 144.95 169.605C144.95 171.717 145.706 172.773 147.218 172.773C147.938 172.773 148.49 172.521 148.874 172.017C149.282 171.489 149.486 170.685 149.486 169.605C149.486 167.517 148.73 166.473 147.218 166.473ZM156.398 184.329C156.398 182.577 156.902 181.209 157.91 180.225C158.942 179.217 160.262 178.713 161.87 178.713C163.454 178.713 164.75 179.217 165.758 180.225C166.79 181.209 167.306 182.577 167.306 184.329C167.306 186.081 166.79 187.461 165.758 188.469C164.75 189.477 163.454 189.981 161.87 189.981C160.262 189.981 158.942 189.477 157.91 188.469C156.902 187.461 156.398 186.081 156.398 184.329ZM161.834 181.197C160.322 181.197 159.566 182.241 159.566 184.329C159.566 186.417 160.322 187.461 161.834 187.461C163.346 187.461 164.102 186.417 164.102 184.329C164.102 182.241 163.346 181.197 161.834 181.197Z" fill="#032A28"/>
<path d="M115.658 404.691V400.947H123.146V427.191H119.006V404.691H115.658ZM145.704 404.475H133.644V411.639C134.148 410.967 134.892 410.403 135.876 409.947C136.884 409.491 137.952 409.263 139.08 409.263C141.096 409.263 142.728 409.695 143.976 410.559C145.248 411.423 146.148 412.515 146.676 413.835C147.228 415.155 147.504 416.547 147.504 418.011C147.504 419.787 147.156 421.371 146.46 422.763C145.788 424.131 144.768 425.211 143.4 426.003C142.056 426.795 140.4 427.191 138.432 427.191C135.816 427.191 133.716 426.543 132.132 425.247C130.548 423.951 129.6 422.235 129.288 420.099H133.284C133.548 421.227 134.136 422.127 135.048 422.799C135.96 423.447 137.1 423.771 138.468 423.771C140.172 423.771 141.444 423.255 142.284 422.223C143.148 421.191 143.58 419.823 143.58 418.119C143.58 416.391 143.148 415.071 142.284 414.159C141.42 413.223 140.148 412.755 138.468 412.755C137.292 412.755 136.296 413.055 135.48 413.655C134.688 414.231 134.112 415.023 133.752 416.031H129.864V400.875H145.704V404.475ZM151.128 407.283C151.128 405.531 151.632 404.163 152.64 403.179C153.672 402.171 154.992 401.667 156.6 401.667C158.208 401.667 159.516 402.171 160.524 403.179C161.556 404.163 162.072 405.531 162.072 407.283C162.072 409.035 161.556 410.415 160.524 411.423C159.516 412.431 158.208 412.935 156.6 412.935C154.992 412.935 153.672 412.431 152.64 411.423C151.632 410.415 151.128 409.035 151.128 407.283ZM173.088 402.135L158.724 427.191H154.692L169.056 402.135H173.088ZM156.6 404.151C155.088 404.151 154.332 405.195 154.332 407.283C154.332 409.395 155.088 410.451 156.6 410.451C157.32 410.451 157.872 410.199 158.256 409.695C158.664 409.167 158.868 408.363 158.868 407.283C158.868 405.195 158.112 404.151 156.6 404.151ZM165.78 422.007C165.78 420.255 166.284 418.887 167.292 417.903C168.324 416.895 169.644 416.391 171.252 416.391C172.836 416.391 174.132 416.895 175.14 417.903C176.172 418.887 176.688 420.255 176.688 422.007C176.688 423.759 176.172 425.139 175.14 426.147C174.132 427.155 172.836 427.659 171.252 427.659C169.644 427.659 168.324 427.155 167.292 426.147C166.284 425.139 165.78 423.759 165.78 422.007ZM171.216 418.875C169.704 418.875 168.948 419.919 168.948 422.007C168.948 424.095 169.704 425.139 171.216 425.139C172.728 425.139 173.484 424.095 173.484 422.007C173.484 419.919 172.728 418.875 171.216 418.875Z" fill="#F0F0F0"/>
<path d="M256.589 461.219C254.093 459.971 252.845 458.003 252.845 455.315C252.845 454.019 253.169 452.831 253.817 451.751C254.465 450.671 255.437 449.819 256.733 449.195C258.029 448.547 259.613 448.223 261.485 448.223C263.333 448.223 264.905 448.547 266.201 449.195C267.521 449.819 268.505 450.671 269.153 451.751C269.801 452.831 270.125 454.019 270.125 455.315C270.125 456.659 269.777 457.847 269.081 458.879C268.409 459.887 267.509 460.667 266.381 461.219C267.749 461.723 268.829 462.551 269.621 463.703C270.413 464.831 270.809 466.163 270.809 467.699C270.809 469.259 270.413 470.639 269.621 471.839C268.829 473.039 267.725 473.963 266.309 474.611C264.893 475.259 263.285 475.583 261.485 475.583C259.685 475.583 258.077 475.259 256.661 474.611C255.269 473.963 254.177 473.039 253.385 471.839C252.593 470.639 252.197 469.259 252.197 467.699C252.197 466.139 252.593 464.795 253.385 463.667C254.177 462.539 255.245 461.723 256.589 461.219ZM266.201 455.819C266.201 454.475 265.781 453.443 264.941 452.723C264.101 452.003 262.949 451.643 261.485 451.643C260.045 451.643 258.905 452.003 258.065 452.723C257.225 453.443 256.805 454.487 256.805 455.855C256.805 457.055 257.237 458.039 258.101 458.807C258.989 459.551 260.117 459.923 261.485 459.923C262.853 459.923 263.981 459.539 264.869 458.771C265.757 458.003 266.201 457.019 266.201 455.819ZM261.485 463.019C259.901 463.019 258.605 463.415 257.597 464.207C256.613 464.975 256.121 466.091 256.121 467.555C256.121 468.923 256.601 470.039 257.561 470.903C258.521 471.743 259.829 472.163 261.485 472.163C263.117 472.163 264.401 471.731 265.337 470.867C266.297 470.003 266.777 468.899 266.777 467.555C266.777 466.115 266.285 464.999 265.301 464.207C264.341 463.415 263.069 463.019 261.485 463.019ZM274.47 455.027C274.47 453.275 274.974 451.907 275.982 450.923C277.014 449.915 278.334 449.411 279.942 449.411C281.55 449.411 282.858 449.915 283.866 450.923C284.898 451.907 285.414 453.275 285.414 455.027C285.414 456.779 284.898 458.159 283.866 459.167C282.858 460.175 281.55 460.679 279.942 460.679C278.334 460.679 277.014 460.175 275.982 459.167C274.974 458.159 274.47 456.779 274.47 455.027ZM296.43 449.879L282.066 474.935H278.034L292.398 449.879H296.43ZM279.942 451.895C278.43 451.895 277.674 452.939 277.674 455.027C277.674 457.139 278.43 458.195 279.942 458.195C280.662 458.195 281.214 457.943 281.598 457.439C282.006 456.911 282.21 456.107 282.21 455.027C282.21 452.939 281.454 451.895 279.942 451.895ZM289.122 469.751C289.122 467.999 289.626 466.631 290.634 465.647C291.666 464.639 292.986 464.135 294.594 464.135C296.178 464.135 297.474 464.639 298.482 465.647C299.514 466.631 300.03 467.999 300.03 469.751C300.03 471.503 299.514 472.883 298.482 473.891C297.474 474.899 296.178 475.403 294.594 475.403C292.986 475.403 291.666 474.899 290.634 473.891C289.626 472.883 289.122 471.503 289.122 469.751ZM294.558 466.619C293.046 466.619 292.29 467.663 292.29 469.751C292.29 471.839 293.046 472.883 294.558 472.883C296.07 472.883 296.826 471.839 296.826 469.751C296.826 467.663 296.07 466.619 294.558 466.619Z" fill="#F0F0F0"/>
<path d="M360.601 409.882V406.138H368.089V432.382H363.949V409.882H360.601ZM373.223 426.91V423.814L385.319 406.462H390.287V423.346H393.635V426.91H390.287V432.382H386.255V426.91H373.223ZM386.435 410.638L377.939 423.346H386.435V410.638ZM396.387 412.474C396.387 410.722 396.891 409.354 397.899 408.37C398.931 407.362 400.251 406.858 401.859 406.858C403.467 406.858 404.775 407.362 405.783 408.37C406.815 409.354 407.331 410.722 407.331 412.474C407.331 414.226 406.815 415.606 405.783 416.614C404.775 417.622 403.467 418.126 401.859 418.126C400.251 418.126 398.931 417.622 397.899 416.614C396.891 415.606 396.387 414.226 396.387 412.474ZM418.347 407.326L403.983 432.382H399.951L414.315 407.326H418.347ZM401.859 409.342C400.347 409.342 399.591 410.386 399.591 412.474C399.591 414.586 400.347 415.642 401.859 415.642C402.579 415.642 403.131 415.39 403.515 414.886C403.923 414.358 404.127 413.554 404.127 412.474C404.127 410.386 403.371 409.342 401.859 409.342ZM411.039 427.198C411.039 425.446 411.543 424.078 412.551 423.094C413.583 422.086 414.903 421.582 416.511 421.582C418.095 421.582 419.391 422.086 420.399 423.094C421.431 424.078 421.947 425.446 421.947 427.198C421.947 428.95 421.431 430.33 420.399 431.338C419.391 432.346 418.095 432.85 416.511 432.85C414.903 432.85 413.583 432.346 412.551 431.338C411.543 430.33 411.039 428.95 411.039 427.198ZM416.475 424.066C414.963 424.066 414.207 425.11 414.207 427.198C414.207 429.286 414.963 430.33 416.475 430.33C417.987 430.33 418.743 429.286 418.743 427.198C418.743 425.11 417.987 424.066 416.475 424.066Z" fill="#F0F0F0"/>
<path d="M424.752 342.778C426.032 341.671 427.039 340.765 427.772 340.058C428.519 339.338 429.139 338.591 429.632 337.818C430.126 337.045 430.372 336.271 430.372 335.498C430.372 334.698 430.179 334.071 429.792 333.618C429.419 333.165 428.826 332.938 428.012 332.938C427.226 332.938 426.612 333.191 426.172 333.698C425.746 334.191 425.519 334.858 425.492 335.698H423.292C423.332 334.178 423.786 333.018 424.652 332.218C425.532 331.405 426.646 330.998 427.992 330.998C429.446 330.998 430.579 331.398 431.392 332.198C432.219 332.998 432.632 334.065 432.632 335.398C432.632 336.358 432.386 337.285 431.892 338.178C431.412 339.058 430.832 339.851 430.152 340.558C429.486 341.251 428.632 342.058 427.592 342.978L426.692 343.778H433.032V345.678H423.312V344.018L424.752 342.778ZM436.255 346.018C435.842 346.018 435.495 345.878 435.215 345.598C434.935 345.318 434.795 344.971 434.795 344.558C434.795 344.145 434.935 343.798 435.215 343.518C435.495 343.238 435.842 343.098 436.255 343.098C436.655 343.098 436.995 343.238 437.275 343.518C437.555 343.798 437.695 344.145 437.695 344.558C437.695 344.971 437.555 345.318 437.275 345.598C436.995 345.878 436.655 346.018 436.255 346.018ZM449.26 333.258H442.56V337.238C442.84 336.865 443.253 336.551 443.8 336.298C444.36 336.045 444.953 335.918 445.58 335.918C446.7 335.918 447.606 336.158 448.3 336.638C449.006 337.118 449.506 337.725 449.8 338.458C450.106 339.191 450.26 339.965 450.26 340.778C450.26 341.765 450.066 342.645 449.68 343.418C449.306 344.178 448.74 344.778 447.98 345.218C447.233 345.658 446.313 345.878 445.22 345.878C443.766 345.878 442.6 345.518 441.72 344.798C440.84 344.078 440.313 343.125 440.14 341.938H442.36C442.506 342.565 442.833 343.065 443.34 343.438C443.846 343.798 444.48 343.978 445.24 343.978C446.186 343.978 446.893 343.691 447.36 343.118C447.84 342.545 448.08 341.785 448.08 340.838C448.08 339.878 447.84 339.145 447.36 338.638C446.88 338.118 446.173 337.858 445.24 337.858C444.586 337.858 444.033 338.025 443.58 338.358C443.14 338.678 442.82 339.118 442.62 339.678H440.46V331.258H449.26V333.258ZM452.273 334.818C452.273 333.845 452.553 333.085 453.113 332.538C453.686 331.978 454.42 331.698 455.313 331.698C456.206 331.698 456.933 331.978 457.493 332.538C458.066 333.085 458.353 333.845 458.353 334.818C458.353 335.791 458.066 336.558 457.493 337.118C456.933 337.678 456.206 337.958 455.313 337.958C454.42 337.958 453.686 337.678 453.113 337.118C452.553 336.558 452.273 335.791 452.273 334.818ZM464.473 331.958L456.493 345.878H454.253L462.233 331.958H464.473ZM455.313 333.078C454.473 333.078 454.053 333.658 454.053 334.818C454.053 335.991 454.473 336.578 455.313 336.578C455.713 336.578 456.02 336.438 456.233 336.158C456.46 335.865 456.573 335.418 456.573 334.818C456.573 333.658 456.153 333.078 455.313 333.078ZM460.413 342.998C460.413 342.025 460.693 341.265 461.253 340.718C461.826 340.158 462.56 339.878 463.453 339.878C464.333 339.878 465.053 340.158 465.613 340.718C466.186 341.265 466.473 342.025 466.473 342.998C466.473 343.971 466.186 344.738 465.613 345.298C465.053 345.858 464.333 346.138 463.453 346.138C462.56 346.138 461.826 345.858 461.253 345.298C460.693 344.738 460.413 343.971 460.413 342.998ZM463.433 341.258C462.593 341.258 462.173 341.838 462.173 342.998C462.173 344.158 462.593 344.738 463.433 344.738C464.273 344.738 464.693 344.158 464.693 342.998C464.693 341.838 464.273 341.258 463.433 341.258Z" fill="#F0F0F0"/>
</svg>
