<svg width="1110" height="608" viewBox="0 0 1110 608" fill="none" xmlns="http://www.w3.org/2000/svg">
<path d="M9.35988 66.625V71.285H14.4399V72.785H9.35988V77.585H15.0399V79.085H7.53988V65.125H15.0399V66.625H9.35988ZM17.1138 73.585C17.1138 72.4516 17.3405 71.465 17.7938 70.625C18.2471 69.7716 18.8738 69.1116 19.6738 68.645C20.4871 68.1783 21.4138 67.945 22.4538 67.945C23.8005 67.945 24.9071 68.2716 25.7738 68.925C26.6538 69.5783 27.2338 70.485 27.5138 71.645H25.5538C25.3671 70.9783 25.0005 70.4516 24.4538 70.065C23.9205 69.6783 23.2538 69.485 22.4538 69.485C21.4138 69.485 20.5738 69.845 19.9338 70.565C19.2938 71.2716 18.9738 72.2783 18.9738 73.585C18.9738 74.905 19.2938 75.925 19.9338 76.645C20.5738 77.365 21.4138 77.725 22.4538 77.725C23.2538 77.725 23.9205 77.5383 24.4538 77.165C24.9871 76.7916 25.3538 76.2583 25.5538 75.565H27.5138C27.2205 76.685 26.6338 77.585 25.7538 78.265C24.8738 78.9316 23.7738 79.265 22.4538 79.265C21.4138 79.265 20.4871 79.0316 19.6738 78.565C18.8738 78.0983 18.2471 77.4383 17.7938 76.585C17.3405 75.7316 17.1138 74.7316 17.1138 73.585ZM34.7222 79.265C33.6956 79.265 32.7622 79.0316 31.9222 78.565C31.0956 78.0983 30.4422 77.4383 29.9622 76.585C29.4956 75.7183 29.2622 74.7183 29.2622 73.585C29.2622 72.465 29.5022 71.4783 29.9822 70.625C30.4756 69.7583 31.1422 69.0983 31.9822 68.645C32.8222 68.1783 33.7622 67.945 34.8022 67.945C35.8422 67.945 36.7822 68.1783 37.6222 68.645C38.4622 69.0983 39.1222 69.7516 39.6022 70.605C40.0956 71.4583 40.3422 72.4516 40.3422 73.585C40.3422 74.7183 40.0889 75.7183 39.5822 76.585C39.0889 77.4383 38.4156 78.0983 37.5622 78.565C36.7089 79.0316 35.7622 79.265 34.7222 79.265ZM34.7222 77.665C35.3756 77.665 35.9889 77.5116 36.5622 77.205C37.1356 76.8983 37.5956 76.4383 37.9422 75.825C38.3022 75.2116 38.4822 74.465 38.4822 73.585C38.4822 72.705 38.3089 71.9583 37.9622 71.345C37.6156 70.7316 37.1622 70.2783 36.6022 69.985C36.0422 69.6783 35.4356 69.525 34.7822 69.525C34.1156 69.525 33.5022 69.6783 32.9422 69.985C32.3956 70.2783 31.9556 70.7316 31.6222 71.345C31.2889 71.9583 31.1222 72.705 31.1222 73.585C31.1222 74.4783 31.2822 75.2316 31.6022 75.845C31.9356 76.4583 32.3756 76.9183 32.9222 77.225C33.4689 77.5183 34.0689 77.665 34.7222 77.665ZM46.6152 79.265C45.7752 79.265 45.0219 79.125 44.3552 78.845C43.6885 78.5516 43.1619 78.1516 42.7752 77.645C42.3885 77.125 42.1752 76.5316 42.1352 75.865H44.0152C44.0685 76.4116 44.3219 76.8583 44.7752 77.205C45.2419 77.5516 45.8485 77.725 46.5952 77.725C47.2885 77.725 47.8352 77.5716 48.2352 77.265C48.6352 76.9583 48.8352 76.5716 48.8352 76.105C48.8352 75.625 48.6219 75.2716 48.1952 75.045C47.7685 74.805 47.1085 74.5716 46.2152 74.345C45.4019 74.1316 44.7352 73.9183 44.2152 73.705C43.7085 73.4783 43.2685 73.1516 42.8952 72.725C42.5352 72.285 42.3552 71.7116 42.3552 71.005C42.3552 70.445 42.5219 69.9316 42.8552 69.465C43.1885 68.9983 43.6619 68.6316 44.2752 68.365C44.8885 68.085 45.5885 67.945 46.3752 67.945C47.5885 67.945 48.5685 68.2516 49.3152 68.865C50.0619 69.4783 50.4619 70.3183 50.5152 71.385H48.6952C48.6552 70.8116 48.4219 70.3516 47.9952 70.005C47.5819 69.6583 47.0219 69.485 46.3152 69.485C45.6619 69.485 45.1419 69.625 44.7552 69.905C44.3685 70.185 44.1752 70.5516 44.1752 71.005C44.1752 71.365 44.2885 71.665 44.5152 71.905C44.7552 72.1316 45.0485 72.3183 45.3952 72.465C45.7552 72.5983 46.2485 72.7516 46.8752 72.925C47.6619 73.1383 48.3019 73.3516 48.7952 73.565C49.2885 73.765 49.7085 74.0716 50.0552 74.485C50.4152 74.8983 50.6019 75.4383 50.6152 76.105C50.6152 76.705 50.4485 77.245 50.1152 77.725C49.7819 78.205 49.3085 78.585 48.6952 78.865C48.0952 79.1316 47.4019 79.265 46.6152 79.265ZM62.6244 68.125L56.0244 84.245H54.1444L56.3044 78.965L51.8844 68.125H53.9044L57.3444 77.005L60.7444 68.125H62.6244ZM68.3339 79.265C67.4939 79.265 66.7406 79.125 66.0739 78.845C65.4073 78.5516 64.8806 78.1516 64.4939 77.645C64.1073 77.125 63.8939 76.5316 63.8539 75.865H65.7339C65.7873 76.4116 66.0406 76.8583 66.4939 77.205C66.9606 77.5516 67.5673 77.725 68.3139 77.725C69.0073 77.725 69.5539 77.5716 69.9539 77.265C70.3539 76.9583 70.5539 76.5716 70.5539 76.105C70.5539 75.625 70.3406 75.2716 69.9139 75.045C69.4873 74.805 68.8273 74.5716 67.9339 74.345C67.1206 74.1316 66.4539 73.9183 65.9339 73.705C65.4273 73.4783 64.9873 73.1516 64.6139 72.725C64.2539 72.285 64.0739 71.7116 64.0739 71.005C64.0739 70.445 64.2406 69.9316 64.5739 69.465C64.9073 68.9983 65.3806 68.6316 65.9939 68.365C66.6073 68.085 67.3073 67.945 68.0939 67.945C69.3073 67.945 70.2873 68.2516 71.0339 68.865C71.7806 69.4783 72.1806 70.3183 72.2339 71.385H70.4139C70.3739 70.8116 70.1406 70.3516 69.7139 70.005C69.3006 69.6583 68.7406 69.485 68.0339 69.485C67.3806 69.485 66.8606 69.625 66.4739 69.905C66.0873 70.185 65.8939 70.5516 65.8939 71.005C65.8939 71.365 66.0073 71.665 66.2339 71.905C66.4739 72.1316 66.7673 72.3183 67.1139 72.465C67.4739 72.5983 67.9673 72.7516 68.5939 72.925C69.3806 73.1383 70.0206 73.3516 70.5139 73.565C71.0073 73.765 71.4273 74.0716 71.7739 74.485C72.1339 74.8983 72.3206 75.4383 72.3339 76.105C72.3339 76.705 72.1673 77.245 71.8339 77.725C71.5006 78.205 71.0273 78.585 70.4139 78.865C69.8139 79.1316 69.1206 79.265 68.3339 79.265ZM77.1232 69.625V76.085C77.1232 76.6183 77.2365 76.9983 77.4632 77.225C77.6898 77.4383 78.0832 77.545 78.6432 77.545H79.9832V79.085H78.3432C77.3298 79.085 76.5698 78.8516 76.0632 78.385C75.5565 77.9183 75.3032 77.1516 75.3032 76.085V69.625H73.8832V68.125H75.3032V65.365H77.1232V68.125H79.9832V69.625H77.1232ZM92.1883 73.185C92.1883 73.5316 92.1683 73.8983 92.1283 74.285H83.3683C83.435 75.365 83.8016 76.2116 84.4683 76.825C85.1483 77.425 85.9683 77.725 86.9283 77.725C87.715 77.725 88.3683 77.545 88.8883 77.185C89.4216 76.8116 89.795 76.3183 90.0083 75.705H91.9683C91.675 76.7583 91.0883 77.6183 90.2083 78.285C89.3283 78.9383 88.235 79.265 86.9283 79.265C85.8883 79.265 84.955 79.0316 84.1283 78.565C83.315 78.0983 82.675 77.4383 82.2083 76.585C81.7416 75.7183 81.5083 74.7183 81.5083 73.585C81.5083 72.4516 81.735 71.4583 82.1883 70.605C82.6416 69.7516 83.275 69.0983 84.0883 68.645C84.915 68.1783 85.8616 67.945 86.9283 67.945C87.9683 67.945 88.8883 68.1716 89.6883 68.625C90.4883 69.0783 91.1016 69.705 91.5283 70.505C91.9683 71.2916 92.1883 72.185 92.1883 73.185ZM90.3083 72.805C90.3083 72.1116 90.155 71.5183 89.8483 71.025C89.5416 70.5183 89.1216 70.1383 88.5883 69.885C88.0683 69.6183 87.4883 69.485 86.8483 69.485C85.9283 69.485 85.1416 69.7783 84.4883 70.365C83.8483 70.9516 83.4816 71.765 83.3883 72.805H90.3083ZM107.771 67.925C108.624 67.925 109.384 68.105 110.051 68.465C110.717 68.8116 111.244 69.3383 111.631 70.045C112.017 70.7516 112.211 71.6116 112.211 72.625V79.085H110.411V72.885C110.411 71.7916 110.137 70.9583 109.591 70.385C109.057 69.7983 108.331 69.505 107.411 69.505C106.464 69.505 105.711 69.8116 105.151 70.425C104.591 71.025 104.311 71.8983 104.311 73.045V79.085H102.511V72.885C102.511 71.7916 102.237 70.9583 101.691 70.385C101.157 69.7983 100.431 69.505 99.5107 69.505C98.564 69.505 97.8107 69.8116 97.2507 70.425C96.6907 71.025 96.4107 71.8983 96.4107 73.045V79.085H94.5907V68.125H96.4107V69.705C96.7707 69.1316 97.2507 68.6916 97.8507 68.385C98.464 68.0783 99.1373 67.925 99.8707 67.925C100.791 67.925 101.604 68.1316 102.311 68.545C103.017 68.9583 103.544 69.565 103.891 70.365C104.197 69.5916 104.704 68.9916 105.411 68.565C106.117 68.1383 106.904 67.925 107.771 67.925ZM125.048 67.945C125.995 67.945 126.821 68.1516 127.528 68.565C128.248 68.9783 128.781 69.4983 129.128 70.125V68.125H130.968V79.325C130.968 80.325 130.755 81.2116 130.328 81.985C129.901 82.7716 129.288 83.385 128.488 83.825C127.701 84.265 126.781 84.485 125.728 84.485C124.288 84.485 123.088 84.145 122.128 83.465C121.168 82.785 120.601 81.8583 120.428 80.685H122.228C122.428 81.3516 122.841 81.885 123.468 82.285C124.095 82.6983 124.848 82.905 125.728 82.905C126.728 82.905 127.541 82.5916 128.168 81.965C128.808 81.3383 129.128 80.4583 129.128 79.325V77.025C128.768 77.665 128.235 78.1983 127.528 78.625C126.821 79.0516 125.995 79.265 125.048 79.265C124.075 79.265 123.188 79.025 122.388 78.545C121.601 78.065 120.981 77.3916 120.528 76.525C120.075 75.6583 119.848 74.6716 119.848 73.565C119.848 72.445 120.075 71.465 120.528 70.625C120.981 69.7716 121.601 69.1116 122.388 68.645C123.188 68.1783 124.075 67.945 125.048 67.945ZM129.128 73.585C129.128 72.7583 128.961 72.0383 128.628 71.425C128.295 70.8116 127.841 70.345 127.268 70.025C126.708 69.6916 126.088 69.525 125.408 69.525C124.728 69.525 124.108 69.685 123.548 70.005C122.988 70.325 122.541 70.7916 122.208 71.405C121.875 72.0183 121.708 72.7383 121.708 73.565C121.708 74.405 121.875 75.1383 122.208 75.765C122.541 76.3783 122.988 76.8516 123.548 77.185C124.108 77.505 124.728 77.665 125.408 77.665C126.088 77.665 126.708 77.505 127.268 77.185C127.841 76.8516 128.295 76.3783 128.628 75.765C128.961 75.1383 129.128 74.4116 129.128 73.585ZM135.864 69.905C136.184 69.2783 136.637 68.7916 137.224 68.445C137.824 68.0983 138.55 67.925 139.404 67.925V69.805H138.924C136.884 69.805 135.864 70.9116 135.864 73.125V79.085H134.044V68.125H135.864V69.905ZM146.285 79.265C145.258 79.265 144.325 79.0316 143.485 78.565C142.658 78.0983 142.005 77.4383 141.525 76.585C141.058 75.7183 140.825 74.7183 140.825 73.585C140.825 72.465 141.065 71.4783 141.545 70.625C142.038 69.7583 142.705 69.0983 143.545 68.645C144.385 68.1783 145.325 67.945 146.365 67.945C147.405 67.945 148.345 68.1783 149.185 68.645C150.025 69.0983 150.685 69.7516 151.165 70.605C151.658 71.4583 151.905 72.4516 151.905 73.585C151.905 74.7183 151.651 75.7183 151.145 76.585C150.651 77.4383 149.978 78.0983 149.125 78.565C148.271 79.0316 147.325 79.265 146.285 79.265ZM146.285 77.665C146.938 77.665 147.551 77.5116 148.125 77.205C148.698 76.8983 149.158 76.4383 149.505 75.825C149.865 75.2116 150.045 74.465 150.045 73.585C150.045 72.705 149.871 71.9583 149.525 71.345C149.178 70.7316 148.725 70.2783 148.165 69.985C147.605 69.6783 146.998 69.525 146.345 69.525C145.678 69.525 145.065 69.6783 144.505 69.985C143.958 70.2783 143.518 70.7316 143.185 71.345C142.851 71.9583 142.685 72.705 142.685 73.585C142.685 74.4783 142.845 75.2316 143.165 75.845C143.498 76.4583 143.938 76.9183 144.485 77.225C145.031 77.5183 145.631 77.665 146.285 77.665ZM168.898 68.125L165.478 79.085H163.598L160.958 70.385L158.318 79.085H156.438L152.998 68.125H154.858L157.378 77.325L160.098 68.125H161.958L164.618 77.345L167.098 68.125H168.898ZM172.924 69.625V76.085C172.924 76.6183 173.037 76.9983 173.264 77.225C173.491 77.4383 173.884 77.545 174.444 77.545H175.784V79.085H174.144C173.131 79.085 172.371 78.8516 171.864 78.385C171.357 77.9183 171.104 77.1516 171.104 76.085V69.625H169.684V68.125H171.104V65.365H172.924V68.125H175.784V69.625H172.924ZM183.429 67.925C184.256 67.925 185.002 68.105 185.669 68.465C186.336 68.8116 186.856 69.3383 187.229 70.045C187.616 70.7516 187.809 71.6116 187.809 72.625V79.085H186.009V72.885C186.009 71.7916 185.736 70.9583 185.189 70.385C184.642 69.7983 183.896 69.505 182.949 69.505C181.989 69.505 181.222 69.805 180.649 70.405C180.089 71.005 179.809 71.8783 179.809 73.025V79.085H177.989V64.285H179.809V69.685C180.169 69.125 180.662 68.6916 181.289 68.385C181.929 68.0783 182.642 67.925 183.429 67.925Z" fill="#575757"/>
<path d="M310.621 92.4629L311.104 91.5875L310.878 91.4629H310.621V92.4629ZM0.226497 92.4629L6 98.2364L11.7735 92.4629L6 86.6894L0.226497 92.4629ZM333.593 104.009L311.104 91.5875L310.137 93.3382L332.626 105.76L333.593 104.009ZM310.621 91.4629H6V93.4629H310.621V91.4629Z" fill="#AFAFAF"/>
<path d="M16.1199 443.975V445.455H12.3199V457.915H10.4999V445.455H6.67988V443.975H16.1199ZM28.3602 452.015C28.3602 452.362 28.3402 452.728 28.3002 453.115H19.5402C19.6069 454.195 19.9735 455.042 20.6402 455.655C21.3202 456.255 22.1402 456.555 23.1002 456.555C23.8869 456.555 24.5402 456.375 25.0602 456.015C25.5935 455.642 25.9669 455.148 26.1802 454.535H28.1402C27.8469 455.588 27.2602 456.448 26.3802 457.115C25.5002 457.768 24.4069 458.095 23.1002 458.095C22.0602 458.095 21.1269 457.862 20.3002 457.395C19.4869 456.928 18.8469 456.268 18.3802 455.415C17.9135 454.548 17.6802 453.548 17.6802 452.415C17.6802 451.282 17.9069 450.288 18.3602 449.435C18.8135 448.582 19.4469 447.928 20.2602 447.475C21.0869 447.008 22.0335 446.775 23.1002 446.775C24.1402 446.775 25.0602 447.002 25.8602 447.455C26.6602 447.908 27.2735 448.535 27.7002 449.335C28.1402 450.122 28.3602 451.015 28.3602 452.015ZM26.4802 451.635C26.4802 450.942 26.3269 450.348 26.0202 449.855C25.7135 449.348 25.2935 448.968 24.7602 448.715C24.2402 448.448 23.6602 448.315 23.0202 448.315C22.1002 448.315 21.3135 448.608 20.6602 449.195C20.0202 449.782 19.6535 450.595 19.5602 451.635H26.4802ZM30.0825 452.395C30.0825 451.275 30.3092 450.295 30.7625 449.455C31.2159 448.602 31.8359 447.942 32.6225 447.475C33.4225 447.008 34.3092 446.775 35.2825 446.775C36.2425 446.775 37.0759 446.982 37.7825 447.395C38.4892 447.808 39.0159 448.328 39.3625 448.955V446.955H41.2025V457.915H39.3625V455.875C39.0025 456.515 38.4625 457.048 37.7425 457.475C37.0359 457.888 36.2092 458.095 35.2625 458.095C34.2892 458.095 33.4092 457.855 32.6225 457.375C31.8359 456.895 31.2159 456.222 30.7625 455.355C30.3092 454.488 30.0825 453.502 30.0825 452.395ZM39.3625 452.415C39.3625 451.588 39.1959 450.868 38.8625 450.255C38.5292 449.642 38.0759 449.175 37.5025 448.855C36.9425 448.522 36.3225 448.355 35.6425 448.355C34.9625 448.355 34.3425 448.515 33.7825 448.835C33.2225 449.155 32.7759 449.622 32.4425 450.235C32.1092 450.848 31.9425 451.568 31.9425 452.395C31.9425 453.235 32.1092 453.968 32.4425 454.595C32.7759 455.208 33.2225 455.682 33.7825 456.015C34.3425 456.335 34.9625 456.495 35.6425 456.495C36.3225 456.495 36.9425 456.335 37.5025 456.015C38.0759 455.682 38.5292 455.208 38.8625 454.595C39.1959 453.968 39.3625 453.242 39.3625 452.415ZM57.4582 446.755C58.3115 446.755 59.0715 446.935 59.7382 447.295C60.4048 447.642 60.9315 448.168 61.3182 448.875C61.7048 449.582 61.8982 450.442 61.8982 451.455V457.915H60.0982V451.715C60.0982 450.622 59.8248 449.788 59.2782 449.215C58.7448 448.628 58.0182 448.335 57.0982 448.335C56.1515 448.335 55.3982 448.642 54.8382 449.255C54.2782 449.855 53.9982 450.728 53.9982 451.875V457.915H52.1982V451.715C52.1982 450.622 51.9248 449.788 51.3782 449.215C50.8448 448.628 50.1182 448.335 49.1982 448.335C48.2515 448.335 47.4982 448.642 46.9382 449.255C46.3782 449.855 46.0982 450.728 46.0982 451.875V457.915H44.2782V446.955H46.0982V448.535C46.4582 447.962 46.9382 447.522 47.5382 447.215C48.1515 446.908 48.8248 446.755 49.5582 446.755C50.4782 446.755 51.2915 446.962 51.9982 447.375C52.7048 447.788 53.2315 448.395 53.5782 449.195C53.8848 448.422 54.3915 447.822 55.0982 447.395C55.8048 446.968 56.5915 446.755 57.4582 446.755ZM80.9157 457.915L79.0957 456.075C78.4157 456.782 77.689 457.308 76.9157 457.655C76.1423 457.988 75.269 458.155 74.2957 458.155C73.3357 458.155 72.4823 457.982 71.7357 457.635C71.0023 457.288 70.429 456.795 70.0157 456.155C69.6157 455.515 69.4157 454.768 69.4157 453.915C69.4157 452.942 69.689 452.088 70.2357 451.355C70.7957 450.608 71.6157 450.022 72.6957 449.595C72.269 449.088 71.9623 448.622 71.7757 448.195C71.589 447.768 71.4957 447.302 71.4957 446.795C71.4957 446.208 71.6423 445.682 71.9357 445.215C72.2423 444.735 72.6757 444.362 73.2357 444.095C73.7957 443.828 74.4423 443.695 75.1757 443.695C75.8957 443.695 76.5223 443.835 77.0557 444.115C77.589 444.395 77.989 444.788 78.2557 445.295C78.5223 445.788 78.6423 446.342 78.6157 446.955H76.7957C76.809 446.408 76.6557 445.982 76.3357 445.675C76.0157 445.355 75.6023 445.195 75.0957 445.195C74.5623 445.195 74.129 445.348 73.7957 445.655C73.4757 445.948 73.3157 446.328 73.3157 446.795C73.3157 447.195 73.4223 447.582 73.6357 447.955C73.8623 448.328 74.2357 448.788 74.7557 449.335L78.9157 453.515L79.2757 452.955L80.6357 450.675H82.5957L80.9557 453.515C80.729 453.915 80.4623 454.335 80.1557 454.775L83.2957 457.915H80.9157ZM74.2957 456.595C75.0157 456.595 75.6623 456.455 76.2357 456.175C76.8223 455.895 77.3757 455.462 77.8957 454.875L73.7957 450.755C72.089 451.408 71.2357 452.442 71.2357 453.855C71.2357 454.642 71.5157 455.295 72.0757 455.815C72.649 456.335 73.389 456.595 74.2957 456.595ZM98.5728 454.815H92.4928L91.3728 457.915H89.4528L94.4928 444.055H96.5928L101.613 457.915H99.6928L98.5728 454.815ZM98.0528 453.335L95.5328 446.295L93.0128 453.335H98.0528ZM103.129 452.395C103.129 451.275 103.356 450.295 103.809 449.455C104.263 448.602 104.883 447.942 105.669 447.475C106.469 447.008 107.363 446.775 108.349 446.775C109.203 446.775 109.996 446.975 110.729 447.375C111.463 447.762 112.023 448.275 112.409 448.915V443.115H114.249V457.915H112.409V455.855C112.049 456.508 111.516 457.048 110.809 457.475C110.103 457.888 109.276 458.095 108.329 458.095C107.356 458.095 106.469 457.855 105.669 457.375C104.883 456.895 104.263 456.222 103.809 455.355C103.356 454.488 103.129 453.502 103.129 452.395ZM112.409 452.415C112.409 451.588 112.243 450.868 111.909 450.255C111.576 449.642 111.123 449.175 110.549 448.855C109.989 448.522 109.369 448.355 108.689 448.355C108.009 448.355 107.389 448.515 106.829 448.835C106.269 449.155 105.823 449.622 105.489 450.235C105.156 450.848 104.989 451.568 104.989 452.395C104.989 453.235 105.156 453.968 105.489 454.595C105.823 455.208 106.269 455.682 106.829 456.015C107.389 456.335 108.009 456.495 108.689 456.495C109.369 456.495 109.989 456.335 110.549 456.015C111.123 455.682 111.576 455.208 111.909 454.595C112.243 453.968 112.409 453.242 112.409 452.415ZM121.405 456.235L124.805 446.955H126.745L122.445 457.915H120.325L116.025 446.955H117.985L121.405 456.235ZM129.476 445.175C129.129 445.175 128.836 445.055 128.596 444.815C128.356 444.575 128.236 444.282 128.236 443.935C128.236 443.588 128.356 443.295 128.596 443.055C128.836 442.815 129.129 442.695 129.476 442.695C129.809 442.695 130.089 442.815 130.316 443.055C130.556 443.295 130.676 443.588 130.676 443.935C130.676 444.282 130.556 444.575 130.316 444.815C130.089 445.055 129.809 445.175 129.476 445.175ZM130.356 446.955V457.915H128.536V446.955H130.356ZM137.338 458.095C136.498 458.095 135.745 457.955 135.078 457.675C134.411 457.382 133.885 456.982 133.498 456.475C133.111 455.955 132.898 455.362 132.858 454.695H134.738C134.791 455.242 135.045 455.688 135.498 456.035C135.965 456.382 136.571 456.555 137.318 456.555C138.011 456.555 138.558 456.402 138.958 456.095C139.358 455.788 139.558 455.402 139.558 454.935C139.558 454.455 139.345 454.102 138.918 453.875C138.491 453.635 137.831 453.402 136.938 453.175C136.125 452.962 135.458 452.748 134.938 452.535C134.431 452.308 133.991 451.982 133.618 451.555C133.258 451.115 133.078 450.542 133.078 449.835C133.078 449.275 133.245 448.762 133.578 448.295C133.911 447.828 134.385 447.462 134.998 447.195C135.611 446.915 136.311 446.775 137.098 446.775C138.311 446.775 139.291 447.082 140.038 447.695C140.785 448.308 141.185 449.148 141.238 450.215H139.418C139.378 449.642 139.145 449.182 138.718 448.835C138.305 448.488 137.745 448.315 137.038 448.315C136.385 448.315 135.865 448.455 135.478 448.735C135.091 449.015 134.898 449.382 134.898 449.835C134.898 450.195 135.011 450.495 135.238 450.735C135.478 450.962 135.771 451.148 136.118 451.295C136.478 451.428 136.971 451.582 137.598 451.755C138.385 451.968 139.025 452.182 139.518 452.395C140.011 452.595 140.431 452.902 140.778 453.315C141.138 453.728 141.325 454.268 141.338 454.935C141.338 455.535 141.171 456.075 140.838 456.555C140.505 457.035 140.031 457.415 139.418 457.695C138.818 457.962 138.125 458.095 137.338 458.095ZM148.687 458.095C147.66 458.095 146.727 457.862 145.887 457.395C145.06 456.928 144.407 456.268 143.927 455.415C143.46 454.548 143.227 453.548 143.227 452.415C143.227 451.295 143.467 450.308 143.947 449.455C144.44 448.588 145.107 447.928 145.947 447.475C146.787 447.008 147.727 446.775 148.767 446.775C149.807 446.775 150.747 447.008 151.587 447.475C152.427 447.928 153.087 448.582 153.567 449.435C154.06 450.288 154.307 451.282 154.307 452.415C154.307 453.548 154.054 454.548 153.547 455.415C153.054 456.268 152.38 456.928 151.527 457.395C150.674 457.862 149.727 458.095 148.687 458.095ZM148.687 456.495C149.34 456.495 149.954 456.342 150.527 456.035C151.1 455.728 151.56 455.268 151.907 454.655C152.267 454.042 152.447 453.295 152.447 452.415C152.447 451.535 152.274 450.788 151.927 450.175C151.58 449.562 151.127 449.108 150.567 448.815C150.007 448.508 149.4 448.355 148.747 448.355C148.08 448.355 147.467 448.508 146.907 448.815C146.36 449.108 145.92 449.562 145.587 450.175C145.254 450.788 145.087 451.535 145.087 452.415C145.087 453.308 145.247 454.062 145.567 454.675C145.9 455.288 146.34 455.748 146.887 456.055C147.434 456.348 148.034 456.495 148.687 456.495ZM158.52 448.735C158.84 448.108 159.293 447.622 159.88 447.275C160.48 446.928 161.207 446.755 162.06 446.755V448.635H161.58C159.54 448.635 158.52 449.742 158.52 451.955V457.915H156.7V446.955H158.52V448.735ZM168.041 458.095C167.201 458.095 166.448 457.955 165.781 457.675C165.114 457.382 164.588 456.982 164.201 456.475C163.814 455.955 163.601 455.362 163.561 454.695H165.441C165.494 455.242 165.748 455.688 166.201 456.035C166.668 456.382 167.274 456.555 168.021 456.555C168.714 456.555 169.261 456.402 169.661 456.095C170.061 455.788 170.261 455.402 170.261 454.935C170.261 454.455 170.048 454.102 169.621 453.875C169.194 453.635 168.534 453.402 167.641 453.175C166.828 452.962 166.161 452.748 165.641 452.535C165.134 452.308 164.694 451.982 164.321 451.555C163.961 451.115 163.781 450.542 163.781 449.835C163.781 449.275 163.948 448.762 164.281 448.295C164.614 447.828 165.088 447.462 165.701 447.195C166.314 446.915 167.014 446.775 167.801 446.775C169.014 446.775 169.994 447.082 170.741 447.695C171.488 448.308 171.888 449.148 171.941 450.215H170.121C170.081 449.642 169.848 449.182 169.421 448.835C169.008 448.488 168.448 448.315 167.741 448.315C167.088 448.315 166.568 448.455 166.181 448.735C165.794 449.015 165.601 449.382 165.601 449.835C165.601 450.195 165.714 450.495 165.941 450.735C166.181 450.962 166.474 451.148 166.821 451.295C167.181 451.428 167.674 451.582 168.301 451.755C169.088 451.968 169.728 452.182 170.221 452.395C170.714 452.595 171.134 452.902 171.481 453.315C171.841 453.728 172.028 454.268 172.041 454.935C172.041 455.535 171.874 456.075 171.541 456.555C171.208 457.035 170.734 457.415 170.121 457.695C169.521 457.962 168.828 458.095 168.041 458.095Z" fill="#575757"/>
<path d="M367.188 471.203V472.203H367.65L367.95 471.851L367.188 471.203ZM0.226497 471.203L6 476.977L11.7735 471.203L6 465.43L0.226497 471.203ZM384.07 449.798L366.426 470.556L367.95 471.851L385.594 451.093L384.07 449.798ZM367.188 470.203H6V472.203H367.188V470.203Z" fill="#032A28"/>
<path d="M1026.58 587.211H1031.46V588.691H1024.76V574.751H1026.58V587.211ZM1034.34 575.951C1033.99 575.951 1033.7 575.831 1033.46 575.591C1033.22 575.351 1033.1 575.058 1033.1 574.711C1033.1 574.365 1033.22 574.071 1033.46 573.831C1033.7 573.591 1033.99 573.471 1034.34 573.471C1034.67 573.471 1034.95 573.591 1035.18 573.831C1035.42 574.071 1035.54 574.365 1035.54 574.711C1035.54 575.058 1035.42 575.351 1035.18 575.591C1034.95 575.831 1034.67 575.951 1034.34 575.951ZM1035.22 577.731V588.691H1033.4V577.731H1035.22ZM1037.64 583.171C1037.64 582.051 1037.86 581.071 1038.32 580.231C1038.77 579.378 1039.39 578.718 1040.18 578.251C1040.98 577.785 1041.87 577.551 1042.86 577.551C1043.8 577.551 1044.63 577.765 1045.34 578.191C1046.06 578.605 1046.58 579.118 1046.92 579.731V577.731H1048.76V593.891H1046.92V586.671C1046.57 587.285 1046.04 587.805 1045.32 588.231C1044.6 588.658 1043.76 588.871 1042.8 588.871C1041.84 588.871 1040.96 588.631 1040.18 588.151C1039.39 587.671 1038.77 586.998 1038.32 586.131C1037.86 585.265 1037.64 584.278 1037.64 583.171ZM1046.92 583.191C1046.92 582.365 1046.75 581.645 1046.42 581.031C1046.08 580.418 1045.63 579.951 1045.06 579.631C1044.5 579.298 1043.88 579.131 1043.2 579.131C1042.52 579.131 1041.9 579.291 1041.34 579.611C1040.78 579.931 1040.33 580.398 1040 581.011C1039.66 581.625 1039.5 582.345 1039.5 583.171C1039.5 584.011 1039.66 584.745 1040 585.371C1040.33 585.985 1040.78 586.458 1041.34 586.791C1041.9 587.111 1042.52 587.271 1043.2 587.271C1043.88 587.271 1044.5 587.111 1045.06 586.791C1045.63 586.458 1046.08 585.985 1046.42 585.371C1046.75 584.745 1046.92 584.018 1046.92 583.191ZM1061.55 577.731V588.691H1059.73V587.071C1059.39 587.631 1058.9 588.071 1058.27 588.391C1057.66 588.698 1056.98 588.851 1056.23 588.851C1055.38 588.851 1054.61 588.678 1053.93 588.331C1053.25 587.971 1052.71 587.438 1052.31 586.731C1051.93 586.025 1051.73 585.165 1051.73 584.151V577.731H1053.53V583.911C1053.53 584.991 1053.81 585.825 1054.35 586.411C1054.9 586.985 1055.65 587.271 1056.59 587.271C1057.57 587.271 1058.33 586.971 1058.89 586.371C1059.45 585.771 1059.73 584.898 1059.73 583.751V577.731H1061.55ZM1065.57 575.951C1065.22 575.951 1064.93 575.831 1064.69 575.591C1064.45 575.351 1064.33 575.058 1064.33 574.711C1064.33 574.365 1064.45 574.071 1064.69 573.831C1064.93 573.591 1065.22 573.471 1065.57 573.471C1065.9 573.471 1066.18 573.591 1066.41 573.831C1066.65 574.071 1066.77 574.365 1066.77 574.711C1066.77 575.058 1066.65 575.351 1066.41 575.591C1066.18 575.831 1065.9 575.951 1065.57 575.951ZM1066.45 577.731V588.691H1064.63V577.731H1066.45ZM1068.87 583.171C1068.87 582.051 1069.09 581.071 1069.55 580.231C1070 579.378 1070.62 578.718 1071.41 578.251C1072.21 577.785 1073.1 577.551 1074.09 577.551C1074.94 577.551 1075.73 577.751 1076.47 578.151C1077.2 578.538 1077.76 579.051 1078.15 579.691V573.891H1079.99V588.691H1078.15V586.631C1077.79 587.285 1077.25 587.825 1076.55 588.251C1075.84 588.665 1075.01 588.871 1074.07 588.871C1073.09 588.871 1072.21 588.631 1071.41 588.151C1070.62 587.671 1070 586.998 1069.55 586.131C1069.09 585.265 1068.87 584.278 1068.87 583.171ZM1078.15 583.191C1078.15 582.365 1077.98 581.645 1077.65 581.031C1077.31 580.418 1076.86 579.951 1076.29 579.631C1075.73 579.298 1075.11 579.131 1074.43 579.131C1073.75 579.131 1073.13 579.291 1072.57 579.611C1072.01 579.931 1071.56 580.398 1071.23 581.011C1070.89 581.625 1070.73 582.345 1070.73 583.171C1070.73 584.011 1070.89 584.745 1071.23 585.371C1071.56 585.985 1072.01 586.458 1072.57 586.791C1073.13 587.111 1073.75 587.271 1074.43 587.271C1075.11 587.271 1075.73 587.111 1076.29 586.791C1076.86 586.458 1077.31 585.985 1077.65 585.371C1077.98 584.745 1078.15 584.018 1078.15 583.191ZM1084 575.951C1083.66 575.951 1083.36 575.831 1083.12 575.591C1082.88 575.351 1082.76 575.058 1082.76 574.711C1082.76 574.365 1082.88 574.071 1083.12 573.831C1083.36 573.591 1083.66 573.471 1084 573.471C1084.34 573.471 1084.62 573.591 1084.84 573.831C1085.08 574.071 1085.2 574.365 1085.2 574.711C1085.2 575.058 1085.08 575.351 1084.84 575.591C1084.62 575.831 1084.34 575.951 1084 575.951ZM1084.88 577.731V588.691H1083.06V577.731H1084.88ZM1090.21 579.231V585.691C1090.21 586.225 1090.32 586.605 1090.55 586.831C1090.77 587.045 1091.17 587.151 1091.73 587.151H1093.07V588.691H1091.43C1090.41 588.691 1089.65 588.458 1089.15 587.991C1088.64 587.525 1088.39 586.758 1088.39 585.691V579.231H1086.97V577.731H1088.39V574.971H1090.21V577.731H1093.07V579.231H1090.21ZM1104.71 577.731L1098.11 593.851H1096.23L1098.39 588.571L1093.97 577.731H1095.99L1099.43 586.611L1102.83 577.731H1104.71Z" fill="#575757"/>
<path d="M556.703 601.594H555.703V602.594H556.703V601.594ZM1109.87 601.594L1104.09 595.82L1098.32 601.594L1104.09 607.367L1109.87 601.594ZM555.703 507.188V601.594H557.703V507.188H555.703ZM556.703 602.594H1104.09V600.594H556.703V602.594Z" fill="#065652"/>
<path d="M1041.64 415.376H1035.56L1034.44 418.476H1032.52L1037.56 404.616H1039.66L1044.68 418.476H1042.76L1041.64 415.376ZM1041.12 413.896L1038.6 406.856L1036.08 413.896H1041.12ZM1047.81 405.736C1047.47 405.736 1047.17 405.616 1046.93 405.376C1046.69 405.136 1046.57 404.842 1046.57 404.496C1046.57 404.149 1046.69 403.856 1046.93 403.616C1047.17 403.376 1047.47 403.256 1047.81 403.256C1048.15 403.256 1048.43 403.376 1048.65 403.616C1048.89 403.856 1049.01 404.149 1049.01 404.496C1049.01 404.842 1048.89 405.136 1048.65 405.376C1048.43 405.616 1048.15 405.736 1047.81 405.736ZM1048.69 407.516V418.476H1046.87V407.516H1048.69ZM1053.61 409.296C1053.93 408.669 1054.39 408.182 1054.97 407.836C1055.57 407.489 1056.3 407.316 1057.15 407.316V409.196H1056.67C1054.63 409.196 1053.61 410.302 1053.61 412.516V418.476H1051.79V407.516H1053.61V409.296ZM1058.57 412.956C1058.57 411.836 1058.8 410.856 1059.25 410.016C1059.71 409.162 1060.33 408.502 1061.11 408.036C1061.91 407.569 1062.81 407.336 1063.79 407.336C1064.65 407.336 1065.44 407.536 1066.17 407.936C1066.91 408.322 1067.47 408.836 1067.85 409.476V403.676H1069.69V418.476H1067.85V416.416C1067.49 417.069 1066.96 417.609 1066.25 418.036C1065.55 418.449 1064.72 418.656 1063.77 418.656C1062.8 418.656 1061.91 418.416 1061.11 417.936C1060.33 417.456 1059.71 416.782 1059.25 415.916C1058.8 415.049 1058.57 414.062 1058.57 412.956ZM1067.85 412.976C1067.85 412.149 1067.69 411.429 1067.35 410.816C1067.02 410.202 1066.57 409.736 1065.99 409.416C1065.43 409.082 1064.81 408.916 1064.13 408.916C1063.45 408.916 1062.83 409.076 1062.27 409.396C1061.71 409.716 1061.27 410.182 1060.93 410.796C1060.6 411.409 1060.43 412.129 1060.43 412.956C1060.43 413.796 1060.6 414.529 1060.93 415.156C1061.27 415.769 1061.71 416.242 1062.27 416.576C1062.83 416.896 1063.45 417.056 1064.13 417.056C1064.81 417.056 1065.43 416.896 1065.99 416.576C1066.57 416.242 1067.02 415.769 1067.35 415.156C1067.69 414.529 1067.85 413.802 1067.85 412.976ZM1074.59 409.296C1074.91 408.669 1075.36 408.182 1075.95 407.836C1076.55 407.489 1077.28 407.316 1078.13 407.316V409.196H1077.65C1075.61 409.196 1074.59 410.302 1074.59 412.516V418.476H1072.77V407.516H1074.59V409.296ZM1085.01 418.656C1083.98 418.656 1083.05 418.422 1082.21 417.956C1081.38 417.489 1080.73 416.829 1080.25 415.976C1079.78 415.109 1079.55 414.109 1079.55 412.976C1079.55 411.856 1079.79 410.869 1080.27 410.016C1080.76 409.149 1081.43 408.489 1082.27 408.036C1083.11 407.569 1084.05 407.336 1085.09 407.336C1086.13 407.336 1087.07 407.569 1087.91 408.036C1088.75 408.489 1089.41 409.142 1089.89 409.996C1090.38 410.849 1090.63 411.842 1090.63 412.976C1090.63 414.109 1090.38 415.109 1089.87 415.976C1089.38 416.829 1088.7 417.489 1087.85 417.956C1087 418.422 1086.05 418.656 1085.01 418.656ZM1085.01 417.056C1085.66 417.056 1086.28 416.902 1086.85 416.596C1087.42 416.289 1087.88 415.829 1088.23 415.216C1088.59 414.602 1088.77 413.856 1088.77 412.976C1088.77 412.096 1088.6 411.349 1088.25 410.736C1087.9 410.122 1087.45 409.669 1086.89 409.376C1086.33 409.069 1085.72 408.916 1085.07 408.916C1084.4 408.916 1083.79 409.069 1083.23 409.376C1082.68 409.669 1082.24 410.122 1081.91 410.736C1081.58 411.349 1081.41 412.096 1081.41 412.976C1081.41 413.869 1081.57 414.622 1081.89 415.236C1082.22 415.849 1082.66 416.309 1083.21 416.616C1083.76 416.909 1084.36 417.056 1085.01 417.056ZM1094.84 409.536C1095.2 408.909 1095.74 408.389 1096.44 407.976C1097.16 407.549 1098 407.336 1098.94 407.336C1099.92 407.336 1100.8 407.569 1101.58 408.036C1102.38 408.502 1103.01 409.162 1103.46 410.016C1103.92 410.856 1104.14 411.836 1104.14 412.956C1104.14 414.062 1103.92 415.049 1103.46 415.916C1103.01 416.782 1102.38 417.456 1101.58 417.936C1100.8 418.416 1099.92 418.656 1098.94 418.656C1098.01 418.656 1097.18 418.449 1096.46 418.036C1095.76 417.609 1095.22 417.082 1094.84 416.456V423.676H1093.02V407.516H1094.84V409.536ZM1102.28 412.956C1102.28 412.129 1102.12 411.409 1101.78 410.796C1101.45 410.182 1101 409.716 1100.42 409.396C1099.86 409.076 1099.24 408.916 1098.56 408.916C1097.9 408.916 1097.28 409.082 1096.7 409.416C1096.14 409.736 1095.69 410.209 1095.34 410.836C1095.01 411.449 1094.84 412.162 1094.84 412.976C1094.84 413.802 1095.01 414.529 1095.34 415.156C1095.69 415.769 1096.14 416.242 1096.7 416.576C1097.28 416.896 1097.9 417.056 1098.56 417.056C1099.24 417.056 1099.86 416.896 1100.42 416.576C1101 416.242 1101.45 415.769 1101.78 415.156C1102.12 414.529 1102.28 413.796 1102.28 412.956Z" fill="#575757"/>
<path d="M803.104 431.764L802.104 431.79L802.129 432.764H803.104V431.764ZM1109.87 431.764L1104.09 425.991L1098.32 431.764L1104.09 437.538L1109.87 431.764ZM800.029 349.796L802.104 431.79L804.104 431.739L802.028 349.745L800.029 349.796ZM803.104 432.764H1104.09V430.764H803.104V432.764Z" fill="#0DAAA1"/>
<path d="M1013.08 263.753L1007.34 257.393V263.753H1005.52V249.813H1007.34V256.273L1013.1 249.813H1015.4L1009.08 256.793L1015.46 263.753H1013.08ZM1023.82 263.893C1022.52 263.893 1021.34 263.593 1020.28 262.993C1019.21 262.38 1018.36 261.533 1017.74 260.453C1017.12 259.36 1016.82 258.133 1016.82 256.773C1016.82 255.413 1017.12 254.193 1017.74 253.113C1018.36 252.02 1019.21 251.173 1020.28 250.573C1021.34 249.96 1022.52 249.653 1023.82 249.653C1025.12 249.653 1026.31 249.96 1027.38 250.573C1028.44 251.173 1029.28 252.013 1029.9 253.093C1030.51 254.173 1030.82 255.4 1030.82 256.773C1030.82 258.146 1030.51 259.373 1029.9 260.453C1029.28 261.533 1028.44 262.38 1027.38 262.993C1026.31 263.593 1025.12 263.893 1023.82 263.893ZM1023.82 262.313C1024.79 262.313 1025.66 262.086 1026.44 261.633C1027.22 261.18 1027.84 260.533 1028.28 259.693C1028.73 258.853 1028.96 257.88 1028.96 256.773C1028.96 255.653 1028.73 254.68 1028.28 253.853C1027.84 253.013 1027.23 252.366 1026.46 251.913C1025.68 251.46 1024.8 251.233 1023.82 251.233C1022.83 251.233 1021.95 251.46 1021.18 251.913C1020.4 252.366 1019.79 253.013 1019.34 253.853C1018.9 254.68 1018.68 255.653 1018.68 256.773C1018.68 257.88 1018.9 258.853 1019.34 259.693C1019.79 260.533 1020.4 261.18 1021.18 261.633C1021.96 262.086 1022.84 262.313 1023.82 262.313ZM1035.04 262.273H1039.92V263.753H1033.22V249.813H1035.04V262.273ZM1049 254.573C1049.32 253.946 1049.78 253.46 1050.36 253.113C1050.96 252.766 1051.69 252.593 1052.54 252.593V254.473H1052.06C1050.02 254.473 1049 255.58 1049 257.793V263.753H1047.18V252.793H1049V254.573ZM1059.43 263.933C1058.4 263.933 1057.47 263.7 1056.63 263.233C1055.8 262.766 1055.15 262.106 1054.67 261.253C1054.2 260.386 1053.97 259.386 1053.97 258.253C1053.97 257.133 1054.21 256.146 1054.69 255.293C1055.18 254.426 1055.85 253.766 1056.69 253.313C1057.53 252.846 1058.47 252.613 1059.51 252.613C1060.55 252.613 1061.49 252.846 1062.33 253.313C1063.17 253.766 1063.83 254.42 1064.31 255.273C1064.8 256.126 1065.05 257.12 1065.05 258.253C1065.05 259.386 1064.79 260.386 1064.29 261.253C1063.79 262.106 1063.12 262.766 1062.27 263.233C1061.41 263.7 1060.47 263.933 1059.43 263.933ZM1059.43 262.333C1060.08 262.333 1060.69 262.18 1061.27 261.873C1061.84 261.566 1062.3 261.106 1062.65 260.493C1063.01 259.88 1063.19 259.133 1063.19 258.253C1063.19 257.373 1063.01 256.626 1062.67 256.013C1062.32 255.4 1061.87 254.946 1061.31 254.653C1060.75 254.346 1060.14 254.193 1059.49 254.193C1058.82 254.193 1058.21 254.346 1057.65 254.653C1057.1 254.946 1056.66 255.4 1056.33 256.013C1055.99 256.626 1055.83 257.373 1055.83 258.253C1055.83 259.146 1055.99 259.9 1056.31 260.513C1056.64 261.126 1057.08 261.586 1057.63 261.893C1058.17 262.186 1058.77 262.333 1059.43 262.333ZM1077.16 252.793V263.753H1075.34V262.133C1074.99 262.693 1074.51 263.133 1073.88 263.453C1073.27 263.76 1072.59 263.913 1071.84 263.913C1070.99 263.913 1070.22 263.74 1069.54 263.393C1068.86 263.033 1068.32 262.5 1067.92 261.793C1067.53 261.086 1067.34 260.226 1067.34 259.213V252.793H1069.14V258.973C1069.14 260.053 1069.41 260.886 1069.96 261.473C1070.51 262.046 1071.25 262.333 1072.2 262.333C1073.17 262.333 1073.94 262.033 1074.5 261.433C1075.06 260.833 1075.34 259.96 1075.34 258.813V252.793H1077.16ZM1085.57 252.593C1086.9 252.593 1087.98 253 1088.81 253.813C1089.64 254.613 1090.05 255.773 1090.05 257.293V263.753H1088.25V257.553C1088.25 256.46 1087.98 255.626 1087.43 255.053C1086.88 254.466 1086.14 254.173 1085.19 254.173C1084.23 254.173 1083.46 254.473 1082.89 255.073C1082.33 255.673 1082.05 256.546 1082.05 257.693V263.753H1080.23V252.793H1082.05V254.353C1082.41 253.793 1082.9 253.36 1083.51 253.053C1084.14 252.746 1084.82 252.593 1085.57 252.593ZM1092.34 258.233C1092.34 257.113 1092.57 256.133 1093.02 255.293C1093.48 254.44 1094.1 253.78 1094.88 253.313C1095.68 252.846 1096.58 252.613 1097.56 252.613C1098.42 252.613 1099.21 252.813 1099.94 253.213C1100.68 253.6 1101.24 254.113 1101.62 254.753V248.953H1103.46V263.753H1101.62V261.693C1101.26 262.346 1100.73 262.886 1100.02 263.313C1099.32 263.726 1098.49 263.933 1097.54 263.933C1096.57 263.933 1095.68 263.693 1094.88 263.213C1094.1 262.733 1093.48 262.06 1093.02 261.193C1092.57 260.326 1092.34 259.34 1092.34 258.233ZM1101.62 258.253C1101.62 257.426 1101.46 256.706 1101.12 256.093C1100.79 255.48 1100.34 255.013 1099.76 254.693C1099.2 254.36 1098.58 254.193 1097.9 254.193C1097.22 254.193 1096.6 254.353 1096.04 254.673C1095.48 254.993 1095.04 255.46 1094.7 256.073C1094.37 256.686 1094.2 257.406 1094.2 258.233C1094.2 259.073 1094.37 259.806 1094.7 260.433C1095.04 261.046 1095.48 261.52 1096.04 261.853C1096.6 262.173 1097.22 262.333 1097.9 262.333C1098.58 262.333 1099.2 262.173 1099.76 261.853C1100.34 261.52 1100.79 261.046 1101.12 260.433C1101.46 259.806 1101.62 259.08 1101.62 258.253Z" fill="#575757"/>
<path d="M841.506 278.155L841.391 279.148L841.448 279.155H841.506V278.155ZM1109.87 278.155L1104.09 272.381L1098.32 278.155L1104.09 283.928L1109.87 278.155ZM814.406 276.034L841.391 279.148L841.62 277.161L814.635 274.048L814.406 276.034ZM841.506 279.155H1104.09V277.155H841.506V279.155Z" fill="#AFAFAF"/>
<path d="M991.29 323.506C991.29 324.666 990.89 325.633 990.09 326.406C989.303 327.166 988.096 327.546 986.47 327.546H983.79V333.366H981.97V319.426H986.47C988.043 319.426 989.236 319.806 990.05 320.566C990.876 321.326 991.29 322.306 991.29 323.506ZM986.47 326.046C987.483 326.046 988.23 325.826 988.71 325.386C989.19 324.946 989.43 324.32 989.43 323.506C989.43 321.786 988.443 320.926 986.47 320.926H983.79V326.046H986.47ZM1003.27 322.406V333.366H1001.45V331.746C1001.11 332.306 1000.62 332.746 999.992 333.066C999.378 333.373 998.698 333.526 997.952 333.526C997.098 333.526 996.332 333.353 995.652 333.006C994.972 332.646 994.432 332.113 994.032 331.406C993.645 330.7 993.452 329.84 993.452 328.826V322.406H995.252V328.586C995.252 329.666 995.525 330.5 996.072 331.086C996.618 331.66 997.365 331.946 998.312 331.946C999.285 331.946 1000.05 331.646 1000.61 331.046C1001.17 330.446 1001.45 329.573 1001.45 328.426V322.406H1003.27ZM1008.16 324.446C1008.54 323.793 1009.08 323.26 1009.8 322.846C1010.52 322.433 1011.34 322.226 1012.26 322.226C1013.25 322.226 1014.14 322.46 1014.92 322.926C1015.71 323.393 1016.33 324.053 1016.78 324.906C1017.24 325.746 1017.46 326.726 1017.46 327.846C1017.46 328.953 1017.24 329.94 1016.78 330.806C1016.33 331.673 1015.7 332.346 1014.9 332.826C1014.12 333.306 1013.24 333.546 1012.26 333.546C1011.32 333.546 1010.48 333.34 1009.76 332.926C1009.06 332.513 1008.52 331.986 1008.16 331.346V333.366H1006.34V318.566H1008.16V324.446ZM1015.6 327.846C1015.6 327.02 1015.44 326.3 1015.1 325.686C1014.77 325.073 1014.32 324.606 1013.74 324.286C1013.18 323.966 1012.56 323.806 1011.88 323.806C1011.22 323.806 1010.6 323.973 1010.02 324.306C1009.46 324.626 1009.01 325.1 1008.66 325.726C1008.33 326.34 1008.16 327.053 1008.16 327.866C1008.16 328.693 1008.33 329.42 1008.66 330.046C1009.01 330.66 1009.46 331.133 1010.02 331.466C1010.6 331.786 1011.22 331.946 1011.88 331.946C1012.56 331.946 1013.18 331.786 1013.74 331.466C1014.32 331.133 1014.77 330.66 1015.1 330.046C1015.44 329.42 1015.6 328.686 1015.6 327.846ZM1021.68 318.566V333.366H1019.86V318.566H1021.68ZM1025.72 320.626C1025.38 320.626 1025.08 320.506 1024.84 320.266C1024.6 320.026 1024.48 319.733 1024.48 319.386C1024.48 319.04 1024.6 318.746 1024.84 318.506C1025.08 318.266 1025.38 318.146 1025.72 318.146C1026.06 318.146 1026.34 318.266 1026.56 318.506C1026.8 318.746 1026.92 319.04 1026.92 319.386C1026.92 319.733 1026.8 320.026 1026.56 320.266C1026.34 320.506 1026.06 320.626 1025.72 320.626ZM1026.6 322.406V333.366H1024.78V322.406H1026.6ZM1029.02 327.866C1029.02 326.733 1029.25 325.746 1029.7 324.906C1030.16 324.053 1030.78 323.393 1031.58 322.926C1032.4 322.46 1033.32 322.226 1034.36 322.226C1035.71 322.226 1036.82 322.553 1037.68 323.206C1038.56 323.86 1039.14 324.766 1039.42 325.926H1037.46C1037.28 325.26 1036.91 324.733 1036.36 324.346C1035.83 323.96 1035.16 323.766 1034.36 323.766C1033.32 323.766 1032.48 324.126 1031.84 324.846C1031.2 325.553 1030.88 326.56 1030.88 327.866C1030.88 329.186 1031.2 330.206 1031.84 330.926C1032.48 331.646 1033.32 332.006 1034.36 332.006C1035.16 332.006 1035.83 331.82 1036.36 331.446C1036.9 331.073 1037.26 330.54 1037.46 329.846H1039.42C1039.13 330.966 1038.54 331.866 1037.66 332.546C1036.78 333.213 1035.68 333.546 1034.36 333.546C1033.32 333.546 1032.4 333.313 1031.58 332.846C1030.78 332.38 1030.16 331.72 1029.7 330.866C1029.25 330.013 1029.02 329.013 1029.02 327.866ZM1049 324.186C1049.32 323.56 1049.78 323.073 1050.36 322.726C1050.96 322.38 1051.69 322.206 1052.54 322.206V324.086H1052.06C1050.02 324.086 1049 325.193 1049 327.406V333.366H1047.18V322.406H1049V324.186ZM1059.43 333.546C1058.4 333.546 1057.47 333.313 1056.63 332.846C1055.8 332.38 1055.15 331.72 1054.67 330.866C1054.2 330 1053.97 329 1053.97 327.866C1053.97 326.746 1054.21 325.76 1054.69 324.906C1055.18 324.04 1055.85 323.38 1056.69 322.926C1057.53 322.46 1058.47 322.226 1059.51 322.226C1060.55 322.226 1061.49 322.46 1062.33 322.926C1063.17 323.38 1063.83 324.033 1064.31 324.886C1064.8 325.74 1065.05 326.733 1065.05 327.866C1065.05 329 1064.79 330 1064.29 330.866C1063.79 331.72 1063.12 332.38 1062.27 332.846C1061.41 333.313 1060.47 333.546 1059.43 333.546ZM1059.43 331.946C1060.08 331.946 1060.69 331.793 1061.27 331.486C1061.84 331.18 1062.3 330.72 1062.65 330.106C1063.01 329.493 1063.19 328.746 1063.19 327.866C1063.19 326.986 1063.01 326.24 1062.67 325.626C1062.32 325.013 1061.87 324.56 1061.31 324.266C1060.75 323.96 1060.14 323.806 1059.49 323.806C1058.82 323.806 1058.21 323.96 1057.65 324.266C1057.1 324.56 1056.66 325.013 1056.33 325.626C1055.99 326.24 1055.83 326.986 1055.83 327.866C1055.83 328.76 1055.99 329.513 1056.31 330.126C1056.64 330.74 1057.08 331.2 1057.63 331.506C1058.17 331.8 1058.77 331.946 1059.43 331.946ZM1077.16 322.406V333.366H1075.34V331.746C1074.99 332.306 1074.51 332.746 1073.88 333.066C1073.27 333.373 1072.59 333.526 1071.84 333.526C1070.99 333.526 1070.22 333.353 1069.54 333.006C1068.86 332.646 1068.32 332.113 1067.92 331.406C1067.53 330.7 1067.34 329.84 1067.34 328.826V322.406H1069.14V328.586C1069.14 329.666 1069.41 330.5 1069.96 331.086C1070.51 331.66 1071.25 331.946 1072.2 331.946C1073.17 331.946 1073.94 331.646 1074.5 331.046C1075.06 330.446 1075.34 329.573 1075.34 328.426V322.406H1077.16ZM1085.57 322.206C1086.9 322.206 1087.98 322.613 1088.81 323.426C1089.64 324.226 1090.05 325.386 1090.05 326.906V333.366H1088.25V327.166C1088.25 326.073 1087.98 325.24 1087.43 324.666C1086.88 324.08 1086.14 323.786 1085.19 323.786C1084.23 323.786 1083.46 324.086 1082.89 324.686C1082.33 325.286 1082.05 326.16 1082.05 327.306V333.366H1080.23V322.406H1082.05V323.966C1082.41 323.406 1082.9 322.973 1083.51 322.666C1084.14 322.36 1084.82 322.206 1085.57 322.206ZM1092.34 327.846C1092.34 326.726 1092.57 325.746 1093.02 324.906C1093.48 324.053 1094.1 323.393 1094.88 322.926C1095.68 322.46 1096.58 322.226 1097.56 322.226C1098.42 322.226 1099.21 322.426 1099.94 322.826C1100.68 323.213 1101.24 323.726 1101.62 324.366V318.566H1103.46V333.366H1101.62V331.306C1101.26 331.96 1100.73 332.5 1100.02 332.926C1099.32 333.34 1098.49 333.546 1097.54 333.546C1096.57 333.546 1095.68 333.306 1094.88 332.826C1094.1 332.346 1093.48 331.673 1093.02 330.806C1092.57 329.94 1092.34 328.953 1092.34 327.846ZM1101.62 327.866C1101.62 327.04 1101.46 326.32 1101.12 325.706C1100.79 325.093 1100.34 324.626 1099.76 324.306C1099.2 323.973 1098.58 323.806 1097.9 323.806C1097.22 323.806 1096.6 323.966 1096.04 324.286C1095.48 324.606 1095.04 325.073 1094.7 325.686C1094.37 326.3 1094.2 327.02 1094.2 327.846C1094.2 328.686 1094.37 329.42 1094.7 330.046C1095.04 330.66 1095.48 331.133 1096.04 331.466C1096.6 331.786 1097.22 331.946 1097.9 331.946C1098.58 331.946 1099.2 331.786 1099.76 331.466C1100.34 331.133 1100.79 330.66 1101.12 330.046C1101.46 329.42 1101.62 328.693 1101.62 327.866Z" fill="#575757"/>
<path d="M825.937 346.655L824.98 346.946L825.196 347.655H825.937V346.655ZM1109.87 346.655L1104.09 340.882L1098.32 346.655L1104.09 352.429L1109.87 346.655ZM810.45 299.203L824.98 346.946L826.893 346.364L812.363 298.621L810.45 299.203ZM825.937 347.655H1104.09V345.655H825.937V347.655Z" fill="#61ADB1"/>
<path d="M1021.66 12.14C1021.66 13.3 1021.26 14.2667 1020.46 15.04C1019.67 15.8 1018.47 16.18 1016.84 16.18H1014.16V22H1012.34V8.06H1016.84C1018.41 8.06 1019.61 8.44 1020.42 9.2C1021.25 9.96 1021.66 10.94 1021.66 12.14ZM1016.84 14.68C1017.85 14.68 1018.6 14.46 1019.08 14.02C1019.56 13.58 1019.8 12.9533 1019.8 12.14C1019.8 10.42 1018.81 9.56 1016.84 9.56H1014.16V14.68H1016.84ZM1025.74 12.82C1026.06 12.1933 1026.52 11.7067 1027.1 11.36C1027.7 11.0133 1028.43 10.84 1029.28 10.84V12.72H1028.8C1026.76 12.72 1025.74 13.8267 1025.74 16.04V22H1023.92V11.04H1025.74V12.82ZM1041.38 16.1C1041.38 16.4467 1041.36 16.8133 1041.32 17.2H1032.56C1032.63 18.28 1033 19.1267 1033.66 19.74C1034.34 20.34 1035.16 20.64 1036.12 20.64C1036.91 20.64 1037.56 20.46 1038.08 20.1C1038.62 19.7267 1038.99 19.2333 1039.2 18.62H1041.16C1040.87 19.6733 1040.28 20.5333 1039.4 21.2C1038.52 21.8533 1037.43 22.18 1036.12 22.18C1035.08 22.18 1034.15 21.9467 1033.32 21.48C1032.51 21.0133 1031.87 20.3533 1031.4 19.5C1030.94 18.6333 1030.7 17.6333 1030.7 16.5C1030.7 15.3667 1030.93 14.3733 1031.38 13.52C1031.84 12.6667 1032.47 12.0133 1033.28 11.56C1034.11 11.0933 1035.06 10.86 1036.12 10.86C1037.16 10.86 1038.08 11.0867 1038.88 11.54C1039.68 11.9933 1040.3 12.62 1040.72 13.42C1041.16 14.2067 1041.38 15.1 1041.38 16.1ZM1039.5 15.72C1039.5 15.0267 1039.35 14.4333 1039.04 13.94C1038.74 13.4333 1038.32 13.0533 1037.78 12.8C1037.26 12.5333 1036.68 12.4 1036.04 12.4C1035.12 12.4 1034.34 12.6933 1033.68 13.28C1033.04 13.8667 1032.68 14.68 1032.58 15.72H1039.5ZM1051.39 13.9V15.44H1043.41V13.9H1051.39ZM1058.68 22.18C1057.84 22.18 1057.09 22.04 1056.42 21.76C1055.76 21.4667 1055.23 21.0667 1054.84 20.56C1054.46 20.04 1054.24 19.4467 1054.2 18.78H1056.08C1056.14 19.3267 1056.39 19.7733 1056.84 20.12C1057.31 20.4667 1057.92 20.64 1058.66 20.64C1059.36 20.64 1059.9 20.4867 1060.3 20.18C1060.7 19.8733 1060.9 19.4867 1060.9 19.02C1060.9 18.54 1060.69 18.1867 1060.26 17.96C1059.84 17.72 1059.18 17.4867 1058.28 17.26C1057.47 17.0467 1056.8 16.8333 1056.28 16.62C1055.78 16.3933 1055.34 16.0667 1054.96 15.64C1054.6 15.2 1054.42 14.6267 1054.42 13.92C1054.42 13.36 1054.59 12.8467 1054.92 12.38C1055.26 11.9133 1055.73 11.5467 1056.34 11.28C1056.96 11 1057.66 10.86 1058.44 10.86C1059.66 10.86 1060.64 11.1667 1061.38 11.78C1062.13 12.3933 1062.53 13.2333 1062.58 14.3H1060.76C1060.72 13.7267 1060.49 13.2667 1060.06 12.92C1059.65 12.5733 1059.09 12.4 1058.38 12.4C1057.73 12.4 1057.21 12.54 1056.82 12.82C1056.44 13.1 1056.24 13.4667 1056.24 13.92C1056.24 14.28 1056.36 14.58 1056.58 14.82C1056.82 15.0467 1057.12 15.2333 1057.46 15.38C1057.82 15.5133 1058.32 15.6667 1058.94 15.84C1059.73 16.0533 1060.37 16.2667 1060.86 16.48C1061.36 16.68 1061.78 16.9867 1062.12 17.4C1062.48 17.8133 1062.67 18.3533 1062.68 19.02C1062.68 19.62 1062.52 20.16 1062.18 20.64C1061.85 21.12 1061.38 21.5 1060.76 21.78C1060.16 22.0467 1059.47 22.18 1058.68 22.18ZM1064.57 16.48C1064.57 15.36 1064.8 14.38 1065.25 13.54C1065.7 12.6867 1066.32 12.0267 1067.11 11.56C1067.91 11.0933 1068.8 10.86 1069.77 10.86C1070.73 10.86 1071.56 11.0667 1072.27 11.48C1072.98 11.8933 1073.5 12.4133 1073.85 13.04V11.04H1075.69V22H1073.85V19.96C1073.49 20.6 1072.95 21.1333 1072.23 21.56C1071.52 21.9733 1070.7 22.18 1069.75 22.18C1068.78 22.18 1067.9 21.94 1067.11 21.46C1066.32 20.98 1065.7 20.3067 1065.25 19.44C1064.8 18.5733 1064.57 17.5867 1064.57 16.48ZM1073.85 16.5C1073.85 15.6733 1073.68 14.9533 1073.35 14.34C1073.02 13.7267 1072.56 13.26 1071.99 12.94C1071.43 12.6067 1070.81 12.44 1070.13 12.44C1069.45 12.44 1068.83 12.6 1068.27 12.92C1067.71 13.24 1067.26 13.7067 1066.93 14.32C1066.6 14.9333 1066.43 15.6533 1066.43 16.48C1066.43 17.32 1066.6 18.0533 1066.93 18.68C1067.26 19.2933 1067.71 19.7667 1068.27 20.1C1068.83 20.42 1069.45 20.58 1070.13 20.58C1070.81 20.58 1071.43 20.42 1071.99 20.1C1072.56 19.7667 1073.02 19.2933 1073.35 18.68C1073.68 18.0533 1073.85 17.3267 1073.85 16.5ZM1080.59 7.2V22H1078.77V7.2H1080.59ZM1093.69 16.1C1093.69 16.4467 1093.67 16.8133 1093.63 17.2H1084.87C1084.94 18.28 1085.3 19.1267 1085.97 19.74C1086.65 20.34 1087.47 20.64 1088.43 20.64C1089.22 20.64 1089.87 20.46 1090.39 20.1C1090.92 19.7267 1091.3 19.2333 1091.51 18.62H1093.47C1093.18 19.6733 1092.59 20.5333 1091.71 21.2C1090.83 21.8533 1089.74 22.18 1088.43 22.18C1087.39 22.18 1086.46 21.9467 1085.63 21.48C1084.82 21.0133 1084.18 20.3533 1083.71 19.5C1083.24 18.6333 1083.01 17.6333 1083.01 16.5C1083.01 15.3667 1083.24 14.3733 1083.69 13.52C1084.14 12.6667 1084.78 12.0133 1085.59 11.56C1086.42 11.0933 1087.36 10.86 1088.43 10.86C1089.47 10.86 1090.39 11.0867 1091.19 11.54C1091.99 11.9933 1092.6 12.62 1093.03 13.42C1093.47 14.2067 1093.69 15.1 1093.69 16.1ZM1091.81 15.72C1091.81 15.0267 1091.66 14.4333 1091.35 13.94C1091.04 13.4333 1090.62 13.0533 1090.09 12.8C1089.57 12.5333 1088.99 12.4 1088.35 12.4C1087.43 12.4 1086.64 12.6933 1085.99 13.28C1085.35 13.8667 1084.98 14.68 1084.89 15.72H1091.81ZM1099.97 22.18C1099.13 22.18 1098.38 22.04 1097.71 21.76C1097.04 21.4667 1096.52 21.0667 1096.13 20.56C1095.74 20.04 1095.53 19.4467 1095.49 18.78H1097.37C1097.42 19.3267 1097.68 19.7733 1098.13 20.12C1098.6 20.4667 1099.2 20.64 1099.95 20.64C1100.64 20.64 1101.19 20.4867 1101.59 20.18C1101.99 19.8733 1102.19 19.4867 1102.19 19.02C1102.19 18.54 1101.98 18.1867 1101.55 17.96C1101.12 17.72 1100.46 17.4867 1099.57 17.26C1098.76 17.0467 1098.09 16.8333 1097.57 16.62C1097.06 16.3933 1096.62 16.0667 1096.25 15.64C1095.89 15.2 1095.71 14.6267 1095.71 13.92C1095.71 13.36 1095.88 12.8467 1096.21 12.38C1096.54 11.9133 1097.02 11.5467 1097.63 11.28C1098.24 11 1098.94 10.86 1099.73 10.86C1100.94 10.86 1101.92 11.1667 1102.67 11.78C1103.42 12.3933 1103.82 13.2333 1103.87 14.3H1102.05C1102.01 13.7267 1101.78 13.2667 1101.35 12.92C1100.94 12.5733 1100.38 12.4 1099.67 12.4C1099.02 12.4 1098.5 12.54 1098.11 12.82C1097.72 13.1 1097.53 13.4667 1097.53 13.92C1097.53 14.28 1097.64 14.58 1097.87 14.82C1098.11 15.0467 1098.4 15.2333 1098.75 15.38C1099.11 15.5133 1099.6 15.6667 1100.23 15.84C1101.02 16.0533 1101.66 16.2667 1102.15 16.48C1102.64 16.68 1103.06 16.9867 1103.41 17.4C1103.77 17.8133 1103.96 18.3533 1103.97 19.02C1103.97 19.62 1103.8 20.16 1103.47 20.64C1103.14 21.12 1102.66 21.5 1102.05 21.78C1101.45 22.0467 1100.76 22.18 1099.97 22.18Z" fill="#575757"/>
<path d="M765.74 35.2871V34.2871H765.137L764.855 34.8204L765.74 35.2871ZM1109.87 35.2871L1104.09 29.5136L1098.32 35.2871L1104.09 41.0606L1109.87 35.2871ZM746.904 73.1181L766.624 35.7539L764.855 34.8204L745.135 72.1846L746.904 73.1181ZM765.74 36.2871H1104.09V34.2871H765.74V36.2871Z" fill="#0AD4C9"/>
<path d="M900.801 500.753C900.801 499.393 901.108 498.173 901.721 497.093C902.335 496 903.168 495.147 904.221 494.533C905.288 493.92 906.468 493.613 907.761 493.613C909.281 493.613 910.608 493.98 911.741 494.713C912.875 495.447 913.701 496.487 914.221 497.833H912.041C911.655 496.993 911.095 496.347 910.361 495.893C909.641 495.44 908.775 495.213 907.761 495.213C906.788 495.213 905.915 495.44 905.141 495.893C904.368 496.347 903.761 496.993 903.321 497.833C902.881 498.66 902.661 499.633 902.661 500.753C902.661 501.86 902.881 502.833 903.321 503.673C903.761 504.5 904.368 505.14 905.141 505.593C905.915 506.047 906.788 506.273 907.761 506.273C908.775 506.273 909.641 506.053 910.361 505.613C911.095 505.16 911.655 504.513 912.041 503.673H914.221C913.701 505.007 912.875 506.04 911.741 506.773C910.608 507.493 909.281 507.853 907.761 507.853C906.468 507.853 905.288 507.553 904.221 506.953C903.168 506.34 902.335 505.493 901.721 504.413C901.108 503.333 900.801 502.113 900.801 500.753ZM921.711 507.913C920.684 507.913 919.751 507.68 918.911 507.213C918.084 506.747 917.431 506.087 916.951 505.233C916.484 504.367 916.251 503.367 916.251 502.233C916.251 501.113 916.491 500.127 916.971 499.273C917.464 498.407 918.131 497.747 918.971 497.293C919.811 496.827 920.751 496.593 921.791 496.593C922.831 496.593 923.771 496.827 924.611 497.293C925.451 497.747 926.111 498.4 926.591 499.253C927.084 500.107 927.331 501.1 927.331 502.233C927.331 503.367 927.077 504.367 926.571 505.233C926.077 506.087 925.404 506.747 924.551 507.213C923.697 507.68 922.751 507.913 921.711 507.913ZM921.711 506.313C922.364 506.313 922.977 506.16 923.551 505.853C924.124 505.547 924.584 505.087 924.931 504.473C925.291 503.86 925.471 503.113 925.471 502.233C925.471 501.353 925.297 500.607 924.951 499.993C924.604 499.38 924.151 498.927 923.591 498.633C923.031 498.327 922.424 498.173 921.771 498.173C921.104 498.173 920.491 498.327 919.931 498.633C919.384 498.927 918.944 499.38 918.611 499.993C918.277 500.607 918.111 501.353 918.111 502.233C918.111 503.127 918.271 503.88 918.591 504.493C918.924 505.107 919.364 505.567 919.911 505.873C920.457 506.167 921.057 506.313 921.711 506.313ZM942.904 496.573C943.757 496.573 944.517 496.753 945.184 497.113C945.85 497.46 946.377 497.987 946.764 498.693C947.15 499.4 947.344 500.26 947.344 501.273V507.733H945.544V501.533C945.544 500.44 945.27 499.607 944.724 499.033C944.19 498.447 943.464 498.153 942.544 498.153C941.597 498.153 940.844 498.46 940.284 499.073C939.724 499.673 939.444 500.547 939.444 501.693V507.733H937.644V501.533C937.644 500.44 937.37 499.607 936.824 499.033C936.29 498.447 935.564 498.153 934.644 498.153C933.697 498.153 932.944 498.46 932.384 499.073C931.824 499.673 931.544 500.547 931.544 501.693V507.733H929.724V496.773H931.544V498.353C931.904 497.78 932.384 497.34 932.984 497.033C933.597 496.727 934.27 496.573 935.004 496.573C935.924 496.573 936.737 496.78 937.444 497.193C938.15 497.607 938.677 498.213 939.024 499.013C939.33 498.24 939.837 497.64 940.544 497.213C941.25 496.787 942.037 496.573 942.904 496.573ZM963.509 496.573C964.362 496.573 965.122 496.753 965.789 497.113C966.456 497.46 966.982 497.987 967.369 498.693C967.756 499.4 967.949 500.26 967.949 501.273V507.733H966.149V501.533C966.149 500.44 965.876 499.607 965.329 499.033C964.796 498.447 964.069 498.153 963.149 498.153C962.202 498.153 961.449 498.46 960.889 499.073C960.329 499.673 960.049 500.547 960.049 501.693V507.733H958.249V501.533C958.249 500.44 957.976 499.607 957.429 499.033C956.896 498.447 956.169 498.153 955.249 498.153C954.302 498.153 953.549 498.46 952.989 499.073C952.429 499.673 952.149 500.547 952.149 501.693V507.733H950.329V496.773H952.149V498.353C952.509 497.78 952.989 497.34 953.589 497.033C954.202 496.727 954.876 496.573 955.609 496.573C956.529 496.573 957.342 496.78 958.049 497.193C958.756 497.607 959.282 498.213 959.629 499.013C959.936 498.24 960.442 497.64 961.149 497.213C961.856 496.787 962.642 496.573 963.509 496.573ZM980.655 496.773V507.733H978.835V506.113C978.488 506.673 978.001 507.113 977.375 507.433C976.761 507.74 976.081 507.893 975.335 507.893C974.481 507.893 973.715 507.72 973.035 507.373C972.355 507.013 971.815 506.48 971.415 505.773C971.028 505.067 970.835 504.207 970.835 503.193V496.773H972.635V502.953C972.635 504.033 972.908 504.867 973.455 505.453C974.001 506.027 974.748 506.313 975.695 506.313C976.668 506.313 977.435 506.013 977.995 505.413C978.555 504.813 978.835 503.94 978.835 502.793V496.773H980.655ZM989.068 496.573C990.401 496.573 991.481 496.98 992.308 497.793C993.134 498.593 993.548 499.753 993.548 501.273V507.733H991.748V501.533C991.748 500.44 991.474 499.607 990.928 499.033C990.381 498.447 989.634 498.153 988.688 498.153C987.728 498.153 986.961 498.453 986.388 499.053C985.828 499.653 985.548 500.527 985.548 501.673V507.733H983.728V496.773H985.548V498.333C985.908 497.773 986.394 497.34 987.008 497.033C987.634 496.727 988.321 496.573 989.068 496.573ZM997.46 494.993C997.114 494.993 996.82 494.873 996.58 494.633C996.34 494.393 996.22 494.1 996.22 493.753C996.22 493.407 996.34 493.113 996.58 492.873C996.82 492.633 997.114 492.513 997.46 492.513C997.794 492.513 998.074 492.633 998.3 492.873C998.54 493.113 998.66 493.407 998.66 493.753C998.66 494.1 998.54 494.393 998.3 494.633C998.074 494.873 997.794 494.993 997.46 494.993ZM998.34 496.773V507.733H996.52V496.773H998.34ZM1003.66 498.273V504.733C1003.66 505.267 1003.78 505.647 1004 505.873C1004.23 506.087 1004.62 506.193 1005.18 506.193H1006.52V507.733H1004.88C1003.87 507.733 1003.11 507.5 1002.6 507.033C1002.1 506.567 1001.84 505.8 1001.84 504.733V498.273H1000.42V496.773H1001.84V494.013H1003.66V496.773H1006.52V498.273H1003.66ZM1018.17 496.773L1011.57 512.893H1009.69L1011.85 507.613L1007.43 496.773H1009.45L1012.89 505.653L1016.29 496.773H1018.17ZM1027.15 498.553C1027.47 497.927 1027.92 497.44 1028.51 497.093C1029.11 496.747 1029.84 496.573 1030.69 496.573V498.453H1030.21C1028.17 498.453 1027.15 499.56 1027.15 501.773V507.733H1025.33V496.773H1027.15V498.553ZM1042.79 501.833C1042.79 502.18 1042.77 502.547 1042.73 502.933H1033.97C1034.04 504.013 1034.4 504.86 1035.07 505.473C1035.75 506.073 1036.57 506.373 1037.53 506.373C1038.32 506.373 1038.97 506.193 1039.49 505.833C1040.02 505.46 1040.4 504.967 1040.61 504.353H1042.57C1042.28 505.407 1041.69 506.267 1040.81 506.933C1039.93 507.587 1038.84 507.913 1037.53 507.913C1036.49 507.913 1035.56 507.68 1034.73 507.213C1033.92 506.747 1033.28 506.087 1032.81 505.233C1032.34 504.367 1032.11 503.367 1032.11 502.233C1032.11 501.1 1032.34 500.107 1032.79 499.253C1033.24 498.4 1033.88 497.747 1034.69 497.293C1035.52 496.827 1036.46 496.593 1037.53 496.593C1038.57 496.593 1039.49 496.82 1040.29 497.273C1041.09 497.727 1041.7 498.353 1042.13 499.153C1042.57 499.94 1042.79 500.833 1042.79 501.833ZM1040.91 501.453C1040.91 500.76 1040.76 500.167 1040.45 499.673C1040.14 499.167 1039.72 498.787 1039.19 498.533C1038.67 498.267 1038.09 498.133 1037.45 498.133C1036.53 498.133 1035.74 498.427 1035.09 499.013C1034.45 499.6 1034.08 500.413 1033.99 501.453H1040.91ZM1059.79 496.773L1056.37 507.733H1054.49L1051.85 499.033L1049.21 507.733H1047.33L1043.89 496.773H1045.75L1048.27 505.973L1050.99 496.773H1052.85L1055.51 505.993L1057.99 496.773H1059.79ZM1060.92 502.213C1060.92 501.093 1061.15 500.113 1061.6 499.273C1062.05 498.42 1062.67 497.76 1063.46 497.293C1064.26 496.827 1065.15 496.593 1066.12 496.593C1067.08 496.593 1067.91 496.8 1068.62 497.213C1069.33 497.627 1069.85 498.147 1070.2 498.773V496.773H1072.04V507.733H1070.2V505.693C1069.84 506.333 1069.3 506.867 1068.58 507.293C1067.87 507.707 1067.05 507.913 1066.1 507.913C1065.13 507.913 1064.25 507.673 1063.46 507.193C1062.67 506.713 1062.05 506.04 1061.6 505.173C1061.15 504.307 1060.92 503.32 1060.92 502.213ZM1070.2 502.233C1070.2 501.407 1070.03 500.687 1069.7 500.073C1069.37 499.46 1068.91 498.993 1068.34 498.673C1067.78 498.34 1067.16 498.173 1066.48 498.173C1065.8 498.173 1065.18 498.333 1064.62 498.653C1064.06 498.973 1063.61 499.44 1063.28 500.053C1062.95 500.667 1062.78 501.387 1062.78 502.213C1062.78 503.053 1062.95 503.787 1063.28 504.413C1063.61 505.027 1064.06 505.5 1064.62 505.833C1065.18 506.153 1065.8 506.313 1066.48 506.313C1067.16 506.313 1067.78 506.153 1068.34 505.833C1068.91 505.5 1069.37 505.027 1069.7 504.413C1070.03 503.787 1070.2 503.06 1070.2 502.233ZM1076.93 498.553C1077.25 497.927 1077.71 497.44 1078.29 497.093C1078.89 496.747 1079.62 496.573 1080.47 496.573V498.453H1079.99C1077.95 498.453 1076.93 499.56 1076.93 501.773V507.733H1075.11V496.773H1076.93V498.553ZM1081.9 502.213C1081.9 501.093 1082.12 500.113 1082.58 499.273C1083.03 498.42 1083.65 497.76 1084.44 497.293C1085.24 496.827 1086.13 496.593 1087.12 496.593C1087.97 496.593 1088.76 496.793 1089.5 497.193C1090.23 497.58 1090.79 498.093 1091.18 498.733V492.933H1093.02V507.733H1091.18V505.673C1090.82 506.327 1090.28 506.867 1089.58 507.293C1088.87 507.707 1088.04 507.913 1087.1 507.913C1086.12 507.913 1085.24 507.673 1084.44 507.193C1083.65 506.713 1083.03 506.04 1082.58 505.173C1082.12 504.307 1081.9 503.32 1081.9 502.213ZM1091.18 502.233C1091.18 501.407 1091.01 500.687 1090.68 500.073C1090.34 499.46 1089.89 498.993 1089.32 498.673C1088.76 498.34 1088.14 498.173 1087.46 498.173C1086.78 498.173 1086.16 498.333 1085.6 498.653C1085.04 498.973 1084.59 499.44 1084.26 500.053C1083.92 500.667 1083.76 501.387 1083.76 502.213C1083.76 503.053 1083.92 503.787 1084.26 504.413C1084.59 505.027 1085.04 505.5 1085.6 505.833C1086.16 506.153 1086.78 506.313 1087.46 506.313C1088.14 506.313 1088.76 506.153 1089.32 505.833C1089.89 505.5 1090.34 505.027 1090.68 504.413C1091.01 503.787 1091.18 503.06 1091.18 502.233ZM1099.97 507.913C1099.13 507.913 1098.38 507.773 1097.71 507.493C1097.04 507.2 1096.52 506.8 1096.13 506.293C1095.74 505.773 1095.53 505.18 1095.49 504.513H1097.37C1097.42 505.06 1097.68 505.507 1098.13 505.853C1098.6 506.2 1099.2 506.373 1099.95 506.373C1100.64 506.373 1101.19 506.22 1101.59 505.913C1101.99 505.607 1102.19 505.22 1102.19 504.753C1102.19 504.273 1101.98 503.92 1101.55 503.693C1101.12 503.453 1100.46 503.22 1099.57 502.993C1098.76 502.78 1098.09 502.567 1097.57 502.353C1097.06 502.127 1096.62 501.8 1096.25 501.373C1095.89 500.933 1095.71 500.36 1095.71 499.653C1095.71 499.093 1095.88 498.58 1096.21 498.113C1096.54 497.647 1097.02 497.28 1097.63 497.013C1098.24 496.733 1098.94 496.593 1099.73 496.593C1100.94 496.593 1101.92 496.9 1102.67 497.513C1103.42 498.127 1103.82 498.967 1103.87 500.033H1102.05C1102.01 499.46 1101.78 499 1101.35 498.653C1100.94 498.307 1100.38 498.133 1099.67 498.133C1099.02 498.133 1098.5 498.273 1098.11 498.553C1097.72 498.833 1097.53 499.2 1097.53 499.653C1097.53 500.013 1097.64 500.313 1097.87 500.553C1098.11 500.78 1098.4 500.967 1098.75 501.113C1099.11 501.247 1099.6 501.4 1100.23 501.573C1101.02 501.787 1101.66 502 1102.15 502.213C1102.64 502.413 1103.06 502.72 1103.41 503.133C1103.77 503.547 1103.96 504.087 1103.97 504.753C1103.97 505.353 1103.8 505.893 1103.47 506.373C1103.14 506.853 1102.66 507.233 1102.05 507.513C1101.45 507.78 1100.76 507.913 1099.97 507.913Z" fill="#575757"/>
<path d="M684.785 521.022L683.786 521.075L683.836 522.022H684.785V521.022ZM1109.87 521.022L1104.09 515.249L1098.32 521.022L1104.09 526.796L1109.87 521.022ZM681.71 481.635L683.786 521.075L685.783 520.97L683.708 481.529L681.71 481.635ZM684.785 522.022H1104.09V520.022H684.785V522.022Z" fill="#0A8078"/>
</svg>
