<svg width="27" height="38" viewBox="0 0 27 38" fill="none" xmlns="http://www.w3.org/2000/svg">
<g clip-path="url(#clip0_2007_2322)">
<path fill-rule="evenodd" clip-rule="evenodd" d="M15.1187 35.2894C14.5814 35.8582 14.0408 36.4306 13.5 37.0078C12.9592 36.4306 12.4186 35.8582 11.8813 35.2894C5.71184 28.7591 0 22.7131 0 15.392C0 7.43326 6.04415 0.981445 13.5 0.981445C20.9559 0.981445 27 7.43326 27 15.392C27 22.7131 21.2882 28.7591 15.1187 35.2894ZM13.5 20.9448C16.6954 20.9448 19.2857 18.3292 19.2857 15.1027C19.2857 11.8762 16.6954 9.26061 13.5 9.26061C10.3046 9.26061 7.71429 11.8762 7.71429 15.1027C7.71429 18.3292 10.3046 20.9448 13.5 20.9448Z" fill="#F0F0F0"/>
</g>
<defs>
<clipPath id="clip0_2007_2322">
<rect width="27" height="37" fill="white" transform="translate(0 0.49707)"/>
</clipPath>
</defs>
</svg>
