<svg width="24" height="26" viewBox="0 0 24 26" fill="none" xmlns="http://www.w3.org/2000/svg">
<path d="M16.945 8.19574C16.945 10.8278 14.8116 12.9614 12.18 12.9614C9.54841 12.9614 7.415 10.8278 7.415 8.19574C7.415 5.56373 9.54841 3.43014 12.18 3.43014C14.8116 3.43014 16.945 5.56373 16.945 8.19574Z" fill="#F0F0F0" stroke="#F0F0F0" stroke-width="0.83"/>
<mask id="path-2-inside-1_1803_238" fill="white">
<path fill-rule="evenodd" clip-rule="evenodd" d="M19.3027 22.6918C19.7611 22.6918 20.1371 22.3192 20.0907 21.8631C19.6757 17.787 16.2329 14.6064 12.0473 14.6064C7.86165 14.6064 4.41886 17.787 4.00388 21.8631C3.95746 22.3192 4.33354 22.6918 4.79194 22.6918H19.3027Z"/>
</mask>
<path fill-rule="evenodd" clip-rule="evenodd" d="M19.3027 22.6918C19.7611 22.6918 20.1371 22.3192 20.0907 21.8631C19.6757 17.787 16.2329 14.6064 12.0473 14.6064C7.86165 14.6064 4.41886 17.787 4.00388 21.8631C3.95746 22.3192 4.33354 22.6918 4.79194 22.6918H19.3027Z" fill="#F0F0F0"/>
<path d="M20.0907 21.8631L19.265 21.9472L20.0907 21.8631ZM12.0473 15.4364C15.8028 15.4364 18.8927 18.2904 19.265 21.9472L20.9164 21.7791C20.4588 17.2836 16.6631 13.7764 12.0473 13.7764V15.4364ZM4.82962 21.9472C5.2019 18.2904 8.29184 15.4364 12.0473 15.4364V13.7764C7.43146 13.7764 3.63582 17.2836 3.17815 21.7791L4.82962 21.9472ZM4.79194 23.5218H19.3027V21.8618H4.79194V23.5218ZM3.17815 21.7791C3.07617 22.7808 3.9006 23.5218 4.79194 23.5218V21.8618C4.78885 21.8618 4.79485 21.8608 4.80465 21.8709C4.81009 21.8765 4.81768 21.8867 4.82333 21.9023C4.82939 21.919 4.83081 21.9355 4.82962 21.9472L3.17815 21.7791ZM19.265 21.9472C19.2638 21.9355 19.2652 21.919 19.2713 21.9023C19.2769 21.8867 19.2845 21.8765 19.2899 21.8709C19.2997 21.8608 19.3057 21.8618 19.3027 21.8618V23.5218C20.194 23.5218 21.0184 22.7808 20.9164 21.7791L19.265 21.9472Z" fill="#F0F0F0" mask="url(#path-2-inside-1_1803_238)"/>
</svg>
