<svg width="30" height="30" viewBox="0 0 30 30" fill="none" xmlns="http://www.w3.org/2000/svg">
<path d="M3.2074 0.348941L3.30951 0.272705C5.43971 2.81418 11.5084 9.71719 14.9984 9.71719C17.6942 9.71719 19.2466 5.67499 19.4579 5.09097L19.5809 5.13346C19.5809 5.13346 17.6446 10.4939 19.4644 11.9063C21.2539 13.295 28.7845 10.9505 29.4291 10.7485L29.4658 10.87C29.4658 10.87 20.812 13.4754 20.2622 15.9586C19.869 17.7334 22.1228 20.2396 22.7245 20.8825L22.6338 20.9689C22.6338 20.9689 20.0149 18.0622 18.0658 18.8747C15.1673 20.0835 13.51 28.537 13.3094 29.7273L13.1816 29.7034C13.1816 29.7034 14.9999 20.1776 10.4454 18.0411C7.88687 16.8402 1.57179 18.3726 0.569928 18.6207L0.533203 18.4963C0.533203 18.4963 9.36598 16.3045 9.36598 11.4862C9.36598 7.58636 3.2074 0.348941 3.2074 0.348941Z" fill="white"/>
</svg>
