<svg width="24" height="26" viewBox="0 0 24 26" fill="none" xmlns="http://www.w3.org/2000/svg">
<path d="M16.945 8.19574C16.945 10.8278 14.8116 12.9614 12.18 12.9614C9.54841 12.9614 7.415 10.8278 7.415 8.19574C7.415 5.56373 9.54841 3.43014 12.18 3.43014C14.8116 3.43014 16.945 5.56373 16.945 8.19574Z" fill="#F0F0F0" stroke="#F0F0F0" stroke-width="0.83"/>
<mask id="path-2-inside-1_2109_7129" fill="white">
<path fill-rule="evenodd" clip-rule="evenodd" d="M19.3027 22.6919C19.7611 22.6919 20.1371 22.3193 20.0907 21.8632C19.6757 17.7871 16.2329 14.6066 12.0473 14.6066C7.86165 14.6066 4.41886 17.7871 4.00388 21.8632C3.95746 22.3193 4.33354 22.6919 4.79194 22.6919H19.3027Z"/>
</mask>
<path fill-rule="evenodd" clip-rule="evenodd" d="M19.3027 22.6919C19.7611 22.6919 20.1371 22.3193 20.0907 21.8632C19.6757 17.7871 16.2329 14.6066 12.0473 14.6066C7.86165 14.6066 4.41886 17.7871 4.00388 21.8632C3.95746 22.3193 4.33354 22.6919 4.79194 22.6919H19.3027Z" fill="#F0F0F0"/>
<path d="M20.0907 21.8632L19.265 21.9473L20.0907 21.8632ZM12.0473 15.4366C15.8028 15.4366 18.8927 18.2905 19.265 21.9473L20.9164 21.7792C20.4588 17.2837 16.6631 13.7766 12.0473 13.7766V15.4366ZM4.82962 21.9473C5.2019 18.2905 8.29184 15.4366 12.0473 15.4366V13.7766C7.43146 13.7766 3.63582 17.2837 3.17815 21.7792L4.82962 21.9473ZM4.79194 23.5219H19.3027V21.8619H4.79194V23.5219ZM3.17815 21.7792C3.07617 22.7809 3.9006 23.5219 4.79194 23.5219V21.8619C4.78885 21.8619 4.79485 21.8609 4.80465 21.871C4.81009 21.8766 4.81768 21.8868 4.82333 21.9024C4.82939 21.9191 4.83081 21.9356 4.82962 21.9473L3.17815 21.7792ZM19.265 21.9473C19.2638 21.9356 19.2652 21.9191 19.2713 21.9024C19.2769 21.8868 19.2845 21.8766 19.2899 21.871C19.2997 21.8609 19.3057 21.8619 19.3027 21.8619V23.5219C20.194 23.5219 21.0184 22.7809 20.9164 21.7792L19.265 21.9473Z" fill="#F0F0F0" mask="url(#path-2-inside-1_2109_7129)"/>
</svg>
