<svg width="99" height="120" viewBox="0 0 99 120" fill="none" xmlns="http://www.w3.org/2000/svg">
<g clip-path="url(#clip0_1578_521)">
<path d="M49.7024 0.798523H49.8853C50.7398 0.972732 51.4157 1.12344 51.9132 1.25064C57.8588 2.76432 63.7764 4.38585 69.6657 6.11522C70.7028 6.41995 71.7247 6.74072 72.7315 7.07752C72.7519 7.08447 72.7705 7.09609 72.7859 7.11147C72.8013 7.12686 72.8129 7.14561 72.8201 7.16628L75.1901 14.0774C75.1944 14.09 75.2014 14.1013 75.2107 14.1106C75.2201 14.1198 75.2314 14.1266 75.2437 14.1305L85.4659 17.2588C85.4782 17.2626 85.4894 17.2694 85.4985 17.2787C85.5075 17.288 85.5142 17.2994 85.518 17.3119L87.2118 23.191C87.2153 23.204 87.2219 23.2159 87.2312 23.2256C87.2404 23.2353 87.2519 23.2426 87.2646 23.2466L98.1793 26.7283V29.3821C97.5266 48.2282 91.4252 66.6836 81.9613 82.8137C73.6458 96.9869 62.6279 109.557 49.4976 119.249C49.4836 119.26 49.4668 119.265 49.4494 119.265C49.432 119.265 49.4151 119.26 49.4009 119.249C43.7158 115.051 38.4564 110.375 33.6226 105.222C19.0455 89.68 8.204 70.1869 3.28268 49.1855C1.62056 42.0927 0.70782 34.5702 0.680186 27.1555C0.679903 27.1361 0.68573 27.117 0.696829 27.101C0.707928 27.0851 0.723728 27.0731 0.741956 27.0668L11.9736 23.2458C11.9861 23.2415 11.9973 23.2341 12.0061 23.2242C12.0149 23.2143 12.0211 23.2023 12.024 23.1894L13.3724 17.3418C13.3827 17.2986 13.4087 17.2707 13.4504 17.258L23.645 14.1338C23.6591 14.1294 23.672 14.1218 23.6826 14.1116C23.6931 14.1014 23.7012 14.0888 23.706 14.0749L26.0776 7.15965C26.0868 7.13199 26.1053 7.11457 26.1329 7.10738C33.5259 5.21016 40.8335 2.98029 48.2337 1.10546C48.5578 1.02306 49.0473 0.920746 49.7024 0.798523ZM52.9316 11.0976C52.8806 10.9604 52.7834 10.9107 52.6398 10.9483C52.6341 10.9499 52.629 10.9533 52.6253 10.958C52.6216 10.9627 52.6194 10.9685 52.6191 10.9745C52.6187 10.9805 52.6202 10.9865 52.6233 10.9916C52.6265 10.9967 52.6311 11.0007 52.6365 11.003L52.8462 11.091C52.8585 11.0961 52.869 11.1048 52.8764 11.116C52.8838 11.1273 52.8877 11.1405 52.8877 11.154V105.074C52.8877 105.087 52.8846 105.1 52.8787 105.111C52.8603 105.148 52.8581 105.18 52.8722 105.206C52.8746 105.21 52.8779 105.214 52.8818 105.217C52.8858 105.219 52.8903 105.221 52.895 105.222C52.8997 105.223 52.9045 105.222 52.909 105.22C52.9135 105.219 52.9176 105.216 52.921 105.213C57.2005 100.883 61.2923 96.3694 65.1963 91.6735C68.8684 87.2569 72.3243 82.6403 75.3705 77.7492C77.6585 74.075 79.6985 70.1363 81.0055 65.981C81.7313 63.6748 82.1246 61.3578 82.0539 58.9047C82.0404 58.412 81.9675 57.9488 81.8353 57.5152C81.7351 57.1856 81.6652 56.9318 81.6256 56.7537C80.7056 52.5868 77.3326 50.0632 73.5426 48.8379C73.5356 48.8356 73.5293 48.8314 73.5245 48.8257C73.5196 48.82 73.5163 48.8132 73.515 48.8058C73.5136 48.7985 73.5143 48.791 73.5169 48.7841C73.5194 48.7771 73.5238 48.7711 73.5296 48.7666C73.667 48.6554 73.7686 48.5128 73.9238 48.424C79.1702 45.4127 86.3299 39.7525 83.5194 32.498C82.6017 30.1287 81.0355 28.0697 79.2458 26.3027C76.875 23.9617 74.1985 21.9807 71.3961 20.2137C65.6035 16.5611 59.3305 13.6095 52.9738 11.1407C52.9538 11.133 52.9397 11.1186 52.9316 11.0976ZM39.4404 74.9834C39.0156 73.4996 38.587 72.0111 38.1546 70.5179C33.291 53.715 31.2582 36.2327 31.2468 18.7396C31.2468 18.7069 31.2338 18.7 31.2078 18.7188C29.073 20.2585 26.9384 21.7982 24.804 23.3379C24.5147 23.5464 24.27 23.738 24.0701 23.9128C24.0479 23.9321 24.0368 23.957 24.0368 23.9874C24.036 37.2539 25.2015 50.5452 28.1421 63.4873C28.1681 63.6009 28.1567 63.7279 28.1599 63.8473C28.1605 63.8751 28.1506 63.902 28.1323 63.9228L25.455 66.998C25.4507 67.0029 25.4449 67.0063 25.4386 67.0077C25.4323 67.009 25.4257 67.0084 25.4197 67.0057C25.4138 67.003 25.4088 66.9985 25.4056 66.9928C25.4023 66.9871 25.4008 66.9805 25.4014 66.974C25.4209 66.8055 25.4282 66.7367 25.3437 66.589C23.1598 62.7722 21.4952 58.6808 20.1428 54.406C17.7668 46.8995 16.3206 39.2194 15.8042 31.3656C15.8037 31.3566 15.8009 31.3478 15.7961 31.3402C15.7913 31.3326 15.7846 31.3264 15.7767 31.3222C15.7689 31.3181 15.7601 31.316 15.7512 31.3164C15.7424 31.3167 15.7337 31.3194 15.7262 31.3241C13.8292 32.5029 12.037 33.9804 10.3538 35.4496C10.3353 35.4658 10.3207 35.4862 10.3111 35.509C10.3016 35.5319 10.2972 35.5567 10.2985 35.5815C10.9227 49.602 14.8858 63.2193 21.8317 75.3418C22.5513 76.5983 23.392 78.0213 24.3537 79.6107C24.3684 79.6345 24.3844 79.6356 24.4017 79.6141C26.2749 77.2675 28.2014 74.9677 30.1813 72.7146C30.1981 72.6952 30.213 72.6966 30.226 72.7187C30.4167 73.0395 30.5373 73.2872 30.5877 73.462C33.1593 82.4014 36.616 91.1052 41.4934 98.9728C42.847 101.157 44.3379 103.239 45.9661 105.219C45.97 105.224 45.9754 105.227 45.9815 105.229C45.9876 105.231 45.994 105.231 46 105.228C46.0059 105.226 46.011 105.222 46.0146 105.217C46.0181 105.212 46.0199 105.205 46.0198 105.199V11.0229C46.0197 11.0176 46.0183 11.0124 46.0157 11.0078C46.0131 11.0032 46.0093 10.9994 46.0048 10.9967C46.0003 10.994 45.9952 10.9926 45.99 10.9925C45.9848 10.9925 45.9796 10.9938 45.9751 10.9964C43.5652 12.3478 41.0074 13.4055 38.5845 14.7261C38.4995 14.7726 38.4577 14.8448 38.4594 14.9426L39.4859 74.9768C39.4862 74.9825 39.4844 74.9881 39.4809 74.9925C39.4774 74.9969 39.4723 74.9998 39.4667 75.0006C39.4611 75.0014 39.4554 75.0001 39.4505 74.9969C39.4456 74.9938 39.4421 74.989 39.4404 74.9834Z" fill="#F0F0F0"/>
<path d="M70.1438 27.8523C72.5607 29.4098 75.7375 32.0263 76.0072 35.1977C76.2572 38.1481 73.1163 40.6525 70.8759 41.9358C67.7416 43.7306 64.2486 44.9026 60.7515 45.7505C60.4157 45.8323 60.1347 45.996 59.8332 46.1507C59.8288 46.1528 59.8241 46.1537 59.8193 46.1534C59.8145 46.1532 59.8099 46.1517 59.8058 46.1492C59.8018 46.1467 59.7984 46.1432 59.796 46.139C59.7937 46.1348 59.7924 46.1301 59.7923 46.1253V23.0391C59.7922 23.0342 59.7934 23.0294 59.7959 23.0251C59.7983 23.0208 59.8018 23.0172 59.806 23.0147C59.8102 23.0122 59.8151 23.0109 59.82 23.0109C59.8249 23.0108 59.8297 23.0121 59.834 23.0146C60.1371 23.1873 60.4084 23.3092 60.7646 23.423C64.0852 24.4859 67.2116 25.9623 70.1438 27.8523ZM59.8879 85.1521C59.865 85.1761 59.8454 85.1924 59.8291 85.2012C59.8221 85.2049 59.8142 85.2064 59.8064 85.2056C59.7985 85.2047 59.7911 85.2015 59.7851 85.1964C59.7791 85.1913 59.7748 85.1845 59.7727 85.1769C59.7707 85.1692 59.7709 85.1612 59.7735 85.1537C59.7779 85.1411 59.7817 85.1289 59.785 85.1169C59.7899 85.0983 59.7923 85.0792 59.7923 85.0596V54.8555C59.7923 54.8432 59.7957 54.831 59.8022 54.8203C59.8087 54.8096 59.818 54.8009 59.8291 54.7949C60.1273 54.6386 60.3634 54.4913 60.7099 54.4553C62.7297 54.2441 64.7522 54.215 66.7775 54.3677C69.08 54.5412 71.4863 55.1665 73.1294 56.841C76.2441 60.0173 73.5331 66.0622 71.7894 69.2459C68.8725 74.5706 65.0159 79.4231 61.0179 83.9662C60.6666 84.3656 60.267 84.7576 59.8879 85.1521Z" fill="#F0F0F0"/>
</g>
<defs>
<clipPath id="clip0_1578_521">
<rect width="97.4991" height="118.467" fill="white" transform="translate(0.683228 0.798492)"/>
</clipPath>
</defs>
</svg>
