<svg width="132" height="87" viewBox="0 0 132 87" fill="none" xmlns="http://www.w3.org/2000/svg">
<path d="M118.537 0.323222C121.012 0.902147 122.974 2.23682 124.423 4.32725C125.006 5.22834 125.438 6.19725 125.72 7.23399L125.811 7.64275L126.037 11.1217V14.5917L126.017 16.3775C126.016 16.4502 126.051 16.4865 126.124 16.4865L129.452 16.4974H131.382C131.406 16.4974 131.429 16.5072 131.446 16.5245C131.463 16.5419 131.473 16.5655 131.473 16.59L131.478 18.6793L131.473 22.2509V24.629C131.473 24.6408 131.47 24.6526 131.466 24.6635C131.461 24.6744 131.454 24.6843 131.445 24.6926C131.437 24.7009 131.427 24.7074 131.415 24.7118C131.404 24.7161 131.392 24.7182 131.38 24.718L129.752 24.6817L126.156 24.7307C126.083 24.7307 126.037 24.7665 126.021 24.8379C125.963 25.068 125.973 25.3012 126.051 25.5373L126.044 29.5959C125.972 30.7053 125.974 31.8147 126.05 32.9241L126.006 35.8018L126.051 40.2527L126.042 44.1277C125.97 45.2577 125.973 46.3805 126.051 47.4959L126.006 50.3354L126.044 54.6719L126.048 57.4206C126.048 57.4896 126.083 57.5242 126.153 57.5242L129.707 57.5496L131.324 57.5732C131.404 57.5732 131.445 57.6132 131.447 57.6931L131.474 58.3308L131.478 62.1895L131.426 65.6794L129.707 65.7393L126.122 65.7938C126.052 65.795 126.017 65.8308 126.017 65.901L126.051 69.2528L125.961 73.4077C125.358 77.8719 122.918 80.7169 118.642 81.9426C117.502 82.1182 116.367 82.1975 115.236 82.1805H107.955L104.404 82.186L100.855 82.1805H93.6197L93.0643 82.1642C92.9908 82.1618 92.954 82.1236 92.954 82.0498L92.945 80.4983L92.9341 76.5869L92.9431 74.1144C92.9444 74.0405 92.9811 73.9963 93.0535 73.9817C93.2066 73.9515 93.3652 73.9545 93.5292 73.9908C100.855 73.969 108.181 73.9605 115.507 73.9654C116.508 73.9654 117.423 74.0689 117.743 73.0498C118.04 72.1087 117.861 70.4283 117.852 69.4109V58.4198L117.857 54.7173L117.852 51.153V43.8861L117.857 40.1855L117.852 36.6647V29.3979L117.857 25.6554L117.852 22.131V11.1853C118.014 8.61832 117.56 8.21319 115.145 8.28586L111.73 8.28041L107.955 8.28586L104.495 8.28041L100.72 8.28586H93.484L90.0236 8.28041L86.2484 8.28586H79.0129L75.5524 8.28041L71.7773 8.28586L68.3169 8.28041L64.5417 8.28586H57.3061L53.8457 8.28041L50.0706 8.28586H42.835L39.3746 8.28041L35.5994 8.28586L32.139 8.28041L28.3638 8.28586H17.5557C14.9201 8.23318 14.1785 8.13507 14.3069 11.1399L14.3015 14.7588L14.3069 18.4068L14.2997 21.982L14.3069 25.8098L14.3015 29.2434V33.1039L14.3069 36.6193V40.3435L14.3015 43.8207L14.3069 47.565V58.2381L14.3033 62.1695L14.3069 65.6866V69.2746C14.2852 70.3368 14.2925 71.3996 14.3286 72.463C14.354 73.2042 14.6542 73.9 15.4303 73.9527C16.4083 74.0193 18.3076 74.032 21.1283 73.9908L38.9459 74.0053L38.9839 74.0526C39.0116 74.0841 39.0255 74.121 39.0255 74.1634L39.0436 76.5869V80.3402L39.0291 82.1606L35.5994 82.1805L32.0467 82.186L28.4091 82.1805H21.1735L17.4345 82.1696C16.3118 82.2108 15.1824 82.1606 14.0465 82.0189C12.8248 81.7742 11.6316 81.3116 10.4667 80.6309L9.41569 79.8043C7.40902 77.9779 6.32127 75.6943 6.15244 72.9535L6.11446 69.3273L6.08913 65.8102C6.08916 65.7954 6.08356 65.7811 6.07348 65.7703C6.06339 65.7595 6.04958 65.753 6.03487 65.752C5.03515 65.7024 4.03664 65.7133 3.03934 65.7847L0.687778 65.7248L0.693204 57.8693C0.69441 57.6634 0.797517 57.5599 1.00252 57.5587L2.99412 57.5496L5.94442 57.5514C5.99623 57.5514 6.04593 57.5307 6.08256 57.4939C6.1192 57.4571 6.13978 57.4072 6.13978 57.3552L6.12893 54.8173L6.15425 51.1857L6.11446 47.5722L6.15244 43.1594L6.12169 40.2981L6.15606 36.6374L6.10722 33.0767L6.15244 29.3797L6.15787 24.8543C6.15787 24.7864 6.1241 24.7525 6.05657 24.7525L0.852388 24.7071C0.808397 24.7066 0.76634 24.6889 0.735232 24.6576C0.704124 24.6264 0.686439 24.5842 0.685968 24.54L0.680542 22.131V18.8155L0.685968 16.6209C0.685968 16.5882 0.698929 16.5567 0.721997 16.5336C0.745065 16.5104 0.77635 16.4974 0.808973 16.4974L3.03934 16.4919L5.93176 16.4938C6.09577 16.4938 6.17415 16.412 6.16692 16.2485L6.10903 14.9568L6.11446 11.238C6.12049 10.022 6.19586 8.81089 6.34057 7.60459C7.19798 3.86035 10.2279 0.864601 14.0284 0.232386C14.4969 0.179701 14.9599 0.114298 15.4321 0.114298L25.1078 0.0961328H46.8598L50.1031 0.0997642L53.6431 0.0961328H82.9924L86.1924 0.0979485L90.228 0.0961328H104.744L107.988 0.0997642L111.528 0.0961328H114.784C116.044 0.0428426 117.295 0.118539 118.537 0.323222Z" fill="#F0F0F0"/>
<path d="M24.8017 16.3364H28.146L32.0851 16.3383L35.3317 16.3821C37.0298 16.7453 38.1596 17.7532 38.7212 19.4057C38.8719 19.8493 38.9105 20.7018 38.8369 21.9631C38.7827 23.1611 38.7917 24.3956 38.8641 25.6667L38.8514 29.5312C38.7791 30.667 38.7833 31.7858 38.8641 32.8875L38.8496 35.4467L38.8207 40.3239C39.1027 44.1427 38.1138 46.6471 33.9308 46.6434C31.9724 46.6422 30.014 46.6422 28.0556 46.6434C28.0321 46.6434 28.0096 46.653 27.993 46.6702C27.9764 46.6873 27.967 46.7106 27.967 46.7348V54.9866L27.9725 58.2514L27.958 63.8726L27.9128 65.7774C27.9104 65.8396 27.8785 65.8713 27.817 65.8725L24.7945 65.9292L21.1989 65.8798C21.0181 65.8816 19.7509 66.0516 19.8232 65.7464L19.778 62.2274L19.7744 58.4982L19.778 54.9153V47.6031L19.7816 43.8721L19.778 40.291V32.9789L19.7816 29.2515L19.778 25.6667C19.8455 24.4078 19.8461 23.1648 19.7798 21.9375C19.7672 20.4715 19.7455 19.5666 20.3402 18.3674L21.3779 17.1792C22.4372 16.4979 23.5785 16.217 24.8017 16.3364ZM27.9725 34.3499L27.9689 38.176C27.9686 38.2007 27.9732 38.2252 27.9823 38.2482C27.9915 38.2711 28.005 38.292 28.0221 38.3096C28.0392 38.3273 28.0596 38.3414 28.0821 38.351C28.1046 38.3607 28.1288 38.3658 28.1532 38.3661L30.5322 38.3862C30.5865 38.3874 30.6136 38.3606 30.6136 38.3058L30.6696 32.659L30.6786 24.7509C30.6786 24.715 30.6646 24.6806 30.6395 24.6552C30.6144 24.6299 30.5804 24.6156 30.5449 24.6156H28.1424C28.0959 24.6156 28.0513 24.6341 28.0184 24.667C27.9855 24.6999 27.967 24.7446 27.967 24.7911L27.9725 34.3499ZM42.6241 16.3438L46.6301 16.3364C47.6858 16.4096 48.6601 16.2907 49.7592 16.4333L49.7267 18.2961L49.7086 22.1167L49.7104 24.7984V39.4227L49.7068 44.0842V47.6744L49.7104 51.3049V54.9153L49.705 57.5659C49.705 57.5897 49.7143 57.6124 49.731 57.6292C49.7476 57.646 49.7701 57.6555 49.7936 57.6555L53.635 57.65C54.1171 57.6951 54.5943 57.6756 55.0667 57.5915C55.133 57.5805 55.1662 57.5409 55.1662 57.4727L55.1644 54.961V22.1569L55.1662 18.3381L55.1698 16.4662C55.1698 16.4333 55.1827 16.4017 55.2058 16.3783C55.2288 16.355 55.2601 16.3419 55.2927 16.3419L57.2053 16.3364H61.0015L63.2323 16.3419C63.2481 16.3418 63.2638 16.3451 63.2783 16.3517C63.2928 16.3582 63.3058 16.3679 63.3164 16.38C63.327 16.3921 63.3349 16.4063 63.3397 16.4218C63.3446 16.4373 63.3461 16.4537 63.3443 16.4699C63.2793 17.0573 63.2841 17.6551 63.3588 18.2632V22.3306C63.2853 23.3969 63.2853 24.4633 63.3588 25.5296V58.7541L63.3136 61.9989C63.0774 63.8732 62.1723 65.084 60.5984 65.6312C60.1188 65.7981 59.4143 65.8829 58.4852 65.8853C55.6627 65.8902 52.8408 65.9072 50.0196 65.9365H46.4493C43.81 66.0571 42.1921 64.85 41.5955 62.3151L41.5612 58.5713L41.5648 54.9445L41.5612 51.2135V47.6031L41.5648 43.9324L41.5612 40.2453V29.3228L41.5648 25.6905L41.5612 22.0107L41.5666 18.3016L41.6172 16.5211C41.6196 16.448 41.6564 16.409 41.7275 16.4041L42.6241 16.3438ZM75.3278 16.3364L78.7788 16.3456L82.6491 16.3364C83.8476 16.3803 84.7081 16.309 85.9211 16.9507C86.5418 17.3918 87.0503 17.9664 87.4468 18.6745C87.9204 19.839 87.8319 20.9248 87.8536 22.1478V33.1617L87.8481 35.4577C87.8482 35.485 87.8375 35.5112 87.8186 35.5307C87.7997 35.5502 87.7739 35.5614 87.7469 35.5619L85.2667 35.5929C85.2064 35.5942 85.1763 35.6246 85.1763 35.6843L85.142 41.0679L85.1474 43.7314C85.1474 43.8057 85.1842 43.8435 85.2577 43.8447L86.0766 43.8593L87.8445 43.9617L87.8536 47.7859V55.0524L87.8463 58.692L87.8084 62.2274C87.4058 64.3954 86.1477 65.6044 84.0338 65.8542C83.7084 65.8926 83.2366 65.8542 82.8299 65.9365H75.373C74.2245 65.956 73.0796 65.9054 71.9383 65.7847L71.4936 65.655C69.0279 64.6331 68.7856 62.8727 68.7802 60.2348C68.7693 54.8257 68.6518 49.3708 68.7314 43.9653C68.7326 43.8934 68.6976 43.8575 68.6265 43.8575L66.0632 43.8483L66.0578 40.4007L66.0559 36.6349L66.0614 35.7008C66.0614 35.6749 66.0714 35.6501 66.0893 35.6316C66.1072 35.6132 66.1316 35.6026 66.1572 35.6021L68.4132 35.5765C68.506 35.6009 68.6006 35.5997 68.697 35.5728C68.7585 35.5558 68.7886 35.5149 68.7874 35.4504C68.7513 29.5117 68.7615 24.4529 68.8182 20.274C68.8242 19.8402 68.9278 19.3832 69.1291 18.903C69.634 17.7392 70.4825 16.947 71.6744 16.5266C72.8831 16.3352 74.101 16.2719 75.3278 16.3364ZM76.9584 29.4946L76.9566 32.9496V35.529C76.9563 35.5428 76.9589 35.5565 76.964 35.5694C76.9692 35.5822 76.9769 35.5939 76.9866 35.6038C76.9964 35.6137 77.008 35.6215 77.0209 35.6269C77.0337 35.6322 77.0475 35.635 77.0614 35.635L79.453 35.6167C79.5008 35.6162 79.5465 35.5968 79.5803 35.5626C79.6141 35.5285 79.6333 35.4822 79.6338 35.4339L79.6392 24.8076C79.6392 24.7566 79.6192 24.7078 79.5836 24.6718C79.548 24.6358 79.4998 24.6156 79.4494 24.6156H77.0524C76.9909 24.6156 76.9602 24.6467 76.9602 24.7088L76.9584 29.4946ZM76.962 47.5574V55.0524L76.9313 57.469C76.93 57.6006 76.9945 57.6658 77.1247 57.6646L79.5019 57.639C79.5898 57.6378 79.6338 57.5927 79.6338 57.5037L79.6627 44.0293C79.6627 43.9599 79.6278 43.9215 79.5579 43.9142L79.0788 43.863L77.0451 43.8575C77.0216 43.8575 76.9991 43.8669 76.9825 43.8837C76.9659 43.9005 76.9566 43.9233 76.9566 43.9471L76.962 47.5574ZM97.2917 16.3364H107.822C109.155 16.2731 110.312 16.7228 111.293 17.6855L111.743 18.2742C112.383 19.5191 112.35 20.5025 112.348 22.0564L112.343 25.6283L112.348 29.3685C112.409 29.6049 112.39 29.8054 112.292 29.9699C112.257 30.0309 112.205 30.0613 112.135 30.0613L110.217 30.0924L107.872 30.0778L104.259 30.0997L104.154 29.3228L104.157 25.7874V24.7637C104.157 24.7372 104.152 24.711 104.142 24.6866C104.132 24.6622 104.117 24.64 104.099 24.6215C104.08 24.6029 104.058 24.5883 104.033 24.5785C104.009 24.5687 103.983 24.5639 103.957 24.5644L100.636 24.6229L98.841 24.6101C98.7735 24.6101 98.7325 24.643 98.718 24.7088C98.6578 24.994 98.6656 25.2566 98.7415 25.4967L98.7451 29.4142V36.7263L98.7469 40.2398L98.7451 43.9471V54.9153L98.7506 57.4891C98.7506 57.5647 98.7885 57.6037 98.8645 57.6061L100.726 57.65L103.979 57.6409C104.031 57.6404 104.081 57.619 104.118 57.5813C104.155 57.5437 104.176 57.4928 104.176 57.4398L104.159 54.9463L104.154 51.2592L104.147 47.7293L104.201 43.9946C104.202 43.9324 104.172 43.9014 104.11 43.9014H101.542C101.515 43.9014 101.49 43.8908 101.471 43.8719C101.453 43.8531 101.442 43.8275 101.442 43.8008L101.511 35.7575C101.511 35.6661 101.556 35.621 101.647 35.6222L107.842 35.6277C110.604 35.5472 112.401 37.4466 112.341 40.216L112.348 43.9928V58.5256L112.298 62.2566C111.878 64.6623 110.436 65.8749 107.97 65.8944L104.418 65.9182L102.037 65.9219C100.394 65.8512 98.7524 65.856 97.111 65.9365C95.8419 65.9547 94.2276 66.048 93.1014 65.5562C91.4106 64.8177 90.5646 63.3693 90.5634 61.211C90.5573 48.1881 90.5549 35.1646 90.5561 22.1405C90.5573 20.6646 90.6525 19.6446 90.8418 19.0803C91.8631 16.0385 94.6271 16.3785 97.2917 16.3364Z" fill="#F0F0F0"/>
<path d="M60.853 68.9212C62.5367 68.8863 62.4223 69.6668 62.4822 71.1891C62.5306 72.4587 62.51 75.2512 62.4204 79.5667C62.3896 81.0578 62.4985 82.9052 62.4332 84.5818C62.5131 85.6818 62.1299 86.6624 60.9838 86.8938C59.5599 86.7273 58.1184 86.7493 56.6594 86.9599C56.0746 86.6918 55.606 86.3092 55.2536 85.8122C55.2161 85.7595 55.1986 85.7014 55.201 85.6377C55.2246 85.0905 55.141 84.5212 55.1392 84.0291C55.132 79.847 55.1005 75.665 55.0448 71.4829C55.0321 70.5611 54.9957 68.8459 56.3234 68.8551C57.8333 68.8673 59.3432 68.8894 60.853 68.9212ZM57.8636 76.5495C57.8514 76.7478 57.8841 77.2332 57.9616 78.0058C57.9955 78.3522 57.978 78.9276 57.909 79.7319C57.7927 81.0798 57.958 82.4479 57.8672 83.8271C57.8659 83.8453 57.8684 83.8635 57.8744 83.8808C57.8804 83.898 57.8898 83.9138 57.902 83.9272C57.9143 83.9406 57.9291 83.9513 57.9456 83.9587C57.9621 83.9662 57.9799 83.9701 57.998 83.9703L59.4437 83.9905C59.4608 83.9908 59.4777 83.9875 59.4935 83.9808C59.5092 83.974 59.5234 83.964 59.535 83.9513C59.5467 83.9387 59.5555 83.9237 59.5611 83.9074C59.5666 83.891 59.5687 83.8736 59.5672 83.8564C59.5072 83.1145 59.3874 82.3745 59.4182 81.6399C59.4909 79.8917 59.5617 78.1563 59.5744 76.4118L59.6162 71.5436C59.6162 71.527 59.6129 71.5106 59.6065 71.4954C59.6002 71.4802 59.5908 71.4665 59.5791 71.4551C59.5673 71.4438 59.5534 71.435 59.5383 71.4294C59.5231 71.4237 59.507 71.4214 59.4909 71.4224L57.9489 71.505C57.8884 71.5087 57.8581 71.5411 57.8581 71.6023L57.8636 76.5495ZM78.2615 83.9776C78.2507 84.0355 78.2549 84.0952 78.2737 84.1509C78.2926 84.2066 78.3255 84.2565 78.3691 84.2957C78.4128 84.3348 78.4658 84.362 78.523 84.3745C78.5802 84.387 78.6397 84.3844 78.6956 84.367C79.2041 84.2078 79.7266 84.1839 80.263 84.2953C80.3175 84.3063 80.3617 84.3345 80.3956 84.3798C80.708 84.7985 80.51 86.0968 80.4428 86.6183C80.4331 86.6943 80.3901 86.7328 80.3138 86.734L75.826 86.8075C75.7705 86.808 75.7171 86.7866 75.677 86.7478C75.637 86.7091 75.6135 86.656 75.6116 86.6C75.4791 82.0807 75.608 77.576 75.5535 73.0604C75.5481 72.5609 75.7188 71.9806 75.6425 71.3471C75.5493 70.5697 75.5469 69.7886 75.6353 69.0038C75.6449 68.9218 75.6903 68.8796 75.7715 68.8771L78.2179 68.8202C78.2716 68.8187 78.3236 68.8387 78.3627 68.8759C78.4019 68.913 78.4249 68.9643 78.4268 69.0185C78.4958 71.3495 78.5273 73.6762 78.5212 75.9986C78.5212 76.2557 78.4286 76.5164 78.4286 76.7533C78.4238 78.673 78.4232 80.5926 78.4268 82.5122C78.4286 83.0246 78.3487 83.5039 78.2615 83.9776ZM46.3233 68.8753C46.712 68.8496 47.0752 68.9194 47.413 69.0846C48.1758 71.9751 48.8587 74.8692 49.4617 77.767C49.498 77.9384 49.5453 77.9421 49.6034 77.778C49.6651 77.6042 49.7275 77.352 49.7905 77.0215C50.2929 74.3942 50.8154 71.7351 51.3579 69.0443C51.37 68.986 51.4027 68.9341 51.4498 68.8983C51.4968 68.8625 51.5552 68.8452 51.6139 68.8496L53.8915 69.0314C53.9444 69.0354 53.994 69.0592 54.0309 69.0981C54.0677 69.1371 54.0892 69.1885 54.0913 69.2426C54.1839 71.5729 54.0913 74.4065 54.1003 76.2428C54.1185 79.6732 54.2892 83.1972 54.0368 86.6183C54.0332 86.6688 54.0113 86.7161 53.9751 86.7514C53.9389 86.7866 53.891 86.8072 53.8406 86.8093L51.7937 86.9011C51.7081 86.9051 51.6244 86.8748 51.5607 86.8167C51.4971 86.7585 51.4588 86.6774 51.4541 86.5908C51.3306 84.3816 51.5122 82.0825 51.4759 79.9174C51.4746 79.8803 51.46 79.845 51.4348 79.818C51.4096 79.7911 51.3755 79.7743 51.339 79.7709C51.3024 79.7675 51.2659 79.7778 51.2363 79.7997C51.2067 79.8216 51.186 79.8536 51.1781 79.8899C50.77 82.0115 50.2433 84.1037 49.5979 86.1666C49.5913 86.1895 49.5773 86.2096 49.5582 86.2236C49.5391 86.2377 49.5159 86.245 49.4923 86.2443C49.4687 86.2437 49.446 86.2352 49.4276 86.2201C49.4093 86.2051 49.3964 86.1843 49.3909 86.1611L47.6055 79.2655C47.5955 79.2277 47.5723 79.1949 47.5403 79.1732C47.5082 79.1514 47.4693 79.1421 47.431 79.147C47.3926 79.1519 47.3574 79.1707 47.3317 79.2C47.306 79.2292 47.2917 79.2668 47.2913 79.3059L47.2405 86.4916C47.2393 86.548 47.2187 86.5963 47.1787 86.6367C47.0395 86.7763 46.8603 86.8442 46.6411 86.8405L45.0374 86.7799C44.941 86.7758 44.8499 86.7348 44.7827 86.6655C44.7155 86.5962 44.6773 86.5037 44.676 86.4072L44.636 83.8032V80.2682C44.7462 78.9827 44.7613 77.6972 44.6814 76.4118L44.5961 72.6142L44.6306 69.0883C45.1851 68.939 45.7494 68.868 46.3233 68.8753ZM64.3493 68.8753H68.1179C69.1277 68.8845 70.4427 68.7578 70.4227 70.0432C70.3767 73.0206 70.361 74.9715 70.3755 75.8958C70.3791 76.1577 70.2405 76.4846 69.9596 76.8764C69.9305 76.9192 69.8942 76.9535 69.8506 76.9792L69.7453 77.0435C69.6629 77.0925 69.652 77.1543 69.7126 77.229L70.4736 78.1618C70.5208 78.2194 70.5444 78.2855 70.5444 78.3602C70.5504 79.3506 70.5371 81.5775 70.5044 85.0409C70.4917 86.4531 69.6454 86.7083 68.3904 86.7157C67.1238 86.7255 65.8737 86.75 64.6399 86.7891L63.9225 86.7689C63.8559 86.7665 63.822 86.7316 63.8207 86.6643L63.7717 84.1888C63.7729 82.5495 63.7566 80.8907 63.7227 79.2122C63.7118 78.6907 63.3685 78.4667 63.3503 78.0076C63.3267 77.4126 63.2414 76.4008 63.69 75.9453C63.7348 75.9 63.7572 75.845 63.7572 75.7801L63.7045 69.0094C63.7033 68.9359 63.739 68.898 63.8117 68.8955L64.3493 68.8753ZM67.7619 71.3893C67.7619 71.3576 67.7497 71.3273 67.7279 71.3049C67.7061 71.2825 67.6765 71.2699 67.6457 71.2699H66.5887C66.5112 71.2699 66.4688 71.3085 66.4615 71.3856C66.3162 72.8853 66.3047 74.3844 66.427 75.8829C66.4305 75.9239 66.4478 75.9624 66.4759 75.9919C66.5041 76.0214 66.5414 76.04 66.5814 76.0445L67.6221 76.1602C67.7105 76.17 67.7547 76.1296 67.7547 76.039L67.7619 71.3893ZM67.7474 78.8867C67.7473 78.8604 67.7421 78.8343 67.7321 78.8101C67.7221 78.7858 67.7074 78.7638 67.689 78.7452C67.6705 78.7267 67.6486 78.712 67.6246 78.702C67.6005 78.692 67.5747 78.687 67.5487 78.687L66.5353 78.6907C66.5093 78.6908 66.4835 78.6961 66.4596 78.7062C66.4356 78.7164 66.4138 78.7312 66.3955 78.7499C66.3772 78.7685 66.3627 78.7906 66.3528 78.815C66.343 78.8393 66.3379 78.8653 66.338 78.8916L66.3562 84.1694C66.3563 84.1956 66.3615 84.2217 66.3715 84.2459C66.3816 84.2701 66.3962 84.2922 66.4147 84.3107C66.4331 84.3292 66.455 84.3439 66.4791 84.3538C66.5031 84.3638 66.5289 84.3689 66.5549 84.3688L67.5683 84.3651C67.5943 84.365 67.6201 84.3597 67.644 84.3496C67.668 84.3395 67.6898 84.3246 67.7081 84.306C67.7264 84.2873 67.7409 84.2652 67.7508 84.2409C67.7606 84.2165 67.7657 84.1905 67.7656 84.1642L67.7474 78.8867ZM82.6023 68.8753L86.1494 68.98C86.6446 68.931 87.1144 69.0026 87.5587 69.1948L87.5406 71.3232C87.5406 71.3954 87.5048 71.434 87.4334 71.4389L86.3255 71.5068L84.2459 71.5013C84.1769 71.5013 84.1333 71.535 84.1152 71.6023C84.0704 71.7749 84.0631 71.9549 84.0934 72.1422L83.9317 75.9674C83.9293 76.0433 83.9656 76.0818 84.0407 76.0831L86.3292 76.0941L87.1083 76.1235C87.1725 76.1259 87.2191 76.1565 87.2482 76.2153C87.2954 76.3096 87.3039 76.424 87.2736 76.5587L87.2282 78.5769C87.2258 78.6491 87.1888 78.6864 87.1174 78.6889L85.372 78.7605C84.9167 78.676 84.4942 78.7225 84.1043 78.9001C84.0189 80.562 84.2696 81.8364 84.0934 83.7775L84.1061 84.1319C84.1085 84.1968 84.1418 84.2323 84.206 84.2384C84.8841 84.3021 85.5336 84.2855 86.1548 84.1888C86.5314 84.3541 86.8552 84.4245 87.1265 84.4C87.1626 84.3967 87.1991 84.4011 87.2335 84.413C87.2679 84.4249 87.2995 84.444 87.3262 84.4691C87.3529 84.4942 87.3741 84.5247 87.3885 84.5587C87.4029 84.5926 87.4102 84.6293 87.4098 84.6663L87.3826 86.7083C87.3826 86.7952 87.3396 86.8381 87.2536 86.8369L81.6142 86.824C81.4072 86.8228 81.3031 86.7175 81.3019 86.5082C81.2934 84.5849 81.3079 82.5967 81.3455 80.5436C81.3745 79.0764 80.4791 77.7891 81.0294 76.2281C81.2928 75.4807 81.3509 74.2412 81.3019 73.4497C81.2123 72.0198 81.2044 70.5642 81.2783 69.0828C81.6984 68.9126 82.1397 68.8435 82.6023 68.8753ZM74.1641 69.2958C74.1768 70.2581 74.2894 71.292 74.2985 72.1734C74.3397 75.7397 74.353 79.3059 74.3385 82.8721C74.333 83.9519 74.244 85.3549 74.2604 86.6055C74.2609 86.6247 74.2537 86.6433 74.2405 86.6573C74.2272 86.6714 74.209 86.6798 74.1895 86.6808L71.8811 86.7946C71.7201 86.802 71.6051 86.7328 71.5361 86.5871C71.4489 86.4023 71.4071 86.1782 71.4107 85.915C71.4688 81.4636 71.4888 76.0004 71.4707 69.5254C71.4695 69.2854 71.5306 69.1006 71.6541 68.9708C72.4254 68.9512 73.1537 68.9322 73.839 68.9139C74.0751 68.9065 74.1835 69.0338 74.1641 69.2958Z" fill="#F0F0F0"/>
</svg>
