<svg width="133" height="96" viewBox="0 0 133 96" fill="none" xmlns="http://www.w3.org/2000/svg">
<path d="M61.8788 86.1164H70.8952C70.9161 86.0997 70.9181 57.7922 70.9181 57.7922H61.8768V86.1164H61.8788ZM51.7229 57.7943H42.5647L42.573 88.3663L59.967 86.0517V80.5292L51.7063 81.5644L51.7229 57.7943ZM93.5508 64.1099H104.014L93.914 83.4053V88.9069C93.9703 88.9967 115.086 94.874 115.086 94.874V88.2223L102.928 84.9122L113.245 64.1099H115.084V57.7943H93.5508V64.1099ZM72.3958 64.1099H78.0749V86.4608L87.0724 87.5378V64.1099H92.1671V57.7943H72.3937V64.1099H72.3958ZM40.5715 77.5488C40.6425 74.1406 38.499 73.0094 38.499 73.0094C38.499 73.0094 40.5465 71.6757 40.5465 69.5009V64.3457C40.5465 59.3826 38.1358 57.7964 36.8001 57.7964H17.7051V64.1162L20.4037 64.112V87.8988L17.7051 88.7358V95.9029C17.7051 95.9029 35.3683 90.13 36.4453 89.7543C38.307 89.1052 39.7784 87.567 40.2334 85.8639C40.5402 84.7181 40.5945 84.19 40.5945 82.3701C40.5945 80.5501 40.4922 81.2681 40.5715 77.5488ZM32.4359 83.4929C32.4359 84.2213 31.6679 84.524 31.2358 84.6513C29.2635 85.2294 29.2593 85.2231 29.2593 85.2231V76.2903C29.2593 76.2903 30.7767 76.2819 31.2358 76.2819C31.7868 76.2819 32.4359 76.8121 32.4359 77.8974C32.4359 77.8995 32.4359 82.7645 32.4359 83.4929ZM32.4359 70.0248C32.4359 70.7532 31.7952 71.3647 31.2358 71.3647C30.6786 71.3647 29.2593 71.3543 29.2593 71.3543V64.1704C29.2593 64.1704 30.9102 64.1621 31.3694 64.1621C31.8265 64.1621 32.4359 64.7653 32.4359 65.7775C32.4359 65.7796 32.4359 69.2964 32.4359 70.0248ZM67.9816 0L54.6846 5.8794V22.5513L67.9795 35.7544L81.2744 22.5513V5.8794L67.9816 0ZM79.4607 21.7623L67.9795 33.1642L56.4983 21.7623V7.10871L67.9795 2.16016L79.4607 7.10871V21.7623ZM45.4491 48.9679H50.5062L50.5041 53.0753H41.5086V32.2835H45.4491V48.9679ZM11.8319 41.1621L10.7445 32.2835H6.6872L5.71043 41.1621L4.67731 32.2835H0.519775L3.94056 53.0753H7.6744L8.81605 45.6118L10.0788 53.0753H13.8084L16.9266 32.2835H12.8066L11.8319 41.1621ZM37.5598 44.1592L40.0309 53.0753H35.8692L33.7675 45.5763H32.7344V53.0753H29.0235V32.2835H33.9741C37.0839 32.4463 38.8204 34.0012 39.2378 37.1569C39.2378 37.1569 39.2629 39.6009 39.2629 40.8824C39.265 42.1117 38.1588 43.5393 37.5598 44.1592ZM35.3871 37.3197C35.3871 36.9169 34.9279 36.3972 34.4729 36.3972H32.7511V41.4856H34.1286C34.8194 41.4856 35.385 40.9826 35.385 40.369C35.3871 40.369 35.3871 37.3197 35.3871 37.3197ZM27.5354 37.6432L27.573 48.2499C27.5792 49.8591 26.5043 51.3054 26.0786 51.7083C25.0768 52.66 24.1438 53.0774 22.7183 53.0774C22.6536 53.0774 22.5889 53.0774 22.5221 53.0753C20.9881 53.0336 20.2681 52.7393 19.0387 51.6936C18.1976 50.9799 17.4901 49.7255 17.4901 47.8951L17.4964 37.6035C17.4985 36.6268 17.7259 35.2409 18.4961 34.3309C19.2788 33.4064 20.3578 32.2814 22.5242 32.2814C22.5242 32.2814 22.5347 32.2814 22.5409 32.2814C25.298 32.2918 27.5249 34.6482 27.5354 37.6432ZM23.6784 37.255C23.6784 36.6289 23.1504 36.1196 22.5033 36.1196C21.8563 36.1196 21.3283 36.6289 21.3283 37.255V47.9974C21.3283 48.6214 21.8563 49.1328 22.5033 49.1328C23.1504 49.1328 23.6784 48.6214 23.6784 47.9974V37.255ZM70.0916 49.5898C70.2106 51.3576 68.5201 53.0691 66.5582 53.0753H66.5498C64.59 53.0753 63.1833 51.2053 63.3336 49.2747L63.3711 42.383C63.4087 40.4629 64.6714 39.0186 66.7335 39.0186C66.7439 39.0186 66.7543 39.0186 66.7648 39.0186C68.3364 39.0311 70.2106 40.4232 70.0916 42.3559V49.5898ZM67.3471 42.3872C67.3471 42.0387 67.057 41.7486 66.7043 41.7486C66.3515 41.7486 66.0614 42.0345 66.0614 42.3872V49.4333C66.0614 49.7819 66.3515 50.072 66.7043 50.072C67.0591 50.072 67.3471 49.7839 67.3471 49.4333V42.3872ZM105.09 41.8842L102.018 32.2835H97.8085L97.8148 53.0753H101.818L101.86 43.1469L105.028 53.0753H109.037V32.2835H105.136L105.09 41.8842ZM121.969 32.2835H117.217L114.428 38.1399L114.426 32.2835H110.496V53.0753H114.309L114.328 44.3825L117.695 53.0753L122.09 53.0649L117.206 40.8323L121.969 32.2835ZM129.681 42.4456C129.09 41.8926 128.689 41.5127 128.299 41.1746C127.955 40.8761 127.608 40.609 127.26 40.2792C126.761 39.8075 125.83 38.6074 125.784 37.7622C125.755 37.2633 125.682 36.8668 126.131 36.2657C126.337 35.9902 126.625 35.8879 126.89 35.8879C126.951 35.8879 127.011 35.8942 127.068 35.9025C127.5 35.9777 127.886 36.3826 128.017 37.0358L128.212 38.165L132.025 37.6307C132.025 37.3781 132.012 36.2949 131.78 35.6688C131.127 33.9135 129.739 32.6821 127.982 32.3127C127.61 32.2355 127.235 32.1958 126.849 32.1958C126.164 32.1958 125.448 32.319 124.678 32.5632C123.367 33.039 121.629 34.9049 121.702 37.2884C121.737 38.4676 121.725 39.4945 122.547 40.8093C123.645 42.5709 125.34 43.9066 127.059 45.5179C127.805 46.215 128.443 47.4422 127.946 48.5734C127.74 49.043 127.318 49.3394 126.855 49.3394C126.579 49.3394 126.285 49.2329 126.016 48.9971C125.227 48.3042 125.313 47.15 125.208 46.5489L121.337 46.6261C121.307 49.1891 122.434 51.3013 123.774 52.3323C125.108 53.3592 127.646 53.3946 129.165 52.8103C130.203 52.4137 131.977 50.4831 132.244 48.2457C132.523 45.8518 130.919 43.6061 129.681 42.4456ZM93.3484 32.2835L96.8464 53.0753H92.6972L91.9896 48.1977L89.8817 48.1998L89.0677 53.0774H84.9289L88.5062 32.2856C88.5062 32.2835 93.3484 32.2835 93.3484 32.2835ZM91.5159 44.7331L90.9023 40.49L90.1572 44.7331H91.5159ZM61.9373 37.6244L61.9102 47.7782C62.0416 49.9321 60.4909 53.0419 57.0013 53.0753H52.0423L52.0444 32.2835H57.283C59.7542 32.2835 62.0813 34.5731 61.9373 37.6244ZM58.2473 37.472C58.2473 36.8689 57.7798 36.3742 57.2079 36.3742H55.822V49.0096H57.2079C57.7798 49.0096 58.2473 48.515 58.2473 47.9118V37.472ZM71.5401 53.0753H74.364L74.3702 47.2815H77V44.7352H74.3327V42.0136L77.9705 42.0094V39.196L71.5568 39.2085L71.5401 53.0753ZM86.4379 32.2835H76.3196V36.2615H79.4273L79.4336 53.0753H83.4179V36.2636L86.4379 36.2678V32.2835ZM65.5563 23.4279L67.9544 14.2571L62.5843 16.4131L65.7504 5.04456L68.0045 4.05109L70.1939 4.99446L67.944 11.7171L72.4543 10.0536L69.2192 20.0446L73.6606 17.9346L68.0024 30.6388L69.8391 21.4117L65.5563 23.4279Z" fill="#F0F0F0"/>
</svg>
